<?xml version="1.0" encoding="UTF-8"?>
<svg id="Layer_1" data-name="Layer 1" xmlns="http://www.w3.org/2000/svg" viewBox="0 0 811 335">
  <defs>
    <style>
      .cls-1 {
        fill: #c3e3fd;
      }

      .cls-2 {
        fill: #61b7fc;
      }

      .cls-3 {
        fill: #5eb7fe;
      }

      .cls-4 {
        fill: #fefeff;
      }

      .cls-5 {
        fill: #229cff;
      }

      .cls-6 {
        fill: #5fb7fd;
      }

      .cls-7 {
        fill: #63b9fb;
      }

      .cls-8 {
        fill: #b2dbfc;
      }

      .cls-9 {
        fill: #c8e6fd;
      }

      .cls-10 {
        fill: #c2e1fc;
      }

      .cls-11 {
        fill: #bee0fc;
      }

      .cls-12 {
        fill: #97ccf8;
      }

      .cls-13 {
        fill: #c6e5fd;
      }
    </style>
  </defs>
  <path class="cls-4" d="m405.5,334.96H2.29c-.5,0-1.01-.06-1.5.01-.66.09-.87-.09-.77-.77.08-.49.01-1,.01-1.5V2.29C.04,1.79.08,1.29.03.8-.04.18.1-.09.79.03c.49.08,1,.02,1.5.02h806.42c.5,0,1,.04,1.5-.01.62-.07.89.07.77.76-.08.49-.02,1-.02,1.5v330.42c0,.5-.05,1.01.01,1.5.09.65-.13.84-.76.76-.49-.06-1-.01-1.5-.01h-403.21Zm-164.56-92.89c-.43-1.1-.82-2.21-1.31-3.29-1.08-2.41-2.2-4.79-3.31-7.19-.13-.18-.25-.35-.38-.53-.26-.92-.4-1.89-.8-2.74-.9-1.91-2-3.72-2.87-5.64-1.3-2.87-3.09-5.19-6.16-6.27-.2-.09-.41-.18-.61-.27-1.33-.03-2.66-.11-3.99-.06-.64.02-1.4.11-1.87.47-3.26,2.48-6.41,5.11-9.7,7.55-2.43,1.8-4.92,3.57-7.57,4.99-3.28,1.75-6.82,2.94-10.36,4.15-3.96,1.35-7.83,2.86-12.09,2.83-.25,0-.58-.05-.73.09-1.47,1.37-3.29.86-4.97.88-3.74.05-7.49.02-11.23.01-.66,0-1.52.2-1.96-.13-2.4-1.83-5.4-.39-8.05-1.69-1.73-.86-3.92-1.22-5.87-1.92-1.66-.59-3.42-.88-5.13-1.31-.16-.12-.32-.24-.48-.35-.19-.16-.36-.36-.58-.47-4.09-1.94-8.21-3.82-11.7-6.81-1.62-1.39-3.36-2.64-4.97-4.04-2.49-2.15-5.2-4.14-7.32-6.61-2.59-3.01-4.8-6.38-6.94-9.74-1.72-2.68-3.1-5.58-4.63-8.39-.13-.18-.25-.35-.38-.53-.25-.92-.48-1.84-.77-2.75-.61-1.94-1.24-3.86-1.87-5.8-.11-.11-.22-.22-.33-.34-.22-1.22-.45-2.44-.67-3.66-.11-.11-.22-.22-.33-.34-.18-.67-.45-1.33-.52-2.02-.12-1.21-.11-2.43-.16-3.65-.11-.11-.21-.22-.32-.33-.18-.52-.51-1.04-.52-1.56-.04-4.91-.03-9.82-.02-14.73,0-.41-.09-.95.12-1.22,1.93-2.34.11-5.42,1.75-7.98,1-1.56.59-3.96,1.23-5.83,1.14-3.34,2.53-6.6,3.93-9.84,2.54-5.86,6.03-11.14,10.37-15.79,2.7-2.9,5.44-5.75,8.79-8.04,2.79-1.92,5.45-3.98,8.58-5.35,1.51-.66,2.94-1.52,4.41-2.28.18,0,.32-.06.42-.2,2.54-.94,5.08-1.87,7.62-2.81.15,0,.27-.07.36-.2,1.21-.27,2.42-.53,3.64-.8.16,0,.28-.07.37-.19,2.77-.19,5.33-1.79,8.21-1.29.23.04.57.04.73-.1,1.51-1.28,3.32-.85,5.03-.87,3.67-.04,7.33-.03,11,0,.73,0,1.46.15,2.18.3.93.19,1.84.51,2.77.67,2.31.4,4.62.73,6.93,1.1.15.02.28.18.43.24,1.4.55,2.8,1.12,4.21,1.65,2.34.88,4.81,1.51,7.01,2.65,2.75,1.43,5.31,3.25,7.9,4.97,2.11,1.4,4.31,2.73,6.19,4.41,1.81,1.61,3.68,2.98,5.85,4.1,3.2,1.65,5.87,1.01,8.44-1.13,1.94-1.61,3.56-3.47,4.45-5.87.45-1.21.7-2.51,1.25-3.68,2.43-5.19,4.89-10.37,7.41-15.52,1.98-4.06,4.03-8.08,3.38-12.81-.1-.77-.47-1.49-.67-2.25-.63-2.28-2.44-3.39-4.29-4.56-3.95-2.51-7.68-5.42-11.78-7.62-4.78-2.56-9.52-5.26-14.77-6.97-2.58-.84-5.03-2.18-7.74-2.78-1.24-.28-2.41-.88-3.64-1.24-2.06-.6-4.13-1.23-6.23-1.65-2.38-.48-4.99-.29-7.15-1.22-1.98-.86-3.85-.66-5.78-.8-1.24-.09-2.48-.08-3.71-.26-1.02-.14-2.01-.69-3.01-.71-4.25-.08-8.5-.04-12.75-.03-.66,0-1.54-.13-1.93.23-1.17,1.06-2.5.71-3.78.76-1.66.06-3.65-.51-4.92.21-2.58,1.46-5.48.26-8.06,1.69-1.67.92-3.92.77-5.89,1.19-1.49.31-2.98.67-4.42,1.17-2.48.85-4.91,1.83-7.37,2.74-2.41.9-4.9,1.63-7.23,2.71-6.74,3.11-13.09,6.87-19.3,11-3.86,2.57-7.21,5.69-10.91,8.4-5.49,4.03-9.37,9.78-14.05,14.7-.22.23-.36.54-.53.82-.92,1.53-1.79,3.09-2.76,4.59-1.93,3.01-4.16,5.85-5.83,9-2.64,4.98-5.03,10.1-7.3,15.26-1.02,2.33-1.46,4.9-2.18,7.36-.39,1.31-.84,2.59-1.23,3.9-.6,2.05-1.33,4.09-1.72,6.19-.51,2.7-.74,5.46-1.09,8.19-.02.16-.05.37-.15.46-1.14.97-.75,2.29-.79,3.49-.06,1.75.47,3.76-.22,5.18-.85,1.73-.74,3.34-.77,5.02-.06,3.83-.06,7.66.01,11.49.01.86.39,1.72.6,2.58l.29.6c.03,1.91.04,3.82.09,5.74.02.66.06,1.32.19,1.97.23,1.18.57,2.33.8,3.51.42,2.14.76,4.29,1.2,6.42.29,1.41.62,2.82,1.09,4.18.83,2.42,1.95,4.76,2.65,7.22.89,3.16,1.8,6.28,3.47,9.13.25.42.37.92.58,1.36,1.22,2.6,2.29,5.3,3.73,7.77,1.94,3.34,4.12,6.54,6.29,9.73,2.13,3.12,4.09,6.42,6.63,9.17,4.84,5.26,10.04,10.19,15.1,15.25.47.47.94.96,1.48,1.33,2.9,1.96,5.81,3.92,8.75,5.83,3.43,2.22,6.79,4.58,10.37,6.53,3.43,1.87,7.11,3.29,10.69,4.9.74.33,1.47.71,2.24.96,2.44.77,4.97,1.32,7.33,2.27,2.26.9,4.47,1.81,6.93,1.91.05.17.17.27.34.31,2.25.51,4.49,1.07,6.75,1.51.8.16,1.87-.27,2.45.12,2.3,1.55,4.81.65,7.21.91.81.09,1.63.14,2.42.3.93.18,1.85.72,2.75.66,5.73-.36,11.49.78,17.23-.83,2.83-.79,5.97.04,8.98-1.01,2.48-.87,5.28-.85,7.93-1.25.22-.03.41-.26.62-.39.15,0,.28-.06.37-.19,2.61-.32,5.05-1.2,7.49-2.16,3.26-1.27,6.75-2.03,9.91-3.51,9.13-4.28,18-9.06,26.04-15.22.81-.62,1.39-1.6,1.95-2.49.57-.9,1.05-1.87,1.43-2.87.81-2.11,1.04-4.15-.19-6.31-1.3-2.29-2.25-4.77-3.36-7.17-.13-.18-.25-.35-.38-.53Zm193.98-128.97c-.44-1.1-.84-2.21-1.32-3.29-1.08-2.4-2.2-4.79-3.3-7.18-.13-.18-.25-.35-.38-.53-.44-1.1-.84-2.21-1.32-3.29-1.08-2.4-2.2-4.79-3.3-7.18-.13-.18-.25-.35-.38-.53-.44-1.1-.84-2.21-1.32-3.29-1.08-2.4-2.2-4.79-3.3-7.18-.13-.18-.25-.35-.38-.53-.44-1.1-.84-2.21-1.32-3.29-1.08-2.4-2.2-4.79-3.3-7.18-.13-.18-.25-.35-.38-.53-.44-1.1-.84-2.21-1.32-3.29-1.08-2.4-2.2-4.79-3.3-7.18-.13-.18-.25-.35-.38-.53-.14-.2-.37-.38-.41-.6-1.1-5.89-5.27-9.31-11.07-9.37-9.66-.1-19.33-.05-28.99,0-1.94,0-3.8.24-5.76.75-2.65.68-4.09,2.48-5.65,4.14-.95,1-1.09,2.77-1.55,4.21-.06.18.18.44.24.67.24.84.47,1.68.7,2.51.17.63.25,1.29.51,1.88,1.6,3.63,3.23,7.24,4.86,10.85,1.67,3.68,3.34,7.37,5.03,11.04,2.04,4.43,4.12,8.83,6.15,13.26,1.62,3.53,3.15,7.09,4.77,10.62,2.07,4.5,4.21,8.97,6.29,13.48,1.62,3.52,3.17,7.08,4.78,10.61,1.85,4.06,3.73,8.1,5.59,12.16,1.83,3.98,3.65,7.95,5.47,11.93,1.68,3.68,3.36,7.36,5.03,11.04,1.64,3.61,3.24,7.23,4.9,10.83,2.07,4.5,4.21,8.98,6.28,13.48,1.58,3.45,3.08,6.94,4.64,10.4,1.7,3.76,3.44,7.5,5.17,11.25,2.01,4.35,4.03,8.69,6.03,13.05,1.65,3.6,3.25,7.23,4.9,10.83,2.03,4.43,4.12,8.83,6.15,13.27,1.62,3.53,3.13,7.1,4.77,10.62,2.83,6.07,5.9,12.04,8.52,18.21,2.14,5.03,6.32,6.63,11.02,6.74,11.66.27,23.32.05,34.99.11,2.84.02,5.27-1.11,7.72-2.23.54-.25,1.06-.88,1.28-1.45,1.28-3.37,3.26-6.39,4.44-9.86,1.59-4.69,4.14-9.05,6.29-13.54.11-.22.3-.42.34-.65.66-4.12,3.57-7.29,4.66-11.27.81-2.97,2.72-5.52,3.7-8.53,1.31-4,3.48-7.72,5.3-11.55.42-.89.98-1.73,1.34-2.64,1.18-3.02,2.19-6.11,3.45-9.09,1.24-2.92,2.66-5.78,3.94-8.69,2.36-5.37,4.7-10.74,7.03-16.12,2.3-5.3,4.63-10.59,6.94-15.89,2.34-5.37,4.95-10.62,7.01-16.13,1.34-3.58,3.1-7,4.76-10.46,1.72-3.58,3.38-7.2,5.36-10.63,1.92-3.33,4.16-6.47,6.35-9.63,1.73-2.49,3.45-5,5.45-7.27,3.74-4.24,7.96-7.98,12.83-10.92,5.09-3.07,10.32-5.8,16.07-7.45,2.41-.7,4.75-1.66,7.12-2.51.15,0,.27-.07.36-.19,1.31-.12,2.78.09,3.92-.43,3.55-1.62,7.46-.42,11.09-1.72,1.84-.66,4.12-.13,6.2-.11.58,0,1.38-.13,1.69.18,1.12,1.14,2.47.74,3.76.8,1.33.06,2.78-.28,3.97.14,2.51.88,5.02,1.6,7.66,1.89.32.03.63.16.93.28,1.4.55,2.79,1.14,4.2,1.68,2.79,1.07,5.63,2.03,8.37,3.23,1.33.58,2.48,1.59,3.69,2.43,3.16,2.19,6.51,4.16,9.41,6.66,3.88,3.34,6.97,7.43,10.02,11.58,3.64,4.94,5.83,10.51,8.26,16,1.04,2.33,1.66,4.89,2.18,7.4.54,2.62.72,5.31,1.11,7.97.05.38.38.72.57,1.08.1.2.19.4.29.6.03,5.41.25,10.83-.02,16.23-.1,2.03-1.09,4.05-.98,6.2,0,.07-.08.14-.11.22-.6,1.89-1.6,3.75-1.71,5.67-.17,2.98-1.75,5.39-2.81,7.93-1.82,4.36-4,8.61-7.14,12.29-2.06,2.42-3.7,5.22-5.86,7.53-2.36,2.52-5.06,4.72-7.7,6.95-1.69,1.43-3.5,2.72-5.31,4-1.13.8-2.31,1.55-3.55,2.15-3.3,1.6-6.61,3.19-10,4.6-2.2.92-4.49,1.68-6.81,2.2-2.44.55-4.96.72-7.44,1.07-.33.04-.77,0-.95.19-1.09,1.14-2.47.77-3.76.8-2,.04-4.02-.18-5.99.05-4.66.53-9.13-.88-13.71-1.11-1.65-.08-3.3-.72-4.91-1.23-1.44-.46-2.81-1.14-4.23-1.68-2.43-.92-4.91-1.71-7.29-2.74-1.19-.51-2.13-1.56-3.3-2.15-4.52-2.29-8.62-5.11-12.27-8.66-1.44-1.4-3.25-2.97-5.11-3.3-4.5-.81-8.53.05-11.25,5.52-1.12,2.26-2.04,4.63-3.04,6.93-1.78,4.1-3.96,8.04-5.64,12.22-1.46,3.62-3.39,7.04-4.87,10.65-1.28,3.12,1.92,9.19,4.36,10.42.72.37,1.42.81,2.07,1.3,1.57,1.18,3,2.59,4.69,3.58,3.62,2.12,7.35,4.07,11.07,6.01,2.78,1.45,5.56,2.94,8.46,4.11,3.21,1.29,6.55,2.23,9.84,3.32,2.79.93,5.54,2.03,8.39,2.72,2.5.6,5.11.74,7.68,1.08.08.01.19-.02.25.02,2.48,1.7,5.29.71,7.94.97.57.06,1.15.1,1.7.23,1,.23,1.99.71,2.99.73,4.33.08,8.66.04,12.99.03.58,0,1.31.18,1.72-.1,1.98-1.35,4.18-.69,6.29-.92,3.08-.34,6.15-.79,9.22-1.22.14-.02.26-.19.39-.29.15,0,.27-.06.36-.19,1.21-.27,2.42-.54,3.63-.81.16,0,.28-.07.37-.19,1.26-.3,2.54-.53,3.77-.92,2.33-.72,4.66-1.5,6.96-2.31,3.38-1.2,6.84-2.22,10.08-3.73,3.73-1.74,7.32-3.82,10.85-5.96,3.17-1.92,6.5-3.56,9.3-6.1,2.55-2.32,5.42-4.29,8.1-6.48,1.41-1.15,2.7-2.45,4.08-3.65,1.55-1.36,3.32-2.53,4.65-4.07,2.57-2.97,4.89-6.15,7.34-9.23,1.59-1.99,3.43-3.81,4.79-5.94,2.47-3.86,4.71-7.86,6.95-11.86,1.25-2.23,2.41-4.52,3.43-6.86,1.06-2.42,1.98-4.92,2.84-7.42,1.14-3.32,2.25-6.66,3.2-10.04.54-1.92.25-4.23,1.21-5.85,1.33-2.25.72-4.71,1.63-7.03.95-2.43-.27-5.52,1.19-8.11-.05-6.74-.09-13.48-.14-20.22-.1-.11-.21-.21-.31-.32-.18-.76-.47-1.51-.52-2.28-.12-1.8-.12-3.6-.16-5.4-.1-.11-.21-.22-.31-.32-.23-1.56-.46-3.12-.69-4.67-.11-.11-.21-.22-.32-.33-.22-1.56-.45-3.11-.67-4.67-.11-.11-.22-.22-.33-.33l-1.68-6.67c-.11-.11-.21-.22-.32-.34-.53-2.15-.85-4.39-1.65-6.45-1.26-3.23-2.78-6.36-4.31-9.47-2.8-5.7-5.56-11.42-9.33-16.57-1.02-1.39-2.01-2.79-3.06-4.16-2.24-2.93-4.32-6.01-6.81-8.71-4.95-5.35-10.22-10.37-16.35-14.42-3.63-2.4-7.08-5.11-10.85-7.26-7.25-4.12-14.92-7.37-22.84-9.97-1.29-.42-2.61-.79-3.94-1.07-1.97-.42-4.03-.54-5.93-1.17-2.85-.95-5.65-1.94-8.7-1.85-.33,0-.76.1-.98-.06-1.92-1.46-4.14-.78-6.24-.93-1.14-.09-2.3-.15-3.43-.33-.86-.14-1.69-.62-2.54-.64-4.08-.07-8.16-.04-12.24-.02-.65,0-1.31.11-1.95.25-.93.21-1.83.62-2.76.72-3.81.39-7.64.7-11.45,1.05-.24.02-.48.12-.72.18-2.4.6-4.8,1.23-7.21,1.78-1.88.44-3.84.62-5.67,1.22-3.47,1.14-6.88,2.46-10.29,3.77-3.33,1.28-6.74,2.43-9.91,4.03-3.51,1.77-6.85,3.9-10.16,6.03-3.09,2-6.25,3.97-9,6.4-4.17,3.69-8.01,7.77-11.98,11.69-.41.4-.78.86-1.13,1.32-1.81,2.41-3.62,4.83-5.42,7.26-1.21,1.63-2.52,3.21-3.6,4.93-1.26,2-2.29,4.14-3.47,6.19-2.29,3.98-4.71,7.89-6.89,11.93-1.35,2.49-2.39,5.16-3.5,7.77-2.02,4.75-4.91,9.05-6.52,14.06-1.25,3.9-3.8,7.34-5.19,11.34-1.52,4.38-4.26,8.23-5.84,12.71-1.61,4.58-4.54,8.64-6.18,13.34-1.53,4.38-4.3,8.22-5.84,12.71-1.55,4.51-4.46,8.5-6.07,13.13-1.55,4.44-4.62,8.26-5.91,12.94-.73,2.64-2.41,5.03-3.73,7.5-.18.33-.78.66-1.12.61-.31-.05-.61-.59-.78-.97-.32-.71-.49-1.49-.81-2.21-1.09-2.41-2.22-4.8-3.33-7.19-.13-.18-.25-.35-.38-.53-.44-1.1-.84-2.21-1.32-3.28-1.08-2.4-2.19-4.79-3.3-7.18-.13-.18-.25-.35-.38-.53-.44-1.1-.84-2.21-1.32-3.29-1.08-2.4-2.19-4.79-3.3-7.18l-.38-.53c-.44-1.1-.84-2.21-1.32-3.29-1.08-2.4-2.2-4.79-3.3-7.18l-.38-.53c-.44-1.1-.84-2.21-1.32-3.29-1.08-2.4-2.2-4.79-3.3-7.18l-.38-.53c-.44-1.1-.84-2.21-1.32-3.29-1.08-2.4-2.2-4.79-3.3-7.18-.13-.18-.25-.35-.38-.53-.44-1.1-.84-2.21-1.32-3.29-1.08-2.4-2.2-4.79-3.3-7.18-.13-.18-.25-.35-.38-.53-.44-1.1-.84-2.21-1.32-3.29-1.08-2.4-2.2-4.79-3.3-7.18-.13-.18-.25-.35-.38-.53-.44-1.1-.84-2.21-1.32-3.29-1.08-2.4-2.2-4.79-3.3-7.18-.13-.18-.25-.35-.38-.53-.44-1.09-.83-2.21-1.31-3.28-1.08-2.41-2.2-4.79-3.31-7.19-.13-.18-.25-.35-.38-.53Zm-149.49,54.16c0,35.9.02,71.8-.04,107.71,0,2.31.47,4.34,1.51,6.4,1.62,3.22,4.57,4.49,7.62,4.58,9.66.28,19.33.18,28.99.04,1.63-.02,3.48-.62,4.83-1.53,3.35-2.27,5.11-5.52,5.1-9.72-.02-72.14-.02-144.28-.02-216.41,0-1.38-.2-2.6-.88-3.96-2.12-4.24-5.55-6.15-10.03-6.22-8.58-.13-17.16.02-25.74-.08-2.23-.03-4.17.52-6.16,1.45-3.69,1.73-5.12,4.87-5.12,8.53-.08,36.4-.05,72.8-.05,109.21Z"/>
  <path class="cls-5" d="m624.63,99.56c-2.37.84-4.71,1.81-7.12,2.51-5.75,1.66-10.98,4.38-16.07,7.45-4.87,2.94-9.09,6.67-12.83,10.92-2,2.26-3.72,4.78-5.45,7.27-2.2,3.16-4.43,6.31-6.35,9.63-1.98,3.43-3.64,7.05-5.36,10.63-1.66,3.45-3.43,6.88-4.76,10.46-2.06,5.51-4.66,10.76-7.01,16.13-2.31,5.3-4.64,10.59-6.94,15.89-2.34,5.38-4.67,10.75-7.03,16.12-1.28,2.91-2.69,5.77-3.94,8.69-1.27,2.98-2.28,6.07-3.45,9.09-.36.92-.92,1.75-1.34,2.64-1.81,3.83-3.98,7.55-5.3,11.55-.99,3.01-2.9,5.57-3.7,8.53-1.08,3.98-4,7.15-4.66,11.27-.04.23-.23.43-.34.65-2.14,4.5-4.69,8.86-6.29,13.54-1.18,3.47-3.16,6.49-4.44,9.86-.22.57-.74,1.2-1.28,1.45-2.45,1.12-4.89,2.24-7.72,2.23-11.66-.06-23.33.15-34.99-.11-4.7-.11-8.88-1.71-11.02-6.74-2.62-6.16-5.69-12.13-8.52-18.21-1.64-3.52-3.16-7.09-4.77-10.62-2.03-4.43-4.12-8.84-6.15-13.27-1.65-3.6-3.25-7.23-4.9-10.83-1.99-4.36-4.02-8.7-6.03-13.05-1.73-3.75-3.47-7.49-5.17-11.25-1.57-3.46-3.06-6.95-4.64-10.4-2.07-4.51-4.2-8.98-6.28-13.48-1.66-3.6-3.26-7.22-4.9-10.83-1.67-3.68-3.35-7.36-5.03-11.04-1.82-3.98-3.65-7.96-5.47-11.93-1.86-4.05-3.74-8.1-5.59-12.16-1.61-3.53-3.15-7.09-4.78-10.61-2.07-4.5-4.21-8.97-6.29-13.48-1.62-3.52-3.16-7.09-4.77-10.62-2.03-4.43-4.11-8.84-6.15-13.26-1.69-3.67-3.36-7.36-5.03-11.04-1.63-3.61-3.26-7.22-4.86-10.85-.26-.59-.34-1.25-.51-1.88-.23-.84-.46-1.68-.7-2.51-.07-.23-.3-.49-.24-.67.46-1.44.61-3.21,1.55-4.21,1.57-1.66,3-3.46,5.65-4.14,1.96-.51,3.83-.74,5.76-.75,9.66-.04,19.33-.09,28.99,0,5.8.06,9.96,3.49,11.07,9.37.04.22.27.4.41.6.13.18.25.35.38.53,1.1,2.39,2.22,4.78,3.3,7.18.48,1.08.88,2.19,1.32,3.29.13.18.25.35.38.53,1.1,2.39,2.22,4.78,3.3,7.18.48,1.08.88,2.19,1.32,3.29.13.18.25.35.38.53,1.1,2.39,2.22,4.78,3.3,7.18.48,1.08.88,2.19,1.32,3.29.13.18.25.35.38.53,1.1,2.39,2.22,4.78,3.3,7.18.48,1.08.89,2.19,1.32,3.29.13.18.25.35.38.53,1.1,2.39,2.22,4.78,3.3,7.18.48,1.08.88,2.19,1.32,3.29.13.18.25.35.38.53,1.1,2.39,2.23,4.78,3.31,7.19.48,1.07.88,2.19,1.31,3.28.13.18.25.35.38.53,1.1,2.39,2.22,4.78,3.3,7.18.48,1.08.88,2.19,1.32,3.29.13.18.25.35.38.53,1.1,2.39,2.22,4.78,3.3,7.18.48,1.08.88,2.19,1.32,3.29.13.18.25.35.38.53,1.1,2.39,2.22,4.78,3.3,7.18.48,1.08.88,2.19,1.32,3.29.13.18.25.35.38.53,1.1,2.39,2.22,4.78,3.3,7.18.48,1.08.89,2.19,1.32,3.29.13.18.25.35.38.53,1.1,2.39,2.22,4.78,3.3,7.18.48,1.08.89,2.19,1.32,3.29.13.18.25.35.38.53,1.1,2.39,2.22,4.78,3.3,7.18.48,1.08.89,2.19,1.32,3.29.13.18.25.35.38.53,1.1,2.39,2.22,4.78,3.3,7.18.48,1.08.89,2.19,1.32,3.29.13.18.25.35.38.53,1.1,2.39,2.22,4.78,3.3,7.18.48,1.08.89,2.19,1.32,3.28.13.18.25.35.38.53,1.11,2.4,2.24,4.78,3.33,7.19.32.71.49,1.49.81,2.21.17.38.47.93.78.97.35.05.95-.28,1.12-.61,1.32-2.47,2.99-4.86,3.73-7.5,1.3-4.68,4.37-8.5,5.91-12.94,1.61-4.63,4.52-8.61,6.07-13.13,1.54-4.49,4.31-8.34,5.84-12.71,1.64-4.69,4.57-8.76,6.18-13.34,1.58-4.48,4.32-8.33,5.84-12.71,1.39-4,3.95-7.44,5.19-11.34,1.6-5.02,4.49-9.31,6.52-14.06,1.11-2.61,2.16-5.28,3.5-7.77,2.18-4.04,4.6-7.95,6.89-11.93,1.18-2.05,2.21-4.19,3.47-6.19,1.08-1.72,2.39-3.29,3.6-4.93,1.8-2.42,3.61-4.84,5.42-7.26.35-.46.72-.91,1.13-1.32,3.97-3.92,7.8-7.99,11.98-11.69,2.74-2.43,5.91-4.4,9-6.4,3.31-2.14,6.65-4.26,10.16-6.03,3.17-1.6,6.58-2.75,9.91-4.03,3.41-1.31,6.82-2.63,10.29-3.77,1.83-.6,3.78-.78,5.67-1.22,2.41-.56,4.81-1.19,7.21-1.78.24-.06.47-.16.72-.18,3.82-.35,7.64-.65,11.45-1.05.93-.1,1.83-.51,2.76-.72.64-.14,1.3-.24,1.95-.25,4.08-.02,8.16-.05,12.24.02.85.01,1.68.5,2.54.64,1.13.18,2.28.24,3.43.33,2.1.16,4.32-.52,6.24.93.22.17.65.07.98.06,3.05-.09,5.85.9,8.7,1.85,1.89.63,3.96.75,5.93,1.17,1.33.29,2.65.65,3.94,1.07,7.93,2.6,15.6,5.86,22.84,9.97,3.77,2.14,7.22,4.86,10.85,7.26,6.12,4.05,11.4,9.07,16.35,14.42,2.49,2.7,4.57,5.78,6.81,8.71,1.05,1.37,2.04,2.77,3.06,4.16,3.77,5.15,6.53,10.88,9.33,16.57,1.53,3.11,3.05,6.25,4.31,9.47.8,2.05,1.12,4.29,1.65,6.45.04.17.15.28.32.34.56,2.22,1.12,4.44,1.68,6.67.05.17.16.28.33.33.22,1.56.45,3.11.67,4.67.04.17.15.28.32.33.23,1.56.46,3.12.69,4.67.04.17.15.27.31.32.05,1.8.05,3.6.16,5.4.05.77.34,1.52.52,2.28.04.17.15.27.31.32.05,6.74.09,13.48.14,20.22-1.46,2.59-.25,5.69-1.19,8.11-.91,2.32-.3,4.78-1.63,7.03-.96,1.62-.67,3.93-1.21,5.85-.95,3.38-2.06,6.72-3.2,10.04-.86,2.5-1.78,5-2.84,7.42-1.02,2.34-2.18,4.63-3.43,6.86-2.24,4-4.48,8-6.95,11.86-1.36,2.13-3.2,3.95-4.79,5.94-2.45,3.07-4.77,6.26-7.34,9.23-1.34,1.54-3.1,2.71-4.65,4.07-1.37,1.2-2.66,2.5-4.08,3.65-2.68,2.19-5.55,4.16-8.1,6.48-2.8,2.54-6.14,4.18-9.3,6.1-3.53,2.14-7.12,4.22-10.85,5.96-3.24,1.51-6.7,2.54-10.08,3.73-2.3.82-4.62,1.59-6.96,2.31-1.23.38-2.52.62-3.77.92-.12.06-.25.13-.37.2-1.21.27-2.42.54-3.63.81-.12.06-.24.13-.36.19-.13.1-.25.27-.39.29-3.07.42-6.14.88-9.22,1.22-2.1.23-4.31-.44-6.29.92-.41.28-1.14.1-1.72.1-4.33,0-8.66.05-12.99-.03-1-.02-1.99-.51-2.99-.73-.56-.13-1.13-.17-1.7-.23-2.65-.27-5.46.72-7.94-.97-.06-.04-.16,0-.25-.02-2.56-.34-5.18-.48-7.68-1.08-2.85-.69-5.6-1.79-8.39-2.72-3.29-1.09-6.63-2.03-9.84-3.32-2.9-1.17-5.68-2.66-8.46-4.11-3.72-1.94-7.45-3.89-11.07-6.01-1.68-.98-3.11-2.4-4.69-3.58-.65-.49-1.35-.93-2.07-1.3-2.44-1.23-5.64-7.29-4.36-10.42,1.48-3.61,3.42-7.03,4.87-10.65,1.68-4.18,3.86-8.12,5.64-12.22,1-2.29,1.91-4.67,3.04-6.93,2.72-5.47,6.75-6.33,11.25-5.52,1.85.33,3.66,1.9,5.11,3.3,3.65,3.55,7.75,6.37,12.27,8.66,1.16.59,2.11,1.63,3.3,2.15,2.38,1.03,4.86,1.82,7.29,2.74,1.42.54,2.79,1.21,4.23,1.68,1.61.52,3.25,1.15,4.91,1.23,4.58.22,9.06,1.64,13.71,1.11,1.97-.22,3.99-.01,5.99-.05,1.29-.02,2.67.34,3.76-.8.18-.19.63-.14.95-.19,2.48-.34,5-.52,7.44-1.07,2.32-.52,4.62-1.29,6.81-2.2,3.38-1.41,6.7-3.01,10-4.6,1.24-.6,2.42-1.36,3.55-2.15,1.81-1.28,3.62-2.57,5.31-4,2.64-2.24,5.34-4.44,7.7-6.95,2.16-2.31,3.8-5.11,5.86-7.53,3.13-3.68,5.32-7.93,7.14-12.29,1.06-2.54,2.65-4.95,2.81-7.93.11-1.92,1.11-3.78,1.71-5.67.02-.08.11-.15.11-.22-.11-2.15.88-4.17.98-6.2.28-5.4.05-10.82.02-16.23-.1-.2-.19-.4-.29-.6-.2-.36-.52-.7-.57-1.08-.39-2.65-.56-5.35-1.11-7.97-.52-2.51-1.14-5.07-2.18-7.4-2.43-5.48-4.63-11.06-8.26-16-3.06-4.15-6.14-8.24-10.02-11.58-2.9-2.5-6.25-4.47-9.41-6.66-1.21-.84-2.36-1.85-3.69-2.43-2.74-1.2-5.58-2.16-8.37-3.23-1.41-.54-2.8-1.12-4.2-1.68-.3-.12-.62-.25-.93-.28-2.64-.29-5.15-1.01-7.66-1.89-1.19-.42-2.64-.08-3.97-.14-1.28-.06-2.63.34-3.76-.8-.31-.31-1.11-.18-1.69-.18-2.08-.02-4.36-.55-6.2.11-3.63,1.31-7.54.11-11.09,1.72-1.14.52-2.6.31-3.92.43-.12.06-.24.13-.36.19Z"/>
  <path class="cls-5" d="m138.64,103.57c-1.47.77-2.9,1.62-4.41,2.28-3.13,1.37-5.79,3.43-8.58,5.35-3.35,2.29-6.09,5.15-8.79,8.04-4.35,4.65-7.83,9.93-10.37,15.79-1.4,3.24-2.79,6.5-3.93,9.84-.64,1.88-.23,4.27-1.23,5.83-1.64,2.56.18,5.64-1.75,7.98-.22.26-.12.81-.12,1.22,0,4.91-.02,9.82.02,14.73,0,.52.34,1.04.52,1.56.04.17.15.28.32.33.05,1.22.04,2.44.16,3.65.07.68.34,1.34.52,2.02.05.17.16.28.33.34.22,1.22.45,2.44.67,3.66.05.17.16.29.33.34.62,1.93,1.26,3.86,1.87,5.8.28.91.51,1.83.77,2.75.13.18.25.35.38.53,1.53,2.8,2.91,5.7,4.63,8.39,2.15,3.36,4.35,6.73,6.94,9.74,2.13,2.47,4.83,4.46,7.32,6.61,1.62,1.39,3.35,2.65,4.97,4.04,3.49,2.99,7.61,4.87,11.7,6.81.22.1.39.31.58.46.16.12.32.24.48.35,1.72.42,3.48.71,5.13,1.31,1.96.7,4.14,1.06,5.87,1.92,2.65,1.31,5.65-.14,8.05,1.69.43.33,1.29.13,1.96.13,3.74,0,7.49.04,11.23-.01,1.69-.02,3.5.49,4.97-.88.15-.14.48-.09.73-.09,4.26.04,8.13-1.47,12.09-2.83,3.54-1.21,7.08-2.4,10.36-4.15,2.66-1.42,5.14-3.19,7.57-4.99,3.29-2.44,6.44-5.07,9.7-7.55.47-.36,1.24-.44,1.87-.47,1.33-.05,2.66.03,3.99.06.2.09.41.18.61.27,3.08,1.08,4.87,3.4,6.16,6.27.87,1.92,1.97,3.73,2.87,5.64.4.85.54,1.82.8,2.74.13.18.25.35.38.53,1.11,2.39,2.23,4.78,3.31,7.19.48,1.07.87,2.19,1.31,3.29.13.18.25.35.38.53,1.1,2.4,2.05,4.89,3.36,7.17,1.23,2.16.99,4.2.19,6.31-.38.99-.87,1.96-1.43,2.87-.56.89-1.14,1.87-1.95,2.49-8.04,6.16-16.91,10.94-26.04,15.22-3.16,1.48-6.64,2.24-9.91,3.51-2.44.95-4.88,1.84-7.49,2.16-.12.06-.24.13-.37.19-.21.14-.4.36-.62.39-2.65.4-5.44.38-7.93,1.25-3.01,1.06-6.15.22-8.98,1.01-5.75,1.61-11.5.47-17.23.83-.9.06-1.82-.48-2.75-.66-.8-.16-1.61-.21-2.42-.3-2.4-.26-4.91.64-7.21-.91-.58-.39-1.65.04-2.45-.12-2.26-.45-4.5-1-6.75-1.51-.11-.1-.23-.21-.34-.31-2.46-.09-4.67-1-6.93-1.91-2.37-.95-4.89-1.5-7.33-2.27-.77-.24-1.5-.62-2.24-.96-3.57-1.61-7.25-3.03-10.69-4.9-3.58-1.95-6.94-4.31-10.37-6.53-2.94-1.91-5.85-3.86-8.75-5.83-.54-.37-1.02-.86-1.48-1.33-5.06-5.06-10.26-9.99-15.1-15.25-2.54-2.76-4.51-6.05-6.63-9.17-2.18-3.19-4.35-6.4-6.29-9.73-1.44-2.48-2.5-5.17-3.73-7.77-.21-.45-.33-.94-.58-1.36-1.67-2.85-2.58-5.97-3.47-9.13-.69-2.46-1.81-4.8-2.65-7.22-.47-1.36-.79-2.77-1.09-4.18-.44-2.13-.78-4.28-1.2-6.42-.23-1.18-.57-2.33-.8-3.51-.13-.64-.17-1.31-.19-1.97-.05-1.91-.06-3.82-.09-5.74-.1-.2-.19-.4-.29-.6-.21-.86-.58-1.71-.6-2.58-.07-3.83-.07-7.66-.01-11.49.03-1.69-.08-3.3.77-5.02.7-1.42.17-3.43.22-5.18.04-1.21-.35-2.52.79-3.49.11-.09.13-.3.15-.46.36-2.73.59-5.49,1.09-8.19.39-2.1,1.12-4.13,1.72-6.19.38-1.31.84-2.59,1.23-3.9.72-2.46,1.16-5.03,2.18-7.36,2.26-5.16,4.66-10.28,7.3-15.26,1.67-3.14,3.89-5.99,5.83-9,.97-1.5,1.84-3.06,2.76-4.59.17-.28.31-.59.53-.82,4.67-4.92,8.56-10.67,14.05-14.7,3.7-2.71,7.05-5.83,10.91-8.4,6.21-4.13,12.55-7.89,19.3-11,2.33-1.07,4.82-1.81,7.23-2.71,2.46-.91,4.89-1.89,7.37-2.74,1.44-.49,2.93-.85,4.42-1.17,1.97-.41,4.22-.26,5.89-1.19,2.58-1.42,5.48-.22,8.06-1.69,1.27-.72,3.26-.15,4.92-.21,1.29-.05,2.62.3,3.78-.76.39-.35,1.27-.22,1.93-.23,4.25-.02,8.5-.06,12.75.03,1.01.02,1.99.56,3.01.71,1.22.17,2.47.17,3.71.26,1.94.14,3.8-.06,5.78.8,2.15.93,4.77.75,7.15,1.22,2.1.42,4.17,1.05,6.23,1.65,1.23.36,2.39.97,3.64,1.24,2.71.6,5.16,1.94,7.74,2.78,5.25,1.71,9.98,4.41,14.77,6.97,4.11,2.2,7.83,5.12,11.78,7.62,1.85,1.17,3.66,2.28,4.29,4.56.21.75.57,1.48.67,2.25.64,4.73-1.4,8.76-3.38,12.81-2.52,5.15-4.98,10.32-7.41,15.52-.54,1.16-.8,2.46-1.25,3.68-.89,2.4-2.51,4.26-4.45,5.87-2.57,2.14-5.23,2.78-8.44,1.13-2.17-1.12-4.04-2.49-5.85-4.1-1.88-1.67-4.08-3.01-6.19-4.41-2.59-1.72-5.15-3.53-7.9-4.97-2.2-1.15-4.67-1.77-7.01-2.65-1.41-.53-2.81-1.09-4.21-1.65-.15-.06-.28-.22-.43-.24-2.31-.37-4.63-.71-6.93-1.1-.93-.16-1.84-.48-2.77-.67-.72-.15-1.45-.3-2.18-.3-3.67-.03-7.33-.04-11,0-1.71.02-3.52-.41-5.03.87-.16.14-.49.14-.73.1-2.89-.5-5.44,1.11-8.21,1.29-.12.06-.24.13-.37.19-1.21.27-2.42.53-3.64.8-.12.07-.24.13-.36.2-2.54.94-5.08,1.87-7.62,2.81-.14.07-.28.13-.42.2Z"/>
  <path class="cls-5" d="m285.43,167.26c0-36.4-.03-72.8.05-109.21,0-3.67,1.44-6.8,5.12-8.53,1.99-.93,3.93-1.48,6.16-1.45,8.58.1,17.16-.05,25.74.08,4.47.07,7.9,1.98,10.03,6.22.68,1.36.88,2.58.88,3.96,0,72.14,0,144.28.02,216.41,0,4.19-1.75,7.45-5.1,9.72-1.35.91-3.2,1.51-4.83,1.53-9.66.14-19.33.25-28.99-.04-3.05-.09-6-1.36-7.62-4.58-1.04-2.07-1.51-4.09-1.51-6.4.05-35.9.04-71.8.04-107.71Z"/>
  <path class="cls-3" d="m761.24,156.54c-.16-.05-.27-.16-.31-.32.1.11.21.21.31.32Z"/>
  <path class="cls-11" d="m666.62,283.52c.12-.06.24-.13.36-.19-.09.13-.21.19-.36.19Z"/>
  <path class="cls-12" d="m420.3,80.64c-.13-.18-.25-.35-.38-.53.13.18.25.35.38.53Z"/>
  <path class="cls-11" d="m150.67,99.57c.12-.06.24-.13.37-.19-.09.13-.21.19-.37.19Z"/>
  <path class="cls-1" d="m624.63,99.56c.12-.06.24-.13.36-.19-.09.12-.2.19-.36.19Z"/>
  <path class="cls-10" d="m146.68,100.56c.12-.07.24-.13.36-.2-.09.13-.21.19-.36.2Z"/>
  <path class="cls-12" d="m430.3,102.63c-.13-.18-.25-.35-.38-.53.13.18.25.35.38.53Z"/>
  <path class="cls-8" d="m138.64,103.57c.14-.07.28-.13.42-.2-.11.14-.25.2-.42.2Z"/>
  <path class="cls-12" d="m435.3,113.63c-.13-.18-.25-.35-.38-.53.13.18.25.35.38.53Z"/>
  <path class="cls-12" d="m440.3,124.63c-.13-.18-.25-.35-.38-.53.13.18.25.35.38.53Z"/>
  <path class="cls-2" d="m756.24,131.55c-.17-.05-.28-.16-.32-.34.11.11.21.22.32.34Z"/>
  <path class="cls-12" d="m445.3,135.63c-.13-.18-.25-.35-.38-.53.13.18.25.35.38.53Z"/>
  <path class="cls-6" d="m758.25,138.54c-.17-.05-.28-.16-.33-.33.11.11.22.22.33.33Z"/>
  <path class="cls-6" d="m759.24,143.54c-.17-.05-.27-.16-.32-.33.11.11.21.22.32.33Z"/>
  <path class="cls-12" d="m450.3,146.62c-.13-.18-.25-.35-.38-.53.13.18.25.35.38.53Z"/>
  <path class="cls-3" d="m760.24,148.54c-.16-.05-.27-.16-.31-.32.1.11.21.22.31.32Z"/>
  <path class="cls-12" d="m415.3,69.64c-.13-.18-.25-.35-.38-.53.13.18.25.35.38.53Z"/>
  <path class="cls-12" d="m455.3,157.62c-.13-.18-.25-.35-.38-.53.13.18.25.35.38.53Z"/>
  <path class="cls-13" d="m712.02,158.42c.1.2.19.4.29.6-.1-.2-.19-.4-.29-.6Z"/>
  <path class="cls-12" d="m460.3,168.62c-.13-.18-.25-.35-.38-.53.13.18.25.35.38.53Z"/>
  <path class="cls-6" d="m100.31,176.54c-.17-.05-.27-.16-.32-.33.11.11.21.22.32.33Z"/>
  <path class="cls-9" d="m51.09,176.42c.1.2.19.4.29.6-.1-.2-.19-.4-.29-.6Z"/>
  <path class="cls-12" d="m465.3,179.62c-.13-.18-.25-.35-.38-.53.13.18.25.35.38.53Z"/>
  <path class="cls-2" d="m101.32,182.54c-.17-.05-.28-.16-.33-.34.11.11.22.22.33.34Z"/>
  <path class="cls-2" d="m102.32,186.54c-.17-.05-.28-.16-.33-.34.11.11.22.23.33.34Z"/>
  <path class="cls-12" d="m470.3,190.61c-.13-.18-.25-.35-.38-.53.13.18.25.35.38.53Z"/>
  <path class="cls-12" d="m105.34,195.61c-.13-.18-.25-.35-.38-.53.13.18.25.35.38.53Z"/>
  <path class="cls-12" d="m475.3,201.61c-.13-.18-.25-.35-.38-.53.13.18.25.35.38.53Z"/>
  <path class="cls-12" d="m480.3,212.61c-.13-.18-.25-.35-.38-.53.13.18.25.35.38.53Z"/>
  <path class="cls-12" d="m410.3,58.65c-.13-.18-.25-.35-.38-.53.13.18.25.35.38.53Z"/>
  <path class="cls-3" d="m226.11,216.43c-.2-.09-.41-.18-.61-.27.2.09.41.18.61.27Z"/>
  <path class="cls-12" d="m236.32,231.6c-.13-.18-.25-.35-.38-.53.13.18.25.35.38.53Z"/>
  <path class="cls-7" d="m141.97,232.02c-.16-.12-.32-.24-.48-.35.16.12.32.24.48.35Z"/>
  <path class="cls-12" d="m241.32,242.6c-.13-.18-.25-.35-.38-.53.13.18.25.35.38.53Z"/>
  <path class="cls-10" d="m140.99,282.2c.11.1.23.21.34.31-.17-.04-.29-.14-.34-.31Z"/>
  <path class="cls-11" d="m197.67,282.52c.12-.06.24-.13.37-.19-.09.13-.21.19-.37.19Z"/>
  <path class="cls-11" d="m670.62,282.52c.12-.07.25-.13.37-.2-.09.13-.21.19-.37.2Z"/>
  <path class="cls-12" d="m425.3,91.64c-.13-.18-.25-.35-.38-.53.13.18.25.35.38.53Z"/>
</svg>