<?xml version="1.0" encoding="UTF-8"?>
<svg id="Layer_1" data-name="Layer 1" xmlns="http://www.w3.org/2000/svg" viewBox="0 0 1920 1080">
  <defs>
    <style>
      .cls-1 {
        fill: #032491;
      }

      .cls-2 {
        fill: #fff;
      }

      .cls-3 {
        fill: #b7b4bf;
      }

      .cls-4 {
        fill: #0a2671;
      }

      .cls-5 {
        fill: #195cc9;
      }

      .cls-6 {
        fill: #6742fc;
      }

      .cls-7 {
        fill: #321b85;
      }

      .cls-8 {
        fill: #0334a4;
      }

      .cls-9 {
        fill: #453d5b;
      }

      .cls-10 {
        fill: #050364;
      }

      .cls-11 {
        fill: #02127e;
      }

      .cls-12 {
        fill: #2a9fec;
      }

      .cls-13 {
        fill: #247fe1;
      }

      .cls-14 {
        fill: #2dbcf4;
      }

      .cls-15 {
        fill: #3435d2;
      }

      .cls-16 {
        fill: #675cfe;
      }

      .cls-17 {
        fill: #2830c6;
      }

      .cls-18 {
        fill: #282aac;
      }

      .cls-19 {
        fill: #682ff3;
      }

      .cls-20 {
        fill: #4837da;
      }

      .cls-21 {
        fill: #34e3fb;
      }

      .cls-22 {
        fill: #0d0349;
      }

      .cls-23 {
        fill: #4810c1;
      }

      .cls-24 {
        fill: #0f3eb6;
      }

      .cls-25 {
        fill: #5c90ff;
      }

      .cls-26 {
        fill: #1a1034;
      }

      .cls-27 {
        fill: #2e1b67;
      }

      .cls-28 {
        fill: #4210b4;
      }
    </style>
  </defs>
  <path class="cls-2" d="m1920,1080H0V0h1920v1080ZM1035.27,202.74c-2.01-3.31-4.02-6.62-6.03-9.93-4.07-5.7-8.14-11.4-12.21-17.1-5.54-6.34-11.08-12.67-16.62-19.01-5.63-5.3-11.31-10.55-16.85-15.95-.84-.82-1-2.35-1.48-3.55,8.62-4.11,17.25-8.21,25.87-12.32,9-2.76,18.01-5.52,27.01-8.27,10.66-1.66,21.33-3.31,31.99-4.97,14.66.4,29.33.79,43.99,1.19,3.98.76,7.97,1.53,12.17,2.33,1.89-7.84,3.63-15.02,5.65-23.39-11.75-1.12-22.73-2.17-33.71-3.22-12.42.29-24.84.57-37.25.86-10.99,2.04-21.98,4.09-32.97,6.13-10.29,3.48-20.58,6.97-30.87,10.45-9.63,4.82-19.42,9.33-28.8,14.59-3.81,2.14-6.3,2.33-10.23.13-9.67-5.42-19.79-10.02-29.73-14.96-14.46-6.65-29.6-11.02-45.26-13.71-9.66-1.12-19.32-2.24-28.99-3.36-13.07.2-26.15.12-39.2.73-6.69.31-13.31,1.87-20.54,2.95,1.93,7.94,3.68,15.13,5.16,21.2,18.24-.74,35.91-1.45,53.57-2.17,8.66,1.08,17.33,2.16,25.99,3.25,12.18,3.49,24.36,6.99,36.55,10.48,8.86,4.21,17.72,8.42,26.93,12.79-4.24,3.93-7.85,7.28-11.47,10.64-4.73,4.74-9.47,9.47-14.2,14.21-7.05,8.99-14.09,17.97-21.14,26.96-7.14,13.23-15.13,26.08-21.21,39.78-8.49,19.14-13.77,39.37-15.47,60.38-.27,2.01-.55,4.01-.82,6.02-2.03,16.97-1.39,33.92.89,50.79,3.01,22.34,8.73,43.95,18.67,64.3,6.79,11.96,13.59,23.91,20.38,35.87,6.13,7.71,12.26,15.42,18.39,23.14,3.27,3.38,6.54,6.76,9.81,10.14,6.61,5.76,13.22,11.51,19.84,17.27,4.95,3.65,9.83,7.4,14.9,10.87.92.63,2.98.69,3.9.08,19.85-13.11,37.75-28.4,52.35-47.34,6.32-9,12.65-18,18.97-27,3.25-6.04,6.51-12.08,9.76-18.12,1.74-3.87,3.48-7.73,5.22-11.6,3.82-11.77,7.64-23.53,11.46-35.3,1.11-6.03,2.21-12.07,3.32-18.1.74-6.99,1.49-13.97,2.23-20.96.18-5.69.36-11.38.53-17.06-1.28-13.03-1.86-26.18-4.01-39.07-3.15-18.87-8.91-37.06-17.69-54.17-1.55-3.17-3.1-6.34-4.65-9.5-1.38-2.47-2.75-4.94-4.13-7.42Zm-69.28,475.25c-.57-.05-1.15-.1-1.72-.15v-15.92h-21.65v132.45h23.04v-5.71c0-20.82-.09-41.64.06-62.45.04-5.63.28-11.36,1.33-16.87,3.2-16.77,14.3-32.82,39.5-27.52,2.38.5,4.78.88,7.63,1.4,0-5.71-.27-11.04.09-16.31.24-3.58-1.21-4.94-4.39-5.89-17.53-5.25-32.6.51-43.9,16.98Zm300.65,103.12v13.09h21.22c0-30.72.02-61.03,0-91.34-.02-20.15-10.15-34.94-29.29-41.16-28.27-9.19-53.73-2.22-77.06,14.89-.71.52-1.5,1.51-1.52,2.3-.12,7.35-.07,14.71-.07,22.31,7.26-4.91,13.67-9.67,20.48-13.76,11.15-6.7,23.16-11.03,36.4-10.35,10.16.52,19.43,3.35,25.2,12.67,5.8,9.37,1.31,20.03-9.48,22.36-8.45,1.82-17.01,3.11-25.46,4.9-13.86,2.93-27.62,6.29-39.16,15.16-11.55,8.88-15.29,21.04-13.55,35,1.76,14.13,10.12,23.27,23.33,27.77,5.45,1.86,11.27,3.14,17,3.58,19.21,1.49,36.81-2.17,50.15-17.63.6.07,1.21.15,1.81.22Zm-302.37,210.04c.6-.07,1.21-.14,1.81-.21,5.71,7.63,12.76,13.68,21.83,16.77,26.72,9.1,57.12,2.03,71.85-28.1,11.4-23.31,11.61-47.66,2.31-71.7-11.04-28.53-38.16-42.15-67.84-34.9-11.53,2.82-20.72,9.22-28.69,20.07v-61.47h-22.98v176.08h21.71v-16.55Zm-52.41,16.48c.07-1.69.19-3.15.19-4.62.01-29,.06-58.01,0-87.01-.05-21.15-11.19-36.11-31.65-41.93-24.82-7.06-47.62-1.88-69.1,11.73-5.32,3.37-8.29,6.85-7.37,13.49.66,4.75.13,9.66.13,15.38,6.63-4.62,11.94-8.58,17.5-12.14,9.92-6.35,20.58-10.96,32.44-12.02,10.78-.97,21.09.44,29.19,8.51,4.57,4.55,7.16,10.05,4.84,16.77-2.23,6.45-7.22,9.13-13.57,10.19-7.55,1.26-15.1,2.55-22.58,4.13-13.37,2.82-26.69,5.99-38.08,14.08-13.06,9.28-17.33,22.27-14.89,37.7,2.21,14.02,10.97,22.95,24.02,26.63,25.14,7.1,48.73,5.41,68.02-16.17v15.27h20.93Zm641.75-213.14c0-18.24.07-35.88-.02-53.53-.08-14.99.39-30.04-.75-44.96-1.17-15.31-9.23-26.91-23.39-33.56-17.01-7.99-46.47-7.26-62.02,11.56-.35.43-.93.67-2.08,1.46v-57.14h-22.92v176.1h23.04c0-2.24,0-4.21,0-6.18.06-26.16-.55-52.35.37-78.48.84-23.86,24.81-38.5,47.19-29.95,6.76,2.58,12.02,7.04,14.02,13.93,1.78,6.14,2.92,12.67,3.01,19.05.33,25.5.14,51,.14,76.5,0,1.74,0,3.47,0,5.21h23.41Zm-1049.3-42.36c-5.26,3.92-9.5,7.1-13.76,10.24-10.12,7.45-21.24,12.22-33.93,13.17-30.51,2.27-53.38-10.06-62.24-41.6-5.06-17.99-5.17-36.28-.16-54.28,6-21.56,20.05-35.18,42.19-39.86,21.96-4.63,41.88.31,60.02,13.19,2.38,1.69,4.68,3.48,7.8,5.8,0-8.17-.2-15.43.09-22.67.13-3.32-1.15-5.11-3.79-6.79-17.13-10.9-35.83-16.21-56.02-14.22-31.31,3.08-55.65,17.45-69.36,46.68-8.79,18.73-10.49,38.79-7.72,59.1,2.65,19.44,9.37,37.31,22.36,52.47,25.52,29.77,79.12,33.88,112.63,6.85.9-.73,1.79-2.1,1.81-3.18.15-7.95.08-15.9.08-24.89Zm366.71-37c6.15-8.86,12.4-17.1,17.8-25.86,5.41-8.77,9.98-18.05,15.35-27.91-8.32,0-14.99.15-21.64-.07-3.07-.1-4.57,1.03-6.19,3.66-6.26,10.19-12.3,20.62-19.62,30.03-7.78,10.01-16.92,18.96-25.47,28.37-.51-.29-1.01-.58-1.52-.87v-104.09h-22.95v176.11h23.05v-5.13c0-11-.07-22,.08-32.99.02-1.59.68-3.68,1.81-4.66,7.9-6.85,15.99-13.46,24.2-20.3.82,1.15,1.81,2.47,2.72,3.84,12.43,18.71,24.83,37.44,37.33,56.1.91,1.36,2.52,3.13,3.87,3.18,7.74.3,15.49.15,24.31.15-18.13-27.14-35.65-53.37-53.14-79.56Zm282.88,12.62c-.99-6.9-1.49-13.91-3.07-20.67-6.38-27.34-27.65-46.08-55.06-48.97-29.18-3.08-54.66,10.23-66.49,35.08-8.33,17.49-9.42,35.87-5.29,54.6,5.9,26.79,25.43,45.13,52.74,49.85,26.29,4.55,52.55-6.89,65.95-28.83,7.67-12.56,10.74-26.37,11.22-41.05Zm-628.07.49c1.05,7.06,1.58,14.24,3.25,21.15,6.47,26.78,28.14,45.91,54.45,48.53,29.96,2.99,54.59-9.65,66.72-34.52,8.59-17.6,9.67-36.13,5.6-55.04-5.92-27.46-25.93-45.88-54.1-50.09-26.84-4.02-52.89,8.28-65.81,31.09-6.81,12.03-9.48,25.09-10.11,38.88Zm565.12,240.55c0,7.31.2,14.11-.09,20.89-.13,3.24.98,5.15,3.54,6.98,16.86,12.03,35.67,16.69,56.14,14.99,11.79-.98,22.76-4.23,32.45-11.5,18.27-13.74,21.93-49.7-6.59-61.19-10.11-4.08-20.79-6.79-31.26-9.95-8.26-2.49-16.85-4.06-24.83-7.22-10.53-4.17-12.43-15.6-4.11-23.39,3.03-2.84,7.11-5.14,11.1-6.27,14.64-4.14,28.72-1.91,41.87,5.55,6.59,3.73,12.84,8.06,19.76,12.45,0-7.02-.14-13.61.07-20.19.09-2.83-.83-4.46-3.21-6.03-15.99-10.52-33.62-13.88-52.4-12.35-11.5.94-22.01,4.38-31.41,11.43-16.51,12.4-21.99,47.51,8.53,57.82,8.32,2.81,16.92,4.81,25.37,7.24,9.24,2.66,18.72,4.73,27.62,8.26,8.91,3.54,12.1,10.19,10.45,18.72-1.78,9.21-8.61,13.64-16.86,15.79-14.12,3.69-27.83,2.04-40.45-5.43-8.55-5.06-16.71-10.77-25.69-16.61Zm-313.8,38.86v-21.01h-77.96v-154.96h-24.28v175.98h102.24Zm635.99-240.79c-7.53,2.96-14.42,6.39-21.7,8.41-23.65,6.58-42.51-3.81-50.13-27.06-4.74-14.46-4.49-28.86.81-43.08,5.28-14.15,14.89-23.83,30.29-25.65,6.96-.82,14.31.04,21.28,1.28,6.54,1.16,12.82,3.82,19.45,5.9,0-5.98.17-11.81-.12-17.62-.07-1.41-1.35-3.37-2.61-4-29.27-14.68-70.93-9.9-89.27,28.41-8.64,18.05-9.18,37.03-4.8,56.15,10.89,47.56,60.86,57.99,93.5,41.19,1.45-.74,3.07-2.77,3.14-4.28.34-6.64.15-13.3.15-19.64Zm-635.82-80.47c0-5.77.12-11.89-.11-18-.04-1.13-1.26-2.69-2.34-3.24-28.01-14.19-68.44-10.68-87.81,24.81-9.96,18.25-11.1,37.76-7.03,57.72,10.08,49.39,61.23,60.16,94.38,42.95,1.18-.61,2.73-2,2.77-3.07.25-7.06.13-14.12.13-20.75-7.53,2.97-14.56,6.46-21.99,8.53-20.75,5.77-38.19-1.78-46.91-19.99-5.91-12.33-7.74-25.34-5.3-38.9,5.05-28.1,22.8-41.03,50.96-36.45,7.76,1.26,15.26,4.14,23.26,6.38Zm27.48,227.98c-.08-.09-.19-.21-.29-.32-.11.11-.31.21-.31.33,0,.11.18.23.29.35.1-.12.21-.23.31-.35Z"/>
  <path class="cls-26" d="m964.27,991.14v16.55h-21.71v-176.08h22.98v61.47c7.96-10.85,17.16-17.26,28.69-20.07,29.67-7.26,56.8,6.36,67.84,34.9,9.3,24.04,9.08,48.39-2.31,71.7-14.73,30.13-45.12,37.2-71.85,28.1-9.07-3.09-16.12-9.14-21.83-16.77-.48-.74-.96-1.49-2.14-3.31.19,2.04.26,2.78.33,3.53Zm80.03-49.72c.1-10.81-1.6-21.25-6.76-30.88-12.84-23.95-45.63-26.53-62.21-4.93-13.89,18.09-14.03,51.61-.71,70.21,14.2,19.83,49.77,23.19,63.62-5.37,4.46-9.2,6.11-18.93,6.07-29.03Z"/>
  <path class="cls-26" d="m1264.83,780.88c-13.34,15.46-30.94,19.13-50.15,17.63-5.73-.45-11.55-1.72-17-3.58-13.21-4.5-21.57-13.64-23.33-27.77-1.74-13.96,2-26.13,13.55-35,11.54-8.87,25.3-12.23,39.16-15.16,8.46-1.78,17.02-3.08,25.46-4.9,10.79-2.32,15.28-12.99,9.48-22.36-5.77-9.32-15.05-12.15-25.2-12.67-13.25-.68-25.25,3.66-36.4,10.35-6.81,4.09-13.22,8.85-20.48,13.76,0-7.6-.05-14.96.07-22.31.01-.78.81-1.78,1.52-2.3,23.33-17.11,48.79-24.08,77.06-14.89,19.14,6.22,29.27,21.01,29.29,41.16.03,30.31,0,60.62,0,91.34h-21.22v-13.09c0-.6.02-1.2.03-1.8-.61.53-1.23,1.05-1.84,1.58Zm.11-53.16c-11.31,2.41-22.77,4.36-33.94,7.39-8.88,2.41-17.84,5.29-25.96,9.51-7.3,3.79-9.27,11.47-7.99,19.5,1.14,7.2,5.98,11.98,12.66,13.23,7.71,1.44,15.86,2.18,23.62,1.35,16.63-1.77,29.78-13.41,31.45-27.48.93-7.83.17-15.87.17-23.49Z"/>
  <path class="cls-26" d="m911.86,1007.62h-20.93v-15.27c-19.29,21.58-42.88,23.27-68.02,16.17-13.05-3.68-21.81-12.61-24.02-26.63-2.43-15.43,1.83-28.42,14.89-37.7,11.39-8.1,24.71-11.26,38.08-14.08,7.49-1.58,15.03-2.87,22.58-4.13,6.34-1.06,11.34-3.74,13.57-10.19,2.32-6.72-.27-12.22-4.84-16.77-8.09-8.07-18.41-9.47-29.19-8.51-11.86,1.06-22.52,5.67-32.44,12.02-5.56,3.56-10.87,7.52-17.5,12.14,0-5.73.53-10.64-.13-15.38-.92-6.64,2.05-10.11,7.37-13.49,21.48-13.61,44.29-18.79,69.1-11.73,20.46,5.82,31.6,20.79,31.65,41.93.06,29,.02,58.01,0,87.01,0,1.46-.12,2.92-.19,4.62Zm-22.16-66.78c-11.61,2.47-22.87,4.45-33.88,7.34-8.6,2.25-17.24,4.91-25.24,8.71-7.8,3.71-10.65,11.2-9.5,19.73,1.08,8.07,6.44,13.07,13.99,14.28,7.74,1.24,15.92,1.87,23.62.8,18.11-2.53,29.92-15.17,30.94-31.89.4-6.45.06-12.94.06-18.96Z"/>
  <path class="cls-26" d="m1553.6,794.48h-23.41c0-1.74,0-3.47,0-5.21,0-25.5.19-51-.14-76.5-.08-6.38-1.23-12.91-3.01-19.05-2-6.89-7.25-11.34-14.02-13.93-22.38-8.55-46.35,6.09-47.19,29.95-.92,26.13-.32,52.32-.37,78.48,0,1.97,0,3.94,0,6.18h-23.04v-176.1h22.92v57.14c1.15-.8,1.73-1.04,2.08-1.46,15.56-18.83,45.01-19.56,62.02-11.56,14.16,6.65,22.22,18.25,23.39,33.56,1.14,14.92.67,29.97.75,44.96.09,17.64.02,35.29.02,53.53Z"/>
  <path class="cls-26" d="m504.31,752.12c0,9,.07,16.95-.08,24.89-.02,1.09-.91,2.46-1.81,3.18-33.51,27.03-87.11,22.92-112.63-6.85-12.99-15.16-19.71-33.03-22.36-52.47-2.77-20.31-1.07-40.37,7.72-59.1,13.71-29.22,38.05-43.59,69.36-46.68,20.19-1.99,38.89,3.32,56.02,14.22,2.64,1.68,3.92,3.47,3.79,6.79-.29,7.24-.09,14.5-.09,22.67-3.11-2.32-5.42-4.11-7.8-5.8-18.14-12.88-38.06-17.83-60.02-13.19-22.14,4.67-36.19,18.3-42.19,39.86-5.01,18-4.9,36.29.16,54.28,8.86,31.54,31.73,43.87,62.24,41.6,12.69-.94,23.81-5.71,33.93-13.17,4.26-3.14,8.49-6.32,13.76-10.24Z"/>
  <path class="cls-26" d="m871.01,715.12c17.5,26.2,35.02,52.42,53.14,79.56-8.82,0-16.58.16-24.31-.15-1.35-.05-2.96-1.82-3.87-3.18-12.5-18.66-24.9-37.39-37.33-56.1-.91-1.37-1.9-2.69-2.72-3.84-8.21,6.84-16.31,13.45-24.2,20.3-1.13.98-1.79,3.07-1.81,4.66-.15,11-.08,22-.08,32.99v5.13h-23.05v-176.11h22.95v104.09c.51.29,1.01.58,1.52.87,8.55-9.41,17.69-18.36,25.47-28.37,7.32-9.41,13.36-19.84,19.62-30.03,1.62-2.63,3.12-3.76,6.19-3.66,6.65.22,13.32.07,21.64.07-5.38,9.86-9.95,19.14-15.35,27.91-5.41,8.76-11.65,17-17.8,25.86Z"/>
  <path class="cls-26" d="m1153.9,727.75c-.48,14.69-3.55,28.49-11.22,41.05-13.4,21.95-39.66,33.38-65.95,28.83-27.3-4.72-46.83-23.06-52.74-49.85-4.13-18.72-3.04-37.1,5.29-54.6,11.83-24.85,37.31-38.16,66.49-35.08,27.41,2.89,48.67,21.63,55.06,48.97,1.58,6.76,2.07,13.77,3.07,20.67Zm-108.85.36c1.02,6.38,1.49,12.9,3.15,19.11,4.84,18.11,17.7,29.38,35.16,31.49,16,1.94,31.58-5.69,39.07-20.41,10.15-19.94,10.16-40.47.06-60.4-6.98-13.78-19.16-20.54-34.54-20.62-15.34-.08-27.2,6.65-34.96,20.06-5.48,9.47-7.4,19.84-7.95,30.76Z"/>
  <path class="cls-26" d="m525.83,728.24c.63-13.79,3.3-26.85,10.11-38.88,12.92-22.81,38.97-35.11,65.81-31.09,28.17,4.22,48.18,22.63,54.1,50.09,4.08,18.91,2.99,37.43-5.6,55.04-12.13,24.87-36.77,37.51-66.72,34.52-26.3-2.62-47.98-21.75-54.45-48.53-1.67-6.91-2.2-14.09-3.25-21.15Zm109-.19c-1.01-6.38-1.49-12.9-3.12-19.12-4.81-18.35-17.54-29.37-35.6-31.5-15.67-1.85-31.19,5.77-38.61,20.37-10.4,20.46-10.63,41.59.72,61.63,15.09,26.65,53.54,26.01,68.69-.61,5.41-9.5,7.37-19.85,7.92-30.77Z"/>
  <path class="cls-26" d="m1090.95,968.79c8.98,5.84,17.14,11.55,25.69,16.61,12.62,7.47,26.33,9.13,40.45,5.43,8.24-2.16,15.07-6.58,16.86-15.79,1.65-8.53-1.54-15.18-10.45-18.72-8.9-3.53-18.38-5.61-27.62-8.26-8.45-2.43-17.05-4.43-25.37-7.24-30.52-10.31-25.05-45.43-8.53-57.82,9.39-7.05,19.91-10.49,31.41-11.43,18.79-1.54,36.41,1.83,52.4,12.35,2.38,1.57,3.3,3.21,3.21,6.03-.21,6.58-.07,13.17-.07,20.19-6.92-4.39-13.18-8.71-19.76-12.45-13.15-7.46-27.24-9.68-41.87-5.55-4,1.13-8.08,3.43-11.1,6.27-8.31,7.79-6.41,19.22,4.11,23.39,7.98,3.16,16.58,4.72,24.83,7.22,10.47,3.16,21.14,5.88,31.26,9.95,28.52,11.49,24.87,47.46,6.59,61.19-9.68,7.28-20.66,10.53-32.45,11.5-20.47,1.69-39.28-2.96-56.14-14.99-2.56-1.83-3.67-3.75-3.54-6.98.28-6.78.09-13.59.09-20.89Z"/>
  <path class="cls-26" d="m777.15,1007.65h-102.24v-175.98h24.28v154.96h77.96v21.01Z"/>
  <path class="cls-26" d="m1413.14,766.86c0,6.34.19,13.01-.15,19.64-.08,1.51-1.7,3.54-3.14,4.28-32.65,16.8-82.61,6.36-93.5-41.19-4.38-19.12-3.84-38.1,4.8-56.15,18.33-38.31,60-43.09,89.27-28.41,1.26.63,2.54,2.6,2.61,4,.29,5.81.12,11.64.12,17.62-6.64-2.08-12.91-4.74-19.45-5.9-6.97-1.24-14.31-2.1-21.28-1.28-15.4,1.81-25.01,11.5-30.29,25.65-5.31,14.22-5.55,28.63-.81,43.08,7.62,23.25,26.48,33.64,50.13,27.06,7.28-2.02,14.17-5.45,21.7-8.41Z"/>
  <path class="cls-26" d="m777.32,686.39c-8-2.24-15.5-5.12-23.26-6.38-28.17-4.59-45.91,8.35-50.96,36.45-2.44,13.56-.6,26.57,5.3,38.9,8.73,18.21,26.16,25.75,46.91,19.99,7.43-2.07,14.46-5.56,21.99-8.53,0,6.63.12,13.7-.13,20.75-.04,1.07-1.59,2.46-2.77,3.07-33.15,17.21-84.3,6.44-94.38-42.95-4.07-19.95-2.93-39.46,7.03-57.72,19.37-35.49,59.8-39,87.81-24.81,1.09.55,2.3,2.11,2.34,3.24.23,6.11.11,12.23.11,18Z"/>
  <path class="cls-26" d="m965.99,677.99c11.3-16.47,26.37-22.22,43.9-16.97,3.18.95,4.63,2.31,4.39,5.89-.36,5.28-.09,10.6-.09,16.31-2.85-.52-5.25-.9-7.63-1.4-25.2-5.3-36.3,10.75-39.5,27.52-1.05,5.51-1.29,11.24-1.33,16.87-.15,20.82-.06,41.64-.06,62.45v5.71h-23.04v-132.45h21.65v19.51c.93-1.85,1.32-2.65,1.72-3.44Z"/>
  <path class="cls-21" d="m1044.05,219.66c8.78,17.12,14.54,35.31,17.69,54.17,2.15,12.89,2.73,26.03,4.01,39.07-2.15-.78-4.35-1.44-6.44-2.35-5.7-2.5-11.36-5.1-17.03-7.66-1.54-15.74-3.85-31.34-8.92-46.96-4.04,5.61-7.76,10.77-11.47,15.93-.97-2.23-2.54-4.39-2.81-6.7-.95-7.91-1.7-15.86-2.04-23.81-.27-6.31,2.09-8.54,8.27-9.48,1.51-.23,3.1-.79,4.36-1.64,3.33-2.24,6.5-4.71,9.73-7.1,1.55-1.15,3.1-2.3,4.65-3.46Z"/>
  <path class="cls-23" d="m855.11,295.92c.27-2.01.55-4.01.82-6.02,6.57-3.18,8.87-9.39,10.94-15.67,2.43-7.37,4.12-15.03,7.11-22.15,6.51-15.52,16.68-28.56,29.16-39.76,1.83-1.64,4.54-2.31,6.85-3.42-3.43,12.33-3.6,24.64.14,36.94-1.2.96-2.93,1.69-3.49,2.94-1.8,4.02-3.04,8.29-4.75,12.36-1.39,3.31-3.14,6.47-4.74,9.69-3.37-4.82-6.74-9.63-10.47-14.96-5.75,18.05-8.39,35.88-9.27,54.01-3.83-.3-7.65-.6-11.48-.91-.96-1.93-1.58-4.15-2.96-5.71-2.37-2.67-5.22-4.93-7.87-7.36Z"/>
  <path class="cls-1" d="m925.2,105.77c9.94,4.93,20.06,9.54,29.73,14.96,3.93,2.2,6.42,2.01,10.23-.13,9.38-5.26,19.17-9.78,28.8-14.59,1,2.13,1.65,4.53,3.08,6.32,3.45,4.34,7.26,8.4,10.92,12.56-8.62,4.11-17.25,8.21-25.87,12.32-.97-.81-1.88-2.2-2.93-2.32-6.21-.74-12.45-1.65-18.68-1.6-8.57.07-14.76,5.48-20.43,11.11-3.51,3.48-7.27,5.06-12.09,4.17,3.62-3.35,7.23-6.71,11.47-10.64-9.2-4.37-18.07-8.58-26.93-12.79.79-1.01,1.65-1.96,2.34-3.03,3.48-5.43,6.92-10.89,10.37-16.34Z"/>
  <path class="cls-7" d="m1033.22,434.04c-6.32,9-12.65,18-18.97,27-16.21,2.78-30.71,10.08-44.73,18.07-9.27,5.29-17.65,12.16-26.42,18.32-6.61-5.76-13.23-11.51-19.84-17.27,1.53-.56,3.07-1.09,4.58-1.68,6.31-2.49,12.62-5.01,18.92-7.51.68-.04,1.37-.07,2.05-.11,4.61-1.6,9.19-3.28,13.83-4.77,2.91-.93,5.92-1.57,8.89-2.34.16,2.38.32,4.76.48,7.14l1.18.66c8.55-9.22,17.1-18.44,25.66-27.66,2.5-.72,5.13-1.14,7.47-2.2,8.61-3.88,17.2-7.67,26.9-7.67Z"/>
  <path class="cls-28" d="m909.99,208.9c-2.3,1.12-5.02,1.78-6.85,3.42-12.47,11.2-22.65,24.24-29.16,39.76-2.99,7.12-4.68,14.79-7.11,22.15-2.07,6.28-4.37,12.49-10.94,15.67,1.7-21.01,6.97-41.24,15.47-60.38,6.08-13.7,14.07-26.55,21.21-39.78,6.75.87,13.46.98,19.57-2.54,3.85-2.22,7.66-2.98,11.83-1.27-4.67,7.65-9.35,15.31-14.02,22.96Z"/>
  <path class="cls-15" d="m865.94,308.98c3.83.3,7.65.6,11.48.91.37,9.27.46,18.55,1.18,27.79,1.35,17.26,5.95,33.85,11.3,50.24-.64,1.96-1.8,3.92-1.81,5.88-.03,4.28.46,8.57.88,12.84.48,4.92.75,9.9,1.73,14.73,1.53,7.59,3.63,15.07,5.33,22.63.19.85-.62,1.92-.96,2.88-6.79-11.96-13.59-23.91-20.38-35.87,4.31-2,2.2-5.81,2.04-8.67-.67-11.69-1.49-23.4-2.88-35.02-1.02-8.55-.33-17.58-5.62-25.27-.88-1.27-1.14-3.14-1.22-4.76-.43-9.43-.72-18.86-1.06-28.3Z"/>
  <path class="cls-20" d="m895.06,446.88c.35-.97,1.15-2.04.96-2.88-1.7-7.56-3.8-15.04-5.33-22.63-.98-4.83-1.25-9.81-1.73-14.73-.41-4.27-.9-8.56-.88-12.84.01-1.97,1.17-3.92,1.81-5.88,4.28,9.16,8.28,18.47,12.91,27.44,9.14,17.72,21.7,32.97,35.26,47.45-8.2,2.4-16.4,4.81-24.61,7.21-6.13-7.71-12.26-15.42-18.39-23.14Z"/>
  <path class="cls-8" d="m927.95,148.56c4.82.89,8.58-.69,12.09-4.17,5.68-5.63,11.86-11.04,20.43-11.11,6.22-.05,12.47.87,18.68,1.6,1.06.13,1.96,1.52,2.93,2.32.48,1.2.63,2.72,1.48,3.55,5.53,5.4,11.21,10.65,16.85,15.95-4.19-.79-8.46-1.28-12.55-2.43-8.98-2.53-17.9-4.85-27.27-2.2-6.24,4.93-12.47,9.86-18.71,14.79-5.65-.61-11.38-2.09-16.91-1.55-4.38.42-7.97.58-11.22-2.53,4.73-4.74,9.47-9.47,14.2-14.21Z"/>
  <path class="cls-26" d="m849.95,111.41c-17.67.71-35.34,1.43-53.57,2.17-1.48-6.06-3.23-13.25-5.16-21.2,7.23-1.08,13.85-2.64,20.54-2.95,13.05-.61,26.13-.53,39.2-.73-.33,7.57-.67,15.14-1,22.71Z"/>
  <path class="cls-17" d="m865.94,308.98c.34,9.43.63,18.87,1.06,28.3.07,1.62.34,3.49,1.22,4.76,5.29,7.7,4.6,16.72,5.62,25.27,1.39,11.63,2.2,23.33,2.88,35.02.16,2.86,2.27,6.67-2.04,8.67-9.94-20.35-15.66-41.96-18.67-64.3-2.28-16.87-2.92-33.82-.89-50.79,2.65,2.43,5.5,4.68,7.87,7.36,1.38,1.55,2,3.78,2.96,5.71Z"/>
  <path class="cls-27" d="m943.1,497.43c8.78-6.16,17.15-13.03,26.42-18.32,14.03-7.99,28.52-15.29,44.73-18.07-14.6,18.93-32.51,34.22-52.35,47.34-.92.61-2.98.55-3.9-.08-5.07-3.47-9.95-7.22-14.9-10.87Z"/>
  <path class="cls-4" d="m925.2,105.77c-3.45,5.45-6.89,10.91-10.37,16.34-.69,1.07-1.56,2.03-2.34,3.03-12.18-3.49-24.36-6.99-36.55-10.48.33-1.76.69-3.51,1-5.27,1.01-5.77,2-11.55,3-17.33,15.66,2.69,30.8,7.06,45.26,13.71Z"/>
  <path class="cls-22" d="m1057.8,89.43c12.42-.29,24.84-.57,37.25-.86.16,1.13-.02,2.47.54,3.36,2.53,4.07,5.13,8.1,7.96,11.96,2.28,3.12,4.92,5.98,7.4,8.95-14.66-.4-29.33-.79-43.99-1.19-.71-2.15-1.28-4.36-2.17-6.44-2.26-5.29-4.65-10.53-6.99-15.78Z"/>
  <path class="cls-5" d="m1059.67,369.02c-3.82,11.77-7.64,23.53-11.46,35.3-.65-.44-1.27-1.2-1.96-1.28-7.1-.79-14.22-1.48-21.33-2.19,4.11-12.3,8.22-24.6,12.33-36.91,7.47,1.69,14.94,3.38,22.41,5.08Z"/>
  <path class="cls-24" d="m960.59,152.07c9.37-2.65,18.29-.33,27.27,2.2,4.09,1.15,8.36,1.64,12.55,2.43,5.54,6.34,11.08,12.67,16.62,19.01-1.39.66-2.74,1.79-4.17,1.9-7.64.57-15.3.88-22.96,1.28-9.77-8.94-19.54-17.88-29.31-26.82Z"/>
  <path class="cls-10" d="m1057.8,89.43c2.34,5.26,4.74,10.49,6.99,15.78.89,2.08,1.46,4.29,2.17,6.44-10.66,1.66-21.33,3.31-31.99,4.97-.68-1.43-1.34-2.87-2.03-4.29-2.7-5.59-5.41-11.18-8.11-16.77,10.99-2.04,21.98-4.09,32.97-6.13Z"/>
  <path class="cls-14" d="m1044.05,219.66c-1.55,1.15-3.09,2.31-4.65,3.46-3.23,2.39-6.4,4.86-9.73,7.1-1.26.85-2.85,1.41-4.36,1.64-6.19.94-8.54,3.17-8.27,9.48.33,7.96,1.09,15.91,2.04,23.81.28,2.31,1.84,4.47,2.81,6.7-2.03,2.68-4.05,5.36-6.08,8.04-5.41-.63-3.89-5.41-4.75-8.47-1.72-6.08-2.82-12.34-4.18-18.53,2.06-8.67,4.12-17.34,6.18-26.01.75-.31,1.69-.43,2.23-.96,6.18-6.12,12.68-11.66,21.52-13.6.97-.21,1.73-1.42,2.59-2.17,1.55,3.17,3.1,6.34,4.65,9.51Z"/>
  <path class="cls-11" d="m1024.83,95.56c2.7,5.59,5.41,11.18,8.11,16.77.69,1.42,1.35,2.86,2.03,4.29-9,2.76-18.01,5.52-27.01,8.27-3.66-4.17-7.47-8.22-10.92-12.56-1.42-1.79-2.07-4.2-3.08-6.32,10.29-3.48,20.58-6.97,30.87-10.45Z"/>
  <path class="cls-18" d="m913.75,162.78c3.26,3.11,6.85,2.95,11.22,2.53,5.53-.54,11.26.94,16.91,1.55-5.96,6.36-11.92,12.72-17.87,19.08-4.17-1.71-7.97-.95-11.83,1.27-6.11,3.51-12.82,3.4-19.57,2.54,7.05-8.99,14.09-17.97,21.14-26.96Z"/>
  <path class="cls-22" d="m879.94,92.06c-1,5.78-1.99,11.55-3,17.33-.31,1.76-.66,3.51-1,5.27-8.66-1.08-17.33-2.16-25.99-3.25.33-7.57.67-15.14,1-22.71,9.66,1.12,19.32,2.24,28.99,3.36Z"/>
  <path class="cls-26" d="m1110.95,112.84c-2.48-2.97-5.12-5.83-7.4-8.95-2.83-3.86-5.43-7.9-7.96-11.96-.55-.89-.38-2.23-.54-3.36,10.98,1.05,21.96,2.1,33.71,3.22-2.02,8.37-3.75,15.55-5.65,23.39-4.2-.8-8.18-1.57-12.17-2.33Z"/>
  <path class="cls-18" d="m1033.22,434.04c-9.7,0-18.3,3.79-26.9,7.67-2.35,1.06-4.97,1.48-7.47,2.2,5.03-7.33,10.07-14.66,15.1-21.99,2.41-.53,4.81-1.1,7.23-1.59,7.27-1.48,14.54-2.94,21.81-4.41-3.25,6.04-6.51,12.08-9.76,18.12Z"/>
  <path class="cls-5" d="m989.9,178.9c7.65-.4,15.32-.71,22.96-1.28,1.43-.11,2.78-1.24,4.17-1.9,4.07,5.7,8.14,11.4,12.21,17.1-8.11,1.7-16.22,3.39-24.34,5.09-5-6.33-10-12.66-15-19Z"/>
  <path class="cls-12" d="m1065.22,329.96c-.74,6.99-1.49,13.97-2.23,20.96-2.04-.52-4.1-1-6.13-1.57-5.29-1.47-10.57-2.97-15.86-4.46.64-7.34,1.28-14.67,1.91-22.01,1.67.67,3.3,1.45,5.01,1.98,5.75,1.75,11.53,3.4,17.3,5.1Z"/>
  <path class="cls-14" d="m1065.22,329.96c-5.77-1.69-11.55-3.35-17.3-5.1-1.71-.52-3.34-1.31-5.01-1.98-.21-6.67-.42-13.34-.63-20.01,5.67,2.56,11.33,5.17,17.03,7.66,2.09.92,4.29,1.58,6.44,2.35-.18,5.69-.36,11.38-.53,17.06Z"/>
  <path class="cls-13" d="m1041,344.9c5.28,1.49,10.57,2.99,15.86,4.46,2.03.56,4.09,1.05,6.13,1.57-1.11,6.03-2.21,12.07-3.32,18.1-7.47-1.69-14.94-3.38-22.41-5.08,1.25-6.35,2.5-12.7,3.75-19.05Z"/>
  <path class="cls-17" d="m1042.99,415.92c-7.27,1.47-14.54,2.92-21.81,4.41-2.42.49-4.82,1.06-7.23,1.59,3.66-7.02,7.32-14.04,10.98-21.07,7.11.71,14.23,1.4,21.33,2.19.69.08,1.31.83,1.96,1.28-1.74,3.87-3.48,7.73-5.22,11.6Z"/>
  <path class="cls-13" d="m1004.9,197.89c8.11-1.7,16.22-3.39,24.34-5.09,2.01,3.31,4.02,6.62,6.03,9.93-8.14,3.16-17.21,4.07-24.14,10.12-2.08-4.99-4.15-9.98-6.23-14.97Z"/>
  <path class="cls-12" d="m1011.13,212.86c6.92-6.05,16-6.96,24.14-10.12,1.38,2.47,2.75,4.94,4.13,7.42-.86.75-1.61,1.95-2.59,2.17-8.84,1.94-15.34,7.48-21.52,13.6-.53.53-1.47.65-2.23.96-.65-4.67-1.29-9.35-1.94-14.02Z"/>
  <path class="cls-28" d="m913.45,470.02c8.2-2.4,16.4-4.81,24.61-7.21,2.9,2.72,5.8,5.44,8.7,8.16-6.31,2.51-12.61,5.02-18.92,7.51-1.51.6-3.05,1.12-4.58,1.68-3.27-3.38-6.54-6.76-9.81-10.14Z"/>
  <path class="cls-3" d="m965.99,677.99c-.4.8-.8,1.59-1.72,3.44v-3.59c.57.05,1.15.1,1.72.15Z"/>
  <path class="cls-3" d="m964.27,991.14c-.07-.74-.14-1.49-.33-3.53,1.18,1.82,1.66,2.57,2.14,3.31-.6.07-1.21.14-1.81.21Z"/>
  <path class="cls-3" d="m1264.83,780.88c.61-.53,1.23-1.05,1.84-1.58,0,.6-.02,1.2-.03,1.8-.6-.07-1.21-.15-1.81-.22Z"/>
  <path class="cls-9" d="m804.8,914.37c-.1.12-.21.23-.31.35-.1-.12-.29-.23-.29-.35,0-.11.2-.22.31-.33.1.12.21.23.29.32Z"/>
  <path class="cls-2" d="m1044.29,941.4c.05,10.12-1.61,19.84-6.07,29.04-13.85,28.55-49.41,25.2-63.62,5.37-13.32-18.59-13.17-52.12.71-70.21,16.58-21.59,49.37-19.01,62.21,4.93,5.16,9.63,6.86,20.07,6.76,30.87Z"/>
  <path class="cls-2" d="m1264.94,727.72c0,7.62.76,15.66-.17,23.49-1.67,14.07-14.82,25.71-31.45,27.48-7.76.83-15.91.09-23.62-1.35-6.69-1.25-11.52-6.03-12.66-13.23-1.28-8.03.69-15.71,7.99-19.5,8.12-4.21,17.08-7.1,25.96-9.51,11.17-3.03,22.63-4.98,33.94-7.39Z"/>
  <path class="cls-2" d="m889.69,940.83c0,6.03.33,12.52-.06,18.96-1.03,16.72-12.84,29.36-30.94,31.89-7.71,1.08-15.88.44-23.62-.8-7.55-1.21-12.91-6.21-13.99-14.28-1.15-8.53,1.7-16.02,9.5-19.73,7.99-3.8,16.64-6.46,25.24-8.71,11.02-2.89,22.27-4.87,33.88-7.34Z"/>
  <path class="cls-2" d="m1045.04,728.1c.55-10.92,2.47-21.29,7.95-30.76,7.76-13.41,19.61-20.13,34.96-20.06,15.38.08,27.56,6.84,34.54,20.62,10.1,19.93,10.09,40.46-.06,60.4-7.49,14.71-23.07,22.35-39.07,20.41-17.46-2.12-30.33-13.38-35.16-31.49-1.66-6.21-2.14-12.73-3.15-19.11Z"/>
  <path class="cls-2" d="m634.82,728.05c-.55,10.92-2.51,21.27-7.92,30.77-15.15,26.61-53.6,27.25-68.69.61-11.34-20.03-11.12-41.17-.72-61.63,7.42-14.6,22.94-22.21,38.61-20.37,18.06,2.13,30.79,13.15,35.6,31.5,1.63,6.22,2.11,12.74,3.12,19.12Z"/>
  <path class="cls-2" d="m1024.92,400.85c-3.66,7.02-7.32,14.04-10.98,21.07-5.03,7.33-10.07,14.66-15.1,21.99-8.55,9.22-17.1,18.44-25.66,27.66l-1.18-.66c-.16-2.38-.32-4.76-.48-7.14-.01-4.31-.02-8.62-.04-12.94,0-2.34,0-4.68,0-7.02.03-2.96.07-5.91.1-8.87,0-8.33,0-16.66,0-24.99.07-22,.14-44,.22-66.01.6-2.9,1.15-5.81,1.82-8.7,2.87-12.39,10.26-21.92,19.26-30.44,7.65-8.3,15.3-16.6,22.95-24.89,2.03-2.68,4.05-5.36,6.08-8.05,3.71-5.16,7.43-10.31,11.47-15.93,5.06,15.62,7.38,31.22,8.92,46.96.21,6.67.42,13.34.63,20.01-.64,7.34-1.28,14.67-1.91,22.01-1.25,6.35-2.5,12.7-3.75,19.05-4.11,12.3-8.22,24.6-12.33,36.91Z"/>
  <path class="cls-2" d="m1011.13,212.86c.65,4.67,1.29,9.35,1.94,14.02-2.06,8.67-4.12,17.34-6.18,26.01-6.35,8.27-12.71,16.54-19.06,24.81-8.7,7.83-17.4,15.65-26.09,23.48-1.45-.32-3.2-.23-4.3-1.03-4.02-2.91-7.83-6.12-11.71-9.22-13.66-13.61-27.86-26.8-35.59-45.1-3.75-12.3-3.58-24.62-.14-36.94,4.67-7.65,9.35-15.31,14.02-22.96,5.96-6.36,11.92-12.72,17.87-19.08,6.24-4.93,12.47-9.86,18.71-14.79,9.77,8.94,19.54,17.88,29.31,26.82,5,6.33,10,12.66,15,19,2.08,4.99,4.15,9.98,6.23,14.97Z"/>
  <path class="cls-2" d="m946.76,470.97c-2.9-2.72-5.8-5.44-8.7-8.16-13.55-14.48-26.12-29.73-35.26-47.45-4.63-8.98-8.62-18.29-12.91-27.44-5.35-16.39-9.95-32.97-11.3-50.24-.72-9.24-.81-18.53-1.18-27.79.88-18.13,3.52-35.96,9.27-54.01,3.73,5.33,7.1,10.14,10.47,14.96,1.3,1.9,2.38,4,3.93,5.67,11.9,12.85,23.89,25.62,35.85,38.42,8.98,12.52,12.1,26.54,11.49,41.8-.49,12.43-.15,24.89-.1,37.33.02,4.96.27,9.92.42,14.87,0,11.34,0,22.67,0,34.01.03,2.67.05,5.34.08,8.01.02,2.66.03,5.33.05,7.99-.06,2.35-.13,4.7-.19,7.05-.1.08-.29.18-.28.23.06.22.18.43.27.65.05,1.33.09,2.67.14,4-.68.04-1.37.07-2.05.11Z"/>
  <path class="cls-19" d="m936.94,314.92c-11.96-12.79-23.95-25.56-35.85-38.42-1.55-1.67-2.63-3.77-3.93-5.67,1.59-3.23,3.34-6.38,4.74-9.69,1.71-4.07,2.95-8.34,4.75-12.36.56-1.25,2.29-1.97,3.49-2.94,7.72,18.3,21.92,31.49,35.59,45.1-.72.59-1.85,1.05-2.09,1.8-2.32,7.37-4.49,14.78-6.7,22.18Z"/>
  <path class="cls-28" d="m948.68,465.98c.06-2.35.13-4.7.19-7.05,1.57-.43,3.18-.76,4.7-1.32,5.99-2.22,11.95-4.52,17.91-6.78.01,4.31.02,8.62.04,12.94-2.96.77-5.97,1.41-8.89,2.34-4.64,1.49-9.22,3.17-13.83,4.77-.05-1.34-.09-2.67-.14-4,.19-.29.19-.59,0-.88Z"/>
  <path class="cls-25" d="m987.83,277.7c6.35-8.27,12.71-16.54,19.06-24.81,1.36,6.19,2.45,12.45,4.18,18.53.87,3.07-.66,7.84,4.75,8.47-7.65,8.3-15.3,16.6-22.95,24.89-.66-3.21-1.38-6.42-1.97-9.64-1.06-5.81-2.05-11.63-3.07-17.44Z"/>
  <path class="cls-6" d="m936.94,314.92c2.21-7.4,4.38-14.81,6.7-22.18.23-.74,1.37-1.21,2.09-1.8,3.89,3.1,7.69,6.31,11.71,9.22,1.1.8,2.85.71,4.3,1.03.54,11.97.44,24.05,5.35,35.32,1.16,2.65,3.12,4.95,4.71,7.42-.07,22-.14,44-.22,66.01-1.58.34-3.15.85-4.75.99-2.18.19-4.43.35-6.58.06-3.86-.51-7.67-1.36-11.5-2.07-.15-4.96-.4-9.91-.42-14.87-.06-12.45-.4-24.91.1-37.33.61-15.26-2.51-29.28-11.49-41.8Z"/>
  <path class="cls-16" d="m971.79,343.93c-1.59-2.46-3.55-4.76-4.71-7.42-4.91-11.27-4.82-23.36-5.35-35.32,8.7-7.83,17.4-15.66,26.09-23.48,1.02,5.81,2.01,11.63,3.07,17.44.59,3.23,1.31,6.43,1.97,9.64-9,8.52-16.39,18.05-19.26,30.44-.67,2.89-1.22,5.8-1.82,8.7Z"/>
  <path class="cls-19" d="m948.75,408.92c3.83.71,7.64,1.56,11.5,2.07,2.16.28,4.4.13,6.58-.06,1.6-.14,3.17-.65,4.75-.99,0,8.33,0,16.66,0,25-2.45.78-4.93,1.48-7.35,2.34-5.18,1.84-10.33,3.77-15.49,5.66,0-11.34,0-22.67,0-34.01Z"/>
  <path class="cls-20" d="m948.75,442.93c5.16-1.89,10.31-3.81,15.49-5.66,2.42-.86,4.9-1.57,7.35-2.34-.03,2.96-.07,5.91-.1,8.87-1.45.21-2.96.22-4.32.68-6.14,2.08-12.23,4.29-18.34,6.46-.03-2.67-.05-5.34-.08-8.01Z"/>
  <path class="cls-23" d="m948.83,450.94c6.11-2.17,12.2-4.38,18.34-6.46,1.36-.46,2.88-.46,4.32-.68,0,2.34,0,4.68,0,7.02-5.97,2.27-11.93,4.56-17.91,6.78-1.52.56-3.13.89-4.7,1.32-.02-2.66-.03-5.33-.05-7.99Z"/>
  <path class="cls-19" d="m948.68,465.98c.19.3.19.59,0,.88-.1-.22-.21-.43-.27-.65-.01-.05.18-.15.28-.23Z"/>
</svg>