<?xml version="1.0" encoding="UTF-8"?>
<svg id="Layer_1" data-name="Layer 1" xmlns="http://www.w3.org/2000/svg" viewBox="0 0 3202.32 2428">
  <defs>
    <style>
      .cls-1 {
        fill: #fff;
      }

      .cls-2 {
        fill: #4b4476;
      }

      .cls-3 {
        fill: none;
      }

      .cls-4 {
        fill: #ee934e;
      }

      .cls-5 {
        fill: #baf4e0;
      }
    </style>
  </defs>
  <circle class="cls-4" cx="2132.38" cy="1431.73" r="750"/>
  <g>
    <path class="cls-3" d="m3202.32,2428H1122.32V348h2080v2080Zm-1509.11-797.46c-1.17,2.5-1.65,4.08-2.56,5.36-20.41,28.51-30.52,60.31-31.6,95.32-1.15,37.39,10.59,70,34.37,98.6,7.86,9.45,15.51,19.08,22.99,28.83,4.86,6.34,9.1,13.16,13.86,19.59,19.15,25.85,43.35,45.14,74.03,55.51,24.91,8.42,50.46,11.3,76.81,9.07,47.48-4.03,92.49-15.94,133.99-39.76,23.41-13.44,46.78-26.97,69.91-40.89,18.23-10.97,37.22-19.45,58.71-20.95,9.63-.67,19.29-1.05,28.94-1.07,22.3-.06,44.62.73,66.9.14,18.38-.49,35.36-6.65,50.38-17.33,20.65-14.68,37.69-32.6,48.95-55.68,6.28-12.87,13.08-25.51,20.07-38.02,5.03-9,10.44-17.84,16.29-26.33,4.28-6.22,6.42-6.61,13.67-4.09,39.6,13.8,80.02,16.43,121.24,9.36,65.78-11.28,115.66-45.67,149.57-103.07,9.91-16.77,14.16-35.08,12.81-54.65-.57-8.18-3.64-15.03-10.24-19.7-5.12-3.62-10.63-7.21-16.52-9.11-12.33-3.98-24.85-7.99-37.6-9.93-31.19-4.74-60.78-14.89-90.41-25-5.34-1.82-10.44-4.39-15.54-6.86-2.23-1.08-4.16-2.76-7.43-5,4.46-1.77,7.44-3.13,10.54-4.15,19-6.21,38.01-12.41,57.05-18.49,26.36-8.42,52.64-16.97,77.6-29.16,53.33-26.03,79.04-68.47,76.25-127.85-1.1-23.44-6.65-46.08-12.97-68.6-4.57-16.3-11.58-31.34-21.94-44.56-9.02-11.51-18.06-23.39-28.99-32.92-20.82-18.15-42.48-35.45-64.72-51.84-45.27-33.35-94.76-59.69-145.6-83.28-61.87-28.7-126.21-50.38-193.31-63.38-38.61-7.48-76.26-6.73-111.58,13.33-3.99,2.27-7.41,1.83-10.98-1.09-8.43-6.89-18.29-11.31-28.81-13.23-14.7-2.68-29.67-6.03-44.44-5.67-32.27.78-64.56,2.94-96.69,6.02-29.52,2.83-58.7,8.37-87.11,17.32-42.21,13.29-79.79,33.62-106.76,70.13-.64.87-1.85,1.33-3.99,2.79,0-9.71.32-18-.06-26.27-.85-18.46-9.4-27.37-27.68-29.06-16.92-1.57-32.25,3.55-46.73,11.78-35.54,20.21-57.38,50.84-68.48,89.76-1.15,4.02-3.38,7.87-5.75,11.36-10.09,14.87-21.5,28.97-30.44,44.49-15.81,27.45-21.86,57.1-14.55,88.6,4.5,19.38,12.8,37.22,23.86,53.63,8.93,13.26,18.37,26.22,28.3,38.74,25.1,31.65,47.92,64.81,68.55,99.54,9.34,15.73,19.74,30.84,29.63,46.25.86,1.34,1.53,2.8,2.45,4.5-2.05,2.59-3.67,5.14-5.76,7.21-23.82,23.63-51.34,38.7-86.05,38.1-22.28-.38-34.03,13.26-30.69,35.43,1.33,8.82,4.31,17.42,6.85,26.02,6.7,22.69,22.82,35.5,44.9,41.25,11.25,2.93,22.86,4.44,34.31,6.61,3.8.72,7.6,1.46,12.23,2.35Zm-189.37-635.12c4.02,3.28,6.33,4.62,7.92,6.56,4.63,5.63,10.85,7.14,17.65,8,9.86,1.25,19.81,2.29,29.43,4.63,12.92,3.14,25.26,2.58,36.88-3.7,9.92-5.36,19.69-11.14,28.91-17.61,19.91-13.95,39.63-28.18,59.02-42.85,13.69-10.36,23.6-24.24,33.27-38.32,15.19-22.11,20.95-46.71,19.03-72.95-2.07-28.27-2.63-56.46.17-84.67,3.18-32.08,6.45-64.15,9.7-96.23,2.61-25.79,5.37-51.57,7.81-77.37,1.06-11.25,1.67-22.54,2.18-33.83.37-8.25.35-16.52.32-24.78-.04-14.93.09-29.88-.52-44.8-.2-4.81-2.11-9.68-3.87-14.29-4.48-11.73-15.03-17.35-24.86-23.46-10.97-6.82-22.57-12.34-32.65-20.89-14.11-11.97-31.9-14.8-49.8-13.78-14.21.81-28.32,3.56-42.45,5.6-14.49,2.08-28.76,4.96-42.33,10.8-20.59,8.86-34.44,23.35-39.24,45.67-.9,4.18-1.47,8.43-2.15,12.66-2.63,16.34-5.19,32.68-7.9,49.01-1.4,8.43-3.06,16.81-4.72,25.83-4.3-.27-7.73-.49-11.27-.71,0-5.45-.04-9.73,0-14,.18-15.57,4.1-30.79,3.17-46.6-.88-14.9-7.45-24.86-19.72-32.33-9.08-5.53-18.8-10.7-26.26-18.03-8.68-8.52-18.03-14.8-29.68-17.27-10.36-2.2-20.89-4.16-31.43-4.86-14.61-.97-29.35.06-43.94-1.08-14.26-1.12-27.78,1.17-41.11,5.5-19.23,6.25-32.06,19.4-36.44,38.92-3.84,17.11-6.02,34.69-7.64,52.19-1.77,19.2-1.9,38.54-3.02,57.8-1.59,27.55-3.87,55.06-5.04,82.63-1.21,28.6-1.63,57.23-2.08,85.86-.8,50.29-1.39,100.58-2.04,150.87-.67,51.62-1.35,103.24-1.98,154.87-.27,21.99-.42,43.98-.7,65.97-.18,14.25,3.59,27.65,8.71,40.74,2.4,6.14,6.64,11.35,12.69,13.43,11.97,4.12,21.34,12.18,31.42,19.12,9.99,6.88,20.52,8.88,32.17,6.12,14.72-3.48,28.31-9.6,40.63-18.28,15.99-11.28,31.82-22.79,47.49-34.51,10.6-7.93,21.7-15.49,30.95-24.83,11.2-11.3,21.43-23.76,30.76-36.67,15.12-20.91,25.28-43.82,22.62-70.65-.36-3.6-.05-7.26-.05-13.43Zm1421.54,1007.76c-.55-5.43-1.2-9.6-1.37-13.79-.8-18.95-.22-38.05-2.48-56.81-3.03-25.13-3.98-50.28-4-75.46-.02-20.57,1.21-41.16,2.63-61.69,1.51-21.87,3.23-43.76,6.05-65.49,5.52-42.53,11.83-84.96,17.9-127.42,2.87-20.07,5.91-40.11,8.94-60.16,4.38-28.92,12.35-57.31,13.44-86.69.55-14.88.36-29.84-.55-44.7-.55-8.92-3.93-17.13-10.04-24.39-8.71-10.37-16.39-21.61-24.62-32.39-5.71-7.47-11.85-14.11-22.36-14.72-9.8-.57-19.37.02-28.47,3.65-27.23,10.86-53.35,24.09-78.47,39.11-24.24,14.49-47.95,29.89-71.74,45.12-13.73,8.79-27.17,18.04-40.72,27.11-4.54,3.04-6.68,6.78-5.44,12.69,4.25,20.2,1.38,40.59-1.09,60.54-2.82,22.76-5.6,45.5-6.73,68.38-1.08,21.77-3.7,43.46-2.45,65.4.74,12.87-1.01,25.89-1.66,38.84-1.33,26.25-3.7,52.5-3.8,78.76-.21,56.28.7,112.56,1.34,168.84.07,5.83.63,11.93,4.52,15.47-.54,5.93-1.36,11.06-1.34,16.18.01,2.89,1.69,5.74,2.13,8.68,3.9,26.11,10.47,51.52,22.5,75.06,9.06,17.74,19.2,34.97,29.56,51.99,16.95,27.84,33.73,55.84,51.95,82.85,28.17,41.77,62.67,77.78,105.19,105.13,22.87,14.7,46.4,28.42,72.57,37.36,14.51,4.96,29.19,7.55,43.89,7.09,25.26-.79,42.93-14.96,53.06-37.66,6.97-15.63,9.33-32.6,9.78-49.67.7-26.89,1.99-53.82,1.24-80.69-.92-33.22-7.37-65.94-11.73-98.83-1.98-14.91-7.95-26.93-21.93-34.54-9.88-5.38-19-12.15-24.78-22.38-.79-1.39-2.2-2.46-3.43-3.56-13.34-11.92-29.66-15.97-46.84-17.11-9.53-.63-19.14-.11-30.62-.11Zm-15.97-938.93c6.48-1.62,12.5-3.74,18.7-4.57,13.4-1.77,22.58-9.63,29.31-20.3,13.65-21.66,27.07-43.48,39.79-65.7,11.26-19.68,22.42-39.34,37.67-56.28,3.07-3.41,6.4-7.85,10.39-8.93,11.39-3.09,11.63-10.96,10.57-20.02-.31-2.64-.55-5.29-1.07-7.89-2.23-11.08-4.38-22.17-6.89-33.19-7.37-32.4-14.49-64.69-29.38-94.99-11.52-23.45-23.46-46.11-41.79-65.08-9.28-9.6-8.95-12.36-1.43-23.42,2.43-3.58,5.15-6.96,7.76-10.41,4.22-5.57,8.7-10.95,12.64-16.71,19.74-28.85,39.05-57.95,54.87-89.23,7.99-15.81,15.41-31.7,14.72-49.99-.45-12.04-4.83-21.98-15.73-28.27-4.61-2.66-9.37-5.15-13.66-8.27-8.3-6.06-17.59-11.41-24.16-19.04-11.81-13.71-26.47-20.6-43.64-23.89-18.45-3.54-36.92-4.37-55.54-1.71-4.9.7-9.98.68-14.7,1.99-17.95,4.97-30.53,17.03-40.75,31.97-9.51,13.9-15.18,29.5-20.12,45.44-.71,2.29-2,4.41-3.9,8.48-5.02-8.54-9.06-15.32-13.02-22.15-1.66-2.86-2.91-6-4.82-8.68-11.03-15.49-26.36-25.08-44.07-31.04-12.3-4.14-25.04-5.54-37.99-7.01-23.02-2.62-42.12,3.69-58.17,19.59-14.22,14.09-19.95,31.99-20.31,51.65-.21,10.92.33,21.85.5,32.78.49,32.2.62,64.42,1.59,96.6.52,17.26,2.36,34.49,3.8,51.72,1.19,14.25,2.72,28.47,3.99,42.71,1.24,13.91,2.26,27.83,3.55,41.74,1.38,14.9,3.34,29.75,4.37,44.67,1.18,17.23,1.67,34.51,2.37,51.77.93,22.95,2.11,45.89,2.56,68.85.46,23.32.74,46.66.02,69.96-.68,21.9-1.68,43.91-4.51,65.61-3.53,27.06-2.39,53.39,9.37,78.06,8.41,17.65,18.74,34.47,29.16,51.07,8.11,12.92,16.42,25.98,28.37,35.94,14.77,12.31,31.27,16.05,49.25,8.09,7.86-3.48,15.48-7.8,22.58-12.66,17.4-11.89,33.37-25.49,45.8-42.73,15.32-21.25,25.22-45.28,34.02-69.68,6.64-18.41,11.83-37.34,17.92-56.84Zm-488.94-469.76c3.78,3.35,6.32,5.95,9.2,8.07,3.98,2.94,7.88,6.54,12.42,8.08,16.65,5.63,30.87,15.56,45.27,25.04,11.5,7.57,24.07,11.63,37.32,12.79,18.17,1.6,36.45,2.03,54.7,2.35,7.24.13,14.6-.92,21.74-2.28,9.26-1.75,16.17-7.12,21.04-15.37,5.75-9.74,6.91-20.28,8.27-31.33,4.29-34.84-.11-68.2-12.55-100.88-7.37-19.35-17.82-36.46-33.34-50.17-20.66-18.26-46.12-27.5-71.47-36.58-16.48-5.9-33.99-6.33-51.32-6.12-33.61.41-67.23.91-100.82,2.12-16.25.59-32.48,2.57-48.64,4.52-12.86,1.55-25.7,3.6-38.39,6.18-16,3.25-31.64,7.68-45.74,16.5-9.65,6.04-17.4,14.19-21.44,24.31-3.87,9.7-6.33,20.65-6.31,31.04.04,16.89,1.42,33.98,4.34,50.61,8,45.53,17.14,90.86,25.73,136.28,4.82,25.51,9.3,51.1,14.2,76.6,5.21,27.12,10.17,54.31,16.27,81.23,7.9,34.83,24.97,63.63,57.32,81.56,5.81,3.22,11.47,6.86,16.71,10.94,23.09,18,49.36,30.11,75.86,41.95,21.27,9.51,42.25,19.68,63.31,29.65,28.6,13.53,56.84,27.88,85.83,40.5,19.89,8.66,40.9,13.52,63.18,10.71,15.31-1.93,24.56-8.81,29.83-23.46,5.25-14.59,4.88-29.71,3.55-44.49-2.92-32.47-6.96-64.85-11.16-97.19-2.52-19.43-6.22-38.71-9.35-58.06-2.01-12.46-3.33-25.07-6.05-37.37-3.62-16.32-9.73-31.69-19.92-45.33-8.76-11.73-16.95-23.9-25.13-36.05-18.89-28.06-52.07-39.73-82.88-31.37-25.65,6.96-52.67,36.76-47.9,70.43,2.65,18.71,3,37.77,3.78,56.7.49,11.87-5.49,18.93-18.22,23.05-.43-2.63-1.03-5.15-1.22-7.71-1.39-19.24-2.87-38.48-3.98-57.75-.68-11.93-.76-23.9-1.11-35.85-.05-1.65-.02-3.32-.21-4.95-1.77-14.49-3.71-28.96-5.34-43.47-1.49-13.21-2.82-26.44-3.96-39.68-1.26-14.75-2.22-29.53-3.42-45.74Zm-682.7,1406.89c-1.17-3.9-2.09-6.08-2.46-8.34-5.34-33.11-19.23-63.1-35.48-91.81-19.83-35.04-41.35-69.13-62.29-103.53-10.77-17.7-24.97-31.83-43.57-41.45-4.32-2.23-8.3-5.61-11.59-9.23-15.46-17.03-34.98-27.92-56.2-35.09-17.52-5.92-35.86-9.79-54.09-13.13-9.99-1.83-20.53-.76-30.82-.78-3.51,0-7.04,1.02-10.53.89-25.31-.92-50.32,2-75.18,6.05-16.98,2.77-33.75,6.84-50.7,9.76-17,2.92-31.3,10.84-43.35,22.7-4.62,4.56-8.04,10.46-11.47,16.08-8.32,13.61-6.05,29.12-6.35,43.82-.35,17.22,2.26,34.48,2.65,51.74.32,14.26-.71,28.55-1.18,42.82-1.31,39.89-2.49,79.78-4.02,119.66-1.07,27.91-2.73,55.8-3.92,83.71-.92,21.59-2.09,43.19-2.1,64.78-.02,32.94.78,65.88,1.4,98.82.35,18.72,9.16,32.04,25.98,40.42,13.05,6.51,26.33,12.81,38.55,20.68,15.35,9.9,31.32,17.43,49.48,19.94,17.45,2.41,34.85,5.47,52.38,6.95,37.43,3.17,74.89,6.69,112.4,7.88,46.89,1.48,93.83,2.3,140.77-.8,27.29-1.81,54.31-5.04,81.08-10.36,35.86-7.12,70.08-18.43,100.12-40.23,14.98-10.87,28.08-23.42,37.87-39.24,15.42-24.94,19.86-52.76,19.81-81.29-.03-20.65-4.31-41.15-10.58-60.66-11.01-34.27-27.56-65.87-55.27-89.97-15.24-13.25-31-26.53-52.15-29.37-8.86-1.19-17.91-1.06-26.87-1.41-3.92-.16-7.85-.03-12.3-.03Zm417.51-1075.73c.05-.38.09-.76.14-1.14,4,0,8,.15,12-.03,20.25-.89,39.55-5.36,56.98-16.12,14.1-8.7,21.09-21.65,18.5-38-3.9-24.59-9.21-48.96-13.73-73.46-4.34-23.53-8.29-47.12-12.67-70.64-3.16-16.99-6.1-34.07-10.32-50.82-4.61-18.3-10.64-36.25-15.96-54.38-8.99-30.59-17.61-61.29-26.95-91.77-8.22-26.84-23.73-50.45-34.87-76.03-3.62-8.3-10.98-13.99-20.04-17.02-8.18-2.73-15.78-6.33-22.66-12.07-10.19-8.49-22.92-10.44-35.8-9.25-16.52,1.52-32.95,3.96-49.44,5.75-11.56,1.25-23.19,1.81-34.74,3.12-18.17,2.07-36.32,4.34-54.43,6.89-9.84,1.38-19.83,2.65-29.31,5.47-20.48,6.11-35.48,19.11-44.56,38.68-5.17,11.15-10.58,22.18-15.65,33.38-12.51,27.62-21.62,56.5-28.94,85.8-4.49,17.96-6.16,36.67-8.47,55.12-2.94,23.41-5.24,46.89-7.83,70.34-1.75,15.86-3.39,31.73-5.37,47.56-1.44,11.54-4.17,22.98-4.91,34.55-1.98,30.9-8.85,61.25-9.41,92.33-.17,9.26.9,17.73,4.03,26.25,2.26,6.15,6.7,9.51,12.57,11.92,5.16,2.11,10.1,4.88,14.9,7.76,5.13,3.08,10.01,6.6,14.96,9.98,9.23,6.3,19.74,8.16,30.49,7.46,22.75-1.49,44.64-7.35,65.79-15.54,29.39-11.38,45.86-33.08,49.36-64.52,1.62-14.54,2.52-29.22,5.23-43.56,5.81-30.73,12.64-61.26,18.9-91.91,1.04-5.1,3.51-7.66,8.82-7.25,1.99.15,4,.11,6,.03,5.31-.21,7.53,2.22,8.32,7.59,1.21,8.2,3.34,16.28,5.26,24.36,6.39,26.85,12.9,53.67,19.27,80.53,2.92,12.3,10.11,21.71,20.06,28.92,12.93,9.37,26.71,17.62,39.31,27.39,11.38,8.82,23.86,14.76,37.71,17.42,12.35,2.37,24.98,3.33,37.48,4.92Zm-70.98,1013.51c-1.99-1.13-3.22-1.62-4.2-2.41-14.08-11.43-30.59-13.16-47.35-9.94-16.28,3.13-32.17,8.33-48.24,12.59-3.53.93-7.1,1.7-10.65,2.55-23.54,5.62-45.36,14.86-65.07,29.24-10.38,7.58-12.85,16.84-10.41,28.76,3.46,16.94,6.54,33.97,9.47,51.02,1.17,6.85,1.56,13.85,2.18,20.79,1,11.26,1.75,22.54,2.85,33.79,1.31,13.5,3.03,26.95,4.28,40.45,1.01,10.92,1.58,21.88,2.36,32.82,1.67,23.19,3.54,46.38,4.96,69.59.94,15.34,2.97,30.28,10,44.25,4.25,8.43,10.29,14.71,19.3,17.51,7.27,2.26,14.72,4.04,22.19,5.53,13.67,2.73,27.55,4.38,39.78,12.09,9.55,6.02,19.44,11.5,29.27,17.05,20.84,11.77,43.25,14,66.53,10.66,5.58-.8,11.16-1.55,16.72-2.43,11.47-1.81,23.19-2.73,34.35-5.73,19.56-5.27,39.06-11.04,58.03-18.08,18.02-6.69,36.08-13.97,52.79-23.35,25.16-14.12,43.93-35.18,57.77-60.61,14.82-27.23,20.77-57.37,28.42-86.88,3.48-13.42,5.52-27.37,6.66-41.21,2.16-26.27.41-52.56-2.17-78.76-1.17-11.9-2.14-23.87-4.25-35.62-6.13-34.02-12.92-67.86-24.32-100.69-4.18-12.04-11.33-18.17-22.93-20.62-10.1-2.13-20.16-4.47-30.33-6.17-9.47-1.59-19.1-3.71-28.57-3.35-13.9.53-27.88,2.27-41.55,4.93-22.53,4.39-44.94,9.49-67.19,15.1-26.54,6.69-48.63,19.77-60.67,47.14Zm519.82,202.42c-.36-1.94-.68-3.21-.81-4.5-1.68-17.53-2.73-35.13-8.8-51.98-1.76-4.89-2.39-10.41-2.45-15.65-.37-32.94-2.81-65.83.19-98.83,2.96-32.56,7.66-64.74,14.35-96.73,3.39-16.2,7.6-32.52,4.36-49.38-.69-3.59-1.49-7.15-2.23-10.73-2.14-10.4-4.7-20.73-6.31-31.21-1.98-12.91-9.15-22.44-19.81-22.99-9.6-.49-19.6-.94-28.85,1.15-24.01,5.43-47.75,12.08-71.5,18.62-15.08,4.15-29.88,9.33-44.99,13.4-10.87,2.92-15.71,6.86-17.02,17.53-1.85,15.11-3.41,30.26-4.65,45.43-2.22,27.19-4.17,54.4-6.12,81.61-.57,7.9-.44,15.85-1.23,23.72-1.3,12.92-3.34,25.76-4.63,38.67-1.65,16.54-2.39,33.18-4.35,49.68-3.77,31.66-12.48,62.53-14.05,94.65-.85,17.44-5.61,34.7-8.7,52.03-3.56,19.92-7.24,39.82-10.84,59.74-2.42,13.39-4.03,26.86-2.16,40.47,1.88,13.74,5.05,27.21,16.72,36.16,13.39,10.27,27.23,19.99,41.22,29.44,5.15,3.48,11.12,5.96,17,8.1,15.81,5.77,32.3,4.64,48.45,2.74,26.73-3.14,53.3-7.53,79.95-11.34,5.26-.75,10.54-1.45,15.84-1.82,14.92-1.05,29.89-1.58,44.78-2.94,22.84-2.09,45.64-4.61,68.44-7.13,22.95-2.54,43.78-10.16,61.57-25.47,16.39-14.11,21.07-32.11,16.03-52.04-5.91-23.36-11.57-46.83-21.75-69.02-6.04-13.18-14.09-23.95-25.57-32.38-12.86-9.45-25.86-18.72-38.76-28.12-15.45-11.27-32.56-14.85-51.06-10.34-10.58,2.57-20.93,6.11-32.28,9.47Zm-1174.03-570.09c.5-.18.99-.36,1.49-.54.84,2.85,1.69,5.68,2.51,8.54,3.74,13.1,7.69,26.15,11.12,39.33,3.33,12.81,12.16,20.96,22.22,28.46,9.02,6.73,17.73,13.9,26.49,20.98,2.84,2.29,5.18,5.27,8.17,7.32,21.95,15.04,46.87,22.2,72.81,25.58,17.09,2.23,27.53-7.38,27.71-24.78.12-11.92-.75-23.99-2.62-35.76-2.77-17.4-7.25-34.52-10.2-51.9-3.57-20.98-6.68-42.06-9.27-63.18-2.23-18.15-3.15-36.45-5.18-54.62-2.65-23.75-6.84-47.33-7.14-71.34-.1-7.94-1.31-15.9-2.4-23.79-3.62-26.06-8.89-51.77-17.52-76.67-6.64-19.17-12.93-38.51-20.65-57.26-5.51-13.39-14.31-24.44-28.79-30.24-6.93-2.77-12.93-7.94-19.19-12.26-8.09-5.6-16.68-10.03-26.71-9.82-14.29.3-28.69.72-40.48,10.7-.45.38-1.15,1-1.52.88-7.46-2.61-13.17,2.7-19.59,4.46-21.15,5.79-42.14,11.67-64.29,12.98-15.21.9-30.37,3.54-45.43,6.13-14.48,2.49-26.18,14.84-26.9,30.5-.86,18.55-1.69,37.11-2.09,55.67-.47,22.19-.29,44.39-.71,66.59-.51,26.59-2.4,53.2-1.82,79.76.85,38.83,1.15,77.64.77,116.48-.16,16.28-.22,32.58.41,48.84.53,13.43,5.81,24.36,19.19,30,8.86,3.74,17.84,7.39,26.16,12.13,16.68,9.5,34.67,11.11,53.15,10.06,11.6-.66,23.23-1.7,34.72-3.43,8.48-1.28,17.11-3.04,25.04-6.19,12.03-4.78,20.91-13.2,21.91-27.14.62-8.59.87-17.27.49-25.87-.54-11.94-1.88-23.84-2.75-35.77-.11-1.58.58-3.21.91-4.82Z"/>
    <path class="cls-2" d="m1693.21,1630.54c-4.63-.89-8.43-1.63-12.23-2.35-11.45-2.16-23.06-3.68-34.31-6.61-22.07-5.75-38.2-18.56-44.9-41.25-2.54-8.61-5.53-17.2-6.85-26.02-3.34-22.17,8.41-35.81,30.69-35.43,34.72.59,62.23-14.47,86.05-38.1,2.09-2.07,3.71-4.62,5.76-7.21-.92-1.7-1.59-3.16-2.45-4.5-9.89-15.41-20.29-30.52-29.63-46.25-20.63-34.73-43.45-67.89-68.55-99.54-9.93-12.52-19.37-25.49-28.3-38.74-11.06-16.41-19.36-34.24-23.86-53.63-7.32-31.5-1.27-61.15,14.55-88.6,8.94-15.52,20.35-29.62,30.44-44.49,2.37-3.49,4.61-7.35,5.75-11.36,11.1-38.92,32.94-69.56,68.48-89.76,14.48-8.23,29.81-13.34,46.73-11.78,18.28,1.69,26.82,10.6,27.68,29.06.38,8.26.06,16.56.06,26.27,2.14-1.47,3.35-1.92,3.99-2.79,26.97-36.51,64.55-56.84,106.76-70.13,28.41-8.94,57.59-14.49,87.11-17.32,32.14-3.08,64.43-5.23,96.69-6.02,14.77-.36,29.75,2.99,44.44,5.67,10.52,1.92,20.38,6.34,28.81,13.23,3.58,2.92,6.99,3.36,10.98,1.09,35.32-20.06,72.96-20.81,111.58-13.33,67.1,13,131.44,34.68,193.31,63.38,50.84,23.59,100.33,49.93,145.6,83.28,22.24,16.39,43.9,33.68,64.72,51.84,10.93,9.53,19.97,21.42,28.99,32.92,10.36,13.22,17.37,28.26,21.94,44.56,6.32,22.52,11.87,45.16,12.97,68.6,2.79,59.38-22.92,101.82-76.25,127.85-24.96,12.19-51.25,20.74-77.6,29.16-19.04,6.08-38.05,12.28-57.05,18.49-3.1,1.01-6.08,2.38-10.54,4.15,3.27,2.23,5.2,3.92,7.43,5,5.1,2.47,10.2,5.03,15.54,6.86,29.63,10.11,59.21,20.26,90.41,25,12.75,1.94,25.27,5.95,37.6,9.93,5.89,1.9,11.4,5.49,16.52,9.11,6.6,4.67,9.67,11.52,10.24,19.7,1.36,19.58-2.89,37.88-12.81,54.65-33.92,57.39-83.79,91.79-149.57,103.07-41.22,7.07-81.64,4.43-121.24-9.36-7.24-2.52-9.39-2.13-13.67,4.09-5.85,8.49-11.26,17.33-16.29,26.33-6.99,12.51-13.79,25.15-20.07,38.02-11.26,23.08-28.3,41-48.95,55.68-15.02,10.68-32,16.84-50.38,17.33-22.28.6-44.6-.19-66.9-.14-9.65.02-19.32.4-28.94,1.07-21.49,1.5-40.48,9.98-58.71,20.95-23.13,13.92-46.5,27.45-69.91,40.89-41.5,23.83-86.51,35.74-133.99,39.76-26.36,2.23-51.9-.65-76.81-9.07-30.69-10.37-54.88-29.66-74.03-55.51-4.76-6.43-9-13.25-13.86-19.59-7.48-9.75-15.13-19.38-22.99-28.83-23.78-28.6-35.52-61.21-34.37-98.6,1.08-35.02,11.19-66.82,31.6-95.32.91-1.27,1.38-2.86,2.56-5.36Zm-103.98-418.45c4.03-4.11,6.73-6.91,9.48-9.66,1.88-1.88,3.55-4.34,5.84-5.33,2.13-.93,6.26-1.26,7.18-.06,1.47,1.92,1.57,5.4,1.17,8.06-.24,1.61-2.5,2.94-3.9,4.35-3.05,3.07-6,6.25-9.21,9.14-6.29,5.65-5.6,11.37-2.25,18.68,18.42,40.2,41.51,77.47,68.22,112.65,20.76,27.34,40.9,55.14,61.32,82.73.99,1.34,1.97,2.69,3.03,3.98,6.96,8.48,9.39,8.65,18.36,2.84,15.65-10.13,31.3-20.3,47.29-29.87,22.97-13.76,48.25-20.47,74.71-23.57,29.01-3.39,58.02-1.85,86.83.97,53.04,5.19,105.87,2.33,158.75-1.61,35.01-2.61,69.85-2.44,104.59,3.78,31.62,5.66,62.15,15.04,92.24,25.9,26.99,9.74,54.37,17.89,82.37,24.21,15.13,3.42,29.7,3.12,44.23-2,6.28-2.21,12.58-4.41,18.78-6.85,22.94-9.02,45.84-18.15,68.77-27.19,30.8-12.15,60.18-26.84,87.07-46.44,13.99-10.2,24.53-22.71,29.3-39.27,2.65-9.19,4.22-18.89,4.8-28.44,1.19-19.59-4.25-38.19-9.77-56.8-6.99-23.56-19.06-43.87-36.22-61.31-14.6-14.83-31.17-27.16-48.91-37.85-21.97-13.25-44.24-26-66.45-38.86-81.71-47.33-167.81-84.11-258.85-109.57-32.99-9.22-63.76-6.29-93.81,9.52-23.62,12.44-43.94,29.14-61.48,48.96-23.86,26.95-46.81,54.7-70.24,82.03-22.31,26.03-48.31,47.79-77.52,65.66-23.2,14.19-47.71,25.37-74.79,29.66-36.22,5.74-68.11-2.39-93.77-30.1-6.6-7.13-11.12-15.12-11.91-24.71-1.23-14.92-2.2-29.89-2.66-44.85-.69-22.32-.27-44.68-1.46-66.96-.54-10.16-2.71-20.55-6.09-30.16-4.63-13.19-14.48-17.13-27.15-11.06-8.28,3.97-16.18,9.41-23.01,15.57-16.23,14.66-25.48,33.82-32.94,54.08-4.61,12.52-6.47,25.27-4.75,38.29,1.56,11.84,3.74,23.71,6.89,35.22,6.39,23.3,17.73,44.51,29.51,65.45,7.84,13.94,15.96,27.73,23.76,41.69,4.14,7.42,7.42,15.19,7.17,25.21-13.54-18.46-26.33-35.83-39.04-53.27-13.02-17.86-19.99-38.78-28.56-59.87-3.56,3.37-5.83,5.77-8.35,7.86-5.5,4.56-9.09,5.31-11.31,2.63-2.53-3.05-1.72-6.3,3.01-11.25,1.84-1.92,3.74-3.85,5.88-5.41,3.55-2.58,3.94-5.6,2.67-9.61-3.31-10.48-6.23-21.08-9.46-31.58-.62-2-1.95-3.78-3.05-5.86-1.5.97-2.43,1.39-3.12,2.06-1.44,1.38-2.81,2.84-4.11,4.36-12.26,14.29-21.43,30.33-28.88,47.66-5.01,11.63-4.19,22.54-.21,36.19Zm241.81,346.93c-1.58-4.67-2.65-7.63-3.6-10.63-6.76-21.36-27.49-27.75-45.22-14.07-4.08,3.15-6.1,6.69-5.46,11.95.69,5.62.97,11.29,1.26,16.94.7,13.64-4.17,24.62-15.25,32.94-9.86,7.4-19.42,15.2-29.06,22.88-2.24,1.79-4.27,3.84-6.23,5.61.46.99.52,1.41.75,1.57,1.38.9,2.78,1.79,4.21,2.6,13.77,7.76,19.05,19.79,17.74,35.16-.32,3.8-1.21,7.18-5.21,8.34-1.03-.45-1.94-.54-2.18-1-2.02-3.81-3.85-7.71-5.86-11.52-4.98-9.45-11.83-13.56-21.86-12.31-9.43,1.18-16.75,4.98-19.97,15.26-11.14,35.58-5.74,68.76,15.2,98.94,11.08,15.98,20.76,32.5,29.12,49.96,5.77,12.06,12.77,23.5,22.68,32.66,14.6,13.5,32.48,18.85,51.98,20.33,29.09,2.21,56.92-4.33,84.82-11.04,26.56-6.38,51.17-16.77,73.21-33.14,10.7-7.94,21.89-15.2,32.74-22.95,34.96-24.95,74.05-33.6,116.36-29.79,6.19.56,12.4.94,19.41,1.46.59-7.08,1.13-13,1.55-18.92.34-4.81-1.93-7.54-6.77-8.09-2.98-.34-5.99-.57-8.92-1.16-3.03-.61-6.52-1.85-5.69-5.55.54-2.42,2.88-5.12,5.15-6.31,3.35-1.76,7.35-2.29,12.01-3.61-2.09-5.88-3.81-10.72-5.59-15.73-2.32.37-3.65.39-4.83.8-3.6,1.26-6.97,2.38-9.67-1.79-2.42-3.74-.13-6.19,1.8-8.93,1.49-2.11,2.78-4.35,3.97-6.24-2.79-5.12-5.22-9.58-7.83-14.38,9.51-4.13,11.43,5.77,17.98,6.87,3.29-1.9,6.97-4.15,10.77-6.17,5.43-2.88,7.84-2.41,11.24,1.89,3.52,4.44,3.35,8.22-.92,12.27-3.09,2.94-6.48,5.56-10.11,8.64,2.02,4.32,4.07,8.11,5.61,12.1,2.66,6.9,6.51,10.87,14.87,9.96,6.39-.7,8.41,1.59,9.18,6.6.87,5.72-.79,8.24-6.81,9.66-3.67.87-7.51,1.25-7.02,6.48.69,7.54,1.39,15.07,2.07,22.49,46.54,5.17,96.39-18.02,117.23-66.93-3-1.19-5.92-2.57-8.98-3.55-34.25-10.96-65.85-27.14-94.87-48.33-14.8-10.81-29.59-21.64-44.02-32.93-5.71-4.47-10.2-5.45-16.8-1.33-12.5,7.82-26.32,13.35-40.94,15.25-12.14,1.58-24.6.55-36.86,1.42-16.31,1.16-30.01-4.81-42.58-14.25-16.12-12.11-27.75-27.76-35.12-46.45-4.21-10.68-6.12-21.76-3.76-33.3.86-4.18,1.24-8.45,1.86-12.86-3.06-1.78-5.53-3.45-8.19-4.72-35.33-16.85-68.26-37.58-99.33-61.31-3.84-2.93-7.39-3.79-11.98-2.13-14.09,5.1-28.33,9.78-42.39,14.95-10.65,3.91-15.28,12.77-13.56,24.77,20.91-5.55,33.6-1.36,45.14,14.92,10.02,14.14,12.25,33.41,3.54,45.73Zm74.07-108.9c-.16.72-.32,1.44-.48,2.16,1.21,1.08,2.3,2.36,3.66,3.2,23.19,14.41,46.5,28.61,69.56,43.21,7.46,4.73,14.05,5.04,22.22,1.22,32-14.96,66.03-20.43,101.13-19.2,10.27.36,20.69,1.39,30.68,3.69,26.34,6.07,41.21,26.21,40.42,53.08-.44,14.98-4.4,28.88-12.14,41.73-1.47,2.44-2.65,5.06-4.18,8,43.77,30.86,89.51,56,139.52,73.91,4.74-9.74,6.26-17.82.5-26.55-5.57-8.45-8.2-18.19-9.04-28.28-.29-3.53-1.05-7.97,3.24-9.62,4.58-1.76,6.3,2.52,8.29,5.45,1.49,2.19,2.36,4.87,4.05,6.87,4.26,5.04,8.24,10.59,13.39,14.56,12.52,9.66,26.81,16.14,42.14,20.02,45.43,11.5,89.19,6.6,131.16-14.11,17.32-8.55,34.35-17.68,51.76-26.05,29.43-14.15,55.04-33.66,79.16-55.35,1.81-1.62,3.15-3.76,6-7.22-7.23-1.3-12.59-2.6-18.04-3.19-26.48-2.87-52.99-5.44-79.47-8.34-21.01-2.3-41.14-7.11-59.65-18.25-17.95-10.8-36.33-21.05-55.18-30.16-30.35-14.66-61.97-19.48-94.91-8.67-3.92,1.29-8.65,1.74-12.66.91-45.7-9.5-91.78-16.62-138.26-20.32-24.5-1.95-49.28-1.95-73.86-.95-19.23.78-38.31,4.69-57.5,6.79-24.27,2.66-48.5,2.62-72.69-1.53-15.73-2.7-31.56-4.8-47.38-6.94-3.76-.51-7.64-.08-11.46-.08Zm176.99-459.72c-7.64-5.01-15.68-5.68-23.43-6.82-44.61-6.57-89.01-4.3-133.11,4.33-28.23,5.52-55.49,14-80.43,28.88-21.16,12.62-37.4,29.62-48.34,51.83-11.69,23.74-20.14,48.49-25.48,74.41-1.39,6.72.17,10.89,5.79,14.17,19.19,11.22,39.45,19.32,61.85,20.94,4.25.31,8.68-.04,12.86-.88,19.27-3.85,36.47-12.08,51.98-24.25,24.46-19.2,46.87-40.6,67.23-63.96,24.16-27.73,51.15-52.46,78.6-76.71,8.14-7.19,18.05-12.39,27.16-18.49,1.55-1.04,3.14-2.03,5.34-3.46Zm-329.33,583.49c0-14.88-.74-28.82.21-42.65.93-13.63,3.57-27.14,5.48-40.92-1.42.23-2.17.15-2.65.47-2.75,1.86-5.47,3.79-8.15,5.75-18.59,13.6-37.92,25.94-59.65,33.98-16.01,5.93-32.29,10.41-49.72,7.41-4.85-.83-9.84-.9-14.66-1.3-4.47,7.88-4.46,9.82,1.62,15.53,15.96,15,35.01,21.34,56.75,19.16,9.92-1,19.74-3.04,29.67-3.86,6.87-.56,13.95-.55,20.73.52,6.75,1.06,13.23,3.77,20.35,5.91Z"/>
    <path class="cls-2" d="m1503.84,995.42c0,6.17-.31,9.83.05,13.43,2.66,26.83-7.5,49.73-22.62,70.65-9.33,12.91-19.56,25.37-30.76,36.67-9.25,9.33-20.35,16.9-30.95,24.83-15.67,11.72-31.49,23.24-47.49,34.51-12.31,8.68-25.91,14.8-40.63,18.28-11.64,2.75-22.18.76-32.17-6.12-10.08-6.94-19.45-15-31.42-19.12-6.05-2.08-10.29-7.28-12.69-13.43-5.11-13.09-8.88-26.49-8.71-40.74.28-21.99.42-43.98.7-65.97.64-51.62,1.31-103.25,1.98-154.87.66-50.29,1.24-100.58,2.04-150.87.46-28.62.87-57.26,2.08-85.86,1.17-27.56,3.45-55.08,5.04-82.63,1.11-19.26,1.25-38.6,3.02-57.8,1.61-17.49,3.8-35.07,7.64-52.19,4.38-19.52,17.21-32.67,36.44-38.92,13.33-4.33,26.85-6.63,41.11-5.5,14.58,1.15,29.33.12,43.94,1.08,10.54.7,21.07,2.66,31.43,4.86,11.65,2.47,21,8.75,29.68,17.27,7.47,7.33,17.18,12.5,26.26,18.03,12.27,7.47,18.84,17.43,19.72,32.33.94,15.8-2.98,31.02-3.17,46.6-.05,4.28,0,8.56,0,14,3.55.22,6.97.44,11.27.71,1.66-9.02,3.32-17.41,4.72-25.83,2.71-16.32,5.27-32.67,7.9-49.01.68-4.23,1.25-8.48,2.15-12.66,4.79-22.32,18.65-36.81,39.24-45.67,13.57-5.84,27.84-8.72,42.33-10.8,14.13-2.03,28.24-4.79,42.45-5.6,17.9-1.02,35.69,1.81,49.8,13.78,10.08,8.55,21.68,14.07,32.65,20.89,9.83,6.11,20.38,11.73,24.86,23.46,1.76,4.6,3.67,9.47,3.87,14.29.61,14.91.47,29.86.52,44.8.02,8.26.05,16.53-.32,24.78-.51,11.29-1.11,22.58-2.18,33.83-2.44,25.81-5.2,51.58-7.81,77.37-3.25,32.07-6.52,64.15-9.7,96.23-2.79,28.21-2.24,56.4-.17,84.67,1.92,26.25-3.84,50.84-19.03,72.95-9.67,14.08-19.58,27.95-33.27,38.32-19.38,14.67-39.11,28.9-59.02,42.85-9.22,6.47-18.99,12.25-28.91,17.61-11.62,6.27-23.96,6.84-36.88,3.7-9.62-2.34-19.58-3.38-29.43-4.63-6.8-.86-13.02-2.37-17.65-8-1.59-1.93-3.89-3.28-7.92-6.56Zm-231.27-53.21s-.05,0-.08,0c0,22.32-.27,44.64.08,66.96.34,21.97,1.09,43.93,2.09,65.88.44,9.61,1.23,19.33,3.17,28.73,3.37,16.29,12.42,21.23,27.75,14.97,10.43-4.26,20.6-9.48,30.18-15.41,17.25-10.67,34.48-21.51,50.79-33.54,19.52-14.4,28.7-33.98,23.17-58.56-6.87-30.52-12.89-61.14-15.41-92.39-1.87-23.19-4.79-46.3-6.26-69.52-1.15-18.21-1.39-36.53-.98-54.77.52-23.27,2.04-46.51,3.23-69.76.39-7.64,1.15-15.25,1.69-22.88.94-13.46,7.6-22.41,20.69-26.25,4.15-1.22,8.29-2.56,12.53-3.31,16.71-2.97,33.43-5.84,50.19-8.53,13.46-2.17,26.91-4.55,40.45-5.93,23.08-2.35,31.19,5.11,31.48,28.47.24,18.95.58,37.92-.18,56.84-1.25,31.3-1.11,62.56.76,93.8,1.76,29.31.1,58.57-.77,87.83-.26,8.8-.32,17.18,3.15,25.36,3.7,8.73,10.04,11.92,19.23,9.35,2.55-.71,4.98-1.87,7.42-2.94,19.99-8.76,37.44-21.7,55.09-34.19,10.28-7.28,20.24-15.26,29.19-24.09,9.13-9.01,15.61-20.13,15.29-33.67-.55-23.36,2.3-46.47,4.37-69.65,3.73-41.61,1.92-83.14-1.64-124.66-2.3-26.85-4.87-53.7-6.39-80.6-1.46-25.92-1.52-51.92-2.58-77.87-.78-18.95-2.23-37.87-3.33-56.81-.5-8.56-5.72-13.23-13.25-15.57-3.43-1.07-7.26-1.68-10.82-1.39-15.24,1.26-30.57,2.13-45.62,4.64-24.46,4.08-32.84,13.81-35.42,38.47-.93,8.93-1.7,17.87-2.77,26.78-1.71,14.17-3.96,28.28-5.34,42.47-1.68,17.39-9.48,26.79-26.45,30.49-1.3.28-2.63.45-3.95.63-23.73,3.21-47.43,6.7-71.21,9.49-10.51,1.23-21.3,2.21-31.76,1.2-13.7-1.32-17.04-6.16-15.88-20.07,1.17-13.91,3.08-27.77,4.81-41.63,1.97-15.84,4.15-31.65,6.13-47.49,2.38-19.07-3.54-27.15-22.83-30.08-10.17-1.55-20.49-2.27-30.77-2.9-7.31-.44-14.67-.31-21.99-.04-19.76.71-30.07,9.43-34.02,28.57-.87,4.23-1.72,8.48-2.18,12.77-3.42,31.41-6.83,62.83-10.06,94.26-3.16,30.77-6.48,61.53-9.06,92.35-2.72,32.48-4.8,65.02-6.87,97.55-1.88,29.55-3.95,59.11-4.88,88.7-.82,25.96-.17,51.96-.17,77.94Zm221.24-12.38l2.78.26c.19-3.17.55-6.34.54-9.51-.06-23.21-.48-46.37-2.18-69.58-1.17-15.94-2.22-31.99-1-48.32,2.01-26.84.57-53.94.53-80.93,0-.89-.64-1.78-1.1-2.98-2.35.47-4.56.92-6.87,1.39-.24,1.62-.61,2.92-.61,4.21-.11,28.53-2.35,57.04-.18,85.59,1.03,13.59.56,27.29,1.52,40.88,1.58,22.5,3.78,44.95,5.71,67.42.33,3.85.58,7.71.87,11.57Z"/>
    <path class="cls-2" d="m2925.38,2003.18c11.48,0,21.08-.52,30.62.11,17.18,1.14,33.51,5.19,46.84,17.11,1.23,1.1,2.65,2.17,3.43,3.56,5.78,10.23,14.9,17,24.78,22.38,13.98,7.61,19.95,19.63,21.93,34.54,4.37,32.9,10.81,65.62,11.73,98.83.75,26.86-.54,53.79-1.24,80.69-.45,17.07-2.81,34.04-9.78,49.67-10.13,22.7-27.8,36.87-53.06,37.66-14.7.46-29.37-2.13-43.89-7.09-26.17-8.94-49.7-22.66-72.57-37.36-42.52-27.34-77.03-63.35-105.19-105.13-18.21-27.01-34.99-55.01-51.95-82.85-10.37-17.02-20.5-34.26-29.56-51.99-12.03-23.55-18.6-48.95-22.5-75.06-.44-2.94-2.12-5.78-2.13-8.68-.02-5.12.8-10.24,1.34-16.18-3.89-3.55-4.45-9.64-4.52-15.47-.64-56.28-1.54-112.56-1.34-168.84.1-26.26,2.47-52.51,3.8-78.76.65-12.95,2.4-25.97,1.66-38.84-1.26-21.94,1.37-43.63,2.45-65.4,1.13-22.88,3.91-45.62,6.73-68.38,2.47-19.95,5.33-40.34,1.09-60.54-1.24-5.91.9-9.66,5.44-12.69,13.55-9.07,26.99-18.32,40.72-27.11,23.79-15.23,47.5-30.63,71.74-45.12,25.12-15.02,51.24-28.25,78.47-39.11,9.1-3.63,18.68-4.22,28.47-3.65,10.51.62,16.65,7.25,22.36,14.72,8.23,10.78,15.91,22.02,24.62,32.39,6.1,7.26,9.49,15.47,10.04,24.39.92,14.86,1.11,29.82.55,44.7-1.09,29.38-9.06,57.77-13.44,86.69-3.03,20.04-6.07,40.09-8.94,60.16-6.07,42.46-12.38,84.89-17.9,127.42-2.82,21.73-4.53,43.62-6.05,65.49-1.42,20.53-2.65,41.13-2.63,61.69.03,25.18.98,50.34,4,75.46,2.26,18.76,1.68,37.86,2.48,56.81.18,4.19.82,8.36,1.37,13.79Zm2.03,51.79c-.01.56-.02,1.12-.03,1.68-12.59-.84-25.3-.88-37.75-2.69-22.15-3.23-38.3-15.1-45.92-36.64-2.74-7.74-4.58-16.02-5.36-24.2-2.44-25.48-4.77-51-6-76.55-.84-17.58,1.02-35.29.28-52.89-1.58-37.18,3.99-73.75,8.83-110.32,4.01-30.33,9.89-60.42,15.32-90.55,9.08-50.47,18.07-100.96,27.9-151.29,4.15-21.25,9.12-42.33,10.49-63.97.65-10.25.92-20.69-.26-30.85-1.59-13.73-10.63-19.48-24.13-16.75-4.56.92-9.22,1.85-13.51,3.56-16.7,6.65-33.3,13.56-49.88,20.49-9.21,3.85-18.47,7.62-27.43,12.01-14.65,7.19-24.27,17.35-24.28,35.51,0,13.51-2.77,27.11-5.15,40.52-3.95,22.24-8.45,44.37-12.96,66.51-2.72,13.36-5.13,26.86-9.02,39.9-5.85,19.63-8.22,39.81-10.26,59.95-3.69,36.42-6.16,72.97-9.18,109.46-2.99,36.19-5.84,72.38-3.29,108.74.68,9.63,1.86,19.25,1.89,28.88.11,35.08,5.27,69.66,10.21,104.24,4.75,33.3,19.66,61.75,42.25,86.64,15.98,17.61,33.77,33.08,52.27,47.8,31.41,25,64.69,46.91,102.54,61.2,20.5,7.74,41.51,12.29,63.49,10.29,24.81-2.26,30.23-12.93,31.03-32.41.4-9.83-1.5-19.94-3.63-29.65-5.19-23.72-11.1-47.29-16.76-70.91-2.09-8.72-3.95-17.53-6.58-26.09-4.08-13.27-19.2-23.39-32.3-21.79-7.5.92-15.21.17-22.83.17Z"/>
    <path class="cls-2" d="m2909.41,1064.25c-6.09,19.51-11.29,38.43-17.92,56.84-8.8,24.4-18.7,48.43-34.02,69.68-12.42,17.24-28.4,30.84-45.8,42.73-7.1,4.85-14.72,9.17-22.58,12.66-17.98,7.96-34.48,4.22-49.25-8.09-11.95-9.96-20.26-23.01-28.37-35.94-10.42-16.59-20.75-33.41-29.16-51.07-11.76-24.68-12.9-51-9.37-78.06,2.83-21.7,3.83-43.7,4.51-65.61.72-23.3.44-46.65-.02-69.96-.45-22.96-1.63-45.9-2.56-68.85-.7-17.26-1.19-34.54-2.37-51.77-1.03-14.92-2.99-29.77-4.37-44.67-1.29-13.9-2.3-27.83-3.55-41.74-1.27-14.24-2.8-28.46-3.99-42.71-1.44-17.23-3.28-34.46-3.8-51.72-.97-32.19-1.1-64.4-1.59-96.6-.17-10.93-.7-21.86-.5-32.78.37-19.66,6.09-37.56,20.31-51.65,16.05-15.89,35.15-22.2,58.17-19.59,12.94,1.47,25.69,2.87,37.99,7.01,17.71,5.96,33.03,15.55,44.07,31.04,1.91,2.68,3.16,5.82,4.82,8.68,3.97,6.83,8,13.62,13.02,22.15,1.89-4.07,3.18-6.19,3.9-8.48,4.94-15.94,10.6-31.54,20.12-45.44,10.22-14.94,22.8-27,40.75-31.97,4.72-1.31,9.8-1.29,14.7-1.99,18.62-2.66,37.09-1.83,55.54,1.71,17.17,3.29,31.82,10.17,43.64,23.89,6.57,7.63,15.86,12.98,24.16,19.04,4.28,3.13,9.05,5.61,13.66,8.27,10.9,6.29,15.28,16.23,15.73,28.27.69,18.29-6.73,34.18-14.72,49.99-15.81,31.28-35.13,60.38-54.87,89.23-3.94,5.76-8.43,11.14-12.64,16.71-2.61,3.45-5.33,6.83-7.76,10.41-7.52,11.06-7.84,13.82,1.43,23.42,18.33,18.98,30.26,41.63,41.79,65.08,14.89,30.29,22.01,62.59,29.38,94.99,2.51,11.02,4.66,22.11,6.89,33.19.52,2.6.76,5.25,1.07,7.89,1.06,9.06.81,16.92-10.57,20.02-3.99,1.08-7.32,5.52-10.39,8.93-15.25,16.94-26.41,36.6-37.67,56.28-12.72,22.21-26.14,44.04-39.79,65.7-6.73,10.67-15.91,18.53-29.31,20.3-6.2.82-12.23,2.94-18.7,4.57Zm-109.59-356.54c-4.76-4.62-3.95-9.97-4.08-14.75-1.16-44.96-2.1-89.92-3.03-134.88-.17-8.33.33-16.68-.13-24.99-.88-16.02-6.96-29.18-22.47-36.05-13.46-5.97-27.64-9.86-42.3-11.05-15.41-1.25-25.32,6.97-28.04,22.3-.58,3.26-.59,6.63-.74,9.95-.26,5.99-.51,11.99-.59,17.98-.45,30.97-1.78,61.97-1.01,92.92.98,39.61,3.84,79.17,5.57,118.77,1.79,40.92,3.03,81.86,4.82,122.78.99,22.58,3.17,45.11,3.83,67.69,1.13,38.92,1.74,77.85,2.07,116.79.18,21.25-.87,42.5-.92,63.75-.02,7.27.65,14.7,2.21,21.78,3.53,16.04,17.13,24.99,33.46,23.06,10.47-1.24,20.05-4.98,29.04-10.17,30.89-17.83,49.35-43.49,51.78-80.12.69-10.45-.57-20.45-1.57-30.6-1.36-13.9-3.52-27.73-5.11-41.61-3-26.13-6.09-52.25-8.63-78.42-1.08-11.2-1.84-22.61-.96-33.79,1-12.68,5.26-24.81,13.11-35.14,4.82-6.34,10.01-6.04,14.43.46,3.37,4.94,6.6,10.03,9.36,15.33,9.83,18.9,19.26,38.01,29.15,56.87,9.29,17.71,18.55,35.39,23.7,54.88.42,1.59,1.2,3.11,2,4.57,4.31,7.92,11.38,9.33,17.9,3.02,4.27-4.14,8.06-8.88,11.51-13.74,18.91-26.6,37.7-53.29,56.41-80.03,3.24-4.63,6.26-9.47,8.81-14.5,4.71-9.28,6.12-18.92,1.74-28.86-19.49-44.29-46.51-83.65-77.97-120.21-9.31-10.82-20.86-19.51-28.74-31.77-4.23-6.59-5.48-12.71-2.76-19.7,2.42-6.2,4.98-12.36,7.89-18.34,20.99-43.13,42.19-86.15,63.07-129.33,6.21-12.85,12.72-25.71,14.64-40.15,1.87-14.11-3.67-22.17-17.83-23.31-15.89-1.28-31.91-1.2-47.87-1.24-13.64-.04-23.71,6.72-29.5,18.79-4.72,9.85-8.57,20.17-12.16,30.51-14.95,43.09-29.66,86.26-44.43,129.4-5.5,16.06-10.74,32.2-16.46,48.18-1.72,4.79-3.07,10.29-9.23,12.96Z"/>
    <path class="cls-2" d="m2420.47,594.49c1.2,16.21,2.16,30.99,3.42,45.74,1.13,13.24,2.46,26.48,3.96,39.68,1.64,14.51,3.58,28.98,5.34,43.47.2,1.64.17,3.3.21,4.95.35,11.95.43,23.92,1.11,35.85,1.11,19.26,2.59,38.5,3.98,57.75.19,2.56.79,5.08,1.22,7.71,12.73-4.12,18.7-11.18,18.22-23.05-.77-18.93-1.13-37.99-3.78-56.7-4.77-33.67,22.26-63.48,47.9-70.43,30.81-8.36,63.99,3.31,82.88,31.37,8.18,12.15,16.37,24.32,25.13,36.05,10.19,13.64,16.31,29,19.92,45.33,2.72,12.3,4.04,24.91,6.05,37.37,3.12,19.35,6.82,38.63,9.35,58.06,4.2,32.34,8.24,64.72,11.16,97.19,1.33,14.78,1.7,29.9-3.55,44.49-5.27,14.64-14.52,21.53-29.83,23.46-22.28,2.81-43.3-2.05-63.18-10.71-28.99-12.62-57.23-26.96-85.83-40.5-21.06-9.97-42.04-20.14-63.31-29.65-26.5-11.84-52.77-23.95-75.86-41.95-5.24-4.08-10.9-7.72-16.71-10.94-32.35-17.93-49.42-46.73-57.32-81.56-6.1-26.92-11.06-54.11-16.27-81.23-4.9-25.5-9.38-51.08-14.2-76.6-8.59-45.43-17.74-90.75-25.73-136.28-2.92-16.63-4.3-33.73-4.34-50.61-.02-10.39,2.44-21.34,6.31-31.04,4.04-10.11,11.79-18.27,21.44-24.31,14.1-8.82,29.74-13.25,45.74-16.5,12.7-2.58,25.53-4.63,38.39-6.18,16.16-1.95,32.39-3.93,48.64-4.52,33.59-1.22,67.21-1.72,100.82-2.12,17.33-.21,34.83.21,51.32,6.12,25.35,9.08,50.81,18.32,71.47,36.58,15.52,13.72,25.97,30.82,33.34,50.17,12.44,32.68,16.84,66.04,12.55,100.88-1.36,11.05-2.52,21.58-8.27,31.33-4.87,8.26-11.78,13.62-21.04,15.37-7.14,1.35-14.5,2.4-21.74,2.28-18.25-.32-36.54-.76-54.7-2.35-13.26-1.16-25.83-5.23-37.32-12.79-14.4-9.48-28.62-19.4-45.27-25.04-4.54-1.54-8.44-5.14-12.42-8.08-2.88-2.13-5.42-4.72-9.2-8.07Zm78.56,202.36l-.85.08c.27,3.66.55,7.31.82,10.97,2.11,29.36-13.56,49.96-42.33,56.43-13.94,3.14-27.87,3.12-41.69.68-23.18-4.08-44.67-20.1-48.67-45.29-3.18-20.05-6.92-40.02-9.52-60.14-2.18-16.82-3.31-33.78-4.45-50.72-.69-10.25.27-20.64-.92-30.81-4.14-35.37-9.24-70.63-13.26-106.01-1.85-16.29-.79-32.63,5.2-48.25,7.79-20.34,26.93-33.02,50.25-32.6,23.57.43,33.06,9.87,41.8,31.9,4.66,11.76,9.09,23.62,13.95,35.3,2.03,4.88,4.7,9.54,7.45,14.08,4.92,8.1,12.36,12.02,21.79,11.55,7.3-.37,14.63-.96,21.86-2.03,11.5-1.71,22.99-3.61,34.36-5.99,7.93-1.66,13.1-7.03,13.88-15.14.88-9.2,1.08-18.5.93-27.74-.3-18.75-2.69-37.28-9.66-54.79-6.85-17.2-15.85-32.95-32.72-42.79-20.04-11.69-41.73-15.2-64.43-13.87-14.62.85-29.19,2.68-43.81,3.48-42.97,2.33-84.25,12.57-124.45,27.14-18.81,6.82-31.81,19.98-35.62,40.89-2.78,15.26-3.58,30.69-1.31,45.75,4.97,32.9,11.12,65.63,17.37,98.32,4.49,23.49,10.16,46.75,14.84,70.2,8.2,41.14,15.47,82.47,24.21,123.49,6.19,29.05,21.02,53.23,46.64,69.48,8.38,5.32,17.28,10.29,26.6,13.56,21.35,7.49,42.99,14.21,64.72,20.55,22.98,6.7,45.71,14.65,69.75,17.01,16.68,1.63,33.18,1.47,49.29-4.48,14.41-5.33,22.88-15.3,26.13-30.15,5.35-24.41,4.14-49.04,2.32-73.62-1.2-16.26-3.4-32.46-5.31-48.67-1.78-15.16-2.41-30.61-5.94-45.36-6.48-27.05-18.92-34.1-43.97-35.37-21.41-1.09-31.53,9.79-30.25,30.33,1.1,17.59,3.31,35.11,5.03,52.66Z"/>
    <path class="cls-2" d="m1737.76,2001.38c4.45,0,8.38-.13,12.3.03,8.97.35,18.01.22,26.87,1.41,21.16,2.84,36.91,16.11,52.15,29.37,27.71,24.1,44.26,55.69,55.27,89.97,6.27,19.51,10.55,40.01,10.58,60.66.04,28.52-4.39,56.35-19.81,81.29-9.78,15.82-22.89,28.37-37.87,39.24-30.04,21.79-64.26,33.11-100.12,40.23-26.77,5.31-53.79,8.55-81.08,10.36-46.94,3.11-93.88,2.29-140.77.8-37.52-1.19-74.98-4.71-112.4-7.88-17.53-1.48-34.93-4.54-52.38-6.95-18.16-2.51-34.12-10.05-49.48-19.94-12.22-7.88-25.5-14.18-38.55-20.68-16.82-8.38-25.63-21.7-25.98-40.42-.62-32.94-1.42-65.88-1.4-98.82.01-21.6,1.18-43.2,2.1-64.78,1.19-27.91,2.85-55.8,3.92-83.71,1.53-39.88,2.71-79.77,4.02-119.66.47-14.27,1.5-28.56,1.18-42.82-.39-17.26-3-34.52-2.65-51.74.3-14.7-1.97-30.21,6.35-43.82,3.43-5.62,6.85-11.52,11.47-16.08,12.05-11.87,26.35-19.78,43.35-22.7,16.96-2.92,33.72-6.99,50.7-9.76,24.87-4.05,49.88-6.97,75.18-6.05,3.49.13,7.02-.9,10.53-.89,10.29.03,20.83-1.04,30.82.78,18.24,3.33,36.57,7.21,54.09,13.13,21.22,7.17,40.74,18.06,56.2,35.09,3.29,3.62,7.28,7,11.59,9.23,18.6,9.62,32.8,23.76,43.57,41.45,20.94,34.41,42.46,68.49,62.29,103.53,16.25,28.71,30.14,58.7,35.48,91.81.37,2.27,1.29,4.45,2.46,8.34Zm-184.63,310.28c3.97,0,7.95.06,11.92,0,35.61-.58,71.2-1.43,106.46-7.23,31-5.09,61.45-11.94,89.39-27.09,19.43-10.53,35.45-24.48,46.01-44.34,22.84-42.99,10.95-83.08-9.72-122.54-.15-.29-.43-.51-.61-.79-10.97-16.1-24.98-29.22-39.7-41.86-25.72-22.09-55.36-33.8-88.95-36.23-7.3-.53-14.68-.84-21.83-2.24-20.2-3.96-24.27-11.22-17.52-27.97.25-.62.4-1.27.62-1.9,5.97-17.39,7.68-35.34,3.72-53.15-3.67-16.51-8-33.14-14.49-48.7-11.65-27.91-24.69-55.26-38-82.43-10.4-21.24-24.75-39.36-45.91-51.34-16.18-9.16-33.68-14.54-51.68-17.93-18.94-3.56-38.14-5.38-57.54-4.38-21.92,1.13-43.82,1.41-65.57,5.42-17.62,3.25-35.59,4.7-53.42,6.76-16.63,1.93-28.03,9.4-29.92,28.88-.32,3.31-.62,6.64-.58,9.95.27,18.31,1.05,36.61.88,54.91-.2,21.29-1.24,42.57-1.86,63.86-1.03,35.26-2.17,70.51-2.99,105.78-.85,36.59-1.5,73.19-2.03,109.79-.62,42.35,4.52,84.31,8.71,126.35,1.47,14.77,12.27,31.33,30.6,34.86,7.84,1.51,15.65,3.29,23.55,4.32,27.38,3.57,54.81,6.72,82.18,10.3,45.9,6.01,91.99,8.99,138.28,8.96Z"/>
    <path class="cls-2" d="m2149.27,926.42c-12.5-1.58-25.13-2.55-37.48-4.92-13.85-2.66-26.33-8.59-37.71-17.42-12.6-9.77-26.38-18.02-39.31-27.39-9.95-7.21-17.14-16.62-20.06-28.92-6.37-26.85-12.88-53.68-19.27-80.53-1.92-8.08-4.05-16.16-5.26-24.36-.79-5.36-3.01-7.8-8.32-7.59-2,.08-4.01.12-6-.03-5.31-.4-7.78,2.16-8.82,7.25-6.26,30.64-13.09,61.18-18.9,91.91-2.71,14.34-3.61,29.02-5.23,43.56-3.5,31.44-19.97,53.14-49.36,64.52-21.16,8.19-43.05,14.05-65.79,15.54-10.75.7-21.25-1.15-30.49-7.46-4.95-3.38-9.83-6.9-14.96-9.98-4.8-2.88-9.73-5.64-14.9-7.76-5.87-2.4-10.31-5.77-12.57-11.92-3.12-8.51-4.19-16.99-4.03-26.25.55-31.08,7.43-61.44,9.41-92.33.74-11.57,3.47-23.01,4.91-34.55,1.98-15.83,3.61-31.7,5.37-47.56,2.59-23.45,4.89-46.94,7.83-70.34,2.32-18.45,3.98-37.16,8.47-55.12,7.32-29.29,16.43-58.17,28.94-85.8,5.07-11.19,10.48-22.23,15.65-33.38,9.08-19.57,24.08-32.57,44.56-38.68,9.47-2.83,19.47-4.09,29.31-5.47,18.11-2.54,36.26-4.81,54.43-6.89,11.55-1.32,23.18-1.87,34.74-3.12,16.5-1.78,32.93-4.22,49.44-5.75,12.88-1.19,25.61.76,35.8,9.25,6.88,5.73,14.48,9.34,22.66,12.07,9.07,3.02,16.43,8.72,20.04,17.02,11.14,25.58,26.65,49.19,34.87,76.03,9.33,30.48,17.96,61.18,26.95,91.77,5.33,18.13,11.35,36.07,15.96,54.38,4.22,16.74,7.15,33.82,10.32,50.82,4.38,23.52,8.33,47.12,12.67,70.64,4.52,24.5,9.83,48.87,13.73,73.46,2.59,16.35-4.4,29.29-18.5,38-17.43,10.76-36.72,15.24-56.98,16.12-3.99.17-8,.03-12,.03-.05.38-.09.76-.14,1.14Zm-47.39-59.91c9.16-.63,17.9-.56,26.4-1.96,19.77-3.24,26.35-11.81,24.28-30.64-.15-1.32-.26-2.65-.45-3.97-2.88-19.74-6.12-39.44-8.54-59.25-2.13-17.5-3.1-35.14-5.01-52.68-2.27-20.8-3.69-41.81-7.86-62.24-5.19-25.41-12.85-50.31-19.38-75.45-6.38-24.53-13.64-48.72-24.43-71.78-6.91-14.76-13.28-29.8-19.37-44.93-5.81-14.41-12.72-19.12-28.33-17.86-13.61,1.11-27.19,2.53-40.81,3.38-32.9,2.05-65.82,3.96-98.74,5.69-16.02.85-26.78,8.33-32.77,23.34-4.8,12.04-9.9,24-15.65,35.61-13.93,28.12-25.17,57.3-34.88,87.08-2.68,8.21-4.69,16.7-6.27,25.2-8.12,43.48-15.52,87.02-17.74,131.35-1.33,26.58-4.99,53.04-7.22,79.58-1.12,13.25-2.29,26.62-1.78,39.87.51,13.27,6.85,17.94,19.91,15.39,12.04-2.35,23.8-6.16,35.66-9.43,20.34-5.63,30.04-19.65,31.41-40.15.09-1.33.12-2.67.28-3.99,2.54-21.49,4.55-43.07,7.81-64.45,3.16-20.72,7.7-41.23,11.41-61.87.97-5.37,4.41-7.95,8.91-9.72,29.06-11.45,59.09-15.26,90.08-11.21,6.6.86,13.24,1.5,19.78,2.65,11.08,1.96,17.7,8.45,19.48,19.8,1.85,11.83,3.62,23.69,6.06,35.4,6.44,30.95,13.36,61.8,19.82,92.74,2.33,11.18,9.24,17.63,19.82,19.98,9.39,2.08,19.01,3.1,28.14,4.52Z"/>
    <path class="cls-2" d="m2084.29,1939.16c12.05-27.37,34.13-40.45,60.67-47.14,22.26-5.61,44.67-10.71,67.19-15.1,13.67-2.66,27.65-4.4,41.55-4.93,9.47-.36,19.11,1.76,28.57,3.35,10.17,1.7,20.23,4.04,30.33,6.17,11.6,2.45,18.75,8.58,22.93,20.62,11.4,32.84,18.18,66.67,24.32,100.69,2.12,11.75,3.08,23.72,4.25,35.62,2.58,26.2,4.33,52.49,2.17,78.76-1.14,13.84-3.18,27.79-6.66,41.21-7.65,29.52-13.6,59.65-28.42,86.88-13.84,25.44-32.61,46.49-57.77,60.61-16.72,9.38-34.77,16.66-52.79,23.35-18.97,7.05-38.48,12.82-58.03,18.08-11.15,3.01-22.87,3.93-34.35,5.73-5.56.88-11.15,1.63-16.72,2.43-23.28,3.34-45.69,1.11-66.53-10.66-9.83-5.56-19.73-11.03-29.27-17.05-12.22-7.71-26.11-9.36-39.78-12.09-7.47-1.49-14.92-3.27-22.19-5.53-9.01-2.8-15.05-9.08-19.3-17.51-7.04-13.97-9.07-28.91-10-44.25-1.42-23.21-3.29-46.39-4.96-69.59-.79-10.94-1.35-21.9-2.36-32.82-1.25-13.5-2.97-26.96-4.28-40.45-1.1-11.25-1.85-22.53-2.85-33.79-.61-6.94-1-13.94-2.18-20.79-2.92-17.05-6.01-34.07-9.47-51.02-2.43-11.92.03-21.19,10.41-28.76,19.71-14.38,41.53-23.62,65.07-29.24,3.55-.85,7.12-1.62,10.65-2.55,16.07-4.25,31.95-9.46,48.24-12.59,16.76-3.22,33.27-1.5,47.35,9.94.98.8,2.21,1.29,4.2,2.41Zm-16.05,359.4c18.25,1.39,35.71-3.53,53.49-6.05,33.29-4.71,64.8-14.48,94.85-29.57,40.64-20.4,63.68-54.4,75.67-96.86,3.88-13.73,6.69-27.88,8.57-42.02,1.84-13.78,3.32-27.91,2.38-41.71-1.72-25.28-6.57-50.25-14.11-74.46-10.49-33.68-21.78-67.11-32.87-100.61-2.88-8.7-7.03-11.56-16.43-11.63-4.64-.04-9.45-.03-13.89,1.12-25.77,6.72-51.47,13.72-77.15,20.8-3.49.96-6.85,2.65-10.04,4.42-13.57,7.56-17.99,16.31-14.85,31.45,1.82,8.75,4.51,17.41,7.7,25.77,6.41,16.77,13.41,33.31,20.22,49.93,9,21.97,14.35,44.94,19.53,68.05,3.95,17.63,4.59,34.88.31,52.36-4.13,16.88-9.14,33.6-18.52,48.29-10.02,15.71-23.96,25.88-43.95,24.25-10.26-.84-17.42-6.66-20.12-16.57-.87-3.2-1.83-6.56-1.73-9.82.63-21.47-3.86-42.32-7.27-63.3-1.76-10.83-2.61-21.9-5.45-32.43-8.68-32.18-15.46-64.73-20.7-97.61-1.41-8.82-.83-17.95-1.43-26.91-.66-10.01-5.85-15.35-15.79-15.69-5.27-.18-10.67.41-15.87,1.4-21.91,4.19-43.79,8.59-65.64,13.12-3.87.8-7.65,2.34-11.24,4.03-8.1,3.8-12.1,10.02-10.82,19.28,1.37,9.89,2.19,19.87,3.72,29.73,3.83,24.67,7.86,49.29,9.23,74.3,1.13,20.58,3.49,41.1,5.24,61.65,1.78,20.88,3.28,41.78,5.33,62.64.94,9.56,2.45,19.11,4.49,28.49,3.56,16.32,13.85,26.8,29.55,32.31,25.14,8.83,51.26,11.06,77.58,11.85Z"/>
    <path class="cls-2" d="m2604.12,2141.58c11.35-3.37,21.69-6.9,32.28-9.47,18.51-4.5,35.61-.92,51.06,10.34,12.9,9.4,25.9,18.67,38.76,28.12,11.47,8.43,19.52,19.2,25.57,32.38,10.17,22.19,15.84,45.66,21.75,69.02,5.04,19.93.36,37.94-16.03,52.04-17.79,15.32-38.62,22.94-61.57,25.47-22.8,2.52-45.6,5.04-68.44,7.13-14.89,1.36-29.85,1.89-44.78,2.94-5.3.37-10.58,1.07-15.84,1.82-26.65,3.81-53.22,8.2-79.95,11.34-16.15,1.9-32.64,3.03-48.45-2.74-5.88-2.15-11.85-4.62-17-8.1-13.99-9.45-27.83-19.17-41.22-29.44-11.67-8.95-14.83-22.42-16.72-36.16-1.87-13.61-.25-27.07,2.16-40.47,3.59-19.92,7.28-39.82,10.84-59.74,3.09-17.32,7.85-34.58,8.7-52.03,1.56-32.12,10.28-62.99,14.05-94.65,1.96-16.5,2.71-33.14,4.35-49.68,1.29-12.92,3.32-25.76,4.63-38.67.79-7.87.66-15.83,1.23-23.72,1.96-27.21,3.9-54.42,6.12-81.61,1.24-15.17,2.8-30.32,4.65-45.43,1.31-10.67,6.15-14.61,17.02-17.53,15.1-4.06,29.91-9.24,44.99-13.4,23.74-6.54,47.49-13.19,71.5-18.62,9.25-2.09,19.25-1.64,28.85-1.15,10.65.55,17.82,10.08,19.81,22.99,1.61,10.48,4.17,20.81,6.31,31.21.74,3.58,1.54,7.14,2.23,10.73,3.24,16.86-.98,33.19-4.36,49.38-6.69,31.99-11.39,64.17-14.35,96.73-3,33-.56,65.89-.19,98.83.06,5.24.69,10.76,2.45,15.65,6.06,16.85,7.12,34.45,8.8,51.98.12,1.29.45,2.55.81,4.5Zm-192.14,134.4c.13.01.26.03.38.04-.13.99-.31,1.98-.37,2.97-1.31,21.06,11.75,31.89,28.73,33.42,23.88,2.15,47.27-.43,70.36-5.05,30.66-6.14,61.01-13.85,91.43-21.13,17.14-4.1,34.38-8.02,51.2-13.24,17.88-5.55,25.66-19.18,21.67-37.32-4.36-19.81-9.57-39.45-14.84-59.05-2.72-10.13-9.49-15.4-19.8-14.83-7.52.41-15.31,1.78-22.31,4.47-9.9,3.81-19.09,9.4-28.73,13.92-12.34,5.78-24.57,11.98-37.35,16.62-11.79,4.28-19.83-.59-21.69-12.91-2.63-17.38-4.11-34.93-5.88-52.43-.84-8.26-.72-16.65-1.92-24.85-3.3-22.55-3.01-45.19-1.43-67.75,2.09-29.91,6.64-59.53,13.31-88.81,6.29-27.58,11.91-55.27,21.61-82.01,6.1-16.83,10.84-34.27,14.65-51.78,2.82-12.94-2.79-19.69-15.87-19.26-19.59.65-39.18,2.53-58.65,4.91-9.82,1.2-16.71,7.41-19.92,17.39-6.42,19.94-13.99,39.54-19.66,59.68-14.02,49.83-20.43,100.85-23.09,152.51-1.49,28.9-4.99,57.69-7.67,86.52-1.35,14.57-3.11,29.11-4.31,43.69-1.78,21.54-3.06,43.11-4.87,64.65-1.4,16.56-3.31,33.08-4.99,49.62Z"/>
    <path class="cls-2" d="m1430.09,1571.49c-.32,1.61-1.02,3.24-.91,4.82.86,11.93,2.21,23.83,2.75,35.77.39,8.6.13,17.27-.49,25.87-1,13.94-9.88,22.36-21.91,27.14-7.93,3.15-16.56,4.92-25.04,6.19-11.49,1.73-23.11,2.76-34.72,3.43-18.48,1.06-36.47-.56-53.15-10.06-8.33-4.74-17.31-8.39-26.16-12.13-13.39-5.65-18.66-16.57-19.19-30-.64-16.26-.57-32.56-.41-48.84.38-38.83.08-77.64-.77-116.48-.58-26.56,1.31-53.17,1.82-79.76.42-22.19.24-44.4.71-66.59.39-18.56,1.23-37.12,2.09-55.67.73-15.66,12.42-28.02,26.9-30.5,15.06-2.58,30.21-5.23,45.43-6.13,22.15-1.31,43.14-7.19,64.29-12.98,6.42-1.75,12.13-7.07,19.59-4.46.36.13,1.06-.49,1.52-.88,11.8-9.98,26.2-10.39,40.48-10.7,10.04-.21,18.62,4.22,26.71,9.82,6.25,4.33,12.26,9.49,19.19,12.26,14.48,5.8,23.27,16.85,28.79,30.24,7.72,18.74,14.01,38.08,20.65,57.26,8.63,24.9,13.9,50.61,17.52,76.67,1.1,7.89,2.3,15.85,2.4,23.79.3,24.01,4.49,47.59,7.14,71.34,2.03,18.17,2.95,36.47,5.18,54.62,2.59,21.12,5.7,42.2,9.27,63.18,2.95,17.38,7.44,34.5,10.2,51.9,1.87,11.77,2.74,23.84,2.62,35.76-.17,17.4-10.62,27.01-27.71,24.78-25.94-3.39-50.86-10.54-72.81-25.58-2.99-2.05-5.33-5.02-8.17-7.32-8.76-7.08-17.47-14.25-26.49-20.98-10.05-7.5-18.89-15.65-22.22-28.46-3.43-13.18-7.38-26.23-11.12-39.33-.81-2.85-1.67-5.69-2.51-8.54-.5.18-.99.36-1.49.54Zm-72.45-48.76c.84-27.19,1.27-46.16,2.06-65.11.43-10.41,2.92-12.65,12.96-14.08,17.18-2.45,33.75,1.05,50.4,4.54,10.72,2.24,16.7,8.38,19.2,19,7.01,29.81,14.54,59.51,21.6,89.31,4.14,17.48,7.91,35.06,11.63,52.64,2.97,14.04,12.39,20.75,25.66,22.97,8.2,1.37,16.48,2.28,24.77,3.03,3.6.32,7.34.04,10.92-.54,8.38-1.36,11.58-4.62,12.47-13.11.48-4.6.47-9.35-.07-13.95-6.39-54.22-13.82-108.23-26.52-161.48-11.11-46.61-19.14-93.94-36.3-138.99-7.57-19.88-13.6-40.35-20.52-60.49-4.5-13.1-14.17-19.28-27.73-18.01-14.88,1.39-29.77,3.27-44.47,5.93-20.98,3.8-41.92,7.49-63.3,8.19-7.63.25-15.31.89-22.82,2.23-10.8,1.94-16.27,7.76-17.84,18.6-1.61,11.19-3.14,22.44-3.86,33.71-1.72,26.91-2.95,53.84-4.38,80.77-1.74,32.88-5.17,65.69-3.84,98.7,1.47,36.58,2.77,73.17,4.22,109.75.37,9.31.62,18.66,1.7,27.9,1.27,10.94,6.32,16.22,17.21,17.52,17.38,2.08,34.58-.21,51.43-4.41,7.93-1.98,12.08-8.1,12.2-16.34.07-4.64-.42-9.31-.97-13.93-3.27-27.43-7.84-54.77-5.8-74.35Z"/>
    <path class="cls-5" d="m1589.23,1212.1c-3.99-13.65-4.8-24.55.21-36.19,7.46-17.32,16.62-33.37,28.88-47.66,1.3-1.52,2.67-2.98,4.11-4.36.69-.66,1.62-1.08,3.12-2.06,1.1,2.08,2.44,3.86,3.05,5.86,3.23,10.5,6.16,21.1,9.46,31.58,1.27,4.01.88,7.03-2.67,9.61-2.14,1.56-4.04,3.49-5.88,5.41-4.73,4.95-5.54,8.2-3.01,11.25,2.23,2.67,5.81,1.93,11.31-2.63,2.53-2.09,4.8-4.49,8.35-7.86,8.57,21.09,15.54,42.01,28.56,59.87,12.71,17.43,25.5,34.8,39.04,53.27.25-10.03-3.03-17.8-7.17-25.21-7.8-13.97-15.92-27.75-23.76-41.69-11.78-20.94-23.12-42.15-29.51-65.45-3.16-11.51-5.33-23.38-6.89-35.22-1.72-13.02.14-25.77,4.75-38.29,7.47-20.26,16.72-39.42,32.94-54.08,6.82-6.16,14.73-11.61,23.01-15.57,12.67-6.07,22.52-2.12,27.15,11.06,3.37,9.61,5.54,20,6.09,30.16,1.19,22.28.78,44.65,1.46,66.96.46,14.96,1.43,29.93,2.66,44.85.79,9.6,5.3,17.58,11.91,24.71,25.66,27.71,57.56,35.84,93.77,30.1,27.08-4.29,51.59-15.47,74.79-29.66,29.22-17.87,55.21-39.62,77.52-65.66,23.43-27.33,46.38-55.08,70.24-82.03,17.54-19.82,37.86-36.52,61.48-48.96,30.04-15.82,60.82-18.74,93.81-9.52,91.04,25.45,177.14,62.24,258.85,109.57,22.2,12.86,44.47,25.62,66.45,38.86,17.74,10.69,34.31,23.02,48.91,37.85,17.17,17.44,29.24,37.75,36.22,61.31,5.52,18.61,10.97,37.21,9.77,56.8-.58,9.56-2.15,19.25-4.8,28.44-4.78,16.56-15.31,29.07-29.3,39.27-26.89,19.6-56.26,34.3-87.07,46.44-22.93,9.04-45.83,18.18-68.77,27.19-6.2,2.44-12.49,4.64-18.78,6.85-14.54,5.12-29.1,5.41-44.23,2-28-6.32-55.38-14.47-82.37-24.21-30.09-10.86-60.62-20.23-92.24-25.9-34.74-6.22-69.59-6.39-104.59-3.78-52.88,3.94-105.71,6.8-158.75,1.61-28.81-2.82-57.82-4.37-86.83-.97-26.46,3.09-51.74,9.81-74.71,23.57-15.99,9.58-31.64,19.74-47.29,29.87-8.98,5.81-11.4,5.64-18.36-2.84-1.06-1.29-2.03-2.64-3.03-3.98-20.42-27.59-40.57-55.39-61.32-82.73-26.71-35.18-49.8-72.45-68.22-112.65-3.35-7.31-4.04-13.03,2.25-18.68,3.21-2.89,6.16-6.07,9.21-9.14,1.4-1.41,3.65-2.74,3.9-4.35.4-2.66.3-6.13-1.17-8.06-.91-1.19-5.05-.86-7.18.06-2.29.99-3.96,3.46-5.84,5.33-2.75,2.75-5.45,5.55-9.48,9.66Zm606.93-194.13c6.57,1.89,14.49,4.04,22.33,6.45,5.52,1.7,8.98.68,10.76-3.63,1.76-4.26.1-8.08-5.3-10.02-11.6-4.18-23.49-7.6-35.98-6.15-5.5.64-10.98,2.35-16.17,4.37-3.49,1.36-4.76,5.21-2.76,8.35,1.34,2.1,4.38,3.38,6.93,4.34,1.32.5,3.19-.5,4.82-.81,4.52-.86,9.05-1.71,15.38-2.91Zm-323.95,239.85c14.37-.25,26.26-6.23,36.54-15.75,4.06-3.76,4.21-7.99,1.11-11.32-2.91-3.12-6.63-3.56-10.45.1-6.87,6.6-15.23,8.96-24.22,10.2-3.28.45-6.57.83-9.8,1.53-3.53.76-6.22,2.89-6.21,6.7.01,3.96,2.21,6.99,6.14,8.05,2.18.59,4.58.36,6.88.5Zm125.98-81.81c2.31-1.02,3.92-1.5,5.27-2.37,11.56-7.4,21.8-16.24,29.36-27.84,1.25-1.91,2.7-4.2,2.68-6.3-.02-2.65-.69-6.44-2.48-7.62-1.85-1.21-6.09-.86-7.99.55-3.35,2.49-6.09,6.06-8.42,9.61-4.25,6.46-8.9,12.27-15.81,16.16-2.82,1.58-5.37,3.98-7.4,6.52-1.25,1.57-2.39,4.8-1.61,6.07,1.39,2.26,4.28,3.59,6.41,5.21Zm-244.03,62.04c8.32-.07,11.74-5.52,8.49-11.51-.92-1.7-2.33-3.29-3.86-4.48-8.63-6.69-17.28-13.36-26.09-19.81-4.33-3.17-8.56-1.49-9.77,3.75-1.29,5.61.24,10.9,4.47,14.57,6.23,5.41,12.92,10.32,19.71,15.02,2.33,1.61,5.54,1.96,7.06,2.46Zm832-51.33c-.66-1.23-1.49-3.87-3.17-5.71-9.61-10.49-21.5-17.51-35-21.7-4.86-1.51-8.28.46-9.49,4.47-1.36,4.54.64,8.67,5.84,9.54,9.41,1.57,16.17,7.08,22.74,13.29,2.87,2.72,5.81,5.53,9.17,7.53,4.16,2.47,9.74-1.22,9.91-7.41Zm-439.09-156.53c-.45-5.42-4.71-8.76-9.95-7.78-15.47,2.89-27.55,11.39-36.24,24.36-3.02,4.51-1.37,8.84,2.89,10.9,3.98,1.93,7.51,1.09,9.76-3.8,3.42-7.43,9.58-10.69,16.63-13.24,4.06-1.47,8.25-2.81,11.94-4.97,2.31-1.35,3.8-4.12,4.98-5.47Zm-331.09,230.85c.12-.26.25-.52.37-.79,4.25-.4,8.68-.2,12.69-1.39,3.5-1.04,6.38-3.98,5.62-8.29-.69-3.92-4.12-4.96-7.47-5.41-1.92-.26-3.93.16-5.9.34-9.82.91-19.14-.45-27.59-5.92-1.11-.72-2.45-2.03-3.41-1.82-2.66.6-5.59,1.33-7.63,2.97-2.59,2.09-2.84,5.48-.36,7.93,2.3,2.27,5.03,4.64,8.01,5.58,8.44,2.65,17.1,4.58,25.68,6.79Zm445.76-238.68c-1.8,1.75-5.03,3.55-5.86,6.13-.67,2.07.83,6.56,2.61,7.42,12.54,6.09,25.38,11.57,38.19,17.11,3.6,1.56,7.23.11,8.43-3.1.8-2.12-.24-6.16-1.95-7.8-11.21-10.75-26.2-13.94-41.41-19.76Zm358.17,226.84c-1.52-14.4-6.55-25.88-13.75-36.46-2.49-3.65-6.27-3.78-9.73-1.68-3.57,2.16-4.67,5.51-2.49,9.43.97,1.74,2.02,3.44,3.03,5.16,4.4,7.54,7.83,15.36,8.21,24.32.11,2.58.86,5.34,2.07,7.61,2.33,4.37,6.96,4.67,9.48.47,1.8-3.01,2.45-6.71,3.18-8.85Zm-168.75-137.58c-1.58-2.45-2.39-4.82-4.04-6.1-11.25-8.71-24.57-13.04-37.93-17.1-3.67-1.11-6.41,1.25-7.78,4.69-1.45,3.65-.11,6.51,3.15,8.45,1.41.84,2.97,1.5,4.53,2.03,10.67,3.64,21.67,6.42,30.51,14.2,1.45,1.28,5.29,1.24,7.18.23,1.93-1.03,2.83-4,4.37-6.41Zm27.66,9.91c-5.58-.27-8.26,1.71-9.08,5.92-.82,4.2,1.31,7.38,6.34,8.21,10.83,1.79,20.03,6.53,28.05,13.9,1.43,1.32,3.23,2.39,5.05,3.09,4.98,1.91,9.7-2.02,8.36-7.15-.65-2.46-2.18-4.9-3.9-6.81-9.62-10.71-22.81-14.11-34.81-17.17Zm-391.73-45.15c-2.58-1.63-4.94-4.35-7.06-4.17-2.89.24-6.19,2.12-8.28,4.29-7.35,7.61-14.27,15.64-21.32,23.54-1.32,1.48-3.14,2.94-3.56,4.69-.55,2.28-.88,5.91.39,7.04,1.82,1.61,5.16,1.74,7.89,1.97,1.06.09,2.45-1.06,3.33-1.99,8.18-8.64,16.42-17.23,24.31-26.12,1.86-2.1,2.51-5.28,4.29-9.26Zm283.65,9.76c7.98-6.95,8.22-12.37,1.2-18-10.19-8.18-22.75-10.62-35.15-13-3.64-.7-6.36,1.87-7.27,5.49-1.05,4.2.92,7.09,4.79,8.63,1.52.61,3.22.83,4.86,1.09,12.02,1.89,23.46,5.01,31.57,15.8Zm-671.52,54c-1.53,1.15-3.45,1.85-3.97,3.13-1.23,2.99-2.56,6.27-2.5,9.4.23,12.52,6.32,22.85,13.45,32.59,2.33,3.17,5.85,3.11,8.96,1.23,3.06-1.84,4.77-4.67,3.31-8.44-.6-1.53-1.37-3.04-2.29-4.4-4.72-6.91-8.87-13.91-9.16-22.74-.09-2.73-2.04-5.54-3.61-8.01-.78-1.23-2.62-1.78-4.19-2.77Zm-1.41-26.07c-.22,0-.45.02-.67.03-.54-9.21-.89-18.43-1.68-27.62-.47-5.51-3.83-9.06-7.73-8.72-5.09.44-6.73,4.53-6.58,8.48.42,10.87,1.35,21.74,2.54,32.57.45,4.13,3.72,6.3,7.89,5.78,4.16-.52,6.36-3.2,6.24-7.54-.03-.99,0-1.98,0-2.97Zm22.12-80.55c-.31-7.33-6.18-10.09-11.6-6.2-8.76,6.29-15.77,14.21-19.92,24.35-.62,1.52-1.61,3.36-1.23,4.73.74,2.69,1.69,6.29,3.71,7.39,1.89,1.04,5.79.08,7.87-1.36,2.28-1.58,3.77-4.56,5.1-7.19,3.31-6.54,6.33-13.11,13.11-17.1,1.68-.99,2.37-3.65,2.96-4.63Zm219.94,190.67c3.48-1.28,6.36-1.65,8.33-3.18,7.01-5.42,14.11-10.83,20.39-17.04,4.75-4.69,4.72-9.19,1.74-12.32-2.81-2.94-6.24-2.01-12.11,2.65-6.43,5.11-13.07,9.94-19.63,14.88-1.05.79-2.67,1.35-3.07,2.39-1,2.54-2.57,5.72-1.78,7.86.78,2.14,4.15,3.33,6.12,4.75Zm691.86,76.32c-.8-2.82-1.35-7.08-3.28-10.58-.97-1.75-4.98-3.44-6.67-2.78-2.22.88-4.55,3.92-5.01,6.37-1.28,6.78-1.68,13.73-2.29,20.63-.33,3.79,0,7.69,4.38,8.94,4.71,1.34,7.86-1.46,9.16-5.56,1.58-5,2.29-10.27,3.72-17.03Z"/>
    <path class="cls-5" d="m1831.04,1559.03c8.71-12.32,6.48-31.59-3.54-45.73-11.54-16.28-24.24-20.48-45.14-14.92-1.72-12,2.91-20.86,13.56-24.77,14.06-5.17,28.3-9.85,42.39-14.95,4.58-1.66,8.14-.8,11.98,2.13,31.07,23.73,64.01,44.46,99.33,61.31,2.66,1.27,5.13,2.95,8.19,4.72-.62,4.41-1,8.68-1.86,12.86-2.36,11.54-.45,22.62,3.76,33.3,7.37,18.7,19,34.35,35.12,46.45,12.57,9.44,26.27,15.41,42.58,14.25,12.26-.87,24.72.16,36.86-1.42,14.61-1.9,28.43-7.44,40.94-15.25,6.59-4.12,11.08-3.14,16.8,1.33,14.43,11.29,29.22,22.13,44.02,32.93,29.02,21.19,60.62,37.37,94.87,48.33,3.05.98,5.98,2.35,8.98,3.55-20.84,48.91-70.69,72.1-117.23,66.93-.68-7.41-1.38-14.95-2.07-22.49-.48-5.23,3.36-5.62,7.02-6.48,6.02-1.42,7.68-3.94,6.81-9.66-.76-5.01-2.78-7.3-9.18-6.6-8.35.92-12.21-3.06-14.87-9.96-1.54-3.99-3.58-7.78-5.61-12.1,3.63-3.08,7.02-5.7,10.11-8.64,4.27-4.05,4.44-7.83.92-12.27-3.4-4.3-5.8-4.77-11.24-1.89-3.8,2.02-7.48,4.27-10.77,6.17-6.54-1.09-8.47-10.99-17.98-6.87,2.61,4.8,5.04,9.26,7.83,14.38-1.19,1.89-2.49,4.14-3.97,6.24-1.93,2.74-4.23,5.19-1.8,8.93,2.7,4.17,6.07,3.05,9.67,1.79,1.19-.42,2.52-.44,4.83-.8,1.78,5.01,3.5,9.85,5.59,15.73-4.66,1.32-8.66,1.85-12.01,3.61-2.26,1.19-4.61,3.89-5.15,6.31-.83,3.7,2.66,4.94,5.69,5.55,2.93.59,5.94.82,8.92,1.16,4.84.55,7.11,3.28,6.77,8.09-.42,5.92-.97,11.84-1.55,18.92-7.02-.52-13.22-.9-19.41-1.46-42.31-3.8-81.4,4.84-116.36,29.79-10.85,7.74-22.05,15-32.74,22.95-22.04,16.37-46.65,26.75-73.21,33.14-27.9,6.71-55.73,13.25-84.82,11.04-19.51-1.48-37.38-6.83-51.98-20.33-9.91-9.16-16.91-20.6-22.68-32.66-8.36-17.47-18.03-33.99-29.12-49.96-20.94-30.18-26.33-63.36-15.2-98.94,3.22-10.28,10.54-14.09,19.97-15.26,10.03-1.25,16.88,2.86,21.86,12.31,2.01,3.81,3.84,7.71,5.86,11.52.24.45,1.15.55,2.18,1,4-1.15,4.88-4.54,5.21-8.34,1.31-15.37-3.97-27.4-17.74-35.16-1.44-.81-2.83-1.7-4.21-2.6-.24-.15-.29-.58-.75-1.57,1.96-1.77,3.99-3.82,6.23-5.61,9.64-7.69,19.21-15.48,29.06-22.88,11.08-8.32,15.96-19.3,15.25-32.94-.29-5.66-.57-11.33-1.26-16.94-.64-5.26,1.38-8.8,5.46-11.95,17.72-13.68,38.45-7.29,45.22,14.07.95,3,2.01,5.97,3.6,10.63Zm-2.38,262.37c16.04-.09,29.25-4.03,42.23-10.86,21.68-11.42,36.4-29.9,49.94-49.41,5.8-8.35,3.39-20.11-3.73-27.59-7.8-8.18-23.66-7.9-29.6,2.11-2.81,4.73-8.46,8.53-13.66,10.9-9.03,4.12-18.49,7.84-28.17,9.88-17.57,3.7-35.4,6.13-53.16,8.88-3.24.5-6.65.18-9.96-.03-12.14-.75-23.52-4.14-34.39-9.6-3.01-1.51-6.72-4.77-9.85-.9-3.51,4.33.83,7.35,3.15,10.28,5.09,6.44,11.64,11.01,19.62,13.1,8.1,2.12,13.64,6.58,18.36,13.83,12.41,19.02,29.8,30.17,49.23,29.41Zm8.85-140.41c.75.35,1.5.7,2.26,1.04,4.02-4.25,7.84-8.71,12.09-12.71,14.3-13.45,32.39-13.01,46.21.82,2.15,2.15,4.72,3.88,7.39,6.04,1.3-2.12,2.13-2.88,2.25-3.75,1.87-13.58-7.93-30.07-21.02-35.51-12.68-5.27-29.27-.93-37.14,11.46-5.46,8.59-8.69,18.61-12.68,28.09-.51,1.2.4,2.99.65,4.51Z"/>
    <path class="cls-5" d="m1905.11,1450.13c3.82,0,7.71-.43,11.46.08,15.82,2.14,31.65,4.24,47.38,6.94,24.19,4.16,48.42,4.19,72.69,1.53,19.19-2.1,38.28-6.01,57.5-6.79,24.58-1,49.36-1,73.86.95,46.48,3.7,92.57,10.82,138.26,20.32,4.01.83,8.73.38,12.66-.91,32.95-10.82,64.57-6,94.91,8.67,18.86,9.11,37.23,19.36,55.18,30.16,18.52,11.14,38.64,15.95,59.65,18.25,26.48,2.89,52.99,5.46,79.47,8.34,5.45.59,10.81,1.89,18.04,3.19-2.84,3.46-4.19,5.6-6,7.22-24.11,21.69-49.73,41.2-79.16,55.35-17.4,8.37-34.44,17.5-51.76,26.05-41.97,20.72-85.73,25.61-131.16,14.11-15.33-3.88-29.63-10.36-42.14-20.02-5.15-3.97-9.13-9.52-13.39-14.56-1.69-2-2.56-4.67-4.05-6.87-2-2.93-3.71-7.21-8.29-5.45-4.29,1.65-3.54,6.09-3.24,9.62.83,10.09,3.46,19.83,9.04,28.28,5.76,8.73,4.23,16.8-.5,26.55-50.01-17.91-95.76-43.05-139.52-73.91,1.53-2.94,2.71-5.56,4.18-8,7.74-12.85,11.7-26.74,12.14-41.73.78-26.87-14.08-47-40.42-53.08-9.99-2.3-20.41-3.33-30.68-3.69-35.1-1.23-69.13,4.24-101.13,19.2-8.17,3.82-14.76,3.51-22.22-1.22-23.06-14.6-46.38-28.8-69.56-43.21-1.36-.84-2.44-2.12-3.66-3.2.16-.72.32-1.44.48-2.16Z"/>
    <path class="cls-5" d="m2082.1,990.41c-2.2,1.43-3.79,2.42-5.34,3.46-9.11,6.1-19.01,11.29-27.16,18.49-27.45,24.25-54.44,48.99-78.6,76.71-20.36,23.37-42.78,44.76-67.23,63.96-15.5,12.17-32.71,20.4-51.98,24.25-4.19.84-8.61,1.19-12.86.88-22.4-1.61-42.66-9.72-61.85-20.94-5.62-3.28-7.17-7.45-5.79-14.17,5.35-25.93,13.79-50.67,25.48-74.41,10.94-22.21,27.18-39.22,48.34-51.83,24.95-14.88,52.2-23.36,80.43-28.88,44.1-8.63,88.5-10.89,133.11-4.33,7.75,1.14,15.79,1.8,23.43,6.82Z"/>
    <path class="cls-5" d="m1752.77,1573.89c-7.12-2.14-13.61-4.85-20.35-5.91-6.78-1.07-13.87-1.08-20.73-.52-9.93.82-19.75,2.86-29.67,3.86-21.74,2.19-40.79-4.16-56.75-19.16-6.08-5.71-6.09-7.65-1.62-15.53,4.82.41,9.8.47,14.66,1.3,17.42,2.99,33.7-1.49,49.72-7.41,21.73-8.04,41.06-20.39,59.65-33.98,2.68-1.96,5.4-3.89,8.15-5.75.47-.32,1.22-.24,2.65-.47-1.92,13.78-4.55,27.29-5.48,40.92-.94,13.83-.21,27.77-.21,42.65Z"/>
    <path class="cls-1" d="m1272.57,942.22c0-25.98-.65-51.98.17-77.94.93-29.59,3-59.15,4.88-88.7,2.07-32.53,4.15-65.07,6.87-97.55,2.58-30.82,5.9-61.58,9.06-92.35,3.23-31.43,6.64-62.85,10.06-94.26.47-4.28,1.31-8.54,2.18-12.77,3.95-19.15,14.26-27.87,34.02-28.57,7.32-.26,14.68-.4,21.99.04,10.28.62,20.6,1.35,30.77,2.9,19.29,2.94,25.22,11.01,22.83,30.08-1.98,15.84-4.16,31.65-6.13,47.49-1.72,13.86-3.64,27.72-4.81,41.63-1.17,13.9,2.18,18.75,15.88,20.07,10.46,1.01,21.25.04,31.76-1.2,23.78-2.79,47.48-6.28,71.21-9.49,1.32-.18,2.65-.34,3.95-.63,16.97-3.7,24.77-13.1,26.45-30.49,1.37-14.2,3.63-28.31,5.34-42.47,1.07-8.91,1.84-17.85,2.77-26.78,2.57-24.66,10.95-34.39,35.42-38.47,15.05-2.51,30.39-3.38,45.62-4.64,3.56-.29,7.38.32,10.82,1.39,7.53,2.34,12.75,7.01,13.25,15.57,1.1,18.94,2.55,37.86,3.33,56.81,1.07,25.95,1.12,51.94,2.58,77.87,1.52,26.9,4.09,53.75,6.39,80.6,3.56,41.52,5.36,83.05,1.64,124.66-2.08,23.18-4.93,46.29-4.37,69.65.32,13.54-6.16,24.66-15.29,33.67-8.95,8.83-18.91,16.81-29.19,24.09-17.65,12.49-35.09,25.43-55.09,34.19-2.44,1.07-4.87,2.23-7.42,2.94-9.19,2.57-15.53-.62-19.23-9.35-3.47-8.18-3.41-16.57-3.15-25.36.87-29.26,2.53-58.52.77-87.83-1.87-31.24-2.01-62.5-.76-93.8.76-18.92.42-37.9.18-56.84-.29-23.36-8.4-30.82-31.48-28.47-13.55,1.38-27,3.76-40.45,5.93-16.75,2.7-33.48,5.56-50.19,8.53-4.24.75-8.39,2.09-12.53,3.31-13.09,3.84-19.75,12.79-20.69,26.25-.53,7.63-1.29,15.25-1.69,22.88-1.19,23.25-2.71,46.5-3.23,69.76-.4,18.25-.17,36.56.98,54.77,1.47,23.21,4.39,46.33,6.26,69.52,2.52,31.25,8.54,61.87,15.41,92.39,5.53,24.58-3.65,44.16-23.17,58.56-16.3,12.03-33.54,22.87-50.79,33.54-9.58,5.93-19.75,11.15-30.18,15.41-15.33,6.26-24.38,1.32-27.75-14.97-1.94-9.4-2.73-19.12-3.17-28.73-1.01-21.95-1.75-43.91-2.09-65.88-.35-22.31-.08-44.64-.08-66.96.03,0,.05,0,.08,0Z"/>
    <path class="cls-1" d="m1493.81,929.84c-.29-3.86-.54-7.71-.87-11.57-1.92-22.47-4.12-44.93-5.71-67.42-.96-13.6-.48-27.29-1.52-40.88-2.17-28.56.08-57.06.18-85.59,0-1.3.37-2.59.61-4.21,2.31-.47,4.52-.91,6.87-1.39.46,1.2,1.1,2.09,1.1,2.98.04,26.99,1.48,54.09-.53,80.93-1.22,16.33-.17,32.37,1,48.32,1.7,23.21,2.12,46.37,2.18,69.58,0,3.17-.35,6.34-.54,9.51l-2.78-.26Z"/>
    <path class="cls-1" d="m2927.41,2054.97c7.62,0,15.32.75,22.83-.17,13.09-1.61,28.22,8.52,32.3,21.79,2.63,8.56,4.49,17.36,6.58,26.09,5.67,23.62,11.57,47.19,16.76,70.91,2.12,9.71,4.03,19.82,3.63,29.65-.8,19.48-6.22,30.15-31.03,32.41-21.99,2-42.99-2.55-63.49-10.29-37.84-14.29-71.13-36.2-102.54-61.2-18.5-14.72-36.29-30.19-52.27-47.8-22.59-24.89-37.5-53.34-42.25-86.64-4.93-34.58-10.09-69.15-10.21-104.24-.03-9.63-1.21-19.25-1.89-28.88-2.55-36.36.3-72.55,3.29-108.74,3.02-36.49,5.49-73.03,9.18-109.46,2.04-20.14,4.41-40.32,10.26-59.95,3.88-13.04,6.3-26.53,9.02-39.9,4.5-22.13,9.01-44.27,12.96-66.51,2.38-13.41,5.15-27,5.15-40.52,0-18.16,9.62-28.32,24.28-35.51,8.95-4.39,18.22-8.16,27.43-12.01,16.58-6.94,33.18-13.84,49.88-20.49,4.3-1.71,8.95-2.64,13.51-3.56,13.49-2.73,22.54,3.02,24.13,16.75,1.18,10.16.9,20.6.26,30.85-1.37,21.64-6.34,42.73-10.49,63.97-9.83,50.33-18.81,100.82-27.9,151.29-5.42,30.13-11.3,60.22-15.32,90.55-4.84,36.57-10.41,73.14-8.83,110.32.75,17.59-1.12,35.3-.28,52.89,1.22,25.56,3.56,51.07,6,76.55.78,8.17,2.62,16.45,5.36,24.2,7.62,21.54,23.77,33.41,45.92,36.64,12.45,1.81,25.16,1.85,37.75,2.69.01-.56.02-1.12.03-1.68Z"/>
    <path class="cls-1" d="m2799.82,707.71c6.15-2.67,7.51-8.17,9.23-12.96,5.72-15.98,10.96-32.12,16.46-48.18,14.77-43.15,29.49-86.32,44.43-129.4,3.59-10.34,7.44-20.66,12.16-30.51,5.78-12.08,15.85-18.83,29.5-18.79,15.96.04,31.98-.04,47.87,1.24,14.16,1.14,19.71,9.2,17.83,23.31-1.92,14.43-8.43,27.3-14.64,40.15-20.88,43.18-42.08,86.2-63.07,129.33-2.91,5.98-5.47,12.14-7.89,18.34-2.73,7-1.48,13.11,2.76,19.7,7.88,12.26,19.42,20.95,28.74,31.77,31.46,36.56,58.48,75.92,77.97,120.21,4.38,9.94,2.96,19.58-1.74,28.86-2.55,5.03-5.57,9.88-8.81,14.5-18.72,26.74-37.5,53.43-56.41,80.03-3.46,4.86-7.24,9.6-11.51,13.74-6.52,6.31-13.59,4.91-17.9-3.02-.79-1.46-1.57-2.98-2-4.57-5.16-19.48-14.42-37.17-23.7-54.88-9.89-18.86-19.32-37.97-29.15-56.87-2.76-5.3-5.99-10.39-9.36-15.33-4.43-6.5-9.61-6.8-14.43-.46-7.86,10.33-12.11,22.45-13.11,35.14-.88,11.17-.13,22.58.96,33.79,2.53,26.17,5.63,52.29,8.63,78.42,1.59,13.88,3.75,27.7,5.11,41.61.99,10.14,2.26,20.15,1.57,30.6-2.44,36.63-20.9,62.28-51.78,80.12-8.98,5.19-18.57,8.93-29.04,10.17-16.33,1.93-29.92-7.02-33.46-23.06-1.56-7.09-2.22-14.51-2.21-21.78.05-21.25,1.1-42.51.92-63.75-.33-38.93-.94-77.87-2.07-116.79-.66-22.58-2.84-45.11-3.83-67.69-1.79-40.92-3.04-81.86-4.82-122.78-1.73-39.6-4.59-79.16-5.57-118.77-.77-30.95.57-61.95,1.01-92.92.09-6,.34-11.99.59-17.98.14-3.32.16-6.69.74-9.95,2.72-15.32,12.63-23.55,28.04-22.3,14.66,1.19,28.84,5.08,42.3,11.05,15.51,6.87,21.59,20.03,22.47,36.05.45,8.31-.05,16.66.13,24.99.93,44.96,1.87,89.92,3.03,134.88.12,4.77-.69,10.13,4.08,14.75Z"/>
    <path class="cls-1" d="m2499.03,796.86c-1.72-17.55-3.93-35.07-5.03-52.66-1.28-20.54,8.84-31.42,30.25-30.33,25.06,1.27,37.49,8.32,43.97,35.37,3.53,14.75,4.16,30.2,5.94,45.36,1.9,16.21,4.1,32.4,5.31,48.67,1.82,24.58,3.03,49.22-2.32,73.62-3.25,14.85-11.72,24.82-26.13,30.15-16.1,5.96-32.61,6.12-49.29,4.48-24.04-2.35-46.77-10.31-69.75-17.01-21.73-6.33-43.37-13.05-64.72-20.55-9.32-3.27-18.22-8.24-26.6-13.56-25.62-16.25-40.45-40.43-46.64-69.48-8.74-41.02-16.01-82.35-24.21-123.49-4.67-23.46-10.35-46.72-14.84-70.2-6.24-32.69-12.4-65.42-17.37-98.32-2.27-15.06-1.47-30.49,1.31-45.75,3.81-20.91,16.81-34.08,35.62-40.89,40.2-14.57,81.48-24.81,124.45-27.14,14.62-.79,29.19-2.62,43.81-3.48,22.7-1.32,44.39,2.18,64.43,13.87,16.87,9.84,25.87,25.59,32.72,42.79,6.97,17.5,9.36,36.04,9.66,54.79.15,9.24-.05,18.55-.93,27.74-.78,8.11-5.95,13.48-13.88,15.14-11.38,2.38-22.86,4.29-34.36,5.99-7.23,1.07-14.55,1.67-21.86,2.03-9.43.47-16.87-3.45-21.79-11.55-2.75-4.53-5.42-9.19-7.45-14.08-4.86-11.68-9.28-23.54-13.95-35.3-8.74-22.03-18.22-31.48-41.8-31.9-23.31-.42-42.46,12.26-50.25,32.6-5.99,15.62-7.05,31.96-5.2,48.25,4.02,35.38,9.12,70.64,13.26,106.01,1.19,10.16.22,20.56.92,30.81,1.15,16.93,2.28,33.9,4.45,50.72,2.61,20.12,6.35,40.09,9.52,60.14,3.99,25.19,25.49,41.21,48.67,45.29,13.82,2.43,27.75,2.45,41.69-.68,28.77-6.47,44.45-27.07,42.33-56.43-.26-3.66-.54-7.31-.82-10.97l.85-.08Z"/>
    <path class="cls-1" d="m1553.13,2311.66c-46.29.03-92.37-2.96-138.28-8.96-27.37-3.58-54.81-6.73-82.18-10.3-7.9-1.03-15.71-2.81-23.55-4.32-18.33-3.53-29.12-20.09-30.6-34.86-4.19-42.04-9.33-83.99-8.71-126.35.53-36.6,1.18-73.19,2.03-109.79.82-35.26,1.96-70.52,2.99-105.78.62-21.29,1.66-42.57,1.86-63.86.17-18.3-.61-36.61-.88-54.91-.05-3.31.26-6.64.58-9.95,1.89-19.48,13.29-26.95,29.92-28.88,17.83-2.07,35.79-3.52,53.42-6.76,21.75-4.01,43.66-4.29,65.57-5.42,19.4-1,38.6.82,57.54,4.38,18,3.39,35.5,8.77,51.68,17.93,21.16,11.98,35.51,30.1,45.91,51.34,13.3,27.17,26.35,54.53,38,82.43,6.49,15.55,10.82,32.19,14.49,48.7,3.95,17.81,2.25,35.76-3.72,53.15-.22.63-.37,1.28-.62,1.9-6.75,16.75-2.68,24,17.52,27.97,7.15,1.4,14.53,1.71,21.83,2.24,33.59,2.44,63.23,14.14,88.95,36.23,14.72,12.64,28.72,25.76,39.7,41.86.19.27.46.5.61.79,20.68,39.46,32.57,79.55,9.72,122.54-10.55,19.86-26.58,33.81-46.01,44.34-27.94,15.15-58.4,22-89.39,27.09-35.26,5.79-70.85,6.65-106.46,7.23-3.97.06-7.95,0-11.92,0Zm-32.49-82.22c21.34.51,42.5-1.03,63.33-5.85,12.36-2.86,24.12-7.08,34.85-14.22,17.9-11.92,19.69-28.71,8.75-46.71-14.08-23.16-36.01-36.92-60-47.61-30.45-13.58-62.99-18.6-95.89-21.19-11.45-.9-23.11-.64-34.55.42-13.36,1.23-18.8,8.97-16.17,22,3.28,16.23,7.56,32.26,10.75,48.5,2.09,10.64,3.78,21.48,4.28,32.3.56,12.04,5.33,20.25,16.77,24.3,2.82,1,5.63,2.06,8.52,2.77,19.51,4.75,39.38,5.63,59.35,5.31Zm-140.95-344.07c.56,7.09.63,14.45,1.79,21.64,3.6,22.26,7.74,44.42,11.38,66.67,1.26,7.67,5.74,12.45,12.08,16.04,7.86,4.45,16.39,5.16,25.16,4.34,14.29-1.33,28.15-4.39,41.8-8.96,24.56-8.24,33.98-27.9,26.15-51.97-4.38-13.45-10.42-26.88-18.34-38.53-12.62-18.56-29.72-32.15-52.94-36.1-10.98-1.87-21.77-1.97-32.44,1.49-8.36,2.71-13.71,7.93-14.09,17.22-.11,2.65-.35,5.3-.55,8.16Z"/>
    <path class="cls-1" d="m2107.88,865.74c-9.13-1.42-18.75-2.44-28.14-4.52-10.58-2.35-17.49-8.8-19.82-19.98-6.46-30.94-13.38-61.8-19.82-92.74-2.44-11.71-4.2-23.57-6.06-35.4-1.78-11.35-8.4-17.84-19.48-19.8-6.55-1.16-13.18-1.79-19.78-2.65-31-4.05-61.02-.23-90.08,11.21-4.5,1.77-7.95,4.35-8.91,9.72-3.71,20.64-8.25,41.15-11.41,61.87-3.26,21.38-5.27,42.96-7.81,64.45-.16,1.32-.19,2.66-.28,3.99-1.37,20.5-11.07,34.52-31.41,40.15-11.85,3.28-23.62,7.08-35.66,9.43-13.07,2.55-19.4-2.12-19.91-15.39-.51-13.25.67-26.61,1.78-39.87,2.23-26.54,5.89-53,7.22-79.58,2.22-44.34,9.62-87.88,17.74-131.35,1.59-8.5,3.6-16.99,6.27-25.2,9.71-29.78,20.95-58.95,34.88-87.08,5.75-11.61,10.85-23.57,15.65-35.61,5.98-15.01,16.75-22.49,32.77-23.34,32.92-1.74,65.84-3.64,98.74-5.69,13.62-.85,27.21-2.28,40.81-3.38,15.6-1.27,22.52,3.45,28.33,17.86,6.09,15.12,12.46,30.16,19.37,44.93,10.79,23.06,18.05,47.25,24.43,71.78,6.53,25.14,14.19,50.04,19.38,75.45,4.17,20.43,5.6,41.45,7.86,62.24,1.91,17.53,2.88,35.17,5.01,52.68,2.41,19.8,5.66,39.5,8.54,59.25.19,1.32.3,2.65.45,3.97,2.07,18.83-4.51,27.4-24.28,30.64-8.5,1.39-17.24,1.33-26.4,1.96Zm-122.68-226c.01-.13.03-.26.04-.39,3.99,0,8,.28,11.95-.05,11.52-.97,14.58-5.11,11.98-16.47-2.3-10.03-5.07-19.95-7.52-29.95-4.11-16.78-7.81-33.66-12.31-50.33-2.45-9.06-10.24-14.19-20.47-14.5-9.48-.29-17.89,2.04-22.32,11.65-3.2,6.94-6.81,13.74-9.4,20.9-6.87,19.05-13.31,38.26-19.84,57.43-1.9,5.58-.98,8.86,4.37,11.59,4.66,2.38,9.83,4.4,14.98,5.06,16.13,2.08,32.35,3.44,48.54,5.07Z"/>
    <path class="cls-1" d="m2068.25,2298.56c-26.32-.79-52.43-3.02-77.58-11.85-15.7-5.51-25.99-15.99-29.55-32.31-2.05-9.38-3.55-18.94-4.49-28.49-2.05-20.85-3.55-41.76-5.33-62.64-1.75-20.55-4.11-41.06-5.24-61.65-1.37-25.01-5.4-49.62-9.23-74.3-1.53-9.86-2.35-19.84-3.72-29.73-1.28-9.27,2.72-15.48,10.82-19.28,3.59-1.69,7.38-3.22,11.24-4.03,21.85-4.53,43.72-8.93,65.64-13.12,5.2-1,10.6-1.58,15.87-1.4,9.94.34,15.13,5.68,15.79,15.69.59,8.97.02,18.09,1.43,26.91,5.24,32.87,12.02,65.43,20.7,97.61,2.84,10.53,3.69,21.6,5.45,32.43,3.41,20.98,7.9,41.83,7.27,63.3-.1,3.26.86,6.62,1.73,9.82,2.7,9.91,9.86,15.73,20.12,16.57,19.99,1.63,33.92-8.54,43.95-24.25,9.37-14.69,14.38-31.41,18.52-48.29,4.28-17.48,3.64-34.73-.31-52.36-5.18-23.11-10.52-46.07-19.53-68.05-6.81-16.62-13.81-33.16-20.22-49.93-3.19-8.36-5.89-17.01-7.7-25.77-3.14-15.14,1.27-23.89,14.85-31.45,3.19-1.77,6.55-3.46,10.04-4.42,25.68-7.08,51.38-14.08,77.15-20.8,4.43-1.15,9.25-1.16,13.89-1.12,9.4.07,13.55,2.93,16.43,11.63,11.09,33.49,22.38,66.92,32.87,100.61,7.54,24.22,12.4,49.19,14.11,74.46.94,13.8-.54,27.92-2.38,41.71-1.89,14.15-4.69,28.29-8.57,42.02-11.99,42.46-35.03,76.45-75.67,96.86-30.06,15.09-61.57,24.86-94.85,29.57-17.78,2.52-35.24,7.44-53.49,6.05Z"/>
    <path class="cls-1" d="m2411.98,2275.98c1.68-16.54,3.59-33.06,4.99-49.62,1.82-21.53,3.1-43.11,4.87-64.65,1.2-14.58,2.96-29.12,4.31-43.69,2.68-28.83,6.18-57.63,7.67-86.52,2.66-51.66,9.07-102.68,23.09-152.51,5.67-20.14,13.24-39.74,19.66-59.68,3.21-9.99,10.1-16.19,19.92-17.39,19.46-2.38,39.06-4.26,58.65-4.91,13.08-.43,18.68,6.32,15.87,19.26-3.81,17.5-8.54,34.95-14.65,51.78-9.7,26.75-15.33,54.43-21.61,82.01-6.67,29.28-11.22,58.9-13.31,88.81-1.58,22.56-1.87,45.2,1.43,67.75,1.2,8.2,1.08,16.58,1.92,24.85,1.78,17.5,3.25,35.05,5.88,52.43,1.86,12.32,9.91,17.19,21.69,12.91,12.78-4.64,25-10.84,37.35-16.62,9.64-4.51,18.83-10.11,28.73-13.92,7-2.69,14.79-4.06,22.31-4.47,10.31-.57,17.08,4.71,19.8,14.83,5.27,19.6,10.48,39.23,14.84,59.05,3.99,18.14-3.79,31.77-21.67,37.32-16.82,5.22-34.05,9.14-51.2,13.24-30.42,7.28-60.77,14.99-91.43,21.13-23.1,4.62-46.49,7.2-70.36,5.05-16.98-1.53-30.04-12.36-28.73-33.42.06-.99.25-1.98.37-2.97-.13-.01-.25-.03-.38-.04Z"/>
    <path class="cls-1" d="m1357.64,1522.73c-2.04,19.58,2.53,46.92,5.8,74.35.55,4.62,1.04,9.29.97,13.93-.12,8.24-4.27,14.37-12.2,16.34-16.85,4.2-34.06,6.5-51.43,4.41-10.89-1.31-15.94-6.59-17.21-17.52-1.08-9.24-1.33-18.59-1.7-27.9-1.45-36.58-2.75-73.17-4.22-109.75-1.33-33.01,2.1-65.82,3.84-98.7,1.42-26.93,2.65-53.86,4.38-80.77.72-11.27,2.25-22.52,3.86-33.71,1.56-10.84,7.03-16.67,17.84-18.6,7.5-1.34,15.19-1.98,22.82-2.23,21.38-.69,42.32-4.39,63.3-8.19,14.7-2.66,29.59-4.54,44.47-5.93,13.56-1.27,23.23,4.91,27.73,18.01,6.93,20.14,12.95,40.61,20.52,60.49,17.16,45.06,25.19,92.39,36.3,138.99,12.7,53.26,20.14,107.26,26.52,161.48.54,4.6.55,9.35.07,13.95-.89,8.48-4.09,11.74-12.47,13.11-3.58.58-7.32.87-10.92.54-8.28-.75-16.57-1.66-24.77-3.03-13.28-2.22-22.69-8.93-25.66-22.97-3.72-17.58-7.48-35.16-11.63-52.64-7.06-29.8-14.58-59.5-21.6-89.31-2.5-10.62-8.48-16.76-19.2-19-16.65-3.48-33.22-6.99-50.4-4.54-10.04,1.43-12.53,3.67-12.96,14.08-.79,18.95-1.22,37.92-2.06,65.11Zm1.05-180.84l-1.19.07c.99,9.89,1.91,19.79,3,29.67.51,4.63,3.01,8.14,7.22,10.08,12.81,5.92,26.07,7.73,39.81,3.67,5.4-1.6,8.4-5.23,8.26-11-.07-2.97-.13-6.02-.81-8.89-3.14-13.26-6.2-26.54-9.86-39.66-4.81-17.29-13.68-22.69-31.16-19.8-9.29,1.54-14.76,7.39-15.21,16.89-.3,6.3-.06,12.63-.06,18.95Z"/>
    <path class="cls-2" d="m2196.16,1017.97c-6.33,1.2-10.86,2.05-15.38,2.91-1.63.31-3.5,1.31-4.82.81-2.54-.96-5.59-2.24-6.93-4.34-2-3.15-.73-7,2.76-8.35,5.18-2.02,10.67-3.73,16.17-4.37,12.49-1.45,24.38,1.97,35.98,6.15,5.4,1.94,7.06,5.76,5.3,10.02-1.78,4.31-5.24,5.33-10.76,3.63-7.84-2.41-15.75-4.56-22.33-6.45Z"/>
    <path class="cls-2" d="m1872.22,1257.82c-2.3-.14-4.7.09-6.88-.5-3.93-1.06-6.13-4.09-6.14-8.05-.01-3.8,2.67-5.94,6.21-6.7,3.23-.69,6.52-1.08,9.8-1.53,8.99-1.23,17.35-3.6,24.22-10.2,3.82-3.66,7.54-3.22,10.45-.1,3.1,3.33,2.95,7.56-1.11,11.32-10.27,9.52-22.16,15.5-36.54,15.75Z"/>
    <path class="cls-2" d="m1998.2,1176.01c-2.13-1.62-5.02-2.95-6.41-5.21-.78-1.27.36-4.5,1.61-6.07,2.03-2.54,4.58-4.93,7.4-6.52,6.92-3.88,11.57-9.7,15.81-16.16,2.33-3.55,5.07-7.12,8.42-9.61,1.9-1.41,6.15-1.77,7.99-.55,1.79,1.17,2.46,4.97,2.48,7.62.02,2.1-1.43,4.39-2.68,6.3-7.56,11.6-17.79,20.44-29.36,27.84-1.36.87-2.97,1.35-5.27,2.37Z"/>
    <path class="cls-2" d="m1754.17,1238.05c-1.52-.5-4.73-.84-7.06-2.46-6.79-4.7-13.48-9.62-19.71-15.02-4.23-3.67-5.76-8.96-4.47-14.57,1.21-5.24,5.44-6.91,9.77-3.75,8.81,6.45,17.47,13.11,26.09,19.81,1.53,1.19,2.94,2.78,3.86,4.48,3.25,5.99-.17,11.44-8.49,11.51Z"/>
    <path class="cls-2" d="m2586.17,1186.72c-.17,6.2-5.75,9.88-9.91,7.41-3.37-2-6.3-4.81-9.17-7.53-6.56-6.21-13.32-11.72-22.74-13.29-5.2-.87-7.21-5.01-5.84-9.54,1.21-4.01,4.63-5.98,9.49-4.47,13.5,4.2,25.39,11.22,35,21.7,1.69,1.84,2.51,4.48,3.17,5.71Z"/>
    <path class="cls-2" d="m2147.08,1030.19c-1.18,1.35-2.67,4.11-4.98,5.47-3.69,2.16-7.88,3.5-11.94,4.97-7.05,2.55-13.21,5.81-16.63,13.24-2.25,4.9-5.78,5.73-9.76,3.8-4.26-2.06-5.91-6.39-2.89-10.9,8.69-12.97,20.77-21.47,36.24-24.36,5.24-.98,9.5,2.36,9.95,7.78Z"/>
    <path class="cls-2" d="m1815.99,1261.05c-8.58-2.21-17.24-4.15-25.68-6.79-2.98-.93-5.71-3.31-8.01-5.58-2.48-2.44-2.22-5.84.36-7.93,2.04-1.65,4.97-2.38,7.63-2.97.96-.21,2.3,1.1,3.41,1.82,8.45,5.47,17.77,6.83,27.59,5.92,1.97-.18,3.98-.6,5.9-.34,3.36.45,6.78,1.5,7.47,5.41.76,4.31-2.12,7.24-5.62,8.29-4.01,1.2-8.44.99-12.69,1.39-.12.26-.25.52-.37.79Z"/>
    <path class="cls-2" d="m2261.76,1022.37c15.22,5.82,30.21,9.01,41.41,19.76,1.7,1.63,2.74,5.67,1.95,7.8-1.2,3.21-4.83,4.66-8.43,3.1-12.81-5.53-25.64-11.02-38.19-17.11-1.78-.86-3.28-5.36-2.61-7.42.84-2.58,4.06-4.38,5.86-6.13Z"/>
    <path class="cls-2" d="m2619.93,1249.21c-.73,2.14-1.38,5.84-3.18,8.85-2.52,4.2-7.15,3.89-9.48-.47-1.21-2.27-1.96-5.03-2.07-7.61-.37-8.95-3.81-16.77-8.21-24.32-1-1.72-2.06-3.42-3.03-5.16-2.19-3.93-1.08-7.27,2.49-9.43,3.46-2.09,7.24-1.97,9.73,1.68,7.21,10.58,12.24,22.06,13.75,36.46Z"/>
    <path class="cls-2" d="m2451.17,1111.63c-1.54,2.41-2.44,5.38-4.37,6.41-1.9,1.01-5.73,1.04-7.18-.23-8.84-7.78-19.84-10.56-30.51-14.2-1.56-.53-3.12-1.19-4.53-2.03-3.26-1.94-4.6-4.8-3.15-8.45,1.37-3.44,4.11-5.81,7.78-4.69,13.36,4.06,26.68,8.39,37.93,17.1,1.65,1.28,2.46,3.65,4.04,6.1Z"/>
    <path class="cls-2" d="m2478.83,1121.55c12,3.06,25.2,6.46,34.81,17.17,1.72,1.92,3.26,4.36,3.9,6.81,1.35,5.13-3.38,9.06-8.36,7.15-1.82-.7-3.62-1.78-5.05-3.09-8.01-7.38-17.22-12.11-28.05-13.9-5.03-.83-7.16-4.01-6.34-8.21.82-4.21,3.5-6.2,9.08-5.92Z"/>
    <path class="cls-2" d="m2087.1,1076.39c-1.79,3.98-2.43,7.16-4.29,9.26-7.9,8.89-16.13,17.49-24.31,26.12-.88.93-2.27,2.08-3.33,1.99-2.73-.23-6.07-.36-7.89-1.97-1.27-1.13-.94-4.75-.39-7.04.42-1.75,2.24-3.21,3.56-4.69,7.05-7.9,13.97-15.93,21.32-23.54,2.09-2.17,5.39-4.05,8.28-4.29,2.12-.18,4.48,2.54,7.06,4.17Z"/>
    <path class="cls-2" d="m2370.75,1086.16c-8.11-10.79-19.55-13.91-31.57-15.8-1.64-.26-3.34-.48-4.86-1.09-3.87-1.54-5.84-4.43-4.79-8.63.91-3.63,3.63-6.19,7.27-5.49,12.4,2.38,24.97,4.82,35.15,13,7.02,5.63,6.78,11.05-1.2,18Z"/>
    <path class="cls-2" d="m1699.23,1140.15c1.58.99,3.42,1.55,4.19,2.77,1.57,2.47,3.52,5.28,3.61,8.01.29,8.82,4.45,15.83,9.16,22.74.93,1.36,1.7,2.86,2.29,4.4,1.46,3.76-.25,6.59-3.31,8.44-3.12,1.88-6.64,1.94-8.96-1.23-7.14-9.74-13.22-20.06-13.45-32.59-.06-3.14,1.27-6.42,2.5-9.4.53-1.28,2.44-1.98,3.97-3.13Z"/>
    <path class="cls-2" d="m1697.83,1114.08c0,.99-.02,1.98,0,2.97.12,4.34-2.08,7.02-6.24,7.54-4.17.52-7.43-1.65-7.89-5.78-1.19-10.82-2.12-21.69-2.54-32.57-.15-3.95,1.48-8.04,6.58-8.48,3.9-.34,7.26,3.21,7.73,8.72.79,9.19,1.14,18.41,1.68,27.62.22,0,.45-.02.67-.03Z"/>
    <path class="cls-2" d="m1719.94,1033.53c-.59.98-1.28,3.64-2.96,4.63-6.78,3.99-9.81,10.56-13.11,17.1-1.33,2.63-2.82,5.61-5.1,7.19-2.08,1.44-5.98,2.4-7.87,1.36-2.02-1.11-2.98-4.7-3.71-7.39-.37-1.37.61-3.21,1.23-4.73,4.15-10.14,11.16-18.07,19.92-24.35,5.43-3.89,11.29-1.14,11.6,6.2Z"/>
    <path class="cls-2" d="m1939.88,1224.21c-1.98-1.42-5.34-2.62-6.12-4.75-.78-2.14.79-5.32,1.78-7.86.41-1.04,2.02-1.6,3.07-2.39,6.55-4.95,13.2-9.77,19.63-14.88,5.86-4.66,9.3-5.58,12.11-2.65,2.98,3.12,3.01,7.62-1.74,12.32-6.28,6.21-13.39,11.62-20.39,17.04-1.98,1.53-4.85,1.9-8.33,3.18Z"/>
    <path class="cls-2" d="m2631.74,1300.53c-1.43,6.77-2.14,12.04-3.72,17.03-1.29,4.1-4.45,6.9-9.16,5.56-4.39-1.25-4.71-5.16-4.38-8.94.6-6.9,1.01-13.85,2.29-20.63.46-2.45,2.79-5.49,5.01-6.37,1.69-.67,5.71,1.02,6.67,2.78,1.93,3.5,2.48,7.76,3.28,10.58Z"/>
    <path class="cls-2" d="m1828.66,1821.39c-19.43.76-36.82-10.39-49.23-29.41-4.73-7.25-10.26-11.71-18.36-13.83-7.98-2.09-14.53-6.66-19.62-13.1-2.32-2.93-6.66-5.95-3.15-10.28,3.14-3.87,6.84-.61,9.85.9,10.87,5.45,22.25,8.85,34.39,9.6,3.31.2,6.72.53,9.96.03,17.76-2.75,35.59-5.18,53.16-8.88,9.67-2.04,19.14-5.75,28.17-9.88,5.2-2.38,10.86-6.17,13.66-10.9,5.94-10.01,21.81-10.29,29.6-2.11,7.12,7.48,9.53,19.24,3.73,27.59-13.54,19.5-28.26,37.99-49.94,49.41-12.98,6.84-26.19,10.78-42.23,10.86Zm-13.09-18.15c11.49,6.73,28.94,5.75,36.65-1.87-7.02-4.05-16.48,1.73-24.34-6.59,4.45-1.52,7.55-3.05,10.81-3.58,7.54-1.22,15.28-1.41,22.72-3.01,16.27-3.5,31.18-9.63,40.12-25.02,1.95-3.35,4.19-6.84,1.64-11.13-34.98,17.95-72.41,26.87-111.41,31.98,2.71,7.48,6.92,10.39,13.89,10.46,5.26.05,11.11-1.96,16.7,2.7-2.56,2.29-4.61,4.12-6.78,6.06Z"/>
    <path class="cls-2" d="m1837.51,1680.98c-.25-1.52-1.15-3.31-.65-4.51,3.99-9.48,7.22-19.5,12.68-28.09,7.87-12.39,24.46-16.73,37.14-11.46,13.09,5.44,22.9,21.93,21.02,35.51-.12.87-.95,1.63-2.25,3.75-2.67-2.16-5.24-3.89-7.39-6.04-13.82-13.84-31.91-14.28-46.21-.82-4.25,4-8.07,8.46-12.09,12.71-.75-.35-1.5-.7-2.26-1.04Z"/>
    <path class="cls-2" d="m1520.64,2229.45c-19.97.32-39.84-.56-59.35-5.31-2.89-.7-5.71-1.77-8.52-2.77-11.44-4.05-16.21-12.26-16.77-24.3-.51-10.81-2.19-21.65-4.28-32.3-3.19-16.24-7.47-32.27-10.75-48.5-2.64-13.03,2.8-20.77,16.17-22,11.44-1.06,23.11-1.32,34.55-.42,32.9,2.59,65.43,7.61,95.89,21.19,23.98,10.7,45.92,24.46,60,47.61,10.94,18,9.15,34.79-8.75,46.71-10.72,7.14-22.49,11.36-34.85,14.22-20.83,4.82-41.99,6.36-63.33,5.85Z"/>
    <path class="cls-2" d="m1379.7,1885.38c.19-2.86.44-5.51.55-8.16.38-9.29,5.73-14.51,14.09-17.22,10.67-3.46,21.46-3.35,32.44-1.49,23.22,3.95,40.31,17.54,52.94,36.1,7.92,11.65,13.96,25.08,18.34,38.53,7.84,24.07-1.59,43.73-26.15,51.97-13.64,4.58-27.51,7.63-41.8,8.96-8.77.82-17.3.11-25.16-4.34-6.34-3.59-10.82-8.36-12.08-16.04-3.64-22.25-7.78-44.42-11.38-66.67-1.16-7.18-1.24-14.54-1.79-21.64Z"/>
    <path class="cls-2" d="m1985.2,639.74c-16.19-1.64-32.41-3-48.54-5.07-5.14-.66-10.31-2.68-14.98-5.06-5.35-2.73-6.27-6.01-4.37-11.59,6.52-19.17,12.97-38.38,19.84-57.43,2.58-7.17,6.19-13.96,9.4-20.9,4.43-9.61,12.84-11.93,22.32-11.65,10.23.31,18.02,5.44,20.47,14.5,4.5,16.67,8.2,33.56,12.31,50.33,2.45,10,5.22,19.92,7.52,29.95,2.6,11.36-.46,15.5-11.98,16.47-3.96.33-7.97.05-11.95.05-.01.13-.03.26-.04.39Z"/>
    <path class="cls-2" d="m1358.69,1341.89c0-6.32-.24-12.65.06-18.95.45-9.5,5.91-15.35,15.21-16.89,17.48-2.9,26.34,2.51,31.16,19.8,3.65,13.12,6.71,26.41,9.86,39.66.68,2.87.74,5.92.81,8.89.13,5.76-2.86,9.4-8.26,11-13.74,4.07-27,2.25-39.81-3.67-4.21-1.94-6.71-5.45-7.22-10.08-1.08-9.88-2.01-19.78-3-29.67l1.19-.07Z"/>
    <path class="cls-5" d="m1815.57,1803.24c2.17-1.94,4.22-3.77,6.78-6.06-5.59-4.66-11.44-2.64-16.7-2.7-6.97-.07-11.17-2.98-13.89-10.46,39.01-5.12,76.43-14.04,111.41-31.98,2.55,4.3.3,7.78-1.64,11.13-8.94,15.39-23.84,21.52-40.12,25.02-7.44,1.6-15.18,1.78-22.72,3.01-3.26.53-6.36,2.07-10.81,3.58,7.86,8.32,17.32,2.54,24.34,6.59-7.71,7.62-25.16,8.6-36.65,1.87Z"/>
  </g>
  <g>
    <path class="cls-3" d="m1199.07,622.47h2002.67v1660.36h-2002.67V622.47Zm1514.66,1309.25c.99-1.34,1.9-2.73,2.99-3.99,10.97-12.62,22.34-24.92,32.86-37.9,12.84-15.84,25.57-31.85,37.31-48.51,22.17-31.42,41.63-64.52,58.47-99.09,2.28-4.69,4.84-9.03,4.85-14.97.03-8.65,1.98-17.36,3.65-25.94,4.15-21.22,8.61-42.38,12.92-63.57,3.07-15.04,6.41-30.04,9.06-45.14,3.43-19.5,6.04-39.15,9.5-58.64,3.01-16.89,6.9-33.64,10.04-50.51,3.87-20.86,6.19-41.87,4.77-63.15-.76-11.27-10.62-21.19-20.69-18.54-15.24,4.03-30.12,9.61-44.9,15.2-11.43,4.33-22.57,9.46-33.65,14.65-9.23,4.33-18.49,8.75-27.15,14.09-5.53,3.41-10.78,8.18-11.94,15.15-1.22,7.32-1.37,14.8-2.33,22.15-1.45,11.11-3.01,22.23-4.87,33.28-1.39,8.25-3.4,16.39-4.99,24.61-3.32,17.14-6.29,34.34-9.9,51.41-2.89,13.64-6.72,27.08-9.71,40.71-1.94,8.84-3.22,17.84-4.62,26.79-1.15,7.36-2.31,14.73-2.99,22.12-1.26,13.88-2.09,27.81-3.26,41.7-1.57,18.65-3.45,37.28-4.94,55.94-1.8,22.51-3.94,45.01-4.82,67.56-1.09,27.95-.35,55.9,4.29,84.57h.04Zm-449.58-1259.1c.6,3.73,1.05,6.93,1.61,10.1,2.51,13.93,5.1,27.86,7.58,41.79,2.6,14.59,4.93,29.23,7.73,43.78,2.59,13.43,5.67,26.78,8.5,40.16,3.91,18.54,7.37,37.16,16.97,54.01,7.49,13.11,16.68,24.45,28.89,33.58,13.97,10.44,29.61,17.35,45.97,22.74,14.57,4.8,29.36,8.96,44.14,13.08,25.77,7.18,50.93,16.59,77.88,19.3,13.67,1.38,27.21,1.8,40.53-1.46,14.57-3.56,27.97-9.93,32.87-25.35,3.17-9.95,5.17-20.65,5.36-31.05.34-18.94-.62-37.96-1.87-56.88-.99-15.01-3.19-29.93-5.02-44.87-.14-1.14-1.38-2.49-2.47-3.15-14.46-8.78-28.84-17.72-43.54-26.09-10.23-5.83-20.92-10.87-32.03-16.58.46,6.71.95,12.5,1.24,18.29.99,19.26,2.57,38.53,2.6,57.8.02,11.27-5.78,21.29-14.07,28.75-9.08,8.16-20.02,13.25-32.52,15.11-21.12,3.15-41.6,2.75-60.74-7.97-13.18-7.38-22.59-17.94-26.23-32.88-1.6-6.58-3.11-13.2-4.12-19.88-3.12-20.6-6.46-41.19-8.77-61.88-1.82-16.29-2.16-32.75-3.39-49.11-.11-1.45-1.77-3.69-3.08-4.01-16.79-3.92-33.62-7.7-50.5-11.2-10.78-2.24-21.66-3.98-33.53-6.12v-.02Zm-891.31,770.78c2.98.46,5.74.89,8.51,1.32,12.27,1.91,24.57,3.65,36.8,5.77,9.73,1.68,14.67,8.27,16.88,17.4,5.5,22.73,11.23,45.39,16.53,68.16,5.48,23.58,10.35,47.3,15.96,70.85,1.41,5.95,3.74,12.08,7.2,17.06,4.85,6.98,12.79,9.71,21.18,10.57,10.25,1.06,20.52,2.75,30.77,2.74,9.81-.01,15.99-3.56,15.55-15.91-.35-9.61-1.1-19.22-2.09-28.78-1.14-11.01-2.56-22-4.21-32.96-2.07-13.69-4.42-27.35-6.78-41.01-2.57-14.94-4.91-29.93-8.03-44.77-4.8-22.88-10.18-45.63-15.29-68.44-3.13-13.97-5.37-28.21-9.49-41.89-7.27-24.11-15.65-47.89-23.63-71.79-5.01-14.99-9.97-29.98-15.32-44.85-3.4-9.46-10.13-16.15-20.54-16.03-12.45.14-24.88,1.87-37.31,2.99-3.48.31-5.09,2.31-5.83,5.88-2.76,13.44-6.1,26.77-8.85,40.22-1.8,8.8-2.93,17.75-4.35,26.63,9.19,3.07,14.07,9.41,16.41,18.12,2.34,8.73,5.39,17.3,7.36,26.1,1.98,8.81,3.33,17.8,4.32,26.78.54,4.93-3.37,9.66-8.07,10.52-5.53,1.01-11.15,1.7-16.77,2.04-3.55.22-7.15-.45-10.93-.73v54.01h.01Zm794.66,727c1.88,0,3.21.07,4.53-.01,11.3-.64,22.61-1.26,33.9-2,9.12-.59,18.28-.92,27.33-2.09,18.98-2.46,37.88-5.4,56.82-8.13,3.67-.53,5.67-2.42,5.95-6.29.21-2.93,1.06-5.82,1.51-8.74,1.83-11.73,4.32-23.42,5.24-35.22,1.08-13.75.04-27.56-2.8-41.16-3.53-16.91-6.51-33.96-10.61-50.74-3.15-12.88-7.53-25.48-11.63-38.12-3.33-10.26-7.12-20.38-10.62-30.59-3.87-11.3-7.9-22.57-11.39-33.99-3.03-9.91-6.77-13.61-16.81-13.01-8.74.52-17.55,1.58-26.06,3.58-14.47,3.41-28.79,7.5-43.04,11.78-10.88,3.26-22.18,6.01-32.12,11.21-14.19,7.41-18.47,15.57-14.6,30.96,2.63,10.46,6.34,20.68,9.96,30.87,3.61,10.17,7.65,20.18,11.62,30.22,4.83,12.2,10.75,24.06,14.45,36.59,5.31,17.99,9.02,36.45,13.41,54.71,3.24,13.48,2.75,26.88-.66,40.28-1.61,6.35-2.85,12.81-4.4,19.9h.03Zm261.53-51.58c1.4-.39,2.69-.59,3.84-1.1,27.85-12.64,55.67-25.33,83.54-37.94,3.83-1.74,5.33-4.62,5.45-8.6.28-9.23.41-18.46,1.05-27.66.82-11.74,1.26-23.61,3.32-35.16,4.83-27.14,10.05-54.24,16.04-81.15,3.75-16.86,9.06-33.4,13.93-50,5.38-18.35,11.3-36.54,16.51-54.93,2.69-9.54.26-16.71-6.28-19.48-3.53-1.5-7.8-2.1-11.65-1.86-17.64,1.09-35.29,2.24-52.86,4.18-8.56.94-17.33,4.11-20.82,12.68-6.34,15.56-11.83,31.5-16.92,47.52-3.78,11.93-6.59,24.17-9.43,36.37-3.85,16.53-7.57,33.1-10.84,49.75-1.37,7-1.33,14.26-2.12,21.39-1.21,10.94-2.86,21.83-3.83,32.8-1.04,11.76-1.41,23.56-2.28,35.34-1.18,16.05-2.51,32.08-3.87,48.11-.83,9.73-1.82,19.44-2.79,29.76h.02Zm-347.07,49.47c0-2.32.21-4.16-.03-5.93-1.68-11.92-3.07-23.89-5.34-35.7-2.33-12.11-5.63-24.03-8.38-36.07-4.85-21.21-10.43-42.3-14.12-63.71-2.75-15.93-3.11-32.27-4.36-48.45-.49-6.39-3.86-12.04-10.27-12.9-6.98-.93-14.36-.96-21.28.23-15.67,2.72-31.17,6.42-46.72,9.77-9.05,1.95-18.33,3.22-27.05,6.14-12.6,4.23-16.12,11.78-13.36,24.7.69,3.22.96,6.54,1.38,9.82,1.44,11.16,2.9,22.33,4.3,33.49,2.24,17.71,4.68,35.4,6.6,53.13,1.42,13.19,2.06,26.46,3.33,39.66.13,1.37,1.96,3.34,3.34,3.69,12.41,3.11,24.83,6.28,37.39,8.74,14.53,2.85,29.19,5.05,43.82,7.42,8.79,1.43,17.58,2.84,26.41,3.89,7.88.93,15.81,1.36,24.35,2.05h-.01Zm-123.54-1481.55c.06.32.13.64.19.96,7.11.41,14.25.67,21.35,1.25,10.94.89,21.91,1.56,32.76,3.14,11.37,1.67,17.62,8.5,19.52,19.93,1.54,9.25,2.77,18.55,4.44,27.78,2.05,11.3,4.4,22.55,6.66,33.81,2.2,10.94,4.31,21.9,6.71,32.81,2.3,10.44,5.37,20.72,7.32,31.21,2.49,13.37,9.92,21.46,23.36,23.91,4.88.89,9.83,1.48,14.76,2.09,15.17,1.89,30.37,1.98,45.15-2.18,12.27-3.45,17.69-11.72,16.15-24.05-1.12-8.99-2.87-17.91-4.07-26.89-1.53-11.44-2.9-22.92-4.18-34.4-2.05-18.2-4.94-36.38-5.67-54.63-.72-17.95-3.88-35.44-6.41-53.08-.4-2.81-1.67-3.95-4.63-3.79-14.99.76-30.02.92-44.97,2.16-18.45,1.53-36.91,3.4-55.23,6.04-19.2,2.76-38.27,6.5-57.36,10.01-5.36.98-10.58,2.61-15.87,3.95h0Zm757.8,220.15c-.47.11-.95.22-1.41.34.46,10.27,1.09,20.53,1.37,30.8.46,16.82.73,33.67,1.04,50.49.36,19.4.79,38.8.99,58.2.16,16.05.09,32.1-.01,48.14-.02,3.62-.89,7.25-.85,10.87.1,8.17,1.17,16.38.68,24.51-1,16.53,11.18,37.51,34.96,33.78,17.4-2.73,32.18-10.48,45.25-21.11,16.25-13.23,27.36-30.33,32.74-50.95,3.13-11.99,3.31-23.28-3.55-34.11-3.51-5.54-6.74-11.25-10.08-16.89-17.39-29.41-36.74-57.49-58.04-84.23-7.4-9.29-14.9-18.49-22.65-27.49-6.59-7.64-13.61-14.92-20.43-22.36h0Zm-823.35-201.59c-3.9,1.46-6.62,2.53-9.37,3.48-27.97,9.7-55.2,21.13-81.88,33.92-4.85,2.33-6.25,5.38-6.52,10.15-.48,8.59-1.23,17.17-2.04,25.74-1.25,13.34-2.69,26.67-3.93,40.02-.83,8.91-1.52,17.85-2.13,26.78-.71,10.43-1.84,20.88-1.69,31.31.15,11.12,7.82,17.22,18.08,14.75,13.44-3.23,26.81-6.88,40.02-10.91,15.87-4.85,25.57-15.57,27.66-32.16,2.3-18.22,3.6-36.56,6.24-54.73,2.66-18.43,6.43-36.7,9.7-55.04,1.93-10.8,3.81-21.61,5.87-33.31h0Zm-266.44,1270.7c.56-.23,1.12-.45,1.68-.68,0-1.96-.11-3.94.02-5.88,1.27-20.23-5.57-38.95-12.21-57.33-7.19-19.92-16.42-39.15-25.44-58.36-7.2-15.37-15.29-30.33-23.19-45.36-10.22-19.45-25.78-33.68-45.22-43.55-16.37-8.3-34.07-12.91-52.09-16.1-6.39-1.13-12.92-1.44-20.35-2.21,44.51,88.59,103.46,164.55,176.81,229.48h-.01Zm43.89-1153.17c-7.79,6.32-15.56,12.38-23.03,18.76-13.36,11.4-27,22.55-39.7,34.65-21.13,20.12-41.68,40.84-60.09,63.53-3.54,4.36-4.65,9.06-2.32,13.25,2.69,4.84,9,8.68,13.67,6.96,9.53-3.52,19.32-6.97,27.96-12.16,14.99-9,29.46-18.94,43.61-29.21,9.37-6.8,18.32-14.37,26.55-22.49,6.99-6.9,12.33-15.85,13.05-25.58,1.14-15.57.3-31.28.3-47.73h0Z"/>
    <path class="cls-5" d="m2709.57,1926.64c-4.64-28.67-5.38-56.64-4.29-84.57.88-22.55,3.03-45.05,4.82-67.56,1.49-18.66,3.36-37.29,4.94-55.94,1.17-13.89,2-27.82,3.26-41.7.68-7.41,1.84-14.78,2.99-22.12,1.4-8.95,2.68-17.95,4.62-26.79,2.99-13.62,6.82-27.06,9.71-40.71,3.6-17.08,6.58-34.27,9.9-51.41,1.59-8.22,3.61-16.36,4.99-24.61,1.86-11.05,3.42-22.16,4.87-33.28.96-7.37,1.11-14.85,2.33-22.15,1.16-6.97,6.41-11.73,11.94-15.15,8.66-5.34,17.92-9.77,27.15-14.09,11.08-5.19,22.22-10.32,33.65-14.65,14.77-5.59,29.65-11.17,44.9-15.2,10.06-2.66,19.94,7.26,20.69,18.54,1.42,21.28-.9,42.29-4.77,63.15-3.14,16.87-7.03,33.62-10.04,50.51-3.46,19.49-6.07,39.14-9.5,58.64-2.66,15.11-6,30.11-9.06,45.14-4.32,21.19-6.15,43.71-10.29,64.93-3.06,16.34-4.06,17.39-4.09,26.04-.02,5.93-4.77,8.82-7.05,13.51-16.84,34.57-36.3,67.66-58.47,99.09-11.74,16.65-24.47,32.67-37.31,48.51-10.52,12.98-21.89,25.28-32.86,37.9-1.09,1.24-2,2.65-2.99,3.99h-.04Z"/>
    <path class="cls-5" d="m2264.16,676.18c11.86,2.15,22.75,3.88,33.53,6.12,16.88,3.51,33.71,7.29,50.5,11.2,1.31.3,2.97,2.55,3.08,4.01,1.23,16.36,4.48,33.52,6.3,49.81,2.31,20.7,4.54,33.02,7.66,53.62,1.01,6.69,7.08,25.08,8.68,31.64,6.68,13.26,10.82,16.64,24,24.02,19.14,10.72,34.54,7.74,55.66,4.6,12.5-1.87,22.58-8.69,31.66-16.85,8.29-7.46,11.76-17.13,11.74-28.4-.03-19.26.08-28.42-.91-47.69-.29-5.79-1.12-10.76-1.59-17.46,11.12,5.71,24.59,9.23,34.82,15.06,14.7,8.37,29.09,17.31,43.54,26.09,1.09.66,2.33,2,2.47,3.15,1.83,14.95,4.03,29.87,5.02,44.87,1.25,18.92,2.21,37.94,1.87,56.88-.19,10.41-2.19,21.11-5.36,31.05-4.9,15.42-18.3,21.78-32.87,25.35-13.32,3.26-26.86,2.83-40.53,1.46-26.95-2.7-52.11-12.13-77.88-19.3-14.78-4.12-29.57-8.28-44.14-13.08-16.35-5.38-31.98-12.3-45.97-22.74-12.23-9.14-21.41-20.47-28.89-33.58-9.6-16.83-13.06-35.47-16.97-54.01-2.82-13.39-5.91-26.73-8.5-40.16-2.8-14.55-5.14-29.19-7.73-43.78-2.48-13.93-5.06-27.86-7.58-41.79-.58-3.17-1.02-6.37-1.61-10.1v.02Z"/>
    <path class="cls-5" d="m1381.26,1442.9l-1.4-56.88s6.16,2.01,9.71,1.79c5.61-.34,11.24-1.02,16.77-2.04,4.71-.86,8.62-5.59,8.07-10.52-.99-8.98-2.34-17.97-4.32-26.78-1.98-8.8-5.01-17.37-7.36-26.1-2.34-8.71-7.39-13.71-16.58-16.79,1.43-8.89,2.72-19.15,4.51-27.96,2.73-13.45,6.08-26.78,8.85-40.22.74-3.58,2.35-5.57,5.83-5.88,12.43-1.12,24.86-2.85,37.31-2.99,10.41-.12,21.14,6.38,24.53,15.82,5.35,14.87,10.99,31.32,16,46.3,7.99,23.89,13.83,47.04,21.11,71.15,4.13,13.67,9.13,34.36,12.26,48.34,5.11,22.81,7.19,39.17,11.99,62.05,3.12,14.84,5.74,29.98,8.31,44.93,2.35,13.65,4.07,27.17,6.14,40.87,1.65,10.95,3.93,22.92,5.07,33.93.99,9.57,2.86,21.71,3.22,31.32.44,12.35-8.32,13.3-18.12,13.31-10.26.01-21.19-3.27-31.44-4.34-8.38-.86-16.32-3.59-21.18-10.57-3.46-4.98-5.79-11.1-7.2-17.06-5.61-23.55-10.48-47.27-15.96-70.85-5.3-22.77-11.03-45.43-16.53-68.16-2.21-9.13-7.15-15.71-16.88-17.4-12.24-2.11-25.03-2.5-37.31-4.41"/>
    <path class="cls-5" d="m2167.5,2165.8c1.55-7.09,2.78-13.54,4.4-19.9,3.4-13.4,3.89-26.8.66-40.28-4.39-18.26-8.1-36.72-13.41-54.71-3.69-12.53-9.62-24.39-14.45-36.59-3.98-10.04-8.01-20.06-11.62-30.22-3.62-10.19-7.31-20.41-9.96-30.87-3.88-15.39.41-23.55,14.6-30.96,9.95-5.2,21.25-7.95,32.12-11.21,14.25-4.28,28.57-8.36,43.04-11.78,8.51-2.01,12.88-3.15,21.61-3.67,10.04-.6,19.15-1.4,21.73,11.67,3.49,11.42,8.35,22.1,12.22,33.4,3.5,10.21,5.97,22.35,9.31,32.61,4.11,12.64,11.02,26.26,14.18,39.14,4.11,16.77,7.72,32.22,11.26,49.15,1.41,14.68,1.86,28.24.78,42-.93,11.81-3.07,23.5-4.89,35.23-.45,2.92-1.33,6.77-1.53,9.7-.27,3.87-3.77,4.53-7.45,5.06-18.94,2.73-37.85,5.67-56.82,8.13-9.05,1.17-18.21,1.5-27.33,2.09-11.3.73-22.6,1.36-33.9,2-1.33.08-2.66.01-4.53.01h-.03Z"/>
    <path class="cls-5" d="m2425.73,2112.51c.98-10.32,2.45-21.16,3.28-30.89,1.36-16.03,2.18-28.89,3.36-44.94.87-11.78,2.4-23.21,3.45-34.96.97-10.96,1.97-21.24,3.19-32.19.79-7.13,1.39-15,2.76-22,3.27-16.65,5.13-32.7,8.99-49.23,2.85-12.2,7.5-24.96,11.28-36.89,5.08-16.02,8.93-31.81,15.27-47.37,3.49-8.57,13.93-11.9,22.47-12.83,17.57-1.94,35.22-3.08,52.86-4.18,3.85-.24,9.99-1.55,13.52-.05,6.54,2.77,7.11,11.86,4.41,21.39-2.18,18.68-8.73,33.24-14.11,51.58-4.87,16.6-10.8,36.75-14.55,53.62-5.99,26.91-10.14,53.69-14.97,80.84-2.06,11.55-2.99,24.16-3.81,35.9-.65,9.2-.88,18.3-1.17,27.52-.12,3.99-3.84,6.31-7.69,8.05-27.87,12.61-55.68,25.3-83.54,37.94-1.14.52-2.44.71-3.84,1.1l-1.15-2.41Z"/>
    <path class="cls-5" d="m2083.73,2163.29c-8.54-.7-16.48-1.11-24.35-2.05-8.84-1.04-17.63-2.47-26.41-3.89-14.62-2.37-29.28-4.58-43.82-7.42-12.55-2.46-24.97-5.62-37.39-8.74-1.38-.35-3.21-2.33-3.34-3.69-1.27-13.21-1.91-26.48-3.33-39.66-1.92-17.74-4.36-35.43-6.6-53.13-1.41-11.16-2.86-22.33-4.3-33.49-.42-3.27-.7-6.6-1.38-9.82-2.77-12.92.76-20.48,13.36-24.7,8.72-2.92,18.01-4.2,27.05-6.14,15.56-3.34,31.05-7.05,46.72-9.77,6.92-1.2,14.31-1.16,21.28-.23,6.41.85,12.02,6.93,12.51,13.33,1.25,16.17.79,32.47,3.55,48.4,3.7,21.41,10.61,44,13.84,64.32,2.75,12.04,6.07,20.44,8.4,32.56,2.27,11.81,3.92,26.89,5.61,38.81.25,1.78,0,3.02,0,5.34h-1.39Z"/>
    <path class="cls-5" d="m1953.71,689.27c5.29-1.34,10.52-2.96,15.87-3.95,19.09-3.5,38.15-7.25,57.36-10.01,18.32-2.63,36.77-4.52,55.23-6.04,14.94-1.23,29.97-1.4,44.97-2.16,2.96-.15,13,1.65,13.4,4.46,2.52,17.65,5.24,35.33,5.96,53.28,1.82,19.02,2.59,37.44,4.4,55.37,2.03,12.04,3.66,23.94,5.19,35.4,1.21,8.98,3.24,17.69,4.36,26.68,1.54,12.33-12.26,19.74-24.52,21.67-14.78,4.16-29.97,4.07-45.15,2.18-4.93-.61-9.88-1.19-14.76-2.09-13.44-2.45-20.86-10.54-23.36-23.91-1.96-10.49-5.02-20.78-7.32-31.21-2.4-10.9-4.51-21.86-6.71-32.81-2.26-11.26-4.61-22.51-6.66-33.81-1.67-9.23-2.9-18.53-4.44-27.78-1.91-11.42-8.15-18.26-19.52-19.93-10.84-1.59-21.82-2.25-32.76-3.14-7.1-.58-14.24-.84-21.35-1.25-.06-.32-.13-.64-.19-.96h0Z"/>
    <path class="cls-5" d="m2730.32,948c11.23,7.73,25.88,24.86,33.27,34.15,21.3,26.74,27.14,38.36,40.72,61.46,3.34,5.64,12.37,27.53,15.88,33.07,6.42,10.14,4.66,20.16,4.45,29.49,0,.43.12-.41,0,0-5.55,19.81-16.47,36.29-32.25,49.14-13.07,10.63-27.85,18.38-45.25,21.11-23.78,3.73-35.96-17.25-34.96-33.78.49-8.12-.58-16.33-.68-24.51-.04-3.62.83-7.25.85-10.87.1-16.05.17-32.1.01-48.14-.2-19.4-.63-38.81-.99-58.2-.31-16.83-.55-49.35-1.01-66.18"/>
    <path class="cls-5" d="m2710.37,919.27h0s.55,11.87.55,11.88"/>
    <path class="cls-5" d="m1897.85,706.6c-2.14,7.15-2.9,14.09-6.33,31.87-3.27,18.34-7.39,38.21-10.07,56.64-2.63,18.16-3.12,36.97-5.42,55.19-2.1,16.59-15.96,27.83-31.83,32.68-13.22,4.04-27.39,6.54-40.83,9.77-10.26,2.47-20.02-2.56-20.18-13.69-.14-10.43.37-21.56,1.07-31.99.61-8.93,1.63-18.51,2.46-27.43,1.24-13.35,2.76-26.59,4.02-39.94.8-8.57,1.28-17.14,1.77-25.74.26-4.76,4.25-7.64,9.1-9.97,26.69-12.79,53.92-24.22,81.88-33.92,2.75-.95,4.85-1.33,8.76-2.78l5.61-.7Z"/>
    <path class="cls-5" d="m1637.12,1971.96c-73.35-64.93-132.29-140.89-176.81-229.48,7.43.78,13.96,1.07,20.35,2.21,18.02,3.19,35.72,7.8,52.09,16.1,19.45,9.87,35,24.09,45.22,43.55,7.9,15.04,15.99,29.99,23.19,45.36,9.01,19.22,18.24,38.45,25.44,58.36,6.64,18.38,13.48,37.1,12.21,57.33-.12,1.96-.02,3.93-.02,5.88-.56.23-1.12.45-1.68.68h.01Z"/>
    <path class="cls-5" d="m1678.21,823.58c0,16.45-.58,32.16-1.72,47.73-.72,9.73-6.05,18.68-13.05,25.58-8.24,8.12-17.18,15.69-26.55,22.49-14.16,10.27-28.63,20.21-43.61,29.21-8.64,5.19-17.34,10.47-27.96,12.16-4.67,1.73-10.98-2.13-13.67-6.96-2.33-4.19-1.22-8.89,2.32-13.25,18.42-22.69,38.96-43.42,60.09-63.53,12.7-12.1,26.34-23.24,39.7-34.65,7.49-6.38,15.25-12.45,23.03-18.76h1.42Z"/>
  </g>
</svg>