<?xml version="1.0" encoding="UTF-8"?>
<svg id="Layer_1" data-name="Layer 1" xmlns="http://www.w3.org/2000/svg" viewBox="0 0 3840 2160">
  <defs>
    <style>
      .cls-1 {
        fill: #fff;
      }
    </style>
  </defs>
  <path class="cls-1" d="m0,2160C0,1440,0,720,0,0c1280,0,2560,0,3840,0,0,720,0,1440,0,2160-1280,0-2560,0-3840,0Zm503.17-880.29c2.29-11.82,1.61-550.1-1.02-558.08-54.12.07-108.56-.27-163.75.59-.03,77.19,0,153-.02,228.49-13.16,2.56-126.72,1.96-134.89-.87v-226.72c-11.11-2.2-157.55-1.95-165.21.2v556.13c8.58,2.25,155.21,2.29,165.13-.19,0-3.85,0-8.08,0-12.3.05-75.99.08-151.97.16-227.96,0-4.19.35-8.38.52-12.32,15.6-2.38,126.83-1.75,133.96.81.48,83.87-.14,168.01.39,251.76,11.93,3.06,154.05,3.15,164.73.46Zm2143.54-237.24c.92-.1,1.83-.2,2.74-.3,1.24,2.97,2.72,5.87,3.69,8.93,6.48,20.29,13.18,40.53,19.21,60.95,15.65,53,30.98,106.09,46.47,159.14,2.83,9.71,2.89,9.86,10.77,9.88,33.66.07,67.33-.09,100.99.14,5.81.04,8.19-2.14,9.58-7.58,4.05-15.79,8.65-31.45,12.98-47.17,30.24-109.75,60.48-219.51,90.68-329.28.92-3.36,1.44-6.83,2.31-11.08-4.48-.31-7.74-.68-11.01-.74-10.99-.22-21.99-.56-32.98-.42-17.75.22-15.81-3.44-21.21,15.18-10.74,37.08-20.34,74.5-30.55,111.74-7.92,28.89-16.03,57.73-24.17,86.56-.94,3.34-2.68,6.46-4.04,9.69-.8-.03-1.59-.06-2.39-.09-24.44-73.45-44.98-148.1-66.62-222.37-2.37-.31-3.99-.71-5.62-.71-37.66-.04-75.32-.08-112.99,0-7.25.01-7.75.29-10.05,8.4-5.62,19.85-10.79,39.83-16.33,59.7-13.59,48.74-27.27,97.46-40.98,146.16-.91,3.25-2.33,6.36-3.51,9.53-.85-.05-1.69-.09-2.54-.14-22.03-74.12-44.06-148.25-66.04-222.21-2.69-.32-4.32-.67-5.96-.68-49.32-.29-98.64-.56-147.96-.74-2.1,0-4.2.87-6.62,1.41,40.9,131.69,81.56,262.58,122.35,393.92h121.12c22.95-79.49,45.81-158.65,68.67-237.82Zm-1592.44,237.47h151.27v-12.1c0-77.33,0-154.65,0-231.98,0-15.33.13-30.67-.07-45.99-.06-4.67.92-8.28,4.93-11.15,7.57-5.42,14.62-11.61,22.39-16.72,11.25-7.39,23.52-12.67,37.24-13.15,23.96-.85,43.17,8.82,46.51,37.25.81,6.93,1.47,13.93,1.44,20.9-.06,12.32-.95,24.63-1.05,36.95-.34,41.33-.61,82.65-.66,123.98-.04,33.66.22,67.32.48,100.98.03,3.83.9,7.66,1.37,11.44h150.58c.3-6.91.76-13.15.79-19.39.19-37.99.43-75.98.38-113.97-.08-55.33-.38-110.65-.65-165.98-.07-14.8-2.02-29.2-9.44-42.43-9.76-17.4-22.27-32.49-38.52-44.04-45.78-32.51-94.79-35.69-146.06-14.92-20.31,8.23-37.8,20.93-54.2,35.26-3.89,3.4-8.08,6.48-14.23,11.38-1.02-17.13,2.86-32.17-2.05-46.29-10.91-2.05-142.56-1.68-150.46.5v399.46Zm-270.42,15.74c16.3.25,36.49-1.83,56.38-6.22,62.46-13.79,111.34-46.68,142.05-103.65,24.6-45.63,31.6-94.58,21.26-145.25-15.83-77.62-60.77-131.55-136.02-157.61-57.5-19.91-116.05-18.41-173.75.12-42.74,13.73-77.9,38.91-103.47,76.23-34.75,50.71-45.49,106.85-33.36,166.65,13.61,67.11,51.23,116.93,113.27,147.04,34.47,16.73,71.41,22.9,113.64,22.69Zm1175.33-186.34c.6-3.5.98-5.11,1.14-6.75,3.19-32.97-.41-65.32-10.96-96.57-21.57-63.9-64.08-107.73-128.9-127.54-52.09-15.93-105.09-16.65-157.61-1.26-49.65,14.55-88.82,43.75-115.47,88.3-32.8,54.82-39.72,113.8-24.2,175.28,22.06,87.36,94.58,146.86,184.53,153.12,22.68,1.58,45.24,1.59,67.86-.29,25.62-2.13,50.96-5.95,75.36-14.24,44.56-15.13,75.33-45.2,93.88-88.11,2.46-5.68,4.66-11.58,3.63-18.54h-65.8c-2.45,6.33-4.98,12.78-7.44,19.26-6.74,17.74-17.77,32.17-34.4,41.43-39.54,22.02-80.65,24-121.97,6.13-22.82-9.87-36.75-27.68-39.65-53.47-2.77-24.63-1.63-49.21-.95-73.82.02-.57.61-1.12,1.66-2.92h279.29Zm1360.03,63.25c-2.63,6.86-5.27,13.3-7.57,19.86-7.34,20.97-21.34,36.21-41.23,45.34-36.91,16.94-74.79,17.76-112.7,3.49-21.57-8.11-34.59-24.44-39.8-46.66-6.4-27.29-4.2-54.98-2.7-82.58.03-.6.6-1.17,1.55-2.93,3.61,0,7.87,0,12.13,0,85,0,170,.01,254.99-.04,4.17,0,8.35-.56,12.57-.87.39-3.06.78-5.01.87-6.97,1.09-25.06.08-49.99-5.63-74.51-17.07-73.26-60.1-123.98-132.04-147.54-49.52-16.22-100.34-16.83-150.9-4.14-38.59,9.69-73.1,27.8-100.01,57.49-56.07,61.86-69.31,134.65-47.49,213.32,21.33,76.92,88.05,142.87,185.68,148.21,29.76,1.63,59.29,1.2,88.75-2.69,27.22-3.59,53.38-10.79,78-23.56,34.1-17.69,55.2-46.26,69.57-80.71,1.83-4.38,3.8-9.18,1.42-14.49h-65.45Zm-1366.04-290.03c1.8,5.63,2.99,10.1,4.63,14.4,28.83,75.24,57.62,150.5,86.63,225.67,18.22,47.22,36.76,94.32,55.23,141.44,6.21,15.84,9.57,32,4.85,48.81-6.38,22.74-17.17,43.28-32.33,61.41-5.63,6.72-12.49,12.01-21.08,14.6-5.46,1.64-10.91,2.59-16.92-1.23,1.75-3.55,3.56-6.67,4.86-9.99,2.31-5.86,5.37-11.68,6.26-17.79,4.76-32.71-20.31-65.03-53.1-69.82-43.91-6.42-78.62,35.89-72.77,76.63,4.11,28.68,20.36,49.22,46.11,61.16,42.56,19.74,99.25,18.11,139.56-25.34,20.72-22.33,35.04-48.56,46.54-76.4,27.97-67.71,55.52-135.59,83.32-203.36,31.59-77,63.28-153.97,94.87-230.97.67-1.64.74-3.53,1.39-6.89-16.27,0-31.56-.04-46.85.01-8.99.03-8.82.16-12.25,8.34-23.03,54.96-46.1,109.91-69.25,164.82-2.68,6.35-5.88,12.48-8.84,18.72-.77.01-1.54.03-2.3.04-25.22-64.59-49.3-129.63-74.45-194.26h-164.1Zm1493.48-143.66v542.1c48.93.11,97.37.31,145.57-.14,2.16-12.29,1.69-534.24-.41-541.96h-145.17Zm211.64,0v541.49h144.7c2.23-11.21,1.77-533.42-.47-541.49h-144.23Z"/>
  <path d="m503.17,1279.71c-10.68,2.69-152.8,2.61-164.73-.46-.53-83.75.09-167.89-.39-251.76-7.13-2.56-118.36-3.18-133.96-.81-.17,3.94-.52,8.13-.52,12.32-.08,75.99-.12,151.97-.16,227.96,0,4.22,0,8.45,0,12.3-9.92,2.47-156.55,2.44-165.13.19v-556.13c7.65-2.15,154.1-2.4,165.21-.2v226.72c8.17,2.83,121.73,3.44,134.89.87.03-75.5,0-151.3.02-228.49,55.19-.85,109.63-.52,163.75-.59,2.63,7.98,3.32,546.26,1.02,558.08Z"/>
  <path d="m2646.71,1042.48c-22.86,79.17-45.72,158.33-68.67,237.82h-121.12c-40.8-131.35-81.45-262.23-122.35-393.92,2.42-.54,4.52-1.42,6.62-1.41,49.32.18,98.64.45,147.96.74,1.63,0,3.26.36,5.96.68,21.98,73.96,44.01,148.09,66.04,222.21.85.05,1.69.09,2.54.14,1.18-3.17,2.6-6.28,3.51-9.53,13.71-48.71,27.39-97.42,40.98-146.16,5.54-19.87,10.71-39.85,16.33-59.7,2.29-8.11,2.8-8.39,10.05-8.4,37.66-.08,75.32-.04,112.99,0,1.63,0,3.26.4,5.62.71,21.64,74.27,42.17,148.92,66.62,222.37.8.03,1.59.06,2.39.09,1.37-3.22,3.1-6.35,4.04-9.69,8.15-28.83,16.25-57.67,24.17-86.56,10.21-37.24,19.81-74.65,30.55-111.74,5.4-18.62,3.46-14.97,21.21-15.18,10.99-.13,21.99.21,32.98.42,3.27.06,6.54.43,11.01.74-.87,4.25-1.39,7.72-2.31,11.08-30.2,109.77-60.44,219.52-90.68,329.28-4.33,15.72-8.93,31.38-12.98,47.17-1.39,5.43-3.77,7.62-9.58,7.58-33.66-.23-67.32-.07-100.99-.14-7.88-.02-7.94-.17-10.77-9.88-15.49-53.05-30.82-106.14-46.47-159.14-6.03-20.43-12.73-40.66-19.21-60.95-.98-3.06-2.45-5.96-3.69-8.93-.92.1-1.83.2-2.74.3Z"/>
  <path d="m1054.27,1279.95v-399.46c7.9-2.18,139.55-2.56,150.46-.5,4.91,14.12,1.03,29.16,2.05,46.29,6.16-4.9,10.34-7.98,14.23-11.38,16.4-14.33,33.88-27.03,54.2-35.26,51.28-20.77,100.28-17.59,146.06,14.92,16.26,11.54,28.76,26.64,38.52,44.04,7.42,13.23,9.37,27.63,9.44,42.43.26,55.33.56,110.65.65,165.98.06,37.99-.18,75.98-.38,113.97-.03,6.24-.5,12.48-.79,19.39h-150.58c-.47-3.78-1.34-7.61-1.37-11.44-.26-33.66-.53-67.32-.48-100.98.05-41.33.32-82.66.66-123.98.1-12.32.99-24.63,1.05-36.95.03-6.96-.63-13.97-1.44-20.9-3.34-28.43-22.55-38.1-46.51-37.25-13.72.48-25.99,5.76-37.24,13.15-7.77,5.11-14.82,11.29-22.39,16.72-4.01,2.87-5,6.48-4.93,11.15.21,15.33.07,30.66.07,45.99,0,77.33,0,154.65,0,231.98v12.1h-151.27Z"/>
  <path d="m783.85,1295.69c-42.23.21-79.17-5.96-113.64-22.69-62.04-30.11-99.66-79.93-113.27-147.04-12.12-59.8-1.39-115.94,33.36-166.65,25.57-37.32,60.74-62.5,103.47-76.23,57.69-18.53,116.24-20.03,173.75-.12,75.25,26.05,120.19,79.99,136.02,157.61,10.33,50.66,3.33,99.62-21.26,145.25-30.71,56.97-79.59,89.86-142.05,103.65-19.89,4.39-40.08,6.47-56.38,6.22Zm56.61-209.07c-.5,0-.99,0-1.49,0,0-7.32.04-14.64,0-21.96-.17-24.62.19-49.26-.75-73.85-.68-17.99-3.81-35.77-11.22-52.45-7.72-17.39-20.2-29.08-39.93-30.21-20.16-1.15-37.42,4.97-49.03,22.82-6.27,9.64-9.95,20.29-12.42,31.38-5.16,23.22-6.06,46.83-5.81,70.5.33,30.29.88,60.58,1.29,90.87.21,15.63-.19,31.3.6,46.9,1.02,20.01,4.32,39.53,13.01,58.04,17.12,36.45,72.99,32.72,88.41,2.98,3.65-7.04,7.03-14.37,9.35-21.93,6.29-20.54,7.78-41.81,7.95-63.17.16-19.98.03-39.95.03-59.93Z"/>
  <path d="m1959.18,1109.34h-279.29c-1.05,1.8-1.65,2.35-1.66,2.92-.68,24.62-1.82,49.2.95,73.82,2.9,25.78,16.83,43.59,39.65,53.47,41.32,17.88,82.43,15.89,121.97-6.13,16.63-9.26,27.66-23.69,34.4-41.43,2.46-6.48,4.99-12.93,7.44-19.26h65.8c1.03,6.96-1.18,12.86-3.63,18.54-18.55,42.91-49.33,72.99-93.88,88.11-24.41,8.28-49.74,12.11-75.36,14.24-22.62,1.88-45.18,1.87-67.86.29-89.96-6.27-162.47-65.76-184.53-153.12-15.52-61.47-8.6-120.46,24.2-175.28,26.66-44.55,65.83-73.75,115.47-88.3,52.53-15.39,105.52-14.66,157.61,1.26,64.82,19.82,107.33,63.64,128.9,127.54,10.55,31.25,14.15,63.61,10.96,96.57-.16,1.63-.54,3.25-1.14,6.75Zm-162.04-51.89c.51-3.04,1.1-4.94,1.1-6.85.06-20.63.71-41.28-.19-61.87-.75-17.3-3.79-34.4-12.16-50.02-9.96-18.58-25.85-27-46.53-27.07-21.07-.08-37.32,8.33-47.35,27.37-5.81,11.03-8.65,22.97-10.42,35.2-3.75,25.84-2.02,51.8-1.62,77.73.02,1.54.72,3.06,1.38,5.66,38.72-.18,77.11.6,115.8-.15Z"/>
  <path d="m3319.21,1172.59h65.45c2.38,5.31.41,10.12-1.42,14.49-14.37,34.45-35.47,63.02-69.57,80.71-24.62,12.77-50.78,19.96-78,23.56-29.46,3.89-58.98,4.31-88.75,2.69-97.63-5.34-164.35-71.29-185.68-148.21-21.81-78.66-8.58-151.45,47.49-213.32,26.91-29.69,61.42-47.8,100.01-57.49,50.56-12.69,101.38-12.07,150.9,4.14,71.94,23.56,114.97,74.28,132.04,147.54,5.71,24.52,6.73,49.45,5.63,74.51-.09,1.96-.48,3.92-.87,6.97-4.23.31-8.4.87-12.57.87-85,.05-170,.04-254.99.04-4.26,0-8.52,0-12.13,0-.95,1.76-1.52,2.33-1.55,2.93-1.5,27.61-3.7,55.29,2.7,82.58,5.21,22.22,18.24,38.54,39.8,46.66,37.92,14.27,75.79,13.45,112.7-3.49,19.89-9.13,33.89-24.37,41.23-45.34,2.3-6.56,4.94-12.99,7.57-19.86Zm-85.04-115.47c1.93-28.61,2.82-55.87-1.25-82.94-1.61-10.74-4.57-21.52-8.55-31.62-6.71-17.02-19.71-27.63-38.02-30.11-28.75-3.89-52,5.14-62.08,36.84-2.21,6.93-3.58,14.19-4.72,21.39-3.98,25.1-3.25,50.42-3.07,75.7.02,3.51.88,7.01,1.38,10.75h116.32Z"/>
  <path d="m1953.17,882.56h164.1c25.15,64.64,49.23,129.68,74.45,194.26.77-.01,1.54-.03,2.3-.04,2.96-6.23,6.16-12.36,8.84-18.72,23.15-54.91,46.22-109.86,69.25-164.82,3.43-8.19,3.26-8.32,12.25-8.34,15.29-.05,30.58-.01,46.85-.01-.66,3.35-.72,5.25-1.39,6.89-31.59,77-63.28,153.96-94.87,230.97-27.8,67.78-55.35,135.66-83.32,203.36-11.5,27.83-25.82,54.06-46.54,76.4-40.3,43.45-97,45.07-139.56,25.34-25.76-11.94-42-32.48-46.11-61.16-5.84-40.74,28.86-83.05,72.77-76.63,32.79,4.79,57.86,37.11,53.1,69.82-.89,6.11-3.95,11.93-6.26,17.79-1.31,3.32-3.11,6.44-4.86,9.99,6.01,3.82,11.46,2.88,16.92,1.23,8.59-2.59,15.45-7.88,21.08-14.6,15.17-18.12,25.95-38.67,32.33-61.41,4.72-16.8,1.36-32.96-4.85-48.81-18.46-47.13-37-94.22-55.23-141.44-29.01-75.17-57.8-150.43-86.63-225.67-1.65-4.3-2.84-8.77-4.63-14.4Z"/>
  <path d="m3446.66,738.9h145.17c2.1,7.72,2.57,529.67.41,541.96-48.21.46-96.64.25-145.57.14v-542.1Z"/>
  <path d="m3658.3,738.9h144.23c2.24,8.07,2.69,530.28.47,541.49h-144.7v-541.49Z"/>
  <path class="cls-1" d="m840.46,1086.62c0,19.98.12,39.95-.03,59.93-.17,21.36-1.66,42.63-7.95,63.17-2.32,7.56-5.69,14.89-9.35,21.93-15.43,29.74-71.29,33.47-88.41-2.98-8.69-18.5-11.98-38.03-13.01-58.04-.8-15.6-.39-31.26-.6-46.9-.41-30.29-.96-60.58-1.29-90.87-.26-23.67.65-47.28,5.81-70.5,2.47-11.09,6.15-21.74,12.42-31.38,11.61-17.85,28.87-23.97,49.03-22.82,19.73,1.12,32.2,12.82,39.93,30.21,7.41,16.68,10.53,34.46,11.22,52.45.94,24.59.58,49.23.75,73.85.05,7.32,0,14.64,0,21.96.5,0,.99,0,1.49,0Z"/>
  <path class="cls-1" d="m1797.14,1057.45c-38.69.75-77.08-.03-115.8.15-.65-2.6-1.35-4.13-1.38-5.66-.4-25.93-2.13-51.89,1.62-77.73,1.77-12.23,4.61-24.17,10.42-35.2,10.03-19.04,26.28-27.45,47.35-27.37,20.68.08,36.58,8.49,46.53,27.07,8.37,15.62,11.41,32.72,12.16,50.02.89,20.59.25,41.24.19,61.87,0,1.9-.59,3.8-1.1,6.85Z"/>
  <path class="cls-1" d="m3234.17,1057.12h-116.32c-.5-3.73-1.36-7.24-1.38-10.75-.18-25.28-.91-50.6,3.07-75.7,1.14-7.2,2.52-14.46,4.72-21.39,10.08-31.7,33.33-40.73,62.08-36.84,18.31,2.48,31.3,13.09,38.02,30.11,3.99,10.11,6.94,20.88,8.55,31.62,4.07,27.07,3.18,54.32,1.25,82.94Z"/>
</svg>