<?xml version="1.0" encoding="UTF-8"?>
<svg id="Layer_1" data-name="Layer 1" xmlns="http://www.w3.org/2000/svg" viewBox="0 0 512 141">
  <defs>
    <style>
      .cls-1 {
        fill: #6c6b6a;
      }

      .cls-2 {
        fill: #f26725;
      }

      .cls-3 {
        fill: #f76423;
      }

      .cls-4 {
        fill: #f8f8f9;
      }

      .cls-5 {
        fill: #f5f5f5;
      }

      .cls-6 {
        fill: #ebecec;
      }

      .cls-7 {
        fill: #292628;
      }

      .cls-8 {
        fill: #c5c6c8;
      }

      .cls-9 {
        fill: #f56524;
      }

      .cls-10 {
        fill: #f0f0f1;
      }

      .cls-11 {
        fill: #404042;
      }

      .cls-12 {
        fill: #0a0607;
      }

      .cls-13 {
        fill: #fcddce;
      }

      .cls-14 {
        fill: #7f807f;
      }

      .cls-15 {
        fill: #bbbdbf;
      }

      .cls-16 {
        fill: #f16725;
      }

      .cls-17 {
        fill: #fbfbfb;
      }

      .cls-18 {
        fill: #d5d6d8;
      }

      .cls-19 {
        fill: #fa6122;
      }

      .cls-20 {
        fill: #e5e6e7;
      }

      .cls-21 {
        fill: #f6b395;
      }

      .cls-22 {
        fill: #e0e1e2;
      }

      .cls-23 {
        fill: #6b6b6a;
      }

      .cls-24 {
        fill: #dadbdc;
      }

      .cls-25 {
        fill: #d0d1d2;
      }

      .cls-26 {
        fill: #4e4e50;
      }

      .cls-27 {
        fill: #9fa0a0;
      }

      .cls-28 {
        fill: #fefefe;
      }

      .cls-29 {
        fill: #5c5d5e;
      }

      .cls-30 {
        fill: #f88c63;
      }
    </style>
  </defs>
  <path class="cls-28" d="m512,71.5v55.5h-4c0,1.03.03,1.9,0,2.77-.04.78.31,1.04,1.04.98.99-.09,1.98-.16,2.97-.24v10.5h-116c-.1-.19-.21-.38-.31-.57.19-.39.52-.77.53-1.16.04-2.34.01-4.68,0-7.03,0-1.5,0-3,0-4.5l-.02-15.75c0-1.01.37-2.25-1.18-2.43-2.1-.25-4.22-.51-6.33-.53-4.66-.03-8.64,1.46-10.83,5.89-.7,1.41-1.11,3.08-1.21,4.66-.24,3.63.26,7.12,3.49,9.5,2.34,1.71,5.07,1.94,7.86,1.86h2c.95-.06,1.91-.12,2.93-.19.04.46.08.85.11,1.24-.01,2.33-.06,4.65-.01,6.98,0,.5.33.99.5,1.48-.01.18-.02.36-.03.54H0v-49.5c.17,0,.34,0,.5,0,.09.01.17.02.26.03,2.41.02,4.81,0,7.22.08,1.3.05,1.54-.51,1.54-1.71-.03-26.68-.02-53.35-.02-80.03,0-.46-.03-.91-.04-1.37,0-2.02.05-4.04,0-6.06,0-.4-.31-.8-.47-1.2-.09-.01-.17-.02-.26-.04-.25-.02-.49-.04-.74-.06-.08-.01-.17-.02-.25-.04-.25.01-.51.02-.76.03-.41.01-.83.02-1.24.04-.25,0-.5,0-.74,0-.09,0-.18,0-.26,0-.25,0-.49,0-.74,0-.09,0-.17,0-.26,0-.25,0-.49,0-.74,0-.09,0-.18,0-.26,0-.25,0-.49.02-.74.03-.09,0-.17,0-.26,0-.25,0-.49-.01-.74-.02-.09-.01-.17-.03-.26-.04C.5,1.18.25,1.21,0,1.25V0C105.08,0,210.17,0,315.25,0c.06.26.13.52.2.81-.24.13-.47.25-.7.37-.25,0-.49.01-.74.02-.09,0-.18,0-.26,0-.25,0-.49,0-.74-.01-.09,0-.18,0-.26-.01-.17-.02-.33-.03-.5-.05-.17.02-.33.04-.5.06-.1.6-.28,1.2-.28,1.81,0,27.19,0,54.38,0,81.57,0,1.5.06,2.99.09,4.49,0,.21,0,.43,0,.64q-.14,1.82,1.93,1.84c1.4.21,2.81.41,4.21.62.1.02.21.04.31.07.31.05.62.11.94.16.11.03.22.05.32.08,1.07.11,2.15.29,3.22.32,7.69.18,15.38.48,22.99-1.05.1-.02.21-.04.31-.05,4.3-.7,8.42-1.96,12.22-4.15.44-.24.89-.49,1.33-.73,1.25-.87,2.57-1.66,3.75-2.61,4.15-3.35,6.8-7.61,7.64-12.93,0-.09.01-.18.02-.27.02-.4.05-.8.07-1.21h.04c.1-.52.2-1.04.3-1.57.01-.99.02-1.98.03-2.97v-.27c-.08-.57-.16-1.14-.24-1.72.01-.04.04-.08.03-.11-.02-.07-.06-.14-.09-.21-.39-1.69-.62-3.43-1.19-5.05-1.83-5.17-5.21-9.03-10.08-11.65-2.64-1.43-5.52-1.98-8.32-2.83-.09-.28-.17-.57-.26-.85,2.26-1.29,4.69-2.35,6.75-3.91,3.5-2.64,5.96-6.08,6.79-10.52.74-3.99.59-7.94-.34-11.87,0-.04.03-.08.03-.11-.02-.07-.06-.13-.09-.2-1.63-5.24-5.05-8.98-9.8-11.56-3.39-1.84-7.03-2.9-10.86-3.36-.09-.02-.18-.03-.26-.05-.08-.01-.16-.04-.24-.08,0-.21,0-.42,0-.63.24-.09.48-.19.72-.28,47.25,0,94.5,0,141.75,0,0,.33,0,.66,0,1,0,0,0,0,0,0-.25.06-.5.13-.75.19-.56.37-1.32.62-1.65,1.14-1.52,2.38-2.94,4.83-4.38,7.27-5.24,8.88-10.48,17.77-15.72,26.66-4.29,7.27-8.57,14.55-12.85,21.83-1.49,2.54-2.96,5.1-4.45,7.65-.75,1.24-1.54,2.46-2.25,3.72-.26.47-.66,1.28-.47,1.5.37.44,1.07.7,1.68.81.77.14,1.57.07,2.36.07,9.98.02,19.96.06,29.94.06,3.57,0,7.15-.07,10.72-.1.06.07.12.13.18.2-.02.17-.04.33-.05.5,0,.09-.01.18-.02.27,0,.66,0,1.32,0,1.98,0,.09,0,.18,0,.27,0,5.33,0,10.65,0,15.98.03.12.07.24.1.36.38.2.74.52,1.15.59.65.11,1.33.08,1.99.05,1.9-.07,3.8-.16,5.7-.25.11-.08.22-.15.32-.23.06-.77.16-1.54.16-2.31,0-5.32-.04-10.65-.07-15.97.04-.08.04-.15,0-.22,0-.17-.01-.34-.02-.51.04-.25.08-.5.12-.75.16-.02.33-.04.49-.06.08,0,.16,0,.24,0,3.83,0,7.67,0,11.5,0l.12.03.12-.03c.42-.06.84-.11,1.26-.17.08-.01.17-.03.25-.04,0,0-.03.08-.03.08.07-.03.15-.07.22-.1.18,0,.37.02.55.03Zm-280.03,9.03c-.08-.08-.16-.16-.24-.24-1-3.42-2-6.85-3-10.27-.01-.1-.02-.2-.03-.29-.37-1.27-.74-2.53-1.1-3.81-.86-3.06-1.72-6.12-2.58-9.18-.02-.09-.05-.19-.07-.28-1.75-6.23-3.5-12.45-5.25-18.68-.04-.11-.08-.22-.12-.32-.21-.57-.41-1.14-.62-1.71-.7-2.54-1.4-5.09-2.13-7.63-.1-.33-.38-.61-.58-.92-.08-.02-.16-.03-.24-.05-2.34.02-4.67.03-7.01.05-.08,0-.16,0-.24,0-.53.39-1.69-.6-1.77.8.05.18.11.35.16.53,1.13,3.49,2.26,6.97,3.39,10.46.25.79.5,1.57.74,2.36.87,2.86,1.7,5.73,2.61,8.58,1.07,3.36,2.25,6.69,3.3,10.05,2.01,6.46,3.95,12.95,5.94,19.42,1.01,3.29,2.09,6.55,3.14,9.83,0,.03-.03.07-.03.1.02.07.05.13.07.19.44,2.27.12,1.84,2.33,2.09,1.44.16,2.9.05,4.36.06.09,0,.18,0,.27,0,.99-.08,1.97-.16,2.96-.23.09-.07.19-.14.28-.21,5.69-17.16,11.38-34.32,17.07-51.48.29.25.59.49.88.74.04.08.09.16.13.24.13.36.27.71.4,1.07.45,1.4.9,2.8,1.35,4.19.05.12.09.24.14.36.02.12.03.25.05.37.76,2.45,1.5,4.89,2.27,7.34,1.57,4.97,3.14,9.94,4.72,14.91,0,.03-.03.07-.03.1.02.07.05.13.07.19,2.32,7.24,4.64,14.47,6.96,21.71.06.1.12.2.18.3,1.77.14,3.54.28,5.3.42.09,0,.18,0,.26,0,1.25-.06,2.51-.12,3.76-.19.13-.11.27-.22.4-.34.04-.22.07-.45.11-.67.03-.03.08-.06.08-.08,0-.07-.03-.14-.05-.21.52-1.62,1.06-3.23,1.57-4.85,2.22-7.13,4.42-14.26,6.63-21.39,1.5-4.83,3.01-9.66,4.49-14.5.64-2.1,1.15-4.24,1.83-6.33,1.64-5.05,3.35-10.07,5.03-15.1.04-.11.08-.21.12-.32.01-.17.02-.34.03-.51-.17,0-.33-.02-.5-.03-.91,0-1.83-.01-2.74-.02-.09,0-.18,0-.26,0-1.25.01-2.49.02-3.74.04-.09,0-.17,0-.26,0-.25-.02-.5-.05-.75-.07-.16.04-.33.08-.49.12-.09.16-.17.33-.26.49-.03.1-.05.2-.08.31-1.41,4.72-2.83,9.44-4.24,14.16-.06.18-.12.36-.18.54-.56,2.06-1.13,4.12-1.69,6.17-.08.21-.16.42-.24.62-.04.23-.07.45-.11.68-.05.18-.11.37-.16.55-.08.31-.17.63-.25.94-.02.09-.04.19-.05.28-1,3.58-2.01,7.16-3.01,10.75-.05.18-.1.37-.15.55-.5,1.55-1,3.11-1.5,4.66-.02.11-.04.21-.06.32-.04.24-.07.49-.13.73-.73,2.66-1.48,5.31-2.21,7.96-.03.11-.07.22-.1.33-.16.38-.31.77-.47,1.15l-.15.27c-.05.08-.09.17-.14.25-.34,0-.69.02-1.03.03-.96-2.95-1.94-5.9-2.87-8.86-.98-3.11-1.93-6.24-2.89-9.36.02-.03.07-.07.06-.09-.03-.06-.07-.12-.11-.17-.24-.61-.53-1.22-.73-1.84-2.37-7.42-4.72-14.84-7.08-22.27-.75-2.37-1.49-4.75-2.23-7.12-.03-.11-.06-.22-.09-.33-.12-1.32-.86-1.84-2.14-1.72-.4.04-.81-.03-1.22-.04-.09,0-.18,0-.26,0-.25,0-.49,0-.74,0-.09,0-.18,0-.26,0-.25.03-.5.06-.74.09-1-.03-2-.05-2.99-.08-.09,0-.17,0-.26,0-.33,0-.66,0-.99-.01-.08.03-.16.05-.24.08-.36.9-.72,1.8-1.08,2.69-.23.68-.46,1.35-.69,2.03-.06.04-.07.09-.03.14-.06.2-.12.4-.18.6-.27.91-.53,1.83-.8,2.74-.24.59-.47,1.18-.71,1.77l-.21.52-.52,1.94c-.02.1-.04.19-.06.29-.37,1.23-.74,2.47-1.11,3.7-.05.1-.09.2-.14.3-1.82,5.66-3.63,11.31-5.45,16.97-.01.09-.03.19-.04.28-.76,2.49-1.52,4.98-2.29,7.47-.04.11-.08.21-.12.32-.28.78-.58,1.56-.82,2.35-.88,2.94-1.74,5.89-2.6,8.83-.23.1-.47.2-.7.3Zm161.51-6.03c-.07-.11-.14-.21-.21-.32-.27-.73-.54-1.45-.81-2.18l-.68-1.85c-.07-.4-.16-.8-.21-1.21-.29-2.41-.57-4.81-.84-7.22-.06-.54,0-1.04.76-.87.09,0,.17-.01.26-.02,3.74,0,7.47.02,11.21.02,12.01-.03,24.02-.05,36.03-.11.51,0,1.03-.31,1.54-.48.03-.02.09-.05.09-.07-.02-.07-.05-.13-.08-.19-.14-4.05.36-8.11-.68-12.14-.98-3.84-2.07-7.57-4.37-10.87-3.47-4.98-8.21-8.11-13.98-9.78-.11-.04-.22-.08-.32-.12-.64-.16-1.27-.32-1.91-.49-.18-.03-.37-.06-.55-.09-3.24-.15-6.47-.3-9.71-.45-.11.01-.22.03-.33.04-.5.06-.99.12-1.49.16-4.74.41-9.09,1.95-13.03,4.58-6.11,4.09-9.63,10.05-11.49,16.96-1.33,4.94-1.89,10.04-1.41,15.19.03.51.07,1.02.1,1.53.1.58.2,1.15.3,1.73.16.78.33,1.56.49,2.34.12.8.24,1.6.37,2.4.06.2.11.39.17.59.69,1.8,1.38,3.61,2.06,5.41.06.12.13.24.19.36.52.88,1.04,1.75,1.56,2.63.31.44.62.88.94,1.32,3.62,4.89,8.54,7.87,14.25,9.7,1.25.31,2.51.62,3.76.94.09.01.19.03.28.04.77.17,1.53.41,2.31.5,5.81.69,11.62.53,17.41-.29.11-.03.22-.05.32-.08,3.41-.5,6.82-1.02,9.93-2.65.08-.17.16-.33.24-.5-.11-.89-.21-1.79-.32-2.68-.03-.11-.07-.22-.1-.33-.25-.96-.45-1.94-.79-2.86-.09-.24-.69-.48-.99-.41-2.79.61-5.54,1.41-8.35,1.9-5.18.91-10.4.94-15.62.29-.19-.04-.37-.08-.56-.12-.31-.04-.63-.09-.94-.13-.11-.03-.22-.06-.33-.09-2.01-.63-4.09-1.09-6.01-1.93-3.7-1.62-6.36-4.43-8.32-7.93-.05-.07-.1-.13-.15-.2Zm-198.21,8.57c1.16-1.27,2.32-2.54,3.48-3.81,2.86-3.47,4.57-7.5,5.73-11.79.73-2.72,1.32-5.46,1.07-8.33-.15-1.81.14-3.67-.17-5.45-.95-5.51-2.98-10.56-6.24-15.19-3.63-5.13-8.43-8.65-14.02-11.24-4.87-2.26-10.03-2.62-15.34-2.59-5.19.03-9.93,1.45-14.4,3.86-7.34,3.95-12.57,9.85-15.68,17.59-1.37,3.41-2.4,6.95-2.36,10.63.04,3.76.03,7.55,1.17,11.23,1.01,3.23,2.09,6.39,4.2,9.1,1.15,2.43,3.08,4.2,5.02,5.97,1.97,2.1,4.11,3.99,6.76,5.22,1.58.75,3.17,1.49,4.75,2.24,3.44,1.45,7.06,2.02,10.75,2.28,1,0,2.01,0,3.01,0,2.72-.43,5.5-.66,8.15-1.36,2.2-.58,4.24-1.73,6.35-2.63,1.5-.93,3.06-1.77,4.48-2.81,1.18-.85,2.19-1.93,3.28-2.9Zm84.21,29.19c0-.42.07-.85-.03-1.24-.13-.52-.25-1.27-.62-1.47-1.45-.78-2.55.04-2.46,1.7.02.42.03.83.03,1.25,0,5.66-.03,11.32-.02,16.98,0,.39.12,1.1.26,1.12.89.13,1.82.21,2.69.05.23-.04.42-.97.43-1.49.04-3.62-.15-7.25.06-10.86.23-3.84,2-6,5.8-5.79.33.02.67-.03,1-.03,1.4,0,.96-1.09,1.06-1.82.11-.77-.21-1.16-1.11-1.25-2.76-.28-4.81.92-6.57,2.86-.17,0-.35,0-.52,0Zm171.91.25c.03-.54.05-1.08.1-1.62.11-1.05-.27-1.51-1.39-1.5-1.71.02-1.82.07-1.77,1.83,0,.37.02.75.02,1.12-.01,5.67-.03,11.33-.02,17,0,.43.12,1.21.28,1.23.84.15,1.75.23,2.57.06.26-.06.49-.96.5-1.48.05-3.66-.15-7.34.12-10.99.27-3.69,2.16-5.89,5.71-5.68.29.02.59-.05.87-.02,1.13.1,1.15-.64,1.16-1.45.01-.86-.01-1.49-1.18-1.6-2.85-.27-4.86,1.04-6.54,3.14-.14-.01-.27-.03-.41-.04Zm-222.64,0c-.14-.01-.28-.03-.42-.04,0-.5.02-1,0-1.49-.03-1.45-.28-1.63-1.82-1.66-1.22-.03-1.28.68-1.28,1.62.02,5.95.01,11.9.01,17.84,0,2.04,0,1.99,2.04,2.01,1.07.01,1.46-.33,1.44-1.44-.05-3.87-.03-7.74,0-11.6.02-3.09,2.05-5.11,5.14-5.22.58-.02,1.23.13,1.72-.09.39-.17.76-.77.81-1.21.07-.61.39-1.56-.64-1.74-2.62-.46-5.39.66-7.01,3.04ZM80.77,29.99c-.19-.89-.38-1.78-.56-2.66-.07-.03-.14-.06-.21-.09-.66-.01-1.33-.03-1.99-.04-.09,0-.18,0-.26,0-.25,0-.49,0-.74,0-.09,0-.18,0-.26,0-.25,0-.49,0-.74,0-.09,0-.18,0-.26-.01-.24,0-.48.02-.71.02-.11,0-.21-.01-.32-.02-.56-.03-1.11-.06-1.67-.09-.11,0-.22,0-.33,0-1.01.1-.59.87-.67,1.41,0,.17,0,.34,0,.51.02,3.41.04,6.83.06,10.24-.02.21-.06.41-.06.62,0,16.37,0,32.75,0,49.12,0,.09,0,.18-.01.27-.01.48-.11.98-.01,1.43.07.33.41.6.63.89.11.02.23.05.34.07,2.74-.06,5.48-.12,8.22-.18.07-.09.15-.17.22-.26.02-.33.06-.66.06-.99,0-11.11,0-22.22,0-33.33,0-2.42.31-4.75,1.17-7.07,2.08-5.65,5.25-10.34,10.64-13.3,4.13-2.06,8.48-2.99,13.1-2.65.12.03.24.05.37.08,1.39.45,2.79.89,4.18,1.34,2.87,1.79,5.08,4.13,6.09,7.45.04.11.08.21.13.32.12.65.23,1.3.35,1.95-.01.03-.04.07-.03.1.01.06.04.13.06.19.14.84.28,1.67.42,2.51-.03.09,0,.16.06.23.06.78.18,1.57.18,2.35,0,6.98,0,13.96-.03,20.94-.02,6.48-.08,12.96-.12,19.44.07.24.15.47.22.71.14.03.28.07.41.1.11.03.22.05.32.08,2.77-.04,5.54-.08,8.3-.11.07-.06.14-.13.21-.19l.1-.78c0-.11-.02-.23-.02-.34.02-11.99.08-23.98.02-35.97-.02-3.11-.2-6.25-.67-9.31-.79-5.16-2.36-10.04-6.44-13.68-.74-.6-1.49-1.2-2.23-1.79-1.09-.56-2.18-1.12-3.27-1.69-.42-.15-.83-.3-1.25-.45-.5-.17-1-.33-1.5-.5-.32-.08-.64-.16-.96-.24l-.31-.05-8.94-.44c-.11.02-.22.04-.33.05-.98.13-1.96.26-2.94.39-.1.02-.2.03-.31.05-.74.24-1.47.47-2.21.71-.09-.03-.16-.02-.23.05-.25.08-.51.15-.76.23-1.36.63-2.72,1.27-4.08,1.9-.79.47-1.58.95-2.36,1.42-.42.29-.85.59-1.27.88-.28.24-.57.47-.85.71-1.72,1.85-3.45,3.69-5.17,5.54-.21,0-.42.01-.63.02-.05-.07-.07-.14-.07-.22,0-.53,0-1.05.01-1.58,0-1.64,0-3.29,0-4.93,0-.19,0-.38,0-.57,0-.15-.02-.3-.03-.45.02-.03.07-.07.06-.09-.02-.07-.05-.13-.08-.2Zm238.72,70.48c-5.62.06-9.68,2.73-12.18,7.63-1.99,3.9-1.98,8.11-1.1,12.31,1.16,5.51,4.62,8.99,10.04,10.22,3.63.82,7.37.57,11.01-.39.8-.21,1.45-.52,1.19-1.53-.27-1.07-1.14-1.62-2.11-1.25-2.47.95-5.03,1.11-7.61.79-3.69-.47-6.55-2.15-8.23-5.64-1.42-2.96-1.35-6.05-1.06-9.17.22-2.43,1.03-4.7,2.56-6.65,1.78-2.27,4.21-3.29,7.01-3.58,1.65.08,3.3.15,4.94.26.87.06,1.73.22,2.6.28.95.07,1.21-.68,1.28-1.38.03-.35-.31-.96-.62-1.08-2.48-.96-5.08-1.08-7.71-.83Zm-241.24,12.84h-14.17c-.03-.37-.08-.69-.08-1.01,0-3.5.01-6.99-.02-10.49,0-.38-.21-.97-.49-1.1-1.5-.7-2.82.2-2.83,1.85,0,8.99.01,17.98-.03,26.98,0,1.8,1.31,1.05,2.13,1.25.91.22,1.26-.22,1.24-1.15-.03-2.87-.01-5.75-.01-8.62,0-1.66,0-3.31,0-4.81h16.04v14.58c.85-.05,1.56,0,2.23-.16.33-.08.81-.53.82-.82.03-3.02-.02-6.04-.05-9.07,0-.42-.01-.83-.02-1.25,0-5.83,0-11.67-.01-17.5-.01-.17-.02-.33-.03-.5-.24-.25-.48-.5-.72-.74-.2-.03-.41-.09-.61-.1q-1.64-.08-1.64,1.59c0,2,0,3.99,0,5.99,0,1.65,0,3.31,0,4.99-.6.03-1.05.06-1.5.09-.08,0-.17,0-.25,0ZM60.27,2c.12-.28.24-.56.36-.84-.21.02-.42.05-.63.07-.65-.05-1.31-.09-1.96-.14-.11.01-.22.03-.34.04-.22,0-.44.01-.66.02-.11,0-.22.02-.33.03-.24,0-.47,0-.71-.01-.09,0-.17,0-.26,0-.25,0-.49,0-.74,0-.09,0-.17,0-.26,0-.25,0-.49,0-.74.01h-.26c-.25,0-.49,0-.74,0-.09,0-.18,0-.26,0-.25,0-.49,0-.74,0-.09,0-.17,0-.26,0-.72.31-1.68.43-2.13.97-3.35,4.08-6.63,8.23-9.89,12.39-4.18,5.33-8.32,10.7-12.49,16.04-3.53,4.52-7.08,9.04-10.64,13.54-.7.89-.65,1.59.13,2.4,1.15,1.21,2.24,2.47,3.3,3.75,4.04,4.87,8.04,9.76,12.1,14.62,6.8,8.15,13.63,16.28,20.46,24.4.66.78,1.44,1.46,2.17,2.19.08.03.17.07.25.1,3.53.23,7.06.36,10.92-.28-.88-.82-1.52-1.28-2.01-1.87-3.67-4.46-7.3-8.96-10.98-13.42-3.92-4.75-7.88-9.46-11.81-14.2-4.59-5.54-9.18-11.08-13.74-16.64-.22-.27-.29-.97-.1-1.22,2.39-3.15,4.83-6.25,7.26-9.36,4.55-5.84,9.09-11.69,13.67-17.5,3.99-5.06,8.03-10.07,12.05-15.1Zm52.73,107.63c0,1.04,0,2.04,0,3.03,0,5.54-.01,11.08.03,16.62,0,.49.25,1.28.59,1.41,1.8.68,2.8-.06,2.82-1.99.04-3.42,0-6.83.09-10.25.08-3.01,1.33-5.41,4.23-6.64,1.85-.79,4.29-.14,5.07,1.43.43.85.62,1.91.63,2.87.07,4.46.02,8.92.06,13.37,0,.41.23,1.08.52,1.18,1.97.72,2.88.07,2.89-1.97.02-3.87-.03-7.75.07-11.62.09-3.36,2.48-5.31,6.12-5.19,2.56.09,3.89,1.87,3.89,5.22,0,3.87,0,7.75,0,11.62,0,2.09,0,2.03,2.04,2.04,1.16,0,1.61-.41,1.47-1.54-.05-.37.01-.75,0-1.12-.09-4.2-.03-8.41-.32-12.6-.19-2.74-1.39-5.16-4.28-6.03-3.26-.98-6.35-.73-8.79,2.07-.34.39-.7.76-1.26,1.36-1.14-3.07-3.35-3.94-6.2-3.87-2.78.06-4.75,1.54-6.54,3.8-.37-3.73-.39-3.75-3.12-3.21Zm387.25-.15c-1.78-.15-3.43-.38-5.08-.42-5.43-.13-9.22,2.78-10.71,7.08-1.17,3.4-1.02,6.74.59,9.93,1.35,2.65,3.66,4.25,6.58,4.63,3.47.45,6.96.51,10.44-.15,1.09-.21,1.45-.57,1.44-1.68-.05-8.66-.03-17.32-.04-25.99,0-.67.04-1.34-.05-1.99-.04-.31-.28-.75-.54-.84-1.71-.63-2.67.04-2.67,1.8,0,2.12.02,4.25.02,6.37,0,.41,0,.81,0,1.25Zm-295.64,11.25c.5,0,.91,0,1.32,0,4.66.02,9.32.05,13.98.02.36,0,1.01-.4,1.03-.65.35-5.08-1.53-10.09-7.78-10.98-4.32-.62-8.21,1.05-10.16,4.29-1.68,2.79-1.91,5.76-1.58,8.9.49,4.55,3.75,8.13,8.26,8.44,2.83.2,5.71-.14,8.56-.31.43-.02,1.2-.41,1.19-.59-.04-.71-.31-1.42-.55-2.11-.03-.09-.37-.13-.55-.1-1.95.28-3.9.87-5.84.83-5.75-.14-7.64-2.75-7.88-7.74Zm259.45.01h1.36c4.62,0,9.25-.03,13.87.02,1.11.01,1.54-.39,1.43-1.46-.08-.78-.12-1.58-.23-2.35-.68-4.57-3.6-7.12-6.52-7.62-3.18-.55-6.34-.63-9.03,1.58-3.8,3.12-4.49,7.31-3.81,11.86.55,3.68,2.61,6.37,6.11,7.54,3.58,1.2,7.32.87,10.98.04.33-.07.74-.66.75-1.02.02-.61-.24-1.24-.39-1.89-2.43.93-4.79,1.28-7.41,1.03-4.72-.46-6.5-2.69-7.11-7.74Zm-36.31.04c.36-.02.72-.07,1.09-.07,4.29,0,8.58.02,12.87.02.54,0,1.12.06,1.61-.11.37-.13.87-.58.88-.9.09-4.99-1.72-9.82-7.9-10.59-5.4-.67-9.23,1.31-10.95,5.98-1.03,2.79-1.13,5.72-.4,8.71.93,3.8,3.34,6.06,6.97,6.82,3.22.67,6.55.59,9.78-.27.32-.08.76-.46.78-.73.05-.72-.1-1.45-.18-2.33-2.51,1.27-5.02,1.43-7.49,1.16-5.11-.57-6.83-2.59-7.06-7.68Zm-266.75-2.82c-.39,0-.73.06-1.04,0-2.63-.58-5.23-.23-7.79.35-2.96.67-5.05,3.36-5.08,6.34-.03,3.02,1.78,5.34,4.97,5.98,3.88.78,7.8.38,11.67-.22.3-.05.71-.71.71-1.08-.03-4.62-.03-9.25-.22-13.86-.15-3.47-2.08-5.82-5.3-6.09-2.96-.25-5.96.07-8.94.21-.25.01-.69.54-.67.8.05.74.3,1.47.48,2.25,2.24-1.08,4.41-.94,6.57-.87,3.7.11,5.45,2.41,4.65,6.21Zm177.96,13.04c5.29.02,8.23-2.01,9.9-6.43,1.69-4.46.66-10.09-2.37-12.94-4.06-3.8-12.22-3.72-15.65,1.59-1.07,1.66-1.78,3.45-1.71,5.39.07,2.18.05,4.51.83,6.48,1.65,4.18,4.99,6.2,9.01,5.9Zm-66.99-9.8c-.11-1.57,0-3.2-.38-4.71-1.15-4.61-5.01-8.02-10.99-7.42-2.84.29-5.22,1.33-6.88,3.66-2.51,3.53-2.9,7.38-1.62,11.5,1.19,3.81,3.68,6.1,7.6,6.63,2.73.36,5.49.44,7.91-1.35,2.81-2.07,4.31-4.78,4.36-8.31Zm82.05-11.57c0,6.76-.01,13.46,0,20.16,0,1.38,1.11.92,1.86.98.73.06,1.42.09,1.41-1.02-.04-3.46-.05-6.91-.02-10.37.04-4.01,2.63-7.63,7.39-7.44,2.92.11,4.28,1.19,4.33,4.1.08,4.33.03,8.66.04,12.99,0,1.79,0,1.79,1.82,1.75.21,0,.42-.03.62-.01.83.07,1.08-.34,1.08-1.12-.04-4.08.06-8.17-.11-12.24-.1-2.44-.41-4.93-2.46-6.72-3.04-2.66-9-2.11-11.78,1.11-.3.34-.65.64-1.08,1.06-.4-3.79-.47-3.85-3.1-3.21Zm-246.51,10.33h-.01c0-3.08,0-6.17,0-9.25,0-.36-.08-1.01-.2-1.03-.92-.14-1.87-.24-2.79-.15-.21.02-.47.85-.48,1.31-.03,5.37-.04,10.75,0,16.12,0,.95-.26,1.43-1.21,1.41-2.19-.04-4.39-.05-6.58-.2-.61-.04-1.24-.47-1.78-.84-1.4-.94-1.94-2.36-1.96-3.97-.05-4-.04-8-.06-12,0-1.96-.42-2.35-2.35-2.02-.34.06-.84.59-.85.91-.03,4.46-.09,8.92.07,13.37.15,3.97,3.05,6.75,6.97,7.19,3.43.38,6.81.09,10.2-.36.88-.12,1.03-.61,1.03-1.38-.03-3.04-.01-6.08-.01-9.12Zm65.05-6.93c0-.91-.05-1.53,0-2.14.12-1.39-.7-1.48-1.79-1.51-1.18-.04-1.37.48-1.36,1.5.03,6,.02,11.99.01,17.99,0,1.93,0,1.88,1.99,1.94,1.1.03,1.44-.35,1.42-1.44-.08-2.79-.11-5.58-.02-8.37.05-1.47.21-2.99.6-4.4.91-3.25,3.26-4.63,6.54-4.68,2.69-.04,3.87.72,4.65,3.31.24.78.36,1.63.37,2.45.04,3.87.02,7.75.02,11.62,0,.44,0,.89,0,1.45.65,0,1.14,0,1.63,0,.92,0,1.34-.38,1.33-1.36-.05-3.58.02-7.16-.07-10.74-.05-1.81,0-3.75-.61-5.41-1.55-4.19-7.9-5.72-11.63-2.95-1.02.76-1.91,1.69-3.09,2.75Zm247.44,6.85c0-3-.08-6,.03-8.99.05-1.48-.72-1.47-1.77-1.47-1.05,0-1.79,0-1.75,1.48.14,5.41.11,10.82.19,16.23.01.8-.26,1.18-1.02,1.22-1.62.07-3.24.21-4.85.15-3.74-.15-5.59-1.71-5.84-5.43-.28-4.06-.16-8.15-.2-12.23-.01-1.35-.21-1.47-2.02-1.52-1.26-.03-1.01.83-1.02,1.54,0,2.58-.03,5.16.02,7.74.03,1.87.07,3.75.26,5.6.38,3.67,2.74,6.07,6.38,6.59,3.58.51,7.13.17,10.68-.38.72-.11.94-.43.93-1.15-.04-3.12-.02-6.24-.02-9.37Zm-177.67-7.3c-.11-.05-.22-.11-.33-.16,0-.61-.05-1.23.01-1.84.14-1.25-.76-1.2-1.53-1.24-.81-.04-1.49.11-1.45,1.21.06,1.37.01,2.75.02,4.12.03,4.96.09,9.91.09,14.87,0,1.2.7,1.18,1.54,1.23.96.06,1.35-.25,1.33-1.25-.05-2.54-.1-5.09.01-7.62.09-1.89.34-3.8.7-5.66.38-2.02,2.25-3.54,4.31-3.71.58-.05,1.16-.06,1.75-.08,1.3-.04,1.21-.99,1.24-1.87.03-.96-.54-1.17-1.35-1.22-2.2-.14-3.98.68-5.44,2.28-.29.32-.6.64-.9.95Zm50.6,14.42c-.97,0-1.88.04-2.79-.01-1.1-.07-1.21.7-1.26,1.46-.06.86-.18,1.86.86,2.24,2.51.9,3.85-.28,3.36-2.9-.04-.2-.09-.4-.18-.78Z"/>
  <path class="cls-28" d="m490,0c.17,0,.33,0,.5,0,.01.05.03.11.04.16.07-.05.14-.11.21-.16,7.07,0,14.15,0,21.25,0v64.25c-.34.04-.69.07-1.03.11-.9-.02-1.81-.04-2.71-.06-3,0-6,.01-9,.02-.25,0-.51,0-.76.01-.25,0-.49,0-.74,0-.21-.26-.43-.52-.64-.78.03-.11.06-.22.09-.32,0-1.41,0-2.81,0-4.22.01-7.08.03-14.16.03-21.24,0-.23-.12-.46-.2-.76-1.57,0-3.11-.02-4.65,0-1.48.03-2.97.11-4.45.17l-.16.83c0,3.56-.01,7.13,0,10.69,0,4.27.04,8.54.05,12.8.03.66.06,1.33.09,1.99,0,.08,0,.17.01.25-.81.18-1.62.36-2.43.53-1.08,0-2.17.01-3.25.02h-26.31c.59-1.02.98-1.74,1.41-2.44,2.71-4.48,5.47-8.93,8.12-13.45,2.71-4.62,5.28-9.33,7.98-13.95,3.94-6.75,7.95-13.46,11.93-20.18,2.39-4.03,4.81-8.06,7.19-12.1.1-.16-.03-.46-.06-.7-.18-.07-.35-.14-.53-.21-.58-.17-1.16-.34-1.74-.51-.07-.16-.14-.31-.21-.47.02-.03.05-.07.05-.1-.01-.07-.05-.13-.07-.19Z"/>
  <path class="cls-16" d="m371.2,65.26c-.01.99-.02,1.98-.03,2.97-.1.53-.2,1.05-.3,1.58,0,0-.04-.01-.04-.01-.98.38-1.66,2.52-1.26,3.67-.46.4-1.04.69-1.25,1.15-.77,1.63-1.38,3.33-2.13,4.97-.19.41-.7.68-1.08.99-1.48,1.24-2.98,2.46-4.45,3.71-.59.5-1.12,1.07-1.81,1.75-.02-.06.01.15.11.32.1.17.26.31.4.46-.44.24-.89.49-1.33.73-.15-.49-.3-.99-.48-1.59-.33.18-.57.3-.8.45-1.26.84-2.04.42-2.27-1.05-.11-.65-.54-1.34-1.01-1.83-.51-.54-.53-.8.04-1.27.52-.43.93-.99,1.38-1.5.01.04.02.08.03.13,1.06-.71,2.12-1.42,3.19-2.12l-.17-.44c-.42-.11-.84-.23-1.26-.34.55-.68,1.11-1.37,1.66-2.05,1.54.64,1.91.42,2.4-1.54-.4-.12-.81-.25-1.22-.38.24-.52.48-1.04.72-1.56.56.33,1.21,1.57,1.71.19.45-1.24.47-2.65.55-3.99.05-.89-.39-1.51-1.43-1.39,0-.42,0-.83,0-1.25.82.33,1.27.14,1.22-.83-.01-.28.19-.57.16-.84-.16-1.51-.36-3.02-.57-4.69-.76.4-1.23.65-1.69.9-1.61-4.62-4.84-7.73-9.16-9.82-.1-.8-1.82-1.9-2.56-1.6-.13.05-.16.34-.24.52-.92-.25-1.83-.5-2.75-.75.47-.53.95-1.05,1.41-1.59.3-.35.87-.79.81-1.09-.29-1.56-.7-3.1-1.16-4.62-.37-1.23-.86-2.43-1.29-3.64.18-.09.35-.21.54-.28,3.59-1.37,6.14-3.92,7.88-7.24,1.32-2.52,1.48-5.31,1.35-8.12-.22-4.64-2.32-8.25-6.08-10.86-3.33-2.31-7.26-2.89-11.15-3.49-.1,0-.21-.02-.31-.03-4.56.05-9.12.11-13.67.16-.11.03-.22.06-.33.1-.39.05-.78.1-1.17.15-.11.02-.22.04-.34.06-.15.05-.29.1-.44.16-.07.15-.15.3-.22.45.02,2.21.06,4.42.06,6.62,0,7.46-.02,14.91-.03,22.37,0,.09,0,.18,0,.26-.02.17-.03.33-.05.5-.07.22-.14.45-.21.67-.13.24-.27.47-.38.71-.13.31-.14.71-.36.94-1.76,1.86-1.73,3.45.12,5.27.49.48.87,1.07,1.31,1.61-.15.03-.3.05-.45.08-.03.33-.07.65-.1.98.03.58.08,1.16.09,1.74.03,8.39.05,16.77.06,25.16,0,2.11-.08,4.23-.12,6.34-1.11-.31-.84-1.3-.96-2.05-.13-.82-.39-1.56-1.27-1.6-1.19-.06-2.4.04-3.59.18-1.73.2-2.19.97-1.65,2.64.14.43.39.86.41,1.3.02.41-.04,1.02-.31,1.23-1.09.84-1.35,1.89-.84,3.06.49,1.15-.83,2.85,1.09,3.39-.24.44-.43.79-.62,1.13q-2.07-.02-1.93-1.84c.21-.11.43-.21.64-.32-.21-.11-.43-.21-.64-.32-.03-1.5-.09-2.99-.09-4.49-.01-27.19-.02-54.38,0-81.57,0-.6.18-1.2.28-1.81.17-.02.33-.04.5-.06.17.02.33.03.5.05.09,0,.18,0,.26.01.25,0,.49,0,.74.01.09,0,.18,0,.26,0,.25,0,.49-.01.74-.02,1.15-.07,2.3-.15,3.46-.22,2.73,0,5.45,0,8.18.04.78.01.9-.38.87-.99C330.42,0,333.58,0,336.75,0c.31.33.58.86.95.94.66.14,1.39.02,2.09,0,.83-.02,1.67-.04,2.51-.06.24,0,.49.02.73.03.07.04.15.07.24.08.09.02.18.03.26.05,3.82.45,7.47,1.52,10.86,3.36,4.75,2.58,8.17,6.32,9.8,11.56-.02.03-.07.08-.06.1.03.07.08.13.12.2.93,3.93,1.08,7.89.34,11.87-.82,4.44-3.29,7.89-6.79,10.52-2.06,1.55-4.48,2.62-6.75,3.91-.48.13-.96.26-1.43.39.03.16.06.31.08.47h1.61c2.81.85,5.68,1.4,8.32,2.83,4.87,2.63,8.25,6.48,10.08,11.65.57,1.62.8,3.36,1.19,5.05.02.11.04.22.06.32.08.57.15,1.14.23,1.72-.03.03-.08.06-.08.08.02.07.06.13.09.19Z"/>
  <path class="cls-16" d="m9.47,8.5c.02.46.04.91.04,1.37,0,26.68-.01,53.35.02,80.03,0,1.19-.24,1.75-1.54,1.71-2.4-.08-4.81-.06-7.22-.08-.09-.01-.17-.02-.26-.03-.17,0-.34,0-.5,0C0,62.5,0,33.5,0,4.5c.33.79.57,1.63,1.01,2.37.65,1.11,1.21,2.47,2.2,3.14,2.21,1.51,4.21.92,5.84-1.29.09-.12.28-.15.42-.22Z"/>
  <path class="cls-3" d="m9.47,8.5c-.14.07-.34.11-.42.22-1.63,2.21-3.63,2.79-5.84,1.29-.99-.68-1.55-2.03-2.2-3.14-.43-.73-.68-1.57-1.01-2.37,0-1.08,0-2.17,0-3.25.25-.04.5-.07.75-.11.09.01.17.03.26.04.25,0,.49.01.74.02.09,0,.17,0,.26,0,.25,0,.49-.02.74-.03.09,0,.18,0,.26,0,.25,0,.49,0,.74,0,.09,0,.17,0,.26,0,.25,0,.49,0,.74,0,.09,0,.18,0,.26,0,.25,0,.5,0,.74,0,.41-.01.83-.02,1.24-.04.25-.01.51-.02.76-.03.08.01.17.02.25.04.25.02.49.04.74.06.09.01.17.02.26.04.16.4.46.8.47,1.2.04,2.02,0,4.04,0,6.06Z"/>
  <path class="cls-9" d="m498.49,64.32c.25,0,.51,0,.76-.01-.41,1.18-.75,2.23,1.03,2.69.66.17.71.95-.09,1.41-.45.26-.83.64-1.45,1.14,1.09.46,1.83.96,2.62,1.05.67.08,1.52-.15,2.04-.56.31-.24.21-1.12.14-1.69-.07-.6-.33-1.17-.59-2.02,1.38-.38,2.67-.74,3.96-1.1.55-.16,1.34,0,1.33-.95.9.02,1.81.04,2.71.06,0,.07,0,.14.03.21.16.15.32.3.49.44,0,0,.02.01.02.01.06.07.11.14.17.21.11.17.22.35.33.52v3.75c-.24.5-.48,1-.72,1.51-.09.18-.19.35-.28.53-.42.06-.84.11-1.26.17-.08,0-.16,0-.24,0-3.83,0-7.67,0-11.5,0,0-.07,0-.13,0-.2-.08-2.33-.16-4.66-.24-7,.24-.06.48-.12.73-.18Z"/>
  <path class="cls-23" d="m512,130.5c-.99.08-1.98.15-2.97.24-.73.07-1.08-.19-1.04-.98.04-.86,0-1.73,0-2.77h4v3.5Z"/>
  <path class="cls-30" d="m327.25,0c.03.61-.09,1.01-.87.99-2.72-.04-5.45-.03-8.18-.04-.15-.32-.3-.64-.45-.96,3.17,0,6.33,0,9.5,0Z"/>
  <path class="cls-13" d="m490.03.3c.07.16.14.31.21.47-.33,0-.66,0-.99-.01-.08,0-.17,0-.25,0-1.17.08-2.33.16-3.5.23,0-.33,0-.66,0-1,.42,0,.83,0,1.25,0h2.25C489.25,0,489.5,0,489.75,0c.09.1.18.2.28.3Z"/>
  <path class="cls-30" d="m339.79.94c-.7.01-1.42.14-2.09,0-.37-.08-.64-.61-.95-.94,1.42,0,2.83,0,4.25,0,.03.08.06.15.08.23-.43.24-.86.48-1.29.71Z"/>
  <path class="cls-13" d="m317.75,0c.15.32.3.64.45.96-1.15.07-2.3.15-3.46.22.23-.12.46-.25.7-.37-.07-.29-.13-.55-.2-.81.5,0,1,0,1.5,0h.25C317.25,0,317.5,0,317.75,0Z"/>
  <path class="cls-8" d="m393.5,141c.01-.18.02-.36.03-.54.72,0,1.44-.02,2.16-.03.1.19.21.38.31.57h-2.5Z"/>
  <path class="cls-30" d="m511.28,71.01c.24-.5.48-1,.72-1.51v2c-.18,0-.37-.02-.55-.03-.09.01-.16.04-.22.1,0,0,.03-.08.03-.08,0-.16.02-.33.03-.49Z"/>
  <path class="cls-13" d="m343.02.91c-.24,0-.49-.02-.73-.03-.07-.2-.14-.4-.22-.6.06-.09.12-.19.17-.28.17,0,.33,0,.5,0,.09.09.18.19.28.28,0,.21,0,.42,0,.63Z"/>
  <path class="cls-30" d="m512,65.75c-.11-.17-.22-.35-.33-.52-.06-.07-.11-.14-.17-.21,0,0-.02-.01-.02-.01-.16-.15-.32-.3-.49-.44-.03-.07-.03-.14-.03-.21.34-.04.69-.07,1.03-.11v1.5Z"/>
  <path class="cls-14" d="m342.25,0c-.06.09-.12.19-.17.28-.33-.02-.66-.04-1-.05-.02-.08-.05-.16-.08-.23C341.42,0,341.83,0,342.25,0Z"/>
  <path class="cls-14" d="m343.03.28c-.09-.09-.18-.19-.28-.28.33,0,.67,0,1,0-.24.09-.48.19-.72.28Z"/>
  <path class="cls-27" d="m490.75,0c-.07.05-.14.11-.21.16-.01-.05-.03-.11-.04-.16.08,0,.17,0,.25,0Z"/>
  <path class="cls-27" d="m490.03.3c-.09-.1-.18-.2-.28-.3.08,0,.17,0,.25,0,.03.06.06.13.07.19,0,.03-.03.07-.05.1Z"/>
  <path class="cls-16" d="m226.26,89.24c-1.05-3.28-2.13-6.54-3.14-9.83-2-6.47-3.93-12.95-5.94-19.42-1.05-3.37-2.23-6.69-3.3-10.05-.91-2.85-1.74-5.72-2.61-8.58-.24-.79-.49-1.57-.74-2.36,1.38-.17,2.76-.39,4.14-.48,1.36-.09,2.5-.35,3.12-1.77.18-.42.77-.67,1.17-1,.21.57.41,1.14.62,1.71.04.11.08.22.12.32,1.75,6.23,3.5,12.45,5.25,18.68-.02.03-.05.08-.04.1.03.06.07.12.11.18.86,3.06,1.72,6.12,2.58,9.18.36,1.27.73,2.54,1.1,3.81-.02.03-.07.07-.06.09.02.07.06.13.09.2,1,3.42,2,6.85,3,10.27.03.45.07.9.1,1.35.11.01.22.02.33.03.11-.31.22-.63.33-.94.06-.17.13-.33.19-.5.87-2.94,1.72-5.89,2.6-8.83.24-.79.55-1.57.82-2.35.04-.11.08-.21.12-.32.76-2.49,1.52-4.98,2.29-7.47.03-.03.08-.05.08-.08,0-.07-.02-.14-.04-.21,1.82-5.66,3.63-11.31,5.45-16.97.05-.1.09-.2.14-.3.37-1.23.74-2.47,1.11-3.7.02-.1.04-.19.06-.29.17-.65.35-1.29.52-1.94.07-.17.14-.35.21-.52.24-.59.47-1.18.71-1.77.27.51.53,1.01.93,1.77.52-1.24.83-2.19,1.29-3.05.74-1.38.34-2.17-1.22-2.2.23-.68.46-1.35.69-2.03.43.28.85.56,1.42.93.49-1.76,1.64-2.41,3.21-2.6.35-.04.63-.66.94-1.02.25-.03.5-.06.74-.09.09,0,.18,0,.26,0,.25,0,.49,0,.74,0,.09,0,.18,0,.26,0,.41.02.81.08,1.22.04,1.28-.11,2.02.41,2.14,1.72.03.11.06.22.09.33.74,2.37,1.48,4.75,2.23,7.12,2.35,7.42,4.71,14.85,7.08,22.27.2.63.48,1.23.73,1.84.02.09.03.17.05.26.96,3.12,1.9,6.25,2.89,9.36.94,2.96,1.91,5.91,2.87,8.86.15.5.31,1,.46,1.5.15.11.3.22.45.33.02-.27.05-.55.07-.82.02-.35.03-.69.05-1.04.05-.08.09-.17.14-.25.05-.09.1-.18.15-.27.16-.38.31-.77.47-1.15.03-.11.07-.22.1-.33.74-2.65,1.48-5.31,2.21-7.96.07-.24.09-.49.13-.73.02-.11.04-.21.06-.32.5-1.55,1-3.11,1.5-4.66.05-.18.1-.37.15-.55,1-3.58,2.01-7.16,3.01-10.75.02-.09.04-.19.05-.28.08-.31.17-.63.25-.94.05-.18.11-.37.16-.55.04-.23.07-.45.11-.68.08-.21.16-.42.24-.62.56-2.06,1.13-4.12,1.69-6.17.06-.18.12-.36.18-.54,1.41-4.72,2.83-9.44,4.24-14.16.03-.1.05-.2.08-.31.09-.16.17-.33.26-.49.16-.04.33-.08.49-.12.25.02.5.05.75.07.09,0,.17,0,.26,0,1.25-.01,2.49-.02,3.74-.04.09,0,.18,0,.26,0,.91,0,1.83.01,2.74.02.17,0,.33.02.5.03-.01.17-.02.34-.03.51-.04.11-.08.21-.12.32-1.68,5.03-3.39,10.06-5.03,15.1-.68,2.09-1.18,4.23-1.83,6.33-1.48,4.84-2.99,9.67-4.49,14.5-2.21,7.13-4.41,14.26-6.63,21.39-.5,1.62-1.04,3.24-1.57,4.85-.01.1-.02.19-.03.29-.04.22-.07.45-.11.67-.13.11-.27.22-.4.34-1.25.06-2.51.12-3.76.19-.09,0-.18,0-.26,0-1.77-.14-3.54-.28-5.3-.42-.06-.1-.12-.2-.18-.3-2.32-7.24-4.64-14.47-6.96-21.71.02-.03.06-.07.05-.1-.02-.07-.06-.13-.09-.19-1.57-4.97-3.15-9.94-4.72-14.91-.77-2.44-1.52-4.89-2.27-7.34,1.34-.12,1.57-.47,1.14-1.7-.16-.46-.24-.96-.42-1.42-.31-.78-.49-1.97-1.06-2.22-.96-.42-.94-.99-.94-1.73,0-.84-.4-1.01-1.1-.64-.19.24-.39.49-.58.73-5.69,17.16-11.38,34.32-17.07,51.48-.09.07-.19.14-.28.21-.99.08-1.97.16-2.96.23-.09,0-.18,0-.27,0-1.45-.01-2.92.1-4.36-.06-2.21-.25-1.89.18-2.33-2.09.02-.03.06-.07.05-.1-.02-.07-.06-.13-.1-.2Zm26.28-50.83c.15-.07.3-.14.45-.2.49,0,1.02.11,1.47-.02.86-.27,1.96-.46,2.43-1.09.56-.75.62-1.91.81-2.9.18-.91-.24-1.43-1.21-1.44-.66,0-1.34.08-1.99-.02-1.2-.18-2.17.34-2.54,1.32-.23.59.29,1.47.44,2.1.05.8.09,1.53.13,2.26Z"/>
  <path class="cls-2" d="m381.29,63c-.49-5.15.08-10.25,1.41-15.19,1.86-6.92,5.38-12.87,11.49-16.96,3.94-2.63,8.29-4.17,13.03-4.58.5-.04.99-.11,1.49-.16.11-.01.22-.03.33-.04,3.24.15,6.47.3,9.71.45.18.03.37.06.55.09.64.16,1.27.32,1.91.49.11.04.22.08.32.12,5.77,1.67,10.51,4.8,13.98,9.78,2.3,3.3,3.38,7.03,4.37,10.87,1.04,4.03.54,8.09.68,12.14,0,.09,0,.17-.01.26-.51.17-1.03.48-1.54.48-12.01.06-24.02.09-36.03.11-3.74,0-7.47,0-11.21-.02-.09,0-.17.01-.26.02-.77-.17-.82.33-.76.87.27,2.41.56,4.82.84,7.22.05.41.14.81.21,1.21-.21.15-.42.31-.63.46-.39-.81-.98-1.58-1.11-2.43-.2-1.3-.02-2.66-.12-3.98-.03-.34-.48-.86-.8-.91-.81-.13-1.65-.09-2.48-.04-1.41.08-2.55-.17-2.98-1.77-.08-.28-.62-.44-.95-.66-.16.3-.3.61-.49.89-.3.44-.63.85-.95,1.28Zm9.56-9.8c.06.09.12.17.18.26.29.04.57.1.86.1,12.28-.03,24.56-.06,36.85-.1.81,0,1.63,0,2.43,0,.59-9.16-4.62-17.65-14.39-19.52-.11-.03-.22-.07-.33-.1-2.61-.04-5.25-.34-7.83-.05-5.63.62-10.21,3.17-13.5,7.96-2.4,3.49-3.18,7.51-4.27,11.45Z"/>
  <path class="cls-16" d="m55.01,1.17c.25,0,.49,0,.74,0,.09,0,.17,0,.26,0,.24,0,.47,0,.71.01.11,0,.22-.02.33-.03.22,0,.44-.01.66-.02.11-.01.22-.03.34-.04.65.05,1.31.09,1.96.14.09.26.18.51.26.77-4.02,5.03-8.06,10.05-12.05,15.1-4.58,5.81-9.12,11.67-13.67,17.5-2.43,3.11-4.88,6.22-7.26,9.36-.19.25-.12.95.1,1.22,4.56,5.57,9.14,11.11,13.74,16.64,3.93,4.74,7.89,9.45,11.81,14.2,3.68,4.46,7.3,8.96,10.98,13.42.49.59,1.12,1.06,2.01,1.87-3.85.64-7.38.51-10.92.28-.08-.03-.17-.07-.25-.1-.73-.73-1.51-1.4-2.17-2.19-6.83-8.12-13.66-16.25-20.46-24.4-4.05-4.86-8.05-9.75-12.1-14.62-1.06-1.28-2.16-2.54-3.3-3.75-.77-.81-.83-1.51-.13-2.4,3.56-4.5,7.11-9.02,10.64-13.54,4.17-5.34,8.31-10.71,12.49-16.04,3.26-4.16,6.53-8.31,9.89-12.39.44-.54,1.41-.66,2.13-.97.09,0,.17,0,.26,0,.25,0,.49,0,.74,0,.09,0,.18,0,.26,0,.25,0,.49,0,.74,0,.09,0,.18,0,.26,0,.25,0,.49,0,.74-.01.09,0,.17,0,.26,0Z"/>
  <path class="cls-16" d="m489.25.76c.33,0,.66,0,.99.01.58.17,1.16.34,1.74.51.18.07.35.14.53.21.03.24.16.54.06.7-2.38,4.04-4.79,8.06-7.19,12.1-3.99,6.72-7.99,13.43-11.93,20.18-2.7,4.62-5.27,9.33-7.98,13.95-2.65,4.52-5.42,8.97-8.12,13.45-.42.7-.82,1.42-1.41,2.44h26.31c-.06.24-.04.54-.18.7-.91,1.07-1.38,2.2-1.41,3.68-.03,1.62-.85,2-2.48,1.67-.44-.09-.91-.11-1.36-.11-5.21,0-10.41-.02-15.61.01-1.11,0-2.22.26-3.33.31-3.6.16-7.21.33-10.81.4-1.09.02-1.66-1.35-1.15-2.35.44-.85.79-1.75,1.19-2.65-.62-.1-1.01-.17-1.4-.24,1.48-2.55,2.95-5.11,4.45-7.65,4.28-7.28,8.56-14.56,12.85-21.83,5.24-8.89,10.48-17.77,15.72-26.66,1.44-2.44,2.85-4.89,4.38-7.27.33-.52,1.09-.77,1.65-1.14.25-.06.5-.13.75-.19,0,0,0,0,0,0,1.17-.08,2.33-.16,3.5-.23.08,0,.17,0,.25,0Z"/>
  <path class="cls-15" d="m142.72,77.07c-2.1-2.71-3.19-5.87-4.2-9.1-1.15-3.68-1.13-7.47-1.17-11.23-.04-3.68.99-7.22,2.36-10.63,3.11-7.74,8.35-13.64,15.68-17.59,4.47-2.41,9.21-3.82,14.4-3.86,5.3-.04,10.46.33,15.34,2.59,5.59,2.6,10.4,6.11,14.02,11.24,3.27,4.62,5.29,9.68,6.24,15.19.3,1.77.01,3.64.17,5.45.24,2.87-.34,5.61-1.07,8.33-1.15,4.29-2.87,8.32-5.73,11.79-.17-.31-.49-.62-.48-.92.08-2.03.16-4.06.36-6.07.24-2.39.28-4.74-.97-6.9-.22-.38-.69-.62-1.05-.92.96-4.48,1.22-8.95-.23-13.38,1.15-.09,1.05-.99,1.1-1.75.3-5.24-1.53-9.67-5.19-13.37-5.2-5.26-11.69-7.53-18.92-7.93-4.43-.24-8.75.38-12.94,1.95-4.34,1.63-8.06,4.12-10.94,7.72-2.92,3.64-3.94,7.9-3.46,12.51.08.79.01,1.82,1.11,2.17-.26.78-.1,1.79-1.15,2.14-.5,0-1,0-1.5,0-.5-.1-.99-.19-1.49-.29-.17.01-.34.02-.51.03.18.41.33.84.55,1.23,1.12,2.01,2.26,4.02,3.4,6.03-.59.38-1.25.69-1.75,1.17-1.14,1.08-.63,2.6-.79,3.9-.23,1.9-.18,3.85-.16,5.78.02,1.66.21,3.33-1.02,4.71Z"/>
  <path class="cls-16" d="m81.51,38c1.72-1.85,3.45-3.69,5.17-5.54.4,0,.79-.02,1.19-.03-.11-.23-.22-.46-.34-.68.42-.29.85-.59,1.27-.88.29.15.63.48.87.42.64-.15,1.26-.43,1.82-.76.08-.05-.21-.71-.32-1.08,1.36-.63,2.72-1.27,4.08-1.9.34,1.32.35,2.51-.54,3.75-.4.55-.07,1.6-.16,2.41-.05.46-.22.96-.48,1.33-.19.27-.67.32-.96.55-.47.37-.56.75.18.92-5.39,2.96-8.56,7.65-10.64,13.3-.85,2.32-1.17,4.65-1.17,7.07,0,11.11,0,22.22,0,33.33,0,.33-.04.66-.06.99-.07.09-.15.17-.22.26-2.74.06-5.48.12-8.22.18-.11-.02-.23-.05-.34-.07-.22-.29-.56-.56-.63-.89-.1-.45,0-.95.01-1.43.03-.03.08-.06.08-.08-.01-.07-.04-.13-.07-.19,0-16.37,0-32.75,0-49.12,0-.21.04-.41.06-.62,1.16-.61,2.34-.52,3.59-.28,1.87.36,3.45-.57,4.99-1.47.04.1.08.2.13.3,0,.08.02.16.07.22.03.21.05.41.07.62l.3-.14c.09-.17.17-.33.26-.5Z"/>
  <path class="cls-16" d="m117.96,47.79c-.14-.84-.28-1.67-.42-2.51.02-.03.06-.07.05-.09-.02-.07-.05-.13-.08-.19-.12-.65-.23-1.3-.35-1.95-.04-.11-.08-.21-.13-.32-1.01-3.32-3.22-5.65-6.09-7.45,1.38-.62.49-1.41.03-2.24,1.89-.8,2.29-2.33,2.01-4.1-.12-.73-.48-1.42-.73-2.13.5.17,1,.33,1.5.5.19.3.38.61.57.91.22-.15.45-.31.67-.46,1.09.56,2.18,1.12,3.27,1.69-.29,1.31.77,2.16,2.23,1.79,4.08,3.65,5.65,8.53,6.44,13.68.47,3.07.66,6.21.67,9.31.06,11.99,0,23.98-.02,35.97,0,.11.02.23.02.34-.03.26-.06.52-.1.78-.07.06-.14.13-.21.19-2.77.04-5.54.08-8.3.11-.11-.03-.22-.05-.32-.08-.14-.03-.28-.07-.41-.1-.07-.24-.15-.47-.22-.71.04-6.48.09-12.96.12-19.44.03-6.98.03-13.96.03-20.94,0-.78-.12-1.57-.18-2.35.02-.03.07-.07.06-.08-.03-.05-.08-.1-.12-.14Z"/>
  <path class="cls-16" d="m381.29,63c.32-.43.65-.84.95-1.28.19-.28.33-.59.49-.89.33.22.87.37.95.66.44,1.6,1.58,1.85,2.98,1.77.83-.05,1.67-.09,2.48.04.32.05.77.58.8.91.1,1.32-.08,2.68.12,3.98.13.85.72,1.62,1.11,2.43.21-.15.42-.31.63-.46.23.62.45,1.23.68,1.85-.7.28-1.11,1.6-.76,2.39.49,1.12,1.19.88,1.94.3,1.96,3.5,4.62,6.31,8.32,7.93,1.92.84,4,1.3,6.01,1.93.11.03.22.06.33.09.31.04.63.09.94.13.19.04.37.08.56.12,5.22.65,10.44.62,15.62-.29,2.81-.49,5.56-1.3,8.35-1.9.3-.07.9.17.99.41.35.92.54,1.9.79,2.86.03.11.07.22.1.33.11.89.21,1.79.32,2.68-.08.17-.16.33-.24.5-3.11,1.62-6.52,2.15-9.93,2.65-.11.03-.22.05-.32.08-5.79.82-11.59.97-17.41.29-.78-.09-1.54-.33-2.31-.5-.09-.01-.19-.03-.28-.04-1.25-.31-2.51-.62-3.76-.94.34-.12.68-.24,1.03-.36l.09-.44c-.75-.43-1.46-.96-2.25-1.28-1.55-.64-3.16-1.1-4.69-1.77-.65-.28-1.18-.87-1.71-1.38-1.4-1.35-2.81-2.7-4.14-4.13-.91-.97-1.75-1.15-2.58-.34-.31-.44-.62-.88-.94-1.32.46-.12.91-.23,1.37-.35-.19-.42-.36-.85-.58-1.26-.35-.63-.8-1.21-1.09-1.86-.71-1.65-1.28-3.36-2.04-4.99-.31-.67-.73-1.15-.26-1.96.18-.31-.22-.97-.36-1.46-.46.17-.93.33-1.39.5-.16-.78-.33-1.56-.49-2.34.33-.26.65-.52.98-.78-.42-.32-.85-.64-1.27-.96-.03-.51-.07-1.02-.1-1.53Z"/>
  <path class="cls-2" d="m356.66,77.97c.42.11.84.23,1.26.34l.17.44c-1.06.71-2.12,1.42-3.19,2.12-.01-.04-.02-.08-.03-.13-.46.5-.86,1.07-1.38,1.5-.57.47-.55.73-.04,1.27.47.49.91,1.18,1.01,1.83.24,1.48,1.01,1.9,2.27,1.05.22-.15.47-.27.8-.45.18.6.33,1.1.48,1.59-3.8,2.18-7.92,3.44-12.22,4.15-.1.02-.21.04-.31.05-7.61,1.53-15.3,1.23-22.99,1.05-1.08-.03-2.15-.21-3.22-.32-.11-.03-.22-.05-.32-.08-.31-.05-.62-.11-.94-.16-.1-.02-.21-.04-.31-.07-1.4-.21-2.81-.41-4.21-.62.19-.35.38-.69.62-1.13-1.92-.54-.6-2.25-1.09-3.39-.5-1.17-.25-2.22.84-3.06.27-.21.33-.82.31-1.23-.03-.44-.27-.86-.41-1.3-.54-1.66-.08-2.44,1.65-2.64,1.19-.14,2.4-.23,3.59-.18.88.04,1.14.78,1.27,1.6.12.75-.15,1.74.96,2.05,0,.34-.02.67-.02,1.01l.08.98c1.49.1,2.97.19,4.46.29.09,0,.18,0,.27.01,3.45.04,6.89.19,10.34.11,7.44-.16,14.51-1.52,20.31-6.69Z"/>
  <path class="cls-2" d="m445.71,65.73c.39.07.78.13,1.4.24-.4.91-.75,1.8-1.19,2.65-.51.99.05,2.37,1.15,2.35,3.61-.07,7.21-.24,10.81-.4,1.11-.05,2.22-.3,3.33-.31,5.2-.03,10.41-.02,15.61-.01.45,0,.92.02,1.36.11,1.63.33,2.45-.06,2.48-1.67.03-1.48.5-2.62,1.41-3.68.14-.16.12-.47.18-.7,1.08,0,2.17-.01,3.25-.02-.44,1.46-.2,2.71,1,3.78.37.33.41.99.73,1.41.63.84,1.22,1.8,2.06,2.36.87.58,1.82.89,2.1,2.07.07.31.57.59.94.74,1.19.47,2.84-.12,3.63-1.18.28-.37.69-.65,1.03-.98.05.01.1.02.16.02,0,.17.01.34.02.51-.02.02-.06.05-.06.07.01.05.04.1.07.15.03,5.32.06,10.65.07,15.97,0,.77-.11,1.54-.16,2.31-.11.08-.22.15-.32.23-1.9.08-3.8.18-5.7.25-.66.02-1.34.05-1.99-.05-.4-.07-.77-.38-1.15-.59-.03-.12-.07-.24-.1-.36,0-5.33,0-10.65,0-15.98.03-.03.09-.06.09-.08-.02-.07-.05-.13-.08-.19,0-.66,0-1.32,0-1.98.03-.03.08-.05.08-.08,0-.07-.04-.13-.06-.19.02-.17.04-.33.05-.5-.06-.07-.12-.13-.18-.2-3.57.04-7.15.1-10.72.1-9.98,0-19.96-.04-29.94-.06-.79,0-1.6.07-2.36-.07-.61-.11-1.31-.37-1.68-.81-.18-.22.21-1.03.47-1.5.71-1.26,1.5-2.48,2.25-3.72Z"/>
  <path class="cls-1" d="m113,109.63c2.73-.54,2.75-.52,3.12,3.21,1.8-2.25,3.76-3.73,6.54-3.8,2.85-.07,5.07.81,6.2,3.87.56-.6.92-.97,1.26-1.36,2.43-2.8,5.53-3.05,8.79-2.07,2.89.87,4.09,3.29,4.28,6.03.28,4.19.23,8.4.32,12.6,0,.37-.05.76,0,1.12.14,1.13-.3,1.55-1.47,1.54-2.04-.01-2.04.06-2.04-2.04,0-3.87,0-7.75,0-11.62,0-3.34-1.33-5.13-3.89-5.22-3.63-.13-6.03,1.83-6.12,5.19-.1,3.87-.04,7.74-.07,11.62-.01,2.04-.92,2.69-2.89,1.97-.29-.11-.52-.77-.52-1.18-.04-4.46,0-8.92-.06-13.37-.01-.97-.21-2.02-.63-2.87-.78-1.56-3.22-2.22-5.07-1.43-2.9,1.23-4.14,3.63-4.23,6.64-.1,3.41-.05,6.83-.09,10.25-.02,1.93-1.02,2.67-2.82,1.99-.33-.13-.58-.92-.59-1.41-.04-5.54-.03-11.08-.03-16.62,0-.99,0-1.99,0-3.03Z"/>
  <path class="cls-1" d="m500.25,109.48c0-.44,0-.84,0-1.25,0-2.12-.02-4.25-.02-6.37,0-1.77.95-2.43,2.67-1.8.26.09.5.53.54.84.09.66.05,1.33.05,1.99,0,8.66,0,17.32.04,25.99,0,1.1-.35,1.47-1.44,1.68-3.48.66-6.98.6-10.44.15-2.92-.38-5.23-1.98-6.58-4.63-1.62-3.19-1.77-6.54-.59-9.93,1.49-4.31,5.28-7.21,10.71-7.08,1.65.04,3.29.27,5.08.42Zm0,10.89h0c0-2.08,0-4.16,0-6.24,0-1.64-.42-2.19-2.06-2.31-1.37-.1-2.76-.16-4.11,0-1.96.22-3.99.66-5.13,2.44-2.57,3.98-2.87,7.92-.05,12.11.19.29.51.51.82.7,3.05,1.85,6.36,1.62,9.69,1.19.8-.1.85-.63.84-1.26-.01-2.21,0-4.41,0-6.62Z"/>
  <path class="cls-23" d="m82.97,101.5c.01.17.02.33.03.5-1.09.29-.98,1.23-.99,2.01-.04,2.79-.02,5.58-.02,8.36,0,1.64-.1,3.3.05,4.92.07.76.63,1.47.97,2.2,0,.42.01.83.02,1.25-.34.4-.95.79-.98,1.22-.09,1.27.13,2.57.07,3.84-.07,1.38-.31,2.76-.5,4.28-.74-.51-1.16-.8-1.59-1.09v-12.79h-16.04c0,1.5,0,3.15,0,4.81,0,2.87-.02,5.75.01,8.62.01.93-.33,1.37-1.24,1.15-.81-.2-2.14.55-2.13-1.25.04-8.99.02-17.98.03-26.98,0-1.65,1.33-2.55,2.83-1.85.28.13.48.72.49,1.1.04,3.5.02,6.99.02,10.49,0,.32.05.64.08,1.01,4.77,0,9.47,0,14.17,0,.08,0,.17,0,.25,0,.45-.03.9-.05,1.5-.09,0-1.68,0-3.34,0-4.99,0-2,0-3.99,0-5.99q0-1.67,1.64-1.59c.21.01.41.07.61.1.24.25.48.5.72.74Z"/>
  <path class="cls-23" d="m204.61,120.73c.23,4.99,2.13,7.61,7.88,7.74,1.94.05,3.89-.54,5.84-.83.18-.03.52.01.55.1.24.69.51,1.4.55,2.11.01.18-.76.57-1.19.59-2.85.16-5.72.5-8.56.31-4.51-.31-7.77-3.89-8.26-8.44-.34-3.14-.1-6.11,1.58-8.9,1.95-3.25,5.84-4.91,10.16-4.29,6.25.89,8.13,5.9,7.78,10.98-.02.25-.67.65-1.03.65-4.66.03-9.32,0-13.98-.02-.41,0-.81,0-1.32,0Zm.07-2.63h13.5c-.69-1.72-.95-3.45-1.92-4.58-2-2.32-4.8-2.21-7.49-1.39-2.79.84-3.47,3.26-4.09,5.97Z"/>
  <path class="cls-1" d="m464.06,120.74c.62,5.05,2.39,7.28,7.11,7.74,2.62.25,4.98-.1,7.41-1.03.15.65.41,1.27.39,1.89-.01.36-.42.94-.75,1.02-3.66.84-7.39,1.16-10.98-.04-3.5-1.17-5.56-3.86-6.11-7.54-.68-4.56,0-8.74,3.81-11.86,2.69-2.21,5.85-2.13,9.03-1.58,2.92.51,5.84,3.06,6.52,7.62.12.78.15,1.57.23,2.35.11,1.06-.32,1.47-1.43,1.46-4.62-.05-9.25-.02-13.87-.02h-1.36Zm.32-2.77c.14.09.2.18.27.18,4,.03,7.99.07,11.99.07.23,0,.57-.21.66-.41.42-1.02-.79-4.33-1.81-4.95-3.91-2.39-10.41-1.61-11.11,5.11Z"/>
  <path class="cls-23" d="m427.75,120.78c.23,5.09,1.95,7.12,7.06,7.68,2.47.27,4.98.12,7.49-1.16.08.89.23,1.62.18,2.33-.02.27-.47.64-.78.73-3.23.86-6.56.94-9.78.27-3.63-.76-6.04-3.01-6.97-6.82-.73-2.99-.63-5.92.4-8.71,1.72-4.67,5.55-6.65,10.95-5.98,6.18.77,7.99,5.59,7.9,10.59,0,.32-.51.77-.88.9-.49.17-1.07.11-1.61.11-4.29,0-8.58-.02-12.87-.02-.36,0-.73.05-1.09.07Zm.19-2.68c.1.03.21.05.31.08,3.71.02,7.41.04,11.12.05,1.74,0,2.03-.42,1.45-2.11-1.23-3.59-4.32-5.21-8.02-4.2-1.66.45-3.15,1.2-3.95,2.8-.48.96-.74,2.02-1.1,3.03.05.11.09.22.14.33l.04.02Z"/>
  <path class="cls-23" d="m161,117.95c.8-3.79-.94-6.1-4.65-6.21-2.15-.06-4.33-.21-6.57.87-.18-.78-.43-1.51-.48-2.25-.02-.26.42-.79.67-.8,2.98-.13,5.99-.45,8.94-.21,3.22.27,5.15,2.62,5.3,6.09.2,4.62.2,9.24.22,13.86,0,.37-.41,1.04-.71,1.08-3.88.6-7.79,1-11.67.22-3.19-.64-5-2.97-4.97-5.98.03-2.98,2.12-5.68,5.08-6.34,2.56-.58,5.16-.92,7.79-.35.31.07.66,0,1.04,0Zm0,6.43c0-1,.08-2-.04-2.99-.05-.4-.47-.98-.83-1.07-2.81-.73-5.47-.28-8.06,1.03-1.97,1-1.61,2.71-1.54,4.33.05,1.25,1.12,2.39,2.54,2.52,2.14.2,4.3.16,6.45.21,1.22.03,1.67-.57,1.5-1.78-.1-.73-.02-1.49-.02-2.24Z"/>
  <path class="cls-1" d="m338.96,131c-4.02.3-7.35-1.73-9.01-5.9-.78-1.97-.76-4.3-.83-6.48-.06-1.93.64-3.72,1.71-5.39,3.43-5.31,11.59-5.4,15.65-1.59,3.04,2.85,4.06,8.48,2.37,12.94-1.67,4.42-4.61,6.45-9.9,6.43Zm.54-19.29c-4.18-.35-6.56,2.62-6.86,5.31-.22,1.97-.29,4-.03,5.95.17,1.29.79,2.73,1.67,3.67,2.73,2.94,9.83,3,11.36-2.35.64-2.22.67-4.42.39-6.67-.47-3.88-2.65-5.87-6.54-5.92Z"/>
  <path class="cls-23" d="m271.97,121.2c-.04,3.54-1.55,6.24-4.36,8.31-2.42,1.79-5.18,1.71-7.91,1.35-3.92-.52-6.41-2.82-7.6-6.63-1.28-4.12-.89-7.97,1.62-11.5,1.66-2.33,4.04-3.37,6.88-3.66,5.98-.6,9.84,2.8,10.99,7.42.38,1.51.26,3.14.38,4.71Zm-3.05-1.05c-.13-.03-.26-.06-.39-.08,0-.71.02-1.42,0-2.12-.08-2.36-1.06-4.25-3.08-5.52-1.88-1.18-3.94-.86-5.92-.45-2.09.44-3.68,1.66-4,3.92-.28,1.99-.55,4.02-.49,6.03.19,6.23,5.51,7.82,10.1,5.92,1.16-.48,2.13-1.25,2.49-2.47.52-1.72.87-3.48,1.29-5.23Z"/>
  <path class="cls-1" d="m354.02,109.63c2.63-.64,2.69-.57,3.1,3.21.43-.42.79-.72,1.08-1.06,2.79-3.21,8.74-3.77,11.78-1.11,2.05,1.79,2.36,4.28,2.46,6.72.17,4.08.07,8.16.11,12.24,0,.78-.24,1.2-1.08,1.12-.21-.02-.42,0-.62.01-1.82.04-1.82.03-1.82-1.75,0-4.33.04-8.66-.04-12.99-.05-2.9-1.41-3.98-4.33-4.1-4.76-.19-7.36,3.43-7.39,7.44-.03,3.46-.02,6.91.02,10.37.01,1.1-.68,1.07-1.41,1.02-.75-.06-1.85.4-1.86-.98-.02-6.7,0-13.4,0-20.16Z"/>
  <path class="cls-1" d="m107.51,119.96c0,3.04-.02,6.08.01,9.12,0,.77-.15,1.26-1.03,1.38-3.39.45-6.77.74-10.2.36-3.92-.44-6.83-3.22-6.97-7.19-.16-4.45-.1-8.91-.07-13.37,0-.32.51-.85.85-.91,1.93-.33,2.34.06,2.35,2.02.02,4,.01,8,.06,12,.02,1.61.56,3.04,1.96,3.97.54.36,1.17.79,1.78.84,2.19.15,4.39.15,6.58.2.95.02,1.22-.46,1.21-1.41-.05-5.37-.04-10.75,0-16.12,0-.46.27-1.28.48-1.31.92-.09,1.87,0,2.79.15.12.02.2.67.2,1.03.02,3.08,0,6.16,0,9.25h.01Z"/>
  <path class="cls-23" d="m172.56,113.03c1.18-1.06,2.07-1.99,3.09-2.75,3.73-2.77,10.08-1.24,11.63,2.95.61,1.66.56,3.59.61,5.41.09,3.58.02,7.16.07,10.74.01.98-.41,1.37-1.33,1.36-.49,0-.98,0-1.63,0,0-.57,0-1.01,0-1.45,0-3.87.02-7.75-.02-11.62,0-.82-.13-1.66-.37-2.45-.78-2.59-1.96-3.35-4.65-3.31-3.28.05-5.64,1.43-6.54,4.68-.39,1.42-.56,2.93-.6,4.4-.09,2.79-.05,5.58.02,8.37.03,1.09-.32,1.47-1.42,1.44-1.99-.06-1.99,0-1.99-1.94,0-6,.02-11.99-.01-17.99,0-1.01.18-1.54,1.36-1.5,1.09.04,1.91.12,1.79,1.51-.05.61,0,1.23,0,2.14Z"/>
  <path class="cls-1" d="m420,119.88c0,3.12-.02,6.24.02,9.37,0,.72-.21,1.04-.93,1.15-3.55.56-7.1.89-10.68.38-3.64-.52-6-2.92-6.38-6.59-.19-1.86-.23-3.73-.26-5.6-.05-2.58-.03-5.16-.02-7.74,0-.71-.24-1.57,1.02-1.54,1.8.04,2,.16,2.02,1.52.04,4.08-.07,8.17.2,12.23.25,3.72,2.1,5.29,5.84,5.43,1.61.06,3.24-.08,4.85-.15.77-.03,1.04-.42,1.02-1.22-.08-5.41-.05-10.82-.19-16.23-.04-1.48.7-1.48,1.75-1.48,1.05,0,1.83,0,1.77,1.47-.11,2.99-.03,5.99-.03,8.99Z"/>
  <path class="cls-19" d="m496.99,72.48c-.35.32-.76.6-1.03.98-.78,1.05-2.43,1.65-3.63,1.18-.36-.14-.87-.43-.94-.74-.28-1.18-1.23-1.5-2.1-2.07-.84-.56-1.43-1.52-2.06-2.36-.32-.42-.36-1.08-.73-1.41-1.2-1.07-1.44-2.31-1-3.78.81-.18,1.62-.36,2.43-.53.02-.03.05-.06.05-.08-.01-.06-.04-.12-.06-.17-.03-.66-.06-1.33-.09-1.99.81.03.56-.59.69-1.04.25-.83.4-1.94.99-2.38,1.6-1.2,3.48-1.56,5.37-.51.79.44,1.55.95,2.32,1.43,0,1.41,0,2.81,0,4.22-.03.11-.06.22-.09.32.21.26.43.52.64.78,0,.06,0,.12,0,.18.08,2.33.16,4.66.24,7-.08.07-.16.13-.24.2-.16.02-.33.04-.49.06-.09.24-.19.48-.28.72Z"/>
  <path class="cls-23" d="m319,103.2c-2.8.29-5.23,1.31-7.01,3.58-1.53,1.95-2.33,4.22-2.56,6.65-.29,3.11-.36,6.21,1.06,9.17,1.68,3.49,4.54,5.18,8.23,5.64,2.58.33,5.14.17,7.61-.79.97-.37,1.84.18,2.11,1.25.26,1.01-.39,1.32-1.19,1.53-3.64.95-7.38,1.2-11.01.39-5.42-1.22-8.88-4.7-10.04-10.22-.88-4.19-.89-8.41,1.1-12.31,2.51-4.9,6.56-7.58,12.18-7.63-.16.91-.33,1.83-.49,2.74Z"/>
  <path class="cls-23" d="m396.22,127.75c0,1.5,0,3,0,4.5-.18.36-.33.73-.54,1.08-.28.46-.61.89-.92,1.34-.34-.47-.69-.92-1.01-1.4-.26-.41-.48-.84-.72-1.26-.04-.39-.07-.79-.11-1.24-1.02.07-1.98.13-2.93.2-.39-.32-.73-.75-1.17-.89-.16-.05-.54.57-.83.88-2.79.08-5.53-.14-7.86-1.86-3.24-2.37-3.73-5.87-3.49-9.5.1-1.58.51-3.24,1.21-4.66,2.19-4.44,6.17-5.93,10.83-5.89,2.11.01,4.23.28,6.33.53,1.55.18,1.18,1.43,1.18,2.43-.23.33-.58.62-.67.99-.12.47.06,1.01-.06,1.48-.1.43-.43.8-.65,1.2-.31-.29-.67-.55-.91-.89-.34-.47-.58-1.01-.86-1.52-.09-.65.18-1.5-.97-1.48-1.66.02-3.34-.14-4.99.02-2.67.25-4.95,1.41-6.16,3.89-.99,2.03-1.46,4.28-1.12,6.56.36,2.4,1.31,4.39,3.79,5.45,2.93,1.26,5.87.87,8.83.44.25-.04.42-.57.63-.88,1.04-.54,2.02-.67,2.83.41.06.08.23.06.35.09Z"/>
  <path class="cls-9" d="m112.25,26.81c.25.71.61,1.4.73,2.13.28,1.77-.12,3.29-2.01,4.1.46.83,1.36,1.62-.03,2.24-1.39-.45-2.79-.89-4.18-1.34-.12-.03-.24-.05-.37-.08-4.61-.34-8.97.59-13.1,2.65-.74-.17-.65-.55-.18-.92.29-.23.76-.28.96-.55.27-.37.43-.87.48-1.33.09-.81-.24-1.86.16-2.41.89-1.24.87-2.43.54-3.75l.76-.23c.08-.02.16-.03.23-.05.74-.24,1.47-.47,2.21-.71.1-.02.2-.03.31-.05.98-.13,1.96-.26,2.94-.39.11-.02.22-.04.33-.05,2.98.15,5.96.3,8.94.44.1.02.21.04.31.05.32.08.64.16.96.24Z"/>
  <path class="cls-22" d="m173.01,92.77c-1,0-2.01,0-3.01,0,.32-2.01.32-2-1.71-2.28-.69-.1-1.41-.17-2.07-.39-4.6-1.55-8.46-4.09-11.29-8.16-1.63-2.34-2.43-4.93-3.22-7.6-.96-3.24-.35-6.35.64-9.37.46-1.38.65-2.5-.1-3.73.07-.08.15-.16.22-.24.18,0,.35,0,.53,0,.25.33.5.67.75,1,.33.33.67.67,1,1-.08.4-.09.83-.24,1.2-1.09,2.75-1.97,5.57-1.22,8.54.61,2.38,1.16,4.87,2.34,6.98,1.12,2.01,2.84,3.79,4.62,5.29,1.52,1.27,3.39,2.41,5.29,2.87,2.83.69,5.69,1.3,8.77.7,6.18-1.2,10.64-4.45,13.53-9.97.36-.68.78-1.32,1.17-1.98.2-.07.4-.14.59-.2.87.93.32,1.88-.07,2.74-1.23,2.66-2.98,4.95-5.31,6.76-3.08,2.4-6.36,4.33-10.38,4.59-.91.06-1.26.51-.99,1.42.08.27.11.56.16.85Z"/>
  <path class="cls-2" d="m218.96,35.75c-.4.33-.98.58-1.17,1-.62,1.42-1.77,1.68-3.12,1.77-1.38.09-2.76.32-4.14.48-1.13-3.49-2.26-6.97-3.39-10.46-.05-.18-.11-.35-.16-.53.08-1.4,1.24-.41,1.77-.8.08,0,.16,0,.24,0,2.34-.02,4.67-.03,7.01-.05.08.02.16.03.24.05.2.31.49.58.58.92.73,2.54,1.42,5.09,2.13,7.63Z"/>
  <path class="cls-9" d="m80.69,37.5c-1.54.91-3.12,1.83-4.99,1.47-1.25-.24-2.43-.33-3.59.28-.02-3.41-.04-6.83-.06-10.24,0-.17,0-.34,0-.51.08-.54-.34-1.32.67-1.41.11,0,.22,0,.33,0,.56.03,1.11.06,1.67.09.11,0,.21.01.32.02.24,0,.48-.02.71-.02.09,0,.18,0,.26.01.25,0,.49,0,.74,0,.09,0,.18,0,.26,0,.25,0,.49,0,.74,0,.09,0,.18,0,.26,0,.66.01,1.33.03,1.99.04.05.07.12.1.21.09.19.89.38,1.78.56,2.66,0,.09.01.19.02.28,0,.15.02.3.03.45,0,.19,0,.38,0,.57,0,1.64,0,3.29,0,4.93-.05.43-.09.85-.14,1.28Z"/>
  <path class="cls-1" d="m228.75,112.5c1.63-2.38,4.39-3.5,7.01-3.04,1.03.18.71,1.13.64,1.74-.05.44-.42,1.04-.81,1.21-.49.22-1.14.07-1.72.09-3.1.11-5.12,2.14-5.14,5.22-.03,3.87-.05,7.74,0,11.6.02,1.11-.38,1.45-1.44,1.44-2.04-.02-2.04.03-2.04-2.01,0-5.95,0-11.9-.01-17.84,0-.94.06-1.65,1.28-1.62,1.54.03,1.79.21,1.82,1.66.01.5,0,1,0,1.49.04.09.08.18.12.27.1-.07.2-.15.3-.22Z"/>
  <path class="cls-1" d="m451.8,112.55c1.68-2.09,3.69-3.41,6.54-3.14,1.17.11,1.19.74,1.18,1.6-.01.81-.03,1.55-1.16,1.45-.29-.03-.58.04-.87.02-3.55-.21-5.44,1.99-5.71,5.68-.26,3.65-.06,7.32-.12,10.99,0,.52-.23,1.43-.5,1.48-.82.17-1.73.09-2.57-.06-.17-.03-.28-.8-.28-1.23,0-5.67.01-11.33.02-17,0-.37,0-.75-.02-1.12-.05-1.77.06-1.82,1.77-1.83,1.12-.01,1.5.46,1.39,1.5-.06.54-.07,1.08-.1,1.62.03.08.06.16.1.24.1-.07.21-.13.31-.2Z"/>
  <path class="cls-23" d="m280.01,112.25c1.76-1.94,3.81-3.14,6.57-2.86.9.09,1.22.48,1.11,1.25-.1.72.34,1.82-1.06,1.82-.33,0-.67.04-1,.03-3.81-.2-5.57,1.96-5.8,5.79-.22,3.61-.03,7.24-.06,10.86,0,.52-.2,1.45-.43,1.49-.87.16-1.8.08-2.69-.05-.14-.02-.26-.73-.26-1.12,0-5.66.01-11.32.02-16.98,0-.42-.01-.83-.03-1.25-.09-1.66,1.01-2.48,2.46-1.7.37.2.49.95.62,1.47.1.39.02.83.03,1.24.07.15.15.3.22.45.1-.15.2-.31.3-.46Z"/>
  <path class="cls-23" d="m242.33,112.58c.3-.32.61-.63.9-.95,1.46-1.61,3.24-2.42,5.44-2.28.81.05,1.39.27,1.35,1.22-.03.89.06,1.83-1.24,1.87-.58.02-1.17.03-1.75.08-2.05.18-3.93,1.7-4.31,3.71-.35,1.87-.61,3.77-.7,5.66-.12,2.54-.06,5.08-.01,7.62.02,1.01-.38,1.32-1.33,1.25-.84-.06-1.54-.03-1.54-1.23,0-4.96-.05-9.91-.09-14.87,0-1.37.03-2.75-.02-4.12-.04-1.1.64-1.25,1.45-1.21.77.04,1.67,0,1.53,1.24-.07.61-.01,1.23-.01,1.84.11.05.22.11.33.16Z"/>
  <path class="cls-24" d="m173.01,92.77c-.05-.28-.08-.57-.16-.85-.28-.9.08-1.36.99-1.42,4.02-.26,7.3-2.19,10.38-4.59,2.33-1.81,4.08-4.1,5.31-6.76.4-.86.94-1.81.07-2.74,1.11-1.29,2.21-2.57,3.32-3.86.1.73.46,1.55.25,2.18-.82,2.45-1.65,4.93-2.81,7.22-.86,1.69-2.31,3.07-3.39,4.67-.96,1.43-.89,1.47.55,2.14-2.11.9-4.16,2.05-6.35,2.63-2.65.7-5.43.93-8.15,1.36Z"/>
  <path class="cls-24" d="m152.25,61.24c.75,1.23.56,2.35.1,3.73-1,3.02-1.6,6.13-.64,9.37.79,2.67,1.59,5.26,3.22,7.6,2.83,4.07,6.69,6.61,11.29,8.16.66.22,1.37.3,2.07.39,2.03.28,2.03.27,1.71,2.28-3.69-.26-7.31-.83-10.75-2.28.77-1.19.41-1.97-.76-2.7-.96-.61-1.82-1.43-2.61-2.27-2.79-2.95-4.62-6.4-5.39-10.42-.53-2.79-.79-5.53-.08-8.35.27-1.06.02-2.25.01-3.38.21-.34.42-.68.63-1.02.32-.36.64-.73.95-1.09.08,0,.16,0,.24-.02Z"/>
  <path class="cls-25" d="m154.5,88.25c-2.65-1.23-4.79-3.12-6.76-5.22.78-1.06.77-2.12.06-3.21-.16-.24-.26-.53-.32-.81-.5-2.38-1.2-4.74-1.42-7.14-.24-2.69-.4-5.51,1.81-7.68.21.38.42.76.62,1.14.15.97.39,1.94.44,2.92.13,2.5-.1,5.06.34,7.5.66,3.65,2.38,6.91,4.85,9.73,1.04,1.19,1.11,1.9.37,2.78Z"/>
  <path class="cls-25" d="m187.51,88.77c-1.43-.67-1.5-.72-.55-2.14,1.07-1.6,2.53-2.98,3.39-4.67,1.17-2.29,1.99-4.77,2.81-7.22.21-.63-.15-1.45-.25-2.18.67-1.11,1.34-2.22,2.02-3.33.98.41,1.8,1.92,1.53,3.31-.44,2.27-.91,4.55-1.66,6.73-.5,1.46-.98,2.69.48,3.8-1.09.98-2.1,2.05-3.28,2.9-1.42,1.03-2.98,1.88-4.48,2.81Z"/>
  <path class="cls-8" d="m147.88,64.19c-2.21,2.18-2.06,4.99-1.81,7.68.22,2.4.92,4.77,1.42,7.14.06.28.16.57.32.81.72,1.09.72,2.15-.06,3.21-1.94-1.76-3.87-3.54-5.02-5.97,1.23-1.38,1.04-3.05,1.02-4.71-.02-1.93-.07-3.87.16-5.78.16-1.31-.35-2.82.79-3.9.5-.48,1.16-.78,1.75-1.17.48.89.96,1.79,1.44,2.68Z"/>
  <path class="cls-8" d="m195.28,83.07c-1.45-1.11-.98-2.34-.48-3.8.75-2.18,1.22-4.46,1.66-6.73.27-1.4-.55-2.9-1.53-3.31.56-1.59,1.12-3.18,1.69-4.78.36.3.83.54,1.05.92,1.25,2.16,1.21,4.5.97,6.9-.2,2.02-.28,4.05-.36,6.07-.01.3.31.61.48.92-1.16,1.27-2.32,2.54-3.48,3.81Z"/>
  <path class="cls-18" d="m154.5,88.25c.74-.88.66-1.59-.37-2.78-2.47-2.83-4.19-6.08-4.85-9.73-.44-2.44-.2-5-.34-7.5-.05-.98-.29-1.95-.44-2.92.35-.34.71-.67,1.06-1.01.29-.32.57-.63.86-.95.01,1.13.26,2.32-.01,3.38-.71,2.82-.45,5.56.08,8.35.77,4.02,2.6,7.47,5.39,10.42.79.84,1.64,1.66,2.61,2.27,1.17.74,1.52,1.51.76,2.7-1.58-.75-3.17-1.49-4.75-2.24Z"/>
  <path class="cls-1" d="m393.04,113.25c.28.51.53,1.04.86,1.52.24.34.6.6.91.89.23-.4.55-.77.65-1.2.11-.47-.06-1.01.06-1.48.09-.36.44-.66.67-.99l.02,15.75c-.12-.03-.3-.01-.35-.09-.81-1.08-1.79-.95-2.83-.41,0-4.67,0-9.33,0-14Z"/>
  <path class="cls-2" d="m359.34,86.8c-.14-.15-.3-.29-.4-.46-.1-.17-.13-.38-.11-.32.69-.67,1.22-1.24,1.81-1.75,1.47-1.25,2.97-2.47,4.45-3.71.38-.32.89-.58,1.08-.99.76-1.63,1.36-3.34,2.13-4.97.22-.46.8-.75,1.25-1.15-.4-1.15.27-3.29,1.26-3.67-.02.4-.05.8-.07,1.21-.02.03-.07.05-.07.08,0,.06.03.13.05.19-.84,5.32-3.49,9.58-7.64,12.93-1.18.95-2.5,1.74-3.75,2.61Z"/>
  <path class="cls-2" d="m387.47,81.32c.83-.81,1.67-.63,2.58.34,1.33,1.42,2.74,2.77,4.14,4.13.53.51,1.06,1.1,1.71,1.38,1.53.67,3.15,1.13,4.69,1.77.79.33,1.5.85,2.25,1.28l-.09.44c-.34.12-.68.24-1.03.36-5.7-1.83-10.62-4.81-14.25-9.7Z"/>
  <path class="cls-1" d="m319,103.2c.16-.91.33-1.83.49-2.74,2.63-.26,5.22-.13,7.71.83.31.12.66.73.62,1.08-.07.69-.32,1.44-1.28,1.38-.87-.06-1.73-.22-2.6-.28-1.65-.11-3.3-.18-4.94-.26Z"/>
  <path class="cls-1" d="m393.04,132c.24.42.46.86.72,1.26.31.48.67.94,1.01,1.4.31-.45.63-.88.92-1.34.21-.34.36-.72.54-1.08,0,2.34.04,4.68,0,7.03,0,.39-.35.77-.53,1.16-.72,0-1.44.02-2.16.03-.18-.49-.5-.98-.5-1.48-.04-2.33,0-4.65.01-6.98Z"/>
  <path class="cls-2" d="m382.19,68.61c.46-.17.93-.33,1.39-.5.14.5.54,1.15.36,1.46-.47.82-.05,1.29.26,1.96.76,1.63,1.33,3.34,2.04,4.99.28.65.74,1.23,1.09,1.86.22.4.39.84.58,1.26-.46.12-.91.23-1.37.35-.52-.88-1.04-1.75-1.56-2.63-.06-.12-.13-.24-.19-.36-.69-1.8-1.37-3.61-2.06-5.41-.06-.2-.11-.39-.17-.59-.12-.8-.24-1.6-.37-2.4Z"/>
  <path class="cls-1" d="m83.02,119.5c-.34-.73-.9-1.44-.97-2.2-.15-1.63-.05-3.28-.05-4.92,0-2.79-.02-5.58.02-8.36.01-.78-.11-1.72.99-2.01,0,5.83,0,11.67.01,17.5Z"/>
  <path class="cls-1" d="m292.93,127c.09.38.14.58.18.78.49,2.62-.85,3.8-3.36,2.9-1.04-.38-.92-1.38-.86-2.24.05-.75.16-1.52,1.26-1.46.9.05,1.81.01,2.79.01Z"/>
  <path class="cls-1" d="m80.04,129c.42.29.85.58,1.59,1.09.19-1.53.43-2.9.5-4.28.06-1.28-.16-2.57-.07-3.84.03-.43.64-.81.98-1.22.03,3.02.08,6.04.05,9.07,0,.29-.49.74-.82.82-.67.16-1.38.11-2.23.16v-1.79Z"/>
  <path class="cls-2" d="m254.14,39.04c.71-.37,1.11-.2,1.1.64,0,.74-.03,1.31.94,1.73.57.25.75,1.44,1.06,2.22.18.46.26.95.42,1.42.43,1.23.2,1.58-1.14,1.7-.02-.12-.03-.25-.05-.37-.05-.12-.09-.24-.14-.36-.45-1.4-.9-2.8-1.35-4.19-.13-.36-.27-.71-.4-1.07-.04-.08-.09-.16-.13-.24-.1-.49-.2-.98-.3-1.47Z"/>
  <path class="cls-2" d="m254,27.28c-.31.35-.59.98-.94,1.02-1.57.19-2.71.85-3.21,2.6-.57-.37-.99-.65-1.42-.93.36-.9.72-1.8,1.08-2.69.08-.03.16-.05.24-.08.33,0,.66,0,.99.01.09,0,.17,0,.26,0,1,.03,2,.05,2.99.08Z"/>
  <path class="cls-2" d="m247.74,32c1.56.04,1.96.82,1.22,2.2-.46.86-.77,1.81-1.29,3.05-.39-.75-.66-1.26-.93-1.77.27-.91.53-1.83.8-2.74.06-.2.12-.4.18-.6-.05-.06-.04-.11.03-.14Z"/>
  <path class="cls-2" d="m393.64,74.7c-.75.58-1.44.82-1.94-.3-.35-.79.06-2.11.76-2.39.27.73.54,1.45.81,2.18.07.11.14.21.21.32.05.07.1.13.15.2Z"/>
  <path class="cls-9" d="m91.17,29.46c.12.38.4,1.03.32,1.08-.56.34-1.18.61-1.82.76-.24.06-.58-.27-.87-.42.79-.47,1.58-.95,2.36-1.42Z"/>
  <path class="cls-9" d="m120.5,31.24c-1.47.36-2.53-.49-2.23-1.79.74.6,1.49,1.2,2.23,1.79Z"/>
  <path class="cls-1" d="m388,130.95c.28-.31.66-.94.83-.88.44.14.79.57,1.17.89-.67,0-1.33,0-2,0Z"/>
  <path class="cls-2" d="m381.4,64.53c.42.32.85.64,1.27.96-.33.26-.65.52-.98.78-.1-.58-.2-1.15-.3-1.73Z"/>
  <path class="cls-13" d="m276.33,78.96c-.02.35-.03.69-.05,1.04-.17.16-.35.33-.52.49l-.46-1.5c.34,0,.69-.02,1.03-.03Z"/>
  <path class="cls-21" d="m351.3,43.42h-1.61c-.03-.16-.06-.31-.08-.47.48-.13.96-.26,1.43-.39.09.28.17.57.26.85Z"/>
  <path class="cls-9" d="m115,27.76c-.22.15-.45.31-.67.46-.19-.3-.38-.61-.57-.91.42.15.83.3,1.25.45Z"/>
  <path class="cls-13" d="m254.14,39.04c.1.49.2.98.3,1.47-.29-.25-.59-.49-.88-.74.19-.24.39-.49.58-.73Z"/>
  <path class="cls-9" d="m87.53,31.76c.11.23.22.46.34.68-.4,0-.79.02-1.19.03.28-.24.57-.47.85-.71Z"/>
  <path class="cls-30" d="m232.48,80.73c-.11.31-.22.63-.33.94-.11-.01-.22-.02-.33-.03-.03-.45-.07-.9-.1-1.35.08.08.16.16.24.24.17.07.34.14.51.21Z"/>
  <path class="cls-30" d="m370.86,69.8c.1-.53.2-1.05.3-1.58-.1.53-.2,1.05-.3,1.58Z"/>
  <path class="cls-13" d="m60.27,2c-.09-.26-.18-.51-.26-.77.21-.02.42-.05.63-.07-.12.28-.24.56-.36.84Z"/>
  <path class="cls-1" d="m82.97,101.5c-.24-.25-.48-.5-.72-.74.24.25.48.5.72.74Z"/>
  <path class="cls-21" d="m80.69,37.5c.05-.43.09-.85.14-1.28,0,.53,0,1.05-.01,1.58-.04-.1-.09-.2-.13-.3Z"/>
  <path class="cls-16" d="m254.57,40.75c.13.36.27.71.4,1.07-.13-.36-.27-.71-.4-1.07Z"/>
  <path class="cls-2" d="m311.56,89.05c.21.11.43.21.64.32-.21.11-.43.21-.64.32,0-.21,0-.43,0-.64Z"/>
  <path class="cls-13" d="m6.99,1.14c-.41.01-.83.02-1.24.04.41-.01.83-.02,1.24-.04Z"/>
  <path class="cls-13" d="m232.48,80.73c-.17-.07-.34-.14-.51-.21.23-.1.47-.2.7-.3-.06.17-.13.33-.19.5Z"/>
  <path class="cls-21" d="m285.06,48.92c-.08.21-.16.42-.24.62.08-.21.16-.42.24-.62Z"/>
  <path class="cls-30" d="m246.04,37.26c-.07.17-.14.35-.21.52.07-.17.14-.35.21-.52Z"/>
  <path class="cls-5" d="m80.96,38.64c-.02-.21-.05-.41-.07-.62.21,0,.42-.01.63-.02-.09.17-.17.33-.26.5-.1.05-.2.09-.3.14Z"/>
  <path class="cls-25" d="m280.01,112.25c-.1.15-.2.31-.3.46-.07-.15-.15-.3-.22-.45.17,0,.35,0,.52,0Z"/>
  <path class="cls-30" d="m118.05,90.74c.07.24.15.47.22.71-.07-.24-.15-.47-.22-.71Z"/>
  <path class="cls-16" d="m496.99,72.48c.09-.24.19-.48.28-.72-.04.25-.08.5-.12.75-.05,0-.1-.01-.16-.02Z"/>
  <path class="cls-13" d="m485.5,1c-.25.06-.5.13-.75.19.25-.06.5-.13.75-.19Z"/>
  <path class="cls-8" d="m451.8,112.55c-.1.07-.21.13-.31.2-.03-.08-.06-.16-.1-.24.14.01.27.03.41.04Z"/>
  <path class="cls-13" d="m300.25,27.22c-.17,0-.33-.02-.5-.03.17,0,.33.02.5.03Z"/>
  <path class="cls-21" d="m435.73,89.48c.08-.17.16-.33.24-.5-.08.17-.16.33-.24.5Z"/>
  <path class="cls-8" d="m228.75,112.5c-.1.07-.2.15-.3.22-.04-.09-.08-.18-.12-.27.14.01.28.03.42.04Z"/>
  <path class="cls-21" d="m286.93,42.21c-.06.18-.12.36-.18.54.06-.18.12-.36.18-.54Z"/>
  <path class="cls-21" d="m409.79,84.89c-.19-.04-.37-.08-.56-.12.19.04.37.08.56.12Z"/>
  <path class="cls-21" d="m281.24,62.74c-.05.18-.1.37-.15.55.05-.18.1-.37.15-.55Z"/>
  <path class="cls-13" d="m312.25,1.13c-.17.02-.33.04-.5.06.17-.02.33-.04.5-.06Z"/>
  <path class="cls-2" d="m511.28,71.01c0,.16-.02.33-.03.49-.08.01-.17.03-.25.04.09-.18.19-.35.28-.53Z"/>
  <path class="cls-16" d="m382.55,71.01c.06.2.11.39.17.59-.06-.2-.11-.39-.17-.59Z"/>
  <path class="cls-21" d="m280.02,91.52c.13-.11.27-.22.4-.34-.13.11-.27.22-.4.34Z"/>
  <path class="cls-21" d="m284.71,50.23c-.05.18-.11.37-.16.55.05-.18.11-.37.16-.55Z"/>
  <path class="cls-13" d="m292,27.13c-.16.04-.33.08-.49.12.16-.04.33-.08.49-.12Z"/>
  <path class="cls-21" d="m206.98,28.01c.05.18.11.35.16.53-.05-.18-.11-.35-.16-.53Z"/>
  <path class="cls-21" d="m419.29,26.6c-.18-.03-.37-.06-.55-.09.18.03.37.06.55.09Z"/>
  <path class="cls-30" d="m72.04,28.49c0,.17,0,.34,0,.51,0-.17,0-.34,0-.51Z"/>
  <path class="cls-16" d="m247.72,32.14c-.06.2-.12.4-.18.6.06-.2.12-.4.18-.6Z"/>
  <path class="cls-21" d="m80.82,31.28c0-.19,0-.38,0-.57,0,.19,0,.38,0,.57Z"/>
  <path class="cls-21" d="m80.79,30.27c0-.09-.01-.19-.02-.28.03.06.06.13.08.2,0,.02-.04.06-.06.09Z"/>
  <path class="cls-21" d="m259.45,29.28c-.03-.11-.06-.22-.09-.33.03.11.06.22.09.33Z"/>
  <path class="cls-21" d="m102.04,26.08c-.11.02-.22.04-.33.05.11-.02.22-.04.33-.05Z"/>
  <path class="cls-21" d="m364.24,16.26c-.04-.07-.09-.13-.12-.2,0-.02.04-.07.06-.1.03.07.07.13.09.2,0,.03-.02.07-.03.11Z"/>
  <path class="cls-21" d="m409.03,26.06c-.11.01-.22.03-.33.04.11-.01.22-.03.33-.04Z"/>
  <path class="cls-21" d="m98.76,26.52c-.1.02-.2.03-.31.05.1-.02.2-.03.31-.05Z"/>
  <path class="cls-21" d="m279.59,67.96c-.02.11-.04.21-.06.32.02-.11.04-.21.06-.32Z"/>
  <path class="cls-21" d="m111.29,26.58c-.1-.02-.21-.04-.31-.05.1.02.21.04.31.05Z"/>
  <path class="cls-21" d="m73.04,27.08c-.11,0-.22,0-.33,0,.11,0,.22,0,.33,0Z"/>
  <path class="cls-21" d="m236.22,68.73c-.04.11-.08.21-.12.32.04-.11.08-.21.12-.32Z"/>
  <path class="cls-21" d="m263.51,68.99c.03.06.07.13.09.19,0,.02-.03.06-.05.1-.02-.06-.05-.13-.07-.19,0-.03.02-.07.03-.1Z"/>
  <path class="cls-21" d="m75.03,27.19c-.11,0-.21-.01-.32-.02.11,0,.21.01.32.02Z"/>
  <path class="cls-21" d="m228.73,70.01c-.03-.07-.07-.13-.09-.2,0-.02.04-.06.06-.09.01.1.02.2.03.29Z"/>
  <path class="cls-21" d="m370.73,71.26c-.02-.06-.05-.13-.05-.19,0-.02.05-.05.07-.08,0,.09-.01.18-.02.27Z"/>
  <path class="cls-21" d="m370.96,63.28c-.02-.11-.04-.22-.06-.32.03.07.07.14.09.21,0,.03-.02.07-.03.11Z"/>
  <path class="cls-2" d="m497.76,71.7c.08-.07.16-.13.24-.2,0,.07,0,.13,0,.2-.08,0-.16,0-.24,0Z"/>
  <path class="cls-2" d="m509.51,71.71c.08,0,.16,0,.24,0l-.12.03-.12-.03Z"/>
  <path class="cls-21" d="m511.22,71.58c.06-.06.14-.09.22-.1-.07.03-.15.07-.22.1Z"/>
  <path class="cls-30" d="m487.69,71.79c.06.07.12.13.18.2-.06-.07-.12-.13-.18-.2Z"/>
  <path class="cls-13" d="m76.01,27.18c-.09,0-.18,0-.26-.01.09,0,.18,0,.26.01Z"/>
  <path class="cls-30" d="m487.82,72.49c.02.06.05.13.06.19,0,.02-.05.05-.08.08,0-.09.01-.18.02-.27Z"/>
  <path class="cls-16" d="m497.17,73.24c-.02-.05-.05-.1-.07-.15,0-.02.04-.04.06-.07.05.07.05.15,0,.22Z"/>
  <path class="cls-13" d="m77.01,27.18c-.09,0-.18,0-.26,0,.09,0,.18,0,.26,0Z"/>
  <path class="cls-16" d="m393.49,74.5c-.07-.11-.14-.21-.21-.32.07.11.14.21.21.32Z"/>
  <path class="cls-13" d="m78.01,27.2c-.09,0-.18,0-.26,0,.09,0,.18,0,.26,0Z"/>
  <path class="cls-30" d="m487.8,74.74c.03.06.07.13.08.19,0,.02-.05.05-.09.08,0-.09,0-.18,0-.27Z"/>
  <path class="cls-21" d="m238.55,60.97c.01.07.04.14.04.21,0,.03-.05.05-.08.08.01-.09.03-.19.04-.28Z"/>
  <path class="cls-21" d="m343.52,1.04c-.09-.02-.18-.03-.26-.05.09.02.18.03.26.05Z"/>
  <path class="cls-21" d="m277.18,76.96c-.03.11-.07.22-.1.33.03-.11.07-.22.1-.33Z"/>
  <path class="cls-16" d="m384.78,77.01c.06.12.13.24.19.36-.06-.12-.13-.24-.19-.36Z"/>
  <path class="cls-21" d="m276.61,78.44c-.05.09-.1.18-.15.27.05-.09.1-.18.15-.27Z"/>
  <path class="cls-13" d="m391.5,60.86c.09,0,.17-.01.26-.02-.09,0-.17.01-.26.02Z"/>
  <path class="cls-13" d="m80.21,27.32c-.08,0-.15-.02-.21-.09.07.03.14.06.21.09Z"/>
  <path class="cls-21" d="m269.53,60.77c-.02-.09-.03-.17-.05-.26.04.06.08.11.11.17,0,.02-.04.06-.06.09Z"/>
  <path class="cls-13" d="m440.54,60.26c0-.09,0-.17.01-.26.03.06.06.13.08.19,0,.02-.06.05-.09.07Z"/>
  <path class="cls-13" d="m314.01,1.2c-.09,0-.18,0-.26,0,.09,0,.18,0,.26,0Z"/>
  <path class="cls-13" d="m313.01,1.19c-.09,0-.18,0-.26-.01.09,0,.18,0,.26.01Z"/>
  <path class="cls-6" d="m209,27.2c-.08,0-.16,0-.24,0,.08,0,.16,0,.24,0Z"/>
  <path class="cls-21" d="m408.3,84.64c-.11-.03-.22-.06-.33-.09.11.03.22.06.33.09Z"/>
  <path class="cls-6" d="m216.25,27.2c-.08-.02-.16-.03-.24-.05.08.02.16.03.24.05Z"/>
  <path class="cls-13" d="m249.75,27.19c-.08.03-.16.05-.24.08.08-.03.16-.05.24-.08Z"/>
  <path class="cls-21" d="m435.65,86.3c-.03-.11-.07-.22-.1-.33.03.11.07.22.1.33Z"/>
  <path class="cls-30" d="m72.05,88.99c.02.06.06.13.07.19,0,.02-.05.05-.08.08,0-.09,0-.18.01-.27Z"/>
  <path class="cls-13" d="m251.01,27.21c-.09,0-.17,0-.26,0,.09,0,.17,0,.26,0Z"/>
  <path class="cls-21" d="m226.26,89.24c.03.07.08.13.1.2,0,.02-.03.07-.05.1-.03-.06-.06-.13-.07-.19,0-.03.02-.07.03-.1Z"/>
  <path class="cls-21" d="m127.62,90.54c0-.11-.02-.23-.02-.34,0,.11.02.23.02.34Z"/>
  <path class="cls-21" d="m280.52,90.51c0-.1.02-.19.03-.29.02.07.04.14.05.21,0,.03-.05.05-.08.08Z"/>
  <path class="cls-21" d="m284.3,51.72c-.02.09-.04.19-.05.28.02-.09.04-.19.05-.28Z"/>
  <path class="cls-21" d="m270.51,90.99c.06.1.12.2.18.3-.06-.1-.12-.2-.18-.3Z"/>
  <path class="cls-30" d="m487.8,90.99c.03.12.07.24.1.36-.03-.12-.07-.24-.1-.36Z"/>
  <path class="cls-21" d="m81.22,91.47c.07-.09.15-.17.22-.26-.07.09-.15.17-.22.26Z"/>
  <path class="cls-13" d="m127.31,91.52c.07-.06.14-.13.21-.19-.07.06-.14.13-.21.19Z"/>
  <path class="cls-21" d="m236.22,91.45c.09-.07.19-.14.28-.21-.09.07-.19.14-.28.21Z"/>
  <path class="cls-13" d="m255.01,27.19c-.09,0-.18,0-.26,0,.09,0,.18,0,.26,0Z"/>
  <path class="cls-21" d="m.5,91.5c.09.01.17.02.26.03-.09-.01-.17-.02-.26-.03Z"/>
  <path class="cls-30" d="m54.76,91.5c.08.03.17.07.25.1-.08-.03-.17-.07-.25-.1Z"/>
  <path class="cls-30" d="m72.66,91.58c.11.02.23.05.34.07-.11-.02-.23-.05-.34-.07Z"/>
  <path class="cls-30" d="m118.68,91.56c.11.03.22.05.32.08-.11-.03-.22-.05-.32-.08Z"/>
  <path class="cls-30" d="m232.99,91.69c.09,0,.18,0,.27,0-.09,0-.18,0-.27,0Z"/>
  <path class="cls-30" d="m275.99,91.71c.09,0,.18,0,.26,0-.09,0-.18,0-.26,0Z"/>
  <path class="cls-21" d="m345.48,91.73c.1-.02.21-.04.31-.05-.1.02-.21.04-.31.05Z"/>
  <path class="cls-16" d="m496.75,91.75c.11-.08.22-.15.32-.23-.11.08-.22.15-.32.23Z"/>
  <path class="cls-21" d="m405.47,91.95c.09.01.19.03.28.04-.09-.01-.19-.03-.28-.04Z"/>
  <path class="cls-21" d="m317.7,92.16c.1.02.21.04.31.07l-.31-.07Z"/>
  <path class="cls-21" d="m425.47,92.21c.11-.03.22-.05.32-.08-.11.03-.22.05-.32.08Z"/>
  <path class="cls-21" d="m318.95,92.38c.11.03.22.05.32.08-.11-.03-.22-.05-.32-.08Z"/>
  <path class="cls-21" d="m58.04,1.09c-.11.01-.22.03-.34.04.11-.01.22-.03.34-.04Z"/>
  <path class="cls-21" d="m57.04,1.15c-.11,0-.22.02-.33.03.11,0,.22-.02.33-.03Z"/>
  <path class="cls-13" d="m256.01,27.19c-.09,0-.18,0-.26,0,.09,0,.18,0,.26,0Z"/>
  <path class="cls-21" d="m117.96,47.79s.09.09.12.14c0,.01-.04.05-.06.08-.07-.06-.09-.14-.06-.23Z"/>
  <path class="cls-13" d="m56.01,1.16c-.09,0-.17,0-.26,0,.09,0,.17,0,.26,0Z"/>
  <path class="cls-13" d="m55.01,1.17c-.09,0-.17,0-.26,0,.09,0,.17,0,.26,0Z"/>
  <path class="cls-13" d="m54.01,1.18c-.09,0-.18,0-.26,0,.09,0,.18,0,.26,0Z"/>
  <path class="cls-13" d="m53.01,1.19c-.09,0-.18,0-.26,0,.09,0,.18,0,.26,0Z"/>
  <path class="cls-13" d="m52.01,1.2c-.09,0-.17,0-.26,0,.09,0,.17,0,.26,0Z"/>
  <path class="cls-13" d="m9,1.24c-.09-.01-.17-.02-.26-.04.09.01.17.02.26.04Z"/>
  <path class="cls-13" d="m8.01,1.15c-.08-.01-.17-.02-.25-.04.08.01.17.02.25.04Z"/>
  <path class="cls-16" d="m256.33,46.01c.05.12.09.24.14.36-.05-.12-.09-.24-.14-.36Z"/>
  <path class="cls-13" d="m5.01,1.18c-.09,0-.18,0-.26,0,.09,0,.18,0,.26,0Z"/>
  <path class="cls-13" d="m4.01,1.19c-.09,0-.17,0-.26,0,.09,0,.17,0,.26,0Z"/>
  <path class="cls-13" d="m3.01,1.18c-.09,0-.18,0-.26,0,.09,0,.18,0,.26,0Z"/>
  <path class="cls-13" d="m2.01,1.2c-.09,0-.17,0-.26,0,.09,0,.17,0,.26,0Z"/>
  <path class="cls-13" d="m1.01,1.18c-.09-.01-.17-.03-.26-.04.09.01.17.03.26.04Z"/>
  <path class="cls-21" d="m117.51,44.99c.03.06.07.13.08.19,0,.02-.03.06-.05.09-.02-.06-.05-.13-.06-.19,0-.03.02-.06.03-.1Z"/>
  <path class="cls-21" d="m244.14,43.7c-.05.1-.09.2-.14.3.05-.1.09-.2.14-.3Z"/>
  <path class="cls-21" d="m117.03,42.73c.04.11.08.21.13.32-.04-.11-.08-.21-.13-.32Z"/>
  <path class="cls-13" d="m293.01,27.21c-.09,0-.17,0-.26,0,.09,0,.17,0,.26,0Z"/>
  <path class="cls-13" d="m297.01,27.17c-.09,0-.18,0-.26,0,.09,0,.18,0,.26,0Z"/>
  <path class="cls-21" d="m245.3,39.71c-.02.1-.04.19-.06.29.02-.1.04-.19.06-.29Z"/>
  <path class="cls-14" d="m78.5,113.31c-.08,0-.17,0-.25,0,.08,0,.17,0,.25,0Z"/>
  <path class="cls-21" d="m421.53,27.21c-.11-.04-.22-.08-.32-.12.11.04.22.08.32.12Z"/>
  <path class="cls-21" d="m219.7,37.78c-.04-.11-.08-.22-.12-.32.04.11.08.22.12.32Z"/>
  <path class="cls-16" d="m96.25,27.28c-.08.02-.16.03-.23.05.07-.06.15-.08.23-.05Z"/>
  <path class="cls-21" d="m291.25,27.75c-.03.1-.05.2-.08.31.03-.1.05-.2.08-.31Z"/>
  <path class="cls-21" d="m300.09,28.05c.04-.11.08-.21.12-.32-.04.11-.08.21-.12.32Z"/>
  <path class="cls-30" d="m106.39,33.87c.12.03.24.05.37.08-.12-.03-.24-.05-.37-.08Z"/>
  <path class="cls-21" d="m225.01,56.74c-.04-.06-.08-.12-.11-.18,0-.02.03-.07.04-.1.02.09.05.19.07.28Z"/>
  <path class="cls-30" d="m371.2,65.26c-.03-.06-.07-.12-.09-.19,0-.02.05-.05.08-.08,0,.09,0,.18,0,.27Z"/>
  <path class="cls-16" d="m497.2,59c-.77-.48-1.52-.99-2.32-1.43-1.9-1.05-3.77-.7-5.37.51-.6.45-.74,1.55-.99,2.38-.13.44.12,1.07-.69,1.04-.02-4.27-.05-8.54-.05-12.8,0-3.56,0-7.13,0-10.69.05-.28.11-.55.16-.83,1.48-.06,2.96-.14,4.45-.17,1.54-.03,3.08,0,4.65,0,.08.3.2.53.2.76,0,7.08-.02,14.16-.03,21.24Z"/>
  <path class="cls-2" d="m508.25,64.3c0,.95-.78.79-1.33.95-1.29.37-2.58.72-3.96,1.1.26.85.51,1.42.59,2.02.07.57.17,1.44-.14,1.69-.52.41-1.37.63-2.04.56-.79-.09-1.53-.59-2.62-1.05.62-.49,1-.87,1.45-1.14.8-.47.75-1.24.09-1.41-1.78-.46-1.44-1.51-1.03-2.69,3,0,6-.01,9-.02Z"/>
  <path class="cls-16" d="m497.76,64.5c0-.06-.01-.12,0-.18.25,0,.49,0,.74,0l-.73.18Z"/>
  <path class="cls-30" d="m487.94,37.18c-.05.28-.11.55-.16.83.05-.28.11-.55.16-.83Z"/>
  <path class="cls-21" d="m492.51,1.49c-.18-.07-.35-.14-.53-.21.18.07.35.14.53.21Z"/>
  <path class="cls-30" d="m487.92,63.5c.02.06.05.11.06.17,0,.02-.03.05-.05.08,0-.08,0-.17-.01-.25Z"/>
  <path class="cls-21" d="m497.11,63.54c.03-.11.06-.22.09-.32-.03.11-.06.22-.09.32Z"/>
  <path class="cls-28" d="m356.66,77.97c-5.8,5.17-12.88,6.53-20.31,6.69-3.44.08-6.89-.07-10.34-.11-.09,0-.18,0-.27-.01-1.49-.1-2.97-.19-4.46-.29-.03-.33-.05-.65-.08-.98,0-.34.02-.67.02-1.01.04-2.11.12-4.23.12-6.34,0-8.39-.03-16.77-.06-25.16,0-.58-.06-1.16-.09-1.74.03-.33.07-.65.1-.98.15-.03.3-.05.45-.08.58.01,1.16.02,1.74.03,7.33.08,14.69-.38,21.97.91.92.25,1.83.5,2.75.75.93.36,1.86.72,2.79,1.08,4.33,2.09,7.55,5.2,9.16,9.82.23.83.45,1.65.68,2.48.04.12.09.23.13.35.02.88.05,1.76.07,2.63,0,.42,0,.83,0,1.25-.28,1.73-.55,3.46-.83,5.18-.24.52-.48,1.04-.72,1.56-.39.64-.78,1.28-1.18,1.91-.55.68-1.11,1.37-1.66,2.05Z"/>
  <path class="cls-28" d="m321.27,38.75c.02-.17.03-.33.05-.5.03-.03.09-.06.08-.08-.02-.07-.05-.13-.08-.19.01-7.46.03-14.91.03-22.37,0-2.21-.04-4.42-.06-6.62.07-.15.15-.3.22-.45.15-.05.29-.1.44-.16.11-.02.22-.04.34-.06.39-.05.78-.1,1.17-.15.11-.03.22-.06.33-.1,4.56-.05,9.12-.11,13.67-.16.1,0,.21.02.31.03,3.89.6,7.82,1.18,11.15,3.49,3.76,2.61,5.87,6.22,6.08,10.86.13,2.81-.03,5.61-1.35,8.12-1.74,3.32-4.29,5.87-7.88,7.24-.19.07-.36.19-.54.28-1.4.38-2.79.76-4.19,1.14-.11.03-.22.06-.33.08-6.41.09-12.82.18-19.22.26-.07-.23-.15-.46-.22-.68Z"/>
  <path class="cls-3" d="m321.49,39.44c6.41-.09,12.82-.18,19.22-.26.11-.03.22-.06.33-.08,1.4-.38,2.79-.76,4.19-1.14.44,1.21.92,2.41,1.29,3.64.45,1.52.87,3.06,1.16,4.62.06.3-.51.74-.81,1.09-.46.54-.94,1.06-1.41,1.59-7.28-1.29-14.63-.83-21.97-.91-.58,0-1.16-.02-1.74-.03-.43-.54-.82-1.13-1.31-1.61-1.84-1.81-1.88-3.4-.12-5.27.21-.22.22-.63.36-.94.1-.25.25-.48.38-.71,0,0-.01.02-.01.02.07.15.14.31.21.46.09-.11.18-.22.26-.33,0-.05,0-.09-.03-.13Z"/>
  <path class="cls-2" d="m360.21,72.43c.28-1.73.55-3.46.83-5.18,1.04-.12,1.49.5,1.43,1.39-.08,1.34-.1,2.75-.55,3.99-.5,1.38-1.15.14-1.71-.19Z"/>
  <path class="cls-2" d="m361.04,66c-.02-.88-.05-1.76-.07-2.64-.04-.12-.09-.23-.13-.35-.23-.83-.45-1.65-.68-2.48.47-.25.93-.5,1.69-.9.21,1.67.41,3.18.57,4.69.03.27-.17.56-.16.84.04.97-.4,1.16-1.22.83Z"/>
  <path class="cls-2" d="m358.32,75.91c.39-.64.78-1.28,1.18-1.91.41.13.82.25,1.22.38-.49,1.96-.86,2.18-2.4,1.54Z"/>
  <path class="cls-3" d="m351,50.72c-.93-.36-1.86-.72-2.79-1.08.08-.18.11-.47.24-.52.74-.3,2.46.8,2.56,1.6Z"/>
  <path class="cls-21" d="m341.08.23c.33.02.66.04,1,.05.07.2.14.4.22.6-.84.02-1.67.04-2.51.06.43-.24.86-.48,1.29-.71Z"/>
  <path class="cls-13" d="m321.27,38.75c.07.23.15.46.22.68.03.04.04.08.03.13-.16-.04-.32-.08-.47-.13,0,0,.01-.02.01-.02.07-.22.14-.45.21-.67Z"/>
  <path class="cls-30" d="m321.3,48.03c-.03.33-.07.65-.1.98.03-.33.07-.65.1-.98Z"/>
  <path class="cls-13" d="m321.52,8.55c-.07.15-.15.3-.22.45.07-.15.15-.3.22-.45Z"/>
  <path class="cls-21" d="m322.29,8.33c-.11.02-.22.04-.34.06.11-.02.22-.04.34-.06Z"/>
  <path class="cls-21" d="m323.79,8.09c-.11.03-.22.06-.33.1.11-.03.22-.06.33-.1Z"/>
  <path class="cls-21" d="m337.78,7.96c-.1,0-.21-.02-.31-.03.1,0,.21.02.31.03Z"/>
  <path class="cls-13" d="m321.31,37.99c.03.06.07.12.08.19,0,.02-.05.05-.08.08,0-.09,0-.18,0-.26Z"/>
  <path class="cls-16" d="m510.99,64.56c.16.15.32.3.49.44-.16-.15-.32-.3-.49-.44Z"/>
  <path class="cls-16" d="m511.5,65.02c.06.07.11.14.17.21-.06-.07-.11-.14-.17-.21Z"/>
  <path class="cls-30" d="m489.25.76c-.08,0-.17,0-.25,0,.08,0,.17,0,.25,0Z"/>
  <path class="cls-2" d="m252.54,38.41c-.04-.73-.09-1.46-.13-2.26-.15-.63-.67-1.51-.44-2.1.38-.98,1.34-1.5,2.54-1.32.65.1,1.32.01,1.99.02.96,0,1.39.53,1.21,1.44-.19,1-.25,2.15-.81,2.9-.47.62-1.57.82-2.43,1.09-.45.14-.98.02-1.47.02-.15.07-.3.14-.45.2Z"/>
  <path class="cls-21" d="m275.76,80.49c.17-.16.35-.33.52-.49-.02.27-.05.55-.07.82-.15-.11-.3-.22-.45-.33Z"/>
  <path class="cls-28" d="m416.78,33.95c9.77,1.86,14.98,10.36,14.39,19.52-.8,0-1.62,0-2.43,0-12.28.03-24.56.07-36.85.1-.29,0-.57-.07-.86-.1-.06-.09-.12-.17-.18-.26,1.09-3.94,1.88-7.96,4.27-11.45,3.29-4.79,7.87-7.34,13.5-7.96,2.58-.28,5.22.02,7.83.05.11.03.22.07.33.1Z"/>
  <path class="cls-21" d="m390.86,53.2c.06.09.12.17.18.26-.06-.09-.12-.17-.18-.26Z"/>
  <path class="cls-21" d="m416.78,33.95c-.11-.03-.22-.07-.33-.1.11.03.22.07.33.1Z"/>
  <path class="cls-20" d="m147.15,52.37c-1.09-.35-1.02-1.38-1.11-2.17-.49-4.61.54-8.87,3.46-12.51,2.89-3.6,6.6-6.1,10.94-7.72,4.19-1.57,8.51-2.19,12.94-1.95,7.23.4,13.72,2.66,18.92,7.93,3.66,3.7,5.49,8.12,5.19,13.37-.04.77.05,1.66-1.1,1.75-.11-.34-.22-.68-.33-1.02.02-.03.05-.08.05-.1-.02-.07-.07-.13-.1-.19-1.52-4.4-4.07-8.09-7.68-11.04-2.96-2.68-6.45-4.34-10.3-5.27-4.36-1.23-8.75-1.11-13.01.21-9.37,2.92-15.41,9.14-17.86,18.72Z"/>
  <path class="cls-11" d="m147.15,52.37c2.46-9.58,8.5-15.81,17.86-18.72,4.26-1.32,8.65-1.44,13.01-.21.08.35.17.7.25,1.05-2.88-.88-5.85-.34-8.77-.48-1.47.33-2.93.82-4.42.94-2.55.2-4.63,1.49-6.6,2.82-1.99,1.34-3.66,3.14-5.47,4.74-.86,1.29-1.87,2.5-2.53,3.88-.88,1.85-1.51,3.82-2.19,5.76-.2.57-.29,1.23-.23,1.82.28,2.66.61,5.31.96,7.95.05.39.31.74.38.91.7-.2,1.18-.34,1.65-.48-.21.34-.42.68-.63,1.02-.29.32-.57.63-.86.95-.47-.27-1.18-.42-1.37-.82-1.05-2.13-1.97-4.33-2.93-6.5,1.19-.55.64-1.61.74-2.48,1.05-.35.89-1.36,1.15-2.14Z"/>
  <path class="cls-12" d="m196.06,50.04c.11.34.22.68.33,1.02,1.44,4.44,1.18,8.9.23,13.38-.56,1.59-1.12,3.18-1.69,4.78-.67,1.11-1.34,2.22-2.02,3.33-1.11,1.29-2.21,2.57-3.32,3.86-.2.07-.4.14-.59.2-.38-.3-.76-.6-1.14-.9-.3-.32-.59-.64-.89-.97-.43-.52-.87-1.05-1.22-1.47.55-.63,1.03-1.18,1.52-1.74.44-.49.88-.98,1.32-1.47-.37,1.17-.74,2.34-1.2,3.81.04.03.39.2.64.46.86.91,1.17.79,2.17.02,1.72-1.33,2.31-3.33,3.36-5.07,1.56-2.59,2.4-5.41,2.41-8.44,0-1.86-.12-3.72-.23-5.58-.08-1.27.46-2.7-.88-3.68-.1-.07-.09-.31-.09-.47.02-2.21-.94-4.08-2.1-5.84-.81-1.23-1.77-2.36-2.66-3.54-.79-.91-1.57-1.82-2.36-2.74.22-.1.45-.2.67-.3,3.61,2.95,6.16,6.64,7.68,11.04-.01.03-.04.07-.03.1.02.07.06.13.09.19Z"/>
  <path class="cls-12" d="m145.26,57c.96,2.17,1.88,4.37,2.93,6.5.2.4.9.55,1.37.82-.35.34-.71.67-1.06,1.01-.21-.38-.42-.76-.62-1.14-.48-.89-.96-1.79-1.44-2.68-1.13-2.01-2.27-4.01-3.4-6.03-.22-.39-.37-.82-.55-1.23.17-.01.34-.02.51-.03.5.1.99.19,1.49.29.25.83.51,1.66.76,2.49Z"/>
  <path class="cls-7" d="m145.26,57c-.25-.83-.51-1.66-.76-2.49.5,0,1,0,1.5,0-.1.87.45,1.94-.74,2.48Z"/>
  <path class="cls-14" d="m143.01,54.22c-.17.01-.34.02-.51.03.17-.01.34-.02.51-.03Z"/>
  <path class="cls-21" d="m80.96,38.64c.1-.05.2-.09.3-.14-.1.05-.2.09-.3.14Z"/>
  <path class="cls-16" d="m321.2,83.26c.03.33.05.65.08.98-.03-.33-.05-.65-.08-.98Z"/>
  <path class="cls-30" d="m325.74,84.53c.09,0,.18,0,.27.01-.09,0-.18,0-.27-.01Z"/>
  <path class="cls-28" d="m500.24,120.37c0,2.21,0,4.41,0,6.62,0,.63-.04,1.16-.84,1.26-3.33.42-6.64.65-9.69-1.19-.3-.18-.62-.41-.82-.7-2.82-4.19-2.51-8.12.05-12.11,1.15-1.78,3.17-2.22,5.13-2.44,1.35-.15,2.75-.1,4.11,0,1.64.12,2.05.67,2.06,2.31,0,2.08,0,4.16,0,6.24h0Z"/>
  <path class="cls-28" d="m204.67,118.1c.62-2.71,1.31-5.13,4.09-5.97,2.69-.81,5.49-.93,7.49,1.39.97,1.13,1.23,2.86,1.92,4.58h-13.5Z"/>
  <path class="cls-28" d="m464.38,117.97c.7-6.72,7.2-7.5,11.11-5.11,1.02.62,2.23,3.93,1.81,4.95-.08.2-.43.41-.66.41-4,0-7.99-.03-11.99-.07-.07,0-.14-.09-.27-.18Z"/>
  <path class="cls-28" d="m427.76,117.75c.36-1.01.62-2.08,1.1-3.03.8-1.6,2.29-2.34,3.95-2.8,3.69-1.01,6.79.61,8.02,4.2.58,1.69.29,2.12-1.45,2.11-3.71-.01-7.41-.03-11.12-.05-.1-.03-.21-.05-.31-.08,0,0-.04-.02-.04-.02-.05-.11-.09-.22-.14-.33Z"/>
  <path class="cls-20" d="m427.76,117.75c.05.11.09.22.14.33-.05-.11-.09-.22-.14-.33Z"/>
  <path class="cls-20" d="m427.94,118.1c.1.03.21.05.31.08-.1-.03-.21-.05-.31-.08Z"/>
  <path class="cls-28" d="m161,124.39c0,.75-.08,1.51.02,2.24.17,1.21-.28,1.81-1.5,1.78-2.15-.04-4.31-.01-6.45-.21-1.42-.13-2.49-1.27-2.54-2.52-.07-1.61-.43-3.33,1.54-4.33,2.59-1.31,5.25-1.76,8.06-1.03.36.09.78.68.83,1.07.12.98.04,1.99.04,2.99Z"/>
  <path class="cls-28" d="m339.5,111.7c3.9.05,6.07,2.04,6.54,5.92.27,2.25.24,4.45-.39,6.67-1.53,5.34-8.63,5.29-11.36,2.35-.88-.95-1.5-2.38-1.67-3.67-.26-1.95-.19-3.99.03-5.95.3-2.68,2.68-5.66,6.86-5.31Z"/>
  <path class="cls-28" d="m268.92,120.15c-.42,1.75-.78,3.51-1.29,5.23-.37,1.21-1.34,1.99-2.49,2.47-4.59,1.9-9.91.31-10.1-5.92-.06-2,.2-4.03.49-6.03.32-2.26,1.91-3.49,4-3.92,1.98-.41,4.04-.73,5.92.45,2.02,1.27,3,3.16,3.08,5.52.02.71,0,1.41,0,2.12.13.03.26.06.39.08Z"/>
  <path class="cls-28" d="m393.04,113.25c0,4.67,0,9.33,0,14-.21.3-.38.84-.63.88-2.97.43-5.91.82-8.83-.44-2.47-1.06-3.43-3.05-3.79-5.45-.34-2.28.13-4.53,1.12-6.56,1.21-2.48,3.49-3.64,6.16-3.89,1.65-.15,3.33,0,4.99-.02,1.15-.01.89.84.97,1.48Z"/>
  <path class="cls-5" d="m153,61c-.18,0-.35,0-.53,0,.4-.55.79-1.11,1.19-1.66.39.11.78.22,1.45.42-.32-.78-.46-1.14-.61-1.51.07-.09.14-.17.21-.26.45-.14.97-.19,1.35-.44,1.45-.97,2.87-1.99,4.28-3.02,3.44-2.53,7.37-3.54,11.56-3.47,1.74.03,3.48.63,5.22.92,3.58.61,6.09,3.02,8.68,5.25.93.8,1.68,1.83,2.37,2.85.49.72.74,1.61,1.09,2.42-.42.33-.83.67-1.25,1-.58.33-1.17.67-1.75,1,.27-1.04.11-1.94-.76-2.68-.3-.26-.47-.68-.71-1.02-1.22-1.75-2.77-3.21-4.59-4.25-2-1.13-4.12-2.03-6.51-2.23-3.85-.33-7.55,0-10.87,2.16-1.05.69-2.03,1.49-3.02,2.27-.3.24-.55.56-.79.87-1.05,1.33-2.51,2.43-2.5,4.37h0c-.58-.33-1.17-.66-1.75-1-.33-.33-.67-.67-1-1q-.27-1.04-.75-1Z"/>
  <path class="cls-29" d="m153.66,59.33c-.4.55-.79,1.11-1.19,1.66-.07.08-.15.16-.22.24-.08.01-.16.02-.24.02-.68-.19-1.88.49-1.95-.7-.14-2.53-1.32-4.97-.58-7.58.61-2.16,1.06-4.36,1.6-6.54.05-.21.36-.35.46-.57.5-1.11.98-2.24,1.46-3.36,1.81-1.6,3.49-3.4,5.47-4.74,1.97-1.33,4.05-2.61,6.6-2.82,1.49-.12,2.94-.61,4.42-.94.32.17.63.4.97.48,2.06.53,4.14.98,6.19,1.54.58.16,1.05.68,1.63.83,1.29.34,1.95,1.02,1.71,2.4-2.08-.54-4.16-1.07-6.23-1.61-.32-.31-.61-.83-.98-.89-1.09-.19-2.27-.02-3.31-.31-2.3-.65-4.35.39-6.39.92-1.75.46-3.38,1.7-4.83,2.87-2.33,1.87-4.17,4.2-5.02,7.14-.19.66.02,1.43.05,2.15-.41,1.3-.81,2.59-1.22,3.89.05.37.1.74.15,1.11.1.03.19.06.29.09-.08.97-.16,1.94-.23,2.9-.08,1.08.36,1.63,1.49,1.47-.03.11-.06.22-.09.33Z"/>
  <path class="cls-20" d="m154.75,63c.58.33,1.17.67,1.75,1-.1.39-.15.8-.3,1.17-.88,2.31-1.47,4.65-.98,7.14.24,1.21.33,2.5.81,3.62.75,1.77,1.62,3.51,2.7,5.09.72,1.05,1.87,1.81,2.85,2.68,1.96,1.73,4.36,2.58,6.85,3,1.72.29,3.53.13,5.3.04,2.42-.12,4.6-1.02,6.57-2.41,2.76-1.95,4.93-4.39,6.24-7.56.19-.46.87-.71,1.32-1.05.38.3.76.6,1.14.9-.39.66-.82,1.3-1.17,1.98-2.9,5.52-7.35,8.77-13.53,9.97-3.08.6-5.94-.01-8.77-.7-1.9-.46-3.77-1.6-5.29-2.87-1.78-1.5-3.5-3.28-4.62-5.29-1.18-2.11-1.73-4.6-2.34-6.98-.76-2.97.13-5.78,1.22-8.54.15-.37.16-.8.24-1.2Z"/>
  <path class="cls-10" d="m153,61q.48-.04.75,1c-.25-.33-.5-.67-.75-1Z"/>
  <path class="cls-26" d="m153,42.5c-.48,1.12-.96,2.25-1.46,3.36-.1.22-.4.36-.46.57-.55,2.18-.99,4.38-1.6,6.54-.74,2.62.43,5.05.58,7.58.07,1.19,1.27.51,1.95.7-.32.36-.64.73-.95,1.09-.48.14-.95.28-1.65.48-.07-.16-.33-.52-.38-.91-.35-2.65-.69-5.3-.96-7.95-.06-.6.03-1.26.23-1.82.67-1.94,1.31-3.91,2.19-5.76.66-1.38,1.67-2.59,2.53-3.88Z"/>
  <path class="cls-16" d="m360.84,63.02c.04.12.09.23.13.35-.04-.12-.09-.23-.13-.35Z"/>
  <path class="cls-21" d="m341.05,39.09c-.11.03-.22.06-.33.08.11-.03.22-.06.33-.08Z"/>
  <path class="cls-16" d="m321.05,39.44c.16.04.32.08.47.13-.09.11-.18.22-.26.33-.07-.15-.14-.31-.21-.46Z"/>
  <path class="cls-7" d="m188.32,38.71c-.22.1-.45.2-.67.3-.44-.21-.91-.38-1.33-.62-1.2-.69-2.39-1.41-3.58-2.12-.33-.09-.66-.18-.98-.27-.34-.24-.68-.48-1.02-.72-.82-.26-1.65-.53-2.47-.79l-.25-1.05c3.86.93,7.34,2.59,10.3,5.27Z"/>
  <path class="cls-14" d="m196.06,50.04c-.03-.06-.07-.12-.09-.19,0-.03.02-.07.03-.1.04.06.08.12.1.19,0,.03-.03.07-.05.1Z"/>
  <path class="cls-26" d="m181.76,35.99c.33.09.66.18.98.27.22.42.36.93.68,1.25,1.37,1.36,2.94,2.55,4.17,4.03.96,1.15,1.52,2.64,2.28,4.01-.68.13-1.05.2-1.41.27-2.32-2.83-5.24-4.89-8.46-6.56.24-1.38-.42-2.07-1.71-2.4-.58-.15-1.05-.68-1.63-.83-2.05-.56-4.13-1.02-6.19-1.54-.34-.09-.65-.32-.97-.48,2.92.14,5.89-.4,8.77.48.82.26,1.65.53,2.47.79.34.24.68.48,1.02.72Z"/>
  <path class="cls-7" d="m190.01,41.74c.89,1.18,1.85,2.31,2.66,3.54,1.16,1.77,2.13,3.63,2.1,5.84,0,.16,0,.4.09.47,1.34.98.81,2.41.88,3.68.11,1.86.24,3.72.23,5.58-.02,3.02-.85,5.85-2.41,8.44-1.05,1.73-1.64,3.74-3.36,5.07-1,.78-1.31.89-2.17-.02-.25-.26-.6-.43-.64-.46.46-1.47.83-2.64,1.2-3.81,0,0,.01,0,.02,0,1.26.03,2.35-1.8,1.92-3.23.4-.95.81-1.89,1.21-2.84,1.1-.18,1.14-1.09,1.24-1.89.07-.54.19-1.23-.69-1.35-.02-.11-.04-.21-.07-.32,0-1.48.01-2.96.02-4.43-.21-1.49-.43-2.98-.64-4.47.38-.26,1.12-.59,1.09-.78-.31-1.72-.66-3.44-1.19-5.1-.42-1.32-1.93-2.24-1.49-3.91Z"/>
  <path class="cls-10" d="m187.27,71.54c-.49.55-.97,1.11-1.52,1.74.35.42.78.95,1.22,1.47-1.07-.12-1.59.39-2.08,1.35-.78,1.54-1.7,3.05-2.8,4.38-1.55,1.88-3.62,3.01-5.94,3.9-3.4,1.31-6.67,1.04-9.93-.16-3.21-1.18-5.79-3.24-7.37-6.33-.76-1.49-1.62-3.1-1.76-4.71-.21-2.3-.59-4.75.76-6.95.19-.32.1-.81.14-1.22h.75c.17.17.33.33.5.5-.03.47,0,.95-.09,1.42-.19,1.06-.63,2.1-.63,3.15-.02,4.47,1.48,8.32,5.21,10.97,1.36.96,2.96,1.7,4.57,2.16,1.89.53,3.9.61,5.84.04,1.31-.39,2.69-.72,3.82-1.43,2.46-1.54,4.21-3.75,5.47-6.4,1.05-2.22,1.48-4.37.67-6.75-.32-.93-.41-1.93-.61-2.9.25-.17.5-.33.75-.5.25-.08.5-.16.75-.25.75,2.18,1.51,4.36,2.26,6.54Z"/>
  <path class="cls-6" d="m158,65c-.04.41.05.9-.14,1.22-1.35,2.2-.97,4.65-.76,6.95.14,1.61,1,3.22,1.76,4.71,1.58,3.09,4.16,5.15,7.37,6.33,3.26,1.2,6.53,1.47,9.93.16,2.31-.89,4.38-2.02,5.94-3.9,1.1-1.33,2.01-2.84,2.8-4.38.49-.96,1.01-1.47,2.08-1.35.3.32.59.64.89.97-.45.35-1.13.6-1.32,1.05-1.31,3.17-3.48,5.6-6.24,7.56-1.97,1.39-4.15,2.29-6.57,2.41-1.76.09-3.58.25-5.3-.04-2.49-.42-4.89-1.26-6.85-3-.98-.87-2.13-1.62-2.85-2.68-1.08-1.58-1.95-3.32-2.7-5.09-.47-1.12-.57-2.4-.81-3.62-.49-2.49.1-4.83.98-7.14.14-.37.2-.78.3-1.17,0,0,0,0,0,0,.5.33,1,.67,1.5,1Z"/>
  <path class="cls-11" d="m190.01,41.74c-.44,1.67,1.06,2.59,1.49,3.91.53,1.66.88,3.38,1.19,5.1.03.19-.71.52-1.09.78-.27-.52-.53-1.04-.8-1.55-.78-1.38-1.57-2.77-2.35-4.15.37-.07.73-.14,1.41-.27-.76-1.38-1.32-2.86-2.28-4.01-1.23-1.48-2.79-2.67-4.17-4.03-.32-.32-.46-.83-.68-1.25,1.19.71,2.38,1.43,3.58,2.12.42.24.89.42,1.33.62.78.91,1.57,1.82,2.36,2.74Z"/>
  <path class="cls-20" d="m187.27,71.54c-.75-2.18-1.51-4.36-2.26-6.54.41-.17.83-.34,1.24-.5.58-.33,1.17-.67,1.75-1,.71,1.27,1.43,2.53,2.14,3.8-.51.92-1.03,1.84-1.54,2.76,0,0-.01,0-.01,0-.44.49-.88.98-1.32,1.47Z"/>
  <path class="cls-10" d="m192.24,56c0,1.48-.01,2.96-.02,4.43-.24.19-.48.38-.72.56-.75.5-1.5,1-2.25,1.5-.36-.81-.6-1.7-1.09-2.42-.69-1.02-1.45-2.06-2.37-2.85-2.59-2.23-5.09-4.64-8.68-5.25-1.74-.3-3.48-.9-5.22-.92-4.18-.07-8.11.94-11.56,3.47-1.41,1.03-2.83,2.05-4.28,3.02-.38.25-.89.3-1.35.44.67-1.07,1.34-2.14,2.01-3.21.08-.13.26-.29.23-.4-.44-1.62-.22-2.19,1.27-2.97,1.24-.65,2.49-1.3,3.76-1.88,3-1.37,6.16-2.39,9.44-2.19,3.21.2,6.48.45,9.47,2.08,2.52,1.38,5.08,2.62,6.96,4.91,1.12,1.36,2.46,2.37,4.4,1.68Z"/>
  <path class="cls-4" d="m186.25,64.5c-.41.17-.83.34-1.24.5-.25.08-.5.16-.75.25-.01-.17.02-.35-.04-.49-1.67-3.73-4.8-5.87-8.44-7.2-2.69-.99-5.49-1.4-8.37-.19-1.98.82-3.83,1.73-5.37,3.23-.59.58-1.33,1.05-1.8,1.71-.6.83-1,1.8-1.48,2.71h-.75c-.5-.33-1-.67-1.5-1-.01-1.94,1.45-3.03,2.5-4.37.24-.31.49-.63.79-.87.99-.78,1.96-1.58,3.02-2.27,3.33-2.17,7.02-2.49,10.87-2.16,2.38.2,4.51,1.1,6.51,2.23,1.83,1.03,3.37,2.5,4.59,4.25.24.34.4.76.71,1.02.87.74,1.03,1.64.76,2.68Z"/>
  <path class="cls-22" d="m189.25,62.5c.75-.5,1.5-1,2.25-1.5.22.02.44.04.67.05-.14.98-.29,1.96-.43,2.94-.4.95-.81,1.89-1.21,2.84-.13.16-.26.31-.39.47-.71-1.27-1.43-2.53-2.14-3.8.42-.33.83-.67,1.25-1Z"/>
  <path class="cls-14" d="m156.72,54.77c-.67,1.07-1.34,2.14-2.01,3.21-.07.09-.14.17-.21.26-.25.25-.5.51-.75.76-1.13.15-1.58-.4-1.49-1.47.07-.97.15-1.94.23-2.9,1.41.05,2.82.1,4.23.15Z"/>
  <path class="cls-10" d="m153.75,59c.25-.25.5-.51.75-.76.15.36.29.73.61,1.51-.67-.19-1.06-.3-1.45-.42.03-.11.06-.22.09-.33Z"/>
  <path class="cls-6" d="m156.72,54.77c-1.41-.05-2.82-.1-4.23-.15-.1-.03-.19-.06-.29-.09-.05-.37-.1-.74-.15-1.11.41-1.3.81-2.59,1.22-3.89.71-1.11,1.42-2.22,2.12-3.33.19.56.37,1.12.66,2.01.91-.49,1.74-1.06,2.66-1.42,2.03-.8,4.06-1.67,6.17-2.17,2.35-.56,4.78-.86,7.19-1.07,1.08-.1,2.22.22,3.3.47,2.28.53,4.64.9,6.79,1.77,2.32.94,4.42,2.4,6.65,3.57.61.32,1.33.42,1.99.62.27.52.53,1.04.8,1.55.21,1.49.43,2.98.64,4.47-1.94.69-3.28-.32-4.4-1.68-1.88-2.29-4.44-3.54-6.96-4.91-2.98-1.63-6.25-1.88-9.47-2.08-3.28-.2-6.44.82-9.44,2.19-1.27.58-2.52,1.23-3.76,1.88-1.49.78-1.71,1.35-1.27,2.97.03.11-.15.27-.23.4Z"/>
  <path class="cls-20" d="m190.8,49.98c-.67-.2-1.39-.3-1.99-.62-2.23-1.17-4.33-2.63-6.65-3.57-2.15-.87-4.51-1.25-6.79-1.77-1.08-.25-2.22-.57-3.3-.47-2.41.21-4.84.51-7.19,1.07-2.11.51-4.14,1.38-6.17,2.17-.92.36-1.75.93-2.66,1.42-.29-.88-.48-1.45-.66-2.01,4.67-5.96,10.81-8.79,18.37-8.55,2.08.54,4.16,1.07,6.23,1.61,3.22,1.68,6.14,3.74,8.46,6.56.78,1.38,1.57,2.77,2.35,4.15Z"/>
  <path class="cls-23" d="m173.76,37.66c-7.56-.24-13.69,2.59-18.37,8.55-.71,1.11-1.42,2.22-2.12,3.33-.03-.72-.24-1.49-.05-2.15.85-2.94,2.69-5.27,5.02-7.14,1.46-1.17,3.09-2.4,4.83-2.87,2.04-.54,4.1-1.58,6.39-.92,1.05.3,2.22.13,3.31.31.37.06.65.58.98.89Z"/>
  <path class="cls-27" d="m152.05,53.43c.05.37.1.74.15,1.11-.05-.37-.1-.74-.15-1.11Z"/>
  <path class="cls-11" d="m181.76,35.99c-.34-.24-.68-.48-1.02-.72.34.24.68.48,1.02.72Z"/>
  <path class="cls-12" d="m191.73,64c.14-.98.29-1.96.43-2.94.04-.1.08-.2.12-.3.87.12.76.8.69,1.35-.1.8-.14,1.71-1.24,1.89Z"/>
  <path class="cls-12" d="m190.14,67.3c.13-.16.26-.31.39-.47.42,1.43-.67,3.27-1.92,3.23.51-.92,1.03-1.84,1.54-2.76Z"/>
  <path class="cls-6" d="m192.29,60.76c-.04.1-.08.2-.12.3-.22-.02-.44-.04-.67-.05.24-.19.48-.38.72-.56.02.11.04.21.07.32Z"/>
  <path class="cls-17" d="m158.75,65c.48-.91.88-1.88,1.48-2.71.48-.66,1.21-1.13,1.8-1.71,1.54-1.5,3.39-2.4,5.37-3.23,2.88-1.2,5.68-.79,8.37.19,3.64,1.33,6.77,3.47,8.44,7.2.06.14.03.33.04.49-.25.17-.5.33-.75.5-.42.17-.83.33-1.25.5-1.14.34-1.77.87-1.33,2.26.3.96.46,2.08.28,3.06-1.06,5.85-6.08,10.4-12.58,8.48-5.22-1.54-7.65-6.54-6.75-11.45.37-1.99.02-2.65-2.12-3.09-.17,0-.33,0-.5,0-.17-.17-.33-.33-.5-.5Zm5.16,5.49c-.3,1.96.52,3.72,1.63,5.05,1.56,1.89,3.74,2.85,6.38,2.74,4.59-.18,8.3-5.2,6.79-9.5-.26-.73-.18-1.24.38-1.77.81-.76.91-1.67.2-2.57-2.69-3.41-8.09-4.81-12.03-2.77-1.33.69-2.45,1.8-3.59,2.81-.99.88-.9,1.43,0,2.39.28.29.5.77.5,1.16,0,.82-.16,1.64-.26,2.46Z"/>
  <path class="cls-5" d="m159.25,65.5c.17,0,.33,0,.5,0,.86.85,1.38,1.76.58,2.96-.14.21-.07.57-.08.86-.11,2.69.26,5.15,1.73,7.59,2.2,3.67,5.69,4.92,9.39,5.16,2.11.14,4.48-.76,6.5-2.16,1.61-1.12,2.83-2.49,3.57-4.16.85-1.92,1.73-3.93,1.23-6.18-.24-1.08-.28-2.21-.42-3.31.42-.17.83-.33,1.25-.5.2.97.29,1.97.61,2.9.81,2.37.38,4.53-.67,6.75-1.26,2.66-3.01,4.86-5.47,6.4-1.13.71-2.52,1.04-3.82,1.43-1.94.57-3.95.49-5.84-.04-1.6-.45-3.21-1.19-4.57-2.16-3.74-2.65-5.23-6.5-5.21-10.97,0-1.05.44-2.09.63-3.15.08-.46.06-.94.09-1.42Z"/>
  <path class="cls-28" d="m163.91,70.49c.1-.82.26-1.64.26-2.46,0-.39-.22-.87-.5-1.16-.91-.96-.99-1.51,0-2.39,1.14-1.01,2.26-2.13,3.59-2.81,3.95-2.04,9.34-.64,12.03,2.77.71.9.61,1.8-.2,2.57-.57.54-.64,1.04-.38,1.77,1.52,4.3-2.2,9.32-6.79,9.5-2.65.11-4.82-.85-6.38-2.74-1.11-1.34-1.93-3.09-1.63-5.05Z"/>
  <path class="cls-4" d="m182.25,66.25c.13,1.11.18,2.23.42,3.31.5,2.26-.38,4.26-1.23,6.18-.74,1.68-1.96,3.04-3.57,4.16-2.01,1.4-4.39,2.3-6.5,2.16-3.69-.25-7.19-1.5-9.39-5.16-1.47-2.45-1.84-4.91-1.73-7.59.01-.29-.06-.65.08-.86.8-1.2.28-2.1-.58-2.96,2.13.44,2.48,1.1,2.12,3.09-.9,4.91,1.52,9.91,6.75,11.45,6.51,1.92,11.53-2.63,12.58-8.48.18-.98.02-2.1-.28-3.06-.43-1.39.19-1.92,1.33-2.26Z"/>
</svg>