<?xml version="1.0" encoding="UTF-8"?>
<svg id="Layer_1" data-name="Layer 1" xmlns="http://www.w3.org/2000/svg" viewBox="0 0 311 131.5">
  <defs>
    <style>
      .cls-1 {
        fill: #5c5c5c;
      }

      .cls-2 {
        fill: #f9ba28;
      }

      .cls-3 {
        fill: #fefeff;
      }

      .cls-4 {
        fill: #e93126;
      }

      .cls-5 {
        fill: #fedd96;
      }

      .cls-6 {
        fill: #fdefd8;
      }

      .cls-7 {
        fill: #242424;
      }

      .cls-8 {
        fill: #a05b5c;
      }

      .cls-9 {
        fill: #1752a0;
      }

      .cls-10 {
        fill: #6f6e6e;
      }

      .cls-11 {
        fill: #c2d4e4;
      }

      .cls-12 {
        fill: #cccbcc;
      }

      .cls-13 {
        fill: #d3d2d2;
      }

      .cls-14 {
        fill: #ea4c39;
      }

      .cls-15 {
        fill: #deddde;
      }

      .cls-16 {
        fill: #fdeec9;
      }

      .cls-17 {
        fill: #ff5943;
      }

      .cls-18 {
        fill: #f8cac9;
      }

      .cls-19 {
        fill: #929392;
      }

      .cls-20 {
        fill: #cac9c9;
      }

      .cls-21 {
        fill: #e4e8f0;
      }

      .cls-22 {
        fill: #ff7269;
      }
    </style>
  </defs>
  <path class="cls-3" d="m311,104.5v18h-.37c-.22-.12-.44-.33-.67-.34-.89-.04-1.79-.03-2.69,0-.73.03-.85.19-.86.92-.01,1.02-.01,2.04-.04,3.06-.02.78-.21.97-.97.98-1.12.01-2.25.01-3.37,0-.74-.01-.88-.15-.88-.89-.02-2.12-.03-4.25-.02-6.37,0-1.08.04-1.09,1.15-1.1,2.21,0,4.42,0,6.62,0,.76,0,.97-.21.98-.96,0-.69,0-1.37,0-2.06,0-.87-.22-1.09-1.12-1.09-2.25,0-4.5-.01-6.75,0-.85,0-1.71,0-2.55.1-1.6.19-2.47,1.14-2.49,2.75-.03,3.73-.01,7.45-.01,11.18,0,.79.3,1.48.94,1.87.51.31,1.15.4,1.74.59,0,.12,0,.25,0,.37h-7.12c0-.13,0-.27,0-.4.64.02.74-.4.74-.91,0-4.27.01-8.54,0-12.81,0-.79-.2-1.6-.92-2.01-.61-.35-1.34-.67-2.02-.69-3.33-.07-6.66-.04-9.99-.02-.76,0-.89.19-.88.96.01,1.96.03,3.91.03,5.87,0,2.94,0,5.87,0,8.81,0,.37-.04.79.54.73,0,.16,0,.32,0,.48h-5c0-.14,0-.28,0-.42.81-.09.84-.09.84-1.09.02-4.83.01-9.65.02-14.48,0-.57-.27-.86-.82-.86-.87-.01-1.75-.01-2.62,0-.55,0-.82.28-.81.86.02,1.52,0,3.04,0,4.56,0,3.33,0,6.66.03,9.98,0,.32.22.65.34.97v.48h-3.99c0-.15,0-.3,0-.44.2-.02.39-.05.7-.08-.2-.4-.34-.72-.51-1.01-1.57-2.59-3.13-5.18-4.72-7.76-.26-.42-.25-.65.1-1.05,1.77-2.01,3.49-4.06,5.22-6.11.05-.06-.01-.21-.02-.32-.06,0-.11-.02-.17-.03-1.21-.02-2.41-.01-3.62-.06-.48-.02-.79.15-1.11.52-1.85,2.19-3.73,4.35-5.61,6.52-.08-.06-.15-.12-.23-.18.03-2.06.05-4.12.07-6.18,0-.45-.3-.64-.69-.65-1-.02-2-.03-3,0-.16,0-.32.19-.48.29-.02.06-.03.12-.05.17.01,5.12.03,10.24.02,15.37,0,.52.27.64.69.65v.35h-5.24c-.01-.15-.02-.29-.04-.44.62.08.79-.23.77-.8-.03-.73,0-1.46-.02-2.18,0-.87-.21-1.07-1.07-1.07-2.12,0-4.25,0-6.37,0-.85,0-.88,0-.88-.85-.02-2.1-.02-4.2-.03-6.31,0-1.03.05-1.07,1.1-1.08,2.06,0,4.12,0,6.18-.02.94,0,1.1-.18,1.1-1.1,0-.69-.01-1.37,0-2.06,0-.87-.04-.94-.9-.94-2.85-.01-5.7-.03-8.55,0-1.95.02-3.1,1.08-3.14,3.04-.07,3.47-.06,6.95,0,10.43.03,1.78.96,2.76,2.46,2.92,0,.15,0,.31,0,.46h-6.62c0-.16,0-.31,0-.47.6-.02.61-.49.61-.9.01-4.14.03-8.28,0-12.43-.01-1.81-.87-2.87-2.68-2.96-2.82-.14-5.66-.15-8.48-.04-1.7.07-2.41.9-2.62,2.61-.09.72-.07,1.45-.07,2.18,0,3.52,0,7.04.02,10.55,0,.32.22.65.34.97,0,.16,0,.32,0,.48h-4.62c-.02-.15-.04-.31-.06-.46.22-.02.44-.05.64-.07.02-.09.04-.13.04-.16,0-5.14,0-10.28.01-15.42,0-.43-.21-.62-.59-.64-.91-.04-1.83-.09-2.74-.08-.72,0-.91.23-.91.96-.01,1.42,0,2.83-.02,4.25,0,.74-.14.87-.88.88-1.14.01-2.29,0-3.43,0-.96,0-1.02-.06-1.04-1.03-.02-1.37-.01-2.75-.03-4.12,0-.72-.2-.93-.93-.94-.81-.02-1.62-.02-2.43,0-.69.02-.88.23-.88.92,0,1.46,0,2.91,0,4.37,0,3.39,0,6.78.03,10.18,0,.3.22.6.33.91,0,.16,0,.32,0,.48h-13v-.45q1.08-.08,1.09-1.16c0-.6,0-1.21.03-1.81.03-.56-.24-.81-.78-.81-.52,0-1.04,0-1.56,0-1.81,0-3.62,0-5.44-.04-.23,0-.65-.2-.66-.34-.07-.73-.03-1.48-.03-2.24.27,0,.48,0,.68,0,1.9,0,3.79,0,5.69,0,.72,0,.84-.13.85-.84,0-.62-.03-1.25,0-1.87.02-.47-.2-.64-.62-.65-.19,0-.37,0-.56,0-1.79,0-3.58,0-5.37-.04-.22,0-.62-.22-.63-.37-.07-.72-.03-1.44-.03-2.2.16,0,.28-.02.4-.02,2.25,0,4.5,0,6.75,0,.23,0,.46,0,.69-.03.31-.04.54-.15.54-.54,0-.91.05-1.83.05-2.74,0-.51-.31-.67-.78-.67-3.65,0-7.29,0-10.94,0-.84,0-.96.18-.95,1.02.01,1.92.03,3.83.03,5.75,0,2.96,0,5.92,0,8.87,0,.37-.04.79.54.73,0,.16,0,.32,0,.48h-7.12c0-.11,0-.23,0-.34,1.8-.14,2.81-.95,2.86-2.74.12-4.35.09-8.7.12-13.05,0-.42-.24-.69-.65-.69-1-.02-2,0-2.99.03-.5.02-.74.26-.73.84.03,3.58.01,7.16.01,10.75,0,.22,0,.45,0,.72-1.51,0-2.96,0-4.41,0-.94,0-.95,0-.95-.97,0-3.48,0-6.96,0-10.43,0-.83-.08-.93-.92-.95-.79-.02-1.58-.02-2.37,0-.81.02-.92.15-.91.97.01,1.44.02,2.87.03,4.31.01,2.85,0,5.71.04,8.56.03,1.53.8,2.33,2.33,2.59.06,0,.12.01.19.02.04.01.08.02.12.04,0,.12,0,.24,0,.36h-8.75c0-.11,0-.23,0-.34,1.78-.36,2.62-1.36,2.62-3.15,0-1.72,0-3.44,0-5.17,0-.21-.14-.42-.22-.63-.06,0-.11-.01-.17-.02-.94-.02-1.87-.05-2.81-.04-.84,0-1.02.21-1.03,1.04-.01,1,0,2-.04,3-.03.82-.18.94-.97.94-1.17,0-2.33,0-3.5-.01-.78-.01-.87-.11-.87-.86,0-2.23.02-4.45-.01-6.68,0-.61.25-.81.81-.81.92,0,1.83,0,2.75-.01,1.35,0,2.71,0,4.06-.01.98,0,1.13-.16,1.13-1.12,0-.67,0-1.33,0-2,0-.78-.16-.97-.95-.97-2.93-.02-5.87-.03-8.8,0-1.07.01-2.07.3-2.73,1.25-.5.73-.5,1.57-.5,2.4-.01,3.21,0,6.41,0,9.62,0,2.1.67,2.88,2.74,3.22,0,.12,0,.24,0,.36h-7c0-.15,0-.31,0-.46.48.05.68-.19.69-.65,0-.79.02-1.58.02-2.37,0-3.37,0-6.75-.01-10.12,0-.82-.12-1.61-.69-2.27-.73-.86-1.73-.96-2.73-.97-2.37-.03-4.75-.02-7.12,0-2.16.02-3.23,1.07-3.25,3.24-.03,4.1-.01,8.21,0,12.31,0,.27.14.54.22.81,0,.16,0,.33,0,.49h-5c0-.15,0-.3,0-.45q1.07-.08,1.08-1.16c0-.6,0-1.21.03-1.81.03-.56-.24-.81-.77-.81-.73,0-1.46,0-2.19,0-1.6,0-3.21,0-4.81-.04-.19,0-.54-.18-.55-.3-.05-.74-.03-1.48-.03-2.29.25,0,.45,0,.65,0,1.85,0,3.71,0,5.56-.02.86-.01,1.01-.19,1.02-1.05,0-.54-.03-1.09,0-1.62.03-.45-.16-.61-.56-.63-.35-.02-.71-.05-1.06-.05-1.69-.01-3.37-.01-5.06-.04-.19,0-.53-.19-.53-.31-.05-.74-.03-1.48-.03-2.27.26,0,.46,0,.67,0,2.29,0,4.58-.01,6.87,0,.59,0,.83-.21.81-.81-.03-.83-.02-1.67,0-2.5.01-.45-.19-.65-.62-.67-.21,0-.42-.02-.62-.02-3.31,0-6.62,0-9.93,0-.25,0-.5.02-.75.05-.51.06-.72.29-.72.86.03,4.91.01,9.83.01,14.74,0,.23,0,.45,0,.68.2.02.35.04.49.05,0,.16,0,.32,0,.48h-3.5v-.43c.55.06.75-.21.74-.73-.02-.79,0-1.58,0-2.37-.01-.86-.1-.96-.98-.96-1.71,0-3.42-.02-5.12,0-.48,0-.7-.19-.72-.63-.03-.48-.04-.96-.04-1.44,0-3.1,0-6.21,0-9.31,0-.82-.16-.98-.99-.99-.73,0-1.46,0-2.19,0-.8,0-1.05.22-1.05,1.04,0,4.81,0,9.62,0,14.43,0,.57.16.99.85.94,0,.15,0,.29,0,.44h-12.5c0-.15,0-.29,0-.44.5-.22.13-.5.01-.69-.76-1.35-1.54-2.68-2.33-4.04.18-.1.33-.18.47-.26,1.04-.54,1.57-1.42,1.58-2.57.02-1.89.03-3.79-.01-5.68-.05-2.08-1.05-3.12-3.13-3.15-3.29-.05-6.58-.01-9.87-.02-.57,0-.81.23-.81.82.02,4.93.02,9.87.04,14.8,0,.25.11.5.17.75,0,.16,0,.33,0,.49h-6.62c0-.14,0-.29,0-.43,1.68.01,2.71-1.33,2.72-2.68.03-3.69.04-7.37,0-11.06-.02-1.47-.85-2.33-2.31-2.57-.41-.07-.83-.1-1.24-.11-1.77-.01-3.54-.01-5.31,0-.79,0-1.59,0-2.37.1-1.6.22-2.48,1.15-2.5,2.76-.05,3.64-.05,7.29,0,10.93.02,1.6.92,2.46,2.51,2.61,0,.15,0,.3,0,.45h-9c0-.11,0-.23,0-.34,1.58-.19,2.47-.9,2.72-2.21.08-.43.13-.87.13-1.3.01-4.04,0-8.08.02-12.11,0-.61-.29-.88-.87-.89-.81,0-1.62-.01-2.44,0-.87,0-.95.1-.95.99,0,3.39,0,6.78,0,10.18,0,.27,0,.54-.03.81-.03.34-.21.52-.57.52-.92-.01-1.83,0-2.75-.02-.55-.01-.81-.26-.79-.86.03-1-.01-2-.03-2.99-.04-.07-.07-.14-.11-.21-1.18-.06-2.36-.12-3.54-.16-.41-.01-.58.22-.57.64.02,1.7,0,3.41.04,5.11.03,1.3.83,2.16,2.11,2.38.24.04.49.08.74.12,0,.12,0,.24,0,.36h-6.12c0-.15,0-.29,0-.44.9-.11.99-.17.99-.93,0-4.14.04-8.29-.02-12.43-.02-1.67-.84-2.93-2.69-2.99-2.87-.08-5.74-.11-8.61-.02-1.5.05-2.28.97-2.49,2.48-.05.35-.06.71-.06,1.06,0,3.33,0,6.66,0,9.99,0,.71,0,1.42.03,2.12.01.3,0,.66.46.67,0,.16,0,.31,0,.47h-5.12c0-.15,0-.29,0-.44.59,0,1-.17,1-.86,0-4.22.02-8.45-.02-12.67-.01-1.53-.8-2.45-2.16-2.74-.36-.08-.74-.14-1.11-.14-4.41,0-8.82,0-13.24.02-.21,0-.42.12-.63.19-.12.05-.23.09-.35.14,0-3.5,0-7,0-10.5.09.08.17.16.26.24.3,1.13,1.07,1.69,2.21,1.8.18.03.35.05.53.08,6.81,0,13.62.03,20.42,0,1.91,0,2.83-1.04,2.83-2.97,0-24.63,0-49.27,0-73.9,0-1.25-.03-2.5-.05-3.75,0-.09,0-.17,0-.26.16-.08.32-.24.48-.24,5.35,0,10.69,0,16.04,0,.02.04.04.08.05.11,0,.54,0,1.08,0,1.63,0,.04,0,.08,0,.13,0,.27-.02.54-.02.81,0,25.02,0,50.04.01,75.06,0,2.25,1.1,3.38,3.37,3.39,5.85.02,11.71.02,17.56,0,2.23,0,3.3-1.13,3.3-3.38,0-25.64,0-51.29,0-76.93v-.79h16.5v.78c0,25.69,0,51.37,0,77.06,0,.21,0,.42,0,.62.08,1.42,1.21,2.49,2.61,2.49,6.87,0,13.75,0,20.62,0,.79,0,1.47-.25,2.04-.79.78-.75.89-1.7.82-2.71,0-.05,0-.09,0-.14,0-.12,0-.24,0-.36,0-.05,0-.09,0-.14,0-.12,0-.25,0-.37,0-.04,0-.08,0-.12,0-.12,0-.25,0-.37,0-.04,0-.08,0-.13,0-.08,0-.17,0-.25,0-.08,0-.17,0-.25,0-.08,0-.17,0-.25,0-.08,0-.17,0-.25,0-.08,0-.17,0-.25,0-.08,0-.17,0-.25,0-.08,0-.17,0-.25,0-.08,0-.17,0-.25,0-.08,0-.17,0-.25,0-.08,0-.17,0-.25v-.25c0-.08,0-.17,0-.25,0-.08,0-.17,0-.25s0-.17,0-.25c0-.08,0-.17,0-.25s0-.17,0-.25c0-.08,0-.17,0-.25s0-.17,0-.25c0-.08,0-.17,0-.25s0-.17,0-.25c0-.08,0-.17,0-.25s0-.17,0-.25c0-.08,0-.17,0-.25s0-.17,0-.25c0-.08,0-.17,0-.25s0-.17,0-.25c0-.08,0-.17,0-.25s0-.17,0-.25c0-.08,0-.17,0-.25s0-.17,0-.25c0-.08,0-.17,0-.25s0-.17,0-.25c0-.08,0-.17,0-.25s0-.17,0-.25,0-.17,0-.25,0-.17,0-.25,0-.17,0-.25,0-.17,0-.25,0-.17,0-.25,0-.17,0-.25,0-.17,0-.25,0-.17,0-.25,0-.17,0-.25,0-.17,0-.25,0-.17,0-.25,0-.17,0-.25,0-.17,0-.25,0-.17,0-.25,0-.17,0-.25,0-.17,0-.25,0-.17,0-.25,0-.17,0-.25,0-.17,0-.25,0-.17,0-.25,0-.17,0-.25,0-.17,0-.25,0-.17,0-.25,0-.17,0-.25,0-.17,0-.25,0-.17,0-.25,0-.17,0-.25,0-.17,0-.25,0-.17,0-.25,0-.17,0-.25,0-.17,0-.25,0-.17,0-.25,0-.17,0-.25c0-.08,0-.17,0-.25s0-.17,0-.25c0-.08,0-.17,0-.25s0-.17,0-.25c0-.08,0-.17,0-.25s0-.17,0-.25c0-.08,0-.17,0-.25s0-.17,0-.25c0-.08,0-.17,0-.25s0-.17,0-.25c0-.08,0-.17,0-.25s0-.17,0-.25c0-.08,0-.17,0-.25s0-.17,0-.25c0-.08,0-.17,0-.25s0-.17,0-.25c0-.08,0-.17,0-.25s0-.17,0-.25c0-.08,0-.17,0-.25s0-.17,0-.25c0-.08,0-.17,0-.25s0-.17,0-.25c0-.08,0-.17,0-.25s0-.17,0-.25c0-.08,0-.17,0-.25s0-.17,0-.25c0-.08,0-.17,0-.25s0-.17,0-.25c0-.08,0-.17,0-.25s0-.17,0-.25c0-.08,0-.17,0-.25s0-.17,0-.25c0-.08,0-.17,0-.25s0-.17,0-.25c0-.08,0-.17,0-.25s0-.17,0-.25c0-.08,0-.17,0-.25s0-.17,0-.25c0-.08,0-.17,0-.25,0-.08,0-.17,0-.25,0-.08,0-.17,0-.25,0-.08,0-.17,0-.25,0-.08,0-.17,0-.25,0-.08,0-.17,0-.25s0-.17,0-.25c0-.08,0-.17,0-.25s0-.17,0-.25c0-.08,0-.17,0-.25s0-.17,0-.25c0-.08,0-.17,0-.25s0-.17,0-.25c0-.08,0-.17,0-.25s0-.17,0-.25c0-.08,0-.17,0-.25s0-.17,0-.25c0-.08,0-.17,0-.25s0-.17,0-.25c0-.08,0-.17,0-.25s0-.17,0-.25c0-.08,0-.17,0-.25s0-.17,0-.25c0-.08,0-.17,0-.25s0-.17,0-.25c0-.08,0-.17,0-.25s0-.17,0-.25c0-.08,0-.17,0-.25s0-.17,0-.25c0-.08,0-.17,0-.25s0-.17,0-.25c0-.08,0-.17,0-.25s0-.17,0-.25c0-.08,0-.17,0-.25s0-.17,0-.25c0-.08,0-.17,0-.25s0-.17,0-.25c0-.08,0-.17,0-.25s0-.17,0-.25c0-.08,0-.17,0-.25s0-.17,0-.25c0-.08,0-.17,0-.25s0-.17,0-.25c0-.08,0-.17,0-.25s0-.17,0-.25c0-.08,0-.17,0-.25s0-.17,0-.25c0-.08,0-.17,0-.25s0-.17,0-.25c0-.08,0-.17,0-.25,0-.08,0-.17,0-.25v-.25c0-.08,0-.17,0-.25,0-.08,0-.17,0-.25,0-.08,0-.17,0-.25,0-.08,0-.17,0-.25,0-.08,0-.17,0-.25,0-.08,0-.17,0-.25,0-.08,0-.17,0-.25,0-.13,0-.25,0-.38v-.13c0-.08,0-.17,0-.25,0-.08,0-.17,0-.25,0-.08,0-.17,0-.25,0-.08,0-.17,0-.25,0-.08,0-.17,0-.25,0-.08,0-.17,0-.25,0-.08,0-.17,0-.25v-.25c0-.08,0-.17,0-.25,0-.08,0-.17,0-.25s0-.17,0-.25,0-.17,0-.25,0-.17,0-.25,0-.17,0-.25,0-.17,0-.25,0-.17,0-.25,0-.17,0-.25,0-.17,0-.25,0-.17,0-.25,0-.17,0-.25,0-.17,0-.25,0-.17,0-.25,0-.17,0-.25c0-.08,0-.17,0-.25s0-.17,0-.25c0-.08,0-.17,0-.25s0-.17,0-.25c0-.08,0-.17,0-.25s0-.17,0-.25c0-.08,0-.17,0-.25s0-.17,0-.25c0-.08,0-.17,0-.25s0-.17,0-.25c0-.08,0-.17,0-.25s0-.17,0-.25c0-.08,0-.17,0-.25s0-.17,0-.25c0-.08,0-.17,0-.25s0-.17,0-.25c0-.08,0-.17,0-.25s0-.17,0-.25c0-.08,0-.17,0-.25s0-.17,0-.25c0-.08,0-.17,0-.25s0-.17,0-.25c0-.08,0-.17,0-.25s0-.17,0-.25c0-.08,0-.17,0-.25s0-.17,0-.25c0-.08,0-.17,0-.25s0-.17,0-.25c0-.08,0-.17,0-.25s0-.17,0-.25c0-.08,0-.17,0-.25s0-.17,0-.25c0-.08,0-.17,0-.25s0-.17,0-.25c0-.08,0-.17,0-.25s0-.17,0-.25c0-.08,0-.17,0-.25s0-.17,0-.25c0-.08,0-.17,0-.25,0-.08,0-.17,0-.25,0-.08,0-.17,0-.25,0-.08,0-.17,0-.25s0-.17,0-.25c0-.08,0-.17,0-.25s0-.17,0-.25c0-.08,0-.17,0-.25s0-.17,0-.25c0-.08,0-.17,0-.25s0-.17,0-.25c0-.08,0-.17,0-.25s0-.17,0-.25c0-.08,0-.17,0-.25s0-.17,0-.25c0-.08,0-.17,0-.25s0-.17,0-.25c0-.08,0-.17,0-.25s0-.17,0-.25c0-.08,0-.17,0-.25s0-.17,0-.25c0-.08,0-.17,0-.25s0-.17,0-.25c0-.08,0-.17,0-.25s0-.17,0-.25c0-.08,0-.17,0-.25s0-.17,0-.25c0-.08,0-.17,0-.25s0-.17,0-.25c0-.08,0-.17,0-.25s0-.17,0-.25c0-.08,0-.17,0-.25s0-.17,0-.25c0-.08,0-.17,0-.25s0-.17,0-.25c0-.08,0-.17,0-.25s0-.17,0-.25c0-.08,0-.17,0-.25s0-.17,0-.25c0-.08,0-.17,0-.25s0-.17,0-.25c0-.08,0-.17,0-.25s0-.17,0-.25,0-.17,0-.25,0-.17,0-.25,0-.17,0-.25,0-.17,0-.25,0-.17,0-.25,0-.17,0-.25,0-.17,0-.25,0-.17,0-.25,0-.17,0-.25,0-.17,0-.25,0-.17,0-.25,0-.17,0-.25,0-.17,0-.25,0-.17,0-.25,0-.17,0-.25,0-.17,0-.25,0-.17,0-.25,0-.17,0-.25,0-.17,0-.25,0-.17,0-.25,0-.17,0-.25,0-.17,0-.25,0-.17,0-.25,0-.17,0-.25,0-.17,0-.25,0-.17,0-.25,0-.17,0-.25,0-.17,0-.25,0-.17,0-.25,0-.17,0-.25,0-.17,0-.25,0-.17,0-.25,0-.17,0-.25,0-.17,0-.25,0-.17,0-.25,0-.17,0-.25,0-.17,0-.25,0-.17,0-.25,0-.17,0-.25c0-.08,0-.17,0-.25s0-.17,0-.25c0-.08,0-.17,0-.25s0-.17,0-.25c0-.08,0-.17,0-.25s0-.17,0-.25c0-.08,0-.17,0-.25s0-.17,0-.25c0-.08,0-.17,0-.25s0-.17,0-.25c0-.08,0-.17,0-.25s0-.17,0-.25c0-.08,0-.17,0-.25v-.25c0-.08,0-.17,0-.25,0-.08,0-.17,0-.25,0-.08,0-.17,0-.25,0-.08,0-.17,0-.25,0-.08,0-.17,0-.25,0-.08,0-.17,0-.25v-.25c0-.13,0-.25,0-.38v-.12c0-.12,0-.25,0-.37,0-.05,0-.09,0-.14.05-2.47-.4-4.85-1.46-7.08-2.87-6.02-7.58-9.53-14.24-10.33-.04-.15-.09-.31-.13-.46.17,0,.33,0,.5,0h.12C105.46,0,116.54,0,127.63,0c0,.16,0,.33,0,.49-1.19.35-1.68,1.22-1.76,2.39-.01.01-.03.02-.03.03,0,.03.01.06.02.08-.02.13-.04.26-.06.38-.03.03-.03.07,0,.1-.01.5-.04,1-.04,1.5,0,31.87,0,63.74,0,95.61,0,1.23.04,2.46.15,3.68.12,1.26.83,1.98,2.08,2.22.47.09.95.13,1.42.13,16.66,0,33.33,0,49.99,0,6.6,0,13.21,0,19.81,0,1.44,0,2.49-.75,2.88-2.12.12-.43.17-.9.17-1.36.02-5.98.02-11.96.03-17.93,0-.65.02-1.29-.02-1.94-.08-1.48-1.15-2.52-2.61-2.56-.62-.02-1.25-.02-1.87-.02-12.77,0-25.54,0-38.31,0-.94,0-1.88.03-2.81-.02-2.04-.1-3.15-1.29-3.15-3.34,0-24.73,0-49.45,0-74.18,0-1.51-.67-2.37-2.12-2.74-.25-.15-.51-.3-.76-.45,23.12,0,46.25,0,69.37,0,0,.17,0,.35,0,.52-1.07.42-1.57,1.24-1.68,2.34-.04.43-.05.87-.05,1.31,0,32.62,0,65.25,0,97.87,0,.58-.02,1.17.01,1.75.12,2.23.93,3.06,3.14,3.08,5.79.04,11.58.04,17.37.05,1.56,0,3.12-.02,4.69-.05,1.57-.04,2.51-.94,2.63-2.5.05-.71.11-1.41.11-2.12.02-9.69.02-19.37.03-29.06,0-1.4,0-2.79,0-4.19.02-1.35.67-2.24,1.98-2.62.51-.15,1.06-.22,1.6-.22,9.75-.01,19.5-.01,29.25,0,.35,0,.7.05,1.05.08.04,0,.08.02.12.03,1.5.25,2.36,1.26,2.36,2.8,0,10.8,0,21.61,0,32.41,0,.73.01,1.46.02,2.19.02,2.04,1.71,3.31,3.3,3.25,2.35-.08,4.7.02,7.06.02,4.91,0,9.83-.02,14.74-.05,1.37,0,2.45-.81,2.79-1.97.16-.13.32-.26.48-.39Z"/>
  <path class="cls-3" d="m244.25,0C257.83,0,271.42,0,285,0c0,.16,0,.32,0,.49-1.57.55-2.22,1.46-2.22,3.14,0,10.1,0,20.21,0,30.31,0,1.1.06,2.22-.05,3.31-.06.61-.3,1.26-.64,1.77-.73,1.07-1.9,1.16-3.08,1.09-.04,0-.09,0-.13,0-.12,0-.25,0-.37,0-.04,0-.09,0-.13,0-.12,0-.25,0-.37,0-.04,0-.09,0-.13,0-.12,0-.25,0-.37,0-.04,0-.09,0-.13,0-.12,0-.25,0-.37,0-.04,0-.09,0-.13,0-.12,0-.25,0-.37,0-.04,0-.09,0-.13,0-.12,0-.25,0-.37,0-.04,0-.09,0-.13,0-.12,0-.25,0-.37,0-.04,0-.09,0-.13,0-.12,0-.25,0-.37,0-.04,0-.09,0-.13,0-.12,0-.25,0-.37,0-.04,0-.09,0-.13,0-.12,0-.25,0-.37,0-.04,0-.09,0-.13,0-.12,0-.25,0-.37,0-.04,0-.09,0-.13,0-.12,0-.25,0-.37,0-.04,0-.09,0-.13,0-.12,0-.25,0-.37,0-.04,0-.09,0-.13,0-.12,0-.25,0-.37,0-.04,0-.09,0-.13,0-.12,0-.25,0-.37,0-.04,0-.09,0-.13,0-.12,0-.25,0-.37,0-.04,0-.09,0-.13,0-.12,0-.25,0-.37,0-.04,0-.09,0-.13,0-.12,0-.25,0-.37,0-.04,0-.09,0-.13,0-.12,0-.25,0-.37,0-.04,0-.09,0-.13,0-.12,0-.25,0-.37,0-.04,0-.09,0-.13,0-.12,0-.25,0-.37,0-.04,0-.09,0-.13,0-.12,0-.25,0-.37,0-.04,0-.09,0-.13,0-.12,0-.25,0-.37,0-.04,0-.09,0-.13,0-.12,0-.25,0-.37,0-.04,0-.09,0-.13,0-.12,0-.25,0-.37,0-.04,0-.09,0-.13,0-.12,0-.25,0-.37,0-.04,0-.09,0-.13,0-.12,0-.25,0-.37,0-.04,0-.09,0-.13,0-.12,0-.25,0-.37,0-.04,0-.09,0-.13,0-.12,0-.25,0-.37,0-.04,0-.09,0-.13,0-.12,0-.25,0-.37,0-.04,0-.09,0-.13,0-.12,0-.25,0-.37,0-.04,0-.09,0-.13,0-.12,0-.25,0-.37,0-.04,0-.09,0-.13,0-.12,0-.25,0-.37,0-.04,0-.09,0-.13,0-.12,0-.25,0-.37,0-.04,0-.09,0-.13,0-.12,0-.25,0-.37,0-.04,0-.09,0-.13,0-.12,0-.25,0-.37,0-.04,0-.09,0-.13,0-.12,0-.25,0-.37,0-.04,0-.09,0-.13,0-.12,0-.25,0-.37,0-.04,0-.09,0-.13,0-.12,0-.25,0-.37,0-.04,0-.09,0-.13,0-.12,0-.25,0-.37,0-.04,0-.09,0-.13,0-.12,0-.25,0-.37,0-.04,0-.09,0-.13,0-.12,0-.25,0-.37,0-.04,0-.09,0-.13,0-.12,0-.25,0-.37,0-.04,0-.09,0-.13,0-.12,0-.25,0-.37,0-.04,0-.09,0-.13,0-.12,0-.25,0-.37,0-.04,0-.09,0-.13,0-.12,0-.25,0-.37,0-.04,0-.09,0-.13,0-.12,0-.25,0-.37,0-.04,0-.09,0-.13,0-.12,0-.25,0-.37,0-.04,0-.09,0-.13,0-.12,0-.25,0-.37,0-.04,0-.09,0-.13,0-.12,0-.25,0-.37,0-.04,0-.09,0-.13,0-.12,0-.25,0-.37,0-.04,0-.09,0-.13,0-.12,0-.25,0-.37,0-.04,0-.09,0-.13,0-.12,0-.25,0-.37,0h-.13c-.12,0-.25,0-.37,0-.04,0-.09,0-.13,0-.12,0-.25,0-.37,0-.04,0-.09,0-.13,0-.12,0-.25,0-.37,0-.04,0-.09,0-.13,0-.12,0-.25,0-.37,0-.04,0-.09,0-.13,0-.35,0-.71.01-1.06,0-2.2-.04-3.05-.88-3.05-3.08-.01-5.22,0-10.45-.01-15.67-.02-6.1-.07-12.19-.12-18.29,0-1.3-.55-2.24-1.88-2.6,0-.16,0-.32,0-.49Z"/>
  <path class="cls-3" d="m289.5,131.5h-6.5c0-.14,0-.29,0-.43.53.03.6-.3.6-.72,0-1.98,0-3.95,0-5.93,0-1.62.02-3.24.03-4.87,0-.44.1-.79.64-.79,1.39,0,2.79.02,4.18.02.41,0,.61.19.62.6.01.71.05,1.41.06,2.12.01,2.93.01,5.86.03,8.8,0,.27-.15.66.34.74,0,.15,0,.31,0,.46Z"/>
  <path class="cls-5" d="m311,104.5c-.16.13-.32.26-.48.39,0-.58-.02-1.16-.02-1.75,0-32.75,0-65.5,0-98.26,0-.5,0-1,.02-1.5,0-.13.13-.26.19-.39.09.08.19.17.28.25v101.25Z"/>
  <path class="cls-18" d="m93.75,0c.04.15.09.31.13.46-.29.01-.58.04-.87.04-29.8,0-59.6,0-89.4,0-.21,0-.41-.02-.62-.03C3.01-.11,2.39.32,2.25,0,32.75,0,63.25,0,93.75,0Z"/>
  <path class="cls-3" d="m212.63,131.5h-6.62v-.42c.71.07.87-.3.86-.93-.02-1.48,0-2.95.03-4.43.01-.81.04-.83.86-.83,1.16,0,2.33,0,3.49,0,.86,0,.98.1.99.96.02,1.37,0,2.75.04,4.12.01.36.22.71.34,1.06,0,.16,0,.32,0,.48Z"/>
  <path class="cls-3" d="m7.13,131.5h-3.25c0-.15,0-.3,0-.45.13-.14.34-.25.37-.41.08-.38.11-.78.11-1.18.01-3.37.02-6.74.02-10.11,0-.18.02-.36.04-.58.63,0,1.21.03,1.78,0,.5-.03.68.09.68.64,0,3.54.03,7.07.07,10.61,0,.34.11.67.17,1,0,.16,0,.33,0,.49Z"/>
  <path class="cls-3" d="m13.63,131.5h-3.62c0-.14,0-.28,0-.41.22-.03.45-.07.77-.12v-11.97c.04-.06.08-.12.12-.18.37-.02.74-.06,1.11-.06,1.48.03,1.23-.17,1.24,1.26.02,3.28,0,6.56.04,9.84,0,.39.22.78.34,1.17,0,.16,0,.31,0,.47Z"/>
  <path class="cls-3" d="m31.13,131.5h-6.62c0-.14,0-.28,0-.42.65.07.83-.33.84-.87.02-1.12.04-2.25.04-3.37,0-.49.18-.71.7-.71,1.29.02,2.58.03,3.87,0,.59-.01.81.21.8.8-.03,1.06-.01,2.13.03,3.19.01.33-.09.8.44.9-.03.16-.07.32-.1.48Z"/>
  <path class="cls-3" d="m230.13,131.5h-6.62c0-.14,0-.28,0-.42.68.07.84-.33.84-.9,0-1.1.04-2.2.03-3.3,0-.52.17-.76.72-.74,1.29.03,2.58.03,3.86,0,.6-.01.8.23.79.81-.02,1.06-.01,2.12.03,3.18.01.33-.09.8.44.9-.03.16-.07.32-.1.48Z"/>
  <path class="cls-3" d="m136.13,131.5h-6.12c0-.16,0-.31,0-.47.44.02.5-.25.49-.6,0-1.12,0-2.25,0-3.37,0-.82.07-.93.92-.94,1.25-.02,2.49.03,3.74.02.48,0,.6.19.59.64-.02,1.08-.02,2.16.03,3.24.02.34.22.67.34,1,0,.16,0,.32,0,.48Z"/>
  <path class="cls-3" d="m264.5,131.5h-7.12c0-.11,0-.23,0-.34.48-.01.63-.27.63-.73-.02-1.06-.01-2.12,0-3.18,0-.18.01-.4.12-.52.64-.76,1.32-1.49,2.05-2.31.2.28.36.48.49.7.98,1.76,1.97,3.51,2.93,5.28.2.37.45.64.9.66,0,.15,0,.3,0,.45Z"/>
  <path class="cls-3" d="m81,131.5h-6.5c0-.15,0-.29,0-.44.39,0,.54-.19.55-.57.02-1.19.07-2.37.06-3.56,0-.49.09-.72.65-.68.56.04,1.12.02,1.68-.02.44-.03.68.15.88.53.66,1.22,1.34,2.44,2.04,3.64.15.25.41.44.62.65,0,.15,0,.3,0,.46Z"/>
  <path class="cls-22" d="m.26,104.74c-.09-.08-.17-.16-.26-.24,0-.21,0-.42,0-.62.04-.26.12-.51.12-.77,0-33.34,0-66.69,0-100.03.03-.16.07-.32.1-.48.02.17.04.35.05.52,0,.09,0,.18,0,.27v.34c0,.23-.02.46-.02.69,0,32.34,0,64.69,0,97.03,0,.94.02,1.87.02,2.81,0,.16-.01.32-.02.48Z"/>
  <path class="cls-8" d="m.12,3.08c0,33.34,0,66.69,0,100.03,0,.26-.08.51-.12.77C0,70.29,0,36.71,0,3.13c.04-.02.08-.03.12-.05Z"/>
  <path class="cls-16" d="m244.25,0c0,.16,0,.32,0,.49-2.73,0-5.46,0-8.19.01-5.35,0-10.71.01-16.06.02,0-.17,0-.35,0-.52,8.08,0,16.17,0,24.25,0Z"/>
  <path class="cls-11" d="m150.63,0c.25.15.51.3.76.45-7.92.01-15.84.03-23.76.04,0-.16,0-.33,0-.49,7.67,0,15.33,0,23,0Z"/>
  <path class="cls-16" d="m285,.49c0-.16,0-.32,0-.49,7.67,0,15.33,0,23,0,.04.15.09.31.13.46-.1.01-.21.04-.31.04-7.61,0-15.22,0-22.83-.01Z"/>
  <path class="cls-19" d="m0,115c.12-.05.23-.09.35-.14.04.49.12.98.13,1.47.02,4.26.03,8.51.02,12.77,0,.55-.12,1.11-.18,1.66-.1.04-.21.08-.31.12,0-.33,0-.67,0-1,.05,0,.1.01.15.02,0-.05,0-.11,0-.16-.05,0-.1.01-.15.02,0-4.92,0-9.83,0-14.75Zm.16,1.78l-.02.04h.04s-.02-.04-.02-.04Z"/>
  <path class="cls-20" d="m179,131.5c0-.16,0-.32,0-.48,2.99,0,5.98-.02,8.97-.02.68,0,1.36.03,2.05.05v.45h-11.01Z"/>
  <path class="cls-20" d="m110.5,131.5c0-.16,0-.32,0-.48,2.95,0,5.89-.02,8.84-.02.72,0,1.45.03,2.17.05,0,.15,0,.3,0,.45h-11Z"/>
  <path class="cls-20" d="m107,131.07v.43h-9.5c0-.15,0-.29,0-.44.23-.02.45-.05.68-.06,2.43,0,4.86,0,7.29,0,.52,0,1.03.04,1.55.06Z"/>
  <path class="cls-20" d="m240,131.5c0-.15,0-.31,0-.46,1.7-.01,3.41-.04,5.11-.03,1.41,0,2.82.03,4.24.05.01.15.02.29.04.44h-9.37Z"/>
  <path class="cls-20" d="m56,131.5c0-.15,0-.3,0-.45.89-.01,1.78-.05,2.67-.04,1.95.01,3.9.04,5.84.06,0,.14,0,.29,0,.43h-8.5Z"/>
  <path class="cls-3" d="m308.13.46c-.04-.15-.09-.31-.13-.46,1,0,2,0,3,0v3.25c-.09-.08-.19-.17-.28-.25-.01-.12-.02-.23-.03-.35-.02-.05-.04-.1-.06-.15-.35-1.05-1.06-1.72-2.12-2.01-.04,0-.09,0-.13-.01-.08,0-.16,0-.24-.01Z"/>
  <path class="cls-3" d="m311,128.25v3.25h-3.12c0-.11,0-.23,0-.34,1.57-.14,2.25-.71,2.76-2.28.02-.01.05-.02.04-.03,0-.03-.02-.06-.03-.09l.02-.37c.11-.04.22-.08.33-.13Z"/>
  <path class="cls-15" d="m146.38,131.5c0-.12,0-.24,0-.36,2.84,0,5.67.01,8.51.02,0,.11,0,.23,0,.34h-8.5Z"/>
  <path class="cls-15" d="m163.62,131.5c0-.12,0-.24,0-.36.41,0,.83-.03,1.24-.03,2.34.01,4.68.03,7.02.04,0,.11,0,.23,0,.34h-8.25Z"/>
  <path class="cls-15" d="m307.88,131.16c0,.11,0,.23,0,.34h-8.25c0-.12,0-.25,0-.37,2.75.01,5.5.02,8.26.03Z"/>
  <path class="cls-3" d="m.12,3.08S.04,3.11,0,3.13c0-1.04,0-2.08,0-3.12h2.25c.14.32.76-.11.74.46-.08,0-.15,0-.23,0-.04-.06-.09-.12-.13-.17-.05.05-.09.11-.14.16C1,.57.37,1.17.22,2.59c-.03.16-.07.32-.1.48Z"/>
  <path class="cls-21" d="m311,128.25c-.11.04-.22.08-.33.13-.06-.55-.17-1.11-.16-1.66.01-1.41.07-2.81.12-4.22h.37v5.75Z"/>
  <path class="cls-15" d="m40.12,131.5c0-.12,0-.24,0-.36,2.29,0,4.59.02,6.88.02,0,.11,0,.23,0,.34h-6.88Z"/>
  <path class="cls-13" d="m0,130.88c.1-.04.21-.08.31-.12.19.08.38.22.58.23,1,.04,1.99.04,2.99.06,0,.15,0,.3,0,.45H0C0,131.29,0,131.08,0,130.88Z"/>
  <path class="cls-12" d="m81,131.5c0-.15,0-.3,0-.46,1.34,0,2.68.01,4.01.02,0,.15,0,.29,0,.44h-4Z"/>
  <path class="cls-20" d="m264.5,131.5c0-.15,0-.3,0-.45,1.17,0,2.34,0,3.52,0,0,.15,0,.3,0,.44h-3.5Z"/>
  <path class="cls-13" d="m130.01,131.03c0,.16,0,.31,0,.47h-3.5c0-.16,0-.33,0-.49,1.17,0,2.34.01,3.51.02Z"/>
  <path class="cls-12" d="m74.51,131.06c0,.15,0,.29,0,.44h-3.37c0-.16,0-.33,0-.49,1.13.02,2.26.03,3.38.05Z"/>
  <path class="cls-12" d="m136.13,131.5c0-.16,0-.32,0-.48,1.09,0,2.18.01,3.26.02,0,.15,0,.31,0,.46h-3.25Z"/>
  <path class="cls-12" d="m212.63,131.5c0-.16,0-.32,0-.48,1.06,0,2.13.01,3.19.02.02.15.04.31.06.46h-3.25Z"/>
  <path class="cls-12" d="m230.13,131.5c.03-.16.07-.32.1-.48h3.15c0,.17,0,.32,0,.48h-3.25Z"/>
  <path class="cls-20" d="m206,131.08v.42h-3c0-.16,0-.32,0-.48,1,.02,2.01.04,3.01.06Z"/>
  <path class="cls-12" d="m223.5,131.08c0,.14,0,.28,0,.42h-3c0-.16,0-.32,0-.48,1,.02,2.01.04,3.01.06Z"/>
  <path class="cls-12" d="m275,131.08c0,.14,0,.28,0,.42h-3v-.48c1,.02,2,.04,3,.06Z"/>
  <path class="cls-12" d="m283,131.07c0,.14,0,.29,0,.43h-3c0-.16,0-.32,0-.48,1,.01,2.01.03,3.01.04Z"/>
  <path class="cls-12" d="m289.5,131.5c0-.15,0-.31,0-.46,1,.02,2,.04,3,.06,0,.13,0,.27,0,.4h-3Z"/>
  <path class="cls-12" d="m24.5,131.08c0,.14,0,.28,0,.42h-2.87c0-.16,0-.31,0-.47.96.02,1.93.03,2.89.05Z"/>
  <path class="cls-12" d="m13.63,131.5c0-.16,0-.31,0-.47l2.89.03c0,.15,0,.29,0,.44h-2.87Z"/>
  <path class="cls-12" d="m10,131.09c0,.14,0,.28,0,.41h-2.87c0-.16,0-.33,0-.49.96.03,1.92.05,2.88.08Z"/>
  <path class="cls-12" d="m31.13,131.5c.03-.16.07-.32.1-.48.93.01,1.85.03,2.78.04,0,.15,0,.29,0,.44h-2.87Z"/>
  <path class="cls-13" d="m257.38,131.16c0,.11,0,.23,0,.34h-2.75v-.35c.91,0,1.84,0,2.76,0Z"/>
  <path class="cls-1" d="m0,129.75s.1-.01.15-.02c0,.05,0,.11,0,.16-.05,0-.1-.01-.15-.02,0-.04,0-.08,0-.13Z"/>
  <path class="cls-4" d="m.22,2.59C.37,1.17,1,.57,2.49.45c.09,0,.18,0,.27,0,.08,0,.15,0,.23,0,.21.01.41.03.62.03,29.8,0,59.6,0,89.4,0,.29,0,.58-.02.87-.04,6.66.8,11.37,4.31,14.24,10.33,1.06,2.23,1.51,4.61,1.46,7.08-.01.01-.04.03-.04.04,0,.03.03.07.04.1,0,.12,0,.25,0,.37-.01.01-.04.03-.04.04,0,.03.03.06.04.09,0,.13,0,.25,0,.38,0,.08,0,.16,0,.25,0,.08,0,.17,0,.25,0,.08,0,.17,0,.25,0,.08,0,.17,0,.25,0,.08,0,.17,0,.25,0,.08,0,.17,0,.25,0,.08,0,.17,0,.25,0,.08,0,.17,0,.25,0,.08,0,.17,0,.25,0,.08,0,.17,0,.25s0,.17,0,.25c0,.08,0,.17,0,.25s0,.17,0,.25c0,.08,0,.17,0,.25s0,.17,0,.25c0,.08,0,.17,0,.25s0,.17,0,.25c0,.08,0,.17,0,.25s0,.17,0,.25c0,.08,0,.17,0,.25s0,.17,0,.25c0,.08,0,.17,0,.25s0,.17,0,.25,0,.17,0,.25,0,.17,0,.25,0,.17,0,.25,0,.17,0,.25,0,.17,0,.25,0,.17,0,.25,0,.17,0,.25,0,.17,0,.25,0,.17,0,.25,0,.17,0,.25,0,.17,0,.25,0,.17,0,.25,0,.17,0,.25,0,.17,0,.25,0,.17,0,.25,0,.17,0,.25,0,.17,0,.25,0,.17,0,.25,0,.17,0,.25,0,.17,0,.25,0,.17,0,.25,0,.17,0,.25,0,.17,0,.25,0,.17,0,.25,0,.17,0,.25,0,.17,0,.25,0,.17,0,.25,0,.17,0,.25,0,.17,0,.25,0,.17,0,.25,0,.17,0,.25,0,.17,0,.25,0,.17,0,.25,0,.17,0,.25,0,.17,0,.25,0,.17,0,.25,0,.17,0,.25c0,.08,0,.17,0,.25s0,.17,0,.25c0,.08,0,.17,0,.25s0,.17,0,.25c0,.08,0,.17,0,.25s0,.17,0,.25c0,.08,0,.17,0,.25s0,.17,0,.25c0,.08,0,.17,0,.25s0,.17,0,.25c0,.08,0,.17,0,.25s0,.17,0,.25c0,.08,0,.17,0,.25s0,.17,0,.25c0,.08,0,.17,0,.25s0,.17,0,.25c0,.08,0,.17,0,.25s0,.17,0,.25c0,.08,0,.17,0,.25s0,.17,0,.25c0,.08,0,.17,0,.25s0,.17,0,.25c0,.08,0,.17,0,.25s0,.17,0,.25c0,.08,0,.17,0,.25s0,.17,0,.25c0,.08,0,.17,0,.25s0,.17,0,.25c0,.08,0,.17,0,.25s0,.17,0,.25c0,.08,0,.17,0,.25s0,.17,0,.25c0,.08,0,.17,0,.25s0,.17,0,.25c0,.08,0,.17,0,.25s0,.17,0,.25c0,.08,0,.17,0,.25s0,.17,0,.25c0,.08,0,.17,0,.25s0,.17,0,.25c0,.08,0,.17,0,.25,0,.08,0,.17,0,.25,0,.08,0,.17,0,.25,0,.08,0,.17,0,.25s0,.17,0,.25c0,.08,0,.17,0,.25s0,.17,0,.25c0,.08,0,.17,0,.25s0,.17,0,.25c0,.08,0,.17,0,.25s0,.17,0,.25c0,.08,0,.17,0,.25s0,.17,0,.25c0,.08,0,.17,0,.25s0,.17,0,.25c0,.08,0,.17,0,.25s0,.17,0,.25c0,.08,0,.17,0,.25s0,.17,0,.25c0,.08,0,.17,0,.25s0,.17,0,.25c0,.08,0,.17,0,.25s0,.17,0,.25c0,.08,0,.17,0,.25s0,.17,0,.25c0,.08,0,.17,0,.25s0,.17,0,.25c0,.08,0,.17,0,.25s0,.17,0,.25c0,.08,0,.17,0,.25s0,.17,0,.25c0,.08,0,.17,0,.25s0,.17,0,.25c0,.08,0,.17,0,.25s0,.17,0,.25c0,.08,0,.17,0,.25s0,.17,0,.25c0,.08,0,.17,0,.25s0,.17,0,.25c0,.08,0,.17,0,.25s0,.17,0,.25c0,.08,0,.17,0,.25s0,.17,0,.25,0,.17,0,.25,0,.17,0,.25,0,.17,0,.25,0,.17,0,.25,0,.17,0,.25,0,.17,0,.25,0,.17,0,.25,0,.17,0,.25,0,.17,0,.25,0,.17,0,.25,0,.17,0,.25,0,.17,0,.25c0,.08,0,.17,0,.25v.5c0,.08,0,.17,0,.25,0,.08,0,.17,0,.25,0,.08,0,.17,0,.25,0,.08,0,.17,0,.25,0,.08,0,.17,0,.25,0,.08,0,.17,0,.25-.01.01-.04.03-.04.04,0,.03.02.06.04.09,0,.13,0,.25,0,.38,0,.08,0,.17,0,.25,0,.08,0,.17,0,.25,0,.08,0,.17,0,.25,0,.08,0,.17,0,.25,0,.08,0,.17,0,.25,0,.08,0,.17,0,.25,0,.08,0,.17,0,.25v.25c0,.08,0,.17,0,.25,0,.08,0,.17,0,.25,0,.08,0,.17,0,.25s0,.17,0,.25c0,.08,0,.17,0,.25s0,.17,0,.25c0,.08,0,.17,0,.25s0,.17,0,.25c0,.08,0,.17,0,.25s0,.17,0,.25c0,.08,0,.17,0,.25s0,.17,0,.25c0,.08,0,.17,0,.25s0,.17,0,.25c0,.08,0,.17,0,.25s0,.17,0,.25c0,.08,0,.17,0,.25s0,.17,0,.25c0,.08,0,.17,0,.25s0,.17,0,.25c0,.08,0,.17,0,.25s0,.17,0,.25c0,.08,0,.17,0,.25s0,.17,0,.25c0,.08,0,.17,0,.25s0,.17,0,.25c0,.08,0,.17,0,.25s0,.17,0,.25c0,.08,0,.17,0,.25s0,.17,0,.25c0,.08,0,.17,0,.25s0,.17,0,.25c0,.08,0,.17,0,.25s0,.17,0,.25c0,.08,0,.17,0,.25s0,.17,0,.25c0,.08,0,.17,0,.25s0,.17,0,.25c0,.08,0,.17,0,.25s0,.17,0,.25c0,.08,0,.17,0,.25s0,.17,0,.25c0,.08,0,.17,0,.25s0,.17,0,.25c0,.08,0,.17,0,.25,0,.08,0,.17,0,.25,0,.08,0,.17,0,.25,0,.08,0,.17,0,.25,0,.08,0,.17,0,.25,0,.08,0,.17,0,.25,0,.08,0,.17,0,.25,0,.08,0,.17,0,.25s0,.17,0,.25c0,.08,0,.17,0,.25s0,.17,0,.25c0,.08,0,.17,0,.25s0,.17,0,.25c0,.08,0,.17,0,.25s0,.17,0,.25c0,.08,0,.17,0,.25s0,.17,0,.25c0,.08,0,.17,0,.25s0,.17,0,.25c0,.08,0,.17,0,.25s0,.17,0,.25c0,.08,0,.17,0,.25s0,.17,0,.25c0,.08,0,.17,0,.25s0,.17,0,.25c0,.08,0,.17,0,.25s0,.17,0,.25c0,.08,0,.17,0,.25s0,.17,0,.25c0,.08,0,.17,0,.25s0,.17,0,.25c0,.08,0,.17,0,.25s0,.17,0,.25c0,.08,0,.17,0,.25s0,.17,0,.25c0,.08,0,.17,0,.25s0,.17,0,.25c0,.08,0,.17,0,.25s0,.17,0,.25c0,.08,0,.17,0,.25s0,.17,0,.25c0,.08,0,.17,0,.25s0,.17,0,.25c0,.08,0,.17,0,.25s0,.17,0,.25c0,.08,0,.17,0,.25s0,.17,0,.25,0,.17,0,.25,0,.17,0,.25,0,.17,0,.25,0,.17,0,.25,0,.17,0,.25,0,.17,0,.25,0,.17,0,.25,0,.17,0,.25,0,.17,0,.25,0,.17,0,.25,0,.17,0,.25,0,.17,0,.25,0,.17,0,.25,0,.17,0,.25,0,.17,0,.25,0,.17,0,.25,0,.17,0,.25,0,.17,0,.25,0,.17,0,.25,0,.17,0,.25,0,.17,0,.25,0,.17,0,.25,0,.17,0,.25,0,.17,0,.25,0,.17,0,.25,0,.17,0,.25,0,.17,0,.25,0,.17,0,.25,0,.17,0,.25,0,.17,0,.25,0,.17,0,.25,0,.17,0,.25,0,.17,0,.25c0,.08,0,.17,0,.25s0,.17,0,.25c0,.08,0,.17,0,.25s0,.17,0,.25c0,.08,0,.17,0,.25s0,.17,0,.25c0,.08,0,.17,0,.25s0,.17,0,.25c0,.08,0,.17,0,.25s0,.17,0,.25c0,.08,0,.17,0,.25s0,.17,0,.25c0,.08,0,.17,0,.25s0,.17,0,.25c0,.08,0,.17,0,.25s0,.17,0,.25c0,.08,0,.17,0,.25s0,.17,0,.25c0,.08,0,.17,0,.25s0,.17,0,.25c0,.08,0,.17,0,.25v.25c0,.08,0,.17,0,.25,0,.08,0,.17,0,.25,0,.08,0,.17,0,.25,0,.08,0,.17,0,.25,0,.08,0,.17,0,.25,0,.08,0,.17,0,.25,0,.08,0,.17,0,.25,0,.08,0,.17,0,.25,0,.08,0,.17,0,.25,0,.08,0,.17,0,.25-.01.01-.04.03-.04.04,0,.03.02.06.04.09,0,.12,0,.25,0,.37-.01.01-.04.03-.04.03,0,.03.02.06.04.09,0,.12,0,.25,0,.37-.01.01-.04.03-.04.04,0,.03.02.06.04.1,0,.12,0,.24,0,.36-.01.01-.04.03-.04.04,0,.03.03.06.04.1.08,1.01-.03,1.96-.82,2.71-.57.54-1.24.79-2.04.79-6.87,0-13.75,0-20.62,0-1.4,0-2.53-1.08-2.61-2.49-.01-.21,0-.42,0-.62,0-25.69,0-51.37,0-77.06v-.78h-16.5v.79c0,25.64,0,51.29,0,76.93,0,2.25-1.07,3.37-3.3,3.38-5.85.01-11.71.01-17.56,0-2.28,0-3.37-1.14-3.37-3.39,0-25.02,0-50.04-.01-75.06,0-.27.02-.54.02-.81.01-.01.04-.03.04-.04,0-.03-.02-.06-.04-.09,0-.54,0-1.08,0-1.63-.02-.04-.04-.08-.05-.11-5.35,0-10.69,0-16.04,0-.16,0-.32.15-.48.24,0,.09,0,.17,0,.26.02,1.25.05,2.5.05,3.75,0,24.63,0,49.27,0,73.9,0,1.93-.92,2.96-2.83,2.97-6.81.03-13.62,0-20.42,0-.18-.03-.35-.05-.53-.08-1.14-.11-1.91-.67-2.21-1.8,0-.16.01-.32.02-.48.07-.4.21-.8.21-1.19,0-32.67,0-65.34,0-98,0-.31.02-.63-.01-.94-.01-.14-.14-.26-.21-.4,0-.11,0-.23,0-.34,0-.09,0-.18,0-.27-.02-.17-.04-.35-.05-.52Z"/>
  <path class="cls-2" d="m308.13.46c.08,0,.16,0,.24.01.04,0,.09,0,.13.01,1.07.29,1.78.96,2.12,2.01.02.05.04.1.06.15.01.12.02.23.03.35-.07.13-.19.26-.19.39-.03.5-.02,1-.02,1.5,0,32.75,0,65.5,0,98.26,0,.58.02,1.16.02,1.75-.34,1.17-1.42,1.97-2.79,1.97-4.91.03-9.83.05-14.74.05-2.35,0-4.71-.1-7.06-.02-1.59.05-3.27-1.21-3.3-3.25,0-.73-.02-1.46-.02-2.19,0-10.8,0-21.61,0-32.41,0-1.54-.87-2.55-2.36-2.8-.04,0-.08-.02-.12-.03-.35-.03-.7-.08-1.05-.08-9.75,0-19.5,0-29.25,0-.53,0-1.09.07-1.6.22-1.31.38-1.96,1.27-1.98,2.62-.02,1.4,0,2.79,0,4.19,0,9.69-.02,19.37-.03,29.06,0,.71-.05,1.42-.11,2.12-.12,1.56-1.06,2.46-2.63,2.5-1.56.04-3.12.06-4.69.05-5.79,0-11.58,0-17.37-.05-2.2-.01-3.02-.85-3.14-3.08-.03-.58-.01-1.17-.01-1.75,0-32.62,0-65.25,0-97.87,0-.44.01-.87.05-1.31.11-1.1.61-1.93,1.68-2.34,5.35,0,10.71-.01,16.06-.02,2.73,0,5.46,0,8.19-.01,1.33.36,1.87,1.3,1.88,2.6.05,6.1.09,12.19.12,18.29.02,5.22,0,10.45.01,15.67,0,2.2.85,3.04,3.05,3.08.35,0,.71,0,1.06,0,.04,0,.09,0,.13,0,.12,0,.25,0,.37,0,.04,0,.09,0,.13,0,.12,0,.25,0,.37,0,.04,0,.09,0,.13,0,.12,0,.25,0,.37,0,.04,0,.09,0,.13,0,.12,0,.25,0,.37,0,.04,0,.09,0,.13,0,.12,0,.25,0,.37,0,.04,0,.09,0,.13,0,.12,0,.25,0,.37,0,.04,0,.09,0,.13,0,.12,0,.25,0,.37,0,.04,0,.09,0,.13,0,.12,0,.25,0,.37,0,.04,0,.09,0,.13,0,.12,0,.25,0,.37,0,.04,0,.09,0,.13,0,.12,0,.25,0,.37,0,.04,0,.09,0,.13,0,.12,0,.25,0,.37,0,.04,0,.09,0,.13,0,.12,0,.25,0,.37,0,.04,0,.09,0,.13,0,.12,0,.25,0,.37,0,.04,0,.09,0,.13,0,.12,0,.25,0,.37,0,.04,0,.09,0,.13,0,.12,0,.25,0,.37,0,.04,0,.09,0,.13,0,.12,0,.25,0,.37,0,.04,0,.09,0,.13,0,.12,0,.25,0,.37,0,.04,0,.09,0,.13,0,.12,0,.25,0,.37,0,.04,0,.09,0,.13,0,.12,0,.25,0,.37,0,.04,0,.09,0,.13,0,.12,0,.25,0,.37,0,.04,0,.09,0,.13,0,.12,0,.25,0,.37,0,.04,0,.09,0,.13,0,.12,0,.25,0,.37,0,.04,0,.09,0,.13,0,.12,0,.25,0,.37,0,.04,0,.09,0,.13,0,.12,0,.25,0,.37,0,.04,0,.09,0,.13,0,.12,0,.25,0,.37,0,.04,0,.09,0,.13,0,.12,0,.25,0,.37,0,.04,0,.09,0,.13,0,.12,0,.25,0,.37,0,.04,0,.09,0,.13,0,.12,0,.25,0,.37,0,.04,0,.09,0,.13,0,.12,0,.25,0,.37,0,.04,0,.09,0,.13,0,.12,0,.25,0,.37,0,.04,0,.09,0,.13,0,.12,0,.25,0,.37,0,.04,0,.09,0,.13,0,.12,0,.25,0,.37,0,.04,0,.09,0,.13,0,.12,0,.25,0,.37,0,.04,0,.09,0,.13,0,.12,0,.25,0,.37,0,.04,0,.09,0,.13,0,.12,0,.25,0,.37,0,.04,0,.09,0,.13,0,.12,0,.25,0,.37,0,.04,0,.09,0,.13,0,.12,0,.25,0,.37,0,.04,0,.09,0,.13,0,.12,0,.25,0,.37,0,.04,0,.09,0,.13,0,.12,0,.25,0,.37,0,.04,0,.09,0,.13,0,.12,0,.25,0,.37,0,.04,0,.09,0,.13,0,.12,0,.25,0,.37,0,.04,0,.09,0,.13,0,.12,0,.25,0,.37,0,.04,0,.09,0,.13,0,.12,0,.25,0,.37,0,.04,0,.09,0,.13,0,.12,0,.25,0,.37,0,.04,0,.09,0,.13,0,.12,0,.25,0,.37,0,.04,0,.09,0,.13,0,.12,0,.25,0,.37,0,.04,0,.09,0,.13,0,.12,0,.25,0,.37,0,.04,0,.09,0,.13,0,.12,0,.25,0,.37,0,.04,0,.09,0,.13,0,.12,0,.25,0,.37,0,.04,0,.09,0,.13,0,.12,0,.25,0,.37,0,.04,0,.09,0,.13,0,.12,0,.25,0,.37,0,.04,0,.09,0,.13,0,.12,0,.25,0,.37,0,.04,0,.09,0,.13,0,.12,0,.25,0,.37,0,.04,0,.09,0,.13,0,.12,0,.25,0,.37,0,.04,0,.09,0,.13,0,.12,0,.25,0,.37,0,.04,0,.09,0,.13,0,.12,0,.25,0,.37,0,.04,0,.09,0,.13,0,.12,0,.25,0,.37,0,.04,0,.09,0,.13,0,1.18.07,2.35-.01,3.08-1.09.35-.51.59-1.16.64-1.77.11-1.09.05-2.21.05-3.31,0-10.1,0-20.21,0-30.31,0-1.68.65-2.59,2.22-3.14,7.61,0,15.22,0,22.83.01.1,0,.21-.02.31-.04Z"/>
  <path class="cls-9" d="m127.62.49c7.92-.01,15.84-.03,23.76-.04,1.44.36,2.12,1.23,2.12,2.74,0,24.73,0,49.45,0,74.18,0,2.04,1.11,3.23,3.15,3.34.94.05,1.87.02,2.81.02,12.77,0,25.54,0,38.31,0,.62,0,1.25,0,1.87.02,1.46.04,2.53,1.08,2.61,2.56.04.64.02,1.29.02,1.94,0,5.98-.01,11.96-.03,17.93,0,.45-.05.92-.17,1.36-.39,1.37-1.43,2.12-2.88,2.12-6.6,0-13.21,0-19.81,0-16.66,0-33.33,0-49.99,0-.47,0-.96-.04-1.42-.13-1.25-.24-1.96-.96-2.08-2.22-.11-1.22-.15-2.45-.15-3.68,0-31.87,0-63.74,0-95.61,0-.5.03-1,.04-1.5.01,0,.04-.02.04-.03,0-.03-.02-.05-.03-.08.02-.13.04-.26.06-.38,0-.04.01-.08.02-.11.08-1.17.58-2.04,1.76-2.39Z"/>
  <path class="cls-7" d="m10,131.09c-.96-.03-1.92-.05-2.88-.08-.06-.33-.17-.67-.17-1-.04-3.54-.07-7.07-.07-10.61,0-.55-.18-.67-.68-.64-.58.04-1.16,0-1.78,0-.01.23-.04.4-.04.58,0,3.37,0,6.74-.02,10.11,0,.39-.03.79-.11,1.18-.03.16-.24.27-.37.41-1-.02-2-.02-2.99-.06-.2,0-.39-.15-.58-.23.06-.55.18-1.11.18-1.66,0-4.26,0-8.51-.02-12.77,0-.49-.08-.98-.13-1.47.21-.07.42-.19.63-.19,4.41-.02,8.82-.02,13.24-.02.37,0,.75.06,1.11.14,1.36.29,2.14,1.21,2.16,2.74.04,4.22.01,8.45.02,12.67,0,.69-.41.87-1,.86-.96-.01-1.92-.02-2.89-.03-.12-.39-.33-.78-.34-1.17-.03-3.28-.02-6.56-.04-9.84,0-1.44.24-1.24-1.24-1.26-.37,0-.74.04-1.11.06-.04.06-.08.12-.12.18,0,3.98,0,7.96,0,11.97-.32.05-.54.08-.77.12Z"/>
  <path class="cls-7" d="m74.51,131.06c-1.13-.02-2.26-.03-3.38-.05-.06-.25-.17-.5-.17-.75-.02-4.93-.02-9.87-.04-14.8,0-.59.23-.82.81-.82,3.29,0,6.58-.03,9.87.02,2.08.03,3.08,1.07,3.13,3.15.05,1.89.03,3.79.01,5.68-.01,1.15-.54,2.03-1.58,2.57-.15.08-.29.16-.47.26.79,1.36,1.57,2.69,2.33,4.04.11.2.48.48-.01.69-1.34,0-2.68-.01-4.01-.02-.21-.21-.47-.4-.62-.65-.7-1.2-1.38-2.41-2.04-3.64-.2-.38-.44-.56-.88-.53-.56.04-1.13.07-1.68.02-.55-.04-.65.19-.65.68,0,1.19-.05,2.37-.06,3.56,0,.38-.16.58-.55.57Zm5.95-8.58v-3.89h-5.42v3.89h5.42Z"/>
  <path class="cls-7" d="m139.38,131.04c-1.09,0-2.18-.01-3.26-.02-.12-.33-.32-.66-.34-1-.05-1.08-.05-2.16-.03-3.24,0-.45-.12-.64-.59-.64-1.25.01-2.49-.04-3.74-.02-.85.01-.92.12-.92.94,0,1.12,0,2.25,0,3.37,0,.35-.05.63-.49.6-1.17,0-2.34-.01-3.51-.02-.08-.27-.22-.54-.22-.81-.01-4.1-.03-8.21,0-12.31.02-2.17,1.09-3.22,3.25-3.24,2.37-.02,4.75-.02,7.12,0,1,.01,2,.11,2.73.97.57.67.69,1.46.69,2.27.01,3.37.01,6.75.01,10.12,0,.79-.01,1.58-.02,2.37,0,.46-.21.7-.69.65Zm-3.53-12.52h-5.31v3.95h5.37v-3.83s-.04-.08-.06-.12Z"/>
  <path class="cls-7" d="m34,131.06c-.93-.01-1.85-.03-2.78-.04-.54-.1-.43-.57-.44-.9-.05-1.06-.06-2.12-.03-3.19.01-.6-.21-.81-.8-.8-1.29.03-2.58.02-3.87,0-.52,0-.7.21-.7.71,0,1.12-.02,2.25-.04,3.37,0,.54-.19.94-.84.87-.96-.02-1.93-.03-2.89-.05-.46-.02-.45-.37-.46-.67-.03-.71-.03-1.42-.03-2.12,0-3.33,0-6.66,0-9.99,0-.35.01-.71.06-1.06.21-1.51.98-2.43,2.49-2.48,2.87-.09,5.74-.06,8.61.02,1.84.05,2.66,1.31,2.69,2.99.06,4.14.03,8.29.02,12.43,0,.76-.09.81-.99.93Zm-8.61-8.62h5.33v-3.9h-5.33v3.9Z"/>
  <path class="cls-7" d="m223.5,131.08c-1-.02-2.01-.04-3.01-.06-.12-.32-.33-.65-.34-.97-.03-3.52-.02-7.04-.02-10.55,0-.73-.02-1.46.07-2.18.21-1.71.92-2.55,2.62-2.61,2.82-.11,5.66-.1,8.48.04,1.82.09,2.67,1.15,2.68,2.96.03,4.14.01,8.28,0,12.43,0,.4,0,.87-.61.9h-3.15c-.54-.11-.43-.58-.44-.91-.05-1.06-.06-2.12-.03-3.18.01-.58-.18-.83-.79-.81-1.29.03-2.58.02-3.86,0-.55-.01-.72.23-.72.74,0,1.1-.03,2.2-.03,3.3,0,.57-.16.97-.84.9Zm6.22-12.53h-5.33v3.91h5.33v-3.91Z"/>
  <path class="cls-7" d="m64.51,131.07c-1.95-.02-3.9-.05-5.84-.06-.89,0-1.78.03-2.67.04-1.6-.15-2.5-1-2.51-2.61-.04-3.64-.04-7.29,0-10.93.02-1.61.9-2.54,2.5-2.76.78-.1,1.58-.1,2.37-.1,1.77-.01,3.54-.01,5.31,0,.41,0,.83.04,1.24.11,1.46.24,2.3,1.1,2.31,2.57.04,3.69.03,7.37,0,11.06-.01,1.35-1.04,2.69-2.72,2.68Zm-1.55-4.08v-8.21c-1.62,0-3.2.02-4.78-.01-.45,0-.56.14-.56.57,0,2.39-.01,4.78-.02,7.17,0,.16.03.31.05.48h5.3Z"/>
  <path class="cls-7" d="m206,131.08c-1-.02-2.01-.04-3.01-.06-.12-.3-.33-.6-.33-.91-.03-3.39-.03-6.78-.03-10.18,0-1.46,0-2.91,0-4.37,0-.69.19-.9.88-.92.81-.02,1.62-.02,2.43,0,.73.01.92.22.93.94.01,1.37,0,2.75.03,4.12.02.97.08,1.03,1.04,1.03,1.14,0,2.29.01,3.43,0,.75,0,.88-.14.88-.88.01-1.42,0-2.83.02-4.25,0-.73.19-.95.91-.96.91-.01,1.83.03,2.74.08.38.02.59.21.59.64-.01,5.14,0,10.28-.01,15.42,0,.04-.02.08-.04.16-.2.02-.42.05-.64.07-1.06,0-2.13-.01-3.19-.02-.12-.35-.33-.71-.34-1.06-.05-1.37-.03-2.74-.04-4.12-.01-.85-.13-.96-.99-.96-1.16,0-2.33,0-3.49,0-.82,0-.85.03-.86.83-.02,1.48-.05,2.95-.03,4.43,0,.63-.15,1.01-.86.93Z"/>
  <path class="cls-7" d="m154.88,131.16c-2.84,0-5.67-.01-8.51-.02-2.07-.34-2.73-1.12-2.74-3.22,0-3.21,0-6.41,0-9.62,0-.83,0-1.67.5-2.4.66-.95,1.66-1.24,2.73-1.25,2.93-.03,5.87-.02,8.8,0,.79,0,.95.19.95.97,0,.67,0,1.33,0,2,0,.96-.15,1.11-1.13,1.12-1.35.01-2.71,0-4.06.01-.92,0-1.83.02-2.75.01-.56,0-.82.2-.81.81.03,2.23,0,4.45.01,6.68,0,.76.09.85.87.86,1.17.02,2.33.02,3.5.01.8,0,.94-.12.97-.94.04-1,.03-2,.04-3,.01-.83.19-1.04,1.03-1.04.94,0,1.87.03,2.81.04.06,0,.11.01.17.02.08.21.22.42.22.63.02,1.72.01,3.44,0,5.17,0,1.79-.84,2.79-2.62,3.15Z"/>
  <path class="cls-7" d="m171.88,131.16c-2.34-.02-4.68-.03-7.02-.04-.41,0-.83.02-1.24.03-.04-.02-.08-.03-.12-.04-.06,0-.12-.01-.19-.02-1.53-.26-2.3-1.06-2.33-2.59-.05-2.85-.03-5.7-.04-8.56,0-1.44-.02-2.87-.03-4.31,0-.82.1-.95.91-.97.79-.02,1.58-.02,2.37,0,.84.02.92.12.92.95,0,3.48,0,6.96,0,10.43,0,.97.01.97.95.97,1.45,0,2.91,0,4.41,0,0-.27,0-.49,0-.72,0-3.58.01-7.16-.01-10.75,0-.58.23-.82.73-.84,1-.04,2-.04,2.99-.03.41,0,.65.28.65.69-.03,4.35,0,8.7-.12,13.05-.05,1.79-1.06,2.6-2.86,2.74Z"/>
  <path class="cls-7" d="m121.51,131.05c-.72-.02-1.45-.05-2.17-.05-2.95,0-5.89.01-8.84.02-.14-.01-.29-.03-.49-.05,0-.23,0-.45,0-.68,0-4.91.01-9.83-.01-14.74,0-.57.21-.8.72-.86.25-.03.5-.05.75-.05,3.31,0,6.62,0,9.93,0,.21,0,.42.01.62.02.43.02.63.22.62.67-.02.83-.03,1.67,0,2.5.02.6-.22.81-.81.81-2.29-.02-4.58,0-6.87,0-.2,0-.41,0-.67,0,0,.79-.03,1.54.03,2.27,0,.12.35.31.53.31,1.69.03,3.37.03,5.06.04.35,0,.71.03,1.06.05.39.02.59.18.56.63-.04.54,0,1.08,0,1.62,0,.85-.16,1.03-1.02,1.05-1.85.02-3.71.02-5.56.02-.2,0-.41,0-.65,0,0,.81-.02,1.55.03,2.29,0,.12.36.29.55.3,1.6.03,3.21.03,4.81.04.73,0,1.46,0,2.19,0,.54,0,.8.25.77.81-.03.6-.02,1.21-.03,1.81q-.01,1.08-1.08,1.16Z"/>
  <path class="cls-7" d="m310.63,122.5c-.04,1.41-.11,2.81-.12,4.22,0,.55.1,1.11.16,1.66,0,.12-.01.25-.02.37,0,.04,0,.08-.01.12-.5,1.58-1.19,2.15-2.76,2.28-2.75-.01-5.5-.02-8.26-.03-.58-.19-1.23-.28-1.74-.59-.65-.39-.94-1.08-.94-1.87,0-3.73-.02-7.45.01-11.18.01-1.61.89-2.56,2.49-2.75.84-.1,1.7-.09,2.55-.1,2.25-.01,4.5,0,6.75,0,.9,0,1.12.22,1.12,1.09,0,.69,0,1.37,0,2.06,0,.74-.22.95-.98.96-2.21,0-4.42,0-6.62,0-1.12,0-1.15.02-1.15,1.1,0,2.12,0,4.25.02,6.37,0,.74.14.88.88.89,1.12.02,2.25.02,3.37,0,.76,0,.94-.19.97-.98.03-1.02.03-2.04.04-3.06,0-.74.13-.9.86-.92.89-.03,1.79-.04,2.69,0,.23,0,.45.22.67.34Z"/>
  <path class="cls-7" d="m190.01,131.05c-.68-.02-1.36-.05-2.05-.05-2.99,0-5.98.01-8.97.02-.59.06-.54-.36-.54-.73,0-2.96,0-5.92,0-8.87,0-1.92-.02-3.83-.03-5.75,0-.83.11-1.01.95-1.02,3.65-.02,7.29,0,10.94,0,.47,0,.78.16.78.67,0,.91-.05,1.83-.05,2.74,0,.39-.23.5-.54.54-.23.03-.46.03-.69.03-2.25,0-4.5,0-6.75,0-.12,0-.24.01-.4.02,0,.76-.04,1.48.03,2.2.01.15.41.36.63.37,1.79.04,3.58.03,5.37.04.19,0,.38,0,.56,0,.42.02.64.18.62.65-.03.62,0,1.25,0,1.87,0,.71-.12.83-.85.84-1.9,0-3.79,0-5.69,0-.21,0-.41,0-.68,0,0,.77-.03,1.51.03,2.24.01.14.43.34.66.34,1.81.04,3.62.03,5.44.04.52,0,1.04,0,1.56,0,.54,0,.8.25.78.81-.03.6-.02,1.21-.03,1.81q-.01,1.08-1.08,1.16Z"/>
  <path class="cls-7" d="m292.49,131.1c-1-.02-2-.04-3-.06-.48-.08-.34-.47-.34-.74-.02-2.93-.02-5.86-.03-8.8,0-.71-.04-1.41-.06-2.12,0-.41-.2-.6-.62-.6-1.39,0-2.79-.01-4.18-.02-.54,0-.64.35-.64.79,0,1.62-.02,3.24-.03,4.87,0,1.98,0,3.95,0,5.93,0,.42-.07.75-.6.72-1-.01-2.01-.03-3.01-.04-.59.06-.54-.36-.54-.73,0-2.94,0-5.87,0-8.81,0-1.96-.02-3.91-.03-5.87,0-.76.12-.95.88-.96,3.33-.02,6.66-.05,9.99.02.68.01,1.41.34,2.02.69.72.42.92,1.22.92,2.01.01,4.27,0,8.54,0,12.81,0,.5-.11.92-.74.91Z"/>
  <path class="cls-7" d="m257.38,131.16c-.92,0-1.84,0-2.76,0-.42-.02-.69-.14-.69-.65,0-5.12-.01-10.24-.02-15.37.02-.06.03-.12.05-.17.16-.1.32-.29.48-.29,1-.02,2-.02,3,0,.39,0,.69.2.69.65-.02,2.06-.05,4.12-.07,6.18,0,.12.02.23.03.35.07-.06.13-.11.2-.17,1.87-2.17,3.76-4.33,5.61-6.52.32-.37.63-.54,1.11-.52,1.2.04,2.41.04,3.62.06.06,0,.11.02.17.03.01.11.07.27.02.32-1.73,2.05-3.45,4.1-5.22,6.11-.35.4-.36.63-.1,1.05,1.59,2.58,3.15,5.17,4.72,7.76.18.29.31.61.51,1.01-.31.04-.51.06-.7.08-1.17,0-2.34,0-3.52,0-.45-.02-.69-.29-.9-.66-.97-1.77-1.95-3.52-2.93-5.28-.12-.22-.29-.42-.49-.7-.74.82-1.41,1.55-2.05,2.31-.1.12-.11.34-.12.52-.01,1.06-.02,2.12,0,3.18,0,.46-.15.72-.63.73Z"/>
  <path class="cls-7" d="m249.34,131.06c-1.41-.02-2.82-.05-4.24-.05-1.7,0-3.41.02-5.11.03-1.51-.16-2.43-1.14-2.46-2.92-.07-3.47-.07-6.95,0-10.43.04-1.96,1.19-3.02,3.14-3.04,2.85-.03,5.7-.01,8.55,0,.86,0,.9.07.9.94,0,.69.01,1.37,0,2.06,0,.92-.16,1.09-1.1,1.1-2.06.02-4.12.02-6.18.02-1.04,0-1.1.05-1.1,1.08,0,2.1.01,4.2.03,6.31,0,.84.03.85.88.85,2.12,0,4.25,0,6.37,0,.86,0,1.06.21,1.07,1.07,0,.73-.02,1.46.02,2.18.02.56-.15.88-.77.8Z"/>
  <path class="cls-7" d="m47,131.16c-2.29,0-4.59-.02-6.88-.02-.25-.04-.49-.07-.74-.12-1.27-.22-2.07-1.08-2.11-2.38-.04-1.7-.02-3.41-.04-5.11,0-.41.16-.65.57-.64,1.18.04,2.36.11,3.54.16.04.07.07.14.11.21.01,1,.06,2,.03,2.99-.02.6.24.85.79.86.92.02,1.83.01,2.75.02.36,0,.54-.17.57-.52.02-.27.03-.54.03-.81,0-3.39,0-6.78,0-10.18,0-.89.08-.98.95-.99.81,0,1.62,0,2.44,0,.58,0,.87.28.87.89-.01,4.04,0,8.08-.02,12.11,0,.43-.05.88-.13,1.3-.25,1.31-1.14,2.02-2.72,2.21Z"/>
  <path class="cls-7" d="m107,131.07c-.52-.02-1.03-.06-1.55-.06-2.43,0-4.86,0-7.29,0-.23,0-.45.04-.68.06-.68.04-.84-.37-.85-.94,0-4.81-.01-9.62,0-14.43,0-.82.25-1.03,1.05-1.04.73,0,1.46,0,2.19,0,.83,0,.99.16.99.99,0,3.1,0,6.21,0,9.31,0,.48.01.96.04,1.44.02.44.24.64.72.63,1.71-.03,3.42-.02,5.12,0,.87,0,.97.1.98.96,0,.79-.01,1.58,0,2.37.01.52-.18.79-.73.73Z"/>
  <path class="cls-7" d="m275,131.08c-1-.02-2.01-.04-3.01-.06-.12-.32-.33-.65-.34-.97-.03-3.33-.03-6.66-.03-9.98,0-1.52.01-3.04,0-4.56,0-.59.26-.86.81-.86.87-.01,1.75-.01,2.62,0,.55,0,.82.29.82.86-.01,4.83,0,9.65-.02,14.48,0,1-.03,1-.84,1.09Z"/>
  <path class="cls-10" d="m258.27,121.68c-.07.06-.13.11-.2.17,0-.12-.02-.23-.03-.35.08.06.15.12.23.18Z"/>
  <path class="cls-22" d="m2.47,106.54c.18.03.35.05.53.08-.18-.03-.35-.05-.53-.08Z"/>
  <path class="cls-14" d="m109.6,72.62c0-.08,0-.17,0-.25,0,.08,0,.17,0,.25Z"/>
  <path class="cls-14" d="m109.6,100.62c0-.08,0-.17,0-.25,0,.08,0,.17,0,.25Z"/>
  <path class="cls-14" d="m109.6,49.12c0-.08,0-.17,0-.25,0,.08,0,.17,0,.25Z"/>
  <path class="cls-14" d="m109.6,49.62c0-.08,0-.17,0-.25,0,.08,0,.17,0,.25Z"/>
  <path class="cls-14" d="m109.6,27.12c0-.08,0-.17,0-.25,0,.08,0,.17,0,.25Z"/>
  <path class="cls-14" d="m109.6,27.62c0-.08,0-.17,0-.25,0,.08,0,.17,0,.25Z"/>
  <path class="cls-14" d="m109.6,34.12c0-.08,0-.17,0-.25,0,.08,0,.17,0,.25Z"/>
  <path class="cls-14" d="m109.6,34.62c0-.08,0-.17,0-.25,0,.08,0,.17,0,.25Z"/>
  <path class="cls-14" d="m109.6,35.12c0-.08,0-.17,0-.25,0,.08,0,.17,0,.25Z"/>
  <path class="cls-14" d="m109.6,35.62c0-.08,0-.17,0-.25,0,.08,0,.17,0,.25Z"/>
  <path class="cls-14" d="m109.6,36.12c0-.08,0-.17,0-.25,0,.08,0,.17,0,.25Z"/>
  <path class="cls-14" d="m109.6,36.62c0-.08,0-.17,0-.25,0,.08,0,.17,0,.25Z"/>
  <path class="cls-14" d="m109.6,37.12c0-.08,0-.17,0-.25,0,.08,0,.17,0,.25Z"/>
  <path class="cls-14" d="m109.6,37.62c0-.08,0-.17,0-.25,0,.08,0,.17,0,.25Z"/>
  <path class="cls-14" d="m109.6,38.12c0-.08,0-.17,0-.25,0,.08,0,.17,0,.25Z"/>
  <path class="cls-14" d="m109.6,38.62c0-.08,0-.17,0-.25,0,.08,0,.17,0,.25Z"/>
  <path class="cls-14" d="m109.6,39.12c0-.08,0-.17,0-.25,0,.08,0,.17,0,.25Z"/>
  <path class="cls-14" d="m109.6,39.62c0-.08,0-.17,0-.25,0,.08,0,.17,0,.25Z"/>
  <path class="cls-14" d="m109.6,40.12c0-.08,0-.17,0-.25,0,.08,0,.17,0,.25Z"/>
  <path class="cls-14" d="m109.6,19.12c0-.08,0-.16,0-.25,0,.08,0,.16,0,.25Z"/>
  <path class="cls-14" d="m109.6,19.62c0-.08,0-.17,0-.25,0,.08,0,.17,0,.25Z"/>
  <path class="cls-14" d="m109.6,20.12c0-.08,0-.17,0-.25,0,.08,0,.17,0,.25Z"/>
  <path class="cls-10" d="m41.46,123.26c-.04-.07-.07-.14-.11-.21.04.07.07.14.11.21Z"/>
  <path class="cls-14" d="m109.6,20.62c0-.08,0-.17,0-.25,0,.08,0,.17,0,.25Z"/>
  <path class="cls-14" d="m109.6,21.12c0-.08,0-.17,0-.25,0,.08,0,.17,0,.25Z"/>
  <path class="cls-14" d="m109.6,21.62c0-.08,0-.17,0-.25,0,.08,0,.17,0,.25Z"/>
  <path class="cls-14" d="m109.6,22.12c0-.08,0-.17,0-.25,0,.08,0,.17,0,.25Z"/>
  <path class="cls-14" d="m109.6,22.62c0-.08,0-.17,0-.25,0,.08,0,.17,0,.25Z"/>
  <path class="cls-14" d="m109.6,23.12c0-.08,0-.17,0-.25,0,.08,0,.17,0,.25Z"/>
  <path class="cls-14" d="m109.6,23.62c0-.08,0-.17,0-.25,0,.08,0,.17,0,.25Z"/>
  <path class="cls-14" d="m109.6,24.12c0-.08,0-.17,0-.25,0,.08,0,.17,0,.25Z"/>
  <path class="cls-14" d="m109.6,24.62c0-.08,0-.17,0-.25,0,.08,0,.17,0,.25Z"/>
  <path class="cls-14" d="m109.6,25.12c0-.08,0-.17,0-.25,0,.08,0,.17,0,.25Z"/>
  <path class="cls-14" d="m109.6,25.62c0-.08,0-.17,0-.25,0,.08,0,.17,0,.25Z"/>
  <path class="cls-22" d="m26.21,26.01c0-.09,0-.17,0-.26,0,.09,0,.17,0,.26Z"/>
  <path class="cls-14" d="m109.6,26.12c0-.08,0-.17,0-.25,0,.08,0,.17,0,.25Z"/>
  <path class="cls-14" d="m109.6,26.62c0-.08,0-.17,0-.25,0,.08,0,.17,0,.25Z"/>
  <path class="cls-14" d="m109.6,59.12c0-.08,0-.17,0-.25,0,.08,0,.17,0,.25Z"/>
  <path class="cls-14" d="m109.6,58.62c0-.08,0-.17,0-.25,0,.08,0,.17,0,.25Z"/>
  <path class="cls-14" d="m109.6,59.62c0-.08,0-.17,0-.25,0,.08,0,.17,0,.25Z"/>
  <path class="cls-14" d="m109.6,28.12c0-.08,0-.17,0-.25,0,.08,0,.17,0,.25Z"/>
  <path class="cls-14" d="m109.6,28.62c0-.08,0-.17,0-.25,0,.08,0,.17,0,.25Z"/>
  <path class="cls-14" d="m109.6,29.12c0-.08,0-.17,0-.25,0,.08,0,.17,0,.25Z"/>
  <path class="cls-14" d="m109.6,29.62c0-.08,0-.17,0-.25,0,.08,0,.17,0,.25Z"/>
  <path class="cls-14" d="m109.6,40.62c0-.08,0-.17,0-.25,0,.08,0,.17,0,.25Z"/>
  <path class="cls-14" d="m109.6,41.12c0-.08,0-.17,0-.25,0,.08,0,.17,0,.25Z"/>
  <path class="cls-14" d="m109.6,41.62c0-.08,0-.17,0-.25,0,.08,0,.17,0,.25Z"/>
  <path class="cls-14" d="m109.6,42.12c0-.08,0-.17,0-.25,0,.08,0,.17,0,.25Z"/>
  <path class="cls-14" d="m109.6,42.62c0-.08,0-.17,0-.25,0,.08,0,.17,0,.25Z"/>
  <path class="cls-14" d="m109.6,43.12c0-.08,0-.17,0-.25,0,.08,0,.17,0,.25Z"/>
  <path class="cls-14" d="m109.6,43.62c0-.08,0-.17,0-.25,0,.08,0,.17,0,.25Z"/>
  <path class="cls-14" d="m109.6,44.12c0-.08,0-.17,0-.25,0,.08,0,.17,0,.25Z"/>
  <path class="cls-14" d="m109.6,44.62c0-.08,0-.17,0-.25,0,.08,0,.17,0,.25Z"/>
  <path class="cls-14" d="m109.6,45.12c0-.08,0-.17,0-.25,0,.08,0,.17,0,.25Z"/>
  <path class="cls-14" d="m109.6,45.62c0-.08,0-.17,0-.25,0,.08,0,.17,0,.25Z"/>
  <path class="cls-14" d="m109.6,46.12c0-.08,0-.17,0-.25,0,.08,0,.17,0,.25Z"/>
  <path class="cls-14" d="m109.6,46.62c0-.08,0-.17,0-.25,0,.08,0,.17,0,.25Z"/>
  <path class="cls-14" d="m109.6,47.12c0-.08,0-.17,0-.25,0,.08,0,.17,0,.25Z"/>
  <path class="cls-14" d="m109.6,47.62c0-.08,0-.17,0-.25,0,.08,0,.17,0,.25Z"/>
  <path class="cls-14" d="m109.6,48.12c0-.08,0-.17,0-.25,0,.08,0,.17,0,.25Z"/>
  <path class="cls-14" d="m109.6,30.12c0-.08,0-.17,0-.25,0,.08,0,.17,0,.25Z"/>
  <path class="cls-14" d="m109.6,30.62c0-.08,0-.17,0-.25,0,.08,0,.17,0,.25Z"/>
  <path class="cls-14" d="m109.6,31.12c0-.08,0-.17,0-.25,0,.08,0,.17,0,.25Z"/>
  <path class="cls-14" d="m109.6,50.12c0-.08,0-.17,0-.25,0,.08,0,.17,0,.25Z"/>
  <path class="cls-14" d="m109.6,50.62c0-.08,0-.17,0-.25,0,.08,0,.17,0,.25Z"/>
  <path class="cls-14" d="m109.6,51.12c0-.08,0-.17,0-.25,0,.08,0,.17,0,.25Z"/>
  <path class="cls-14" d="m109.6,51.62c0-.08,0-.17,0-.25,0,.08,0,.17,0,.25Z"/>
  <path class="cls-14" d="m109.6,52.12c0-.08,0-.17,0-.25,0,.08,0,.17,0,.25Z"/>
  <path class="cls-14" d="m109.6,52.62c0-.08,0-.17,0-.25,0,.08,0,.17,0,.25Z"/>
  <path class="cls-14" d="m109.6,53.12c0-.08,0-.17,0-.25,0,.08,0,.17,0,.25Z"/>
  <path class="cls-14" d="m109.6,53.62c0-.08,0-.17,0-.25,0,.08,0,.17,0,.25Z"/>
  <path class="cls-14" d="m109.6,54.12c0-.08,0-.17,0-.25,0,.08,0,.17,0,.25Z"/>
  <path class="cls-14" d="m109.6,54.62c0-.08,0-.17,0-.25,0,.08,0,.17,0,.25Z"/>
  <path class="cls-14" d="m109.6,55.12c0-.08,0-.17,0-.25,0,.08,0,.17,0,.25Z"/>
  <path class="cls-14" d="m109.6,55.62c0-.08,0-.17,0-.25,0,.08,0,.17,0,.25Z"/>
  <path class="cls-14" d="m109.6,56.12c0-.08,0-.17,0-.25,0,.08,0,.17,0,.25Z"/>
  <path class="cls-14" d="m109.6,56.62c0-.08,0-.17,0-.25,0,.08,0,.17,0,.25Z"/>
  <path class="cls-14" d="m109.6,57.12c0-.08,0-.17,0-.25,0,.08,0,.17,0,.25Z"/>
  <path class="cls-14" d="m109.6,57.62c0-.08,0-.17,0-.25,0,.08,0,.17,0,.25Z"/>
  <path class="cls-14" d="m109.6,31.62c0-.08,0-.17,0-.25,0,.08,0,.17,0,.25Z"/>
  <path class="cls-14" d="m109.6,33.12c0-.08,0-.17,0-.25,0,.08,0,.17,0,.25Z"/>
  <path class="cls-14" d="m109.6,32.12c0-.08,0-.17,0-.25,0,.08,0,.17,0,.25Z"/>
  <path class="cls-14" d="m109.6,32.62c0-.08,0-.17,0-.25,0,.08,0,.17,0,.25Z"/>
  <path class="cls-14" d="m109.6,60.62c0-.08,0-.17,0-.25,0,.08,0,.17,0,.25Z"/>
  <path class="cls-14" d="m109.6,61.12c0-.08,0-.17,0-.25,0,.08,0,.17,0,.25Z"/>
  <path class="cls-14" d="m109.6,61.62c0-.08,0-.17,0-.25,0,.08,0,.17,0,.25Z"/>
  <path class="cls-14" d="m109.6,62.12c0-.08,0-.17,0-.25,0,.08,0,.17,0,.25Z"/>
  <path class="cls-14" d="m109.6,62.62c0-.08,0-.17,0-.25,0,.08,0,.17,0,.25Z"/>
  <path class="cls-14" d="m109.6,63.12c0-.08,0-.17,0-.25,0,.08,0,.17,0,.25Z"/>
  <path class="cls-14" d="m109.6,63.62c0-.08,0-.17,0-.25,0,.08,0,.17,0,.25Z"/>
  <path class="cls-14" d="m109.6,64.12c0-.08,0-.17,0-.25,0,.08,0,.17,0,.25Z"/>
  <path class="cls-14" d="m109.6,64.62c0-.08,0-.17,0-.25,0,.08,0,.17,0,.25Z"/>
  <path class="cls-14" d="m109.6,65.12c0-.08,0-.17,0-.25,0,.08,0,.17,0,.25Z"/>
  <path class="cls-14" d="m109.6,65.62c0-.08,0-.17,0-.25,0,.08,0,.17,0,.25Z"/>
  <path class="cls-14" d="m109.6,66.12c0-.08,0-.17,0-.25,0,.08,0,.17,0,.25Z"/>
  <path class="cls-14" d="m109.6,101.12c0-.08,0-.17,0-.25,0,.08,0,.17,0,.25Z"/>
  <path class="cls-14" d="m109.6,66.62c0-.08,0-.17,0-.25,0,.08,0,.17,0,.25Z"/>
  <path class="cls-14" d="m109.6,67.12c0-.08,0-.17,0-.25,0,.08,0,.17,0,.25Z"/>
  <path class="cls-14" d="m109.6,67.62c0-.08,0-.17,0-.25,0,.08,0,.17,0,.25Z"/>
  <path class="cls-14" d="m109.6,68.12c0-.08,0-.17,0-.25,0,.08,0,.17,0,.25Z"/>
  <path class="cls-14" d="m109.6,68.62c0-.08,0-.17,0-.25,0,.08,0,.17,0,.25Z"/>
  <path class="cls-14" d="m109.6,69.12c0-.08,0-.17,0-.25,0,.08,0,.17,0,.25Z"/>
  <path class="cls-14" d="m109.6,69.62c0-.08,0-.17,0-.25,0,.08,0,.17,0,.25Z"/>
  <path class="cls-14" d="m109.6,70.12c0-.08,0-.17,0-.25,0,.08,0,.17,0,.25Z"/>
  <path class="cls-14" d="m109.6,70.62c0-.08,0-.17,0-.25,0,.08,0,.17,0,.25Z"/>
  <path class="cls-14" d="m109.6,71.12c0-.08,0-.17,0-.25,0,.08,0,.17,0,.25Z"/>
  <path class="cls-14" d="m109.6,71.62c0-.08,0-.17,0-.25,0,.08,0,.17,0,.25Z"/>
  <path class="cls-14" d="m109.6,72.12c0-.08,0-.17,0-.25,0,.08,0,.17,0,.25Z"/>
  <path class="cls-14" d="m109.6,33.62c0-.08,0-.17,0-.25,0,.08,0,.17,0,.25Z"/>
  <path class="cls-14" d="m109.6,73.12c0-.08,0-.17,0-.25,0,.08,0,.17,0,.25Z"/>
  <path class="cls-14" d="m109.6,73.62c0-.08,0-.17,0-.25,0,.08,0,.17,0,.25Z"/>
  <path class="cls-14" d="m109.6,74.12c0-.08,0-.17,0-.25,0,.08,0,.17,0,.25Z"/>
  <path class="cls-14" d="m109.6,74.62c0-.08,0-.17,0-.25,0,.08,0,.17,0,.25Z"/>
  <path class="cls-14" d="m109.6,75.12c0-.08,0-.17,0-.25,0,.08,0,.17,0,.25Z"/>
  <path class="cls-14" d="m109.6,75.62c0-.08,0-.17,0-.25,0,.08,0,.17,0,.25Z"/>
  <path class="cls-14" d="m109.6,76.12c0-.08,0-.17,0-.25,0,.08,0,.17,0,.25Z"/>
  <path class="cls-14" d="m109.6,76.62c0-.08,0-.17,0-.25,0,.08,0,.17,0,.25Z"/>
  <path class="cls-14" d="m109.6,77.12c0-.08,0-.17,0-.25,0,.08,0,.17,0,.25Z"/>
  <path class="cls-14" d="m109.6,77.62c0-.08,0-.17,0-.25,0,.08,0,.17,0,.25Z"/>
  <path class="cls-14" d="m109.6,78.12c0-.08,0-.17,0-.25,0,.08,0,.17,0,.25Z"/>
  <path class="cls-14" d="m109.6,78.62c0-.08,0-.17,0-.25,0,.08,0,.17,0,.25Z"/>
  <path class="cls-14" d="m109.6,48.62c0-.08,0-.17,0-.25,0,.08,0,.17,0,.25Z"/>
  <path class="cls-14" d="m109.6,79.62c0-.08,0-.17,0-.25,0,.08,0,.17,0,.25Z"/>
  <path class="cls-14" d="m109.6,80.12c0-.08,0-.17,0-.25,0,.08,0,.17,0,.25Z"/>
  <path class="cls-14" d="m109.6,80.62c0-.08,0-.17,0-.25,0,.08,0,.17,0,.25Z"/>
  <path class="cls-14" d="m109.6,81.12c0-.08,0-.17,0-.25,0,.08,0,.17,0,.25Z"/>
  <path class="cls-14" d="m109.6,81.62c0-.08,0-.17,0-.25,0,.08,0,.17,0,.25Z"/>
  <path class="cls-14" d="m109.6,82.12c0-.08,0-.17,0-.25,0,.08,0,.17,0,.25Z"/>
  <path class="cls-14" d="m109.6,82.62c0-.08,0-.17,0-.25,0,.08,0,.17,0,.25Z"/>
  <path class="cls-14" d="m109.6,83.12c0-.08,0-.17,0-.25,0,.08,0,.17,0,.25Z"/>
  <path class="cls-14" d="m109.6,83.62c0-.08,0-.17,0-.25,0,.08,0,.17,0,.25Z"/>
  <path class="cls-14" d="m109.6,84.12c0-.08,0-.17,0-.25,0,.08,0,.17,0,.25Z"/>
  <path class="cls-14" d="m109.6,84.62c0-.08,0-.17,0-.25,0,.08,0,.17,0,.25Z"/>
  <path class="cls-14" d="m109.6,85.12c0-.08,0-.17,0-.25,0,.08,0,.17,0,.25Z"/>
  <path class="cls-14" d="m109.6,85.62c0-.08,0-.17,0-.25,0,.08,0,.17,0,.25Z"/>
  <path class="cls-14" d="m109.6,86.12c0-.08,0-.17,0-.25,0,.08,0,.17,0,.25Z"/>
  <path class="cls-14" d="m109.6,86.62c0-.08,0-.17,0-.25,0,.08,0,.17,0,.25Z"/>
  <path class="cls-14" d="m109.6,87.12c0-.08,0-.17,0-.25,0,.08,0,.17,0,.25Z"/>
  <path class="cls-14" d="m109.6,87.62c0-.08,0-.17,0-.25,0,.08,0,.17,0,.25Z"/>
  <path class="cls-14" d="m109.6,88.12c0-.08,0-.17,0-.25,0,.08,0,.17,0,.25Z"/>
  <path class="cls-14" d="m109.6,88.62c0-.08,0-.17,0-.25,0,.08,0,.17,0,.25Z"/>
  <path class="cls-14" d="m109.6,89.12c0-.08,0-.17,0-.25,0,.08,0,.17,0,.25Z"/>
  <path class="cls-14" d="m109.6,89.62c0-.08,0-.17,0-.25,0,.08,0,.17,0,.25Z"/>
  <path class="cls-14" d="m109.6,90.12c0-.08,0-.17,0-.25,0,.08,0,.17,0,.25Z"/>
  <path class="cls-14" d="m109.6,90.62c0-.08,0-.17,0-.25,0,.08,0,.17,0,.25Z"/>
  <path class="cls-14" d="m109.6,91.12c0-.08,0-.17,0-.25,0,.08,0,.17,0,.25Z"/>
  <path class="cls-14" d="m109.6,91.62c0-.08,0-.17,0-.25,0,.08,0,.17,0,.25Z"/>
  <path class="cls-14" d="m109.6,92.12c0-.08,0-.17,0-.25,0,.08,0,.17,0,.25Z"/>
  <path class="cls-14" d="m109.6,92.62c0-.08,0-.17,0-.25,0,.08,0,.17,0,.25Z"/>
  <path class="cls-14" d="m109.6,93.12c0-.08,0-.17,0-.25,0,.08,0,.17,0,.25Z"/>
  <path class="cls-14" d="m109.6,93.62c0-.08,0-.17,0-.25,0,.08,0,.17,0,.25Z"/>
  <path class="cls-14" d="m109.6,94.12c0-.08,0-.17,0-.25,0,.08,0,.17,0,.25Z"/>
  <path class="cls-14" d="m109.6,94.62c0-.08,0-.17,0-.25,0,.08,0,.17,0,.25Z"/>
  <path class="cls-14" d="m109.6,95.12c0-.08,0-.17,0-.25,0,.08,0,.17,0,.25Z"/>
  <path class="cls-14" d="m109.6,95.62c0-.08,0-.17,0-.25,0,.08,0,.17,0,.25Z"/>
  <path class="cls-14" d="m109.6,96.12c0-.08,0-.17,0-.25,0,.08,0,.17,0,.25Z"/>
  <path class="cls-14" d="m109.6,96.62c0-.08,0-.17,0-.25,0,.08,0,.17,0,.25Z"/>
  <path class="cls-14" d="m109.6,97.12c0-.08,0-.17,0-.25,0,.08,0,.17,0,.25Z"/>
  <path class="cls-14" d="m109.6,97.62c0-.08,0-.17,0-.25,0,.08,0,.17,0,.25Z"/>
  <path class="cls-14" d="m109.6,98.12c0-.08,0-.17,0-.25,0,.08,0,.17,0,.25Z"/>
  <path class="cls-14" d="m109.6,98.62c0-.08,0-.17,0-.25,0,.08,0,.17,0,.25Z"/>
  <path class="cls-14" d="m109.6,99.12c0-.08,0-.17,0-.25,0,.08,0,.17,0,.25Z"/>
  <path class="cls-14" d="m109.6,99.62c0-.08,0-.17,0-.25,0,.08,0,.17,0,.25Z"/>
  <path class="cls-14" d="m109.6,100.12c0-.08,0-.17,0-.25,0,.08,0,.17,0,.25Z"/>
  <path class="cls-14" d="m109.6,79.12c0-.08,0-.17,0-.25,0,.08,0,.17,0,.25Z"/>
  <path class="cls-6" d="m280.14,66.22s.08.02.12.03c-.04,0-.08-.02-.12-.03Z"/>
  <path class="cls-14" d="m109.59,102s-.03-.06-.04-.09c0,0,.03-.02.04-.03,0,.04,0,.08,0,.12Z"/>
  <path class="cls-22" d="m109.6,102.51s-.03-.06-.04-.1c0,0,.03-.03.04-.04,0,.05,0,.09,0,.14Z"/>
  <path class="cls-22" d="m109.59,103.01s-.03-.06-.04-.1c0,0,.03-.03.04-.04,0,.05,0,.09,0,.14Z"/>
  <path class="cls-14" d="m109.6,60s-.03-.06-.04-.09c0,0,.03-.02.04-.04,0,.04,0,.08,0,.13Z"/>
  <path class="cls-14" d="m109.6,101.5s-.03-.06-.04-.09c0,0,.03-.02.04-.04,0,.04,0,.08,0,.13Z"/>
  <path class="cls-19" d="m268.77,114.71c-.06,0-.11-.02-.17-.03.06,0,.11.02.17.03Z"/>
  <path class="cls-17" d="m42.73,25.51s.04.08.05.11c-.02-.04-.04-.08-.05-.11Z"/>
  <path class="cls-10" d="m253.95,114.96c-.02.06-.03.12-.05.17.02-.06.03-.12.05-.17Z"/>
  <path class="cls-19" d="m157.27,122.21c-.06,0-.11-.01-.17-.02.06,0,.11.01.17.02Z"/>
  <path class="cls-14" d="m109.59,18.5s-.03-.06-.04-.09c0,0,.02-.02.04-.04,0,.04,0,.08,0,.12Z"/>
  <path class="cls-22" d="m109.59,18.01s-.03-.06-.04-.1c0,0,.03-.03.04-.04,0,.05,0,.09,0,.14Z"/>
  <path class="cls-19" d="m125.78,3.38s.02.05.03.08c0,0-.02.02-.04.03-.02-.04-.02-.07,0-.1Z"/>
  <path class="cls-19" d="m125.86,2.88s-.01.08-.02.11c0-.03-.02-.06-.02-.08,0-.01.02-.02.03-.03Z"/>
  <path class="cls-1" d="m163.32,131.08c.06,0,.12.01.19.02-.06,0-.12-.01-.19-.02Z"/>
  <path class="cls-17" d="m42.79,27.25s.03.06.04.09c0,0-.03.02-.04.04,0-.04,0-.08,0-.13Z"/>
  <path class="cls-6" d="m255,40.1s-.09,0-.13,0c.04,0,.09,0,.13,0Z"/>
  <path class="cls-6" d="m255.5,40.1s-.09,0-.13,0c.04,0,.09,0,.13,0Z"/>
  <path class="cls-6" d="m256,40.1s-.09,0-.13,0c.04,0,.09,0,.13,0Z"/>
  <path class="cls-6" d="m257.5,40.1s-.09,0-.13,0c.04,0,.09,0,.13,0Z"/>
  <path class="cls-6" d="m257,40.1s-.09,0-.13,0c.04,0,.09,0,.13,0Z"/>
  <path class="cls-6" d="m256.5,40.1s-.09,0-.13,0c.04,0,.09,0,.13,0Z"/>
  <path class="cls-6" d="m279,40.1s-.09,0-.13,0c.04,0,.09,0,.13,0Z"/>
  <path class="cls-6" d="m278.5,40.1s-.09,0-.13,0c.04,0,.09,0,.13,0Z"/>
  <path class="cls-6" d="m278,40.1s-.09,0-.13,0c.04,0,.09,0,.13,0Z"/>
  <path class="cls-6" d="m277.5,40.1s-.09,0-.13,0c.04,0,.09,0,.13,0Z"/>
  <path class="cls-6" d="m277,40.1s-.09,0-.13,0c.04,0,.09,0,.13,0Z"/>
  <path class="cls-6" d="m276.5,40.1s-.09,0-.13,0c.04,0,.09,0,.13,0Z"/>
  <path class="cls-6" d="m276,40.1s-.09,0-.13,0c.04,0,.09,0,.13,0Z"/>
  <path class="cls-6" d="m275.5,40.1s-.09,0-.13,0c.04,0,.09,0,.13,0Z"/>
  <path class="cls-6" d="m274.5,40.1s-.09,0-.13,0c.04,0,.09,0,.13,0Z"/>
  <path class="cls-6" d="m274,40.1s-.09,0-.13,0c.04,0,.09,0,.13,0Z"/>
  <path class="cls-6" d="m273.5,40.1s-.09,0-.13,0c.04,0,.09,0,.13,0Z"/>
  <path class="cls-6" d="m273,40.1s-.09,0-.13,0c.04,0,.09,0,.13,0Z"/>
  <path class="cls-6" d="m272.5,40.1s-.09,0-.13,0c.04,0,.09,0,.13,0Z"/>
  <path class="cls-6" d="m272,40.1s-.09,0-.13,0c.04,0,.09,0,.13,0Z"/>
  <path class="cls-6" d="m271.5,40.1s-.09,0-.13,0c.04,0,.09,0,.13,0Z"/>
  <path class="cls-6" d="m271,40.1s-.09,0-.13,0c.04,0,.09,0,.13,0Z"/>
  <path class="cls-6" d="m270.5,40.1s-.09,0-.13,0c.04,0,.09,0,.13,0Z"/>
  <path class="cls-6" d="m270,40.1s-.09,0-.13,0c.04,0,.09,0,.13,0Z"/>
  <path class="cls-6" d="m269.5,40.1s-.09,0-.13,0c.04,0,.09,0,.13,0Z"/>
  <path class="cls-6" d="m254.5,40.1s-.09,0-.13,0c.04,0,.09,0,.13,0Z"/>
  <path class="cls-6" d="m269,40.1s-.09,0-.13,0c.04,0,.09,0,.13,0Z"/>
  <path class="cls-6" d="m268.5,40.1s-.09,0-.13,0c.04,0,.09,0,.13,0Z"/>
  <path class="cls-6" d="m254,40.1s-.09,0-.13,0c.04,0,.09,0,.13,0Z"/>
  <path class="cls-6" d="m268,40.1s-.09,0-.13,0c.04,0,.09,0,.13,0Z"/>
  <path class="cls-6" d="m267.5,40.1s-.09,0-.13,0c.04,0,.09,0,.13,0Z"/>
  <path class="cls-6" d="m267,40.1s-.09,0-.13,0c.04,0,.09,0,.13,0Z"/>
  <path class="cls-6" d="m266.5,40.1s-.09,0-.13,0c.04,0,.09,0,.13,0Z"/>
  <path class="cls-6" d="m266,40.1s-.09,0-.13,0c.04,0,.09,0,.13,0Z"/>
  <path class="cls-6" d="m265.5,40.1s-.09,0-.13,0c.04,0,.09,0,.13,0Z"/>
  <path class="cls-6" d="m253.5,40.1s-.09,0-.13,0c.04,0,.09,0,.13,0Z"/>
  <path class="cls-6" d="m253,40.1s-.09,0-.13,0c.04,0,.09,0,.13,0Z"/>
  <path class="cls-6" d="m252.5,40.1s-.09,0-.13,0c.04,0,.09,0,.13,0Z"/>
  <path class="cls-6" d="m252,40.1s-.09,0-.13,0c.04,0,.09,0,.13,0Z"/>
  <path class="cls-6" d="m251.5,40.1s-.09,0-.13,0c.04,0,.09,0,.13,0Z"/>
  <path class="cls-6" d="m251,40.11s-.09,0-.13,0c.04,0,.09,0,.13,0Z"/>
  <path class="cls-6" d="m250.5,40.11s-.09,0-.13,0c.04,0,.09,0,.13,0Z"/>
  <path class="cls-6" d="m258,40.1s-.09,0-.13,0c.04,0,.09,0,.13,0Z"/>
  <path class="cls-6" d="m265,40.1s-.09,0-.13,0c.04,0,.09,0,.13,0Z"/>
  <path class="cls-6" d="m264.5,40.1s-.09,0-.13,0c.04,0,.09,0,.13,0Z"/>
  <path class="cls-6" d="m264,40.1s-.09,0-.13,0c.04,0,.09,0,.13,0Z"/>
  <path class="cls-6" d="m263.5,40.1s-.09,0-.13,0c.04,0,.09,0,.13,0Z"/>
  <path class="cls-6" d="m263,40.1s-.09,0-.13,0c.04,0,.09,0,.13,0Z"/>
  <path class="cls-6" d="m262.5,40.1s-.09,0-.13,0c.04,0,.09,0,.13,0Z"/>
  <path class="cls-6" d="m262,40.1s-.09,0-.13,0c.04,0,.09,0,.13,0Z"/>
  <path class="cls-6" d="m261.5,40.1s-.09,0-.13,0c.04,0,.09,0,.13,0Z"/>
  <path class="cls-6" d="m261,40.1s-.09,0-.13,0c.04,0,.09,0,.13,0Z"/>
  <path class="cls-6" d="m260.5,40.1s-.09,0-.13,0c.04,0,.09,0,.13,0Z"/>
  <path class="cls-6" d="m260,40.1s-.09,0-.13,0c.04,0,.09,0,.13,0Z"/>
  <path class="cls-6" d="m259.5,40.1s-.09,0-.13,0c.04,0,.09,0,.13,0Z"/>
  <path class="cls-6" d="m259,40.1s-.09,0-.13,0c.04,0,.09,0,.13,0Z"/>
  <path class="cls-6" d="m258.5,40.1s-.09,0-.13,0c.04,0,.09,0,.13,0Z"/>
  <path class="cls-6" d="m275,40.1s-.09,0-.13,0c.04,0,.09,0,.13,0Z"/>
  <path class="cls-15" d="m10.77,119c.04-.06.08-.12.12-.18-.04.06-.08.12-.12.18Z"/>
  <path class="cls-17" d="m.28,3.73c.07.13.2.26.21.4.03.31.01.62.01.94,0,32.67,0,65.34,0,98,0,.4-.14.8-.21,1.19,0-.94-.02-1.87-.02-2.81,0-32.34,0-64.69,0-97.03,0-.23.02-.46.02-.69Z"/>
  <path class="cls-17" d="m.27,3.11c0,.09,0,.18,0,.27,0-.09,0-.18,0-.27Z"/>
  <polygon class="cls-1" points=".16 116.78 .18 116.82 .14 116.82 .16 116.78"/>
  <path class="cls-16" d="m308.5.48s-.09,0-.13-.01c.04,0,.09,0,.13.01Z"/>
  <path class="cls-5" d="m310.68,2.65c-.02-.05-.04-.1-.06-.15.02.05.04.1.06.15Z"/>
  <path class="cls-21" d="m310.64,128.87s0-.08.01-.12c.01.03.03.06.03.09,0,0-.03.02-.04.03Z"/>
  <path class="cls-18" d="m2.76.46c-.09,0-.18,0-.27,0,.05-.05.09-.11.14-.16.04.06.09.12.13.17Z"/>
  <path class="cls-3" d="m80.45,122.48h-5.42v-3.89h5.42v3.89Z"/>
  <path class="cls-3" d="m135.91,118.63v3.83h-5.37v-3.95h5.31s.04.08.06.12Z"/>
  <path class="cls-10" d="m135.91,118.63s-.04-.08-.06-.12c.02.04.04.08.06.12Z"/>
  <path class="cls-3" d="m25.4,122.45v-3.9h5.33v3.9h-5.33Z"/>
  <path class="cls-3" d="m229.72,118.55v3.91h-5.33v-3.91h5.33Z"/>
  <path class="cls-3" d="m62.96,126.98h-5.3c-.02-.17-.05-.32-.05-.48,0-2.39.02-4.78.02-7.17,0-.43.11-.58.56-.57,1.58.03,3.15.01,4.78.01v8.21Z"/>
</svg>