<?xml version="1.0" encoding="UTF-8"?>
<svg id="Layer_1" data-name="Layer 1" xmlns="http://www.w3.org/2000/svg" viewBox="0 0 535.92 276.96">
  <defs>
    <style>
      .cls-1 {
        fill: #555;
      }

      .cls-2 {
        fill: #fff;
      }

      .cls-3 {
        fill: #fcfdfd;
      }

      .cls-4 {
        fill: silver;
      }

      .cls-5 {
        fill: #38c197;
      }

      .cls-6 {
        fill: #157145;
      }

      .cls-7 {
        fill: #f9fcfc;
      }

      .cls-8 {
        fill: #2f7274;
      }

      .cls-9 {
        fill: #357779;
      }

      .cls-10 {
        fill: #3fc39b;
      }

      .cls-11 {
        fill: #636363;
      }

      .cls-12 {
        fill: #136f44;
      }

      .cls-13 {
        fill: #545454;
      }

      .cls-14 {
        fill: #1e987c;
      }

      .cls-15 {
        fill: #f6faf8;
      }

      .cls-16 {
        fill: #fefefe;
      }

      .cls-17 {
        fill: #ededed;
      }
    </style>
  </defs>
  <path class="cls-2" d="m0,276.96V0c178.64,0,357.28,0,535.92,0v276.96H0ZM204.39,70.26c-.08.08-.16.17-.24.25-.18.15-.36.3-.54.45-2.31,2.37-4.72,4.66-6.9,7.14-4.21,4.79-7.82,10-10.22,15.96-1.83,4.55-2.81,9.22-1.8,14.15.81,3.94,2.89,7.13,5.58,10.01-.02.12-.05.25-.07.37-3.91-.37-7.75-.02-11.5,1.17-.1-.16-.23-.32-.29-.5-2.32-7.7-8.05-11.99-15.03-15.04-.07,0-.15,0-.22.01l.18.35c.57,2.03,1.32,4.03,1.66,6.1.92,5.64-.26,11.04-2.24,16.3-2.27,6.04-5.56,11.57-8.8,17.11-3.45,5.93-4.17,12.22-2.69,18.84.79,3.53,2.29,6.78,3.96,9.97-5.63,5.61-11.32,11.17-16.87,16.85-3.21,3.29-3.13,8.2-.03,11.59.81.88,1.68,1.71,2.53,2.56,3.96,3.94,8.97,3.95,12.92.01,3.99-3.98,7.98-7.96,11.95-11.95,1.79-1.8,3.55-3.65,5.38-5.55,9.82,2.8,16.96,3.46,25.55,2.04,8.9-1.47,15.96-5.8,20.5-13.8,1.62-3.41,3.59-6.7,4.81-10.25,4.39-12.75,3.39-25.05-3.7-36.69-1.43-2.35-2.82-4.73-4.14-7.15-5-9.18-9.36-18.61-11.51-28.91-1.46-6.99-1.8-13.94,1.36-20.64.05-.17.09-.34.14-.51.09-.08.17-.15.26-.23.02-.03.04-.07.05-.1-.02.03-.04.07-.06.1Zm98.11,114.61c.06-.08.13-.15.19-.23.01-.2.03-.4.03-.6,0-16.98,0-33.97,0-50.95,0-.27-.04-.54-.06-.84h-13.33v52.61h13.16Zm-39.65-36.9l.37,1.18c.23,2.25.65,4.51.67,6.76.08,9.22.03,18.45.03,27.67,0,.42,0,.85,0,1.27h13.46c.03-.34.07-.62.07-.89,0-10.54.04-21.08-.03-31.62-.02-2.42-.4-4.84-.61-7.26-.03-.26-.07-.51-.1-.77-.12-.62-.21-1.25-.37-1.86-1.39-5.14-4.12-9.06-9.58-10.5l-.69-.14c-.57-.1-1.14-.21-1.71-.31-.32-.02-.64-.04-.96-.06-4.13-.34-8.14.15-11.99,1.7-.38.18-.76.37-1.14.55-1.15.6-2.29,1.2-3.44,1.79-.23.16-.47.32-.7.48-.58.47-1.16.94-1.74,1.42-.47.47-.93.94-1.4,1.4-.23.26-.45.53-.68.79-.17.22-.34.45-.51.67-.35.44-.71.88-1.26,1.56v-9.54h-12.15v1.48c0,13.89,0,27.79,0,41.68,0,3.07.02,6.15.03,9.22l.19.23h13.26v-1.46c0-9.14-.02-18.27.03-27.41,0-1.17.37-2.33.56-3.49.27-.56.54-1.11.82-1.67.15-.24.3-.48.46-.73.24-.32.47-.64.71-.96.19-.23.38-.46.58-.69.54-.54,1.08-1.07,1.62-1.61.23-.19.46-.38.69-.58.24-.18.48-.35.72-.53.89-.51,1.78-1.01,2.68-1.52.29-.16.58-.31.86-.47,2.23-.47,4.46-.95,6.73-.21.17.06.33.11.5.17.41.22.81.43,1.22.65.57.55,1.14,1.1,1.72,1.65.37.65.74,1.3,1.11,1.95Zm-178.66-9.37c.19.3.39.59.55.91,5.68,10.81,11.35,21.61,17,32.43.38.72.78,1.04,1.64,1.01,1.84-.08,3.68-.07,5.52,0,.89.03,1.32-.27,1.73-1.05,5.64-10.83,11.32-21.63,17-32.44.17-.33.38-.64.56-.96.08.02.15.04.23.06v46.29h13.76v-71.4c-4.55,0-9.02.04-13.49-.03-.96-.01-1.39.34-1.81,1.13-5.28,10.12-10.58,20.22-15.88,30.32-1.59,3.03-3.2,6.06-4.87,9.24-.33-.62-.59-1.1-.84-1.59-6.52-12.53-13.05-25.05-19.52-37.6-.57-1.11-1.17-1.54-2.43-1.51-4,.09-7.99.03-11.99.03-.39,0-.78,0-1.21,0v71.38h13.83v-1.4c0-10.63,0-21.26,0-31.89,0-4.24.02-8.47.03-12.71.06-.08.13-.16.19-.23Zm313.59,8.38c.66-.42,1.19-.77,1.73-1.11,5.34-3.33,10.98-5.44,17.45-4.67,4.46.54,7.71,2.9,8.65,6.9.45,1.94.42,4,.62,6.12-.44-.07-.6-.08-.74-.13-6.76-2.27-13.64-2.53-20.54-.85-5,1.22-9.27,3.67-12.08,8.18-4.19,6.75-2.76,18.4,8.12,22.95,8.54,3.57,19.55.82,26.04-6.43.28-.32.58-.63,1.02-1.1.13.9.24,1.59.34,2.28.44,3.03,2.56,5.42,5.48,6.14,3,.73,5.94.15,8.87-.36v-10.93c-2.42-.61-2.91-1.19-3.13-3.63-.05-.56-.05-1.12-.05-1.68-.03-6.03.08-12.07-.11-18.1-.28-8.74-5.61-15.65-14.02-17.95-11.29-3.09-21.82-.96-31.61,5.27-.12.08-.2.23-.3.36,1.42,2.89,2.82,5.76,4.27,8.72Zm-34.59-2.21c-5.56-10.93-18.03-15.79-31.76-12.53-12.61,2.99-20.46,14.4-19.8,28.19.6,12.6,10.02,23.19,22.56,25.1,15.44,2.35,25.65-5.3,29.17-13.3-3.78-1.15-7.56-2.26-11.31-3.48-1.19-.39-2.06-.55-2.64.85-.22.52-.73.94-1.16,1.35-5.37,5.12-14.04,4.59-18.89-1.18-3.66-4.36-4.49-9.46-3.55-14.87,1-5.8,4.09-10.13,9.98-11.66,5.61-1.45,10.42.09,13.92,4.97.17.24.69.46.95.38,4.16-1.24,8.31-2.52,12.53-3.82Zm89.05-12.54v52.61h13.31v-52.61h-13.31Zm-162.93-20.72v13.28h13.32v-13.28h-13.32Zm162.93,0v13.29h13.31v-13.29h-13.31Zm-80.83,73.33h10.98v-14.28h-10.98v14.28Z"/>
  <path class="cls-13" d="m84.01,138.84c-.01,4.24-.03,8.47-.03,12.71,0,10.63,0,21.26,0,31.89v1.4h-13.83v-71.38c.44,0,.83,0,1.21,0,4,0,8,.06,11.99-.03,1.26-.03,1.86.4,2.43,1.51,6.47,12.55,13,25.07,19.52,37.6.25.49.51.97.84,1.59,1.67-3.18,3.28-6.21,4.87-9.24,5.3-10.1,10.61-20.2,15.88-30.32.41-.79.84-1.15,1.81-1.13,4.47.07,8.94.03,13.49.03v71.4h-13.76v-46.29c-.08-.02-.15-.04-.23-.06-.19.32-.39.63-.56.96-5.67,10.81-11.36,21.61-17,32.44-.41.79-.85,1.09-1.73,1.05-1.84-.07-3.68-.07-5.52,0-.85.04-1.26-.29-1.64-1.01-5.65-10.82-11.33-21.63-17-32.43-.16-.31-.37-.6-.55-.91-.04-.08-.09-.17-.13-.25-.02.16-.04.32-.06.49Z"/>
  <path class="cls-13" d="m397.79,146.99c-1.45-2.96-2.85-5.83-4.27-8.72.1-.13.18-.28.3-.36,9.79-6.22,20.32-8.35,31.61-5.27,8.41,2.3,13.74,9.21,14.02,17.95.19,6.03.08,12.07.11,18.1,0,.56,0,1.12.05,1.68.22,2.44.71,3.02,3.13,3.63v10.93c-2.93.51-5.87,1.09-8.87.36-2.92-.71-5.04-3.11-5.48-6.14-.1-.69-.21-1.39-.34-2.28-.44.47-.74.78-1.02,1.1-6.49,7.26-17.49,10-26.04,6.43-10.88-4.55-12.31-16.2-8.12-22.95,2.81-4.51,7.08-6.97,12.08-8.18,6.9-1.68,13.77-1.42,20.54.85.14.05.3.05.74.13-.2-2.11-.16-4.17-.62-6.12-.94-4-4.18-6.37-8.65-6.9-6.46-.78-12.11,1.33-17.45,4.67-.54.34-1.07.69-1.73,1.11Zm28.28,18.52c0-.98-.07-1.67.02-2.34.12-.9-.3-1.26-1.09-1.52-3.36-1.12-6.79-1.78-10.34-1.66-2.5.09-4.91.58-7.1,1.86-1.86,1.08-3.31,2.51-3.81,4.69-.98,4.17,1.77,8.23,6.28,9.22,3.8.83,7.39.1,10.75-1.75,3.45-1.89,5.83-4.49,5.3-8.5Z"/>
  <path class="cls-13" d="m250.72,144.23c-.89.51-1.78,1.01-2.68,1.52-.11-.11-.23-.23-.34-.34-.12.29-.25.58-.37.87-.23.19-.46.38-.69.58-.13-.16-.26-.33-.38-.49-.57.57-1.15,1.14-1.72,1.71.16.13.32.26.48.39-.19.23-.38.46-.58.69-.61.05-1.27.06-.71.96l-.46.73c-.38.25-.82.44-1.09.78-.11.13.17.58.27.89-.2,1.16-.56,2.33-.56,3.49-.05,9.14-.03,18.27-.03,27.41v1.46h-13.26l-.19-.23c-.01-3.07-.03-6.15-.03-9.22,0-13.89,0-27.79,0-41.68v-1.48h12.15v9.54c.55-.68.9-1.12,1.26-1.56.1.13.21.27.31.4.07-.36.14-.72.2-1.07.23-.26.45-.53.68-.79.09.15.19.43.27.43.6-.02,1.28-1.15,1.12-1.83.58-.47,1.16-.94,1.74-1.42.24.03.48.06.72.09,0-.19-.01-.38-.02-.57,1.15-.6,2.29-1.2,3.44-1.79.54.14,1.12.36,1.14-.56,3.86-1.55,7.87-2.04,11.99-1.7.2.22.41.44.61.67.12-.2.23-.4.35-.6.57.1,1.14.21,1.71.31.11.17.22.35.33.52.12-.13.24-.25.36-.38,5.46,1.44,8.19,5.36,9.58,10.5.17.61.25,1.24.37,1.86-.48.32-.5.59.1.77.21,2.42.6,4.84.61,7.26.07,10.54.03,21.08.03,31.62,0,.27-.04.55-.07.89h-13.46c0-.42,0-.84,0-1.27,0-9.22.04-18.45-.03-27.67-.02-2.26-.44-4.51-.67-6.76.62-.65.55-.86-.37-1.18-.37-.65-.74-1.3-1.11-1.95-.08-.49,0-1.15-.29-1.43-.28-.27-.93-.16-1.42-.21-.41-.22-.81-.43-1.22-.65-.07-.15-.14-.3-.2-.45-.1.09-.2.18-.3.28-2.27-.74-4.5-.26-6.73.21-.29.15-.58.31-.86.47Z"/>
  <path class="cls-1" d="m363.2,144.78c-4.22,1.3-8.37,2.58-12.53,3.82-.26.08-.78-.14-.95-.38-3.5-4.88-8.31-6.42-13.92-4.97-5.89,1.53-8.98,5.86-9.98,11.66-.94,5.41-.11,10.51,3.55,14.87,4.84,5.76,13.51,6.3,18.89,1.18.43-.41.95-.83,1.16-1.35.58-1.4,1.45-1.24,2.64-.85,3.75,1.22,7.53,2.33,11.31,3.48-3.52,8-13.73,15.64-29.17,13.3-12.54-1.91-21.96-12.5-22.56-25.1-.66-13.79,7.19-25.2,19.8-28.19,13.74-3.26,26.21,1.6,31.76,12.53Z"/>
  <path class="cls-5" d="m190.28,118.22c-2.69-2.87-4.77-6.07-5.58-10.01-1.01-4.93-.03-9.6,1.8-14.15,2.4-5.96,6.01-11.17,10.22-15.96,2.18-2.48,4.59-4.77,6.9-7.14.13.02.25.03.38.05-3.16,6.7-2.82,13.65-1.36,20.64,2.15,10.3,6.52,19.74,11.51,28.91,1.32,2.42,2.71,4.8,4.14,7.15,7.08,11.65,8.09,23.95,3.7,36.69-1.22,3.55-3.19,6.84-4.81,10.25.04-1.35.19-2.7.11-4.04-.27-4.63-.55-9.27-.98-13.89-.17-1.82-.76-3.61-1.16-5.41,0,0,.04.01.04.01-.06-.31-.13-.63-.19-.94-.23-1.05-.43-2.11-.69-3.15-1.1-4.44-3.39-8.23-6.32-11.68-.09-.1-.17-.21-.26-.31l.02.03c-.09-.09-.18-.18-.26-.27l.03.02c-.1-.09-.19-.17-.29-.26-.22-.22-.45-.44-.67-.66-.25-.47-.39-1.04-.75-1.39-3.58-3.39-7.2-6.75-10.81-10.11-1.43-1.32-2.87-2.62-4.31-3.94-.13-.15-.26-.3-.39-.46Z"/>
  <path class="cls-6" d="m215.14,151.31c.4,1.8.99,3.59,1.16,5.41.43,4.62.71,9.26.98,13.89.08,1.34-.07,2.69-.11,4.04-4.54,8-11.6,12.33-20.5,13.8-8.59,1.42-15.73.77-25.55-2.04-1.84,1.89-3.59,3.74-5.38,5.55-3.97,3.99-7.96,7.97-11.95,11.95-3.95,3.94-8.96,3.93-12.92-.01-.85-.85-1.72-1.67-2.53-2.56-3.1-3.39-3.18-8.31.03-11.59,5.56-5.69,11.24-11.24,16.87-16.85.27.32.54.63.69.81.39-3.21.6-6.56,1.26-9.82.57-2.81,1.65-5.51,2.51-8.26.09.83.17,1.67.28,2.5,1.6,12.22,11.51,22.31,24.32,23.75,11.9,1.34,23.37-4.97,28.47-16.08,2.11-4.62,2.7-9.48,2.38-14.49Zm-76.05,44.22c-.11.05-.21.1-.32.15.57,1.24.99,2.57,1.74,3.68.71,1.04,1.71,1.9,2.68,2.72,2.28,1.95,5.6,2.02,7.77-.06,4.04-3.87,7.99-7.83,11.87-11.86,2.15-2.24,2-5.64-.1-7.94-.73-.8-1.49-1.56-2.29-2.29-2.35-2.17-5.85-2.24-8.14,0-3.92,3.82-7.76,7.72-11.62,11.6-1.09,1.1-1.6,2.46-1.59,4.01Zm30.03-16.42c-2-1.93-3.97-3.83-5.78-5.59-.88.87-1.83,1.79-2.74,2.68,2.59,1.09,4.31,3.25,5.88,5.45.86-.83,1.71-1.65,2.64-2.55Z"/>
  <path class="cls-13" d="m452.25,132.24h13.31v52.61h-13.31v-52.61Z"/>
  <path class="cls-13" d="m302.5,184.87h-13.16v-52.61h13.33c.02.3.06.57.06.84,0,16.98,0,33.97,0,50.95,0,.2-.02.4-.03.6-.06.08-.13.15-.19.23Z"/>
  <path class="cls-8" d="m159.7,155.63c-.86,2.75-1.94,5.45-2.51,8.26-.66,3.26-.87,6.61-1.26,9.82-.15-.18-.42-.49-.69-.81-1.67-3.18-3.17-6.43-3.96-9.97-1.48-6.62-.76-12.91,2.69-18.84,3.23-5.55,6.52-11.07,8.8-17.11,1.98-5.26,3.16-10.66,2.24-16.3-.34-2.07-1.09-4.07-1.66-6.1.01-.12.03-.24.04-.36,6.98,3.04,12.71,7.34,15.03,15.04.05.18.19.33.29.5.08,1.46.26,2.92.22,4.38-.03,1.29-.3,2.58-.46,3.87-.37.16-.73.32-1.1.47-6.42,2.55-11.25,6.88-14.51,12.95-2.38,4.43-3.3,9.2-3.16,14.2Z"/>
  <path class="cls-13" d="m289.32,111.52h13.32v13.28h-13.32v-13.28Z"/>
  <path class="cls-13" d="m452.25,111.52h13.31v13.29h-13.31v-13.29Z"/>
  <path class="cls-13" d="m371.43,184.84v-14.28h10.98v14.28h-10.98Z"/>
  <path class="cls-14" d="m178.47,128.01c.16-1.29.43-2.58.46-3.87.04-1.46-.14-2.92-.22-4.38,3.75-1.19,7.59-1.54,11.5-1.17.15.03.3.06.46.08,1.44,1.31,2.89,2.61,4.31,3.94,3.61,3.36,7.23,6.71,10.81,10.11.36.34.51.92.75,1.39-3.23-2.87-6.83-5.09-11-6.33-5.72-1.71-11.41-1.52-17.08.23Z"/>
  <path class="cls-13" d="m245.02,148.46c-.16-.13-.32-.26-.48-.39.57-.57,1.15-1.14,1.72-1.71.13.16.26.33.38.49-.54.54-1.08,1.07-1.62,1.61Z"/>
  <path class="cls-13" d="m260.04,144.37c.49.06,1.15-.06,1.42.21.29.28.21.94.29,1.43-.57-.55-1.14-1.1-1.72-1.65Z"/>
  <path class="cls-13" d="m244.39,137.37c.15.68-.52,1.81-1.12,1.83-.09,0-.18-.28-.27-.43.47-.47.93-.94,1.4-1.4Z"/>
  <path class="cls-13" d="m242.47,152.51c-.1-.3-.38-.75-.27-.89.27-.34.72-.53,1.09-.78-.27.56-.54,1.11-.82,1.67Z"/>
  <path class="cls-13" d="m262.86,147.97c.92.32.98.53.37,1.18l-.37-1.18Z"/>
  <path class="cls-13" d="m264.36,131.49c-.12.2-.23.4-.35.6-.2-.22-.41-.44-.61-.67.32.02.64.04.96.06Z"/>
  <path class="cls-13" d="m242.31,139.57c-.07.36-.14.72-.2,1.07-.1-.13-.21-.27-.31-.4.17-.22.34-.45.51-.67Z"/>
  <path class="cls-13" d="m243.74,150.11c-.56-.91.1-.91.71-.96-.24.32-.47.64-.71.96Z"/>
  <path class="cls-13" d="m246.83,135.47c0,.19.01.38.02.57-.24-.03-.48-.06-.72-.09.23-.16.47-.32.7-.48Z"/>
  <path class="cls-13" d="m251.41,133.13c-.02.91-.6.69-1.14.56.38-.19.76-.37,1.14-.56Z"/>
  <path class="cls-13" d="m247.33,146.28c.12-.29.25-.58.37-.87.11.11.23.23.34.34-.24.18-.48.35-.72.53Z"/>
  <path class="cls-13" d="m276.82,145.07c-.6-.18-.58-.44-.1-.77.03.26.07.51.1.77Z"/>
  <path class="cls-13" d="m266.76,131.95c-.12.13-.24.25-.36.38-.11-.17-.22-.35-.33-.52.23.05.46.09.69.14Z"/>
  <path class="cls-13" d="m250.72,144.23c.29-.16.57-.31.86-.47-.29.16-.58.31-.86.47Z"/>
  <path class="cls-13" d="m258.31,143.55c.1-.09.2-.18.3-.28.07.15.14.3.2.45-.17-.06-.33-.11-.5-.17Z"/>
  <path class="cls-17" d="m84.01,138.84c.02-.16.04-.32.06-.49.04.08.09.17.13.25-.06.08-.13.16-.19.23Z"/>
  <path class="cls-4" d="m190.66,118.68c-.15-.03-.3-.06-.46-.08.02-.12.05-.25.07-.37.13.15.26.3.39.46Z"/>
  <path class="cls-10" d="m204,71c-.13-.02-.25-.03-.38-.05.18-.15.36-.3.54-.45,0,0-.02-.02-.02-.02-.05.17-.09.34-.14.51Z"/>
  <path class="cls-9" d="m163.39,104.23c-.01.12-.03.24-.04.36-.06-.12-.12-.23-.18-.35.07,0,.15,0,.22-.01Z"/>
  <path class="cls-10" d="m204.39,70.26c-.09.08-.17.15-.26.23,0,0,.02.02.02.02.08-.08.16-.17.24-.25h0Z"/>
  <path class="cls-7" d="m204.39,70.26s.04-.07.06-.1c-.02.03-.04.07-.05.1,0,0,0,0,0,0Z"/>
  <path class="cls-11" d="m228.43,184.64l.19.23-.19-.23Z"/>
  <path class="cls-11" d="m302.5,184.87c.06-.08.13-.15.19-.23-.06.08-.13.15-.19.23Z"/>
  <path class="cls-16" d="m426.07,165.51c.52,4.01-1.86,6.61-5.3,8.5-3.36,1.84-6.96,2.58-10.75,1.75-4.51-.99-7.26-5.05-6.28-9.22.51-2.17,1.96-3.6,3.81-4.69,2.19-1.28,4.61-1.78,7.1-1.86,3.55-.12,6.98.54,10.34,1.66.79.26,1.2.63,1.09,1.52-.09.67-.02,1.36-.02,2.34Z"/>
  <path class="cls-16" d="m178.47,128.01c5.67-1.75,11.35-1.94,17.08-.23,4.17,1.25,7.77,3.46,11,6.33.22.22.45.44.67.66.1.09.19.17.29.26,0,0-.03-.02-.03-.02.09.09.18.18.26.27,0,0-.02-.03-.02-.03.09.1.17.21.26.31,2.93,3.45,5.22,7.24,6.32,11.68.26,1.04.46,2.1.69,3.15.06.31.13.63.19.94,0,0-.04-.01-.04-.01.32,5.01-.26,9.87-2.38,14.49-5.09,11.11-16.57,17.42-28.47,16.08-12.82-1.44-22.73-11.53-24.32-23.75-.11-.83-.19-1.66-.28-2.5-.13-5,.79-9.77,3.16-14.2,3.26-6.07,8.09-10.4,14.51-12.95.37-.15.73-.31,1.1-.47Zm8.92,45.21c10.46.04,18.91-8.34,18.96-18.79.04-10.47-8.32-18.92-18.76-18.98-10.53-.06-18.99,8.33-19.01,18.85-.02,10.48,8.33,18.88,18.81,18.92Z"/>
  <path class="cls-6" d="m215.18,151.33c-.06-.31-.13-.63-.19-.94.06.31.13.63.19.94Z"/>
  <path class="cls-14" d="m207.98,135.55c-.09-.1-.17-.21-.26-.31.09.1.17.21.26.31Z"/>
  <path class="cls-14" d="m207.74,135.27c-.09-.09-.18-.18-.26-.27.09.09.18.18.26.27Z"/>
  <path class="cls-14" d="m207.51,135.03c-.1-.09-.19-.17-.29-.26.1.09.19.17.29.26Z"/>
  <path class="cls-16" d="m139.09,195.53c0-1.55.5-2.91,1.59-4.01,3.86-3.88,7.7-7.78,11.62-11.6,2.29-2.23,5.79-2.16,8.14,0,.79.73,1.56,1.49,2.29,2.29,2.11,2.3,2.25,5.71.1,7.94-3.87,4.03-7.83,7.99-11.87,11.86-2.17,2.08-5.49,2.01-7.77.06-.97-.83-1.98-1.69-2.68-2.72-.75-1.11-1.17-2.45-1.74-3.68.11-.05.21-.1.32-.15Z"/>
  <path class="cls-15" d="m169.12,179.11c-.93.9-1.78,1.72-2.64,2.55-1.58-2.2-3.3-4.36-5.88-5.45.91-.89,1.86-1.82,2.74-2.68,1.81,1.75,3.78,3.65,5.78,5.59Z"/>
  <path class="cls-12" d="m187.39,173.22c-10.48-.04-18.84-8.44-18.81-18.92.02-10.52,8.48-18.9,19.01-18.85,10.44.06,18.8,8.52,18.76,18.98-.04,10.45-8.5,18.83-18.96,18.79Zm8.84-16.59c2.28-.01,4.09-1.84,4.07-4.11-.02-2.24-1.9-4.1-4.14-4.07-2.27.02-4.06,1.85-4.04,4.14.01,2.3,1.8,4.06,4.11,4.04Z"/>
  <path class="cls-3" d="m196.23,156.63c-2.31.01-4.1-1.75-4.11-4.04-.01-2.29,1.78-4.12,4.04-4.14,2.24-.02,4.12,1.83,4.14,4.07.02,2.27-1.79,4.1-4.07,4.11Z"/>
</svg>