<?xml version="1.0" encoding="UTF-8"?>
<svg id="Layer_1" data-name="Layer 1" xmlns="http://www.w3.org/2000/svg" viewBox="0 0 681 211">
  <defs>
    <style>
      .cls-1 {
        fill: #8fb5d8;
      }

      .cls-2 {
        fill: #fcebdd;
      }

      .cls-3 {
        fill: #8990a5;
      }

      .cls-4 {
        fill: #f7f7fa;
      }

      .cls-5 {
        fill: #79abbe;
      }

      .cls-6 {
        fill: #1a2a52;
      }

      .cls-7 {
        fill: #ed5d29;
      }

      .cls-8 {
        fill: #f7cebd;
      }

      .cls-9 {
        fill: #fefeff;
      }

      .cls-10 {
        fill: #f1a791;
      }

      .cls-11 {
        fill: #f39b7b;
      }

      .cls-12 {
        fill: #cf371b;
      }

      .cls-13 {
        fill: #f7d8ca;
      }

      .cls-14 {
        fill: #1c2b4e;
      }

      .cls-15 {
        fill: #d6e9ed;
      }

      .cls-16 {
        fill: #e1e1e3;
      }

      .cls-17 {
        fill: #d1d3d7;
      }

      .cls-18 {
        fill: #192b52;
      }

      .cls-19 {
        fill: #bac2cd;
      }

      .cls-20 {
        fill: #f38a67;
      }

      .cls-21 {
        fill: #1b69b0;
      }

      .cls-22 {
        fill: #63738c;
      }

      .cls-23 {
        fill: #dd7058;
      }

      .cls-24 {
        fill: #fefaf8;
      }

      .cls-25 {
        fill: #f6c5b2;
      }

      .cls-26 {
        fill: #9fa9b7;
      }

      .cls-27 {
        fill: #475677;
      }
    </style>
  </defs>
  <path class="cls-9" d="m105.25,211H0c0-32.42,0-64.83,0-97.25V0c36.42,0,72.83,0,109.25,0,0,.35.02.69.02,1.04-5.23.93-9.53,3.58-13.25,7.26-5.69,5.64-9.54,12.45-12.52,19.8-3.83,9.44-6.27,19.26-7.8,29.32-1.34,8.81-2.11,17.67-2.17,26.57-.05,6.36.29,12.73.5,19.09.06,1.91.27,3.81.47,5.72.43,4.1,4.07,5.83,7.54,3.61,1.78-1.14,3.6-2.24,5.34-3.45,7.06-4.87,14.08-9.78,21.14-14.64,2.01-1.39,2.63-3.24,2.44-5.61-.54-6.8-1.11-13.59-1.39-20.4-.23-5.61-.06-11.24-.1-16.86-.05-6.69.76-13.28,2.31-19.77.98-4.12,2.8-7.82,6.07-10.68,2.87-2.51,6.22-2.68,9.22-.38,2.96,2.27,5.12,5.25,6.86,8.49,2.76,5.14,4.75,10.62,6.4,16.22.26.88.38,1.83.83,2.6.32.55,1.07.84,1.63,1.25.34-.56.79-1.09.98-1.7.15-.49.02-1.08-.07-1.61-.55-3.4-1.07-6.81-1.71-10.2-1.3-6.93-3.13-13.7-6.42-19.99-4.09-7.81-9.98-13.35-19.07-14.7,0-.33,0-.66,0-.98h564.5v211h-238.5c.09-.24.17-.49.26-.73.08-.47.22-.95.23-1.42.03-1.88.01-3.76.01-5.77.73.35,1.23.63,1.76.86,3.07,1.31,6.56.2,8.2-2.72,1.7-3.04,1.89-6.3.66-9.51-1.74-4.54-7.27-5.16-9.89-2.72-.36-.18-.73-.36-1.09-.54-.19-.14-.37-.4-.56-.4-1.4-.03-2.8-.02-4.33-.02,0,7.32,0,14.52,0,21.71.07.18.13.35.2.53l.02.02c0,.24.01.47.02.71h-66.25c-.12-.17-.24-.34-.36-.51.12-.08.25-.15.37-.23,3.08-.67,4.66-2.21,4.98-5.23.24-2.26.23-4.56.25-6.84.04-3.36,0-6.71,0-10.18-1.31,0-2.51-.05-3.7.03-.3.02-.57.45-.85.69-.32.1-.65.2-.97.3-2.97-2.36-6.97-.87-8.64,1.11-2.12,2.51-2.5,7.09-.87,10.24,1.67,3.23,6.21,4.96,9.4,2.27.14-.12.32-.21.52-.33.37,2.99-.4,4.47-2.59,5.1-.11,0-.22.01-.32.02-1.36-.07-2.25-.86-2.96-1.94-.09-.04-.18-.09-.27-.13-1.24,0-2.48-.02-3.72-.03-.1.05-.2.09-.29.14-.04.25-.08.51-.12.76.04.1.07.2.11.31.39,1.85,1.62,2.91,3.33,3.51.08.03.17.06.25.09.33.06.67.12,1,.18-.01.23-.03.45-.04.68H110c-.08-.09-.17-.18-.25-.27.08-.16.17-.33.25-.49.16-.04.33-.07.49-.11.34-.04.68-.07,1.02-.11,3.49-.7,6.86-1.72,9.72-3.94,5.8-4.51,9.91-10.37,13.27-16.81,3.29-6.28,5.61-12.97,7.48-19.77,1.31-4.75,2.05-9.65,3.04-14.49.03-.03.07-.06.07-.09,0-.07-.03-.14-.05-.21.1-.72.2-1.45.3-2.17.04-.19.07-.37.11-.56.61-7.23,1.22-14.47,1.83-21.7l.02-.55c.01-.39.03-.79.04-1.18.02-.19.05-.38.07-.57.01-2.98.03-5.96.04-8.94,0-.1-.02-.2-.03-.31-.16-3.23-.31-6.46-.47-9.7,0-.1-.02-.2-.02-.3-.14-2.12-.23-4.24-.46-6.35-.1-.92-.36-1.9-.84-2.67-1.14-1.83-3.79-3.03-6.56-1.14-3.4,2.33-6.81,4.64-10.21,6.96-5.57,3.8-11.12,7.61-16.7,11.38-1.74,1.17-2.41,2.78-2.24,4.82.05.58.09,1.16.14,1.74.02.11.04.22.06.33.02.14.03.28.05.42.01.18.03.36.04.54.27,4.24.54,8.48.81,12.71,0,.1.02.21.03.31.65,9.47.47,18.95.03,28.42-.01.11-.02.22-.04.33-.19,1.9-.31,3.81-.57,5.7-.67,4.87-1.71,9.64-4.25,13.95-1.68,2.85-3.86,5.09-7.23,5.84-.09.01-.19.03-.28.04-.23.02-.47.04-.7.06-.1-.02-.2-.03-.31-.05-.41-.08-.82-.14-1.22-.26-2.9-.89-4.83-2.99-6.52-5.36-3.66-5.14-5.97-10.92-7.96-16.84-.72-2.12-1.35-4.28-2.09-6.39-.27-.79-.72-1.64-1.77-1.41-1.07.24-1.24,1.18-1.11,2.09,1.07,7.82,2.24,15.63,4.75,23.15,1.9,5.67,4.38,11.06,8.53,15.5,3.96,4.24,8.71,7.02,14.63,7.49.1.07.19.14.29.21,0,.24,0,.49,0,.73Zm453.02-6.69l.07-.03c.06-.08.12-.16.18-.24,0-2.78-.02-5.56.03-8.33.02-.94.19-1.9.43-2.81.27-1.02,1.09-1.56,2.11-1.67.96-.1,1.93-.06,2.46,1,.03.11.07.22.1.32.12,1.49.29,2.97.33,4.46.06,2.07.04,4.15,0,6.23-.02.77.27,1.04,1.01,1.03.83-.01,1.66.03,2.49.06.1.01.19.02.29.03.61-.02,1.26.1,1.24-.9-.06-3.31-.05-6.62-.07-9.93,0-.1-.02-.2-.03-.29-.04-.33-.1-.66-.13-.99-.19-2.13-1.13-3.85-3.24-4.41-2.4-.65-4.8-.58-6.59,1.61-1.01.25-.47-.78-.86-1.04-.21-.21-.41-.58-.63-.59-1.12-.07-2.24-.09-3.36-.01-.23.02-.6.53-.6.82-.03,4.9,0,9.8-.03,14.7,0,.77.3,1.02,1.03,1,1.16-.03,2.32,0,3.48.01.09,0,.18-.02.28-.02Zm-283-.01l.04-.02c.06-.09.13-.18.19-.27,0-.96-.03-1.91.01-2.87.04-.84-.22-1.21-1.13-1.16-1.2.07-2.41.02-3.62.02-1.65,0-3.29,0-5.1,0v-18.99h-5.4c-.04.16-.07.32-.11.48,0,7.25.01,14.51.02,21.76-.03.02-.08.05-.08.07.01.06.05.12.07.18.04,1.06.83.84,1.46.84,4.2,0,8.4-.02,12.6-.04.09,0,.18.01.28.02.16,0,.31.01.47.02l.28-.04Zm20.63-11.74l.05.06c.19.03.37.05.56.08,1,0,2.01.12,2.98-.02.55-.08,1.02-.62,1.55-.91.69-.37,1.4-.94,2.11-.96.45-.01,1.01.78,1.35,1.31.27.41.28.99.45,1.66-1.13,0-2.09-.1-3.03.02-4.1.5-6.31,2.3-6.8,5.44-.02.11-.03.22-.05.33.21,1.82.68,3.49,2.47,4.44,2.22,1.18,5.24.75,7.39-1.07l.5.09c.08.89.52,1.29,1.46,1.22.94-.07,1.89-.02,2.83-.02.01-.41.02-.82.04-1.23-.11-3.4-.25-6.8-.32-10.21-.05-2.49-1.25-4.23-3.59-4.75-1.81-.41-3.78-.44-5.64-.25-2.36.24-3.93,1.66-4.37,4.11.01.22.03.45.04.67Zm125.13,6.75c-.07.16-.15.31-.22.47.04.14.08.29.12.43-.02.03-.05.08-.04.1.02.07.07.13.11.2.38,1.67,1.43,2.78,2.96,3.47,2.19.99,4.45.98,6.72.38,2.72-.73,4.59-3.05,4.53-5.45-.05-1.98-1.73-3.64-4.48-4.41-.12-.03-.24-.06-.36-.1-1.04-.3-2.09-.56-3.11-.91-.74-.25-1.77-.62-1.42-1.53.22-.58,1.21-1.04,1.93-1.21.93-.22,1.79.15,2.25,1.16.12.25.45.57.69.58,1.23.06,2.47.03,3.81.03.02-1.64-.57-2.82-1.81-3.71-2.58-1.85-7.41-1.64-9.86.43-2.32,1.96-2.11,5.56.49,7.12.87.53,1.91.78,2.89,1.11.94.32,1.97.45,2.84.91.53.28,1.11,1,1.13,1.55.02.43-.74.93-1.21,1.35-.16.15-.47.13-.71.18-.09,0-.19,0-.28,0-.66-.31-1.61-.44-1.9-.96-.7-1.22-1.67-1.31-2.83-1.24-.66.04-1.33.03-1.99.04-.08,0-.16,0-.24,0Zm254.65,4.84c.11.01.23.03.34.04,2.45,0,3.69-.91,4.32-3.18.03-.47.05-.95.08-1.42-.43-2.8-2.14-3.97-4.87-3.47-1.79.33-2.7,1.44-3.21,3.04-.01.12-.02.23-.03.35,0,.32,0,.64,0,.96.04.19.08.38.12.57.44,1.71,1.49,2.78,3.25,3.1Zm-338.42.21c.25-.3.72-.6.72-.9.05-4.95.02-9.9.04-14.86,0-.64-.21-.92-.86-.9-1,.03-2,.04-3,.02-.68-.01-.95.24-.94.95.03,4.87.04,9.74.02,14.61,0,.78.3,1.03,1.03,1.01.75-.02,1.49.03,2.24.05.25,0,.5.01.75.02Zm79.52-.01c.39-.05.78-.1,1.23-.15,0-5.34,0-10.53-.03-15.72,0-.25-.36-.71-.57-.72-1.43-.06-2.87-.03-4.4-.03,0,5.38-.01,10.57.04,15.76,0,.26.51.69.83.74.86.12,1.74.08,2.61.11.1,0,.19.02.29.03Zm132.78-16.1c-.12-.16-.24-.44-.37-.45-1.41-.04-2.82-.07-4.23,0-.18,0-.47.53-.48.81-.02,4.9.01,9.81,0,14.71,0,.77.3,1.04,1.03,1,.95-.04,1.92-.1,2.87-.02.98.08,1.17-.31,1.17-1.21-.03-4.86,0-9.72.02-14.59.03-.02.08-.06.08-.07-.02-.06-.05-.12-.08-.18Zm-54.87,0c.02,4.03.02,8.07.07,12.1.01,1.27-.33,3.04.34,3.67.7.66,2.43.23,3.71.27.08,0,.2.03.24,0,.25-.24.7-.5.7-.76.04-5.03.03-10.06,0-15.09,0-.24-.33-.67-.5-.67-1.51.03-3.03.14-4.54.22-.03.02-.09.05-.09.07.01.07.05.13.07.2Zm8.25,6.42c-.03.11-.05.22-.08.33-.24,1.99.11,3.89.93,5.71,1.23,2.73,4.02,4.24,7.27,3.98,3.13-.25,5.12-1.9,5.98-4.93.01-.44.02-.88.03-1.32-.98-.08-1.97-.13-2.95-.24-1.12-.13-1.82.07-2.09,1.4-.12.61-.98,1.51-1.49,1.5-.63-.02-1.51-.71-1.8-1.34-1.06-2.22-.93-4.61-.46-6.95.2-.97.75-1.74,1.92-1.82,1.26-.08,1.4.9,1.8,1.7.21.41.62.98.99,1.01,1.31.12,2.64.05,3.94.05.25-2.36-1.11-4.52-3.31-5.46-4.52-1.93-10.21.33-10.69,6.38Zm25.82-2.2c.25,0,.5-.01.74-.02.25,0,.5,0,.75-.01.08,0,.17,0,.25,0,.42,0,.83,0,1.25,0,.12-.07.24-.15.35-.22.03-.15.06-.31.09-.46-.03-.13-.06-.26-.09-.39-.37-1.98-1.8-2.96-3.53-3.48-2.5-.75-5-.5-7.22.88-.85.53-1.68,1.46-2.03,2.39-1,2.65.22,4.85,3.06,5.84,1.45.51,2.95.87,4.4,1.37.65.23,1.52.59,1.2,1.45-.22.59-.89,1.1-1.48,1.44-.37.22-.96.08-1.45.1-.1-.03-.21-.06-.31-.09-.43-.42-.86-.85-1.3-1.27-.28-.27-.58-.71-.89-.73-1.27-.08-2.54-.03-3.83-.03-.15,1.6.29,2.78,1.36,3.73,2.98,2.65,8.86,2.34,11.53-.61,2-2.21,1.65-5.3-.87-6.88-.9-.56-1.98-.83-2.99-1.18-1.14-.39-2.32-.66-3.43-1.11-.39-.16-.86-.71-.85-1.08,0-.37.5-.84.89-1.06,1.2-.7,2.53-.25,3.36.94.19.27.68.34,1.03.5Zm78.92-6.49s-.08.06-.08.08c.02.07.05.13.08.19.02,5.47.04,10.95.06,16.42,0,1.6,0,1.59,1.64,1.61.7,0,1.41.05,2.11.08.11.02.23.03.34.05.32-.05.65-.1.97-.15.07-.09.13-.18.2-.27v-19.05h6.95v-3.89h-18.87v3.94c1.93,0,3.8.03,5.66-.01.76-.02,1.1.22.94,1Zm-150.85,14.48c.04.11.07.22.11.33.37,1.6,1.25,2.82,2.82,3.4,2.6.96,4.97.64,6.89-1.51,1.16,1.59,2.72,1.98,4.89,1.3-.1-1.26-.25-2.54-.29-3.83-.08-2.62-.1-5.24-.16-7.86-.04-1.81-.99-3.04-2.53-3.86-2.43-1.28-4.98-1.22-7.51-.48-1.78.52-3.03,1.68-3.45,3.59-.18.8.03,1.21.9,1.18,1-.03,2.01.04,2.99-.08.39-.05.75-.48,1.1-.76.52-.42.96-1.09,1.53-1.22.53-.12,1.38.18,1.73.59.41.48.58,1.3.54,1.94-.02.22-1.01.42-1.58.53-1.18.23-2.4.27-3.55.59-2.22.64-3.83,1.97-4.29,4.38-.04.1-.08.21-.12.31,0,.48-.01.97-.02,1.45Zm-110.25-12.29c-1.46-.9-2.99-.27-4.58-.38,0,5.13,0,10.08,0,15.04,0,.21-.08.48.02.61.23.3.53.71.85.76.86.12,1.74.08,2.62.11.1.01.19.02.29.03.98.12,1.28-.31,1.25-1.28-.07-2.41-.07-4.82,0-7.23.03-.94.22-1.9.51-2.8.42-1.28,1.56-1.96,2.67-1.78,1.25.2,1.99.97,2.05,2.42.13,3.15.19,6.31.22,9.47,0,.83.21,1.23,1.12,1.18,1.04-.07,2.08.03,3.11-.07.29-.03.79-.49.78-.74-.01-3.78.06-7.57-.21-11.34-.22-3.11-2.24-4.62-5.37-4.66-1.98-.02-3.48.91-4.91,2.1-.1-.2-.21-.4-.31-.6v-.49c-.04-.11-.08-.22-.11-.33Zm-54.55,9.44c.15,0,.31-.01.46-.02.09-.03.18-.06.28-.09,0-1.14.11-2.29-.05-3.4-.45-2.99-1.81-5.42-4.88-6.32-3.19-.94-6.13-.31-8.44,2.2-2.6,2.83-2.77,9.27-.32,12.25.66.8,1.59,1.51,2.55,1.91,2.22.93,4.55.89,6.84.19,1.71-.52,2.97-1.64,3.71-3.29.64-1.45.44-1.76-1.1-1.78-.46,0-.92.05-1.37-.02-1.08-.16-1.79.21-2.34,1.19-.55.98-1.52,1.23-2.6.96-1.6-.4-2.32-1.36-2.57-3.4.11-.16.23-.32.34-.47,3.07.02,6.14.05,9.21.07l.3.02Zm187.22,6.68c.32-.05.63-.1.95-.15.02-2.58-.02-5.16.07-7.74.04-1.15.24-2.32.55-3.43.31-1.11,1.56-1.83,2.62-1.73,1.24.13,1.96.8,2.05,2.25.16,2.45.22,4.9.25,7.36.04,3.4.01,3.4,3.35,3.42.25,0,.5,0,.75.02.67.06.98-.18.97-.91-.05-3.5-.04-7-.12-10.5-.03-1.57-.39-3.04-1.7-4.13-1.98-1.65-5.47-1.67-7.55-.02-.36.29-.76.52-1.47,1,.42-2.12-.76-2.02-1.91-1.98-.62.02-1.25.02-1.87,0-.67-.03-.95.22-.95.94.02,4.87.02,9.75,0,14.62,0,.79.32,1.03,1.03,1.02,1-.02,2-.02,3-.02Zm-154.91-16.07c0,.09,0,.18,0,.27-.01.18-.03.35-.04.53l-.54.02c-1.82-1.45-3.88-1.65-6.01-.96-3.06.98-4.5,3.37-4.9,6.34-.45,3.3-.27,6.57,2.69,8.85,2.5,1.92,5.69,1.63,8.5-.61.18.49.36.98.54,1.47h4.72v-23.06h-4.95v7.16Zm313.97,16.04c.07-.09.14-.17.21-.26,0-.83-.04-1.67.01-2.5.06-.96-.26-1.31-1.28-1.29-2.79.07-5.58.04-8.37-.02-.37,0-1.03-.41-1.04-.65-.09-1.73-.05-3.46-.05-5.25,2.41,0,4.69,0,6.97,0,2.91,0,2.88,0,2.79-2.96-.03-.88-.34-1.13-1.2-1.11-2.5.04-4.99.03-7.49-.03-.36,0-1-.35-1.01-.57-.09-1.52-.05-3.04-.05-4.65h1.46c2.66,0,5.33.02,7.99-.03.33,0,.92-.36.94-.59.1-1.1.04-2.2.04-3.29h-15.63c-.04.21-.09.33-.09.45-.02,7.24-.01,14.49-.06,21.73,0,.96.45,1.09,1.22,1.08,4.87-.04,9.74-.06,14.61-.08Zm-38.5-5.98c.03-.11.05-.21.08-.32.26-2.8-.64-4.58-3.11-5.82-1.03-.51-2.16-.83-3.27-1.18-1.42-.45-2.89-.77-4.28-1.31-1.14-.44-2.14-1.16-2.14-2.62.04-.11.09-.21.14-.32.77-1.86,2.54-2.71,4.75-2.27.09.02.18.03.27.05.56.47,1.56.89,1.61,1.4.19,2.22,1.61,1.99,3.09,1.85.41-.04.83-.04,1.25-.02.82.05,1.12-.3,1.04-1.12-.21-2.09-1.11-3.76-2.98-4.75-3.66-1.92-7.4-1.81-11,.04-2.35,1.21-3.51,3.33-3.47,6.04.04,2.55,1.42,4.18,3.61,5.22.9.43,1.84.76,2.78,1.07,1.46.48,2.94.88,4.4,1.36,1.12.37,1.83,1.12,1.9,2.36-.01.12-.02.23-.03.35-.69,1.89-2.17,2.71-4.65,2.59-.25-.06-.51-.12-.76-.17-1.62-.47-2.43-1.6-2.76-3.21-.06-.32-.59-.74-.93-.77-1.12-.09-2.24.01-3.37-.02-.79-.02-1.04.33-.95,1.06.3,2.57,1.24,4.83,3.74,5.92,4.02,1.75,8.03,1.55,11.85-.63,1.81-1.03,2.95-2.65,3.21-4.8Zm-191,5.97c.07-.09.13-.18.2-.27v-22.97h-5.2c-.04.08-.08.15-.12.23.03,2.52,0,5.05.1,7.57.04,1.05-.19,1.48-1.35,1.43-2.02-.09-4.05.01-6.08,0-.39,0-.77-.16-1.15-.25,0-.25,0-.51,0-.76,0-.41,0-.82,0-1.23,0-.09,0-.18,0-.27v-6.67h-5.2c0,7.52,0,14.96.04,22.4,0,.26.52.72.82.75,1.07.1,2.17-.02,3.24.06.98.08,1.2-.32,1.18-1.22-.06-2.58,0-5.16-.06-7.74-.02-.91.29-1.12,1.15-1.09,2,.07,4,.12,5.99,0,1.18-.07,1.41.38,1.39,1.42-.05,2.5.01,5-.03,7.49-.02.88.29,1.18,1.15,1.14.87-.04,1.74.05,2.62.08.11.02.23.03.34.05.33-.05.65-.1.98-.15Zm245.69-7.24c-.15-.36-.3-.71-.45-1.07-1.39-4.98-2.79-9.96-4.17-14.91h-8.11c-.07.15-.14.3-.22.44-.02,7.23-.02,14.46-.06,21.69,0,.87.27,1.21,1.15,1.14.87-.06,1.74-.03,2.62-.03h.27c.99.15,1.03-.45,1.02-1.21-.03-4.7-.04-9.39-.05-14.09.33-.16.66-.33.99-.49,1.37,4.36,2.73,8.72,4.12,13.07.85,2.68.87,2.63,3.66,2.67,1.02.02,1.47-.36,1.77-1.31,1.63-5.24,3.32-10.46,4.99-15.69.02-.1.05-.2.07-.3.04-.09.08-.18.13-.28.24.29.49.57.73.86-.02.22-.03.44-.05.66,0,.11-.02.23-.03.34-.03,5.15-.06,10.3-.1,15.45.08.09.16.18.24.27l3.49.12c.11.02.23.03.34.05l.79-.05.38-.37v-23c-2.38,0-4.62.05-6.86-.02-.97-.03-1.38.32-1.66,1.22-1.47,4.76-2.99,9.5-4.51,14.24-.07.23-.31.4-.48.6Zm7.01-184.74c-.33-.01-.66-.04-1-.04-18.76,0-37.52,0-56.28,0-4.08,0-8.15.03-12.23.05h-3.96c0,.46,0,.83,0,1.2-.01.33-.04.66-.04,1,0,47.12,0,94.24,0,141.37,0,.36.04.72.06,1.14h1.06c26.08,0,52.16,0,78.24,0,.37,0,.75-.04,1.12-.07.06-.06.12-.13.18-.19,0-.41,0-.83,0-1.24.03-6.53.03-13.06.11-19.59.02-1.19-.36-1.44-1.47-1.44-12.32.04-24.63.03-36.95.02-3.49,0-6.99,0-10.48-.08-.47,0-.93-.43-1.39-.67,0-.25,0-.5,0-.75,0-.33,0-.67,0-1,0-3.9.03-7.81.02-11.71,0-8.76-.02-17.53-.04-26.29-.13-1.21.45-1.49,1.6-1.49,13.51.03,27.02.02,40.54.01q3.14,0,2.87-3.28c0-6.17.01-12.33.02-18.5-.18-.25-.32-.64-.56-.71-.36-.11-.79,0-1.19,0-7.31-.01-14.62-.04-21.94-.04-6.85,0-13.71.02-20.56.04-.25-.1-.49-.19-.74-.29l-.04-.5c0-.42,0-.83,0-1.25.01-1.83.03-3.65.03-5.48-.01-9.01-.03-18.02-.04-27.02.34-.25.69-.51,1.03-.76,6.7.01,13.39.02,20.09.03,8.86.02,17.72.03,26.58.08.75,0,1.13-.12,1.13-1-.05-6.7-.05-13.39-.07-20.09v-1.46c-2.01,0-3.87,0-5.73,0ZM57.2,81.01c0-.09,0-.18,0-.27-.01-1.24-.03-2.48-.04-3.73,0-.09.02-.18.03-.28l.11-2.72s.07-.06.07-.08c0-.07-.04-.13-.06-.2.13-2.12.25-4.24.38-6.36.14-2.21-.61-3.01-2.84-2.82-.9.08-1.81.28-2.67.57-10.47,3.42-20.21,8.33-29.2,14.68-5.63,3.97-10.96,8.32-15.25,13.76-3.75,4.75-6.52,9.94-6.77,16.18,0,.26,0,.51,0,.77,0,.83,0,1.65-.01,2.48,0,.17,0,.35,0,.52.42,2.02.63,4.12,1.29,6.06,2.33,6.84,7.18,11.55,13.3,15.09,7.01,4.06,14.64,6.41,22.47,8.25l.3.07c4.57.68,9.14,1.37,13.72,2.05.1.02.21.04.31.05l4.93.49c.11.01.21.03.32.04.23.03.46.06.69.08.1,0,.2.01.3.02.65.03,1.3.06,1.95.09.1,0,.21.02.31.02.23.04.46.08.69.12.1,0,.19.02.29.03,1.56.13,3.13.27,4.69.4.11.01.23.02.34.03.22.02.45.04.67.06.1,0,.19.02.29.03,5.04.05,10.07.16,15.11.14,3.53-.01,7.07-.19,10.6-.3.1,0,.2-.02.31-.02,1.14-.07,2.04-.6,2.17-1.76.11-1-.62-1.52-1.59-1.65-.12-.02-.24-.05-.37-.07-.33,0-.65-.02-.98-.02-.09,0-.18,0-.27,0-1.82-.08-3.65-.15-5.47-.23l-.28-.02c-.58-.02-1.15-.04-1.73-.06-.09,0-.18,0-.27-.01-.23-.02-.47-.04-.7-.06-.11-.02-.22-.04-.33-.06-.89-.07-1.78-.13-2.67-.2-.11-.02-.22-.04-.33-.06-1.48-.18-2.96-.37-4.44-.55-.09,0-.18-.02-.27-.02l-.72-.05c-.1-.01-.2-.03-.31-.04-.64-.11-1.29-.22-1.93-.33-.1-.02-.21-.04-.31-.06-7.98-1.25-15.83-3.01-23.25-6.32-4.39-1.96-8.36-4.47-11.25-8.43-2.48-3.4-3.12-6.95-.88-10.69.78-1.31,1.71-2.58,2.79-3.65,3.71-3.65,8-6.46,12.77-8.57,1.17-.51,2.37-1.12,3.28-1.97.66-.61,1.23-1.7,1.22-2.57-.04-3.61-.32-7.23-.51-10.84,0-.09.01-.18.02-.28v-.72c.02-.09.02-.18.02-.27,0-.24,0-.48,0-.73,0-.09,0-.18,0-.27,0-.24,0-.49,0-.73,0-.09,0-.18,0-.27,0-.24,0-.49,0-.73,0-.09,0-.18,0-.27,0-.24,0-.49,0-.73,0-.09,0-.18,0-.27v-.73c0-.09,0-.18,0-.27v-.73Zm83.78-11.98c.1.02.21.04.31.06,4.58.81,9.17,1.56,13.74,2.43,6.64,1.27,13.14,3.07,19.03,6.51,2.28,1.34,4.57,2.81,6.48,4.62,5.07,4.78,5.67,11.23.42,16.36-1.36,1.33-2.77,2.7-4.39,3.68-3.3,1.99-6.76,3.75-10.16,5.57-2.9,1.55-3.21,2.38-3.12,5.68.2,7.03.25,14.06.27,21.09,0,2.99-.26,5.99-.38,8.98-.07,1.7.66,2.5,2.39,2.43,1.03-.04,2.08-.2,3.06-.52,11.14-3.6,21.42-8.88,30.85-15.81,6.07-4.45,11.76-9.29,15.94-15.68,3.74-5.72,5.49-11.93,4.41-18.74-1.17-7.31-5.23-12.85-11.11-17.14-6.78-4.94-14.57-7.59-22.61-9.56-11.98-2.94-24.21-4.04-36.48-4.44-7.44-.24-14.9.13-22.36.23-.1,0-.19.01-.29.02-1.41.24-2.07.84-1.96,1.9.14,1.32,1.17,1.46,2.19,1.52,4.59.27,9.18.53,13.76.79Zm373,29.45c.18-.05.36-.11.53-.16,7.25,0,14.49,0,21.74,0,.09,0,.18-.01.27-.02.4-.04.79-.09,1.19-.13.19-.04.38-.07.57-.11,1.06-.06,2.12-.12,3.18-.17.11-.01.23-.03.34-.04,2.22-.29,4.48-.44,6.66-.9,10.85-2.29,18.73-8.41,23.44-18.49,2.75-5.88,4.07-12.12,4.31-18.57.24-6.76-.06-13.5-1.49-20.12-2.18-10.1-7.17-18.34-16.55-23.3-5.88-3.11-12.36-4.12-18.94-4.19-9.37-.11-18.74-.02-28.11-.03-8.7,0-17.41-.02-26.11-.03-.17,0-.35-.02-.52-.03-.24-.02-.48-.04-.72-.06-.09.03-.18.06-.28.08-.09.43-.25.86-.26,1.29-.02,2.46,0,4.92,0,7.37,0,44.45,0,88.9,0,133.35v2.77h1.52c8.46,0,16.91,0,25.37,0,1.12,0,2.24-.04,3.37-.06.06-.06.12-.13.18-.19.03-1.91.08-3.83.08-5.74.01-17.07.01-34.14.03-51.22,0-.43.13-.87.2-1.3ZM299.96,10.1c-1.16.13-2.31.26-3.47.39-6.7.74-13.18,2.3-19.12,5.58-6.16,3.39-11.19,7.97-13.98,14.57-3.25,7.7-4.11,15.79-3.46,24.07.01.11.02.22.03.32.59,6.35,2.82,12.1,6.37,17.36,3.78,5.61,8.73,10.11,14.27,13.84,6.1,4.1,12.58,7.62,18.78,11.58,4.51,2.88,9.03,5.83,13.2,9.17,5.84,4.69,9.07,10.69,7.43,18.51-.01.09-.03.19-.04.28-.07.28-.14.56-.21.85-1.28,5.12-4.29,8.64-9.45,10.13-3.52,1.02-7.04.89-10.6.05-4.36-1.02-7.51-3.42-9.22-7.6-.47-1.15-1.04-2.32-1.18-3.53-.43-3.58-.69-7.19-.98-10.78-.08-.93-.01-1.88-.01-2.9-10.22,0-20.26,0-30.29,0-.1.05-.2.1-.3.15.07,3.85.15,7.71.22,11.56,0,.11,0,.22,0,.33.27,2.18.44,4.38.83,6.54,2.59,14.3,11.23,23.58,26.19,27.28.11.03.22.07.33.1,2.39.38,4.79.76,7.18,1.13.19.03.38.07.57.1,5.07.05,10.14.09,15.21.14.09,0,.19-.01.28-.02.49-.03.97-.06,1.46-.1.1-.02.2-.04.3-.05.72-.08,1.45-.16,2.17-.24.11-.01.22-.03.33-.04,5.55-.36,10.92-1.51,16.13-3.44,11.3-4.19,17.79-12.57,20.86-23.93.03-.11.06-.21.09-.32,1.49-4.98,1.44-10.1,1.4-15.23-.04-6.01-1.53-11.67-4.08-17.08-2.73-5.79-7.11-10.17-11.96-14.2-6.71-5.58-14.42-9.52-21.99-13.69-5.76-3.17-11.6-6.24-16.4-10.84-4.56-4.38-7.16-9.55-6.09-16.09,1.07-6.53,4.87-10.64,10.98-11.84.18-.06.37-.11.55-.17.47-.05.94-.1,1.41-.16.12-.01.23-.03.35-.04,2.05.17,4.11.34,6.16.5.11.04.21.08.32.12,3.02.9,5.06,2.97,6.52,5.65,1.49,2.74,2.16,5.75,2.45,8.83.2,2.14.25,4.29.38,6.6.61,0,1.18,0,1.75,0,8.5,0,17-.02,25.5-.03,2.6,0,2.73-.02,2.6-2.69-.23-4.56-.38-9.16-1.05-13.67-1.39-9.38-6.25-16.66-14.33-21.63-4.04-2.48-8.64-3.66-13.26-4.53-6.87-1.3-13.82-1.43-20.78-.95-.11.01-.22.02-.33.03Zm67.46,2.92c.02,1.92.06,3.83.06,5.75,0,44,0,87.99,0,131.99,0,1.92-.05,3.83-.07,5.75-.03.02-.09.06-.08.07.02.06.06.12.09.18.43.08.86.24,1.28.24,9.41.01,18.82.01,28.24.01.32,0,.64,0,1.07,0v-1.57c0-20.49,0-40.98-.02-61.47,0-1.09.28-1.43,1.38-1.43,10.45.02,20.91.02,31.36-.03,1.19,0,1.54.3,1.54,1.52-.04,20.07-.03,40.15-.03,60.22,0,.9,0,1.8,0,2.76h1.53c8.45,0,16.91,0,25.36,0,1.12,0,2.24-.04,3.37-.07l.18-.19c.03-1.79.08-3.58.08-5.37,0-46.03.01-92.06.02-138.09,0-.32-.04-.63-.08-1.06h-28.68c-.17,0-.35-.02-.52-.03-.24-.02-.48-.04-.72-.06-.09.03-.18.06-.28.08-.09.47-.25.94-.25,1.41,0,18.28,0,36.56.01,54.83,0,.48,0,.96,0,1.45h-34.25V12.25c-.07-.07-.15-.15-.22-.22-.41.06-.82.16-1.23.16-9.26,0-18.52-.01-27.78-.03-.09,0-.19-.01-.28-.02-.16-.03-.33-.06-.49-.09-.16.07-.32.14-.48.21-.01.08-.03.15-.07.22l-.02.52Zm-34.42,168.05c0,1.18-.07,2.26.04,3.32.03.32.52.82.83.85,1.19.1,2.4.07,3.6,0,.27-.01.72-.36.73-.57.07-1.18.03-2.37.03-3.61h-5.23Zm167,0h-5.25c0,1.18-.06,2.29.04,3.39.02.28.52.72.83.74,1.16.1,2.33.12,3.48.03.32-.02.82-.51.85-.83.11-1.07.04-2.15.04-3.33Zm-87,0c0,1.12.03,2.16-.01,3.19-.03.7.24.99.92.99,1.16,0,2.33.05,3.49-.02.29-.02.78-.39.8-.63.08-1.14.04-2.3.04-3.52h-5.24Zm131.51-.02c0,1.2-.06,2.28.04,3.34.03.31.47.81.76.83,1.24.1,2.49.09,3.73.04.25-.01.67-.38.69-.61.07-1.18.03-2.37.03-3.6h-5.25Z"/>
  <path class="cls-15" d="m109.27,1.04c0-.35-.02-.69-.02-1.04,2.42,0,4.83,0,7.25,0,0,.33,0,.66,0,.98-2.41.02-4.82.04-7.23.06Z"/>
  <path class="cls-15" d="m110,210.24c-.08.16-.17.33-.25.49,0,.09,0,.18,0,.27h-4.5c0-.24,0-.49,0-.73.1-.05.19-.09.29-.14l1.99.11.11.03.11-.03.79-.03c.41-.01.82-.03,1.23-.04.08.03.17.05.25.08Z"/>
  <path class="cls-25" d="m442.76,210.27c-.09.24-.17.49-.26.73h-4.5c0-.24-.01-.47-.02-.71,1.59,0,3.19-.02,4.78-.02Z"/>
  <path class="cls-19" d="m366.25,211c.01-.23.03-.45.04-.68.22,0,.43-.01.65-.02l4.45.18c.12.17.24.34.36.51h-5.5Z"/>
  <path class="cls-22" d="m109.75,211c0-.09,0-.18,0-.27.08.09.17.18.25.27h-.25Z"/>
  <path class="cls-6" d="m367.99,12.06c.16.03.33.06.49.09.09,0,.19.01.28.02,9.26.01,18.52.02,27.78.03.41,0,.82-.11,1.23-.16.07.07.15.15.22.22v57.66h34.25c0-.49,0-.97,0-1.45,0-18.28-.02-36.56-.01-54.83,0-.47.17-.94.25-1.41.09-.03.18-.06.28-.08.24.02.48.04.72.06.17,0,.35.02.52.03h28.68c.03.43.08.75.08,1.06,0,46.03,0,92.06-.02,138.09,0,1.79-.05,3.58-.08,5.37-.06.06-.12.13-.18.19-1.12.02-2.24.06-3.37.06-8.45,0-16.91,0-25.36,0h-1.53c0-.96,0-1.86,0-2.76,0-20.07-.01-40.15.03-60.22,0-1.22-.35-1.53-1.54-1.52-10.45.05-20.91.06-31.36.03-1.1,0-1.38.34-1.38,1.43.03,20.49.02,40.98.02,61.47v1.57c-.43,0-.75,0-1.07,0-9.41,0-18.82,0-28.24-.01-.43,0-.86-.15-1.28-.24,0-.08,0-.17,0-.25.03-1.92.07-3.83.07-5.75,0-44,0-87.99,0-131.99,0-1.92-.04-3.83-.06-5.75,0-.17.01-.35.02-.52.04-.07.06-.15.07-.22.16-.07.32-.14.48-.21Z"/>
  <path class="cls-6" d="m303.69,31.89c-.47.05-.94.1-1.41.16-.18.06-.37.11-.55.17-6.11,1.21-9.91,5.32-10.98,11.84-1.07,6.54,1.53,11.71,6.09,16.09,4.8,4.61,10.64,7.67,16.4,10.84,7.57,4.17,15.28,8.11,21.99,13.69,4.85,4.03,9.24,8.42,11.96,14.2,2.54,5.4,4.04,11.07,4.08,17.08.04,5.13.09,10.25-1.4,15.23-.03.11-.06.21-.09.32-3.07,11.36-9.56,19.74-20.86,23.93-5.21,1.93-10.59,3.08-16.13,3.44-.11.01-.22.03-.33.04-.72.08-1.45.16-2.17.24-.1.02-.2.04-.3.05-.49.03-.97.06-1.46.1-.09,0-.19.01-.28.02-5.07-.05-10.14-.09-15.21-.14-.19-.03-.38-.07-.57-.1-2.39-.38-4.79-.76-7.18-1.13-.11-.03-.22-.07-.33-.1-14.97-3.71-23.6-12.98-26.19-27.28-.39-2.16-.56-4.36-.83-6.54.02-.03.07-.07.06-.1-.01-.08-.05-.15-.07-.23-.07-3.85-.15-7.71-.22-11.56.1-.05.2-.1.3-.15h30.29c0,1.02-.06,1.97.01,2.9.29,3.6.55,7.2.98,10.78.15,1.21.71,2.38,1.18,3.53,1.71,4.17,4.86,6.57,9.22,7.6,3.56.84,7.07.97,10.6-.05,5.16-1.5,8.17-5.01,9.45-10.13.07-.28.14-.56.21-.85.01-.09.03-.19.04-.28,1.64-7.82-1.59-13.82-7.43-18.51-4.17-3.35-8.69-6.29-13.2-9.17-6.2-3.96-12.68-7.47-18.78-11.58-5.54-3.73-10.48-8.23-14.27-13.84-3.55-5.26-5.78-11.01-6.37-17.36.02-.04.06-.08.05-.11-.02-.07-.05-.14-.08-.22-.65-8.28.21-16.37,3.46-24.07,2.79-6.61,7.83-11.18,13.98-14.57,5.95-3.28,12.42-4.84,19.12-5.58,1.16-.13,2.31-.26,3.47-.39.11-.01.22-.02.33-.03,6.96-.48,13.91-.35,20.78.95,4.63.87,9.22,2.05,13.26,4.53,8.08,4.97,12.95,12.25,14.33,21.63.67,4.51.82,9.11,1.05,13.67.13,2.67,0,2.68-2.6,2.69-8.5.01-17,.02-25.5.03-.57,0-1.14,0-1.75,0-.13-2.3-.18-4.46-.38-6.6-.29-3.08-.95-6.09-2.45-8.83-1.46-2.68-3.5-4.74-6.52-5.65-.11-.04-.21-.08-.32-.12-2.05-.17-4.11-.34-6.16-.5-.12.01-.23.03-.35.04Z"/>
  <path class="cls-6" d="m513.49,156.93c-1.12.02-2.24.06-3.37.06-8.46,0-16.91,0-25.37,0h-1.52v-2.77c0-44.45,0-88.9,0-133.35,0-2.46-.02-4.92,0-7.37,0-.43.17-.86.26-1.29.09-.03.18-.06.28-.08.24.02.48.04.72.06.17,0,.35.02.52.03,8.7.01,17.41.03,26.11.03,9.37,0,18.74-.08,28.11.03,6.58.08,13.06,1.08,18.94,4.19,9.38,4.96,14.36,13.19,16.55,23.3,1.43,6.62,1.74,13.37,1.49,20.12-.23,6.46-1.56,12.7-4.31,18.57-4.71,10.08-12.6,16.2-23.44,18.49-2.19.46-4.44.61-6.66.9-.11.01-.23.03-.34.04-1.06.06-2.12.12-3.18.17-.19.04-.38.07-.57.11-.4.04-.79.09-1.19.13-.09,0-.18.01-.27.02-7.25,0-14.49,0-21.74,0-.18.05-.36.11-.53.16-.07.43-.2.87-.2,1.3-.02,17.07-.02,34.14-.03,51.22,0,1.91-.05,3.83-.08,5.74-.06.06-.12.13-.18.19Zm.28-101.77s0,0,.01,0c0,6.41.02,12.82-.02,19.23,0,1.05.33,1.36,1.36,1.35,4.29-.04,8.58.03,12.86,0,1.49-.02,3.01-.09,4.46-.41,4.86-1.07,8.12-4.19,10.29-8.52,3.52-7.03,3.28-14.29,1.06-21.6-1.92-6.32-6.33-9.81-12.83-10.24-5.26-.35-10.57-.11-15.85-.21-1.16-.02-1.38.38-1.37,1.43.04,6.33.02,12.65.02,18.98Z"/>
  <path class="cls-6" d="m663.48,89.25q.27,3.27-2.87,3.28c-13.51,0-27.03.02-40.54-.01-1.15,0-1.73.27-1.6,1.49-.89-.04-1.03.48-.94,1.22.09.78.21,1.56.21,2.34.02,8.3,0,16.6,0,24.9,0,2.85,0,5.71,0,8.56,0,.53-.02,1.04.74.98,0,.33,0,.67,0,1-.22.14-.44.28-.65.43.22.11.44.22.66.32.46.23.92.66,1.39.67,3.49.07,6.99.08,10.48.08,12.32,0,24.63.01,36.95-.02,1.12,0,1.49.25,1.47,1.44-.09,6.53-.09,13.06-.11,19.59-5.27.97-10.59.46-15.89.48-19,.06-37.99.02-56.99.03-.95,0-1.9.14-2.85.11-.4-.01-.79-.3-1.18-.46.04-.14.08-.28.12-.41h3.36c21.75,0,43.49,0,65.24-.01,1.45,0,2.9-.23,4.34-.22,1.56.01,1.9-.36,1.67-1.93-.23-1.53-.41-3.07-.47-4.61-.08-1.91,0-3.83-.03-5.75,0-.47-.2-.93-.3-1.39-.11.02-.22.04-.32.07-.11.93-.31,1.86-.31,2.78.01,2.3.15,4.6.19,6.9.02,1.09-1.49,2.26-2.58,2.09-.61-.09-1.23-.18-1.85-.18-21.75,0-43.49,0-65.24-.01-1.01,0-2.01-.09-3.34-.15,1.52-1.46,1.28-2.85.52-4.33-.25-.48-.24-1.13-.24-1.7-.01-7.58,0-15.16-.02-22.75,0-.91-.23-1.81-.22-2.72.03-1.93.22-3.85.22-5.78.02-27.49.01-54.99.01-82.48,0-3.71-.01-7.42.02-11.12,0-.46.08-1.06.37-1.36.82-.83.88-1.42-.36-1.87.73-1.23-.27-1.6-1.39-2.24.99-.17,1.99-.09,2.12-.4.53-1.2,1.4-.54,2.11-.55.78-.01,1.56.19,2.34.2,2.35.03,4.71.01,7.06.01,17.7,0,35.41,0,53.11.02,1.35,0,2.72.22,4.06.44,1.69.29,1.8.47,1.8,2.26,0,2.92.02,5.83-.01,8.75,0,.78-.11,1.57-.26,2.34-.23,1.12-1.16,1.5-2.22,1.09-.6-.23-1.27-.38-1.92-.38-12.25-.02-24.49-.02-36.74-.02h-4.62c-.46-.55-.74-.89-1.02-1.22-.14.13-.43.31-.4.37.21.48.47.94.85,1.66-.41.44-1.02,1.06-1.58,1.72-.24.28-.46.64-.5.99-.01.13.56.5.79.45.56-.12,1.09-.41,1.61-.66.33-.15.61-.46.94-.53.63-.14,1.11-.3,1.12-1.08,0-.15.31-.39.49-.4.2,0,.5.15.59.33.07.14-.06.43-.16.62-.39.75-.8,1.49-1.21,2.24-.34.25-.69.51-1.03.76-1.24.27-.94,1.27-.93,2.07,0,1.03.21,2.06.21,3.09.02,8.62,0,17.25.02,25.87,0,.58-.23,1.33.72,1.46,0,.42,0,.83,0,1.25-.3-.04-.6-.07-.9-.11l-.07.41c.34.07.68.14,1.01.2.25.1.49.19.74.29.03.61.06,1.22.09,1.88-.59-.05-1.15-.14-1.71-.13-.19,0-.48.23-.54.41-.06.18.07.58.21.63.76.29,1.94.26,2.25.77,1.08,1.82,1.2-.6,1.85-.31.07.03.15.07.29.13v1.07c1.29,0,2.52,0,3.74,0,10.04,0,20.08,0,30.12-.01,1.07,0,2.14-.21,3.22-.22.99,0,1.26.52.95,1.44-.15.45-.18.97-.17,1.45.06,3.16.17,6.31.19,9.47,0,.88-.59,1.32-1.5,1.23-1.09-.11-2.17-.34-3.26-.34-8.33-.03-16.66-.03-24.99,0-1.7,0-3.39.21-5.09.2-2.28,0-4.56-.15-6.84-.2-.49,0-.98.17-1.48.27.12.13.24.26.35.39-.19.49-.32,1.01-.58,1.45-.24.42-.79.73-.88,1.15-.09.41.23.9.37,1.36.29-.2.8-.37.83-.61.13-.94.83-.98,1.47-1.01,2.11-.12,4.23-.25,6.34-.26,10-.03,19.99-.02,29.99,0,1.45,0,2.89.17,4.34.22.94.04,1.89,0,2.97,0-.1-1.9-.27-3.61-.26-5.33.03-4.26.15-8.52.23-12.78.01-.78,0-1.56,0-2.35.4-.01.83-.12,1.19,0,.24.08.38.46.56.71-.94.14-1.03.81-1,1.58.09,1.93.24,3.85.23,5.78-.01,3.19-.18,6.38-.17,9.58,0,.55-.2,1.53.92,1.57Zm-48.83-52.29c-.05.67-.14,1.17-.12,1.68.04.87.2,1.73.21,2.59.02,7.58,0,15.15.03,22.73,0,.51.19,1.15.54,1.49.61.6.66.82-.09,1.39-.35.26-.19,1.24-.15,1.88,0,.09.88.3.97.18.26-.36.45-.86.45-1.31.02-8.74.02-17.49.02-26.23,0-.42-.03-.84.03-1.25.31-2.11.29-2.16-1.88-3.16Zm1.94,34.6c-.27-.47-.5-.87-.84-1.46q-.36,1.55.84,1.46Zm-.4-41c-.1-.11-.16-.23-.24-.25-.09-.02-.21.05-.31.08.07.1.12.24.21.3.05.03.19-.07.34-.13Zm35.2-2.13c-.07-.03-.14-.06-.21-.09-.03.07-.1.15-.08.2.02.05.13.06.2.09.03-.07.06-.14.09-.21Zm-11.21-.09c-.03.07-.1.15-.08.2.02.05.13.07.2.1.03-.07.1-.15.08-.2-.02-.05-.13-.07-.2-.1Zm-13.77.09c-.07-.03-.15-.1-.2-.08-.05.02-.06.13-.09.2.07.03.15.1.2.08.05-.02.06-.13.09-.2Zm26,.13c-.03-.07-.04-.18-.09-.2-.05-.02-.14.04-.21.07.03.07.04.18.09.2.05.02.14-.04.21-.07Zm-15.09.09c.03-.07.1-.15.08-.2-.02-.05-.13-.06-.2-.09-.03.07-.1.15-.08.2.02.05.13.06.2.09Zm15.87-.31c-.03.07-.1.15-.08.2.02.05.13.07.2.1.03-.07.1-.15.08-.2-.02-.05-.13-.07-.2-.1Zm1,0c-.03.07-.1.15-.08.2.02.05.13.07.2.1.03-.07.1-.15.08-.2-.02-.05-.13-.07-.2-.1Zm1.22.09c-.07-.03-.15-.1-.2-.08-.05.02-.07.13-.1.2.07.03.15.1.2.08.05-.02.07-.13.1-.2Zm-19.22-.08c-.03.07-.06.14-.09.21.07.03.15.1.2.08.05-.02.06-.13.09-.2-.07-.03-.14-.06-.21-.09Zm20.13.3c.03-.07.1-.15.08-.2-.02-.05-.13-.06-.2-.09-.03.07-.1.15-.08.2.02.05.13.06.2.09Zm1,0c.03-.07.1-.15.08-.2-.02-.05-.13-.06-.2-.09-.03.07-.1.15-.08.2.02.05.13.06.2.09Zm1.09-.09c-.03-.07-.04-.18-.09-.2-.05-.02-.14.04-.21.07.03.07.04.18.09.2.05.02.14-.04.21-.07Zm.77-.21c-.03.07-.06.14-.09.21.07.03.15.1.2.08.05-.02.06-.13.09-.2-.07-.03-.14-.06-.21-.09Zm-17,0c-.03.07-.1.15-.08.2.02.05.13.07.2.1.03-.07.1-.15.08-.2-.02-.05-.13-.07-.2-.1Zm7.21.09c-.07-.03-.14-.06-.21-.09-.03.07-.1.15-.08.2.02.05.13.06.2.09.03-.07.06-.14.09-.21Zm-1.21-.08c-.03.07-.06.14-.09.21.07.03.15.1.2.08.05-.02.06-.13.09-.2-.07-.03-.14-.06-.21-.09Zm-12.79.08c-.07-.03-.14-.06-.21-.09-.03.07-.1.15-.08.2.02.05.13.06.2.09.03-.07.06-.14.09-.21Zm11.79-.09c-.03.07-.1.15-.08.2.02.05.13.07.2.1.03-.07.1-.15.08-.2-.02-.05-.13-.07-.2-.1Zm-1,0c-.03.07-.1.15-.08.2.02.05.13.07.2.1.03-.07.1-.15.08-.2-.02-.05-.13-.07-.2-.1Zm-2.79.09c-.07-.03-.14-.06-.21-.09-.03.07-.1.15-.08.2.02.05.13.06.2.09.03-.07.06-.14.09-.21Zm2.01.14c-.03-.07-.04-.18-.09-.2-.05-.02-.14.04-.21.07.03.07.04.18.09.2.05.02.14-.04.21-.07Zm-6-.13c-.07-.03-.15-.1-.2-.08-.05.02-.06.13-.09.2.07.03.15.1.2.08.05-.02.06-.13.09-.2Zm4.99,0c-.07-.03-.14-.06-.21-.09-.03.07-.1.15-.08.2.02.05.13.06.2.09.03-.07.06-.14.09-.21Zm-10.08.23c.03-.07.1-.15.08-.2-.02-.05-.13-.06-.2-.09-.03.07-.1.15-.08.2.02.05.13.06.2.09Zm6.87-.31c-.03.07-.1.15-.08.2.02.05.13.07.2.1.03-.07.1-.15.08-.2-.02-.05-.13-.07-.2-.1Zm-16,0c-.03.07-.1.15-.08.2.02.05.13.07.2.1.03-.07.1-.15.08-.2-.02-.05-.13-.07-.2-.1Zm24.91.22c.07.03.15.1.2.08.05-.02.07-.13.1-.2-.07-.03-.15-.1-.2-.08-.05.02-.07.13-.1.2Zm-23,0c.07.03.15.1.2.08.05-.02.07-.13.1-.2-.07-.03-.15-.1-.2-.08-.05.02-.07.13-.1.2Zm1.09-.21c-.03.07-.06.14-.09.21.07.03.15.1.2.08.05-.02.06-.13.09-.2-.07-.03-.14-.06-.21-.09Zm1.22.08c-.07-.03-.15-.1-.2-.08-.05.02-.07.13-.1.2.07.03.15.1.2.08.05-.02.07-.13.1-.2Zm.69.14c.07.03.15.1.2.08.05-.02.07-.13.1-.2-.07-.03-.15-.1-.2-.08-.05.02-.07.13-.1.2Zm1.22.09c.03-.07.1-.15.08-.2-.02-.05-.13-.06-.2-.09-.03.07-.1.15-.08.2.02.05.13.06.2.09Zm.87-.31c-.03.07-.1.15-.08.2.02.05.13.07.2.1.03-.07.1-.15.08-.2-.02-.05-.13-.07-.2-.1Zm1.22.09c-.07-.03-.15-.1-.2-.08-.05.02-.07.13-.1.2.07.03.15.1.2.08.05-.02.07-.13.1-.2Zm4.78-.08c-.03.07-.06.14-.09.21.07.03.15.1.2.08.05-.02.06-.13.09-.2-.07-.03-.14-.06-.21-.09Z"/>
  <path class="cls-21" d="m108.52,210.2c-.26.01-.52.02-.78.03-.07,0-.14,0-.21,0-.66-.04-1.32-.07-1.99-.11-.19-.02-.38-.05-.58-.07-5.91-.47-10.66-3.25-14.63-7.49-4.14-4.44-6.63-9.83-8.53-15.5-2.51-7.52-3.68-15.33-4.75-23.15-.12-.91.05-1.85,1.11-2.09,1.05-.24,1.5.62,1.77,1.41.74,2.12,1.37,4.27,2.09,6.39,2,5.92,4.3,11.7,7.96,16.84,1.69,2.37,3.62,4.47,6.52,5.36.39.12.81.17,1.22.26.1.02.2.03.31.05.23-.02.47-.04.7-.06.09-.01.19-.03.28-.04,3.38-.75,5.55-2.99,7.23-5.84,2.54-4.31,3.58-9.08,4.25-13.95.26-1.89.38-3.8.57-5.7.01-.11.02-.22.04-.33.44-9.47.62-18.95-.03-28.42,0-.1-.02-.21-.03-.31-.27-4.24-.54-8.48-.81-12.71-.01-.18-.03-.36-.04-.54-.02-.14-.03-.28-.05-.42-.02-.11-.04-.22-.06-.33-.05-.58-.09-1.16-.14-1.74-.17-2.03.5-3.64,2.24-4.82,5.58-3.78,11.13-7.59,16.7-11.38,3.4-2.32,6.81-4.63,10.21-6.96,2.77-1.89,5.41-.7,6.56,1.14.48.77.74,1.75.84,2.67.24,2.11.32,4.23.46,6.35-.02.03-.07.07-.07.09.02.07.06.14.09.21.16,3.23.31,6.46.47,9.7,0,.1.02.2.03.31-.01,2.98-.03,5.96-.04,8.94-.02.19-.05.38-.07.57-.01.39-.03.79-.04,1.18,0,.18-.01.37-.02.55-.61,7.23-1.22,14.47-1.83,21.7-.04.19-.07.37-.11.56-.1.72-.2,1.45-.3,2.17,0,.1-.02.2-.03.3-.99,4.84-1.73,9.74-3.04,14.49-1.88,6.8-4.19,13.48-7.48,19.77-3.36,6.43-7.47,12.3-13.27,16.81-2.85,2.22-6.23,3.24-9.72,3.94-.34.04-.68.07-1.02.11-.16.04-.33.07-.49.11-.08-.03-.17-.05-.25-.08-.41.01-.82.03-1.23.04Z"/>
  <path class="cls-5" d="m109.27,1.04c2.41-.02,4.82-.04,7.23-.06,9.09,1.36,14.98,6.89,19.07,14.7,3.29,6.28,5.12,13.06,6.42,19.99.63,3.39,1.16,6.79,1.71,10.2.09.53.21,1.12.07,1.61-.19.61-.64,1.14-.98,1.7-.56-.41-1.31-.7-1.63-1.25-.45-.77-.57-1.72-.83-2.6-1.65-5.6-3.63-11.07-6.4-16.22-1.74-3.24-3.89-6.22-6.86-8.49-3-2.31-6.35-2.13-9.22.38-3.27,2.85-5.09,6.56-6.07,10.68-1.55,6.49-2.36,13.08-2.31,19.77.04,5.62-.13,11.25.1,16.86.28,6.81.86,13.61,1.39,20.4.19,2.37-.43,4.22-2.44,5.61-7.06,4.86-14.09,9.78-21.14,14.64-1.74,1.2-3.56,2.3-5.34,3.45-3.47,2.23-7.11.49-7.54-3.61-.2-1.9-.41-3.81-.47-5.72-.22-6.36-.55-12.73-.5-19.09.07-8.9.84-17.76,2.17-26.57,1.53-10.06,3.97-19.88,7.8-29.32,2.98-7.35,6.83-14.17,12.52-19.8,3.72-3.68,8.01-6.33,13.25-7.26Z"/>
  <path class="cls-7" d="m127.27,64.8c7.45-.1,14.91-.48,22.36-.23,12.28.4,24.51,1.5,36.48,4.44,8.03,1.97,15.82,4.62,22.61,9.56,5.88,4.28,9.94,9.83,11.11,17.14,1.09,6.81-.67,13.02-4.41,18.74-4.17,6.39-9.87,11.23-15.94,15.68-9.43,6.92-19.72,12.21-30.85,15.81-.97.32-2.03.48-3.06.52-1.73.07-2.46-.73-2.39-2.43.12-3,.38-5.99.38-8.98-.01-7.03-.07-14.07-.27-21.09-.09-3.29.22-4.13,3.12-5.68,3.41-1.82,6.86-3.58,10.16-5.57,1.62-.98,3.02-2.35,4.39-3.68,5.25-5.13,4.65-11.57-.42-16.36-1.91-1.81-4.2-3.28-6.48-4.62-5.89-3.45-12.39-5.24-19.03-6.51-4.57-.88-9.16-1.63-13.74-2.43-.1-.02-.21-.04-.31-.06-4.59-.26-9.18-.52-13.76-.79-1.03-.06-2.05-.21-2.19-1.52-.11-1.06.55-1.67,1.96-1.9.1,0,.19-.01.29-.02Z"/>
  <path class="cls-12" d="m60.47,145.81c-.65-.03-1.3-.06-1.95-.09-.1,0-.2-.01-.3-.02-.23-.03-.46-.06-.69-.08-.11-.01-.21-.03-.32-.04-1.64-.16-3.28-.32-4.93-.49-.1-.02-.21-.04-.31-.05-4.57-.68-9.14-1.37-13.72-2.05-.1-.02-.2-.05-.3-.07-7.82-1.84-15.46-4.19-22.47-8.25-6.11-3.54-10.96-8.25-13.3-15.09-.66-1.94-.87-4.03-1.29-6.06,0-.17,0-.35,0-.52,0-.83,0-1.65.01-2.48,0-.26,0-.51,0-.77.25-6.23,3.03-11.43,6.77-16.18,4.3-5.44,9.63-9.79,15.25-13.76,8.99-6.35,18.73-11.25,29.2-14.68.86-.28,1.77-.49,2.67-.57,2.23-.19,2.98.61,2.84,2.82-.14,2.12-.26,4.24-.38,6.36,0,.09,0,.19,0,.28-.04.91-.07,1.82-.11,2.72-.03.02-.09.05-.09.07,0,.07.04.14.06.2.01,1.24.03,2.48.04,3.73-.03.03-.08.06-.08.08.02.07.06.13.09.19,0,.24,0,.49,0,.73-.03.03-.08.06-.08.08.01.07.05.13.08.19,0,.24,0,.49,0,.73-.03.03-.08.06-.08.08.01.07.05.13.08.19,0,.24,0,.49,0,.73-.03.03-.08.06-.08.08.01.07.05.13.08.19,0,.24,0,.49,0,.73-.03.03-.08.06-.08.08.01.07.05.13.08.19,0,.24,0,.49,0,.73-.03.03-.08.06-.08.08.01.07.05.13.08.19,0,.24,0,.48,0,.73-.03.03-.09.06-.08.08.01.07.05.13.07.2,0,.24,0,.48-.01.72-.03.02-.09.06-.09.07.01.07.05.14.07.2.19,3.61.47,7.22.51,10.84,0,.87-.56,1.96-1.22,2.57-.92.85-2.12,1.45-3.28,1.97-4.77,2.1-9.06,4.92-12.77,8.57-1.08,1.06-2,2.34-2.79,3.65-2.25,3.74-1.61,7.29.88,10.69,2.9,3.96,6.86,6.47,11.25,8.43,7.42,3.31,15.27,5.07,23.25,6.32.1.02.21.04.31.06.64.11,1.29.22,1.93.33.1.01.2.03.31.04.24.02.48.03.72.05.09,0,.18.02.27.02,1.48.18,2.96.37,4.44.55.11.02.22.04.33.06.89.07,1.78.13,2.67.2.11.02.22.04.33.06.23.02.47.04.7.06.09,0,.18,0,.27.01.58.02,1.15.04,1.73.06.09,0,.19.02.28.02,1.82.08,3.65.15,5.47.23.09,0,.18,0,.27,0,.33,0,.65.02.98.02.12.02.24.05.37.07.97.13,1.7.65,1.59,1.65-.13,1.16-1.03,1.68-2.17,1.76-.1,0-.2.02-.31.02-3.53.11-7.06.29-10.6.3-5.04.02-10.07-.09-15.11-.14-.1,0-.19-.02-.29-.03-.22-.02-.45-.04-.67-.06-.11-.01-.23-.02-.34-.03-1.56-.13-3.13-.27-4.69-.4-.1,0-.19-.02-.29-.03-.23-.04-.46-.08-.69-.12-.1,0-.21-.02-.31-.02Z"/>
  <path class="cls-18" d="m619.5,34.74c.4-.75.82-1.49,1.21-2.24.1-.19.24-.48.16-.62-.09-.17-.39-.33-.59-.33-.18,0-.48.26-.49.4-.01.77-.49.94-1.12,1.08-.34.07-.62.38-.94.53-.53.25-1.05.54-1.61.66-.24.05-.81-.31-.79-.45.04-.35.26-.71.5-.99.56-.66,1.17-1.28,1.58-1.72-.38-.72-.64-1.18-.85-1.66-.02-.05.26-.24.4-.37.28.34.56.67,1.02,1.22h4.62c12.25,0,24.49,0,36.74.02.64,0,1.32.15,1.92.38,1.06.41,2,.03,2.22-1.09.15-.77.25-1.56.26-2.34.03-2.92.02-5.83.01-8.75,0-1.79-.11-1.98-1.8-2.26-1.34-.23-2.7-.44-4.06-.44-17.7-.03-35.41-.02-53.11-.02-2.35,0-4.71.02-7.06-.01-.78,0-1.56-.21-2.34-.2-.71.01-1.58-.65-2.11.55-.14.31-1.14.24-2.12.4,1.12.65,2.12,1.02,1.39,2.24,1.24.45,1.18,1.04.36,1.87-.29.29-.37.89-.37,1.36-.03,3.71-.02,7.41-.02,11.12,0,27.49,0,54.99-.01,82.48,0,1.93-.19,3.85-.22,5.78-.01.9.22,1.81.22,2.72.02,7.58,0,15.16.02,22.75,0,.57,0,1.22.24,1.7.76,1.48,1,2.86-.52,4.33,1.33.06,2.34.15,3.34.15,21.75,0,43.49,0,65.24.01.62,0,1.23.09,1.85.18,1.09.16,2.6-1,2.58-2.09-.04-2.3-.17-4.6-.19-6.9,0-.93.2-1.86.31-2.78.11-.02.22-.04.32-.07.11.46.29.93.3,1.39.03,1.92-.05,3.83.03,5.75.06,1.54.24,3.08.47,4.61.23,1.56-.1,1.94-1.67,1.93-1.45-.01-2.89.22-4.34.22-21.75.02-43.49.01-65.24.01h-3.36c-.04.14-.08.28-.12.41.39.16.78.44,1.18.46.95.03,1.9-.11,2.85-.11,19,0,37.99.03,56.99-.03,5.3-.02,10.62.49,15.89-.48,0,.41,0,.83,0,1.24-.06.06-.12.13-.18.19-.37.02-.75.07-1.12.07-26.08,0-52.16,0-78.24,0h-1.06c-.02-.42-.06-.78-.06-1.14,0-47.12,0-94.24,0-141.37,0-.33.03-.66.04-1,1.04-.09,2.09-.1,3.1-.3.33-.06.57-.59.86-.91,4.08-.02,8.15-.04,12.23-.05,18.76,0,37.52,0,56.28,0,.33,0,.66.03,1,.04.55.32,1.06.75,1.66.93.69.2,1.61-.05,2.13.31.7.49,1.27.43,1.94.22.02,6.7.02,13.39.07,20.09,0,.88-.37,1.01-1.13,1-8.86-.04-17.72-.06-26.58-.08-6.7-.01-13.39-.02-20.09-.03Zm45.68-16.67v9.38c.82-1.17.72-8.43,0-9.38Z"/>
  <path class="cls-7" d="m666.49,204.37l-3.49-.12c-.08-.09-.16-.18-.24-.27.03-5.15.06-10.3.1-15.45,0-.11.02-.23.03-.34.02-.22.03-.44.05-.66,0-.75,0-1.49,0-2.24-.07-.02-.15-.03-.22-.05-.17.48-.34.96-.51,1.43-.04.09-.08.18-.13.28-.02.1-.05.2-.07.3-1.67,5.23-3.36,10.45-4.99,15.69-.3.95-.74,1.33-1.77,1.31-2.79-.04-2.81,0-3.66-2.67-1.39-4.35-2.75-8.71-4.12-13.07-.17-.66-.34-1.32-.5-1.98-.09-.14-.17-.29-.26-.43-.08.12-.15.25-.23.37-.03.08-.06.16-.09.24-.02.11-.04.22-.06.33.05.65.1,1.3.15,1.95.01,4.7.01,9.39.05,14.09,0,.76-.03,1.36-1.02,1.22-.09,0-.18,0-.27-.01-.87,0-1.75-.03-2.62.03-.88.07-1.15-.27-1.15-1.14.04-7.23.05-14.46.06-21.69.07-.15.14-.3.22-.44h8.11c1.39,4.95,2.78,9.93,4.17,14.91.15.36.3.71.45,1.07.16-.2.4-.37.48-.6,1.52-4.74,3.04-9.48,4.51-14.24.28-.9.68-1.25,1.66-1.22,2.24.07,4.48.02,6.86.02v23c-.13.12-.26.24-.38.37-.26.02-.53.04-.79.05-.11-.02-.23-.03-.34-.05Z"/>
  <path class="cls-18" d="m661.75,70.04c0,.78,0,1.56,0,2.35-.08,4.26-.2,8.52-.23,12.78-.01,1.71.16,3.43.26,5.33-1.09,0-2.03.03-2.97,0-1.45-.06-2.89-.22-4.34-.22-10-.02-19.99-.03-29.99,0-2.11,0-4.23.13-6.34.26-.64.04-1.33.08-1.47,1.01-.03.24-.54.41-.83.61-.14-.46-.46-.95-.37-1.36.09-.43.64-.73.88-1.15.26-.45.39-.97.58-1.45-.12-.13-.24-.26-.35-.39.49-.09.99-.27,1.48-.27,2.28.04,4.56.19,6.84.2,1.7,0,3.39-.2,5.09-.2,8.33-.02,16.66-.02,24.99,0,1.09,0,2.17.23,3.26.34.91.09,1.5-.34,1.5-1.23-.02-3.16-.14-6.31-.19-9.47,0-.48.02-1,.17-1.45.3-.93.03-1.45-.95-1.44-1.07,0-2.14.22-3.22.22-10.04.02-20.08.01-30.12.01-1.22,0-2.45,0-3.74,0v-1.07c-.14-.07-.21-.1-.29-.13-.65-.28-.76,2.13-1.85.31-.31-.52-1.49-.49-2.25-.77-.14-.05-.26-.45-.21-.63.06-.18.35-.41.54-.41.56-.01,1.12.08,1.71.13-.03-.66-.06-1.27-.09-1.88,6.85-.01,13.71-.04,20.56-.04,7.31,0,14.62.02,21.94.04Z"/>
  <path class="cls-7" d="m395.19,190.01c.38.09.77.25,1.15.25,2.03.01,4.06-.09,6.08,0,1.16.05,1.39-.38,1.35-1.43-.09-2.52-.07-5.05-.1-7.57.04-.08.08-.15.12-.23h5.2v22.97c-.07.09-.13.18-.2.27-.33.05-.65.1-.98.15-.11-.02-.23-.03-.34-.05-.87-.03-1.75-.12-2.62-.08-.86.04-1.17-.26-1.15-1.14.05-2.5-.02-5,.03-7.49.02-1.04-.21-1.48-1.39-1.42-1.99.11-4,.07-5.99,0-.87-.03-1.18.17-1.15,1.09.06,2.58,0,5.16.06,7.74.02.9-.21,1.3-1.18,1.22-1.08-.08-2.17.03-3.24-.06-.31-.03-.82-.48-.82-.75-.04-7.44-.04-14.89-.04-22.4h5.2v6.67s-.08.06-.08.08c.01.07.05.13.07.19,0,.41,0,.82,0,1.23,0,.25,0,.51,0,.76Z"/>
  <path class="cls-7" d="m587.09,187.05c0,1.46,1,2.18,2.14,2.62,1.39.54,2.86.85,4.28,1.31,1.1.35,2.24.67,3.27,1.18,2.47,1.23,3.37,3.02,3.11,5.82-.03.11-.05.21-.08.32-.26,2.14-1.4,3.76-3.21,4.8-3.82,2.18-7.83,2.38-11.85.63-2.51-1.09-3.44-3.35-3.74-5.92-.09-.72.16-1.08.95-1.06,1.12.03,2.25-.07,3.37.02.34.03.87.45.93.77.33,1.61,1.13,2.74,2.76,3.21.25.06.51.12.76.17,2.48.12,3.96-.7,4.65-2.59.01-.12.02-.23.03-.35-.07-1.24-.79-1.99-1.9-2.36-1.46-.48-2.94-.88-4.4-1.36-.94-.31-1.89-.65-2.78-1.07-2.18-1.04-3.57-2.66-3.61-5.22-.04-2.71,1.12-4.83,3.47-6.04,3.6-1.85,7.35-1.96,11-.04,1.88.99,2.78,2.66,2.98,4.75.08.81-.22,1.17-1.04,1.12-.41-.03-.83-.02-1.25.02-1.48.13-2.9.36-3.09-1.85-.04-.51-1.05-.94-1.61-1.4-.09-.02-.18-.03-.27-.05-2.21-.44-3.98.41-4.75,2.27-.05.11-.09.21-.14.32Z"/>
  <path class="cls-7" d="m366.94,210.3c-.22,0-.43.01-.65.02-.33-.06-.67-.12-1-.18-.08-.03-.17-.06-.25-.09-1.71-.6-2.94-1.66-3.33-3.51-.04-.1-.07-.2-.11-.31.04-.25.08-.51.12-.76.1-.05.2-.09.29-.14,1.24,0,2.48.02,3.72.03.09.04.18.09.27.13.7,1.08,1.6,1.87,2.96,1.94.11,0,.22-.01.32-.02,2.19-.63,2.96-2.11,2.59-5.1-.2.13-.38.21-.52.33-3.19,2.69-7.73.96-9.4-2.27-1.63-3.15-1.25-7.73.87-10.24,1.67-1.98,5.68-3.47,8.64-1.11.23.15.47.29.7.44.09-.25.18-.49.27-.74.28-.24.55-.67.85-.69,1.19-.08,2.39-.03,3.7-.03,0,3.46.03,6.82,0,10.18-.03,2.28-.01,4.58-.25,6.84-.32,3.02-1.9,4.56-4.98,5.23-1.61.02-3.21.03-4.82.05Zm-1.18-14.46s.1.03.15.05c.03.54.03,1.08.11,1.61.24,1.5,1.46,2.74,2.74,2.82,1.46.09,2.48-.75,2.98-2.45.5-1.71.45-3.44-.49-4.92-.47-.74-1.51-1.54-2.29-1.55-.79,0-1.81.79-2.31,1.52-.55.8-.61,1.93-.88,2.91Z"/>
  <path class="cls-7" d="m638.3,204.28c-4.87.02-9.74.04-14.61.08-.78,0-1.23-.12-1.22-1.08.05-7.24.04-14.49.06-21.73,0-.12.04-.24.09-.45h15.63c0,1.08.06,2.19-.04,3.29-.02.23-.61.59-.94.59-2.66.05-5.33.03-7.99.03h-1.46c0,1.61-.04,3.13.05,4.65.01.22.65.56,1.01.57,2.5.06,4.99.07,7.49.03.85-.02,1.17.23,1.2,1.11.09,2.95.12,2.96-2.79,2.96-2.28,0-4.56,0-6.97,0,0,1.79-.04,3.52.05,5.25.01.24.68.64,1.04.65,2.79.06,5.58.09,8.37.02,1.02-.02,1.34.33,1.28,1.29-.05.83-.01,1.66-.01,2.5-.07.09-.14.17-.21.26Z"/>
  <path class="cls-7" d="m324.02,202.67c-2.81,2.24-5.99,2.53-8.5.61-2.96-2.27-3.14-5.55-2.69-8.85.4-2.97,1.84-5.36,4.9-6.34,2.13-.68,4.19-.49,6.01.96.13.17.25.34.47.63.03-.33.05-.49.07-.65.01-.18.03-.35.04-.53.03-.03.09-.06.08-.08-.01-.07-.05-.13-.07-.2v-7.16h4.95v23.06c-1.51,0-3.11,0-4.72,0-.03-.43-.03-.86-.1-1.29-.01-.08-.29-.12-.44-.18Zm-6.13-5.09c.37,2.52,1.25,3.46,3.31,3.55.11-.03.22-.06.32-.09.64-.48,1.52-.83,1.89-1.47,1.17-2.04,1.3-4.25.36-6.44-.62-1.46-1.78-2.11-3.13-1.93-1.16.16-2.4,1.38-2.6,2.7-.15,1.02-.15,2.06-.21,3.08.02.2.04.4.06.59Z"/>
  <path class="cls-7" d="m442.76,210.27c-1.59,0-3.19.02-4.78.02,0,0-.02-.02-.02-.02-.07-.18-.13-.35-.2-.53v-21.71c1.52,0,2.93-.02,4.33.02.19,0,.37.26.56.4-.03.47-.05.94-.08,1.41.1.03.2.05.29.08.29-.32.58-.63.87-.95,2.62-2.44,8.16-1.82,9.89,2.72,1.23,3.21,1.04,6.47-.66,9.51-1.64,2.93-5.13,4.03-8.2,2.72-.53-.22-1.04-.5-1.76-.86,0,2.01.02,3.89-.01,5.77,0,.47-.15.95-.23,1.42Zm.07-13.29c0,.12.01.23.02.35.06.37.09.75.18,1.11.32,1.34,1.48,2.49,2.56,2.58,1.5.12,2.58-.53,3.15-2.11.8-2.2.8-4.42-.36-6.51-.9-1.61-2.45-1.94-3.84-.75-.65.56-1.21,1.41-1.45,2.24-.29.97-.19,2.05-.26,3.09Z"/>
  <path class="cls-7" d="m479.24,204.3c-1,0-2,0-3,.02-.71.01-1.04-.22-1.03-1.02.03-4.87.03-9.75,0-14.62,0-.72.28-.97.95-.94.62.03,1.25.03,1.87,0,1.15-.04,2.32-.14,1.91,1.98.71-.48,1.11-.72,1.47-1,2.08-1.65,5.58-1.62,7.55.02,1.31,1.09,1.67,2.56,1.7,4.13.07,3.5.06,7,.12,10.5.01.73-.3.97-.97.91-.25-.02-.5-.02-.75-.02-3.34-.02-3.31-.02-3.35-3.42-.03-2.45-.09-4.91-.25-7.36-.09-1.45-.81-2.12-2.05-2.25-1.05-.11-2.31.61-2.62,1.73-.31,1.11-.51,2.28-.55,3.43-.09,2.58-.06,5.16-.07,7.74-.32.05-.63.1-.95.15Z"/>
  <path class="cls-7" d="m291.73,197.61c-3.07-.02-6.14-.05-9.21-.07-.11.16-.23.32-.34.47.25,2.04.97,3,2.57,3.4,1.08.27,2.05.02,2.6-.96.55-.97,1.26-1.35,2.34-1.19.45.07.91.01,1.37.02,1.54.02,1.74.34,1.1,1.78-.73,1.65-2,2.77-3.71,3.29-2.29.69-4.62.74-6.84-.19-.95-.4-1.89-1.11-2.55-1.91-2.45-2.98-2.28-9.41.32-12.25,2.31-2.52,5.25-3.14,8.44-2.2,3.08.9,4.44,3.33,4.88,6.32.17,1.11.04,2.27.05,3.4-.09.03-.18.06-.28.09-.15,0-.31.01-.46.02-.1,0-.2-.01-.3-.02Zm-9.18-3.45c.38.03.71.07,1.03.08,1.16,0,2.33.05,3.48-.05.23-.02.63-.6.59-.87-.24-1.58-1.33-2.48-2.69-2.33-1.55.18-2.48,1.33-2.41,3.18Z"/>
  <path class="cls-7" d="m346.68,188.52c0,.16,0,.33,0,.49,0,.25,0,.5,0,.74l.31-.14c1.43-1.18,2.93-2.12,4.91-2.1,3.13.04,5.15,1.55,5.37,4.66.26,3.77.19,7.56.21,11.34,0,.26-.49.72-.78.74-1.03.1-2.08,0-3.11.07-.91.06-1.11-.34-1.12-1.18-.03-3.16-.09-6.31-.22-9.47-.06-1.45-.8-2.22-2.05-2.42-1.11-.18-2.25.5-2.67,1.78-.3.89-.48,1.86-.51,2.8-.07,2.41-.07,4.82,0,7.23.03.98-.27,1.41-1.25,1.28-.1-.01-.19-.02-.29-.03-.87-.02-1.76.02-2.62-.11-.32-.05-.61-.46-.85-.76-.1-.13-.02-.4-.02-.61,0-4.95,0-9.91,0-15.04,1.58.11,3.11-.53,4.58.38.04.11.07.22.11.33Z"/>
  <path class="cls-7" d="m309.73,204.23c-.94,0-1.89-.05-2.83.02-.94.07-1.38-.33-1.46-1.22l-.23-.56c-.09.16-.18.31-.27.47-2.15,1.82-5.17,2.24-7.39,1.07-1.79-.95-2.26-2.62-2.47-4.44.02-.11.03-.22.05-.33.49-3.13,2.7-4.93,6.8-5.44.93-.11,1.89-.02,3.03-.02-.17-.67-.18-1.25-.45-1.66-.35-.54-.9-1.32-1.35-1.31-.71.02-1.42.58-2.11.96-.53.29-1,.83-1.55.91-.97.15-1.99.03-2.98.02-.19-.03-.37-.05-.56-.08,0,0-.05-.06-.05-.06-.01-.22-.03-.45-.04-.67.44-2.45,2-3.87,4.37-4.11,1.86-.19,3.82-.15,5.64.25,2.35.53,3.55,2.26,3.59,4.75.06,3.4.21,6.8.32,10.21-.01.41-.02.82-.04,1.23Zm-5.2-5.19c.03-.1.06-.2.09-.3-.18-.65-.18-1.66-.59-1.88-1.02-.53-3.16.33-3.66,1.42-.25.54-.25,1.44.05,1.91.3.47,1.13.87,1.7.83,1.16-.08,2.11-.7,2.39-1.98Z"/>
  <path class="cls-7" d="m567.48,204.32c-.83-.02-1.66-.07-2.49-.06-.74.01-1.02-.26-1.01-1.03.04-2.08.06-4.15,0-6.23-.04-1.49-.22-2.97-.33-4.46-.03-.11-.07-.22-.1-.32-.52-1.06-1.49-1.1-2.46-1-1.02.11-1.83.65-2.11,1.67-.24.91-.41,1.87-.43,2.81-.06,2.78-.03,5.56-.03,8.33-.06.08-.12.16-.18.24,0,0-.07.03-.07.03-.09,0-.18.02-.28.02-1.16,0-2.32-.04-3.48-.01-.73.02-1.03-.23-1.03-1,.02-4.9,0-9.8.03-14.7,0-.29.37-.8.6-.82,1.11-.08,2.24-.06,3.36.01.22.01.42.39.63.6-.03.36-.11.73-.06,1.09.02.17.28.32.43.48.16-.17.33-.35.49-.52,1.79-2.19,4.18-2.26,6.59-1.61,2.11.57,3.05,2.29,3.24,4.41.03.33.09.66.13.99,0,.1.02.2.03.29.02,3.31.02,6.62.07,9.93.02,1-.63.88-1.24.9-.1-.01-.19-.02-.29-.03Z"/>
  <path class="cls-7" d="m456.96,198.72c.46-2.41,2.07-3.74,4.29-4.38,1.14-.33,2.37-.37,3.55-.59.57-.11,1.57-.31,1.58-.53.05-.65-.13-1.47-.54-1.94-.36-.41-1.2-.71-1.73-.59-.57.13-1.02.8-1.53,1.22-.35.28-.71.71-1.1.76-.99.12-1.99.05-2.99.08-.87.02-1.08-.39-.9-1.18.42-1.91,1.67-3.07,3.45-3.59,2.54-.74,5.09-.81,7.51.48,1.54.82,2.5,2.05,2.53,3.86.05,2.62.07,5.24.16,7.86.04,1.28.19,2.56.29,3.83-2.17.69-3.73.29-4.89-1.3-1.93,2.15-4.3,2.47-6.89,1.51-1.57-.58-2.45-1.8-2.82-3.4-.04-.11-.07-.22-.11-.33,0-.48.01-.97.02-1.45.04-.1.08-.21.12-.31Zm6.74,2.44c.11-.03.22-.06.33-.1,1.55-.28,2.24-1.31,2.42-2.78-.02-.19-.03-.38-.05-.57-.06-.22-.13-.45-.19-.67-.25-.07-.5-.13-.75-.2-.14,0-.28,0-.42-.01-.11,0-.22.01-.33.02-.68.27-1.39.47-2.02.83-.73.42-1.08,1.06-.77,1.98.3.89.68,1.6,1.78,1.5Z"/>
  <path class="cls-7" d="m611.49,204.37c-.7-.03-1.41-.07-2.11-.08-1.65-.02-1.64-.01-1.64-1.61-.01-5.47-.04-10.95-.06-16.42,0-.09,0-.18,0-.27.16-.78-.18-1.02-.94-1-1.86.04-3.73.01-5.66.01v-3.94h18.87v3.89h-6.95c0,6.43,0,12.74,0,19.05-.07.09-.13.18-.2.27-.32.05-.65.1-.97.15-.11-.02-.23-.03-.34-.05Z"/>
  <path class="cls-7" d="m260.18,203.25c0-7.25-.01-14.51-.02-21.76.04-.16.07-.32.11-.48h5.4v18.99c1.81,0,3.46,0,5.1,0,1.21,0,2.42.05,3.62-.02.9-.05,1.17.32,1.13,1.16-.05.95-.01,1.91-.01,2.87-.06.09-.13.18-.19.27,0,0-.04.02-.04.02-.09.01-.19.02-.28.04-.16,0-.31-.01-.47-.02-.09,0-.18-.01-.28-.02-4.2.01-8.4.03-12.6.04-.62,0-1.42.21-1.46-.84,0-.08,0-.16,0-.25Z"/>
  <path class="cls-7" d="m421.26,199.31c.66-.01,1.33,0,1.99-.04,1.16-.07,2.13.01,2.83,1.24.29.51,1.25.65,1.9.96.09,0,.19,0,.28,0,.24-.06.55-.04.71-.18.46-.41,1.23-.91,1.21-1.35-.02-.55-.6-1.27-1.13-1.55-.87-.46-1.9-.59-2.84-.91-.98-.33-2.02-.59-2.89-1.11-2.6-1.57-2.8-5.17-.49-7.12,2.45-2.07,7.28-2.28,9.86-.43,1.23.89,1.83,2.07,1.81,3.71-1.34,0-2.58.03-3.81-.03-.24-.01-.57-.33-.69-.58-.45-1-1.32-1.37-2.25-1.16-.72.17-1.71.63-1.93,1.21-.35.91.68,1.28,1.42,1.53,1.02.35,2.07.61,3.11.91.12.03.24.07.36.1,2.75.77,4.43,2.43,4.48,4.41.06,2.4-1.81,4.72-4.53,5.45-2.26.61-4.53.61-6.72-.38-1.53-.69-2.57-1.8-2.96-3.47,0-.04.03-.08.02-.11-.02-.07-.06-.13-.09-.2-.04-.14-.08-.29-.12-.43.07-.09.15-.17.22-.26.08-.07.16-.14.24-.21Z"/>
  <path class="cls-7" d="m532.19,191.75c-.03.15-.06.31-.09.46-.12.07-.24.15-.35.22-.42,0-.83,0-1.25,0-.08,0-.17,0-.25,0-.25,0-.5,0-.75.01-.25,0-.5.01-.74.02-.35-.16-.84-.23-1.03-.5-.83-1.18-2.15-1.63-3.36-.94-.39.23-.88.7-.89,1.06,0,.36.46.92.85,1.08,1.11.45,2.3.72,3.43,1.11,1.02.35,2.1.62,2.99,1.18,2.52,1.57,2.87,4.67.87,6.88-2.67,2.95-8.55,3.26-11.53.61-1.07-.96-1.52-2.13-1.36-3.73,1.28,0,2.56-.05,3.83.03.31.02.61.46.89.73.44.41.87.84,1.3,1.27.1.03.21.06.31.09.49-.02,1.08.12,1.45-.1.59-.35,1.26-.85,1.48-1.44.32-.86-.55-1.22-1.2-1.45-1.45-.5-2.95-.86-4.4-1.37-2.84-.99-4.06-3.19-3.06-5.84.35-.93,1.18-1.85,2.03-2.39,2.22-1.38,4.71-1.63,7.22-.88,1.74.52,3.17,1.49,3.53,3.48.03.13.06.26.09.39Z"/>
  <path class="cls-7" d="m517.03,199.77c-.86,3.03-2.86,4.68-5.98,4.93-3.25.26-6.04-1.26-7.27-3.98-.82-1.82-1.17-3.72-.93-5.71.03-.11.05-.22.08-.33.48-6.05,6.17-8.31,10.69-6.38,2.2.94,3.55,3.1,3.31,5.46-1.3,0-2.63.07-3.94-.05-.37-.03-.78-.6-.99-1.01-.41-.81-.55-1.79-1.8-1.7-1.17.08-1.72.85-1.92,1.82-.48,2.35-.6,4.74.46,6.95.3.63,1.18,1.32,1.8,1.34.51.01,1.36-.89,1.49-1.5.27-1.32.97-1.53,2.09-1.4.98.12,1.97.16,2.95.24-.01.44-.02.88-.03,1.32Z"/>
  <path class="cls-7" d="m494.7,187.99c1.51-.08,3.03-.19,4.54-.22.17,0,.5.44.5.67.03,5.03.04,10.06,0,15.09,0,.26-.45.51-.7.76-.04.04-.16.01-.24,0-1.28-.05-3.01.39-3.71-.27-.67-.63-.33-2.4-.34-3.67-.04-4.03-.05-8.07-.07-12.1,0-.09.01-.18.02-.27Z"/>
  <path class="cls-7" d="m549.56,188.5c-.01,4.86-.05,9.72-.02,14.59,0,.9-.18,1.3-1.17,1.21-.95-.08-1.91-.02-2.87.02-.74.03-1.04-.23-1.03-1,.01-4.9-.02-9.81,0-14.71,0-.28.3-.8.48-.81,1.41-.06,2.82-.03,4.23,0,.13,0,.25.29.37.45,0,.08,0,.17,0,.25Z"/>
  <path class="cls-7" d="m416.48,204.32c-.87-.02-1.75.02-2.61-.11-.32-.05-.83-.48-.83-.74-.05-5.19-.04-10.38-.04-15.76,1.53,0,2.97-.03,4.4.03.21,0,.57.47.57.72.03,5.19.03,10.39.03,15.72-.45.06-.84.1-1.23.15-.1,0-.19-.02-.29-.03Z"/>
  <path class="cls-7" d="m336.5,204.35c-.75-.02-1.5-.07-2.24-.05-.73.02-1.03-.23-1.03-1.01.02-4.87.01-9.74-.02-14.61,0-.71.26-.96.94-.95,1,.02,2,0,3-.02.65-.02.86.26.86.9-.02,4.95,0,9.9-.04,14.86,0,.3-.47.6-.72.9-.25,0-.5-.01-.75-.02Z"/>
  <path class="cls-18" d="m618.49,132c-.76.06-.74-.45-.74-.98,0-2.85,0-5.71,0-8.56,0-8.3,0-16.6,0-24.9,0-.78-.12-1.56-.21-2.34-.09-.73.05-1.26.94-1.22.01,8.76.03,17.53.04,26.29,0,3.9-.01,7.81-.02,11.71Z"/>
  <path class="cls-18" d="m618.48,68c-.95-.14-.72-.88-.72-1.46,0-8.62,0-17.25-.02-25.87,0-1.03-.2-2.06-.21-3.09,0-.8-.31-1.81.93-2.07.01,9.01.03,18.02.04,27.02,0,1.83-.02,3.65-.03,5.48Z"/>
  <path class="cls-7" d="m333,181.06h5.23c0,1.24.04,2.43-.03,3.61-.01.21-.47.55-.73.57-1.2.06-2.4.09-3.6,0-.31-.03-.79-.53-.83-.85-.1-1.06-.04-2.14-.04-3.32Z"/>
  <path class="cls-7" d="m500,181.07c0,1.18.07,2.27-.04,3.33-.03.31-.53.8-.85.83-1.16.09-2.33.07-3.48-.03-.31-.03-.81-.46-.83-.74-.1-1.1-.04-2.22-.04-3.39h5.25Z"/>
  <path class="cls-7" d="m413,181.07h5.24c0,1.22.05,2.38-.04,3.52-.02.24-.51.62-.8.63-1.16.07-2.33.01-3.49.02-.69,0-.96-.29-.92-.99.04-1.03.01-2.07.01-3.19Z"/>
  <path class="cls-7" d="m544.51,181.05h5.25c0,1.23.04,2.42-.03,3.6-.01.22-.44.6-.69.61-1.24.05-2.49.06-3.73-.04-.29-.02-.73-.52-.76-.83-.09-1.06-.04-2.14-.04-3.34Z"/>
  <path class="cls-14" d="m672.33,199.16c.52-1.6,1.43-2.72,3.21-3.04,2.72-.5,4.43.67,4.87,3.47l-.63-.11c-.44-1.39-1.09-2.56-2.79-2.6-.43.07-.85.14-1.28.21-.15,0-.3,0-.45-.01-.1.05-.2.09-.3.14-1.73.8-2.37,1.91-2.03,3.51.24,1.12,1.12,2.1,1.92,2.13-.03-4.57.01-4.76,1.17-4.99v1.87c-.01.25-.02.51-.03.76-.28.85-.56,1.71-.87,2.64,1.08.53,2.04.65,2.87-.4,1.39.05,1.28-1.23,1.77-1.98.19.09.38.17.57.26-.64,2.27-1.87,3.18-4.32,3.18-.11-.01-.23-.03-.34-.04-1.77-.32-2.81-1.39-3.25-3.1-.04-.19-.08-.38-.12-.57,0-.32,0-.64,0-.96.01-.12.02-.23.03-.35Z"/>
  <path class="cls-18" d="m663.48,89.25c-1.11-.04-.92-1.02-.92-1.57,0-3.19.16-6.38.17-9.58,0-1.93-.15-3.85-.23-5.78-.03-.76.06-1.44,1-1.58,0,6.17-.01,12.33-.02,18.5Z"/>
  <path class="cls-6" d="m667.23,13.75c-.68.21-1.24.27-1.94-.22-.52-.37-1.44-.11-2.13-.31-.59-.17-1.11-.61-1.66-.93,1.86,0,3.72,0,5.73,0v1.46Z"/>
  <path class="cls-6" d="m592,12.3c-.28.32-.53.84-.86.91-1.02.19-2.07.21-3.1.3v-1.2c1.33,0,2.64,0,3.96,0Z"/>
  <path class="cls-2" d="m646.48,189c-.05-.65-.1-1.3-.15-1.95.02-.11.04-.22.06-.33.03-.08.06-.16.09-.24.16.02.32.04.48.06.17.66.34,1.32.5,1.98-.33.16-.66.33-.99.49Z"/>
  <path class="cls-11" d="m366.94,210.3c1.61-.02,3.21-.03,4.82-.05-.12.08-.25.15-.37.23-1.48-.06-2.97-.12-4.45-.18Z"/>
  <path class="cls-10" d="m662.2,186.68l.51-1.43c.07.02.15.03.22.05,0,.75,0,1.49,0,2.24-.24-.29-.49-.57-.73-.86Z"/>
  <path class="cls-27" d="m680.33,201.01c-.19-.09-.38-.17-.57-.26,0-.42.01-.84.02-1.27l.63.11c-.03.47-.05.95-.08,1.42Z"/>
  <path class="cls-10" d="m443.73,188.98c-.29.32-.58.63-.87.95-.1-.03-.2-.05-.29-.08.03-.47.05-.94.08-1.41.36.18.73.36,1.09.54Z"/>
  <path class="cls-20" d="m558.96,189.44c-.16.17-.33.35-.49.52-.15-.16-.4-.3-.43-.48-.05-.35.03-.72.06-1.09.39.26-.15,1.29.86,1.04Z"/>
  <path class="cls-18" d="m618.51,69.75c-.34-.07-.68-.14-1.01-.2l.07-.41c.3.04.6.07.9.11l.04.5Z"/>
  <path class="cls-11" d="m324.02,202.67c.15.06.42.1.44.18.07.42.07.86.1,1.29-.18-.49-.36-.98-.54-1.47Z"/>
  <path class="cls-25" d="m372.45,188.73c-.09.25-.18.49-.27.74-.23-.15-.47-.29-.7-.44.32-.1.65-.2.97-.3Z"/>
  <path class="cls-18" d="m618.5,133.75c-.22-.11-.44-.22-.66-.32.22-.14.44-.28.65-.43,0,.25,0,.5,0,.75Z"/>
  <path class="cls-11" d="m347,189.61l-.31.14c0-.25,0-.5,0-.74.1.2.21.4.31.6Z"/>
  <path class="cls-11" d="m654.49,197.03c-.15-.36-.3-.71-.45-1.07.15.36.3.71.45,1.07Z"/>
  <path class="cls-10" d="m517.03,199.77c.01-.44.02-.88.03-1.32-.01.44-.02.88-.03,1.32Z"/>
  <path class="cls-25" d="m304.93,202.94c.09-.16.18-.31.27-.47.08.19.15.38.23.56-.17-.03-.34-.06-.5-.09Z"/>
  <path class="cls-10" d="m309.73,204.23c.01-.41.02-.82.04-1.23-.01.41-.02.82-.04,1.23Z"/>
  <path class="cls-5" d="m110.49,210.13c.34-.04.68-.07,1.02-.11-.34.04-.68.07-1.02.11Z"/>
  <path class="cls-8" d="m479.24,204.3c.32-.05.63-.1.95-.15-.32.05-.63.1-.95.15Z"/>
  <path class="cls-25" d="m282.18,198c.11-.16.23-.32.34-.47-.11.16-.23.32-.34.47Z"/>
  <path class="cls-20" d="m324.28,189.04c-.02.16-.03.31-.07.65-.22-.29-.34-.46-.47-.63.18,0,.36-.01.54-.02Z"/>
  <path class="cls-20" d="m395.19,190.01c0-.25,0-.51,0-.76,0,.25,0,.51,0,.76Z"/>
  <path class="cls-25" d="m589.77,200.92c-.25-.06-.51-.12-.76-.17.25.06.51.12.76.17Z"/>
  <path class="cls-13" d="m336.5,204.35c.25,0,.5.01.75.02-.25,0-.5-.01-.75-.02Z"/>
  <path class="cls-8" d="m.92,109.74c0,.26,0,.51,0,.77,0-.26,0-.51,0-.77Z"/>
  <path class="cls-23" d="m528.75,192.48c.25,0,.5-.01.74-.02-.25,0-.5.01-.74.02Z"/>
  <path class="cls-17" d="m513.97,98.48c.18-.05.36-.11.53-.16-.18.05-.36.11-.53.16Z"/>
  <path class="cls-19" d="m485.01,12.22c-.17,0-.35-.02-.52-.03.17,0,.35.02.52.03Z"/>
  <path class="cls-26" d="m537.7,98.18c.19-.04.38-.07.57-.11-.19.04-.38.07-.57.11Z"/>
  <path class="cls-8" d="m.92,112.99c0,.17,0,.35,0,.52,0-.17,0-.35,0-.52Z"/>
  <path class="cls-2" d="m260.27,181.01c-.04.16-.07.32-.11.48.04-.16.07-.32.11-.48Z"/>
  <path class="cls-3" d="m292.45,159.1c.19.03.38.07.57.1-.19-.03-.38-.07-.57-.1Z"/>
  <path class="cls-5" d="m104.96,210.06c.19.02.38.05.58.07-.1.05-.19.09-.29.14-.1-.07-.19-.14-.29-.21Z"/>
  <path class="cls-25" d="m437.76,209.74c.07.18.13.35.2.53-.07-.18-.13-.35-.2-.53Z"/>
  <path class="cls-8" d="m667.62,204.36c.13-.12.26-.24.38-.37-.13.12-.26.24-.38.37Z"/>
  <path class="cls-1" d="m110.18,124.22c.01.18.03.36.04.54-.01-.18-.03-.36-.04-.54Z"/>
  <path class="cls-1" d="m147.35,128.54c.02-.19.05-.38.07-.57-.02.19-.05.38-.07.57Z"/>
  <path class="cls-1" d="m147.29,130.27c0-.18.01-.37.02-.55,0,.18-.01.37-.02.55Z"/>
  <path class="cls-3" d="m672.3,200.47c.04.19.08.38.12.57-.04-.19-.08-.38-.12-.57Z"/>
  <path class="cls-3" d="m301.73,32.22c.18-.06.37-.11.55-.17-.18.06-.37.11-.55.17Z"/>
  <path class="cls-10" d="m421.02,199.52c-.07.09-.15.17-.22.26.07-.16.15-.31.22-.47,0,.07,0,.14,0,.21Z"/>
  <path class="cls-23" d="m641.76,181.05c-.07.15-.14.3-.22.44.07-.15.14-.3.22-.44Z"/>
  <path class="cls-1" d="m145.35,152.54c.04-.19.07-.37.11-.56-.04.19-.07.37-.11.56Z"/>
  <path class="cls-19" d="m367.99,12.06c-.16.07-.32.14-.48.21.16-.07.32-.14.48-.21Z"/>
  <path class="cls-20" d="m295.94,192.62c.19.03.37.05.56.08-.19-.03-.37-.05-.56-.08Z"/>
  <path class="cls-23" d="m531.75,192.44c.12-.07.24-.15.35-.22-.12.07-.24.15-.35.22Z"/>
  <path class="cls-20" d="m295.85,191.89c.01.22.03.45.04.67-.02-.22-.03-.45-.04-.67Z"/>
  <path class="cls-19" d="m434.01,12.22c-.17,0-.35-.02-.52-.03.17,0,.35.02.52.03Z"/>
  <path class="cls-19" d="m367.44,12.49c0,.17-.01.35-.02.52,0-.17.01-.35.02-.52Z"/>
  <path class="cls-3" d="m259.92,54.71c.03.07.07.14.08.22,0,.03-.03.07-.05.11-.01-.11-.02-.22-.03-.32Z"/>
  <path class="cls-10" d="m61.48,145.95c.1,0,.19.02.29.03-.1,0-.19-.02-.29-.03Z"/>
  <path class="cls-10" d="m60.47,145.81c.1,0,.21.02.31.02-.1,0-.21-.02-.31-.02Z"/>
  <path class="cls-11" d="m58.22,145.69c.1,0,.2.01.3.02-.1,0-.2-.01-.3-.02Z"/>
  <path class="cls-23" d="m57.2,85.01c-.03-.06-.06-.13-.08-.19,0-.02.05-.05.08-.08,0,.09,0,.18,0,.27Z"/>
  <path class="cls-11" d="m57.22,145.57c.11.01.21.03.32.04-.11-.01-.21-.03-.32-.04Z"/>
  <path class="cls-11" d="m51.98,145.03c.1.02.21.04.31.05-.1-.02-.21-.04-.31-.05Z"/>
  <path class="cls-10" d="m662,187.25c.02-.1.05-.2.07-.3-.02.1-.05.2-.07.3Z"/>
  <path class="cls-23" d="m57.2,84.01c-.03-.06-.06-.13-.08-.19,0-.02.05-.05.08-.08,0,.09,0,.18,0,.27Z"/>
  <path class="cls-20" d="m395.2,188.01c-.03-.06-.06-.13-.07-.19,0-.02.05-.05.08-.08,0,.09,0,.18,0,.27Z"/>
  <path class="cls-23" d="m57.2,83.01c-.03-.06-.06-.13-.08-.19,0-.02.05-.05.08-.08,0,.09,0,.18,0,.27Z"/>
  <path class="cls-10" d="m67.47,146.46c.1,0,.19.02.29.03-.1,0-.19-.02-.29-.03Z"/>
  <path class="cls-19" d="m483.76,12.13c-.09.03-.18.06-.28.08.09-.03.18-.06.28-.08Z"/>
  <path class="cls-13" d="m494.7,187.99c0,.09-.01.18-.02.27-.03-.07-.06-.13-.07-.2,0-.02.06-.05.09-.07Z"/>
  <path class="cls-20" d="m324.33,188.24c.03.07.06.13.07.2,0,.02-.05.05-.08.08,0-.09,0-.18,0-.27Z"/>
  <path class="cls-11" d="m346.68,188.52c-.04-.11-.07-.22-.11-.33.04.11.07.22.11.33Z"/>
  <path class="cls-2" d="m549.56,188.5c0-.08,0-.17,0-.25.03.06.06.12.08.18,0,.02-.05.05-.08.07Z"/>
  <path class="cls-10" d="m662.88,188.2c0,.11-.02.23-.03.34,0-.11.02-.23.03-.34Z"/>
  <path class="cls-23" d="m57.2,82.01c-.03-.06-.06-.13-.08-.19,0-.02.05-.05.08-.08,0,.09,0,.18,0,.27Z"/>
  <path class="cls-23" d="m57.2,81.01c-.03-.06-.07-.13-.09-.19,0-.02.05-.05.08-.08,0,.09,0,.18,0,.27Z"/>
  <path class="cls-23" d="m57.14,77.01c-.02-.07-.05-.13-.06-.2,0-.02.06-.05.09-.07,0,.09-.02.18-.03.28Z"/>
  <path class="cls-23" d="m94.35,142.89c-.12-.02-.24-.05-.37-.07.12.02.24.05.37.07Z"/>
  <path class="cls-10" d="m57.28,74.01c0-.09,0-.19,0-.28.02.07.05.13.06.2,0,.02-.05.05-.07.08Z"/>
  <path class="cls-23" d="m93.01,142.79c-.09,0-.18,0-.27,0,.09,0,.18,0,.27,0Z"/>
  <path class="cls-10" d="m37.96,142.9c.1.02.2.05.3.07-.1-.02-.2-.05-.3-.07Z"/>
  <path class="cls-1" d="m146.97,109.02c-.03-.07-.07-.13-.09-.21,0-.02.04-.06.07-.09l.02.3Z"/>
  <path class="cls-19" d="m398,12.25c-.07-.07-.15-.15-.22-.22.07.07.15.15.22.22Z"/>
  <path class="cls-19" d="m368.77,12.17c-.09,0-.19-.01-.28-.02.09,0,.19.01.28.02Z"/>
  <path class="cls-23" d="m532.19,191.75c-.03-.13-.06-.26-.09-.39.03.13.06.26.09.39Z"/>
  <path class="cls-5" d="m98.03,192.12c-.1-.02-.2-.03-.31-.05.1.02.2.03.31.05Z"/>
  <path class="cls-5" d="m99.01,192.02c-.09.01-.19.03-.28.04.09-.01.19-.03.28-.04Z"/>
  <path class="cls-10" d="m587.09,187.05c.04-.11.09-.21.14-.32-.04.11-.09.21-.14.32Z"/>
  <path class="cls-11" d="m87.27,142.56c-.09,0-.19-.02-.28-.02.09,0,.19.02.28.02Z"/>
  <path class="cls-23" d="m530.25,192.44c.08,0,.17,0,.25,0-.08,0-.17,0-.25,0Z"/>
  <path class="cls-23" d="m57.2,86.01c-.03-.06-.06-.13-.08-.19,0-.02.05-.05.08-.08,0,.09,0,.18,0,.27Z"/>
  <path class="cls-10" d="m563.55,192.23c.03.11.07.22.1.32-.03-.11-.07-.22-.1-.32Z"/>
  <path class="cls-10" d="m93.47,146.32c.1,0,.2-.02.31-.02-.1,0-.2.02-.31.02Z"/>
  <path class="cls-11" d="m568.94,193.52c0-.1-.02-.2-.03-.29,0,.1.02.2.03.29Z"/>
  <path class="cls-20" d="m502.93,194.68c-.03.11-.05.22-.08.33.03-.11.05-.22.08-.33Z"/>
  <path class="cls-10" d="m85.26,142.48c-.09,0-.18,0-.27-.01.09,0,.18,0,.27.01Z"/>
  <path class="cls-10" d="m140.98,69.04c.1.02.21.04.31.06-.1-.02-.21-.04-.31-.06Z"/>
  <path class="cls-11" d="m127.27,64.8c-.1,0-.19.01-.29.02.1,0,.19-.01.29-.02Z"/>
  <path class="cls-10" d="m84.28,142.41c-.11-.02-.22-.04-.33-.06.11.02.22.04.33.06Z"/>
  <path class="cls-10" d="m81.29,142.15c-.11-.02-.22-.04-.33-.06.11.02.22.04.33.06Z"/>
  <path class="cls-13" d="m607.68,185.99c0,.09,0,.18,0,.27-.03-.06-.07-.12-.08-.19,0-.02.05-.05.08-.08Z"/>
  <path class="cls-19" d="m308.23,159.34c.09,0,.19-.01.28-.02-.09,0-.19.01-.28.02Z"/>
  <path class="cls-11" d="m76.52,141.54c-.09,0-.18-.02-.27-.02.09,0,.18.02.27.02Z"/>
  <path class="cls-11" d="m75.52,141.47c-.1-.01-.2-.03-.31-.04.1.01.2.03.31.04Z"/>
  <path class="cls-25" d="m291.73,197.61c.1,0,.2.01.3.02-.1,0-.2-.01-.3-.02Z"/>
  <path class="cls-25" d="m292.48,197.6c.09-.03.18-.06.28-.09-.09.03-.18.06-.28.09Z"/>
  <path class="cls-23" d="m57.18,87.01c-.03-.07-.06-.13-.07-.2,0-.02.05-.05.08-.08,0,.09,0,.18-.01.27Z"/>
  <path class="cls-10" d="m73.29,141.1c-.1-.02-.21-.04-.31-.06.1.02.21.04.31.06Z"/>
  <path class="cls-25" d="m594.45,197.99c-.01.12-.02.23-.03.35.01-.12.02-.23.03-.35Z"/>
  <path class="cls-11" d="m599.8,198.3c.03-.11.05-.21.08-.32-.03.11-.05.21-.08.32Z"/>
  <path class="cls-1" d="m111.04,137.48c0,.1.02.21.03.31,0-.1-.02-.21-.03-.31Z"/>
  <path class="cls-25" d="m591.97,184.46c.09.02.18.03.27.05-.09-.02-.18-.03-.27-.05Z"/>
  <path class="cls-3" d="m541.46,97.89c.11-.01.23-.03.34-.04-.11.01-.23.03-.34.04Z"/>
  <path class="cls-11" d="m456.96,198.72c-.04.1-.08.21-.12.31.04-.1.08-.21.12-.31Z"/>
  <path class="cls-3" d="m300.28,10.06c-.11.01-.22.02-.33.03.11-.01.22-.02.33-.03Z"/>
  <path class="cls-25" d="m295.13,199.23c-.02.11-.03.22-.05.33.02-.11.03-.22.05-.33Z"/>
  <path class="cls-1" d="m145.03,155.02c0-.1.02-.2.03-.3.02.07.04.14.05.21,0,.03-.05.06-.07.09Z"/>
  <path class="cls-20" d="m421.02,199.52c0-.07,0-.14,0-.21.08,0,.16,0,.24,0-.08.07-.16.14-.24.21Z"/>
  <path class="cls-22" d="m672.33,199.16c-.01.12-.02.23-.03.35.01-.12.02-.23.03-.35Z"/>
  <path class="cls-3" d="m310.2,32.35l.32.12-.32-.12Z"/>
  <path class="cls-16" d="m367.4,156.5c0,.08,0,.17,0,.25-.03-.06-.07-.12-.09-.18,0-.01.05-.05.08-.07Z"/>
  <path class="cls-10" d="m420.92,200.21c.03.06.07.13.09.2,0,.03-.02.07-.02.11-.04-.07-.08-.13-.11-.2,0-.03.03-.07.04-.1Z"/>
  <path class="cls-11" d="m456.83,200.48c.04.11.07.22.11.33-.04-.11-.07-.22-.11-.33Z"/>
  <path class="cls-23" d="m57.15,88.01c-.03-.07-.06-.13-.07-.2,0-.02.06-.05.09-.07,0,.09-.01.18-.02.28Z"/>
  <path class="cls-26" d="m303.69,31.89c.12-.01.23-.03.35-.04-.12.01-.23.03-.35.04Z"/>
  <path class="cls-3" d="m349.77,131.52c.03-.11.06-.21.09-.32-.03.11-.06.21-.09.32Z"/>
  <path class="cls-27" d="m462.49,156.93c.06-.06.12-.13.18-.19-.06.06-.12.13-.18.19Z"/>
  <path class="cls-25" d="m428.27,201.45c-.09,0-.19,0-.28,0,.09,0,.19,0,.28,0Z"/>
  <path class="cls-10" d="m525.06,201.35c-.1-.03-.21-.06-.31-.09.1.03.21.06.31.09Z"/>
  <path class="cls-27" d="m513.49,156.93c.06-.06.12-.13.18-.19-.06.06-.12.13-.18.19Z"/>
  <path class="cls-3" d="m319.99,125.49c-.01.09-.03.19-.04.28.01-.09.03-.19.04-.28Z"/>
  <path class="cls-27" d="m668.49,156.93c.06-.06.12-.13.18-.19-.06.06-.12.13-.18.19Z"/>
  <path class="cls-2" d="m260.18,203.25c0,.08,0,.16,0,.25-.03-.06-.06-.12-.07-.18,0-.02.05-.05.08-.07Z"/>
  <path class="cls-8" d="m275.31,204.28c.06-.09.13-.18.19-.27-.06.09-.13.18-.19.27Z"/>
  <path class="cls-8" d="m408.8,204.27c.07-.09.13-.18.2-.27-.07.09-.13.18-.2.27Z"/>
  <path class="cls-13" d="m558.34,204.28c.06-.08.12-.16.18-.24-.06.08-.12.16-.18.24Z"/>
  <path class="cls-8" d="m612.8,204.27c.07-.09.13-.18.2-.27-.07.09-.13.18-.2.27Z"/>
  <path class="cls-25" d="m638.3,204.28c.07-.09.14-.17.21-.26-.07.09-.14.17-.21.26Z"/>
  <path class="cls-8" d="m662.76,203.99c.08.09.16.18.24.27-.08-.09-.16-.18-.24-.27Z"/>
  <path class="cls-13" d="m403.79,181.03c-.04.08-.08.15-.12.23.04-.08.08-.15.12-.23Z"/>
  <path class="cls-22" d="m675.67,204.15c.11.01.23.03.34.04-.11-.01-.23-.03-.34-.04Z"/>
  <path class="cls-8" d="m274.24,204.3c.09,0,.18.01.28.02-.09,0-.18-.01-.28-.02Z"/>
  <path class="cls-8" d="m274.99,204.34c.09-.01.19-.02.28-.04-.09.01-.19.02-.28.04Z"/>
  <path class="cls-3" d="m257.92,123.71c.02.08.06.15.07.23,0,.03-.04.07-.06.1,0-.11,0-.22,0-.33Z"/>
  <path class="cls-25" d="m345.48,204.33c.1.01.19.02.29.03-.1-.01-.19-.02-.29-.03Z"/>
  <path class="cls-8" d="m407.49,204.37c.11.02.23.03.34.05-.11-.02-.23-.03-.34-.05Z"/>
  <path class="cls-25" d="m416.48,204.32c.1,0,.19.02.29.03-.1,0-.19-.02-.29-.03Z"/>
  <path class="cls-1" d="m110.07,123.46c.02.11.04.22.06.33-.02-.11-.04-.22-.06-.33Z"/>
  <path class="cls-13" d="m557.99,204.34c.09,0,.18-.02.28-.02-.09,0-.18.02-.28.02Z"/>
  <path class="cls-25" d="m567.48,204.32c.1.01.19.02.29.03-.1-.01-.19-.02-.29-.03Z"/>
  <path class="cls-8" d="m611.49,204.37c.11.02.23.03.34.05-.11-.02-.23-.03-.34-.05Z"/>
  <path class="cls-13" d="m645.24,204.29c.09,0,.18,0,.27.01-.09,0-.18,0-.27-.01Z"/>
  <path class="cls-8" d="m666.49,204.37c.11.02.23.03.34.05-.11-.02-.23-.03-.34-.05Z"/>
  <path class="cls-20" d="m362.01,205.34c-.1.05-.2.09-.29.14.1-.05.2-.09.29-.14Z"/>
  <path class="cls-20" d="m366.01,205.49c-.09-.04-.18-.09-.27-.13.09.04.18.09.27.13Z"/>
  <path class="cls-20" d="m361.6,206.24c.04.1.07.2.11.31-.04-.1-.07-.2-.11-.31Z"/>
  <path class="cls-10" d="m369.29,207.42c-.11,0-.22.01-.32.02.11,0,.22-.01.32-.02Z"/>
  <path class="cls-3" d="m284.95,157.86c.11.03.22.07.33.1-.11-.03-.22-.07-.33-.1Z"/>
  <path class="cls-26" d="m312.45,158.93c.11-.01.22-.03.33-.04-.11.01-.22.03-.33.04Z"/>
  <path class="cls-1" d="m147.46,119.02c0-.1-.02-.2-.03-.31,0,.1.02.2.03.31Z"/>
  <path class="cls-26" d="m309.98,159.22c.1-.02.2-.04.3-.05-.1.02-.2.04-.3.05Z"/>
  <path class="cls-19" d="m365.04,210.06c.08.03.17.06.25.09-.08-.03-.17-.06-.25-.09Z"/>
  <path class="cls-1" d="m111.09,166.21c-.01.11-.02.22-.04.33.01-.11.02-.22.04-.33Z"/>
  <path class="cls-26" d="m258,112c-.1.05-.2.1-.3.15.1-.05.2-.1.3-.15Z"/>
  <path class="cls-19" d="m432.76,12.13c-.09.03-.18.06-.28.08.09-.03.18-.06.28-.08Z"/>
  <path class="cls-17" d="m536.24,98.32c.09,0,.18-.01.27-.02-.09,0-.18.01-.27.02Z"/>
  <path class="cls-10" d="m66.46,146.37c.11.01.23.02.34.03-.11-.01-.23-.02-.34-.03Z"/>
  <path class="cls-5" d="m108.52,210.2c.41-.01.82-.03,1.23-.04-.41.01-.82.03-1.23.04Z"/>
  <path class="cls-5" d="m107.52,210.24c.07,0,.14,0,.21,0,0,0-.11.03-.11.03l-.11-.03Z"/>
  <path class="cls-9" d="m513.77,55.16c0-6.33.02-12.65-.02-18.98,0-1.05.21-1.45,1.37-1.43,5.28.1,10.59-.14,15.85.21,6.49.43,10.91,3.93,12.83,10.24,2.22,7.31,2.46,14.57-1.06,21.6-2.17,4.33-5.43,7.45-10.29,8.52-1.45.32-2.97.39-4.46.41-4.29.04-8.58-.03-12.86,0-1.03,0-1.37-.29-1.36-1.35.04-6.41.02-12.82.02-19.23,0,0,0,0-.01,0Z"/>
  <path class="cls-18" d="m614.65,36.96c2.17,1,2.19,1.05,1.88,3.16-.06.41-.03.83-.03,1.25,0,8.74,0,17.49-.02,26.23,0,.45-.19.94-.45,1.31-.09.12-.96-.09-.97-.18-.04-.65-.19-1.62.15-1.88.75-.57.7-.79.09-1.39-.34-.34-.53-.98-.54-1.49-.03-7.58-.02-15.15-.03-22.73,0-.86-.17-1.73-.21-2.59-.02-.5.07-1.01.12-1.68Z"/>
  <path class="cls-18" d="m616.59,71.56q-1.2.09-.84-1.46c.34.59.57.99.84,1.46Z"/>
  <path class="cls-18" d="m616.19,30.56c-.15.06-.29.17-.34.13-.1-.06-.14-.19-.21-.3.1-.03.22-.1.31-.08.08.02.14.13.24.25Z"/>
  <path class="cls-18" d="m651.4,28.43c-.03.07-.06.14-.09.21-.07-.03-.18-.04-.2-.09-.02-.05.05-.13.08-.2.07.03.14.06.21.09Z"/>
  <path class="cls-18" d="m640.18,28.35c.07.03.18.05.2.1.02.05-.05.13-.08.2-.07-.03-.18-.05-.2-.1-.02-.05.05-.13.08-.2Z"/>
  <path class="cls-18" d="m626.41,28.44c-.03.07-.05.18-.1.2-.05.02-.13-.05-.2-.08.03-.07.04-.18.09-.2.05-.02.13.05.2.08Z"/>
  <path class="cls-18" d="m652.41,28.57c-.07.03-.16.09-.21.07-.05-.02-.06-.13-.09-.2.07-.03.16-.09.21-.07.05.02.06.13.09.2Z"/>
  <path class="cls-18" d="m637.31,28.66c-.07-.03-.18-.05-.2-.1-.02-.05.05-.13.08-.2.07.03.18.04.2.09.02.05-.05.13-.08.2Z"/>
  <path class="cls-18" d="m653.18,28.35c.07.03.18.05.2.1.02.05-.05.13-.08.2-.07-.03-.18-.05-.2-.1-.02-.05.05-.13.08-.2Z"/>
  <path class="cls-18" d="m654.18,28.35c.07.03.18.05.2.1.02.05-.05.13-.08.2-.07-.03-.18-.05-.2-.1-.02-.05.05-.13.08-.2Z"/>
  <path class="cls-18" d="m655.4,28.43c-.03.07-.05.18-.1.2-.05.02-.13-.05-.2-.08.03-.07.05-.18.1-.2.05-.02.13.05.2.08Z"/>
  <path class="cls-18" d="m636.18,28.35c.07.03.14.06.21.09-.03.07-.04.18-.09.2-.05.02-.13-.05-.2-.08.03-.07.06-.14.09-.21Z"/>
  <path class="cls-18" d="m656.31,28.66c-.07-.03-.18-.05-.2-.1-.02-.05.05-.13.08-.2.07.03.18.04.2.09.02.05-.05.13-.08.2Z"/>
  <path class="cls-18" d="m657.31,28.66c-.07-.03-.18-.05-.2-.1-.02-.05.05-.13.08-.2.07.03.18.04.2.09.02.05-.05.13-.08.2Z"/>
  <path class="cls-18" d="m658.41,28.57c-.07.03-.16.09-.21.07-.05-.02-.06-.13-.09-.2.07-.03.16-.09.21-.07.05.02.06.13.09.2Z"/>
  <path class="cls-18" d="m659.18,28.35c.07.03.14.06.21.09-.03.07-.04.18-.09.2-.05.02-.13-.05-.2-.08.03-.07.06-.14.09-.21Z"/>
  <path class="cls-18" d="m642.18,28.35c.07.03.18.05.2.1.02.05-.05.13-.08.2-.07-.03-.18-.05-.2-.1-.02-.05.05-.13.08-.2Z"/>
  <path class="cls-18" d="m649.4,28.43c-.03.07-.06.14-.09.21-.07-.03-.18-.04-.2-.09-.02-.05.05-.13.08-.2.07.03.14.06.21.09Z"/>
  <path class="cls-18" d="m648.18,28.35c.07.03.14.06.21.09-.03.07-.04.18-.09.2-.05.02-.13-.05-.2-.08.03-.07.06-.14.09-.21Z"/>
  <path class="cls-18" d="m635.4,28.43c-.03.07-.06.14-.09.21-.07-.03-.18-.04-.2-.09-.02-.05.05-.13.08-.2.07.03.14.06.21.09Z"/>
  <path class="cls-18" d="m647.18,28.35c.07.03.18.05.2.1.02.05-.05.13-.08.2-.07-.03-.18-.05-.2-.1-.02-.05.05-.13.08-.2Z"/>
  <path class="cls-18" d="m646.18,28.35c.07.03.18.05.2.1.02.05-.05.13-.08.2-.07-.03-.18-.05-.2-.1-.02-.05.05-.13.08-.2Z"/>
  <path class="cls-18" d="m643.4,28.43c-.03.07-.06.14-.09.21-.07-.03-.18-.04-.2-.09-.02-.05.05-.13.08-.2.07.03.14.06.21.09Z"/>
  <path class="cls-18" d="m645.41,28.57c-.07.03-.16.09-.21.07-.05-.02-.06-.13-.09-.2.07-.03.16-.09.21-.07.05.02.06.13.09.2Z"/>
  <path class="cls-18" d="m639.41,28.44c-.03.07-.05.18-.1.2-.05.02-.13-.05-.2-.08.03-.07.04-.18.09-.2.05-.02.13.05.2.08Z"/>
  <path class="cls-18" d="m644.4,28.43c-.03.07-.06.14-.09.21-.07-.03-.18-.04-.2-.09-.02-.05.05-.13.08-.2.07.03.14.06.21.09Z"/>
  <path class="cls-18" d="m634.31,28.66c-.07-.03-.18-.05-.2-.1-.02-.05.05-.13.08-.2.07.03.18.04.2.09.02.05-.05.13-.08.2Z"/>
  <path class="cls-18" d="m641.18,28.35c.07.03.18.05.2.1.02.05-.05.13-.08.2-.07-.03-.18-.05-.2-.1-.02-.05.05-.13.08-.2Z"/>
  <path class="cls-18" d="m625.18,28.35c.07.03.18.05.2.1.02.05-.05.13-.08.2-.07-.03-.18-.05-.2-.1-.02-.05.05-.13.08-.2Z"/>
  <path class="cls-18" d="m650.1,28.57c.03-.07.05-.18.1-.2.05-.02.13.05.2.08-.03.07-.05.18-.1.2-.05.02-.13-.05-.2-.08Z"/>
  <path class="cls-18" d="m627.1,28.57c.03-.07.05-.18.1-.2.05-.02.13.05.2.08-.03.07-.05.18-.1.2-.05.02-.13-.05-.2-.08Z"/>
  <path class="cls-18" d="m628.18,28.35c.07.03.14.06.21.09-.03.07-.04.18-.09.2-.05.02-.13-.05-.2-.08.03-.07.06-.14.09-.21Z"/>
  <path class="cls-18" d="m629.4,28.43c-.03.07-.05.18-.1.2-.05.02-.13-.05-.2-.08.03-.07.05-.18.1-.2.05-.02.13.05.2.08Z"/>
  <path class="cls-18" d="m630.1,28.57c.03-.07.05-.18.1-.2.05-.02.13.05.2.08-.03.07-.05.18-.1.2-.05.02-.13-.05-.2-.08Z"/>
  <path class="cls-18" d="m631.31,28.66c-.07-.03-.18-.05-.2-.1-.02-.05.05-.13.08-.2.07.03.18.04.2.09.02.05-.05.13-.08.2Z"/>
  <path class="cls-18" d="m632.18,28.35c.07.03.18.05.2.1.02.05-.05.13-.08.2-.07-.03-.18-.05-.2-.1-.02-.05.05-.13.08-.2Z"/>
  <path class="cls-18" d="m633.4,28.43c-.03.07-.05.18-.1.2-.05.02-.13-.05-.2-.08.03-.07.05-.18.1-.2.05-.02.13.05.2.08Z"/>
  <path class="cls-18" d="m638.18,28.35c.07.03.14.06.21.09-.03.07-.04.18-.09.2-.05.02-.13-.05-.2-.08.03-.07.06-.14.09-.21Z"/>
  <path class="cls-6" d="m665.18,18.07c.72.95.82,8.21,0,9.38v-9.38Z"/>
  <path class="cls-11" d="m646.97,186.53c-.16-.02-.32-.04-.48-.06.08-.12.15-.25.23-.37.09.14.17.29.26.43Z"/>
  <path class="cls-11" d="m646.39,186.71c-.02.11-.04.22-.06.33.02-.11.04-.22.06-.33Z"/>
  <path class="cls-9" d="m365.76,195.84c.27-.99.34-2.11.88-2.91.5-.73,1.52-1.52,2.31-1.52.78,0,1.82.81,2.29,1.55.94,1.48.99,3.21.49,4.92-.5,1.71-1.52,2.54-2.98,2.45-1.27-.08-2.5-1.32-2.74-2.82-.08-.53-.08-1.07-.11-1.61-.05-.02-.1-.03-.15-.05Z"/>
  <path class="cls-9" d="m317.83,196.98c.07-1.03.06-2.07.21-3.08.2-1.32,1.44-2.54,2.6-2.7,1.35-.19,2.5.46,3.13,1.93.93,2.19.81,4.4-.36,6.44-.37.64-1.24.99-1.89,1.47-.11.03-.22.06-.32.09-2.06-.09-2.94-1.03-3.31-3.55-.02-.2-.04-.4-.06-.59Z"/>
  <path class="cls-25" d="m317.83,196.98c.02.2.04.4.06.59-.02-.2-.04-.4-.06-.59Z"/>
  <path class="cls-10" d="m321.2,201.13c.11-.03.22-.06.32-.09-.11.03-.22.06-.32.09Z"/>
  <path class="cls-9" d="m442.83,196.98c.07-1.03-.03-2.12.26-3.09.24-.83.79-1.68,1.45-2.24,1.4-1.2,2.95-.87,3.84.75,1.16,2.09,1.15,4.31.36,6.51-.57,1.58-1.64,2.22-3.15,2.11-1.08-.08-2.24-1.24-2.56-2.58-.09-.36-.12-.74-.18-1.11,0-.12-.01-.23-.02-.35Z"/>
  <path class="cls-25" d="m442.83,196.98c0,.12.01.23.02.35,0-.12-.01-.23-.02-.35Z"/>
  <path class="cls-24" d="m282.54,194.15c-.06-1.85.86-3,2.41-3.18,1.35-.15,2.45.74,2.69,2.33.04.27-.36.85-.59.87-1.15.09-2.32.05-3.48.05-.32,0-.65-.05-1.03-.08Z"/>
  <path class="cls-9" d="m304.53,199.03c-.28,1.28-1.23,1.9-2.39,1.98-.57.04-1.4-.36-1.7-.83-.3-.47-.3-1.37-.05-1.91.49-1.09,2.63-1.95,3.66-1.42.41.21.4,1.23.59,1.88-.03.1-.06.2-.09.3Z"/>
  <path class="cls-25" d="m304.53,199.03c.03-.1.06-.2.09-.3-.03.1-.06.2-.09.3Z"/>
  <path class="cls-9" d="m465.04,196.83c.14,0,.28,0,.42.01.25.07.5.13.75.2.06.22.13.45.19.67.02.19.03.38.05.57-.18,1.47-.87,2.5-2.42,2.78-.11.03-.22.06-.33.1-1.1.09-1.47-.62-1.78-1.5-.31-.91.04-1.56.77-1.98.62-.36,1.34-.56,2.02-.83.11,0,.22-.01.33-.02Z"/>
  <path class="cls-10" d="m466.21,197.04c-.25-.07-.5-.13-.75-.2.25.07.5.13.75.2Z"/>
  <path class="cls-10" d="m466.45,198.28c-.02-.19-.03-.38-.05-.57.02.19.03.38.05.57Z"/>
  <path class="cls-10" d="m465.04,196.83c-.11,0-.22.01-.33.02.11,0,.22-.01.33-.02Z"/>
  <path class="cls-10" d="m463.7,201.16c.11-.03.22-.06.33-.1-.11.03-.22.06-.33.1Z"/>
  <path class="cls-16" d="m676.03,199.73v-1.87c-1.16.23-1.2.43-1.17,4.99-.8-.03-1.68-1.01-1.92-2.13-.34-1.6.3-2.7,2.03-3.51.1-.05.2-.09.3-.14.15,0,.3,0,.45.01.13.14.26.27.39.41.04.12.08.25.12.37.22.04.45.09.67.13-.02.23-.05.46-.07.69-.01.11-.02.22-.04.33-.09.33-.19.65-.28.98-.16-.09-.33-.19-.49-.28Z"/>
  <path class="cls-4" d="m679.79,199.49c0,.42-.01.84-.02,1.27-.49.75-.38,2.03-1.77,1.98l.02.03c-.04-.91-.08-1.83-.12-2.74,0-.1,0-.2,0-.3.06-.79.56-1.78-.87-1.88-.15-.03-.3-.07-.45-.1-.02-.08-.05-.16-.07-.24.17-.2.33-.41.5-.61,1.7.04,2.34,1.22,2.79,2.6Z"/>
  <path class="cls-4" d="m678,202.74c-.82,1.04-1.78.93-2.87.4.31-.93.59-1.78.87-2.64.19-.03.38-.07.57-.1l.06.05c.05.1.09.19.14.29.42.68.83,1.36,1.25,2.03l-.02-.03Z"/>
  <path class="cls-26" d="m677,196.89c-.17.2-.33.41-.5.61-.13,0-.26,0-.39,0-.13-.14-.26-.27-.39-.41.43-.07.85-.14,1.28-.21Z"/>
  <path class="cls-3" d="m676.57,200.4c-.19.03-.38.07-.57.1.01-.25.02-.51.03-.76.16.09.33.19.49.28.02.13.03.25.05.38Z"/>
  <path class="cls-26" d="m675.27,197.09c-.1.05-.2.09-.3.14.1-.05.2-.09.3-.14Z"/>
  <path class="cls-14" d="m676.57,200.4c-.02-.13-.03-.25-.05-.38.09-.33.19-.65.28-.98.01-.11.02-.22.04-.33.02-.23.05-.46.07-.69.1-.01.14-.07.13-.17,1.42.11.93,1.09.87,1.88,0,.1,0,.2,0,.3.04.91.08,1.83.12,2.74-.42-.68-.83-1.36-1.25-2.03-.05-.1-.09-.19-.14-.29,0,0-.06-.05-.06-.05Z"/>
  <path class="cls-3" d="m677.03,197.84c.02.1-.03.16-.13.17-.22-.04-.45-.09-.67-.13l.35-.14c.15.03.3.07.45.1Z"/>
  <path class="cls-27" d="m676.58,197.74l-.35.14c-.04-.12-.08-.25-.12-.37.13,0,.26,0,.39,0,.02.08.05.16.07.24Z"/>
  <path class="cls-3" d="m676.83,198.7c-.01.11-.02.22-.04.33.01-.11.02-.22.04-.33Z"/>
  <path class="cls-22" d="m677.89,200.02c0-.1,0-.2,0-.3,0,.1,0,.2,0,.3Z"/>
  <path class="cls-3" d="m676.62,200.45c.05.1.09.19.14.29-.05-.1-.09-.19-.14-.29Z"/>
</svg>