<?xml version="1.0" encoding="UTF-8"?>
<svg id="Layer_1" data-name="Layer 1" xmlns="http://www.w3.org/2000/svg" viewBox="0 0 786.6 274.2">
  <defs>
    <style>
      .cls-1 {
        fill: #fff;
      }
    </style>
  </defs>
  <path class="cls-1" d="m0,274.2C0,182.8,0,91.4,0,0c262.2,0,524.4,0,786.6,0v274.2c-262.2,0-524.4,0-786.6,0ZM583.39,95.31c-.3-.11-.59-.22-.89-.33,0-3.76-.16-7.54.05-11.29.16-2.73-.93-3.41-3.46-3.37-8.89.11-17.78.04-26.68.04q-4.46,0-4.47,4.48c0,37.49,0,74.99,0,112.48,0,1.3.07,2.6.2,3.89.77,7.91,6.69,13.31,14.59,13.33,5.1.01,10.19.04,15.29,0,5.51-.05,5.33.96,5.35-5.27.1-24.39.07-48.78.38-73.17.14-11.05,7.44-20.71,17.81-24.35,6.68-2.34,13.55-2.36,20.32-.44,6.84,1.94,11.98,6.24,14.28,12.98,1.62,4.75,2.95,9.86,3.04,14.83.34,20.19.15,40.39.15,60.59,0,8.44,6.29,14.79,14.71,14.84,5.69.03,11.39-.14,17.08.07,2.86.1,3.75-.73,3.74-3.67-.11-24.2-.12-48.39-.03-72.59.03-7.54,2.49-14.3,7.58-19.99,7.96-8.9,23.21-10.22,32.81-6.32,2.35.95,4.62,2.43,6.52,4.12,6.33,5.63,8.58,13.17,8.65,21.29.18,20.6.04,41.19.07,61.79.01,9,6.34,15.3,15.28,15.31,5.4,0,10.79,0,16.19,0q3.98,0,3.99-3.89c0-25,.03-49.99-.03-74.99-.01-4.79-.06-9.61-.62-14.35-1.62-13.78-7.51-25.32-18.65-33.93-8.68-6.7-18.61-9.84-29.43-10.41-19.47-1.03-36.32,4.17-48.22,20.74-1.56,2.17-2.25,1.54-3.75-.07-3.72-3.98-7.33-8.23-11.68-11.43-10.67-7.85-22.98-10.23-36.04-9.19-12.94,1.03-23.88,5.95-32.08,16.33-.58.74-1.38,1.31-2.08,1.96Zm-274.17,104.77c.4,1.25.68,1.99.86,2.74,1.81,7.45,7.21,11.71,14.89,11.72,5.49,0,10.99-.1,16.48.05,2.4.07,3.07-.75,3.07-3.11-.06-42.69-.06-85.38,0-128.07,0-2.44-.87-3.1-3.13-3.08-9.49.08-18.98.11-28.47-.02-2.66-.04-3.51.86-3.36,3.47.2,3.51.05,7.05.05,11.36-1.33-1-1.97-1.41-2.52-1.91-2.49-2.27-4.79-4.78-7.46-6.81-10.64-8.11-22.86-10.38-35.92-9.4-18.17,1.36-32.89,9.5-44.03,23.61-14.5,18.37-18.35,39.56-14.16,62.25,3.27,17.74,11.81,32.53,26.59,43.29,9.33,6.8,19.8,10.64,31.31,11.64,13.41,1.17,25.82-1.51,36.72-9.7,3.08-2.31,5.8-5.1,9.08-8.03Zm87.67-52.57c.29,3.57.37,7.18.9,10.72,2.92,19.27,11.97,35.02,27.94,46.27,18.69,13.17,39.56,16.53,61.61,11.49,21.96-5.01,38.4-17.59,48.14-38.18,6.36-13.46,8.01-27.69,5.65-42.36-2.82-17.5-11.06-32.02-24.97-42.95-18.39-14.45-39.47-18.3-62.16-14.22-16.29,2.93-30.05,10.74-40.71,23.36-11.09,13.14-16.34,28.61-16.4,45.88Zm-356.99,27.3c-3.8,8.5-7.62,16.93-11.25,25.44-.24.57.75,2.23,1.54,2.6,6.4,3.01,12.73,6.28,19.38,8.64,21.27,7.53,43.16,8.62,65.23,4.69,11.42-2.04,22.02-6.12,30.4-14.87,9.65-10.08,12.98-27.7,7.38-40.47-4.97-11.32-14.19-17.68-25.1-22.17-11.04-4.55-22.86-5.3-34.48-7.1-6.37-.98-12.72-2.39-18.88-4.25-3.51-1.06-6.02-3.86-6.04-8.08-.03-4.47,1.63-7.89,5.62-10.16,4.16-2.36,8.71-2.79,13.32-2.83,13.67-.14,26.68,3.09,39.37,7.9,5.76,2.18,11.53,1.82,15.23-3.23,3.99-5.45,6.77-11.8,10.4-18.33-6.49-2.68-12.09-5.27-17.89-7.33-19.83-7.03-40.16-10.28-61.17-7.01-11.26,1.75-21.68,5.76-30.09,13.64-10.21,9.58-13.08,21.78-11.18,35.32,1.81,12.9,9.58,21.1,21,26.39,12.61,5.84,26.22,7.36,39.73,9.4,6.68,1.01,13.39,2.18,19.86,4.08,5.81,1.71,7.71,6.75,5.65,12.51-1.77,4.96-6.02,6.86-10.61,7.76-17.29,3.39-34.16,1.77-50.47-4.96-5.61-2.31-11.08-4.94-16.97-7.59Zm157.11-53.82c0-30.1-.03-60.2.06-90.3,0-2.83-.72-3.84-3.67-3.79-9.19.17-18.38.06-27.58.06q-4.3,0-4.3,4.23c0,55.1,0,110.2,0,165.29,0,.6,0,1.2,0,1.8.11,11.29,7.93,16.96,16.82,16.32,4.87-.35,9.79-.06,14.68-.06q3.97,0,3.98-3.86c0-29.9,0-59.8,0-89.7Zm193.32-.13c0-29.78,0-59.57,0-89.35q0-4.53-4.4-4.54c-8.69,0-17.38,0-26.06,0q-4.96,0-4.97,4.88c0,55.27,0,110.54,0,165.8,0,1.2-.02,2.4.1,3.59.76,7.85,6.76,13.29,14.67,13.31,5.39.01,10.79,0,16.18,0q4.48,0,4.48-4.64c0-29.68,0-59.37,0-89.05Z"/>
  <path d="m583.39,95.31c.7-.65,1.5-1.22,2.08-1.96,8.19-10.38,19.14-15.29,32.08-16.33,13.06-1.04,25.36,1.34,36.04,9.19,4.35,3.2,7.96,7.44,11.68,11.43,1.5,1.61,2.19,2.24,3.75.07,11.9-16.56,28.75-21.76,48.22-20.74,10.82.57,20.75,3.7,29.43,10.41,11.14,8.61,17.03,20.14,18.65,33.93.56,4.74.61,9.57.62,14.35.06,25,.03,49.99.03,74.99q0,3.89-3.99,3.89c-5.4,0-10.79,0-16.19,0-8.94-.01-15.27-6.31-15.28-15.31-.03-20.6.1-41.2-.07-61.79-.07-8.12-2.32-15.66-8.65-21.29-1.9-1.69-4.17-3.16-6.52-4.12-9.6-3.9-24.85-2.58-32.81,6.32-5.09,5.69-7.55,12.45-7.58,19.99-.09,24.2-.09,48.39.03,72.59.01,2.94-.88,3.77-3.74,3.67-5.69-.2-11.39-.04-17.08-.07-8.42-.05-14.71-6.4-14.71-14.84,0-20.2.19-40.4-.15-60.59-.08-4.97-1.42-10.08-3.04-14.83-2.3-6.74-7.44-11.04-14.28-12.98-6.77-1.92-13.64-1.9-20.32.44-10.37,3.64-17.67,13.3-17.81,24.35-.31,24.39-.28,48.78-.38,73.17-.02,6.24.16,5.23-5.35,5.27-5.09.04-10.19.02-15.29,0-7.9-.02-13.82-5.42-14.59-13.33-.13-1.29-.2-2.59-.2-3.89-.01-37.49,0-74.99,0-112.48q0-4.46,4.47-4.48c8.89,0,17.78.07,26.68-.04,2.53-.03,3.62.64,3.46,3.37-.22,3.75-.05,7.52-.05,11.29.3.11.59.22.89.33Z"/>
  <path d="m309.23,200.08c-3.28,2.93-6,5.72-9.08,8.03-10.9,8.19-23.31,10.88-36.72,9.7-11.51-1.01-21.98-4.85-31.31-11.64-14.78-10.77-23.32-25.55-26.59-43.29-4.19-22.68-.34-43.88,14.16-62.25,11.14-14.11,25.86-22.25,44.03-23.61,13.06-.98,25.28,1.29,35.92,9.4,2.67,2.03,4.97,4.54,7.46,6.81.55.5,1.19.91,2.52,1.91,0-4.31.15-7.84-.05-11.36-.15-2.61.7-3.51,3.36-3.47,9.49.13,18.98.1,28.47.02,2.26-.02,3.13.64,3.13,3.08-.07,42.69-.06,85.38,0,128.07,0,2.35-.67,3.17-3.07,3.11-5.49-.15-10.99-.04-16.48-.05-7.67,0-13.07-4.27-14.89-11.72-.18-.76-.47-1.49-.86-2.74Zm1.61-53.03c.62-19.04-12.24-35.68-31.53-37.24-12.66-1.02-23.55,2.61-31.36,13.05-7.64,10.23-9.2,21.86-6.72,34.16,1.83,9.06,6.34,16.56,13.89,21.95,7.97,5.69,17.02,7.04,26.54,5.7,8.12-1.14,15.06-4.78,20.3-11.04,6.26-7.47,9.04-16.3,8.87-26.59Z"/>
  <path d="m396.89,147.52c.06-17.27,5.31-32.73,16.4-45.88,10.66-12.63,24.42-20.43,40.71-23.36,22.69-4.08,43.76-.23,62.16,14.22,13.91,10.93,22.15,25.45,24.97,42.95,2.36,14.67.71,28.9-5.65,42.36-9.74,20.59-26.18,33.17-48.14,38.18-22.05,5.03-42.92,1.67-61.61-11.49-15.97-11.25-25.02-27-27.94-46.27-.54-3.54-.61-7.14-.9-10.72Zm108.87-.02c-.03-12.1-3.89-22.4-13.55-30.24-13.54-10.99-36.11-10.1-48.33,2.32-9.82,9.99-12.28,22.32-10.05,35.73,4.88,29.3,37.06,37.02,56.78,23.44,10.77-7.42,15.22-18.33,15.15-31.25Z"/>
  <path d="m39.91,174.82c5.89,2.64,11.36,5.28,16.97,7.59,16.31,6.73,33.18,8.35,50.47,4.96,4.59-.9,8.84-2.8,10.61-7.76,2.06-5.76.16-10.8-5.65-12.51-6.46-1.9-13.18-3.07-19.86-4.08-13.51-2.04-27.12-3.57-39.73-9.4-11.42-5.28-19.19-13.48-21-26.39-1.9-13.54.97-25.74,11.18-35.32,8.4-7.88,18.83-11.89,30.09-13.64,21.01-3.27,41.34-.01,61.17,7.01,5.79,2.05,11.4,4.65,17.89,7.33-3.63,6.53-6.41,12.88-10.4,18.33-3.7,5.05-9.48,5.41-15.23,3.23-12.69-4.81-25.7-8.04-39.37-7.9-4.61.05-9.16.47-13.32,2.83-3.99,2.26-5.65,5.69-5.62,10.16.03,4.22,2.53,7.01,6.04,8.08,6.16,1.87,12.51,3.27,18.88,4.25,11.62,1.8,23.44,2.55,34.48,7.1,10.91,4.49,20.13,10.85,25.1,22.17,5.6,12.77,2.27,30.39-7.38,40.47-8.38,8.75-18.98,12.84-30.4,14.87-22.08,3.94-43.97,2.84-65.23-4.69-6.65-2.35-12.98-5.63-19.38-8.64-.79-.37-1.78-2.03-1.54-2.6,3.63-8.51,7.45-16.94,11.25-25.44Z"/>
  <path d="m197.02,120.99c0,29.9,0,59.8,0,89.7q0,3.86-3.98,3.86c-4.9,0-9.81-.29-14.68.06-8.89.64-16.71-5.03-16.82-16.32,0-.6,0-1.2,0-1.8,0-55.1,0-110.2,0-165.29q0-4.22,4.3-4.23c9.19,0,18.39.1,27.58-.06,2.95-.05,3.67.96,3.67,3.79-.09,30.1-.06,60.2-.06,90.3Z"/>
  <path d="m390.33,120.86c0,29.68,0,59.37,0,89.05q0,4.64-4.48,4.64c-5.39,0-10.79.01-16.18,0-7.91-.02-13.91-5.45-14.67-13.31-.12-1.19-.1-2.4-.1-3.59,0-55.27,0-110.54,0-165.8q0-4.87,4.97-4.88c8.69,0,17.38,0,26.06,0q4.39,0,4.4,4.54c0,29.78,0,59.57,0,89.35Z"/>
  <path class="cls-1" d="m310.83,147.06c.18,10.28-2.61,19.12-8.87,26.59-5.24,6.26-12.18,9.9-20.3,11.04-9.52,1.33-18.57,0-26.54-5.7-7.55-5.39-12.06-12.89-13.89-21.95-2.49-12.3-.92-23.93,6.72-34.16,7.8-10.45,18.7-14.08,31.36-13.05,19.28,1.56,32.15,18.2,31.53,37.24Z"/>
  <path class="cls-1" d="m505.76,147.49c.07,12.92-4.37,23.83-15.15,31.25-19.72,13.59-51.9,5.86-56.78-23.44-2.23-13.4.23-25.74,10.05-35.73,12.22-12.42,34.79-13.32,48.33-2.32,9.66,7.84,13.52,18.13,13.55,30.24Z"/>
</svg>