<?xml version="1.0" encoding="UTF-8"?>
<svg id="Layer_1" data-name="Layer 1" xmlns="http://www.w3.org/2000/svg" viewBox="0 0 225 225">
  <defs>
    <style>
      .cls-1 {
        fill: #cbbf8a;
      }

      .cls-2 {
        fill: #b7a67f;
      }

      .cls-3 {
        fill: #fafbfa;
      }

      .cls-4 {
        fill: #91b3a3;
      }

      .cls-5 {
        fill: #f8f8f9;
      }

      .cls-6 {
        fill: #f9f9fa;
      }

      .cls-7 {
        fill: #dfd8c2;
      }

      .cls-8 {
        fill: #f6f7f6;
      }

      .cls-9 {
        fill: #cec390;
      }

      .cls-10 {
        fill: #b8a470;
      }

      .cls-11 {
        fill: #c9b97f;
      }

      .cls-12 {
        fill: #cfc493;
      }

      .cls-13 {
        fill: #bdd1c9;
      }

      .cls-14 {
        fill: #075c39;
      }

      .cls-15 {
        fill: #739b8c;
      }

      .cls-16 {
        fill: #d2c899;
      }

      .cls-17 {
        fill: #c6b77e;
      }

      .cls-18 {
        fill: #085129;
      }

      .cls-19 {
        fill: #fbfbfc;
      }

      .cls-20 {
        fill: #36805f;
      }

      .cls-21 {
        fill: #7fa897;
      }

      .cls-22 {
        fill: #026443;
      }

      .cls-23 {
        fill: #ece6d6;
      }

      .cls-24 {
        fill: #016646;
      }

      .cls-25 {
        fill: #085f3f;
      }

      .cls-26 {
        fill: #c7bba5;
      }

      .cls-27 {
        fill: #045e3d;
      }

      .cls-28 {
        fill: #cfc392;
      }

      .cls-29 {
        fill: #035130;
      }
    </style>
  </defs>
  <path class="cls-5" d="m0,0h225v225H0C0,150,0,75,0,0Zm179.23,142.74l.26-2.74c.06-.54.12-1.07.18-1.61.34-3.04.68-6.09,1.02-9.13.33-5.08.66-10.16.99-15.24.02-1.34.04-2.68.06-4.01,0-1,0-2,0-3-.08-1.58-.1-3.16-.26-4.73-.42-4.25-.79-8.51-1.39-12.74-.67-4.72-1.66-9.38-3.11-13.95-2-6.31-4.59-12.3-8.6-17.62-1.2-1.59-2.46-3.12-3.7-4.68.45-.52.91-1.04,1.33-1.58.17-.22.33-.48.38-.75.17-.87.25-1.77.45-2.63.15-.64.27-1.17-.58-1.32l-.09-.28.09-1.2c.07-.43.14-.85.22-1.28.05-.23.09-.47.14-.7.04-.18.08-.36.12-.54.09-.58.18-1.16.27-1.73.03-.03.07-.06.07-.08,0-.07-.02-.14-.04-.21.05-.32.09-.63.14-.95.01-.1.02-.19.03-.29.02-.49.04-.97.06-1.46.06-.35.12-.7.18-1.04.07-.74.15-1.47.22-2.21-.15-.26-.29-.53-.44-.79-.08-.02-.15-.02-.23,0-.09.01-.18.02-.27.03-.5.15-1,.3-1.5.45-.32-.16-.65-.47-.95-.44-.46.04-.89.35-1.35.49-1.07.32-2.16.59-3.24.9-.66.19-1.31.38-1.95.61-.68.25-1.47.4-1.47,1.38-.25.08-.5.16-.76.24-.07-.69-.45-.6-.97-.45-1.41.4-2.95.53-4.24,1.16-1.08.53-1.9,1.6-2.81,2.45-.09.08-.02.32-.03.48-2.91-.94-5.77-2.11-8.74-2.76-3.7-.81-7.5-1.2-11.26-1.77-.61-.08-1.23-.23-1.84-.22-3.44.06-6.88.08-10.31.28-2.55.15-5.09.55-7.64.83-.07.03-.14.07-.22.1-.17.02-.34.04-.51.06-.5.09-1,.17-1.49.26-.11.05-.22.09-.32.14-1.63.32-3.26.65-4.89.97-.34.04-.69.08-1.03.13-.24.07-.49.14-.73.21-.35.06-.7.11-1.05.17-.07.02-.15.05-.22.07-2.37.63-4.74,1.26-7.11,1.9l-2.82.74c.04.16.09.32.13.48l3.05-.85,3.49-.83c.26-.06.51-.11.77-.17.91-.17,1.82-.34,2.73-.51.09-.03.18-.06.27-.08l1.49-.22c.26-.06.51-.12.77-.19.08,0,.15,0,.22-.04,2.26-.3,4.52-.61,6.78-.91l3.49-.13.12.02s.11-.04.11-.04c1.78-.12,3.55-.36,5.33-.32,2.57.05,5.13.31,7.69.47,2.24.35,4.52.56,6.72,1.08,3.53.83,7.02,1.87,10.53,2.83.67.26,1.34.52,2.01.78,2.17,1.08,4.33,2.16,6.5,3.24.66.42,1.33.84,1.99,1.27,2.22,1.85,4.5,3.65,6.65,5.58,1.45,1.3,2.73,2.78,4.08,4.18.41.51.81,1.01,1.22,1.52,2.03,3.13,4.27,6.14,6.02,9.42,1.91,3.57,3.67,7.28,4.97,11.11,2.9,8.55,4.12,17.46,4.83,26.44.17,2.17.34,4.34.51,6.51.08,1.17.16,2.34.24,3.51,0,2.75,0,5.49.01,8.24,0,.09-.01.17-.02.26-.02.9-.04,1.8-.06,2.7-.04.1-.07.19-.11.29.02.34.03.68.05,1.02-.24,3.05-.49,6.11-.73,9.16-.02.11-.05.22-.07.33-.01.41-.03.82-.04,1.23-.07.93-.14,1.86-.2,2.79-.12.51-.24,1.02-.36,1.53.14.02.28.05.42.07.1-.54.21-1.09.31-1.63Zm-87.75-4.3l.52.07c-.14.56-.23,1.14-.44,1.68-2.18,5.56-4.82,10.91-8.25,15.77-4.7,6.65-9.55,13.21-14.59,19.61-3.52,4.47-7.47,8.59-11.22,12.88-.24.28-.56.57-.63.9-.09.43-.1.99.11,1.33.12.18.88.18,1.18-.02,1.82-1.16,3.58-2.41,5.36-3.62.24-.18.48-.37.72-.55,1.92-1.58,3.84-3.15,5.76-4.73.17-.16.34-.32.51-.49,2.07-2.03,4.18-4.01,6.18-6.11,2.31-2.42,4.52-4.94,6.77-7.42.18-.24.37-.48.55-.72,3.15-4.09,6.3-8.19,9.46-12.28.1-.16.2-.32.31-.48.24-.34.47-.67.71-1.01.27-.41.55-.82.82-1.22.33-.5.65-1,.98-1.5.33-.49.66-.98.99-1.47l7.21-12.3c.11-.24.22-.48.33-.72.29-.51.57-1.02.86-1.53.1-.25.2-.5.3-.75.23-.42.47-.84.7-1.25.19-.42.37-.83.56-1.25.15-.25.3-.5.44-.75.05-.16.1-.31.15-.47.28-.51.57-1.02.85-1.53.04-.15.07-.29.11-.44,1.13-2.75,2.33-5.48,3.37-8.27.42-1.12-.03-1.53-1.17-1.12-1.83.66-3.62,1.44-5.38,2.27-6.63,3.09-13.24,6.23-19.86,9.34-.17.01-.34.02-.51.04.18-.41.27-.89.54-1.22,1.2-1.47,2.45-2.91,3.68-4.36.18-.25.37-.49.55-.74,2.41-3.17,4.83-6.33,7.24-9.5.43-.58.86-1.16,1.29-1.74,2.83-4.43,5.75-8.8,8.45-13.3,1.61-2.69,2.87-5.59,4.29-8.39.17-.35.33-.71.5-1.06l2.71-6.26c.09-.24.18-.48.26-.72,1.17-3.43,2.35-6.86,3.52-10.28.38-.2.78-.37,1.13-.62.49-.35.93-.77,1.4-1.16.65-.5,1.34-.97,1.96-1.51,5.64-4.92,11.56-9.46,17.87-13.49,2.51-1.6,5.1-3.09,7.65-4.63.72-.43,1.44-.86,2.31-1.39-3.4-2.22-6.72-4.02-10.29-5.32-.35.03-.71.06-1.06.09-3.86,2.25-7.72,4.49-11.57,6.74-3.14,2.17-6.36,4.23-9.41,6.52-11.63,8.77-22.49,18.36-31.17,30.19-.36.49-1.02.91-1.61,1.03-1.46.3-2.96.41-4.44.6-.11.03-.23.06-.34.08-.31.04-.62.07-.93.11-.27.05-.53.11-.8.16-.23.03-.46.07-.69.1-.11.03-.23.06-.34.09-.72.13-1.45.26-2.17.39-.09.01-.19.02-.28.03-.14.03-.27.05-.41.08-.12.02-.23.04-.35.06-.32.03-.64.06-.96.09-.19.03-.37.06-.56.08-.74.45-1.79.73-2.18,1.39-2.76,4.69-5.38,9.46-8.05,14.2-4.91,8.73-9.83,17.45-14.73,26.18-1.6,2.86-3.17,5.74-4.75,8.61,0,.49.02.99.03,1.48l-.03.08c-.02.89.62,1.23,1.3,1.16.57-.06,1.15-.45,1.62-.83.52-.43.89-1.02,1.36-1.52.62-.66,1.31-1.25,1.89-1.94,1.8-2.15,3.52-4.37,5.35-6.49.75-.86,1.79-1.46,2.56-2.31,1.19-1.32,2.18-2.81,3.37-4.13,1.86-2.05,3.86-3.98,5.73-6.03,1.98-2.17,3.9-4.4,5.8-6.64.93-1.09,1.52-1.2,2.68-.35.66.48,1.03.41,1.12-.51.14-1.53.66-1.68,2.15-1.07.67.27,1.55.07,2.33,0,.31-.02.65-.42.9-.35,1.54.43,2.92.15,4.26-.69.22-.14.67.08,1.01.13-.14.3-.21.66-.42.9-.6.69-1.44,1.11-1.72,2.17-.21.8-.85,1.6-1.51,2.15-.73.6-1.78.79-2.55,1.36-.85.62-1.78,1.34-2.25,2.24-.49.94-.49,2.15-.7,3.24-1.67,1.68-3.3,3.41-5.02,5.04-5.32,5.03-10.67,10.02-15.99,15.06-.43.41-.62,1.06-.92,1.6l.26.37c1.13-.14,2.27-.27,3.4-.41.75-.17,1.5-.33,2.25-.5,1.25-.28,2.49-.58,3.75-.85,5.29-1.14,10.59-2.28,15.89-3.4,2.87-.6,5.75-1.15,8.62-1.73.42-.09.84-.17,1.26-.26h.11s.11-.03.11-.03Zm70.52-77.44h0c-2.09-2.32-4.18-4.64-6.27-6.95-.56-.51-1.12-1.03-1.68-1.54-1.3,2.32-2.51,4.48-3.72,6.64-.88-1.2-1.64-1.07-2.34.41-3.39-1.63-6.13-1.09-8.49,1.82-1.54,1.9-2.95,3.91-4.39,5.89-.95,1.31-1.91,2.62-2.79,3.97-.5.76-.76,1.4.44,2.05,1.77.97,3.34,2.3,5,3.47,0,.9-.07,1.67-.71,2.52-.63.83-.97,1.74-2.17,1.86-.15.02-.25.54-.37.83-.54-.02-1.08-.01-1.61-.05-2.15-.14-4.29-.38-6.44-.43-1.99-.04-2.9,1.24-2.24,3.13.57,1.64,1.32,3.22,2.01,4.81,1.6,3.69,3.19,7.38,4.83,11.05.11.25.62.33.94.49-.46.98.39,2.23-.62,3.11.22.23.43.45.65.68-.19.36-.36.74-.59,1.08-2.48,3.69-4.87,7.45-7.5,11.03-3.64,4.95-7.43,9.79-11.25,14.62-.8,1.01-1.38,1.95-1.15,3.25.05.44.09.88.14,1.32.04.9.08,1.79.12,2.69,0,.09,0,.18,0,.26,0,.16,0,.32,0,.49,0,.09,0,.18,0,.26.03,2.06.05,4.13.08,6.19-.01.11-.02.23-.04.34-.2.45-.34.94-.61,1.34-7.27,10.89-14.55,21.76-21.82,32.65-.53.79-.97,1.63-1.45,2.45-.03.19-.06.37-.09.56.31,1.17,1.09,1.31,2.15.33,4.7-4.35,9.39-8.7,14.06-13.08,8.04-7.54,16.04-15.11,24.09-22.63,1.38-1.29,2.37-2.66,2.14-4.64,0-.09,0-.18,0-.27-.04-1.74-.08-3.49-.12-5.23,0-.09,0-.18,0-.26,0-1.33,0-2.66,0-3.99,0-.34,0-.67-.01-1.01,0-.16-.01-.33-.02-.49.01-.42.03-.84.04-1.26.44-.88.8-1.82,1.34-2.64,1.06-1.59,2.22-3.11,3.33-4.67,5.69-7.96,10.48-16.46,14.83-25.21,3.21-6.46,6.08-13.09,8.32-19.96.08-.25.17-.5.25-.74.92-2.75,1.84-5.5,2.76-8.24.07-.26.14-.52.21-.78l.2-.72c.02-.09.04-.18.06-.27.42-1.33.78-2.68,1.28-3.98.36-.95.23-1.66-.57-2.27-.07-.09-.14-.17-.21-.26Zm-36.52,35.73l.02.77c.81,1.2,1.6,2.41,2.43,3.59.24.34.59.61.9.91.21-.54.69-1.16.56-1.62-.3-1.11-.87-2.14-1.36-3.19-.32-.68-.69-1.34-1.16-2.25-.6.77-1,1.28-1.39,1.79Zm-5.72,19.56c.49-.3,1.11-.49,1.44-.91,1.68-2.15,3.41-4.28,4.88-6.58,3.07-4.78.08-11.07-5.57-12.42-3.77-.91-7.21.83-9.57,4.84-.65.86-1.34,1.69-1.96,2.57-2.35,3.35-2.32,6.5.06,9.78,2.34,3.23,7.5,4.53,10.72,2.71Zm-32.73-73.01c-.06-.17-.11-.34-.17-.52l-3.43,1.16c.04.12.08.25.12.37l3.47-1.02Z"/>
  <path class="cls-24" d="m161.03,69.28c-.92,2.75-1.84,5.5-2.76,8.24-.08.25-.17.5-.25.74-2.24,6.88-5.1,13.5-8.32,19.96-4.35,8.75-9.14,17.25-14.83,25.21-1.11,1.56-2.27,3.08-3.33,4.67-.54.82-.9,1.75-1.34,2.64-.01.42-.03.84-.04,1.26,0,.16.01.33.02.49,0,.34,0,.67.01,1.01,0,1.33,0,2.66,0,3.99-.03.03-.08.06-.08.08.02.06.05.12.08.19.04,1.74.08,3.49.12,5.23,0,.09,0,.18,0,.27.22,1.98-.76,3.35-2.14,4.64-8.05,7.52-16.05,15.1-24.09,22.63-4.67,4.38-9.37,8.73-14.06,13.08-1.06.98-1.84.85-2.15-.33.03-.19.06-.37.09-.56.48-.82.92-1.66,1.45-2.45,7.27-10.88,14.55-21.76,21.82-32.65.27-.4.41-.89.61-1.34.01-.11.02-.23.04-.34-.03-2.06-.05-4.13-.08-6.19.03-.03.08-.06.08-.08-.02-.07-.06-.12-.09-.19,0-.16,0-.32,0-.49.03-.03.08-.06.08-.08-.02-.06-.05-.12-.08-.19-.04-.9-.08-1.79-.12-2.69-.05-.44-.09-.88-.14-1.32-.23-1.3.35-2.24,1.15-3.25,3.81-4.82,7.61-9.66,11.25-14.62,2.63-3.58,5.01-7.34,7.5-11.03.23-.34.39-.72.59-1.08,2.57-4.26,5.14-8.52,7.7-12.79.11-.29.22-.58.33-.87-.14-.11-.29-.21-.43-.32-.12.25-.24.49-.35.74-.6.58-1.19,1.15-1.79,1.73-.47.12-.98.15-1.39.38-1.63.88-1.86.79-2.23-.98l.02-.04c.97-.1,1.81-1.31,1.84-2.64,0,0-.02.03-.02.03.09-.12.18-.25.27-.37q1.54-2.72,4.48-2.24c.29.05.58.09.86.13,1.14.15,2.07-.25,2.73-1.16,1.4-1.96,2.75-3.96,4.14-5.94.45-.63.38-1.19-.23-1.62-.88-.62-1.79-1.19-2.69-1.79-.01-.25-.03-.51-.04-.76.85-1.1,1.78-2.15,2.51-3.32.61-.98,1.35-1.49,2.47-1.5.11-.03.23-.06.34-.09.23-.03.46-.07.69-.1.27-.06.53-.12.8-.18.32-.02.63-.04.95-.06.1-.02.21-.03.31-.05.14-.04.28-.08.43-.12.1-.01.2-.02.3-.04.46-.17,1.1-.2,1.36-.53,1.02-1.29,1.92-2.67,2.86-4.01.01-.34.03-.68.04-1.02-.71-1.1-1.78-.64-2.74-.65-.11.03-.23.06-.34.08-.39.06-.78.12-1.16.18-.09-.25-.11-.59-.29-.74-.66-.56-1.37-1.05-2.06-1.57-.06-.17-.13-.34-.19-.51.1-.15.33-.39.29-.45-.95-1.42-.82-2.68.3-4.01.86-1.01,1.49-2.22,2.26-3.41.51.37.83.61,1.16.85,1.49,1.52,2.96,3.07,4.5,4.54.59.56.89,1.61,2.01,1.46,0,0,0,0,0,0,.07.09.14.17.21.26.8.61.93,1.32.57,2.27-.49,1.3-.86,2.65-1.28,3.98-.02.09-.04.18-.06.27-.07.24-.13.48-.2.72-.07.26-.14.52-.21.78Z"/>
  <path class="cls-12" d="m70,181.75c-1.92,1.58-3.84,3.15-5.76,4.73-.23-.41-.46-.83-.68-1.24-.21.17-.42.34-.63.5.2.43.39.86.59,1.29-1.78,1.22-3.55,2.46-5.36,3.62-.3.19-1.06.2-1.18.02-.22-.33-.21-.9-.11-1.33.07-.33.39-.62.63-.9,3.75-4.28,7.7-8.41,11.22-12.88,5.04-6.4,9.89-12.95,14.59-19.61,3.44-4.87,6.08-10.21,8.25-15.77.21-.53.29-1.12.44-1.68.32-.34.65-.68.97-1.03.18-.2.42-.4.46-.64.03-.15-.27-.5-.42-.5-.24,0-.49.19-.72.34-.26.17-.52.56-.75.53-1.17-.11-1.38.66-1.54,1.52-2.87.57-5.75,1.12-8.62,1.73-5.3,1.12-10.59,2.26-15.89,3.4-1.25.27-2.5.57-3.75.85-.46-.31-.91-.62-1.37-.94-.29.48-.59.96-.88,1.43-1.13.14-2.27.27-3.4.41l-.26-.37c.3-.54.49-1.2.92-1.6,5.31-5.04,10.67-10.02,15.99-15.06,1.72-1.63,3.35-3.36,5.02-5.04,2.71-2.8,5.55-5.5,8.11-8.43,4.38-5,8.62-10.11,12.84-15.24,1.54-1.88,2.87-3.93,4.3-5.9,0-.07,0-.15,0-.22.92.02,1.24-.54,1.42-1.44-.9.16-1.69.37-2.48.42-.96.05-.94.54-.7,1.22-.66.02-1.32.03-1.99.05-.35-.1-.7-.19-1.04-.29-1.38-.41-1.61-1.23-.56-2.2.53-.49,1.18-.86,1.77-1.28.26-.19.52-.38.79-.56,1.01-.72,2.02-1.45,3.03-2.17.74.46.65-.16.73-.56.81-.71,1.6-1.45,2.44-2.13,3.94-3.18,7.05-7.04,9.23-11.61.6-1.27.94-2.66,1.51-3.95.16-.37.71-.57,1.08-.85.18.43.53.87.51,1.29-.06,1.03-.29,2.05-.45,3.07-1.17,3.43-2.35,6.86-3.52,10.28-.27-.17-.54-.35-.8-.52-.1.1-.19.21-.29.31.28.31.55.62.83.93-.9,2.09-1.81,4.18-2.71,6.26-1.06-.06-.78.5-.5,1.06-1.42,2.8-2.68,5.7-4.29,8.39-2.7,4.5-5.62,8.87-8.45,13.3-.41.17-.83.31-1.23.5-.78.37-.73.79-.06,1.24-2.41,3.17-4.83,6.33-7.24,9.5-.31.13-.61.26-.92.39.12.12.25.23.37.35-1.23,1.45-2.48,2.88-3.68,4.36-.27.33-.37.81-.54,1.22-.29.09-.63.11-.85.29-.34.26-.63.61-.84.98-.04.07.37.41.58.62.27-.87,1.74-.72,1.62-1.92,6.62-3.12,13.23-6.25,19.86-9.34,1.76-.82,3.55-1.61,5.38-2.27,1.15-.41,1.59,0,1.17,1.12-1.04,2.79-2.24,5.52-3.37,8.27-.23.03-.46.05-.69.08.19.12.39.24.58.36-.28.51-.57,1.02-.85,1.53-.16.07-.32.14-.47.21.11.08.22.17.33.25-.15.25-.3.5-.44.75-.89.54-.97.73-.56,1.25-.23.42-.47.84-.7,1.25-.21.13-.43.26-.64.39.11.12.23.24.34.35-.29.51-.57,1.02-.86,1.53-.24.14-.49.27-.73.41.13.1.26.21.4.31-2.4,4.1-4.81,8.2-7.21,12.3-.47.16-.93.33-1.4.49.13.33.27.65.4.98-.33.5-.65,1-.98,1.5-.31.06-.66.06-.93.2-.22.11-.36.38-.54.58.22.15.43.3.65.45-.24.34-.47.67-.71,1.01-.1.16-.2.32-.31.48-3.15,4.09-6.3,8.19-9.46,12.28-.31,0-.63,0-.94-.01.13.25.26.49.39.74-2.25,2.48-4.46,5-6.77,7.42-2,2.09-4.12,4.07-6.18,6.11-.21-.04-.41-.09-.62-.13.04.21.07.41.11.62Zm1-6.17c1.73-.58,2.05-.96,1.62-1.83-.48.54-.94,1.06-1.41,1.56-.26.3-.44.52-.63.73.2.17.4.34.89.75-.13-.7-.18-.99-.48-1.2Zm27.09-72.4c.12.18.23.36.35.55.62-.53,1.24-1.06,1.86-1.59-.14-.17-.28-.33-.42-.5-.6.51-1.2,1.03-1.59,1.87-.1-.03-.2-.06-.3-.09-.1.29-.2.58-.3.87.14.04.28.07.42.11.06-.3.12-.59-.02-1.21Zm-34.09,36.36c.1.17.2.34.31.51.38-.34.76-.68,1.13-1.02-.07-.11-.14-.21-.22-.32-.41.28-.81.55-.39,1.67-.01-.02.29.54.34.52,1.01-.45,1.99-.96,3.07-1.51.44,1.15,1.29.97,2.28.49,1.27-.62,2.49-1.58,4.07-.92.13.05.36-.17.55-.24.45-.17.89-.39,1.35-.46,1.08-.15,2.22-.03,3.23-.36,1.74-.55,3.4-1.3,5.28-.69.18.06.47-.13.66-.27.45-.34.86-.73,1.28-1.1,1.07.9,2.08.82,3.21-.11.44-.36,1.06-.51,1.6-.74.23-.1.47-.17.82-.3-1.33-.81-4.12-.54-5.57.57.39-1.57-1.16-.63-1.54-1.5.39-.25.77-.5,1.16-.75-.05-.13-.09-.25-.14-.38-.55.2-1.6.47-1.58.61.23,1.93-1.25,2.26-2.48,2.61-1.79.51-3.64.81-5.47,1.18-.35.07-.73-.02-1.07.06-.42.1-.81.3-1.21.45.03.14.05.27.08.41-1.34-.07-2.77.91-4.04-.39-.18-.18-.71-.03-1.29-.03.49.56.77.88,1.21,1.39-1.24-.13-2.26-.49-3.12-.25-.93.25-1.72,1.06-3.51.86Zm26.7,12.17c-.55-.73-.89-1.2-1.32-1.77.47-.05.76-.08,1.05-.11-.08-.09-.15-.18-.23-.28.37-.45.76-.89,1.09-1.37.2-.28.32-.62.44-.95.21-.58.46-1.17.58-1.77.1-.5.04-1.03,0-1.55,0-.04-.47-.05-.71-.07.1.11.19.23.29.34-.33.55-.68,1.1-.98,1.67-.18.36-.29.75-.4,1.14-.08.27-.06.79-.16.8-1.22.23-1.1,1.45-1.64,2.17-.71.95-.47,1.38.68,1.53.32.04.63.1,1.33.2Zm-19.15-18.8c-1.84.03-3.85,2.24-3.55,3.86,1.21-1.32,2.28-2.48,3.55-3.86Zm-4.51,47.06c.13.14.26.28.39.42.8.02,2.92-1.22,3.05-1.91-.18-.19-.41-.44-1.05-1.14-.86.94-1.62,1.78-2.39,2.62Zm25.22-38.4c.42.73.61,1.07.9,1.59.61-.5,1.11-.91,1.61-1.31-.06-.16-.13-.33-.19-.49-.66.06-1.31.12-2.32.22Zm-4.75-24.37c-.06-.1-.13-.2-.19-.31-1.08-.03-1.87.59-1.92,1.81.81-.57,1.46-1.04,2.11-1.5Zm-4.1,41.34c-.33.68-.6,1.23-.83,1.8-.01.02.36.2.55.31.26-.55.53-1.09.78-1.65.01-.02-.11-.1-.5-.46Zm-5.93,8.42c.09.12.18.25.27.37.42-.26.92-.45,1.25-.8.18-.19.08-.64.1-.98l-.4-.15c-.4.52-.81,1.03-1.21,1.55Zm27.36-72.71c-.4.68-.78,1.32-1.16,1.97q1.93-1.22,1.16-1.97Zm-18.59,59.82c0,.14-.02.27-.03.41.37.09.84.37,1.09.24.5-.27.91-.76.39-1.48-.55.32-1,.57-1.45.83Zm-14.01-22.96c.08.14.16.28.24.43.58-.46,1.17-.92,1.75-1.37-.07-.12-.15-.24-.22-.35-.93-.14-1.38.55-1.78,1.3Zm10.11,30.49l-.54-.35c-.22.42-.43.84-.65,1.27.19.1.37.2.56.29.21-.4.42-.81.63-1.21Zm-1.69-34.57c-.42.51-.7.84-1.05,1.27,1.36.15,1.4.1,1.05-1.27Zm12.62-18.27c1.21.57,1.35.5,1.43-.47-.5.16-.96.31-1.43.47Zm-2.09,4.36c-.09-.15-.18-.3-.27-.44-.48.41-.96.81-1.44,1.22.08.1.17.21.25.31.49-.36.97-.73,1.46-1.09Zm-14.89,56.97c-.16-.14-.33-.28-.49-.42-.27.36-.55.72-.82,1.08.13.11.26.22.39.32.31-.33.61-.65.92-.98Zm4.55-5.92c-.37-.16-.62-.34-.88-.35-.15,0-.47.3-.44.37.1.26.3.48.47.71.17-.14.33-.28.86-.72Zm26.75-78.18c.01.16.03.32.04.48.42-.03.83-.07,1.25-.1,0-.13-.02-.26-.02-.38h-1.27Zm-11.84,20.61c.09.14.17.27.26.41.33-.3.67-.6,1-.9-.11-.12-.21-.24-.32-.36-.32.28-.63.57-.95.85Zm-32.26,35.13c.08-.14.15-.28.23-.42-.35-.18-.7-.35-1.05-.53l-.22.45c.35.16.7.33,1.05.49Zm19.87-20.85c-.29-.17-.51-.37-.57-.32-.21.13-.36.36-.53.55.14.11.32.35.4.31.22-.1.4-.3.71-.54Zm19.61-31.54c-.17.02-.33.05-.5.07.04.33.08.67.12,1,.15-.02.29-.03.44-.05-.02-.34-.05-.68-.07-1.03Zm.12,9.08l.06-.41c-.22-.03-.45-.09-.67-.07-.05,0-.08.26-.11.4.24.03.48.06.72.08Zm-13.66,16.35l-.23-.29c-.21.18-.42.36-.63.53.05.06.11.11.24.26.2-.17.41-.33.61-.5Zm2.26-3.02c.13.05.27.11.4.16.1-.27.19-.53.29-.8-.13-.05-.25-.1-.38-.14-.1.26-.21.52-.31.78Zm1.86.4c.06.12.13.24.19.36.23-.15.47-.29.7-.44-.05-.09-.1-.18-.15-.27-.24.12-.49.23-.73.35Zm7.21-12.23c-.11.22-.24.36-.22.47.03.12.2.2.3.3.1-.14.24-.27.29-.42.02-.06-.19-.18-.37-.35Zm12.31-19.17c-.25-.07-.41-.17-.49-.13-.11.06-.17.23-.25.36.12.06.26.2.36.17.11-.02.19-.19.38-.4Zm-12.26,22.84c-.21-.15-.32-.3-.44-.3-.1,0-.2.17-.3.27.11.11.2.27.33.31.08.02.22-.14.42-.27Zm-15.63,15.42c-.07-.08-.15-.16-.22-.23-.14.15-.28.31-.42.46l.15.17c.16-.13.33-.26.49-.39Zm-2.94,3.34c-.11-.1-.19-.18-.27-.25-.07.08-.2.17-.2.25,0,.08.13.17.2.25.08-.07.16-.15.27-.25Zm28.2-37.35c-.14-.11-.23-.22-.32-.22-.09,0-.18.11-.28.17.08.08.14.2.23.22.09.01.19-.08.36-.17Zm-8.59,13.71c-.1.11-.18.19-.25.27.08.07.17.2.25.2.08,0,.17-.13.25-.2-.07-.08-.15-.16-.25-.27Zm-1.42-6.98c-.15-.1-.25-.2-.33-.2-.09,0-.17.13-.25.2.08.07.16.19.25.2.09,0,.18-.1.33-.2Zm-9.19,38.34c-.12-.09-.2-.15-.29-.22-.06.09-.18.19-.17.27,0,.08.14.16.21.23.07-.08.14-.17.24-.29Zm-10.01-6.14c-.09-.14-.14-.23-.2-.33-.08.07-.23.12-.24.2-.01.09.08.2.13.3.09-.05.19-.1.31-.17Zm3.76,33.21c-.1-.12-.17-.21-.24-.29-.08.08-.21.15-.22.23,0,.09.11.18.17.28.09-.06.17-.13.29-.21Zm19.17-68.55l-.09.2c.07.03.15.1.2.08.05-.02.06-.12.09-.19-.07-.03-.14-.06-.2-.09Zm-9.53,39.32c-.07-.03-.15-.1-.2-.08-.05.02-.06.12-.09.19.07.03.15.1.2.08.05-.02.06-.12.09-.19Zm-9.72-1.32c-.03.07-.06.14-.09.2.07.03.15.1.2.08.05-.02.06-.12.09-.19-.07-.03-.14-.06-.2-.09Zm.67,29.46c.07.03.15.1.2.08.05-.02.06-.12.09-.19-.07-.03-.15-.1-.2-.08-.05.02-.06.12-.09.19Zm-1.79-35.91c.03-.07.1-.15.08-.2-.02-.05-.12-.06-.19-.09-.03.07-.1.15-.08.2.02.05.12.06.19.09Zm24,2c.03-.07.1-.15.08-.2-.02-.05-.12-.06-.19-.09-.03.07-.1.15-.08.2.02.05.12.06.19.09Z"/>
  <path class="cls-28" d="m164.7,53.28c1.24,1.56,2.5,3.1,3.7,4.68,4,5.32,6.6,11.31,8.6,17.62,1.45,4.57,2.44,9.23,3.11,13.95.6,4.23.97,8.49,1.39,12.74.16,1.57.17,3.15.26,4.73-.82-.08-1.64-.17-2.46-.25-.72-8.98-1.93-17.89-4.83-26.44-1.3-3.83-3.06-7.54-4.97-11.11-1.75-3.27-4-6.29-6.02-9.42.68-.38,1.36-.76,2.04-1.14-1.03-1.53-1.4-1.61-2.71-.66-.16.12-.36.19-.54.28-1.36-1.4-2.64-2.88-4.08-4.18-2.16-1.93-4.43-3.73-6.65-5.58-.37-2.29-.52-2.38-1.99-1.27-2.17-1.08-4.33-2.16-6.5-3.24.61-1.2,1.34-.37,2.11,0,.17-.72.29-1.2-.64-1.26-.46-.03-.89-.31-1.35-.46-.7-.23-1.41-.45-2.28-.72.07.78.11,1.22.15,1.67-3.51-.95-6.99-1.99-10.53-2.83-2.2-.52-4.48-.73-6.72-1.08.11-.95.87-.88,1.54-1.09.79-.25,2.04.2,2.21-1.21,3.76.57,7.55.96,11.26,1.77,2.97.65,5.83,1.82,8.74,2.76,4.04,1.5,7.64,3.77,11.04,6.38.18,1.06.28,1.14.99.79.57.52,1.15,1.03,1.72,1.55l-.11.37c.12-.05.25-.09.37-.14,1.06.93,2.13,1.87,3.19,2.8Zm-6.45-3.07c.08-.08.15-.16.23-.23-.17-.13-.33-.27-.5-.4-.05.06-.1.11-.16.17.14.16.28.31.43.47Z"/>
  <path class="cls-6" d="m99.26,93.99c.66-.02,1.32-.03,1.99-.05.49-.01.99-.02,1.48-.04.1.02.19.04.29.06-1.43,1.97-2.75,4.03-4.3,5.9-4.22,5.13-8.46,10.24-12.84,15.24-2.57,2.93-5.4,5.62-8.11,8.43.21-1.09.21-2.3.7-3.24.47-.9,1.39-1.62,2.25-2.24.77-.56,1.82-.76,2.55-1.36.66-.54,1.3-1.34,1.51-2.15.28-1.06,1.12-1.47,1.72-2.17.21-.24.28-.6.42-.9-.34-.05-.79-.27-1.01-.13-1.34.85-2.72,1.12-4.26.69-.25-.07-.59.32-.9.35-.78.06-1.66.27-2.33,0-1.48-.61-2.01-.46-2.15,1.07-.09.92-.46.99-1.12.51-1.16-.85-1.75-.74-2.68.35-1.91,2.24-3.82,4.47-5.8,6.64-1.87,2.05-3.87,3.98-5.73,6.03-1.19,1.31-2.19,2.81-3.37,4.13-.76.85-1.81,1.45-2.56,2.31-1.83,2.12-3.55,4.34-5.35,6.49-.58.69-1.27,1.28-1.89,1.94-.47.5-.84,1.09-1.36,1.52-.46.38-1.05.77-1.62.83-.68.08-1.31-.27-1.3-1.16.08.01.17.03.25.04.17,0,.35,0,.52,0,.35-.21.77-.34,1.03-.63,1.77-1.96,3.5-3.94,5.24-5.92h-.01c.09-.09.17-.18.26-.28.07-.09.15-.17.22-.26.28-.3.56-.6.85-.91l-.08-.04s.08.04.08.04c2.99-3.27,5.98-6.54,8.97-9.81.73-.82,1.47-1.64,2.2-2.47.09-.1.18-.2.26-.3.16-.17.33-.33.49-.5,1.91-2.01,3.81-4.02,5.72-6.03.51-.62,1.02-1.25,1.54-1.87.1-.11.2-.23.3-.34.3-.36.61-.71.91-1.07.08-.09.17-.17.25-.26.07-.07.13-.13.2-.2.68-.34,1.37-.69,2.05-1.03.41,0,.81-.01,1.22-.02.35-.06.7-.11,1.05-.17.24-.01.49-.02.73-.03.1-.02.19-.03.29-.05.32-.06.65-.13.97-.19.51-.07,1.01-.15,1.52-.22.24-.01.48-.03.72-.04.1,0,.2-.02.29-.03l.66-.09c.12-.01.23-.03.35-.04.23-.02.47-.03.7-.05.09,0,.18,0,.28,0,.41-.01.81-.03,1.22-.04.19-.05.37-.09.56-.14.68-.64,1.46-1.21,2.03-1.94,2.69-3.44,5.32-6.92,7.97-10.39.65-.25,1.32-.45,1.93-.77.73-.38.7-.85-.01-1.26.03-.25.05-.49.08-.74.66-.33,1.32-.67,1.98-1Z"/>
  <path class="cls-12" d="m137.75,76.76c-1.66-1.18-3.23-2.5-5-3.47-1.2-.66-.94-1.29-.44-2.05.89-1.35,1.84-2.67,2.79-3.97,1.44-1.98,2.85-3.99,4.39-5.89,2.36-2.91,5.1-3.45,8.49-1.82,2.13,1.89,2.9,4.25,2.24,7.25,2.31-.32,4.43-.62,6.56-.91.04.11.08.23.13.34-.97,1.15-1.32,2.88-3.15,3.21-1.26.23-2.56.28-3.79.6-.84.22-1.76.61-2.33,1.22-1.23,1.31-2.25,2.82-3.41,4.31-.46-.33-.82-.61-1.19-.86-.95-.62-1.05-1.19-.19-2.07.74-.76,1.24-1.75,1.85-2.64.89-1.39,2.03-2.68,2.63-4.19.89-2.25-1.03-4.52-3.32-4-.89.2-1.86.86-2.43,1.59-1.84,2.35-3.54,4.82-5.23,7.28-.19.27-.19,1.01,0,1.16,1.34,1.04,2.76,1.97,4.16,2.94,1.87,1.37,3.68,2.85,5.63,4.08,1.73,1.1.15,1.82-.18,2.6-.45,1.07-1.12.24-1.58-.08-2.22-1.52-4.41-3.09-6.61-4.64Z"/>
  <path class="cls-3" d="m137.75,76.76c2.2,1.55,4.38,3.12,6.61,4.64.46.31,1.14,1.15,1.58.08.32-.78,1.91-1.51.18-2.6-1.96-1.24-3.76-2.71-5.63-4.08.7-1.17,1.31-2.42,2.15-3.47.48-.6,1.35-.89,2.04-1.32-.61.89-1.11,1.88-1.85,2.64-.86.88-.76,1.45.19,2.07.38.24.73.52,1.19.86,1.16-1.49,2.18-3,3.41-4.31.57-.61,1.5-1,2.33-1.22,1.23-.32,2.53-.38,3.79-.6,1.83-.33,2.18-2.06,3.15-3.21-.04-.11-.08-.23-.13-.34-2.12.3-4.25.59-6.56.91.66-3.01-.11-5.36-2.24-7.25.7-1.48,1.46-1.61,2.34-.41.38.96.77,1.91,1.15,2.87.06.17.13.34.19.51.04.32.08.64.11.96.08.58.16,1.16.24,1.73.67-.13,1.33-.26,2-.38.39-.06.78-.12,1.16-.18.11-.03.23-.06.34-.08.96.01,2.04-.45,2.74.65-.01.34-.03.68-.04,1.02-.94,1.35-1.85,2.73-2.86,4.01-.26.33-.89.36-1.36.53-.1.01-.2.02-.3.04-.14.04-.28.08-.43.12-.1.02-.21.03-.31.05-.32.02-.63.04-.95.06-.27.06-.53.12-.8.18-.23.03-.46.07-.69.1-.11.03-.23.06-.34.09-1.12,0-1.87.52-2.47,1.5-.73,1.17-1.66,2.22-2.51,3.32.01.25.03.51.04.76.9.59,1.82,1.16,2.69,1.79.61.43.67.99.23,1.62-1.39,1.97-2.74,3.97-4.14,5.94-.65.92-1.59,1.31-2.73,1.16-.29-.04-.58-.08-.86-.13q-2.94-.48-4.48,2.24c-.09.12-.18.25-.27.37,0,0,.02-.03.02-.03-.61.88-1.23,1.76-1.84,2.64,0,0-.02.04-.02.04-1.65,1.47.52,2.52.14,3.85.13.03.26.06.39.09,1.03-1.11,2.06-2.22,3.09-3.33.6-.58,1.19-1.15,1.79-1.73.15.15.31.3.46.46-2.57,4.26-5.14,8.52-7.7,12.79-.22-.23-.43-.45-.65-.68,1.01-.87.16-2.12.62-3.11.18-.28.3-.62.54-.83,1.07-.95,1.1-1.96.52-3.24-1.33-2.91-2.52-5.89-3.76-8.84-.39-.94-.75-1.89-1.25-3.16,1.96.22,3.58.4,5.54.62-.63.8-.92,1.31-1.33,1.69-1.46,1.32-1.16,2.76-.38,4.27.32.62.67.69,1.09.08.84-1.23,1.85-2.37,2.5-3.69,1.06-2.15,2.63-2.45,4.75-1.95,2.16.51,3.79-.65,4.24-2.85-.9-.12-1.79-.23-2.69-.35-.09,0-.18-.01-.27-.02-.24,0-.49,0-.73,0-.09,0-.18-.01-.27-.02-2-.24-3.99-.47-5.99-.71.12-.29.22-.81.37-.83,1.2-.13,1.54-1.03,2.17-1.86.64-.85.71-1.61.71-2.52Zm3.75,4.24c-.17-.08-.33-.17-.5-.25-.67-.49-1.34-.98-2.01-1.48-.31.02-.62.05-.92.07-.17.32-.43.63-.47.97-.03.23.26.49.41.74.05.2.1.4.25.96.15-.55.2-.75.26-.95.16,0,.32-.01.48-.02.43.06.86.12,1.29.18.25.05.49.1.74.15.17.04.33.09.5.13.13-.06.26-.12.39-.19-.13-.11-.26-.21-.4-.32Z"/>
  <path class="cls-22" d="m50.53,136.54c-1.74,1.98-3.48,3.97-5.24,5.92-.26.29-.68.42-1.03.63-.17,0-.35,0-.52,0-.08-.01-.17-.03-.25-.04,0,0,.03-.08.03-.08,0-.49-.02-.99-.03-1.48,1.58-2.87,3.14-5.75,4.75-8.61,4.9-8.73,9.82-17.45,14.73-26.18,2.67-4.74,5.29-9.51,8.05-14.2.39-.66,1.44-.94,2.18-1.39.19-.03.37-.06.56-.08.32-.03.64-.06.96-.09.12-.02.23-.04.35-.06.14-.03.27-.05.41-.08.09-.01.19-.02.28-.03.72-.13,1.45-.26,2.17-.39.11-.03.23-.06.34-.09.23-.03.46-.07.69-.1.27-.05.53-.11.8-.16.31-.04.62-.07.93-.11.11-.03.23-.06.34-.08,1.48-.19,2.98-.3,4.44-.6.59-.12,1.25-.55,1.61-1.03,8.68-11.83,19.54-21.42,31.17-30.19,3.04-2.3,6.27-4.36,9.41-6.52.63-.23,1.27-.43,1.88-.69.5-.22.97-.51,1.46-.78-.1.25-.13.61-.32.74-2.08,1.49-4.1,3.08-6.3,4.37-2.66,1.55-5.15,3.28-7.45,5.32-.19.17-.37.33-.57.48-2.43,1.82-4.92,3.57-7.27,5.49-1.58,1.29-3,2.8-4.43,4.26-2.64,2.69-5.24,5.43-7.86,8.14-.69.71-1.31,1.54-2.13,2.06-2.43,1.52-3.71,4.06-5.45,6.15-1.92,2.3-3.78,4.21-7.04,4.01-1.42-.09-2.86-.2-4.16.78-.45.34-1.27.32-1.9.25-2.41-.27-4.06.59-5.17,2.75-.59,1.14-1.23,2.25-1.89,3.34-.64,1.05-1.63,1.98-1.93,3.11-.42,1.58-1.33,2.81-2.13,4.13-.61,1.01-1.37,1.94-1.95,2.97-.6,1.07-1,2.27-1.61,3.33-.72,1.24-1.66,2.36-2.38,3.61-1.5,2.6-2.93,5.24-4.34,7.89-.41.77-.55,1.68-.99,2.43-1.21,2.11-2.54,4.14-3.75,6.24-.95,1.65-1.79,3.35-2.65,5.05-.13.25-.07.6-.1.9.3-.04.63-.01.9-.13.82-.35,1.61-.75,2.41-1.13Z"/>
  <path class="cls-24" d="m155.54,37.88c.25-.08.5-.16.76-.24,2.99-.98,5.97-1.96,8.96-2.94.5-.15,1-.3,1.5-.45.09-.01.18-.02.27-.03.08-.02.15-.01.23,0,.15.26.29.53.44.79-.07.74-.15,1.47-.22,2.21-.06.35-.12.7-.18,1.04-.02.49-.04.97-.06,1.46-.01.1-.02.19-.03.29-.05.32-.09.63-.14.95-.01.1-.02.19-.04.29-.09.58-.18,1.16-.27,1.73-.04.18-.08.36-.12.54-.05.23-.09.47-.14.7-.07.43-.14.85-.22,1.28-.03.4-.06.8-.09,1.2-.05.19-.1.38-.14.56-.02.32-.03.64-.05.96-.01.09-.03.19-.04.28-.16.73-.32,1.46-.48,2.2-.17.02-.34.05-.51.07-4.61-3.93-9.21-7.86-15-10.02-.03-.21-.06-.42-.08-.63,1.89-.76,3.77-1.51,5.66-2.27Z"/>
  <path class="cls-12" d="m134.5,81.97c2,.24,3.99.47,5.99.71.09,0,.18.01.27.01.24,0,.49,0,.73,0,.09,0,.18.01.27.02.9.12,1.79.23,2.69.35-.45,2.21-2.08,3.36-4.24,2.85-2.12-.5-3.69-.2-4.75,1.95-.65,1.32-1.66,2.47-2.5,3.69-.42.61-.77.54-1.09-.08-.78-1.5-1.07-2.95.38-4.27.41-.38.71-.89,1.33-1.69-1.96-.22-3.58-.4-5.54-.62.5,1.26.86,2.22,1.25,3.16,1.24,2.95,2.43,5.93,3.76,8.84.58,1.28.56,2.29-.52,3.24-.24.21-.36.55-.54.83-.32-.16-.83-.23-.94-.49-1.64-3.67-3.24-7.36-4.83-11.05-.69-1.6-1.44-3.18-2.01-4.81-.66-1.89.25-3.17,2.24-3.13,2.15.05,4.29.28,6.44.43.54.04,1.08.03,1.61.05Z"/>
  <path class="cls-12" d="m110.94,101.22c2.36-4.01,5.8-5.75,9.57-4.84,5.65,1.36,8.64,7.64,5.57,12.42-1.47,2.29-3.2,4.42-4.88,6.58-.33.42-.95.61-1.44.91,0-.08,0-.17-.01-.25q-.64-2.22,1.54-3.09c.91-.36,1.52-1.94,1.12-2.45-.53.19-.97.34-1.41.5.79-1.15,1.56-2.33,2.39-3.46,2.16-2.98.48-7.32-3.13-8.04-1.49-.49-3.06-.61-4.24.48-1.25,1.15-2.2,2.61-3.28,3.94-.49.69-.98,1.39-1.47,2.08-.09.16-.18.32-.26.48-.07.02-.13.03-.2.04-1.26-1.23-1.09-1.87.66-2.51.08-.97.57-2.02-.51-2.79Z"/>
  <path class="cls-3" d="m99.26,93.99c-.66.33-1.32.67-1.98,1-.09,0-.18,0-.27,0-1.91-.99-2.42-1.57-1.93-3.07.29-.88,1.1-1.79,1.91-2.27,5.28-3.07,9.58-7.27,13.65-11.72,2.19-2.39,3.65-5.22,4.42-8.39.06-.19.11-.37.17-.56.34-.6.68-1.2,1.01-1.8.5-.21,1-.41,1.5-.62l2.06.91c.31.44.61.87.92,1.31.03.73.06,1.45.08,2.18-.46.39-.91.8-1.4,1.16-.34.25-.75.42-1.13.62.16-1.02.4-2.04.45-3.07.02-.42-.33-.86-.51-1.29-.37.28-.91.48-1.08.85-.57,1.29-.91,2.68-1.51,3.95-2.18,4.57-5.29,8.43-9.23,11.61-.84.68-1.63,1.42-2.44,2.13-.24.19-.49.37-.73.56-1.01.72-2.02,1.45-3.03,2.17-.26.19-.52.38-.79.56-.6.42-1.24.79-1.77,1.28-1.05.96-.82,1.78.56,2.2.35.1.69.19,1.04.29Z"/>
  <path class="cls-9" d="m120.99,111c.44-.16.88-.31,1.41-.5.4.51-.21,2.09-1.12,2.45q-2.18.86-1.54,3.09c.02.08,0,.16.01.25-3.22,1.82-8.37.52-10.72-2.71-2.38-3.28-2.41-6.43-.06-9.78.62-.88,1.3-1.71,1.96-2.57,1.08.77.59,1.82.51,2.79-1.75.63-1.92,1.28-.66,2.51-1.07,2.15-.47,4.01.97,5.73.08.08.16.17.24.25h.01c.08.09.16.17.25.25h0c.1.08.19.16.29.24,1.96,1.22,4.02,1.93,6.12.5.92-.63,1.57-1.65,2.34-2.49Z"/>
  <path class="cls-3" d="m165.99,48.24c.02-.32.03-.64.05-.96.08-.1.16-.19.24-.29.85.16.73.69.58,1.32-.2.87-.28,1.76-.45,2.63-.05.27-.21.53-.38.75-.42.54-.88,1.06-1.33,1.58-1.06-.93-2.13-1.87-3.19-2.8-.09-.08-.17-.16-.26-.23-.57-.52-1.15-1.03-1.72-1.55-.33-.26-.66-.53-.99-.79-3.4-2.61-7-4.88-11.04-6.38,0-.16-.06-.4.03-.48.91-.85,1.73-1.93,2.81-2.45,1.29-.63,2.83-.76,4.24-1.16.52-.15.89-.24.97.45-1.89.76-3.77,1.51-5.66,2.27.03.21.06.42.08.63,5.79,2.16,10.39,6.09,15,10.02.17-.02.34-.05.51-.07.16-.73.32-1.46.48-2.2.01-.09.03-.19.04-.28Z"/>
  <path class="cls-22" d="m120.81,70.97c-.03-.73-.06-1.45-.08-2.18.42-.1.89-.12,1.27-.31.68-.33,1.36-.7,1.94-1.18.99-.82,1.94-1.69,2.83-2.61.86-.89,2.53-.79,2.84-2.35.03-.13.23-.23.36-.33,2.52-1.91,5.47-3.27,7.6-5.7.13-.14.35-.2.53-.3,1.18-.67,2.38-1.3,3.52-2.03,1.53-.98,2.93-2.2,4.55-2.99,1.08-.53,1.22-1.05.83-2,.75-.05,1,.33,1.02,1.04,0,.44.18.87.27,1.3-2.55,1.54-5.14,3.03-7.65,4.63-6.31,4.02-12.23,8.57-17.87,13.49-.62.54-1.3,1.01-1.96,1.51Z"/>
  <path class="cls-1" d="m127.5,37c-.17,1.42-1.41.96-2.21,1.21-.67.21-1.43.14-1.54,1.09-2.56-.17-5.13-.42-7.69-.47-1.77-.04-3.55.21-5.33.33-.08,0-.15,0-.23.01-1.16.04-2.33.09-3.49.13,0-.42-.02-.83-.02-1.24.17-.02.34-.04.51-.06.08-.01.15-.05.22-.1,2.55-.29,5.08-.68,7.64-.83,3.43-.2,6.87-.22,10.31-.28.61-.01,1.23.14,1.84.22Z"/>
  <path class="cls-27" d="m148.29,51.35c-.1-.43-.26-.87-.27-1.3-.01-.71-.27-1.09-1.02-1.04-.66-.34-1.31-.7-1.97-1.03-1.01-.5-2.02-.98-3.03-1.47-.17-.17-.33-.33-.5-.5-.92,0-1.83,0-2.75,0-.25.17-.5.33-.75.5-.08,0-.17,0-.25,0-.17.17-.33.33-.5.5-.5.17-1,.33-1.5.5-.89.21-1.78.41-2,1.5-.25,0-.5,0-.75,0-.88-.24-1.05.39-1.25,1-.25,0-.5,0-.75,0-.48.26-.96.56-1.46.78-.61.27-1.25.47-1.88.69,3.86-2.25,7.72-4.49,11.57-6.74.35-.03.71-.06,1.06-.09,3.58,1.3,6.89,3.1,10.29,5.32-.87.52-1.59.95-2.31,1.39Z"/>
  <path class="cls-17" d="m179.91,129.26c-.02-.34-.03-.68-.05-1.02.04-.1.07-.19.11-.29.02-.9.04-1.8.06-2.7.03-.02.09-.05.08-.07-.01-.06-.04-.12-.06-.19,0-2.75,0-5.49-.01-8.24,1.09-.09.86-.98.96-1.64.08-.48-.2-1.14.69-1.1-.33,5.08-.66,10.16-.99,15.24-.26,0-.52,0-.78,0Z"/>
  <path class="cls-14" d="m125.48,96.72c.4-.51.79-1.02,1.39-1.79.47.91.84,1.56,1.16,2.25.49,1.05,1.06,2.09,1.36,3.19.12.45-.36,1.07-.56,1.62-.3-.3-.65-.57-.9-.91-.83-1.18-1.62-2.39-2.43-3.59,0-.26-.02-.51-.02-.77Z"/>
  <path class="cls-16" d="m179.28,106.75c.82.08,1.64.17,2.46.25,0,1,0,2,0,3-.33.54-.67,1.07-1,1.61-.33.54-.64,1.09-.95,1.64-.17-2.17-.34-4.34-.51-6.51Z"/>
  <path class="cls-25" d="m151.48,62.01c-.38-.96-.77-1.91-1.15-2.87,1.21-2.16,2.42-4.32,3.72-6.64.56.52,1.12,1.03,1.68,1.54-.08.32-.16.64-.23.96-.33-.24-.66-.48-1.16-.85-.77,1.18-1.4,2.39-2.26,3.41-1.12,1.32-1.25,2.58-.3,4.01.04.06-.19.29-.29.45Z"/>
  <path class="cls-11" d="m106.99,38.06c0,.41.02.83.02,1.24-2.26.31-4.52.61-6.78.92.01-.27.03-.53.04-.8,1.63-.32,3.26-.65,4.89-.97.11-.05.22-.09.32-.14.5-.09,1-.17,1.49-.26Z"/>
  <path class="cls-28" d="m179.8,113.25c.32-.55.63-1.1.95-1.64.33-.54.67-1.08,1-1.61-.02,1.34-.04,2.68-.06,4.01-.89-.04-.61.63-.69,1.1-.11.66.13,1.55-.96,1.64-.08-1.17-.16-2.34-.24-3.51Z"/>
  <path class="cls-10" d="m100.28,39.42c-.01.27-.03.53-.04.8-.07.03-.14.05-.22.04-.26.06-.51.12-.77.19-.5.07-.99.14-1.49.22-.09.03-.18.06-.27.08-.91.17-1.82.34-2.73.51-.26.06-.51.11-.77.17-1.16.28-2.33.56-3.49.83-.12-.12-.24-.24-.37-.37,2.37-.63,4.74-1.26,7.11-1.9.08,0,.15-.02.22-.07.35-.06.7-.11,1.05-.17.24-.07.49-.14.73-.21.34-.04.69-.08,1.03-.13Z"/>
  <path class="cls-29" d="m155.5,55c.08-.32.16-.64.23-.96,2.09,2.32,4.18,4.64,6.27,6.96-1.12.14-1.41-.9-2.01-1.46-1.54-1.47-3-3.02-4.5-4.54Z"/>
  <path class="cls-3" d="m165.25,34.7c-2.99.98-5.97,1.96-8.96,2.94,0-.98.79-1.14,1.47-1.38.64-.23,1.29-.43,1.95-.61,1.08-.31,2.16-.58,3.24-.9.46-.14.89-.44,1.35-.49.3-.03.63.28.95.44Z"/>
  <path class="cls-2" d="m179.91,129.26c.26,0,.52,0,.78,0-.34,3.04-.68,6.09-1.02,9.13-.06.54-.12,1.07-.18,1.61-.14,0-.28-.01-.42-.02.01-.41.03-.82.04-1.23.02-.11.05-.22.07-.33.24-3.05.49-6.11.73-9.16Z"/>
  <path class="cls-12" d="m141,43.21c-.04-.44-.08-.88-.15-1.67.87.27,1.58.49,2.28.72.45.15.89.43,1.35.46.93.06.81.55.64,1.26-.77-.37-1.5-1.2-2.11,0-.67-.26-1.34-.52-2.01-.78Z"/>
  <path class="cls-12" d="m162.24,58.26c.18-.09.38-.17.54-.28,1.31-.94,1.69-.87,2.71.66-.69.38-1.36.76-2.04,1.14-.41-.51-.81-1.01-1.22-1.52Z"/>
  <path class="cls-12" d="m90,138.73c.17-.85.37-1.63,1.54-1.52.23.02.49-.36.75-.53.23-.15.48-.34.72-.34.15,0,.44.35.42.5-.04.23-.28.44-.46.64-.32.35-.65.69-.97,1.03-.17-.02-.35-.05-.52-.07-.07.01-.15.02-.22.03-.42.09-.84.17-1.26.26Z"/>
  <path class="cls-12" d="m85.75,130.29c.12,1.2-1.35,1.05-1.62,1.92-.2-.21-.62-.55-.58-.62.21-.37.51-.71.84-.98.22-.17.56-.2.85-.29.17-.01.34-.02.51-.04Z"/>
  <path class="cls-12" d="m59.5,145.2c.29-.48.59-.96.88-1.43.46.31.91.62,1.37.94-.75.17-1.5.33-2.25.5Z"/>
  <path class="cls-12" d="m149.51,47.23c1.47-1.12,1.62-1.02,1.99,1.27-.66-.42-1.33-.84-1.99-1.27Z"/>
  <path class="cls-7" d="m87.03,43.27l-3.47,1.02c-.04-.12-.08-.25-.12-.37l3.43-1.16c.06.17.11.34.17.52Z"/>
  <path class="cls-26" d="m90.13,41.9c.12.12.24.24.37.37-1.02.28-2.04.57-3.05.85-.04-.16-.09-.32-.13-.48.94-.25,1.88-.49,2.82-.74Z"/>
  <path class="cls-12" d="m96.29,150.52c-.13-.33-.27-.65-.4-.98.47-.16.93-.33,1.4-.49-.33.49-.66.98-.99,1.47Z"/>
  <path class="cls-12" d="m97.26,114.51c-.67-.45-.72-.87.06-1.24.4-.19.82-.33,1.23-.5-.43.58-.86,1.16-1.29,1.74Z"/>
  <path class="cls-12" d="m63.52,187.03c-.2-.43-.39-.86-.59-1.29.21-.17.42-.34.63-.5.23.41.46.83.68,1.24-.24.18-.48.37-.72.55Z"/>
  <path class="cls-12" d="m94.48,153.25c-.22-.15-.43-.3-.65-.45.18-.2.32-.47.54-.58.28-.14.62-.14.93-.2-.27.41-.55.82-.82,1.22Z"/>
  <path class="cls-26" d="m179.07,139.98c.14,0,.28.01.42.02-.09.91-.17,1.83-.26,2.74-.12.01-.24.02-.36.03.07-.93.14-1.86.2-2.79Z"/>
  <path class="cls-7" d="m178.86,142.77c.12-.01.24-.02.36-.03-.1.54-.21,1.09-.31,1.63-.14-.02-.28-.05-.42-.07.12-.51.24-1.02.36-1.53Z"/>
  <path class="cls-12" d="m114.51,83.75c-.28-.31-.55-.62-.83-.93.1-.1.19-.21.29-.31.27.17.54.35.8.52-.09.24-.18.48-.26.72Z"/>
  <path class="cls-12" d="m83.46,167.74c-.13-.25-.26-.49-.39-.74.31,0,.63,0,.94.01-.18.24-.37.48-.55.72Z"/>
  <path class="cls-12" d="m106.69,132.5c-.41-.51-.33-.7.56-1.25-.19.42-.37.83-.56,1.25Z"/>
  <path class="cls-12" d="m111.29,91.08c-.28-.57-.56-1.13.5-1.06-.17.35-.33.71-.5,1.06Z"/>
  <path class="cls-12" d="m89.47,124.74c-.12-.12-.25-.23-.37-.35.31-.13.61-.26.92-.39-.18.25-.36.49-.55.74Z"/>
  <path class="cls-12" d="m70,181.75c-.04-.21-.07-.41-.11-.62.21.04.41.09.62.13-.17.16-.34.32-.51.49Z"/>
  <path class="cls-12" d="m104.5,136.75c-.13-.1-.26-.21-.4-.31.24-.14.49-.27.73-.41-.11.24-.22.48-.33.72Z"/>
  <path class="cls-12" d="m108.68,128.5c-.19-.12-.39-.24-.58-.36.23-.03.46-.05.69-.08-.04.15-.07.29-.11.44Z"/>
  <path class="cls-12" d="m105.69,134.5c-.11-.12-.23-.24-.34-.35.21-.13.43-.26.64-.39-.1.25-.2.5-.3.75Z"/>
  <path class="cls-20" d="m43.49,141.48c0,.49.02.99.03,1.48,0-.49-.02-.99-.03-1.48Z"/>
  <path class="cls-21" d="m166.28,45.52c.07-.43.14-.85.22-1.28-.07.43-.14.85-.22,1.28Z"/>
  <path class="cls-20" d="m130.16,132c.01-.42.03-.84.04-1.26-.01.42-.03.84-.04,1.26Z"/>
  <path class="cls-15" d="m111.54,134.73c.05.44.09.88.14,1.32-.05-.44-.09-.88-.14-1.32Z"/>
  <path class="cls-21" d="m140.3,44.64c-.35.03-.71.06-1.06.09.35-.03.71-.06,1.06-.09Z"/>
  <path class="cls-12" d="m93.47,154.73c.1-.16.2-.32.31-.48-.1.16-.2.32-.31.48Z"/>
  <path class="cls-4" d="m167.29,38.27c.06-.35.12-.7.18-1.04-.06.35-.12.7-.18,1.04Z"/>
  <path class="cls-12" d="m107.69,130.5c-.11-.08-.22-.17-.33-.25.16-.07.32-.14.47-.21-.05.16-.1.31-.14.47Z"/>
  <path class="cls-15" d="m167.7,35.02c-.15-.26-.29-.53-.44-.79.15.26.29.53.44.79Z"/>
  <path class="cls-20" d="m125.48,96.72c0,.26.02.51.02.77,0-.26-.02-.51-.02-.77Z"/>
  <path class="cls-20" d="m130.19,133.51c0-.34,0-.67-.01-1.01,0,.34,0,.67.01,1.01Z"/>
  <path class="cls-15" d="m161.03,69.28c.07-.26.14-.52.21-.78-.07.26-.14.52-.21.78Z"/>
  <path class="cls-4" d="m158.02,78.26c.08-.25.17-.5.25-.74-.08.25-.17.5-.25.74Z"/>
  <path class="cls-16" d="m93.99,41.43c.26-.06.51-.11.77-.17-.26.06-.51.11-.77.17Z"/>
  <path class="cls-21" d="m79.76,90.01c-.27.05-.53.11-.8.16.27-.05.53-.11.8-.16Z"/>
  <path class="cls-11" d="m99.25,40.45c.26-.06.51-.12.77-.19-.25.06-.51.12-.77.19Z"/>
  <path class="cls-11" d="m99.25,39.55c-.24.07-.49.14-.73.21.24-.07.49-.14.73-.21Z"/>
  <path class="cls-15" d="m166.28,47c-.08.1-.16.19-.24.29.05-.19.1-.38.14-.56.03.09.06.18.09.28Z"/>
  <path class="cls-21" d="m73.76,91.02c-.19.03-.37.06-.56.08.19-.03.37-.06.56-.08Z"/>
  <path class="cls-4" d="m166.63,43.54c.04-.18.08-.36.12-.54-.04.18-.08.36-.12.54Z"/>
  <path class="cls-4" d="m87.97,182.73c-.03.19-.06.37-.09.56.03-.19.06-.37.09-.56Z"/>
  <path class="cls-16" d="m179.97,127.95c-.04.1-.08.19-.11.29.04-.1.08-.19.11-.29Z"/>
  <path class="cls-15" d="m78.27,90.28c-.11.03-.23.06-.34.09.11-.03.23-.06.34-.09Z"/>
  <path class="cls-4" d="m75.76,90.76c-.09.01-.19.02-.28.03.09-.01.19-.02.28-.03Z"/>
  <path class="cls-4" d="m161.45,67.78c.02-.09.04-.18.06-.27-.02.09-.04.18-.06.27Z"/>
  <path class="cls-16" d="m180.04,125c.02.06.05.12.06.19,0,.02-.05.05-.08.07,0-.09.01-.17.02-.26Z"/>
  <path class="cls-20" d="m130.2,137.76c-.03-.06-.07-.12-.08-.19,0-.02.05-.05.08-.08,0,.09,0,.18,0,.26Z"/>
  <path class="cls-12" d="m91.26,138.47c.07-.01.15-.02.22-.03,0,0-.11.04-.11.04h-.11Z"/>
  <path class="cls-4" d="m75.06,90.86c-.12.02-.23.04-.35.06.12-.02.23-.04.35-.06Z"/>
  <path class="cls-26" d="m179.18,138.42c-.02.11-.05.22-.07.33.02-.11.05-.22.07-.33Z"/>
  <path class="cls-20" d="m111.79,138.74c.03.06.06.12.08.19,0,.02-.05.05-.08.08,0-.09,0-.18,0-.26Z"/>
  <path class="cls-20" d="m111.8,139.49c.03.06.07.12.09.19,0,.02-.05.05-.08.08,0-.09,0-.18,0-.26Z"/>
  <path class="cls-13" d="m130.32,143.26c0-.09,0-.18,0-.27,0,.09,0,.18,0,.27Z"/>
  <path class="cls-21" d="m111.88,145.95c-.01.11-.03.23-.04.34.01-.11.03-.23.04-.34Z"/>
  <path class="cls-4" d="m167.02,41.26c.01-.1.02-.19.04-.29.01.07.04.14.04.21,0,.03-.05.06-.07.08Z"/>
  <path class="cls-7" d="m97.49,40.75c.09-.03.18-.06.27-.08-.09.03-.18.06-.27.08Z"/>
  <path class="cls-4" d="m167.2,40.02c.01-.1.02-.19.03-.29-.01.1-.02.19-.03.29Z"/>
  <path class="cls-11" d="m97.46,39.93c-.07.05-.14.07-.22.07.07-.02.15-.05.22-.07Z"/>
  <path class="cls-16" d="m110.51,39.17c.08,0,.15,0,.23-.01,0,0-.11.04-.11.04l-.12-.02Z"/>
  <path class="cls-16" d="m105.5,38.31c-.11.05-.22.09-.32.14.11-.05.22-.09.32-.14Z"/>
  <path class="cls-16" d="m107.72,37.9c-.06.06-.13.09-.22.1.07-.03.14-.07.22-.1Z"/>
  <path class="cls-15" d="m167.02,34.22c-.09.01-.18.02-.27.03.09-.01.18-.02.27-.03Z"/>
  <path class="cls-15" d="m81.03,89.82c-.11.03-.23.06-.34.08.11-.03.23-.06.34-.08Z"/>
  <path class="cls-29" d="m162.21,61.26c-.07-.09-.14-.17-.21-.26.07.09.14.17.21.26Z"/>
  <path class="cls-14" d="m137.48,93.24c-1.03,1.11-2.06,2.22-3.09,3.33-.13-.03-.26-.06-.39-.09.38-1.33-1.79-2.38-.14-3.85.37,1.78.6,1.86,2.23.98.41-.22.93-.26,1.39-.38Z"/>
  <path class="cls-14" d="m154.03,64.83c-.67.13-1.33.26-2,.38-.08-.58-.16-1.16-.24-1.73-.04-.32-.08-.64-.11-.96.69.52,1.4,1.01,2.06,1.57.18.15.2.49.29.74Z"/>
  <path class="cls-14" d="m133.88,92.6c.61-.88,1.23-1.76,1.84-2.64-.03,1.34-.87,2.54-1.84,2.64Z"/>
  <path class="cls-4" d="m139.72,91.97c-.15-.15-.31-.3-.46-.46.12-.25.24-.49.35-.74.14.11.29.21.43.32-.11.29-.22.58-.33.87Z"/>
  <path class="cls-13" d="m158.24,66.23c.01-.34.03-.68.04-1.02-.01.34-.03.68-.04,1.02Z"/>
  <path class="cls-15" d="m145.26,76.99c-.01-.25-.03-.51-.04-.76.01.25.03.51.04.76Z"/>
  <path class="cls-4" d="m151.23,71.22c.27-.06.53-.12.8-.18-.27.06-.53.12-.8.18Z"/>
  <path class="cls-4" d="m155.53,64.56c-.11.03-.23.06-.34.08.11-.03.23-.06.34-.08Z"/>
  <path class="cls-21" d="m152.98,70.97c.1-.02.21-.03.31-.05-.1.02-.21.03-.31.05Z"/>
  <path class="cls-21" d="m153.72,70.81c.1-.01.2-.02.3-.04-.1.01-.2.02-.3.04Z"/>
  <path class="cls-21" d="m150.2,71.41c.11-.03.23-.06.34-.09-.11.03-.23.06-.34.09Z"/>
  <path class="cls-14" d="m135.7,89.98c.09-.12.18-.25.27-.37-.09.12-.18.25-.27.37Z"/>
  <path class="cls-12" d="m64.84,140.38c.96-.64,1.75-1.45,2.68-1.7.86-.23,1.88.12,3.12.25-.44-.51-.72-.83-1.21-1.39.57,0,1.11-.16,1.29.03,1.27,1.3,2.7.32,4.04.39-.03-.14-.05-.27-.08-.41.4-.16.79-.36,1.21-.45.34-.08.72.01,1.07-.06,1.83-.37,3.68-.66,5.47-1.18,1.23-.35,2.71-.69,2.48-2.61-.02-.14,1.03-.4,1.58-.61.05.13.09.25.14.38-.38.25-.77.5-1.16.75.38.87,1.93-.07,1.54,1.5,1.45-1.11,4.24-1.38,5.57-.57-.34.12-.59.2-.82.3-.54.23-1.16.38-1.6.74-1.13.92-2.14,1.01-3.21.11-.42.37-.83.75-1.28,1.1-.19.14-.48.33-.66.27-1.88-.61-3.54.14-5.28.69-1.01.32-2.16.21-3.23.36-.46.06-.91.29-1.35.46-.19.07-.42.29-.55.24-1.58-.66-2.8.3-4.07.92-.99.48-1.84.66-2.28-.49-1.08.55-2.06,1.06-3.07,1.51-.05.02-.35-.54-.34-.52Z"/>
  <path class="cls-12" d="m90.71,151.71c-.69-.11-1.01-.16-1.33-.2-1.15-.15-1.39-.58-.68-1.53.54-.72.42-1.94,1.64-2.17.1-.02.08-.53.16-.8.11-.39.22-.79.4-1.14.29-.57.65-1.11.98-1.67-.1-.11-.19-.23-.29-.34.25.02.71.02.71.07.05.51.1,1.05,0,1.55-.12.61-.37,1.19-.58,1.77-.12.33-.24.67-.44.95-.33.48-.72.92-1.09,1.37.08.09.15.19.23.28-.29.03-.59.06-1.05.11.43.58.77,1.04,1.32,1.77Z"/>
  <path class="cls-12" d="m71.56,132.91c-1.27,1.38-2.34,2.54-3.55,3.86-.3-1.62,1.71-3.84,3.55-3.86Z"/>
  <path class="cls-12" d="m102.73,93.91c-.49.01-.99.02-1.48.04-.24-.68-.25-1.16.7-1.22.79-.04,1.58-.26,2.48-.42-.18.9-.5,1.46-1.42,1.44-.09.05-.19.11-.28.16Z"/>
  <path class="cls-12" d="m67.05,179.96c.77-.84,1.53-1.68,2.39-2.62.64.69.87.94,1.05,1.14-.14.68-2.25,1.92-3.05,1.91-.13-.14-.26-.28-.39-.42Z"/>
  <path class="cls-12" d="m92.27,141.56c1.01-.09,1.67-.16,2.32-.22.06.16.13.33.19.49-.5.41-1,.81-1.61,1.31-.29-.52-.48-.86-.9-1.59Z"/>
  <path class="cls-12" d="m87.52,117.19c-.65.46-1.3.93-2.11,1.5.05-1.21.84-1.84,1.92-1.81.06.1.13.2.19.31Z"/>
  <path class="cls-12" d="m83.43,158.53c.39.36.51.44.5.46-.25.55-.52,1.1-.78,1.65-.19-.11-.56-.28-.55-.31.23-.57.51-1.12.83-1.8Z"/>
  <path class="cls-12" d="m77.5,166.95c.4-.52.81-1.03,1.21-1.55l.4.15c-.02.33.08.79-.1.98-.33.35-.82.54-1.25.8-.09-.12-.18-.25-.27-.37Z"/>
  <path class="cls-12" d="m104.87,94.24q.77.75-1.16,1.97c.38-.64.76-1.29,1.16-1.97Z"/>
  <path class="cls-12" d="m86.27,154.07c.45-.26.9-.51,1.45-.83.52.72.11,1.21-.39,1.48-.25.13-.72-.14-1.09-.24,0-.14.02-.27.03-.41Z"/>
  <path class="cls-12" d="m72.26,131.11c.4-.76.84-1.44,1.78-1.3.07.12.15.24.22.35-.58.46-1.17.92-1.75,1.37-.08-.14-.16-.28-.24-.43Z"/>
  <path class="cls-12" d="m98.09,103.18c.6-.51,1.2-1.03,1.8-1.54.14.17.28.33.42.5-.62.53-1.24,1.06-1.86,1.59-.12-.18-.23-.36-.35-.55Z"/>
  <path class="cls-12" d="m71,175.58c.68-.77,1.14-1.29,1.62-1.83.43.87.11,1.25-1.62,1.83Z"/>
  <path class="cls-12" d="m82.38,161.6c-.21.4-.42.81-.63,1.21-.19-.1-.37-.2-.56-.29.22-.42.43-.84.65-1.27l.54.35Z"/>
  <path class="cls-12" d="m80.69,127.03c.35,1.37.3,1.42-1.05,1.27.36-.43.63-.76,1.05-1.27Z"/>
  <path class="cls-12" d="m93.31,108.77c.47-.15.94-.31,1.43-.47-.08.97-.22,1.04-1.43.47Z"/>
  <path class="cls-12" d="m91.21,113.13c-.49.36-.97.73-1.46,1.09-.08-.1-.17-.21-.25-.31.48-.41.96-.81,1.44-1.22.09.15.18.3.27.44Z"/>
  <path class="cls-12" d="m76.32,170.1c-.31.33-.61.65-.92.98-.13-.11-.26-.22-.39-.32.27-.36.55-.72.82-1.08.16.14.33.28.49.42Z"/>
  <path class="cls-12" d="m80.87,164.18c-.52.44-.69.58-.86.72-.16-.23-.37-.45-.47-.71-.02-.06.29-.37.44-.37.26.01.5.19.88.35Z"/>
  <path class="cls-12" d="m107.62,86h1.27c0,.13.02.26.02.38-.42.03-.83.07-1.25.1-.01-.16-.03-.32-.04-.48Z"/>
  <path class="cls-12" d="m64.01,139.54c.41-.28.81-.55,1.22-.83.07.11.14.21.22.32-.38.34-.76.68-1.13,1.02-.1-.17-.2-.34-.31-.51Z"/>
  <path class="cls-12" d="m95.78,106.61c.32-.28.63-.57.95-.85.11.12.21.24.32.36-.33.3-.67.6-1,.9-.09-.14-.17-.27-.26-.41Z"/>
  <path class="cls-12" d="m63.52,141.74c-.35-.16-.7-.33-1.05-.49l.22-.45c.35.18.7.35,1.05.53-.08.14-.15.28-.23.42Z"/>
  <path class="cls-12" d="m83.39,120.89c-.3.24-.48.44-.71.54-.07.03-.26-.2-.4-.31.17-.19.32-.41.53-.55.07-.04.29.15.57.32Z"/>
  <path class="cls-12" d="m103.01,89.35c.02.34.05.68.07,1.03-.15.02-.29.03-.44.05-.04-.33-.08-.67-.12-1,.17-.02.33-.05.5-.07Z"/>
  <path class="cls-12" d="m71.21,175.31c.09.49.14.78.27,1.48-.49-.41-.69-.58-.89-.75.18-.21.36-.42.63-.73Z"/>
  <path class="cls-12" d="m103.12,98.44c-.24-.03-.48-.06-.72-.08.04-.14.07-.4.11-.4.22-.01.45.04.67.07l-.06.41Z"/>
  <path class="cls-12" d="m89.46,114.78c-.21.17-.41.34-.61.5-.14-.15-.19-.2-.24-.26.21-.18.42-.36.63-.53l.23.29Z"/>
  <path class="cls-12" d="m91.72,111.76c.1-.26.21-.52.31-.78.13.05.25.1.38.14-.1.27-.19.53-.29.8-.13-.05-.27-.11-.4-.16Z"/>
  <path class="cls-12" d="m98.3,103.51c-.06.3-.12.59-.18.89-.14-.04-.28-.07-.42-.11.1-.29.2-.58.3-.87.1.03.2.06.3.09Z"/>
  <path class="cls-12" d="m93.58,112.17c.24-.12.49-.23.73-.35.05.09.1.18.15.27-.23.15-.47.29-.7.44-.06-.12-.13-.24-.19-.36Z"/>
  <path class="cls-12" d="m100.79,99.93c.18.16.39.29.37.35-.04.16-.19.28-.29.42-.11-.1-.28-.19-.3-.3-.02-.11.11-.25.22-.47Z"/>
  <path class="cls-12" d="m113.1,80.77c-.19.21-.27.38-.38.4-.1.02-.24-.11-.36-.17.08-.12.14-.29.25-.36.08-.04.24.06.49.13Z"/>
  <path class="cls-12" d="m100.84,103.61c-.2.14-.33.3-.42.27-.13-.03-.22-.2-.33-.31.1-.1.2-.27.3-.27.12,0,.23.15.44.3Z"/>
  <path class="cls-12" d="m103.24,87.49c.24-.19.49-.37.73-.56-.08.4,0,1.02-.73.56Z"/>
  <path class="cls-12" d="m85.21,119.03c-.16.13-.33.26-.49.39l-.15-.17c.14-.15.28-.31.42-.46.07.08.15.16.22.23Z"/>
  <path class="cls-12" d="m82.27,122.38c-.11.1-.19.18-.27.25-.07-.08-.2-.17-.2-.25,0-.08.13-.17.2-.25.08.07.16.15.27.25Z"/>
  <path class="cls-12" d="m110.47,85.03c-.17.08-.27.18-.36.17-.09-.01-.15-.14-.23-.22.09-.06.18-.17.28-.17.09,0,.17.11.32.22Z"/>
  <path class="cls-12" d="m101.88,98.73c.1.11.18.19.25.27-.08.07-.17.2-.25.2-.08,0-.17-.13-.25-.2.07-.08.15-.16.25-.27Z"/>
  <path class="cls-12" d="m100.46,91.75c-.15.1-.25.2-.33.2-.09,0-.17-.13-.25-.2.08-.07.16-.19.25-.2.09,0,.18.1.33.2Z"/>
  <path class="cls-12" d="m91.26,130.09c-.1.12-.17.2-.24.29-.08-.08-.21-.15-.21-.23,0-.09.11-.18.17-.27.08.06.17.13.29.22Z"/>
  <path class="cls-12" d="m81.26,123.95c-.12.07-.22.12-.31.17-.05-.1-.15-.21-.13-.3.01-.08.15-.14.24-.2.06.09.12.19.2.33Z"/>
  <path class="cls-12" d="m85.02,157.16c-.12.09-.2.15-.29.21-.06-.09-.17-.19-.17-.28,0-.08.14-.15.22-.23.07.08.14.17.24.29Z"/>
  <path class="cls-12" d="m99.43,90.22c.26-.19.52-.38.79-.56-.26.19-.52.38-.79.56Z"/>
  <path class="cls-12" d="m104.18,88.61c.07.03.14.06.2.09-.03.07-.04.17-.09.19-.05.02-.13-.05-.2-.08.03-.07.06-.14.09-.2Z"/>
  <path class="cls-12" d="m94.65,127.93c-.03.07-.05.17-.09.19-.05.02-.13-.05-.2-.08.03-.07.04-.17.09-.19.05-.02.13.05.2.08Z"/>
  <path class="cls-12" d="m84.93,126.61c.07.03.14.06.2.09-.03.07-.04.17-.09.19-.05.02-.13-.05-.2-.08.03-.07.06-.14.09-.2Z"/>
  <path class="cls-12" d="m85.6,156.07c.03-.07.05-.17.09-.19.05-.02.13.05.2.08-.03.07-.04.17-.09.19-.05.02-.13-.05-.2-.08Z"/>
  <path class="cls-12" d="m83.81,120.16c-.07-.03-.17-.04-.19-.09-.02-.05.05-.13.08-.2.07.03.17.04.19.09.02.05-.05.13-.08.2Z"/>
  <path class="cls-12" d="m107.81,122.16c-.07-.03-.17-.04-.19-.09-.02-.05.05-.13.08-.2.07.03.17.04.19.09.02.05-.05.13-.08.2Z"/>
  <path class="cls-7" d="m102.73,93.91c.09-.05.19-.11.28-.16,0,.07,0,.15,0,.22-.1-.02-.19-.04-.29-.06Z"/>
  <path class="cls-12" d="m158.53,47.91c.33.26.66.53.99.79-.71.35-.81.27-.99-.79Z"/>
  <path class="cls-12" d="m158.24,50.21c-.14-.16-.28-.31-.43-.47.05-.06.1-.11.16-.17.17.13.33.27.5.4-.08.08-.15.16-.23.23Z"/>
  <path class="cls-12" d="m161.25,50.25c.09.08.17.16.26.23-.12.05-.25.09-.37.14.04-.12.07-.25.11-.37Z"/>
  <path class="cls-24" d="m138.75,46c.92,0,1.83,0,2.75,0,.17.17.33.33.5.5,1.01.49,2.03.97,3.03,1.47.66.33,1.31.69,1.97,1.03.38.94.25,1.46-.83,2-1.62.79-3.02,2.02-4.55,2.99-1.14.73-2.34,1.36-3.52,2.03-.18.1-.4.16-.53.3-2.14,2.43-5.08,3.79-7.6,5.7-.13.1-.33.2-.36.33-.31,1.55-1.98,1.46-2.84,2.35-.89.92-1.84,1.79-2.83,2.61-.58.48-1.26.84-1.94,1.18-.38.19-.84.21-1.27.31-.31-.44-.61-.87-.92-1.31.2-.2.4-.4.59-.6-.61-.24-1.2-.55-1.82-.7-.23-.06-.55.25-.83.39-.5.21-1,.41-1.5.62l-.61-.66c-.27.28-.67.52-.79.85-.83,2.45-1.67,4.87-3.06,7.09-1.79,2.88-4.03,5.32-6.56,7.52-1.4,1.22-2.84,2.39-4.27,3.58-.68.56-1.33,1.19-2.07,1.65-1.65,1.03-3.92,1.3-4.38,3.74-.24,1.31-.84,2.53-.02,3.94.36.62.34,1.89-.07,2.44-1.76,2.33-3.74,4.49-5.61,6.74-.39.47-.65,1.03-.99,1.54-.95,1.45-1.98,3.02-3.73,3.34-2.98.54-6.03.75-9.05,1.02-1.68.15-2.63.99-2.8,2.72-.3.36-.61.71-.91,1.07-.1.11-.2.23-.3.34-.51.62-1.02,1.25-1.54,1.87-.89-1.08-1.54,0-1.94.41-1.44,1.5-2.73,3.14-4.04,4.77-.11.13.16.56.25.85-.16.17-.33.33-.49.5-.09.1-.18.2-.26.3-.73.82-1.47,1.65-2.2,2.47-.38.12-.83.16-1.12.39-.58.45-.99,1.13-1.6,1.5-2.55,1.55-4.13,4-5.86,6.3-.31.41-.27,1.08-.39,1.63,0,0-.08-.04-.08-.04,0,0,.08.04.08.04-.76-.15-.84.35-.85.91-.07.09-.15.17-.22.26-.09.1-.17.19-.26.29,0,0,.01,0,.01,0-.8.38-1.6.78-2.41,1.13-.27.11-.6.09-.9.13.03-.3-.02-.64.1-.9.86-1.7,1.7-3.4,2.65-5.05,1.21-2.11,2.54-4.14,3.75-6.24.43-.75.58-1.66.99-2.43,1.41-2.65,2.84-5.29,4.34-7.89.72-1.25,1.66-2.37,2.38-3.61.62-1.06,1.01-2.26,1.61-3.33.58-1.03,1.34-1.96,1.95-2.97.8-1.32,1.71-2.55,2.13-4.13.3-1.13,1.29-2.06,1.93-3.11.66-1.09,1.3-2.2,1.89-3.34,1.11-2.15,2.76-3.01,5.17-2.75.63.07,1.46.09,1.9-.25,1.3-.99,2.73-.87,4.16-.78,3.26.2,5.12-1.71,7.04-4.01,1.75-2.09,3.03-4.63,5.45-6.15.82-.51,1.44-1.35,2.13-2.06,2.62-2.71,5.22-5.45,7.86-8.14,1.44-1.46,2.85-2.97,4.43-4.26,2.35-1.92,4.84-3.67,7.27-5.49.2-.15.39-.31.57-.48,2.29-2.04,4.79-3.77,7.45-5.32,2.2-1.29,4.22-2.88,6.3-4.37.19-.13.22-.49.32-.74.25,0,.5,0,.75,0,.42-.33.83-.67,1.25-1,.25,0,.5,0,.75,0,.67-.5,1.33-1,2-1.5.5-.17,1-.33,1.5-.5.17-.17.33-.33.5-.5.08,0,.17,0,.25,0,.25-.17.5-.33.75-.5Z"/>
  <path class="cls-22" d="m72.24,112.7c.18-1.72,1.13-2.57,2.8-2.72,3.02-.27,6.07-.49,9.05-1.02,1.75-.32,2.78-1.89,3.73-3.34.34-.51.6-1.08.99-1.54,1.87-2.25,3.85-4.41,5.61-6.74.41-.55.43-1.82.07-2.44-.82-1.41-.22-2.63.02-3.94.46-2.44,2.72-2.71,4.38-3.74.75-.46,1.39-1.09,2.07-1.65,1.43-1.19,2.87-2.36,4.27-3.58,2.53-2.2,4.77-4.65,6.56-7.52,1.38-2.23,2.23-4.65,3.06-7.09.11-.33.52-.57.79-.85.2.22.41.44.61.66-.34.6-.68,1.2-1.01,1.8-.06.19-.11.37-.17.56-.77,3.17-2.23,5.99-4.42,8.39-4.07,4.45-8.37,8.64-13.65,11.72-.82.48-1.63,1.39-1.91,2.27-.49,1.5.02,2.08,1.93,3.07,0,.25,0,.5-.01.76-.57.67-1.14,1.35-1.71,2.02-2.65,3.47-5.28,6.95-7.97,10.39-.57.73-1.35,1.3-2.03,1.94-.19.05-.37.09-.56.14-.41.01-.81.03-1.22.04-.09,0-.18,0-.28,0-.23.02-.47.03-.7.05-.12.01-.23.03-.35.04-.22.03-.44.06-.66.09-.1,0-.2.02-.29.03-.24.01-.48.03-.72.04-.51.07-1.01.15-1.52.22-.32.06-.65.13-.97.19-.1.02-.19.03-.29.05-.24.01-.49.02-.73.03-.33,0-.66,0-.99,0-.42.06-.85.13-1.27.19-.68.34-1.37.69-2.05,1.03-.07.07-.13.13-.2.2-.08.09-.17.17-.25.26Z"/>
  <path class="cls-22" d="m51.85,135.09c.12-.55.08-1.22.39-1.63,1.74-2.29,3.31-4.75,5.86-6.3.61-.37,1.03-1.05,1.6-1.5.29-.23.74-.26,1.12-.39-2.99,3.27-5.98,6.54-8.97,9.81Z"/>
  <path class="cls-22" d="m63.78,122.01c-.09-.29-.36-.72-.25-.85,1.3-1.63,2.6-3.27,4.04-4.77.4-.41,1.05-1.49,1.94-.41-1.91,2.01-3.81,4.02-5.72,6.03Z"/>
  <path class="cls-3" d="m95.29,97.76c.57-.67,1.14-1.35,1.71-2.02,0,0,.1,0,.1,0h.1c.71.4.75.87.01,1.25-.61.32-1.28.51-1.93.77Z"/>
  <path class="cls-22" d="m51,136c0-.56.08-1.05.85-.91-.28.3-.56.6-.85.91Z"/>
  <path class="cls-4" d="m79,110.75c.51-.07,1.01-.15,1.52-.22-.51.07-1.01.15-1.52.22Z"/>
  <path class="cls-20" d="m74.75,111.21c.42-.06.85-.13,1.27-.19-.03.06-.04.11-.06.18-.41,0-.81.01-1.22.02Z"/>
  <path class="cls-4" d="m75.96,111.19c.01-.06.03-.12.06-.18.33,0,.66,0,.99,0-.35.06-.7.11-1.05.17Z"/>
  <path class="cls-15" d="m97.2,95.73h-.1s-.1.01-.1.01c0-.25,0-.5.01-.76.09,0,.18,0,.27,0-.03.25-.05.49-.08.74Z"/>
  <path class="cls-13" d="m43.74,143.08c.17,0,.35,0,.52,0-.17,0-.35,0-.52,0Z"/>
  <path class="cls-4" d="m84.73,110.23c.19-.05.37-.09.56-.14-.19.05-.37.09-.56.14Z"/>
  <path class="cls-22" d="m50.52,136.55c.09-.1.17-.19.26-.29-.09.1-.17.19-.26.29Z"/>
  <path class="cls-22" d="m63.02,122.81c.09-.1.18-.2.26-.3-.09.1-.18.2-.26.3Z"/>
  <path class="cls-22" d="m71.03,114.11c.1-.11.2-.23.3-.34-.1.11-.2.23-.3.34Z"/>
  <path class="cls-24" d="m72.49,112.44c.07-.07.13-.13.2-.2-.07.07-.13.13-.2.2Z"/>
  <path class="cls-4" d="m77.74,110.99c.1-.02.19-.03.29-.05-.1.02-.19.03-.29.05Z"/>
  <path class="cls-4" d="m83.24,110.27c.09,0,.18,0,.28,0-.09,0-.18,0-.28,0Z"/>
  <path class="cls-4" d="m82.19,110.36c.12-.01.23-.03.35-.04-.12.01-.23.03-.35.04Z"/>
  <path class="cls-4" d="m81.24,110.49c.1,0,.2-.02.29-.03-.1,0-.2.02-.29.03Z"/>
  <path class="cls-5" d="m144.68,70c-.69.43-1.57.72-2.04,1.32-.84,1.06-1.45,2.3-2.15,3.47-1.39-.97-2.81-1.91-4.16-2.94-.2-.15-.2-.89,0-1.16,1.7-2.46,3.39-4.93,5.23-7.28.57-.73,1.54-1.39,2.43-1.59,2.29-.52,4.21,1.74,3.32,4-.6,1.51-1.73,2.8-2.63,4.19Z"/>
  <path class="cls-18" d="m138,81.05c-.15-.25-.44-.51-.41-.74.04-.34.3-.65.47-.97.31-.02.62-.05.92-.07.67.49,1.34.98,2.01,1.48,0,.21,0,.41,0,.62l-.74-.15c-.43-.06-.86-.12-1.29-.18-.16,0-.32.01-.48.02-.17,0-.33,0-.5,0Z"/>
  <path class="cls-15" d="m151.78,63.48c.08.58.16,1.16.24,1.73-.08-.58-.16-1.16-.24-1.73Z"/>
  <path class="cls-5" d="m138,81.05c.17,0,.33,0,.5,0-.05.2-.11.4-.26.95-.14-.56-.19-.76-.25-.96Z"/>
  <path class="cls-21" d="m138.98,81.04c.43.06.86.12,1.29.18-.43-.06-.86-.12-1.29-.18Z"/>
  <path class="cls-15" d="m141.01,81.37c0-.21,0-.41,0-.62.17.08.33.17.5.25v.5c-.16-.04-.33-.09-.49-.13Z"/>
  <path class="cls-13" d="m141.51,81.5v-.5c.13.11.26.21.39.32-.13.06-.26.12-.39.19Z"/>
  <path class="cls-13" d="m138.98,79.27c-.31.02-.62.05-.92.07.31-.02.62-.05.92-.07Z"/>
  <path class="cls-23" d="m140.76,82.7c-.09,0-.18,0-.27-.01.09,0,.18,0,.27.01Z"/>
  <path class="cls-23" d="m141.76,82.71c-.09,0-.18,0-.27-.02.09,0,.18,0,.27.02Z"/>
  <path class="cls-15" d="m149.97,40.78c-.03-.21-.06-.42-.08-.63.03.21.06.42.08.63Z"/>
  <path class="cls-21" d="m165.47,50.72c-.17.02-.34.05-.51.07.17-.02.34-.05.51-.07Z"/>
  <path class="cls-4" d="m165.99,48.24c-.01.09-.03.19-.04.28.01-.09.03-.19.04-.28Z"/>
  <path class="cls-19" d="m111.75,112.25c-1.44-1.72-2.04-3.59-.97-5.73.07,0,.14-.02.2-.04.5.49.98,1.35,1.5,1.39.68.04,1.4-.57,2.09-.93.17-.09.26-.33.43-.43.76-.43,1.54-.82,2.31-1.23-1.61,1.58-3.21,3.17-4.82,4.75,0,.34-.02.68-.03,1.02.57.9,1.12,1.65,2.36.83,1.9-1.26,3.92-2.34,5.77-3.66.97-.69,1.68-1.75,2.5-2.65-.02-.54-.04-1.07-.06-1.61-.51-.75-1.02-1.5-1.53-2.25-.59.41-1.19.83-1.78,1.24-.07.05-.14.09-.21.13.03-.5-.13-1.31.11-1.44.99-.56.6-1.38.62-2.14,3.61.72,5.29,5.06,3.13,8.04-.82,1.13-1.59,2.31-2.39,3.46-.77.84-1.42,1.87-2.34,2.49-2.1,1.43-4.16.72-6.12-.5-.1-.08-.19-.16-.29-.24,0,0,0,0,0,0-.08-.08-.16-.16-.25-.24,0,0-.01-.01-.01-.01-.08-.08-.16-.17-.24-.25Zm7.14-.45c-.7-.27-1.13-.6-1.36-.5-.47.22-.84.67-1.24,1.02.34.22.76.69,1.02.61.48-.14.87-.59,1.59-1.14Z"/>
  <path class="cls-8" d="m117.33,105.28c-.77.41-1.55.81-2.31,1.23-.17.1-.26.34-.43.43-.69.36-1.42.97-2.09.93-.53-.03-1-.89-1.5-1.39.09-.16.17-.32.26-.48,1.39-.06,1.36-1.12,1.47-2.08,1.08-1.33,2.04-2.79,3.28-3.94,1.18-1.08,2.75-.96,4.24-.48-.01.76.38,1.58-.62,2.14-.23.13-.08.94-.11,1.44-.73.73-1.46,1.47-2.2,2.2Z"/>
  <path class="cls-19" d="m112.72,103.92c-.12.96-.08,2.02-1.47,2.08l1.47-2.08Z"/>
  <path class="cls-22" d="m117.75,66.57c.28-.14.6-.44.83-.39.63.15,1.22.45,1.82.7-.2.2-.4.4-.59.6l-2.06-.91Z"/>
  <path class="cls-15" d="m115.06,69.55c.06-.19.11-.37.17-.56-.06.19-.11.37-.17.56Z"/>
  <path class="cls-12" d="m112.25,112.75c.1.08.19.16.29.24-.1-.08-.19-.16-.29-.24Z"/>
  <path class="cls-12" d="m112,112.51c.08.08.16.16.25.24-.08-.08-.16-.16-.25-.24Z"/>
  <path class="cls-12" d="m111.75,112.25c.08.08.16.17.24.25-.08-.08-.16-.17-.24-.25Z"/>
  <path class="cls-22" d="m135.75,47.5c-.67.5-1.33,1-2,1.5.22-1.09,1.11-1.29,2-1.5Z"/>
  <path class="cls-22" d="m133,49c-.42.33-.83.67-1.25,1,.2-.61.37-1.24,1.25-1Z"/>
  <path class="cls-22" d="m138.75,46c-.25.17-.5.33-.75.5.25-.17.5-.33.75-.5Z"/>
  <path class="cls-22" d="m142,46.5c-.17-.17-.33-.33-.5-.5.17.17.33.33.5.5Z"/>
  <path class="cls-22" d="m137.75,46.5c-.17.17-.33.33-.5.5.17-.17.33-.33.5-.5Z"/>
  <path class="cls-22" d="m117.33,105.28c.73-.73,1.46-1.47,2.2-2.2.07-.04.14-.08.21-.13.6-.41,1.19-.82,1.78-1.24.51.75,1.02,1.5,1.53,2.25.02.54.04,1.07.06,1.61-.83.89-1.53,1.95-2.5,2.65-1.85,1.33-3.87,2.4-5.77,3.66-1.24.82-1.79.07-2.36-.83,0-.34.02-.68.03-1.02,1.61-1.58,3.21-3.17,4.82-4.75Z"/>
  <path class="cls-8" d="m118.9,111.79c-.72.54-1.11,1-1.59,1.14-.26.08-.67-.39-1.02-.61.41-.36.77-.81,1.24-1.02.23-.11.66.22,1.36.5Z"/>
  <path class="cls-15" d="m123.11,105.57c-.02-.54-.04-1.07-.06-1.61.02.54.04,1.07.06,1.61Z"/>
  <path class="cls-25" d="m112.51,110.04c0,.34-.02.68-.03,1.02,0-.34.02-.68.03-1.02Z"/>
</svg>