<?xml version="1.0" encoding="UTF-8"?>
<svg id="Layer_1" data-name="Layer 1" xmlns="http://www.w3.org/2000/svg" viewBox="0 0 256 256">
  <defs>
    <style>
      .cls-1 {
        fill: #fff;
      }
    </style>
  </defs>
  <path class="cls-1" d="m0,256V0h256v256H0Zm238.46-127.82c0-34.79,0-69.58,0-104.37,0-1.67.05-3.33.02-5-.03-1.71-.57-2.25-2.26-2.3-1.46-.04-2.92,0-4.37,0-48.79,0-97.58,0-146.37,0-22.21,0-44.41,0-66.62,0-2.91,0-3.33.43-3.33,3.32,0,14.04,0,28.08,0,42.12,0,57.79,0,115.58,0,173.36,0,4.03.12,4.17,4.1,4.17,33.79,0,67.58,0,101.37,0,36.5,0,73,0,109.49,0,1.92,0,3.83.04,5.75,0,1.64-.04,2.25-.69,2.26-2.32,0-1.42-.04-2.83-.04-4.25,0-34.91,0-69.83,0-104.74Z"/>
  <path d="m238.46,128.18c0,34.91,0,69.83,0,104.74,0,1.42.05,2.83.04,4.25-.01,1.63-.63,2.28-2.26,2.32-1.92.04-3.83,0-5.75,0-36.5,0-73,0-109.49,0-33.79,0-67.58,0-101.37,0-3.98,0-4.1-.14-4.1-4.17,0-57.79,0-115.58,0-173.36,0-14.04,0-28.08,0-42.12,0-2.88.41-3.32,3.33-3.32,22.21,0,44.41,0,66.62,0,48.79,0,97.58,0,146.37,0,1.46,0,2.92-.05,4.37,0,1.69.05,2.23.59,2.26,2.3.03,1.67-.02,3.33-.02,5,0,34.79,0,69.58,0,104.37Zm-76.62-35.09c-2.22,0-4.21,0-6.2,0-20.07,0-40.15,0-60.22,0-3.34,0-3.34,0-3.34,3.37.02,21.7.05,43.4.03,65.1,0,1.06.35,1.23,1.28,1.23,22.37-.02,44.73-.02,67.1,0,.99,0,1.35-.2,1.34-1.3-.03-19.03,0-38.06,0-57.1,0-3.66,0-7.32,0-11.31ZM234.9,20.18h-69.39c-.04.28-.09.53-.09.77-.03,22.62-.06,45.24-.1,67.86,0,.65.21.89.87.86,1.37-.06,2.75-.09,4.12-.09,20.96,0,41.91,0,62.87,0,.56,0,1.12-.06,1.72-.09V20.18ZM88.52,93.09c-1.87,0-3.58,0-5.28,0-20.99,0-41.99,0-62.98-.01-1.01,0-1.25.34-1.25,1.31.03,22.41.03,44.82.05,67.23,0,.35.05.71.07,1.06h69.4v-69.58Zm0-3.56c.03-.29.06-.49.06-.69,0-22.58,0-45.16.01-67.74,0-.86-.27-1.04-1.07-1.04-22.45,0-44.91,0-67.36-.03-.86,0-1.15.2-1.15,1.1.02,21.91.02,43.83.02,65.74v2.65h69.49Zm146.35,73.26v-69.58h-69.48v3.11c0,21.66.01,43.33-.03,64.99,0,1.13.2,1.46,1.39,1.46,20.87-.03,41.75,0,62.62.01,1.79,0,3.57,0,5.5,0ZM92.19,20.12v69.37h69.53V20.12h-69.53Zm-.1,146.36c0,2.89,0,5.72,0,8.54.02,19.87.05,39.74.05,59.62,0,.98.23,1.32,1.25,1.27,1.75-.09,3.5-.03,5.25-.03,20.62,0,41.24,0,61.87,0,.74,0,1.34.11,1.34-1.03-.05-22.29-.06-44.58-.04-66.86,0-1.24-.16-1.63-1.57-1.62-22.33.06-44.66.03-66.99.02-.32,0-.64.05-1.15.09Zm-72.93,0c-.06.26-.1.34-.1.42-.01,22-.02,43.99-.02,65.99,0,3.03.02,3.03,2.97,3.03,21.21,0,42.41-.01,63.62-.02.94,0,1.89,0,2.86,0v-69.42H19.16Zm146.35,0v69.43c.97,0,1.84,0,2.71,0,21.79,0,43.58-.01,65.37.02,1.08,0,1.4-.24,1.4-1.37-.04-21.96-.04-43.91-.05-65.87,0-.73,0-1.46,0-2.21h-69.43Z"/>
  <path class="cls-1" d="m161.84,93.08c0,3.99,0,7.65,0,11.31-.01,19.03-.03,38.06,0,57.1,0,1.1-.35,1.3-1.34,1.3-22.37-.02-44.73-.02-67.1,0-.93,0-1.28-.17-1.28-1.23.02-21.7-.01-43.4-.03-65.1,0-3.36,0-3.37,3.34-3.37,20.07,0,40.15,0,60.22,0,1.99,0,3.98,0,6.2,0Zm-31.71,12.92c-1.37,0-2.75.04-4.12,0-3.2-.11-5.39,1.63-6.86,4.17-2.12,3.66-3.91,7.52-5.92,11.25-1.95,3.61-2.01,7.33-.37,10.95,1.78,3.93,3.86,7.73,5.87,11.56,1.18,2.26,3.36,3.69,5.62,3.95,3.78.45,7.66.23,11.48.04.79-.04,1.7-1.08,2.23-1.87.52-.77.02-1.67-.75-2.13-.67-.41-1.46-.84-2.22-.86-2.96-.1-5.92-.08-8.87-.01-1.34.03-2.23-.52-2.82-1.66-1.77-3.39-3.64-6.73-5.24-10.2-.67-1.46-1.04-3.18-1.04-4.79,0-1.2.69-2.45,1.25-3.59,1.66-3.35,3.42-6.66,5.12-9.99.65-1.26,1.52-1.89,3.06-1.83,2.95.13,5.91.04,8.87.03,1.42,0,2.83-1.23,2.85-2.43.01-1.27-1.41-2.55-2.87-2.56-1.75-.01-3.5,0-5.25,0Z"/>
  <path class="cls-1" d="m234.9,20.18v69.31c-.59.03-1.16.09-1.72.09-20.96,0-41.91,0-62.87,0-1.37,0-2.75.02-4.12.09-.66.03-.87-.21-.87-.86.04-22.62.06-45.24.1-67.86,0-.24.06-.49.09-.77h69.39Zm-33.88,57.81c1.87,0,3.77.17,5.61-.07.84-.11,1.73-.9,2.28-1.62.3-.39.14-1.41-.18-1.92-.55-.89-1.41-1.43-2.6-1.4-2.95.06-5.91-.02-8.87.05-1.39.03-2.3-.53-2.92-1.71-1.75-3.35-3.58-6.66-5.19-10.08-.65-1.39-1.08-3.01-1.09-4.53,0-1.24.62-2.56,1.19-3.73,1.66-3.4,3.46-6.73,5.16-10.1.66-1.31,1.53-1.98,3.13-1.91,2.91.13,5.83.04,8.74.04,1.51,0,2.95-1.21,2.95-2.45,0-1.32-1.44-2.54-3.01-2.54-3.08,0-6.16.05-9.24-.02-3.2-.07-5.39,1.64-6.85,4.17-2.22,3.84-4.21,7.82-6.2,11.79-1.74,3.46-1.63,7.06-.05,10.5,1.59,3.47,3.53,6.78,5.19,10.22,1.75,3.63,4.52,5.46,8.57,5.34,1.12-.04,2.25,0,3.37,0Z"/>
  <path class="cls-1" d="m88.52,93.09v69.58H19.13c-.02-.35-.07-.7-.07-1.06-.01-22.41-.01-44.82-.05-67.23,0-.97.24-1.31,1.25-1.31,20.99.02,41.99.02,62.98.01,1.7,0,3.4,0,5.28,0Zm-45.12,17.91c.82,0,1.27,0,1.72,0,4.21,0,8.41,0,12.62,0,1.45,0,2.06.47,2.43,1.91.09.36.15.73.26,1.09.43,1.45,1.22,2.09,2.46,2,1.12-.09,2.28-1.3,2.39-2.52.32-3.44-3.32-7.46-6.78-7.47-4.62-.01-9.25.15-13.87-.06-2.74-.12-6.26,2.99-6.16,6,.05,1.66.77,2.97,1.69,4.2,2.54,3.4,5.14,6.75,7.73,10.11,3.8,4.94,7.63,9.86,11.42,14.81.39.51.63,1.15,1.05,1.94-5.13,0-9.92.02-14.7-.02-1.08,0-1.77-.65-1.97-1.75-.07-.41-.11-.83-.2-1.23-.28-1.25-1.21-1.98-2.51-1.98-1.25,0-1.98.57-2.33,1.84-.92,3.37,2.7,8.13,6.23,8.14,5.08.01,10.16,0,15.24,0,.37,0,.77.02,1.11-.1,3.46-1.21,5.09-5.56,3.13-8.65-1.2-1.89-2.61-3.65-3.97-5.43-5.32-6.93-10.66-13.84-15.97-20.77-.38-.5-.58-1.14-1.03-2.04Z"/>
  <path class="cls-1" d="m88.53,89.54H19.04v-2.65c0-21.91,0-43.83-.02-65.74,0-.9.28-1.11,1.15-1.1,22.45.03,44.91.04,67.36.03.8,0,1.07.18,1.07,1.04-.02,22.58-.01,45.16-.01,67.74,0,.2-.04.4-.06.69Zm-36.67-13.45c.4.42.69.66.89.96.49.74,1.14,1,2.01.97,1.71-.05,3.42.05,5.12-.05.59-.03,1.38-.31,1.7-.75,1.12-1.54,2.15-3.16,3.07-4.82.38-.69.58-1.57.58-2.36.04-9.87.02-19.75.02-29.62,0-.62.02-1.25-.04-1.87-.1-1.1-1.18-2.33-2.15-2.5-1.08-.19-2.18.39-2.69,1.6-.27.63-.38,1.36-.38,2.05-.02,8.04-.02,16.08-.01,24.12,0,1.87.04,3.75.03,5.62,0,1.46-1.16,3.39-2.06,3.57-1.71.33-3.41-1.24-3.39-3.08.03-5.37.05-10.74.06-16.12,0-.54-.03-1.09-.15-1.61-.48-2.05-2.91-2.94-4.22-1.45-.57.64-.88,1.72-.89,2.6-.07,5.45.09,10.91-.09,16.36-.04,1.12-.92,2.74-1.86,3.18-1.76.83-3.66-.89-3.65-2.9,0-9.5.01-19,.02-28.49,0-1,.05-2.01-.08-2.99-.21-1.53-1.41-2.56-2.68-2.45-1.44.13-2.48,1.35-2.48,2.92,0,10.04.04,20.08-.07,30.12-.02,2.13.78,3.74,1.71,5.55,1.5,2.92,3.65,3.76,6.7,3.41,1.84-.21,3.92.48,4.96-1.95Z"/>
  <path class="cls-1" d="m234.88,162.8c-1.92,0-3.71,0-5.5,0-20.87-.01-41.75-.04-62.62-.01-1.2,0-1.39-.33-1.39-1.46.04-21.66.03-43.33.03-64.99v-3.11h69.48v69.58Zm-60.27-34.9c.34,14.23,10.4,25.11,24.88,25.59,14.06.46,25.98-10.99,26.22-24.8.25-14.16-11.19-26.04-25.27-26.24-14.15-.2-25.61,11.1-25.84,25.45Z"/>
  <path class="cls-1" d="m92.19,20.12h69.53v69.37h-69.53V20.12Zm60.35,34.84c-.22-14.61-11.6-25.84-25.98-25.7-14.39.14-25.62,12.93-25.06,26.11.59,13.88,10.8,25.22,25.97,24.98,14.56-.23,24.71-11.32,25.07-25.39Z"/>
  <path class="cls-1" d="m92.08,166.48c.51-.04.83-.09,1.15-.09,22.33,0,44.66.03,66.99-.02,1.42,0,1.58.38,1.57,1.62-.02,22.29,0,44.58.04,66.86,0,1.14-.61,1.03-1.34,1.03-20.62,0-41.24,0-61.87,0-1.75,0-3.5-.06-5.25.03-1.02.05-1.25-.29-1.25-1.27,0-19.87-.03-39.74-.05-59.62,0-2.83,0-5.65,0-8.54Zm60.45,35.07c-.15-14.83-10.98-25.87-25.3-25.92-16.13-.06-25.77,12.64-25.79,25.55-.02,14.07,11.47,25.56,25.49,25.54,14.01-.03,25.62-11.44,25.6-25.17Z"/>
  <path class="cls-1" d="m19.16,166.48h69.33v69.42c-.98,0-1.92,0-2.86,0-21.21,0-42.41.01-63.62.02-2.95,0-2.97,0-2.97-3.03,0-22,.01-43.99.02-65.99,0-.08.04-.16.1-.42Zm34.58,60.25c13.66-.37,25.48-9.98,25.6-25.66.1-12.85-9.94-25.38-25.39-25.48-14.11-.09-25.69,11.59-25.68,25.66,0,13.83,11.66,25.49,25.47,25.48Z"/>
  <path class="cls-1" d="m165.5,166.47h69.43c0,.75,0,1.48,0,2.21,0,21.96,0,43.91.05,65.87,0,1.13-.31,1.37-1.4,1.37-21.79-.03-43.58-.02-65.37-.02-.87,0-1.74,0-2.71,0v-69.43Zm60.22,34.66c.1-12.55-10.07-25.36-25.19-25.5-14.87-.14-25.95,11.05-25.86,25.57.1,15.75,12.39,25.48,25.3,25.52,14.13.04,25.75-11.54,25.75-25.59Z"/>
  <path d="m130.13,106c1.75,0,3.5,0,5.25,0,1.46,0,2.88,1.29,2.87,2.56-.01,1.2-1.43,2.43-2.85,2.43-2.96,0-5.92.09-8.87-.03-1.54-.07-2.41.56-3.06,1.83-1.7,3.33-3.46,6.64-5.12,9.99-.56,1.14-1.26,2.39-1.25,3.59,0,1.61.37,3.33,1.04,4.79,1.6,3.47,3.48,6.81,5.24,10.2.59,1.14,1.48,1.69,2.82,1.66,2.96-.06,5.92-.08,8.87.01.75.02,1.54.45,2.22.86.77.47,1.27,1.36.75,2.13-.53.79-1.44,1.83-2.23,1.87-3.82.19-7.7.41-11.48-.04-2.26-.27-4.44-1.7-5.62-3.95-2.01-3.83-4.09-7.63-5.87-11.56-1.64-3.62-1.57-7.34.37-10.95,2.01-3.73,3.8-7.58,5.92-11.25,1.46-2.53,3.65-4.27,6.86-4.17,1.37.05,2.75,0,4.12,0Z"/>
  <path d="m201.03,78c-1.12,0-2.25-.03-3.37,0-4.05.13-6.82-1.71-8.57-5.34-1.66-3.44-3.6-6.75-5.19-10.22-1.58-3.45-1.69-7.04.05-10.5,1.99-3.97,3.98-7.95,6.2-11.79,1.46-2.53,3.65-4.24,6.85-4.17,3.08.06,6.16.01,9.24.02,1.58,0,3.01,1.22,3.01,2.54,0,1.25-1.43,2.45-2.95,2.45-2.91,0-5.83.09-8.74-.04-1.59-.07-2.46.6-3.13,1.91-1.71,3.38-3.5,6.71-5.16,10.1-.57,1.17-1.2,2.49-1.19,3.73.01,1.52.44,3.14,1.09,4.53,1.6,3.42,3.44,6.73,5.19,10.08.61,1.18,1.53,1.74,2.92,1.71,2.95-.07,5.91.02,8.87-.05,1.19-.03,2.06.51,2.6,1.4.31.51.47,1.53.18,1.92-.55.72-1.44,1.51-2.28,1.62-1.84.24-3.74.07-5.61.08Z"/>
  <path d="m43.41,111c.44.9.65,1.54,1.03,2.04,5.31,6.93,10.65,13.84,15.97,20.77,1.37,1.78,2.77,3.54,3.97,5.43,1.96,3.09.34,7.44-3.13,8.65-.34.12-.74.1-1.11.1-5.08,0-10.16.01-15.24,0-3.53,0-7.16-4.77-6.23-8.14.35-1.27,1.07-1.84,2.33-1.84,1.3,0,2.23.73,2.51,1.98.09.4.13.82.2,1.23.2,1.09.89,1.74,1.97,1.75,4.78.04,9.56.02,14.7.02-.42-.79-.66-1.43-1.05-1.94-3.79-4.95-7.62-9.87-11.42-14.81-2.59-3.36-5.19-6.71-7.73-10.11-.92-1.23-1.64-2.53-1.69-4.2-.1-3,3.42-6.12,6.16-6,4.61.21,9.24.05,13.87.06,3.45,0,7.1,4.04,6.78,7.47-.11,1.22-1.26,2.44-2.39,2.52-1.23.1-2.03-.55-2.46-2-.11-.36-.16-.73-.26-1.09-.38-1.43-.98-1.91-2.43-1.91-4.21,0-8.41,0-12.62,0-.45,0-.9,0-1.72,0Z"/>
  <path d="m51.86,76.08c-1.05,2.44-3.12,1.74-4.96,1.95-3.06.35-5.21-.49-6.7-3.41-.93-1.81-1.73-3.42-1.71-5.55.11-10.04.06-20.08.07-30.12,0-1.56,1.04-2.79,2.48-2.92,1.26-.11,2.47.92,2.68,2.45.13.98.08,1.99.08,2.99,0,9.5-.01,19-.02,28.49,0,2.01,1.89,3.73,3.65,2.9.94-.44,1.82-2.06,1.86-3.18.18-5.45.02-10.91.09-16.36.01-.88.33-1.96.89-2.6,1.31-1.49,3.74-.6,4.22,1.45.12.52.15,1.07.15,1.61-.01,5.37-.03,10.74-.06,16.12-.01,1.84,1.69,3.41,3.39,3.08.91-.17,2.05-2.11,2.06-3.57.01-1.87-.03-3.75-.03-5.62,0-8.04-.01-16.08.01-24.12,0-.69.12-1.42.38-2.05.51-1.2,1.61-1.79,2.69-1.6.97.17,2.05,1.4,2.15,2.5.06.62.04,1.25.04,1.87,0,9.87.02,19.75-.02,29.62,0,.79-.2,1.68-.58,2.36-.92,1.66-1.95,3.28-3.07,4.82-.32.44-1.11.72-1.7.75-1.7.1-3.42,0-5.12.05-.88.03-1.53-.23-2.01-.97-.2-.3-.49-.54-.89-.96Z"/>
  <path d="m174.61,127.9c.23-14.36,11.69-25.65,25.84-25.45,14.07.2,25.52,12.08,25.27,26.24-.24,13.81-12.16,25.26-26.22,24.8-14.49-.48-24.54-11.36-24.88-25.59Z"/>
  <path d="m152.53,54.96c-.36,14.06-10.51,25.16-25.07,25.39-15.17.24-25.38-11.1-25.97-24.98-.56-13.18,10.67-25.97,25.06-26.11,14.38-.14,25.77,11.09,25.98,25.7Z"/>
  <path d="m152.54,201.56c.02,13.73-11.59,25.14-25.6,25.17-14.01.03-25.51-11.47-25.49-25.54.02-12.91,9.66-25.61,25.79-25.55,14.32.05,25.15,11.09,25.3,25.92Z"/>
  <path d="m53.74,226.72c-13.81.01-25.46-11.65-25.47-25.48,0-14.07,11.57-25.75,25.68-25.66,15.45.1,25.48,12.63,25.39,25.48-.12,15.68-11.94,25.29-25.6,25.66Z"/>
  <path d="m225.72,201.13c0,14.05-11.61,25.63-25.75,25.59-12.91-.04-25.2-9.77-25.3-25.52-.09-14.52,10.99-25.71,25.86-25.57,15.11.15,25.29,12.95,25.19,25.5Z"/>
</svg>